<?xml version="1.0" encoding="UTF-8" standalone="no"?>
<!DOCTYPE svg PUBLIC "-//W3C//DTD SVG 1.1//EN"
 "http://www.w3.org/Graphics/SVG/1.1/DTD/svg11.dtd">
<!-- Generated by graphviz version 2.43.0 (0)
 -->
<!-- Title: fiftyone.pipeline.engines.flowelements.CloudPipelineBuilderBase&lt; TBuilder extends CloudPipelineBuilderBase&lt; TBuilder &gt; Pages: 1 -->
<svg width="1770pt" height="244pt"
 viewBox="0.00 0.00 1770.00 244.01" xmlns="http://www.w3.org/2000/svg" xmlns:xlink="http://www.w3.org/1999/xlink">
<g id="graph0" class="graph" transform="scale(1 1) rotate(0) translate(4 240.01)">
<title>fiftyone.pipeline.engines.flowelements.CloudPipelineBuilderBase&lt; TBuilder extends CloudPipelineBuilderBase&lt; TBuilder &gt;</title>
<!-- Node5 -->
<g id="node1" class="node">
<title>Node5</title>
<g id="a_node1"><a xlink:title="Base class for pipeline builders that will produce a pipeline with specific flow elements.">
<polygon fill="#bfbfbf" stroke="black" points="1553,-68.01 1553,-120.01 1762,-120.01 1762,-68.01 1553,-68.01"/>
<text text-anchor="start" x="1561" y="-108.01" font-family="Helvetica,sans-Serif" font-size="10.00">fiftyone.pipeline.engines.flowelements.</text>
<text text-anchor="start" x="1561" y="-97.01" font-family="Helvetica,sans-Serif" font-size="10.00">CloudPipelineBuilderBase&lt; TBuilder</text>
<text text-anchor="start" x="1561" y="-86.01" font-family="Helvetica,sans-Serif" font-size="10.00"> extends CloudPipelineBuilderBase</text>
<text text-anchor="middle" x="1657.5" y="-75.01" font-family="Helvetica,sans-Serif" font-size="10.00">&lt; TBuilder &gt;</text>
</a>
</g>
</g>
<!-- Node6 -->
<g id="node2" class="node">
<title>Node6</title>
<g id="a_node2"><a xlink:href="classfiftyone_1_1pipeline_1_1engines_1_1flowelements_1_1_pre_packaged_pipeline_builder_base.html" target="_top" xlink:title=" ">
<polygon fill="none" stroke="black" points="1307,-73.51 1307,-114.51 1516,-114.51 1516,-73.51 1307,-73.51"/>
<text text-anchor="start" x="1315" y="-102.51" font-family="Helvetica,sans-Serif" font-size="10.00">fiftyone.pipeline.engines.flowelements.</text>
<text text-anchor="start" x="1315" y="-91.51" font-family="Helvetica,sans-Serif" font-size="10.00">PrePackagedPipelineBuilderBase</text>
<text text-anchor="middle" x="1411.5" y="-80.51" font-family="Helvetica,sans-Serif" font-size="10.00">&lt; TBuilder &gt;</text>
</a>
</g>
</g>
<!-- Node6&#45;&gt;Node5 -->
<g id="edge1" class="edge">
<title>Node6&#45;&gt;Node5</title>
<path fill="none" stroke="midnightblue" d="M1526.56,-94.01C1535.3,-94.01 1544.09,-94.01 1552.76,-94.01"/>
<polygon fill="midnightblue" stroke="midnightblue" points="1526.33,-90.51 1516.33,-94.01 1526.33,-97.51 1526.33,-90.51"/>
</g>
<!-- Node7 -->
<g id="node3" class="node">
<title>Node7</title>
<g id="a_node3"><a xlink:href="classfiftyone_1_1pipeline_1_1engines_1_1flowelements_1_1_pre_packaged_pipeline_builder_base.html" target="_top" xlink:title="Base class for pipeline builders that will produce a pipeline with specific flow elements.">
<polygon fill="none" stroke="black" points="956,-68.01 956,-120.01 1204,-120.01 1204,-68.01 956,-68.01"/>
<text text-anchor="start" x="964" y="-108.01" font-family="Helvetica,sans-Serif" font-size="10.00">fiftyone.pipeline.engines.flowelements.</text>
<text text-anchor="start" x="964" y="-97.01" font-family="Helvetica,sans-Serif" font-size="10.00">PrePackagedPipelineBuilderBase</text>
<text text-anchor="start" x="964" y="-86.01" font-family="Helvetica,sans-Serif" font-size="10.00">&lt; TBuilder extends PrePackagedPipelineBuilder</text>
<text text-anchor="middle" x="1080" y="-75.01" font-family="Helvetica,sans-Serif" font-size="10.00">Base&lt; TBuilder &gt;</text>
</a>
</g>
</g>
<!-- Node7&#45;&gt;Node6 -->
<g id="edge2" class="edge">
<title>Node7&#45;&gt;Node6</title>
<path fill="none" stroke="orange" stroke-dasharray="5,2" d="M1214.54,-94.01C1245.32,-94.01 1277.61,-94.01 1306.89,-94.01"/>
<polygon fill="orange" stroke="orange" points="1214.16,-90.51 1204.16,-94.01 1214.16,-97.51 1214.16,-90.51"/>
<text text-anchor="middle" x="1255.5" y="-97.01" font-family="Helvetica,sans-Serif" font-size="10.00"> &lt; TBuilder &gt;</text>
</g>
<!-- Node8 -->
<g id="node4" class="node">
<title>Node8</title>
<g id="a_node4"><a xlink:href="classfiftyone_1_1pipeline_1_1core_1_1flowelements_1_1_pipeline_builder_base.html" target="_top" xlink:title="Abstract base class for all Pipeline builders.">
<polygon fill="none" stroke="black" points="799,-68.01 799,-120.01 919,-120.01 919,-68.01 799,-68.01"/>
<text text-anchor="start" x="807" y="-108.01" font-family="Helvetica,sans-Serif" font-size="10.00">fiftyone::pipeline</text>
<text text-anchor="start" x="807" y="-97.01" font-family="Helvetica,sans-Serif" font-size="10.00">::core::flowelements</text>
<text text-anchor="start" x="807" y="-86.01" font-family="Helvetica,sans-Serif" font-size="10.00">::PipelineBuilderBase</text>
<text text-anchor="middle" x="859" y="-75.01" font-family="Helvetica,sans-Serif" font-size="10.00">&lt; TBuilder &gt;</text>
</a>
</g>
</g>
<!-- Node8&#45;&gt;Node7 -->
<g id="edge3" class="edge">
<title>Node8&#45;&gt;Node7</title>
<path fill="none" stroke="midnightblue" d="M929.48,-94.01C938.03,-94.01 946.95,-94.01 955.99,-94.01"/>
<polygon fill="midnightblue" stroke="midnightblue" points="929.26,-90.51 919.26,-94.01 929.26,-97.51 929.26,-90.51"/>
</g>
<!-- Node9 -->
<g id="node5" class="node">
<title>Node9</title>
<g id="a_node5"><a xlink:title=" ">
<polygon fill="none" stroke="#bfbfbf" points="236,-96.01 236,-126.01 456,-126.01 456,-96.01 236,-96.01"/>
<text text-anchor="start" x="244" y="-114.01" font-family="Helvetica,sans-Serif" font-size="10.00">List&lt; fiftyone.pipeline.core.flowelements.</text>
<text text-anchor="middle" x="346" y="-103.01" font-family="Helvetica,sans-Serif" font-size="10.00">FlowElement &gt;</text>
</a>
</g>
</g>
<!-- Node9&#45;&gt;Node8 -->
<g id="edge4" class="edge">
<title>Node9&#45;&gt;Node8</title>
<path fill="none" stroke="#9a32cd" stroke-dasharray="5,2" d="M401.99,-128.9C480.94,-151.85 630.39,-185.1 753,-153.01 777.68,-146.55 802.68,-132.85 822.1,-120.28"/>
<polygon fill="#9a32cd" stroke="#9a32cd" points="402.84,-125.5 392.25,-126.02 400.85,-132.21 402.84,-125.5"/>
<text text-anchor="middle" x="657.5" y="-169.01" font-family="Helvetica,sans-Serif" font-size="10.00"> flowElements</text>
</g>
<!-- Node14 -->
<g id="node10" class="node">
<title>Node14</title>
<g id="a_node10"><a xlink:href="classfiftyone_1_1pipeline_1_1core_1_1flowelements_1_1_pipeline_builder_base.html" target="_top" xlink:title="Abstract base class for all Pipeline builders.">
<polygon fill="none" stroke="black" points="562,-73.51 562,-114.51 753,-114.51 753,-73.51 562,-73.51"/>
<text text-anchor="start" x="570" y="-102.51" font-family="Helvetica,sans-Serif" font-size="10.00">fiftyone.pipeline.core.flowelements.</text>
<text text-anchor="start" x="570" y="-91.51" font-family="Helvetica,sans-Serif" font-size="10.00">PipelineBuilderBase&lt; T extends</text>
<text text-anchor="middle" x="657.5" y="-80.51" font-family="Helvetica,sans-Serif" font-size="10.00"> PipelineBuilderBase &gt;</text>
</a>
</g>
</g>
<!-- Node9&#45;&gt;Node14 -->
<g id="edge11" class="edge">
<title>Node9&#45;&gt;Node14</title>
<path fill="none" stroke="#9a32cd" stroke-dasharray="5,2" d="M466.33,-104.46C498.02,-102.72 531.81,-100.86 561.98,-99.2"/>
<polygon fill="#9a32cd" stroke="#9a32cd" points="465.91,-100.98 456.12,-105.02 466.3,-107.97 465.91,-100.98"/>
<text text-anchor="middle" x="509" y="-107.01" font-family="Helvetica,sans-Serif" font-size="10.00"> flowElements</text>
</g>
<!-- Node10 -->
<g id="node6" class="node">
<title>Node10</title>
<g id="a_node6"><a xlink:title=" ">
<polygon fill="none" stroke="#bfbfbf" points="0,-54.51 0,-73.51 34,-73.51 34,-54.51 0,-54.51"/>
<text text-anchor="middle" x="17" y="-61.51" font-family="Helvetica,sans-Serif" font-size="10.00">List</text>
</a>
</g>
</g>
<!-- Node10&#45;&gt;Node9 -->
<g id="edge5" class="edge">
<title>Node10&#45;&gt;Node9</title>
<path fill="none" stroke="orange" stroke-dasharray="5,2" d="M43.87,-74.66C46.59,-75.55 49.33,-76.36 52,-77.01 111.81,-91.67 180.08,-100.06 235.66,-104.84"/>
<polygon fill="orange" stroke="orange" points="44.93,-71.32 34.34,-71.21 42.55,-77.91 44.93,-71.32"/>
<text text-anchor="start" x="85" y="-128.01" font-family="Helvetica,sans-Serif" font-size="10.00"> &lt; fiftyone::pipeline</text>
<text text-anchor="start" x="85" y="-117.01" font-family="Helvetica,sans-Serif" font-size="10.00">::core::flowelements</text>
<text text-anchor="middle" x="135" y="-106.01" font-family="Helvetica,sans-Serif" font-size="10.00">::FlowElement &gt;</text>
</g>
<!-- Node12 -->
<g id="node8" class="node">
<title>Node12</title>
<g id="a_node8"><a xlink:title=" ">
<polygon fill="none" stroke="#bfbfbf" points="249,-3.01 249,-33.01 443,-33.01 443,-3.01 249,-3.01"/>
<text text-anchor="start" x="257" y="-21.01" font-family="Helvetica,sans-Serif" font-size="10.00">List&lt; fiftyone.pipeline.core.services.</text>
<text text-anchor="middle" x="346" y="-10.01" font-family="Helvetica,sans-Serif" font-size="10.00">PipelineService &gt;</text>
</a>
</g>
</g>
<!-- Node10&#45;&gt;Node12 -->
<g id="edge8" class="edge">
<title>Node10&#45;&gt;Node12</title>
<path fill="none" stroke="orange" stroke-dasharray="5,2" d="M44.12,-56.73C46.77,-56.1 49.43,-55.51 52,-55.01 117.17,-42.33 191.39,-33.01 248.82,-26.9"/>
<polygon fill="orange" stroke="orange" points="42.98,-53.4 34.15,-59.27 44.71,-60.19 42.98,-53.4"/>
<text text-anchor="start" x="52" y="-69.01" font-family="Helvetica,sans-Serif" font-size="10.00"> &lt; fiftyone::pipeline</text>
<text text-anchor="middle" x="135" y="-58.01" font-family="Helvetica,sans-Serif" font-size="10.00">::core::services::PipelineService &gt;</text>
</g>
<!-- Node11 -->
<g id="node7" class="node">
<title>Node11</title>
<g id="a_node7"><a xlink:title=" ">
<polygon fill="none" stroke="#bfbfbf" points="321,-216.51 321,-235.51 371,-235.51 371,-216.51 321,-216.51"/>
<text text-anchor="middle" x="346" y="-223.51" font-family="Helvetica,sans-Serif" font-size="10.00">Logger</text>
</a>
</g>
</g>
<!-- Node11&#45;&gt;Node8 -->
<g id="edge6" class="edge">
<title>Node11&#45;&gt;Node8</title>
<path fill="none" stroke="#9a32cd" stroke-dasharray="5,2" d="M381.36,-228.6C453.42,-232.68 624.34,-235.26 753,-181.01 785.28,-167.4 815.33,-140.45 834.94,-120.13"/>
<polygon fill="#9a32cd" stroke="#9a32cd" points="381.26,-225.09 371.06,-227.97 380.83,-232.07 381.26,-225.09"/>
<text text-anchor="middle" x="657.5" y="-227.01" font-family="Helvetica,sans-Serif" font-size="10.00"> logger</text>
</g>
<!-- Node11&#45;&gt;Node14 -->
<g id="edge12" class="edge">
<title>Node11&#45;&gt;Node14</title>
<path fill="none" stroke="#9a32cd" stroke-dasharray="5,2" d="M378.99,-212.37C433.44,-189.15 544.43,-141.81 608.31,-114.57"/>
<polygon fill="#9a32cd" stroke="#9a32cd" points="377.33,-209.27 369.51,-216.41 380.08,-215.71 377.33,-209.27"/>
<text text-anchor="middle" x="509" y="-174.01" font-family="Helvetica,sans-Serif" font-size="10.00"> logger</text>
</g>
<!-- Node12&#45;&gt;Node8 -->
<g id="edge7" class="edge">
<title>Node12&#45;&gt;Node8</title>
<path fill="none" stroke="#9a32cd" stroke-dasharray="5,2" d="M453.25,-4.45C536.66,2.5 654.7,4.09 753,-26.01 780.62,-34.47 807.88,-52.5 827.7,-67.86"/>
<polygon fill="#9a32cd" stroke="#9a32cd" points="452.92,-0.97 443.26,-5.33 453.52,-7.94 452.92,-0.97"/>
<text text-anchor="middle" x="657.5" y="-29.01" font-family="Helvetica,sans-Serif" font-size="10.00"> services</text>
</g>
<!-- Node12&#45;&gt;Node14 -->
<g id="edge13" class="edge">
<title>Node12&#45;&gt;Node14</title>
<path fill="none" stroke="#9a32cd" stroke-dasharray="5,2" d="M431.81,-35.16C466.69,-42.56 507.42,-51.67 544,-61.01 558.69,-64.77 574.36,-69.13 589.19,-73.43"/>
<polygon fill="#9a32cd" stroke="#9a32cd" points="432.17,-31.66 421.66,-33.02 430.72,-38.51 432.17,-31.66"/>
<text text-anchor="middle" x="509" y="-64.01" font-family="Helvetica,sans-Serif" font-size="10.00"> services</text>
</g>
<!-- Node13 -->
<g id="node9" class="node">
<title>Node13</title>
<g id="a_node9"><a xlink:title=" ">
<polygon fill="none" stroke="#bfbfbf" points="302,-55.51 302,-74.51 390,-74.51 390,-55.51 302,-55.51"/>
<text text-anchor="middle" x="346" y="-62.51" font-family="Helvetica,sans-Serif" font-size="10.00">ILoggerFactory</text>
</a>
</g>
</g>
<!-- Node13&#45;&gt;Node8 -->
<g id="edge9" class="edge">
<title>Node13&#45;&gt;Node8</title>
<path fill="none" stroke="#9a32cd" stroke-dasharray="5,2" d="M400.22,-56.24C478.35,-44.99 628.32,-29.53 753,-53.01 769.64,-56.15 787.02,-61.84 802.74,-68.01"/>
<polygon fill="#9a32cd" stroke="#9a32cd" points="399.53,-52.81 390.14,-57.73 400.55,-59.73 399.53,-52.81"/>
<text text-anchor="middle" x="657.5" y="-56.01" font-family="Helvetica,sans-Serif" font-size="10.00"> loggerFactory</text>
</g>
<!-- Node13&#45;&gt;Node14 -->
<g id="edge14" class="edge">
<title>Node13&#45;&gt;Node14</title>
<path fill="none" stroke="#9a32cd" stroke-dasharray="5,2" d="M400.03,-69.98C444.4,-74.14 508.82,-80.18 561.99,-85.16"/>
<polygon fill="#9a32cd" stroke="#9a32cd" points="400.32,-66.49 390.03,-69.05 399.66,-73.46 400.32,-66.49"/>
<text text-anchor="middle" x="509" y="-85.01" font-family="Helvetica,sans-Serif" font-size="10.00"> loggerFactory</text>
</g>
<!-- Node14&#45;&gt;Node8 -->
<g id="edge10" class="edge">
<title>Node14&#45;&gt;Node8</title>
<path fill="none" stroke="orange" stroke-dasharray="5,2" d="M763.52,-94.01C775.69,-94.01 787.76,-94.01 798.99,-94.01"/>
<polygon fill="orange" stroke="orange" points="763.28,-90.51 753.28,-94.01 763.28,-97.51 763.28,-90.51"/>
<text text-anchor="middle" x="776" y="-97.01" font-family="Helvetica,sans-Serif" font-size="10.00"> T</text>
</g>
<!-- Node14&#45;&gt;Node14 -->
<g id="edge15" class="edge">
<title>Node14&#45;&gt;Node14</title>
<path fill="none" stroke="orange" stroke-dasharray="5,2" d="M637.2,-124.87C640.22,-129.71 646.98,-133.01 657.5,-133.01 674.32,-133.01 681.55,-124.56 679.19,-114.88"/>
<polygon fill="orange" stroke="orange" points="640.65,-124.3 635.81,-114.88 633.72,-125.26 640.65,-124.3"/>
<text text-anchor="middle" x="657.5" y="-136.01" font-family="Helvetica,sans-Serif" font-size="10.00"> T</text>
</g>
</g>
</svg>
