<?xml version="1.0" encoding="UTF-8" standalone="no"?>
<!DOCTYPE svg PUBLIC "-//W3C//DTD SVG 1.1//EN"
 "http://www.w3.org/Graphics/SVG/1.1/DTD/svg11.dtd">
<!-- Generated by graphviz version 2.43.0 (0)
 -->
<!-- Title: fiftyone.pipeline.core.data.EvidenceKeyFilterAggregator Pages: 1 -->
<svg width="333pt" height="252pt"
 viewBox="0.00 0.00 332.50 252.00" xmlns="http://www.w3.org/2000/svg" xmlns:xlink="http://www.w3.org/1999/xlink">
<g id="graph0" class="graph" transform="scale(1 1) rotate(0) translate(4 248)">
<title>fiftyone.pipeline.core.data.EvidenceKeyFilterAggregator</title>
<!-- Node3 -->
<g id="node1" class="node">
<title>Node3</title>
<g id="a_node1"><a xlink:title="This implementation of EvidenceKeyFilter aggregates multiple other filters using a logical OR approac...">
<polygon fill="#bfbfbf" stroke="black" points="41.5,-0.5 41.5,-30.5 199.5,-30.5 199.5,-0.5 41.5,-0.5"/>
<text text-anchor="start" x="49.5" y="-18.5" font-family="Helvetica,sans-Serif" font-size="10.00">fiftyone.pipeline.core.data.</text>
<text text-anchor="middle" x="120.5" y="-7.5" font-family="Helvetica,sans-Serif" font-size="10.00">EvidenceKeyFilterAggregator</text>
</a>
</g>
</g>
<!-- Node4 -->
<g id="node2" class="node">
<title>Node4</title>
<g id="a_node2"><a xlink:href="classfiftyone_1_1pipeline_1_1core_1_1data_1_1_evidence_key_filter_whitelist.html" target="_top" xlink:title="This evidence filter will only include keys that are on a whitelist that is specified at construction...">
<polygon fill="none" stroke="black" points="47,-68.5 47,-98.5 194,-98.5 194,-68.5 47,-68.5"/>
<text text-anchor="start" x="55" y="-86.5" font-family="Helvetica,sans-Serif" font-size="10.00">fiftyone.pipeline.core.data.</text>
<text text-anchor="middle" x="120.5" y="-75.5" font-family="Helvetica,sans-Serif" font-size="10.00">EvidenceKeyFilterWhitelist</text>
</a>
</g>
</g>
<!-- Node4&#45;&gt;Node3 -->
<g id="edge1" class="edge">
<title>Node4&#45;&gt;Node3</title>
<path fill="none" stroke="midnightblue" d="M120.5,-58.03C120.5,-48.86 120.5,-38.74 120.5,-30.79"/>
<polygon fill="midnightblue" stroke="midnightblue" points="117,-58.18 120.5,-68.18 124,-58.18 117,-58.18"/>
</g>
<!-- Node5 -->
<g id="node3" class="node">
<title>Node5</title>
<g id="a_node3"><a xlink:href="interfacefiftyone_1_1pipeline_1_1core_1_1data_1_1_evidence_key_filter.html" target="_top" xlink:title="Represents an object that filters evidence key names based on some criteria.">
<polygon fill="none" stroke="black" points="0,-146.5 0,-176.5 147,-176.5 147,-146.5 0,-146.5"/>
<text text-anchor="start" x="8" y="-164.5" font-family="Helvetica,sans-Serif" font-size="10.00">fiftyone.pipeline.core.data.</text>
<text text-anchor="middle" x="73.5" y="-153.5" font-family="Helvetica,sans-Serif" font-size="10.00">EvidenceKeyFilter</text>
</a>
</g>
</g>
<!-- Node5&#45;&gt;Node4 -->
<g id="edge2" class="edge">
<title>Node5&#45;&gt;Node4</title>
<path fill="none" stroke="midnightblue" d="M87.68,-137.57C95.49,-124.94 104.95,-109.65 111.7,-98.73"/>
<polygon fill="midnightblue" stroke="midnightblue" points="84.62,-135.86 82.34,-146.2 90.58,-139.54 84.62,-135.86"/>
</g>
<!-- Node6 -->
<g id="node4" class="node">
<title>Node6</title>
<g id="a_node4"><a xlink:title=" ">
<polygon fill="none" stroke="#bfbfbf" points="165,-152 165,-171 294,-171 294,-152 165,-152"/>
<text text-anchor="middle" x="229.5" y="-159" font-family="Helvetica,sans-Serif" font-size="10.00">Map&lt; String, Integer &gt;</text>
</a>
</g>
</g>
<!-- Node6&#45;&gt;Node4 -->
<g id="edge3" class="edge">
<title>Node6&#45;&gt;Node4</title>
<path fill="none" stroke="#9a32cd" stroke-dasharray="5,2" d="M208.74,-146.03C189.15,-132.37 159.98,-112.03 140.61,-98.52"/>
<polygon fill="#9a32cd" stroke="#9a32cd" points="206.79,-148.93 217,-151.78 210.8,-143.19 206.79,-148.93"/>
<text text-anchor="middle" x="204.5" y="-120" font-family="Helvetica,sans-Serif" font-size="10.00"> whitelist</text>
</g>
<!-- Node7 -->
<g id="node5" class="node">
<title>Node7</title>
<g id="a_node5"><a xlink:title=" ">
<polygon fill="none" stroke="#bfbfbf" points="210.5,-224.5 210.5,-243.5 248.5,-243.5 248.5,-224.5 210.5,-224.5"/>
<text text-anchor="middle" x="229.5" y="-231.5" font-family="Helvetica,sans-Serif" font-size="10.00">Map</text>
</a>
</g>
</g>
<!-- Node7&#45;&gt;Node6 -->
<g id="edge4" class="edge">
<title>Node7&#45;&gt;Node6</title>
<path fill="none" stroke="orange" stroke-dasharray="5,2" d="M229.5,-213.94C229.5,-200.03 229.5,-181.82 229.5,-171.22"/>
<polygon fill="orange" stroke="orange" points="226,-214.36 229.5,-224.36 233,-214.36 226,-214.36"/>
<text text-anchor="middle" x="277" y="-198" font-family="Helvetica,sans-Serif" font-size="10.00"> &lt; String, Integer &gt;</text>
</g>
</g>
</svg>
