<?xml version="1.0" encoding="UTF-8" standalone="no"?>
<!DOCTYPE svg PUBLIC "-//W3C//DTD SVG 1.1//EN"
 "http://www.w3.org/Graphics/SVG/1.1/DTD/svg11.dtd">
<!-- Generated by graphviz version 2.43.0 (0)
 -->
<!-- Title: fiftyone.pipeline.web.services.PipelineResultServiceCore.Default Pages: 1 -->
<svg width="586pt" height="88pt"
 viewBox="0.00 0.00 586.00 88.00" xmlns="http://www.w3.org/2000/svg" xmlns:xlink="http://www.w3.org/1999/xlink">
<g id="graph0" class="graph" transform="scale(1 1) rotate(0) translate(4 84)">
<title>fiftyone.pipeline.web.services.PipelineResultServiceCore.Default</title>
<!-- Node3 -->
<g id="node1" class="node">
<title>Node3</title>
<g id="a_node1"><a xlink:title="Default implementation of the PipelineResultServiceCore service.">
<polygon fill="#bfbfbf" stroke="black" points="394,-25.5 394,-55.5 578,-55.5 578,-25.5 394,-25.5"/>
<text text-anchor="start" x="402" y="-43.5" font-family="Helvetica,sans-Serif" font-size="10.00">fiftyone.pipeline.web.services.</text>
<text text-anchor="middle" x="486" y="-32.5" font-family="Helvetica,sans-Serif" font-size="10.00">PipelineResultServiceCore.Default</text>
</a>
</g>
</g>
<!-- Node4 -->
<g id="node2" class="node">
<title>Node4</title>
<g id="a_node2"><a xlink:href="interfacefiftyone_1_1pipeline_1_1web_1_1services_1_1_pipeline_result_service_core.html" target="_top" xlink:title="Service used to process web requests through the Pipeline.">
<polygon fill="none" stroke="black" points="137,-49.5 137,-79.5 302,-79.5 302,-49.5 137,-49.5"/>
<text text-anchor="start" x="145" y="-67.5" font-family="Helvetica,sans-Serif" font-size="10.00">fiftyone.pipeline.web.services.</text>
<text text-anchor="middle" x="219.5" y="-56.5" font-family="Helvetica,sans-Serif" font-size="10.00">PipelineResultServiceCore</text>
</a>
</g>
</g>
<!-- Node4&#45;&gt;Node3 -->
<g id="edge1" class="edge">
<title>Node4&#45;&gt;Node3</title>
<path fill="none" stroke="midnightblue" d="M312.01,-56.2C338.41,-53.8 367.21,-51.19 393.6,-48.79"/>
<polygon fill="midnightblue" stroke="midnightblue" points="311.66,-52.71 302.02,-57.1 312.29,-59.69 311.66,-52.71"/>
</g>
<!-- Node5 -->
<g id="node3" class="node">
<title>Node5</title>
<g id="a_node3"><a xlink:href="interfacefiftyone_1_1pipeline_1_1core_1_1flowelements_1_1_pipeline.html" target="_top" xlink:title="The Pipeline groups together FlowElements and is a factory for FlowData which serves as the evidence,...">
<polygon fill="none" stroke="black" points="124,-0.5 124,-30.5 315,-30.5 315,-0.5 124,-0.5"/>
<text text-anchor="start" x="132" y="-18.5" font-family="Helvetica,sans-Serif" font-size="10.00">fiftyone.pipeline.core.flowelements.</text>
<text text-anchor="middle" x="219.5" y="-7.5" font-family="Helvetica,sans-Serif" font-size="10.00">Pipeline</text>
</a>
</g>
</g>
<!-- Node5&#45;&gt;Node3 -->
<g id="edge2" class="edge">
<title>Node5&#45;&gt;Node3</title>
<path fill="none" stroke="#9a32cd" stroke-dasharray="5,2" d="M325.5,-25.42C348.01,-27.55 371.62,-29.78 393.57,-31.86"/>
<polygon fill="#9a32cd" stroke="#9a32cd" points="325.53,-21.91 315.24,-24.45 324.87,-28.88 325.53,-21.91"/>
<text text-anchor="middle" x="354.5" y="-31.5" font-family="Helvetica,sans-Serif" font-size="10.00"> pipeline</text>
</g>
<!-- Node6 -->
<g id="node4" class="node">
<title>Node6</title>
<g id="a_node4"><a xlink:title=" ">
<polygon fill="none" stroke="#bfbfbf" points="0,-6 0,-25 87,-25 87,-6 0,-6"/>
<text text-anchor="middle" x="43.5" y="-13" font-family="Helvetica,sans-Serif" font-size="10.00">AutoCloseable</text>
</a>
</g>
</g>
<!-- Node6&#45;&gt;Node5 -->
<g id="edge3" class="edge">
<title>Node6&#45;&gt;Node5</title>
<path fill="none" stroke="midnightblue" d="M97.15,-15.5C105.65,-15.5 114.68,-15.5 123.81,-15.5"/>
<polygon fill="midnightblue" stroke="midnightblue" points="97.07,-12 87.07,-15.5 97.07,-19 97.07,-12"/>
</g>
</g>
</svg>
