<?xml version="1.0" encoding="UTF-8" standalone="no"?>
<!DOCTYPE svg PUBLIC "-//W3C//DTD SVG 1.1//EN"
 "http://www.w3.org/Graphics/SVG/1.1/DTD/svg11.dtd">
<!-- Generated by graphviz version 2.43.0 (0)
 -->
<!-- Title: fiftyone.pipeline.engines.flowelements.AspectEngineBase&lt; TData extends AspectData, TProperty extends AspectPropertyMetaData &gt; Pages: 1 -->
<svg width="2911pt" height="407pt"
 viewBox="0.00 0.00 2911.00 407.00" xmlns="http://www.w3.org/2000/svg" xmlns:xlink="http://www.w3.org/1999/xlink">
<g id="graph0" class="graph" transform="scale(1 1) rotate(0) translate(4 403)">
<title>fiftyone.pipeline.engines.flowelements.AspectEngineBase&lt; TData extends AspectData, TProperty extends AspectPropertyMetaData &gt;</title>
<!-- Node0 -->
<g id="node1" class="node">
<title>Node0</title>
<g id="a_node1"><a xlink:title="Base class for AspectEngines to extend.">
<polygon fill="#bfbfbf" stroke="black" points="1475,-143 1475,-195 1723,-195 1723,-143 1475,-143"/>
<text text-anchor="start" x="1483" y="-183" font-family="Helvetica,sans-Serif" font-size="10.00">fiftyone.pipeline.engines.flowelements.</text>
<text text-anchor="start" x="1483" y="-172" font-family="Helvetica,sans-Serif" font-size="10.00">AspectEngineBase&lt; TData extends</text>
<text text-anchor="start" x="1483" y="-161" font-family="Helvetica,sans-Serif" font-size="10.00"> AspectData, TProperty extends AspectProperty</text>
<text text-anchor="middle" x="1599" y="-150" font-family="Helvetica,sans-Serif" font-size="10.00">MetaData &gt;</text>
</a>
</g>
</g>
<!-- Node13 -->
<g id="node14" class="node">
<title>Node13</title>
<g id="a_node14"><a xlink:href="classfiftyone_1_1pipeline_1_1cloudrequestengine_1_1flowelements_1_1_cloud_aspect_engine_base.html" target="_top" xlink:title="Base class for 51Degrees Cloud Aspect Engines.">
<polygon fill="none" stroke="black" points="1924.5,-290.5 1924.5,-353.5 2118.5,-353.5 2118.5,-290.5 1924.5,-290.5"/>
<text text-anchor="start" x="1932.5" y="-341.5" font-family="Helvetica,sans-Serif" font-size="10.00">fiftyone::pipeline</text>
<text text-anchor="start" x="1932.5" y="-330.5" font-family="Helvetica,sans-Serif" font-size="10.00">::cloudrequestengine</text>
<text text-anchor="start" x="1932.5" y="-319.5" font-family="Helvetica,sans-Serif" font-size="10.00">::flowelements::CloudAspect</text>
<text text-anchor="start" x="1932.5" y="-308.5" font-family="Helvetica,sans-Serif" font-size="10.00">EngineBase&lt; TData, AspectProperty</text>
<text text-anchor="middle" x="2021.5" y="-297.5" font-family="Helvetica,sans-Serif" font-size="10.00">MetaData &gt;</text>
</a>
</g>
</g>
<!-- Node0&#45;&gt;Node13 -->
<g id="edge22" class="edge">
<title>Node0&#45;&gt;Node13</title>
<path fill="none" stroke="midnightblue" d="M1681.37,-198.6C1753.85,-224.98 1859.62,-263.46 1933.71,-290.42"/>
<polygon fill="midnightblue" stroke="midnightblue" points="1682.4,-195.26 1671.81,-195.13 1680.01,-201.84 1682.4,-195.26"/>
</g>
<!-- Node16 -->
<g id="node17" class="node">
<title>Node16</title>
<g id="a_node17"><a xlink:href="classfiftyone_1_1pipeline_1_1cloudrequestengine_1_1flowelements_1_1_cloud_request_engine_default.html" target="_top" xlink:title="Engine that makes requests to the 51Degrees cloud service.">
<polygon fill="none" stroke="black" points="1926,-208.5 1926,-271.5 2117,-271.5 2117,-208.5 1926,-208.5"/>
<text text-anchor="start" x="1934" y="-259.5" font-family="Helvetica,sans-Serif" font-size="10.00">fiftyone::pipeline</text>
<text text-anchor="start" x="1934" y="-248.5" font-family="Helvetica,sans-Serif" font-size="10.00">::cloudrequestengine</text>
<text text-anchor="start" x="1934" y="-237.5" font-family="Helvetica,sans-Serif" font-size="10.00">::flowelements::CloudRequest</text>
<text text-anchor="start" x="1934" y="-226.5" font-family="Helvetica,sans-Serif" font-size="10.00">EngineDefault&lt; CloudRequestData,</text>
<text text-anchor="middle" x="2021.5" y="-215.5" font-family="Helvetica,sans-Serif" font-size="10.00"> AspectPropertyMetaData &gt;</text>
</a>
</g>
</g>
<!-- Node0&#45;&gt;Node16 -->
<g id="edge25" class="edge">
<title>Node0&#45;&gt;Node16</title>
<path fill="none" stroke="midnightblue" d="M1732.92,-193.6C1735.64,-194.07 1738.33,-194.54 1741,-195 1802.51,-205.62 1871.78,-216.78 1925.97,-225.33"/>
<polygon fill="midnightblue" stroke="midnightblue" points="1733.47,-190.14 1723.01,-191.85 1732.25,-197.03 1733.47,-190.14"/>
</g>
<!-- Node17 -->
<g id="node18" class="node">
<title>Node17</title>
<g id="a_node18"><a xlink:href="classfiftyone_1_1pipeline_1_1engines_1_1flowelements_1_1_aspect_engine_base.html" target="_top" xlink:title=" ">
<polygon fill="none" stroke="black" points="1915.5,-148.5 1915.5,-189.5 2127.5,-189.5 2127.5,-148.5 1915.5,-148.5"/>
<text text-anchor="start" x="1923.5" y="-177.5" font-family="Helvetica,sans-Serif" font-size="10.00">fiftyone.pipeline.engines.flowelements.</text>
<text text-anchor="start" x="1923.5" y="-166.5" font-family="Helvetica,sans-Serif" font-size="10.00">AspectEngineBase&lt; CloudRequestData,</text>
<text text-anchor="middle" x="2021.5" y="-155.5" font-family="Helvetica,sans-Serif" font-size="10.00"> AspectPropertyMetaData &gt;</text>
</a>
</g>
</g>
<!-- Node0&#45;&gt;Node17 -->
<g id="edge26" class="edge">
<title>Node0&#45;&gt;Node17</title>
<path fill="none" stroke="orange" stroke-dasharray="5,2" d="M1733.14,-169C1791.92,-169 1860.03,-169 1915.19,-169"/>
<polygon fill="orange" stroke="orange" points="1733.04,-165.5 1723.04,-169 1733.04,-172.5 1733.04,-165.5"/>
<text text-anchor="start" x="1747" y="-183" font-family="Helvetica,sans-Serif" font-size="10.00"> &lt; CloudRequestData,</text>
<text text-anchor="middle" x="1815.5" y="-172" font-family="Helvetica,sans-Serif" font-size="10.00"> AspectPropertyMetaData &gt;</text>
</g>
<!-- Node18 -->
<g id="node19" class="node">
<title>Node18</title>
<g id="a_node19"><a xlink:href="classfiftyone_1_1pipeline_1_1engines_1_1flowelements_1_1_aspect_engine_base.html" target="_top" xlink:title=" ">
<polygon fill="none" stroke="black" points="1908,-88.5 1908,-129.5 2135,-129.5 2135,-88.5 1908,-88.5"/>
<text text-anchor="start" x="1916" y="-117.5" font-family="Helvetica,sans-Serif" font-size="10.00">fiftyone.pipeline.engines.flowelements.</text>
<text text-anchor="start" x="1916" y="-106.5" font-family="Helvetica,sans-Serif" font-size="10.00">AspectEngineBase&lt; TData, AspectProperty</text>
<text text-anchor="middle" x="2021.5" y="-95.5" font-family="Helvetica,sans-Serif" font-size="10.00">MetaData &gt;</text>
</a>
</g>
</g>
<!-- Node0&#45;&gt;Node18 -->
<g id="edge27" class="edge">
<title>Node0&#45;&gt;Node18</title>
<path fill="none" stroke="orange" stroke-dasharray="5,2" d="M1733.34,-144.19C1735.92,-143.78 1738.47,-143.39 1741,-143 1795.72,-134.63 1856.73,-127.02 1907.75,-121.12"/>
<polygon fill="orange" stroke="orange" points="1732.66,-140.76 1723.35,-145.8 1733.77,-147.67 1732.66,-140.76"/>
<text text-anchor="start" x="1741" y="-157" font-family="Helvetica,sans-Serif" font-size="10.00"> &lt; TData, AspectPropertyMeta</text>
<text text-anchor="middle" x="1815.5" y="-146" font-family="Helvetica,sans-Serif" font-size="10.00">Data &gt;</text>
</g>
<!-- Node19 -->
<g id="node20" class="node">
<title>Node19</title>
<g id="a_node20"><a xlink:href="classfiftyone_1_1pipeline_1_1engines_1_1flowelements_1_1_aspect_engine_base.html" target="_top" xlink:title=" ">
<polygon fill="none" stroke="black" points="1915.5,-39 1915.5,-69 2127.5,-69 2127.5,-39 1915.5,-39"/>
<text text-anchor="start" x="1923.5" y="-57" font-family="Helvetica,sans-Serif" font-size="10.00">fiftyone.pipeline.engines.flowelements.</text>
<text text-anchor="middle" x="2021.5" y="-46" font-family="Helvetica,sans-Serif" font-size="10.00">AspectEngineBase&lt; TData, TProperty &gt;</text>
</a>
</g>
</g>
<!-- Node0&#45;&gt;Node19 -->
<g id="edge28" class="edge">
<title>Node0&#45;&gt;Node19</title>
<path fill="none" stroke="orange" stroke-dasharray="5,2" d="M1662.25,-138.6C1686.4,-127.73 1714.57,-116.17 1741,-108 1797.55,-90.53 1862.35,-77.59 1915.31,-68.76"/>
<polygon fill="orange" stroke="orange" points="1660.51,-135.54 1652.86,-142.88 1663.41,-141.91 1660.51,-135.54"/>
<text text-anchor="middle" x="1815.5" y="-111" font-family="Helvetica,sans-Serif" font-size="10.00"> &lt; TData, TProperty &gt;</text>
</g>
<!-- Node1 -->
<g id="node2" class="node">
<title>Node1</title>
<g id="a_node2"><a xlink:href="classfiftyone_1_1pipeline_1_1core_1_1flowelements_1_1_flow_element_base.html" target="_top" xlink:title="Provides a base class from which authors may create new FlowElements.">
<polygon fill="none" stroke="black" points="1256.5,-105 1256.5,-157 1410.5,-157 1410.5,-105 1256.5,-105"/>
<text text-anchor="start" x="1264.5" y="-145" font-family="Helvetica,sans-Serif" font-size="10.00">fiftyone::pipeline</text>
<text text-anchor="start" x="1264.5" y="-134" font-family="Helvetica,sans-Serif" font-size="10.00">::core::flowelements</text>
<text text-anchor="start" x="1264.5" y="-123" font-family="Helvetica,sans-Serif" font-size="10.00">::FlowElementBase&lt; TData,</text>
<text text-anchor="middle" x="1333.5" y="-112" font-family="Helvetica,sans-Serif" font-size="10.00"> TProperty &gt;</text>
</a>
</g>
</g>
<!-- Node1&#45;&gt;Node0 -->
<g id="edge1" class="edge">
<title>Node1&#45;&gt;Node0</title>
<path fill="none" stroke="midnightblue" d="M1420.75,-143.44C1438.04,-145.93 1456.53,-148.6 1474.8,-151.23"/>
<polygon fill="midnightblue" stroke="midnightblue" points="1421.11,-139.95 1410.72,-141.99 1420.11,-146.88 1421.11,-139.95"/>
</g>
<!-- Node2 -->
<g id="node3" class="node">
<title>Node2</title>
<g id="a_node3"><a xlink:href="interfacefiftyone_1_1pipeline_1_1core_1_1flowelements_1_1_flow_element.html" target="_top" xlink:title=" ">
<polygon fill="none" stroke="black" points="866,-115 866,-145 1057,-145 1057,-115 866,-115"/>
<text text-anchor="start" x="874" y="-133" font-family="Helvetica,sans-Serif" font-size="10.00">fiftyone.pipeline.core.flowelements.</text>
<text text-anchor="middle" x="961.5" y="-122" font-family="Helvetica,sans-Serif" font-size="10.00">FlowElement&lt; TData, TProperty &gt;</text>
</a>
</g>
</g>
<!-- Node2&#45;&gt;Node1 -->
<g id="edge2" class="edge">
<title>Node2&#45;&gt;Node1</title>
<path fill="none" stroke="midnightblue" d="M1067.59,-130.28C1127.71,-130.45 1201.76,-130.65 1256.28,-130.79"/>
<polygon fill="midnightblue" stroke="midnightblue" points="1067.31,-126.78 1057.3,-130.26 1067.29,-133.78 1067.31,-126.78"/>
</g>
<!-- Node3 -->
<g id="node4" class="node">
<title>Node3</title>
<g id="a_node4"><a xlink:href="interfacefiftyone_1_1pipeline_1_1core_1_1flowelements_1_1_flow_element.html" target="_top" xlink:title="A component that processes a FlowData (by examining its evidence, or by examining data processed by o...">
<polygon fill="none" stroke="black" points="441,-108.5 441,-149.5 694,-149.5 694,-108.5 441,-108.5"/>
<text text-anchor="start" x="449" y="-137.5" font-family="Helvetica,sans-Serif" font-size="10.00">fiftyone.pipeline.core.flowelements.</text>
<text text-anchor="start" x="449" y="-126.5" font-family="Helvetica,sans-Serif" font-size="10.00">FlowElement&lt; TData extends ElementData,</text>
<text text-anchor="middle" x="567.5" y="-115.5" font-family="Helvetica,sans-Serif" font-size="10.00"> TProperty extends ElementPropertyMetaData &gt;</text>
</a>
</g>
</g>
<!-- Node3&#45;&gt;Node2 -->
<g id="edge3" class="edge">
<title>Node3&#45;&gt;Node2</title>
<path fill="none" stroke="orange" stroke-dasharray="5,2" d="M704.35,-129.35C757.55,-129.48 817.29,-129.63 865.69,-129.76"/>
<polygon fill="orange" stroke="orange" points="704.16,-125.85 694.15,-129.32 704.14,-132.85 704.16,-125.85"/>
<text text-anchor="middle" x="766.5" y="-132" font-family="Helvetica,sans-Serif" font-size="10.00"> &lt; TData, TProperty &gt;</text>
</g>
<!-- Node4 -->
<g id="node5" class="node">
<title>Node4</title>
<g id="a_node5"><a xlink:title=" ">
<polygon fill="none" stroke="#bfbfbf" points="237,-173.5 237,-192.5 324,-192.5 324,-173.5 237,-173.5"/>
<text text-anchor="middle" x="280.5" y="-180.5" font-family="Helvetica,sans-Serif" font-size="10.00">AutoCloseable</text>
</a>
</g>
</g>
<!-- Node4&#45;&gt;Node3 -->
<g id="edge4" class="edge">
<title>Node4&#45;&gt;Node3</title>
<path fill="none" stroke="midnightblue" d="M334.09,-173.03C368.86,-166.45 415.7,-157.57 458.21,-149.52"/>
<polygon fill="midnightblue" stroke="midnightblue" points="333.34,-169.62 324.17,-174.92 334.64,-176.49 333.34,-169.62"/>
</g>
<!-- Node10 -->
<g id="node11" class="node">
<title>Node10</title>
<g id="a_node11"><a xlink:href="interfacefiftyone_1_1pipeline_1_1core_1_1flowelements_1_1_flow_element.html" target="_top" xlink:title="A component that processes a FlowData (by examining its evidence, or by examining data processed by o...">
<polygon fill="none" stroke="black" points="502.5,-169 502.5,-221 632.5,-221 632.5,-169 502.5,-169"/>
<text text-anchor="start" x="510.5" y="-209" font-family="Helvetica,sans-Serif" font-size="10.00">fiftyone::pipeline</text>
<text text-anchor="start" x="510.5" y="-198" font-family="Helvetica,sans-Serif" font-size="10.00">::core::flowelements</text>
<text text-anchor="start" x="510.5" y="-187" font-family="Helvetica,sans-Serif" font-size="10.00">::FlowElement&lt; TData,</text>
<text text-anchor="middle" x="567.5" y="-176" font-family="Helvetica,sans-Serif" font-size="10.00"> TProperty &gt;</text>
</a>
</g>
</g>
<!-- Node4&#45;&gt;Node10 -->
<g id="edge13" class="edge">
<title>Node4&#45;&gt;Node10</title>
<path fill="none" stroke="midnightblue" d="M334.24,-185.22C381.74,-187.22 451.68,-190.17 502.39,-192.3"/>
<polygon fill="midnightblue" stroke="midnightblue" points="334.31,-181.72 324.17,-184.8 334.01,-188.71 334.31,-181.72"/>
</g>
<!-- Node5 -->
<g id="node6" class="node">
<title>Node5</title>
<g id="a_node6"><a xlink:href="interfacefiftyone_1_1pipeline_1_1core_1_1data_1_1_element_data.html" target="_top" xlink:title="Represents property values that have be determined by a specific FlowElement based on the supplied ev...">
<polygon fill="none" stroke="black" points="207,-260 207,-290 354,-290 354,-260 207,-260"/>
<text text-anchor="start" x="215" y="-278" font-family="Helvetica,sans-Serif" font-size="10.00">fiftyone.pipeline.core.data.</text>
<text text-anchor="middle" x="280.5" y="-267" font-family="Helvetica,sans-Serif" font-size="10.00">ElementData</text>
</a>
</g>
</g>
<!-- Node5&#45;&gt;Node1 -->
<g id="edge8" class="edge">
<title>Node5&#45;&gt;Node1</title>
<path fill="none" stroke="orange" stroke-dasharray="5,2" d="M329.66,-293.48C480.68,-347.99 950.41,-490.73 1211,-267 1244.93,-237.87 1200.06,-202.1 1229,-168 1236.41,-159.27 1246.03,-152.6 1256.42,-147.5"/>
<polygon fill="orange" stroke="orange" points="330.77,-290.16 320.18,-290.03 328.37,-296.74 330.77,-290.16"/>
<text text-anchor="middle" x="766.5" y="-391" font-family="Helvetica,sans-Serif" font-size="10.00"> TData</text>
</g>
<!-- Node5&#45;&gt;Node3 -->
<g id="edge5" class="edge">
<title>Node5&#45;&gt;Node3</title>
<path fill="none" stroke="orange" stroke-dasharray="5,2" d="M312.44,-254.18C341.45,-234.42 385.81,-203.56 423,-175 431.26,-168.66 431.71,-164.7 441,-160 448.81,-156.05 457.15,-152.58 465.69,-149.54"/>
<polygon fill="orange" stroke="orange" points="310.26,-251.43 303.95,-259.95 314.19,-257.22 310.26,-251.43"/>
<text text-anchor="middle" x="397.5" y="-214" font-family="Helvetica,sans-Serif" font-size="10.00"> TData</text>
</g>
<!-- Node5&#45;&gt;Node10 -->
<g id="edge14" class="edge">
<title>Node5&#45;&gt;Node10</title>
<path fill="none" stroke="orange" stroke-dasharray="5,2" d="M363.89,-257.88C383.52,-252.91 404.21,-246.92 423,-240 431.39,-236.91 432.67,-234.25 441,-231 460.54,-223.39 482.34,-216.58 502.22,-210.98"/>
<polygon fill="orange" stroke="orange" points="362.92,-254.52 354.05,-260.31 364.6,-261.31 362.92,-254.52"/>
<text text-anchor="middle" x="397.5" y="-258" font-family="Helvetica,sans-Serif" font-size="10.00"> TData</text>
</g>
<!-- Node11 -->
<g id="node12" class="node">
<title>Node11</title>
<g id="a_node12"><a xlink:href="interfacefiftyone_1_1pipeline_1_1engines_1_1data_1_1_aspect_data.html" target="_top" xlink:title="Represents a specialized ElementData instance that is generated by an AspectEngine.">
<polygon fill="none" stroke="black" points="485.5,-240 485.5,-270 649.5,-270 649.5,-240 485.5,-240"/>
<text text-anchor="start" x="493.5" y="-258" font-family="Helvetica,sans-Serif" font-size="10.00">fiftyone.pipeline.engines.data.</text>
<text text-anchor="middle" x="567.5" y="-247" font-family="Helvetica,sans-Serif" font-size="10.00">AspectData</text>
</a>
</g>
</g>
<!-- Node5&#45;&gt;Node11 -->
<g id="edge17" class="edge">
<title>Node5&#45;&gt;Node11</title>
<path fill="none" stroke="midnightblue" d="M364.52,-276.14C383.74,-275.93 404.1,-275.31 423,-274 443.31,-272.59 465.13,-270.17 485.48,-267.52"/>
<polygon fill="midnightblue" stroke="midnightblue" points="364.25,-272.64 354.28,-276.22 364.31,-279.64 364.25,-272.64"/>
</g>
<!-- Node6 -->
<g id="node7" class="node">
<title>Node6</title>
<g id="a_node7"><a xlink:href="interfacefiftyone_1_1pipeline_1_1core_1_1data_1_1_data.html" target="_top" xlink:title="Represents a collection of property values.">
<polygon fill="none" stroke="black" points="0,-265.5 0,-284.5 170,-284.5 170,-265.5 0,-265.5"/>
<text text-anchor="middle" x="85" y="-272.5" font-family="Helvetica,sans-Serif" font-size="10.00">fiftyone.pipeline.core.data.Data</text>
</a>
</g>
</g>
<!-- Node6&#45;&gt;Node5 -->
<g id="edge6" class="edge">
<title>Node6&#45;&gt;Node5</title>
<path fill="none" stroke="midnightblue" d="M180.11,-275C189.07,-275 198.06,-275 206.77,-275"/>
<polygon fill="midnightblue" stroke="midnightblue" points="180.03,-271.5 170.03,-275 180.03,-278.5 180.03,-271.5"/>
</g>
<!-- Node7 -->
<g id="node8" class="node">
<title>Node7</title>
<g id="a_node8"><a xlink:href="interfacefiftyone_1_1pipeline_1_1core_1_1data_1_1_element_property_meta_data.html" target="_top" xlink:title="Defines details of a property that can be returned by a FlowElement.">
<polygon fill="none" stroke="black" points="207,-79 207,-109 354,-109 354,-79 207,-79"/>
<text text-anchor="start" x="215" y="-97" font-family="Helvetica,sans-Serif" font-size="10.00">fiftyone.pipeline.core.data.</text>
<text text-anchor="middle" x="280.5" y="-86" font-family="Helvetica,sans-Serif" font-size="10.00">ElementPropertyMetaData</text>
</a>
</g>
</g>
<!-- Node7&#45;&gt;Node1 -->
<g id="edge9" class="edge">
<title>Node7&#45;&gt;Node1</title>
<path fill="none" stroke="orange" stroke-dasharray="5,2" d="M364.26,-92.83C509.91,-91.31 821.5,-90.47 1084,-106 1142,-109.43 1207.37,-116.12 1256.5,-121.72"/>
<polygon fill="orange" stroke="orange" points="364.02,-89.33 354.06,-92.94 364.1,-96.33 364.02,-89.33"/>
<text text-anchor="middle" x="766.5" y="-99" font-family="Helvetica,sans-Serif" font-size="10.00"> TProperty</text>
</g>
<!-- Node7&#45;&gt;Node3 -->
<g id="edge7" class="edge">
<title>Node7&#45;&gt;Node3</title>
<path fill="none" stroke="orange" stroke-dasharray="5,2" d="M364.19,-103.86C383.49,-106.18 403.97,-108.66 423,-111 428.86,-111.72 434.85,-112.46 440.9,-113.21"/>
<polygon fill="orange" stroke="orange" points="364.57,-100.38 354.22,-102.66 363.73,-107.33 364.57,-100.38"/>
<text text-anchor="middle" x="397.5" y="-114" font-family="Helvetica,sans-Serif" font-size="10.00"> TProperty</text>
</g>
<!-- Node7&#45;&gt;Node10 -->
<g id="edge15" class="edge">
<title>Node7&#45;&gt;Node10</title>
<path fill="none" stroke="orange" stroke-dasharray="5,2" d="M324.77,-113.11C356.58,-126.8 401.05,-145.17 441,-159 460.71,-165.82 482.46,-172.39 502.24,-178"/>
<polygon fill="orange" stroke="orange" points="325.89,-109.78 315.32,-109.02 323.11,-116.21 325.89,-109.78"/>
<text text-anchor="middle" x="397.5" y="-154" font-family="Helvetica,sans-Serif" font-size="10.00"> TProperty</text>
</g>
<!-- Node12 -->
<g id="node13" class="node">
<title>Node12</title>
<g id="a_node13"><a xlink:href="interfacefiftyone_1_1pipeline_1_1engines_1_1data_1_1_aspect_property_meta_data.html" target="_top" xlink:title="Holds details about a property that can be returned by an AspectEngine.">
<polygon fill="none" stroke="black" points="485.5,-20 485.5,-50 649.5,-50 649.5,-20 485.5,-20"/>
<text text-anchor="start" x="493.5" y="-38" font-family="Helvetica,sans-Serif" font-size="10.00">fiftyone.pipeline.engines.data.</text>
<text text-anchor="middle" x="567.5" y="-27" font-family="Helvetica,sans-Serif" font-size="10.00">AspectPropertyMetaData</text>
</a>
</g>
</g>
<!-- Node7&#45;&gt;Node12 -->
<g id="edge19" class="edge">
<title>Node7&#45;&gt;Node12</title>
<path fill="none" stroke="midnightblue" d="M329.8,-75.59C343.31,-70.95 358.1,-66.35 372,-63 408.81,-54.13 450.27,-47.69 485.42,-43.23"/>
<polygon fill="midnightblue" stroke="midnightblue" points="328.5,-72.34 320.23,-78.95 330.82,-78.94 328.5,-72.34"/>
</g>
<!-- Node8 -->
<g id="node9" class="node">
<title>Node8</title>
<g id="a_node9"><a xlink:href="interfacefiftyone_1_1pipeline_1_1engines_1_1flowelements_1_1_aspect_engine.html" target="_top" xlink:title=" ">
<polygon fill="none" stroke="black" points="1229,-177 1229,-207 1438,-207 1438,-177 1229,-177"/>
<text text-anchor="start" x="1237" y="-195" font-family="Helvetica,sans-Serif" font-size="10.00">fiftyone.pipeline.engines.flowelements.</text>
<text text-anchor="middle" x="1333.5" y="-184" font-family="Helvetica,sans-Serif" font-size="10.00">AspectEngine&lt; TData, TProperty &gt;</text>
</a>
</g>
</g>
<!-- Node8&#45;&gt;Node0 -->
<g id="edge10" class="edge">
<title>Node8&#45;&gt;Node0</title>
<path fill="none" stroke="midnightblue" d="M1448.42,-182.06C1457.11,-181.3 1465.92,-180.53 1474.67,-179.76"/>
<polygon fill="midnightblue" stroke="midnightblue" points="1447.92,-178.59 1438.26,-182.94 1448.53,-185.56 1447.92,-178.59"/>
</g>
<!-- Node9 -->
<g id="node10" class="node">
<title>Node9</title>
<g id="a_node10"><a xlink:href="interfacefiftyone_1_1pipeline_1_1engines_1_1flowelements_1_1_aspect_engine.html" target="_top" xlink:title="AspectEngines are a subset of FlowElements.">
<polygon fill="none" stroke="black" points="839,-174.5 839,-215.5 1084,-215.5 1084,-174.5 839,-174.5"/>
<text text-anchor="start" x="847" y="-203.5" font-family="Helvetica,sans-Serif" font-size="10.00">fiftyone.pipeline.engines.flowelements.</text>
<text text-anchor="start" x="847" y="-192.5" font-family="Helvetica,sans-Serif" font-size="10.00">AspectEngine&lt; TData extends AspectData,</text>
<text text-anchor="middle" x="961.5" y="-181.5" font-family="Helvetica,sans-Serif" font-size="10.00"> TProperty extends AspectPropertyMetaData &gt;</text>
</a>
</g>
</g>
<!-- Node9&#45;&gt;Node8 -->
<g id="edge11" class="edge">
<title>Node9&#45;&gt;Node8</title>
<path fill="none" stroke="orange" stroke-dasharray="5,2" d="M1094.39,-193.93C1138.53,-193.57 1187.07,-193.18 1228.74,-192.84"/>
<polygon fill="orange" stroke="orange" points="1094.14,-190.43 1084.16,-194.01 1094.19,-197.43 1094.14,-190.43"/>
<text text-anchor="middle" x="1156.5" y="-196" font-family="Helvetica,sans-Serif" font-size="10.00"> &lt; TData, TProperty &gt;</text>
</g>
<!-- Node10&#45;&gt;Node9 -->
<g id="edge12" class="edge">
<title>Node10&#45;&gt;Node9</title>
<path fill="none" stroke="midnightblue" d="M642.85,-195C698.08,-195 774.63,-195 838.75,-195"/>
<polygon fill="midnightblue" stroke="midnightblue" points="642.79,-191.5 632.79,-195 642.79,-198.5 642.79,-191.5"/>
</g>
<!-- Node11&#45;&gt;Node0 -->
<g id="edge20" class="edge">
<title>Node11&#45;&gt;Node0</title>
<path fill="none" stroke="orange" stroke-dasharray="5,2" d="M659.74,-258.38C818.97,-262.66 1157.37,-264.47 1438,-217 1466.88,-212.11 1497.88,-203.61 1524.83,-195.11"/>
<polygon fill="orange" stroke="orange" points="659.61,-254.88 649.52,-258.1 659.42,-261.88 659.61,-254.88"/>
<text text-anchor="middle" x="1156.5" y="-255" font-family="Helvetica,sans-Serif" font-size="10.00"> TData</text>
</g>
<!-- Node11&#45;&gt;Node9 -->
<g id="edge16" class="edge">
<title>Node11&#45;&gt;Node9</title>
<path fill="none" stroke="orange" stroke-dasharray="5,2" d="M658.43,-238.09C676.16,-234.93 694.65,-231.76 712,-229 753.18,-222.46 798.32,-216.05 838.69,-210.6"/>
<polygon fill="orange" stroke="orange" points="657.32,-234.73 648.09,-239.95 658.56,-241.62 657.32,-234.73"/>
<text text-anchor="middle" x="766.5" y="-232" font-family="Helvetica,sans-Serif" font-size="10.00"> TData</text>
</g>
<!-- Node12&#45;&gt;Node0 -->
<g id="edge21" class="edge">
<title>Node12&#45;&gt;Node0</title>
<path fill="none" stroke="orange" stroke-dasharray="5,2" d="M659.62,-27.71C707.65,-24.88 767.54,-22.98 821,-26 1096.54,-41.58 1172.05,-22.25 1438,-96 1477.72,-107.01 1520.04,-126.71 1551.18,-142.87"/>
<polygon fill="orange" stroke="orange" points="659.33,-24.22 649.56,-28.32 659.76,-31.2 659.33,-24.22"/>
<text text-anchor="middle" x="1156.5" y="-51" font-family="Helvetica,sans-Serif" font-size="10.00"> TProperty</text>
</g>
<!-- Node12&#45;&gt;Node9 -->
<g id="edge18" class="edge">
<title>Node12&#45;&gt;Node9</title>
<path fill="none" stroke="orange" stroke-dasharray="5,2" d="M659.82,-27.33C722.2,-24.2 797.63,-25.29 821,-46 857.74,-78.57 807.06,-117.71 839,-155 845.79,-162.93 854.18,-169.29 863.36,-174.4"/>
<polygon fill="orange" stroke="orange" points="659.33,-23.85 649.54,-27.89 659.71,-30.84 659.33,-23.85"/>
<text text-anchor="middle" x="766.5" y="-49" font-family="Helvetica,sans-Serif" font-size="10.00"> TProperty</text>
</g>
<!-- Node14 -->
<g id="node15" class="node">
<title>Node14</title>
<g id="a_node15"><a xlink:href="classfiftyone_1_1pipeline_1_1cloudrequestengine_1_1flowelements_1_1_cloud_aspect_engine_base.html" target="_top" xlink:title=" ">
<polygon fill="none" stroke="black" points="2226,-307 2226,-337 2492,-337 2492,-307 2226,-307"/>
<text text-anchor="start" x="2234" y="-325" font-family="Helvetica,sans-Serif" font-size="10.00">fiftyone.pipeline.cloudrequestengine.flowelements.</text>
<text text-anchor="middle" x="2359" y="-314" font-family="Helvetica,sans-Serif" font-size="10.00">CloudAspectEngineBase&lt; TData &gt;</text>
</a>
</g>
</g>
<!-- Node13&#45;&gt;Node14 -->
<g id="edge23" class="edge">
<title>Node13&#45;&gt;Node14</title>
<path fill="none" stroke="orange" stroke-dasharray="5,2" d="M2128.95,-322C2159.75,-322 2193.74,-322 2225.9,-322"/>
<polygon fill="orange" stroke="orange" points="2128.64,-318.5 2118.64,-322 2128.64,-325.5 2128.64,-318.5"/>
<text text-anchor="middle" x="2180.5" y="-325" font-family="Helvetica,sans-Serif" font-size="10.00"> &lt; TData &gt;</text>
</g>
<!-- Node15 -->
<g id="node16" class="node">
<title>Node15</title>
<g id="a_node16"><a xlink:href="classfiftyone_1_1pipeline_1_1cloudrequestengine_1_1flowelements_1_1_property_keyed_cloud_engine_base.html" target="_top" xlink:title="A specialised type of CloudAspectEngineBase that has the functionality to support returning a list of...">
<polygon fill="none" stroke="black" points="2637,-296 2637,-348 2903,-348 2903,-296 2637,-296"/>
<text text-anchor="start" x="2645" y="-336" font-family="Helvetica,sans-Serif" font-size="10.00">fiftyone.pipeline.cloudrequestengine.flowelements.</text>
<text text-anchor="start" x="2645" y="-325" font-family="Helvetica,sans-Serif" font-size="10.00">PropertyKeyedCloudEngineBase&lt; TData</text>
<text text-anchor="start" x="2645" y="-314" font-family="Helvetica,sans-Serif" font-size="10.00"> extends MultiProfileData&lt; TProfile,</text>
<text text-anchor="middle" x="2770" y="-303" font-family="Helvetica,sans-Serif" font-size="10.00"> TProfile extends AspectData &gt;</text>
</a>
</g>
</g>
<!-- Node14&#45;&gt;Node15 -->
<g id="edge24" class="edge">
<title>Node14&#45;&gt;Node15</title>
<path fill="none" stroke="midnightblue" d="M2502.35,-322C2546.04,-322 2593.91,-322 2636.88,-322"/>
<polygon fill="midnightblue" stroke="midnightblue" points="2502.23,-318.5 2492.23,-322 2502.23,-325.5 2502.23,-318.5"/>
</g>
<!-- Node20 -->
<g id="node21" class="node">
<title>Node20</title>
<g id="a_node21"><a xlink:href="classfiftyone_1_1pipeline_1_1engines_1_1flowelements_1_1_on_premise_aspect_engine_base.html" target="_top" xlink:title="Base class for on&#45;premise aspect engines.">
<polygon fill="none" stroke="black" points="2252.5,-28 2252.5,-80 2465.5,-80 2465.5,-28 2252.5,-28"/>
<text text-anchor="start" x="2260.5" y="-68" font-family="Helvetica,sans-Serif" font-size="10.00">fiftyone.pipeline.engines.flowelements.</text>
<text text-anchor="start" x="2260.5" y="-57" font-family="Helvetica,sans-Serif" font-size="10.00">OnPremiseAspectEngineBase&lt; TData</text>
<text text-anchor="start" x="2260.5" y="-46" font-family="Helvetica,sans-Serif" font-size="10.00"> extends AspectData, TProperty extends</text>
<text text-anchor="middle" x="2359" y="-35" font-family="Helvetica,sans-Serif" font-size="10.00"> AspectPropertyMetaData &gt;</text>
</a>
</g>
</g>
<!-- Node19&#45;&gt;Node20 -->
<g id="edge29" class="edge">
<title>Node19&#45;&gt;Node20</title>
<path fill="none" stroke="midnightblue" d="M2138.08,-54C2175.13,-54 2215.96,-54 2252.27,-54"/>
<polygon fill="midnightblue" stroke="midnightblue" points="2137.73,-50.5 2127.73,-54 2137.73,-57.5 2137.73,-50.5"/>
</g>
<!-- Node21 -->
<g id="node22" class="node">
<title>Node21</title>
<g id="a_node22"><a xlink:href="classfiftyone_1_1pipeline_1_1engines_1_1fiftyone_1_1flowelements_1_1_fifty_one_on_premise_aspect_engine_base.html" target="_top" xlink:title="51Degrees specific engine base class.">
<polygon fill="none" stroke="black" points="2664,-61 2664,-113 2876,-113 2876,-61 2664,-61"/>
<text text-anchor="start" x="2672" y="-101" font-family="Helvetica,sans-Serif" font-size="10.00">fiftyone::pipeline</text>
<text text-anchor="start" x="2672" y="-90" font-family="Helvetica,sans-Serif" font-size="10.00">::engines::fiftyone</text>
<text text-anchor="start" x="2672" y="-79" font-family="Helvetica,sans-Serif" font-size="10.00">::flowelements::FiftyOneOnPremise</text>
<text text-anchor="middle" x="2770" y="-68" font-family="Helvetica,sans-Serif" font-size="10.00">AspectEngineBase&lt; TData, TProperty &gt;</text>
</a>
</g>
</g>
<!-- Node20&#45;&gt;Node21 -->
<g id="edge30" class="edge">
<title>Node20&#45;&gt;Node21</title>
<path fill="none" stroke="midnightblue" d="M2475.73,-63.34C2534.85,-68.11 2606.26,-73.87 2663.81,-78.51"/>
<polygon fill="midnightblue" stroke="midnightblue" points="2475.84,-59.84 2465.59,-62.52 2475.28,-66.81 2475.84,-59.84"/>
</g>
<!-- Node22 -->
<g id="node23" class="node">
<title>Node22</title>
<g id="a_node23"><a xlink:href="classfiftyone_1_1pipeline_1_1engines_1_1flowelements_1_1_on_premise_aspect_engine_base.html" target="_top" xlink:title=" ">
<polygon fill="none" stroke="black" points="2665.5,-0.5 2665.5,-41.5 2874.5,-41.5 2874.5,-0.5 2665.5,-0.5"/>
<text text-anchor="start" x="2673.5" y="-29.5" font-family="Helvetica,sans-Serif" font-size="10.00">fiftyone.pipeline.engines.flowelements.</text>
<text text-anchor="start" x="2673.5" y="-18.5" font-family="Helvetica,sans-Serif" font-size="10.00">OnPremiseAspectEngineBase&lt; TData,</text>
<text text-anchor="middle" x="2770" y="-7.5" font-family="Helvetica,sans-Serif" font-size="10.00"> TProperty &gt;</text>
</a>
</g>
</g>
<!-- Node20&#45;&gt;Node22 -->
<g id="edge31" class="edge">
<title>Node20&#45;&gt;Node22</title>
<path fill="none" stroke="orange" stroke-dasharray="5,2" d="M2475.81,-44.66C2535.4,-39.85 2607.46,-34.03 2665.22,-29.37"/>
<polygon fill="orange" stroke="orange" points="2475.28,-41.19 2465.59,-45.48 2475.84,-48.16 2475.28,-41.19"/>
<text text-anchor="middle" x="2564.5" y="-45" font-family="Helvetica,sans-Serif" font-size="10.00"> &lt; TData, TProperty &gt;</text>
</g>
</g>
</svg>
