<?xml version="1.0" encoding="UTF-8" standalone="no"?>
<!DOCTYPE svg PUBLIC "-//W3C//DTD SVG 1.1//EN"
 "http://www.w3.org/Graphics/SVG/1.1/DTD/svg11.dtd">
<!-- Generated by graphviz version 2.43.0 (0)
 -->
<!-- Title: fiftyone.pipeline.core.data.DataBase Pages: 1 -->
<svg width="246pt" height="106pt"
 viewBox="0.00 0.00 246.00 106.00" xmlns="http://www.w3.org/2000/svg" xmlns:xlink="http://www.w3.org/1999/xlink">
<g id="graph0" class="graph" transform="scale(1 1) rotate(0) translate(4 102)">
<title>fiftyone.pipeline.core.data.DataBase</title>
<!-- Node10 -->
<g id="node1" class="node">
<title>Node10</title>
<g id="a_node1"><a xlink:title="This implementation of Data stores data values as key/value pairs in a Map where the key is a string ...">
<polygon fill="#bfbfbf" stroke="black" points="75.5,-0.5 75.5,-30.5 222.5,-30.5 222.5,-0.5 75.5,-0.5"/>
<text text-anchor="start" x="83.5" y="-18.5" font-family="Helvetica,sans-Serif" font-size="10.00">fiftyone.pipeline.core.data.</text>
<text text-anchor="middle" x="149" y="-7.5" font-family="Helvetica,sans-Serif" font-size="10.00">DataBase</text>
</a>
</g>
</g>
<!-- Node11 -->
<g id="node2" class="node">
<title>Node11</title>
<g id="a_node2"><a xlink:href="interfacefiftyone_1_1pipeline_1_1core_1_1data_1_1_data.html" target="_top" xlink:title="Represents a collection of property values.">
<polygon fill="none" stroke="black" points="0,-78.5 0,-97.5 170,-97.5 170,-78.5 0,-78.5"/>
<text text-anchor="middle" x="85" y="-85.5" font-family="Helvetica,sans-Serif" font-size="10.00">fiftyone.pipeline.core.data.Data</text>
</a>
</g>
</g>
<!-- Node11&#45;&gt;Node10 -->
<g id="edge1" class="edge">
<title>Node11&#45;&gt;Node10</title>
<path fill="none" stroke="midnightblue" d="M99.76,-70.74C110.78,-58.6 125.7,-42.16 136.22,-30.58"/>
<polygon fill="midnightblue" stroke="midnightblue" points="96.98,-68.6 92.85,-78.36 102.16,-73.3 96.98,-68.6"/>
</g>
<!-- Node12 -->
<g id="node3" class="node">
<title>Node12</title>
<g id="a_node3"><a xlink:title=" ">
<polygon fill="none" stroke="#bfbfbf" points="188,-78.5 188,-97.5 238,-97.5 238,-78.5 188,-78.5"/>
<text text-anchor="middle" x="213" y="-85.5" font-family="Helvetica,sans-Serif" font-size="10.00">Logger</text>
</a>
</g>
</g>
<!-- Node12&#45;&gt;Node10 -->
<g id="edge2" class="edge">
<title>Node12&#45;&gt;Node10</title>
<path fill="none" stroke="#9a32cd" stroke-dasharray="5,2" d="M198.24,-70.74C187.22,-58.6 172.3,-42.16 161.78,-30.58"/>
<polygon fill="#9a32cd" stroke="#9a32cd" points="195.84,-73.3 205.15,-78.36 201.02,-68.6 195.84,-73.3"/>
<text text-anchor="middle" x="203" y="-52" font-family="Helvetica,sans-Serif" font-size="10.00"> logger</text>
</g>
</g>
</svg>
