<?xml version="1.0" encoding="UTF-8" standalone="no"?>
<!DOCTYPE svg PUBLIC "-//W3C//DTD SVG 1.1//EN"
 "http://www.w3.org/Graphics/SVG/1.1/DTD/svg11.dtd">
<!-- Generated by graphviz version 2.43.0 (0)
 -->
<!-- Title: fiftyone.pipeline.engines.services.DataUploaderHttp Pages: 1 -->
<svg width="322pt" height="117pt"
 viewBox="0.00 0.00 321.50 117.00" xmlns="http://www.w3.org/2000/svg" xmlns:xlink="http://www.w3.org/1999/xlink">
<g id="graph0" class="graph" transform="scale(1 1) rotate(0) translate(4 113)">
<title>fiftyone.pipeline.engines.services.DataUploaderHttp</title>
<!-- Node2 -->
<g id="node1" class="node">
<title>Node2</title>
<g id="a_node1"><a xlink:title=" ">
<polygon fill="#bfbfbf" stroke="black" points="83,-0.5 83,-30.5 266,-30.5 266,-0.5 83,-0.5"/>
<text text-anchor="start" x="91" y="-18.5" font-family="Helvetica,sans-Serif" font-size="10.00">fiftyone.pipeline.engines.services.</text>
<text text-anchor="middle" x="174.5" y="-7.5" font-family="Helvetica,sans-Serif" font-size="10.00">DataUploaderHttp</text>
</a>
</g>
</g>
<!-- Node3 -->
<g id="node2" class="node">
<title>Node3</title>
<g id="a_node2"><a xlink:href="interfacefiftyone_1_1pipeline_1_1engines_1_1services_1_1_data_uploader.html" target="_top" xlink:title="provides an OutputStream to share usage">
<polygon fill="none" stroke="black" points="0,-78.5 0,-108.5 183,-108.5 183,-78.5 0,-78.5"/>
<text text-anchor="start" x="8" y="-96.5" font-family="Helvetica,sans-Serif" font-size="10.00">fiftyone.pipeline.engines.services.</text>
<text text-anchor="middle" x="91.5" y="-85.5" font-family="Helvetica,sans-Serif" font-size="10.00">DataUploader</text>
</a>
</g>
</g>
<!-- Node3&#45;&gt;Node2 -->
<g id="edge1" class="edge">
<title>Node3&#45;&gt;Node2</title>
<path fill="none" stroke="midnightblue" d="M114.55,-71.39C128.71,-58.43 146.46,-42.18 158.96,-30.73"/>
<polygon fill="midnightblue" stroke="midnightblue" points="112.12,-68.87 107.11,-78.2 116.85,-74.03 112.12,-68.87"/>
</g>
<!-- Node4 -->
<g id="node3" class="node">
<title>Node4</title>
<g id="a_node3"><a xlink:title=" ">
<polygon fill="none" stroke="#bfbfbf" points="201.5,-84 201.5,-103 313.5,-103 313.5,-84 201.5,-84"/>
<text text-anchor="middle" x="257.5" y="-91" font-family="Helvetica,sans-Serif" font-size="10.00">HttpURLConnection</text>
</a>
</g>
</g>
<!-- Node4&#45;&gt;Node2 -->
<g id="edge2" class="edge">
<title>Node4&#45;&gt;Node2</title>
<path fill="none" stroke="#9a32cd" stroke-dasharray="5,2" d="M240.47,-76.9C225.58,-63.27 204.16,-43.66 189.81,-30.52"/>
<polygon fill="#9a32cd" stroke="#9a32cd" points="238.24,-79.61 247.98,-83.78 242.97,-74.45 238.24,-79.61"/>
<text text-anchor="middle" x="250" y="-52" font-family="Helvetica,sans-Serif" font-size="10.00"> connection</text>
</g>
</g>
</svg>
