<?xml version="1.0" encoding="UTF-8" standalone="no"?>
<!DOCTYPE svg PUBLIC "-//W3C//DTD SVG 1.1//EN"
 "http://www.w3.org/Graphics/SVG/1.1/DTD/svg11.dtd">
<!-- Generated by graphviz version 2.43.0 (0)
 -->
<!-- Title: fiftyone.pipeline.engines.fiftyone.data.CollectionIterableBase&lt; T &gt; Pages: 1 -->
<svg width="212pt" height="262pt"
 viewBox="0.00 0.00 212.00 262.00" xmlns="http://www.w3.org/2000/svg" xmlns:xlink="http://www.w3.org/1999/xlink">
<g id="graph0" class="graph" transform="scale(1 1) rotate(0) translate(4 258)">
<title>fiftyone.pipeline.engines.fiftyone.data.CollectionIterableBase&lt; T &gt;</title>
<!-- Node0 -->
<g id="node1" class="node">
<title>Node0</title>
<g id="a_node1"><a xlink:title=" ">
<polygon fill="#bfbfbf" stroke="black" points="0,-89.5 0,-119.5 204,-119.5 204,-89.5 0,-89.5"/>
<text text-anchor="start" x="8" y="-107.5" font-family="Helvetica,sans-Serif" font-size="10.00">fiftyone.pipeline.engines.fiftyone.data.</text>
<text text-anchor="middle" x="102" y="-96.5" font-family="Helvetica,sans-Serif" font-size="10.00">CollectionIterableBase&lt; T &gt;</text>
</a>
</g>
</g>
<!-- Node4 -->
<g id="node5" class="node">
<title>Node4</title>
<g id="a_node5"><a xlink:href="classfiftyone_1_1pipeline_1_1engines_1_1fiftyone_1_1data_1_1_collection_iterable_cached_base.html" target="_top" xlink:title=" ">
<polygon fill="none" stroke="black" points="15.5,-0.5 15.5,-52.5 188.5,-52.5 188.5,-0.5 15.5,-0.5"/>
<text text-anchor="start" x="23.5" y="-40.5" font-family="Helvetica,sans-Serif" font-size="10.00">fiftyone::pipeline</text>
<text text-anchor="start" x="23.5" y="-29.5" font-family="Helvetica,sans-Serif" font-size="10.00">::engines::fiftyone</text>
<text text-anchor="start" x="23.5" y="-18.5" font-family="Helvetica,sans-Serif" font-size="10.00">::data::CollectionIterableCached</text>
<text text-anchor="middle" x="102" y="-7.5" font-family="Helvetica,sans-Serif" font-size="10.00">Base&lt; T &gt;</text>
</a>
</g>
</g>
<!-- Node0&#45;&gt;Node4 -->
<g id="edge4" class="edge">
<title>Node0&#45;&gt;Node4</title>
<path fill="none" stroke="midnightblue" d="M102,-79.14C102,-70.63 102,-61.07 102,-52.5"/>
<polygon fill="midnightblue" stroke="midnightblue" points="98.5,-79.2 102,-89.2 105.5,-79.21 98.5,-79.2"/>
</g>
<!-- Node1 -->
<g id="node2" class="node">
<title>Node1</title>
<g id="a_node2"><a xlink:href="interfacefiftyone_1_1pipeline_1_1engines_1_1fiftyone_1_1data_1_1_closeable_iterable.html" target="_top" xlink:title="An iterable class which also implements auto&#45;closable.">
<polygon fill="none" stroke="black" points="20,-156.5 20,-197.5 184,-197.5 184,-156.5 20,-156.5"/>
<text text-anchor="start" x="28" y="-185.5" font-family="Helvetica,sans-Serif" font-size="10.00">fiftyone::pipeline</text>
<text text-anchor="start" x="28" y="-174.5" font-family="Helvetica,sans-Serif" font-size="10.00">::engines::fiftyone</text>
<text text-anchor="middle" x="102" y="-163.5" font-family="Helvetica,sans-Serif" font-size="10.00">::data::CloseableIterable&lt; T &gt;</text>
</a>
</g>
</g>
<!-- Node1&#45;&gt;Node0 -->
<g id="edge1" class="edge">
<title>Node1&#45;&gt;Node0</title>
<path fill="none" stroke="midnightblue" d="M102,-146.08C102,-137.01 102,-127.45 102,-119.89"/>
<polygon fill="midnightblue" stroke="midnightblue" points="98.5,-146.36 102,-156.36 105.5,-146.36 98.5,-146.36"/>
</g>
<!-- Node2 -->
<g id="node3" class="node">
<title>Node2</title>
<g id="a_node3"><a xlink:title=" ">
<polygon fill="none" stroke="#bfbfbf" points="9.5,-234.5 9.5,-253.5 92.5,-253.5 92.5,-234.5 9.5,-234.5"/>
<text text-anchor="middle" x="51" y="-241.5" font-family="Helvetica,sans-Serif" font-size="10.00">Iterable&lt; T &gt;</text>
</a>
</g>
</g>
<!-- Node2&#45;&gt;Node1 -->
<g id="edge2" class="edge">
<title>Node2&#45;&gt;Node1</title>
<path fill="none" stroke="midnightblue" d="M64.13,-226.27C71.01,-217.5 79.48,-206.7 86.67,-197.54"/>
<polygon fill="midnightblue" stroke="midnightblue" points="61.3,-224.21 57.88,-234.23 66.8,-228.53 61.3,-224.21"/>
</g>
<!-- Node3 -->
<g id="node4" class="node">
<title>Node3</title>
<g id="a_node4"><a xlink:title=" ">
<polygon fill="none" stroke="#bfbfbf" points="110.5,-234.5 110.5,-253.5 197.5,-253.5 197.5,-234.5 110.5,-234.5"/>
<text text-anchor="middle" x="154" y="-241.5" font-family="Helvetica,sans-Serif" font-size="10.00">AutoCloseable</text>
</a>
</g>
</g>
<!-- Node3&#45;&gt;Node1 -->
<g id="edge3" class="edge">
<title>Node3&#45;&gt;Node1</title>
<path fill="none" stroke="midnightblue" d="M140.62,-226.27C133.6,-217.5 124.96,-206.7 117.63,-197.54"/>
<polygon fill="midnightblue" stroke="midnightblue" points="138.01,-228.61 146.99,-234.23 143.47,-224.24 138.01,-228.61"/>
</g>
</g>
</svg>
