<?xml version="1.0" encoding="UTF-8" standalone="no"?>
<!DOCTYPE svg PUBLIC "-//W3C//DTD SVG 1.1//EN"
 "http://www.w3.org/Graphics/SVG/1.1/DTD/svg11.dtd">
<!-- Generated by graphviz version 2.43.0 (0)
 -->
<!-- Title: fiftyone.pipeline.jsonbuilder.flowelements.JsonBuilderDataInternal Pages: 1 -->
<svg width="872pt" height="89pt"
 viewBox="0.00 0.00 872.00 89.00" xmlns="http://www.w3.org/2000/svg" xmlns:xlink="http://www.w3.org/1999/xlink">
<g id="graph0" class="graph" transform="scale(1 1) rotate(0) translate(4 85)">
<title>fiftyone.pipeline.jsonbuilder.flowelements.JsonBuilderDataInternal</title>
<!-- Node6 -->
<g id="node1" class="node">
<title>Node6</title>
<g id="a_node1"><a xlink:title="[class]">
<polygon fill="#bfbfbf" stroke="black" points="640,-25.5 640,-55.5 864,-55.5 864,-25.5 640,-25.5"/>
<text text-anchor="start" x="648" y="-43.5" font-family="Helvetica,sans-Serif" font-size="10.00">fiftyone.pipeline.jsonbuilder.flowelements.</text>
<text text-anchor="middle" x="752" y="-32.5" font-family="Helvetica,sans-Serif" font-size="10.00">JsonBuilderDataInternal</text>
</a>
</g>
</g>
<!-- Node7 -->
<g id="node2" class="node">
<title>Node7</title>
<g id="a_node2"><a xlink:href="classfiftyone_1_1pipeline_1_1core_1_1data_1_1_element_data_base.html" target="_top" xlink:title="Base implementation of ElementData.">
<polygon fill="none" stroke="black" points="440,-1.5 440,-31.5 587,-31.5 587,-1.5 440,-1.5"/>
<text text-anchor="start" x="448" y="-19.5" font-family="Helvetica,sans-Serif" font-size="10.00">fiftyone.pipeline.core.data.</text>
<text text-anchor="middle" x="513.5" y="-8.5" font-family="Helvetica,sans-Serif" font-size="10.00">ElementDataBase</text>
</a>
</g>
</g>
<!-- Node7&#45;&gt;Node6 -->
<g id="edge1" class="edge">
<title>Node7&#45;&gt;Node6</title>
<path fill="none" stroke="midnightblue" d="M597.41,-24.91C611.13,-26.31 625.54,-27.77 639.82,-29.22"/>
<polygon fill="midnightblue" stroke="midnightblue" points="597.37,-21.39 587.07,-23.86 596.66,-28.36 597.37,-21.39"/>
</g>
<!-- Node8 -->
<g id="node3" class="node">
<title>Node8</title>
<g id="a_node3"><a xlink:href="classfiftyone_1_1pipeline_1_1core_1_1data_1_1_data_base.html" target="_top" xlink:title="This implementation of Data stores data values as key/value pairs in a Map where the key is a string ...">
<polygon fill="none" stroke="black" points="240,-0.5 240,-30.5 387,-30.5 387,-0.5 240,-0.5"/>
<text text-anchor="start" x="248" y="-18.5" font-family="Helvetica,sans-Serif" font-size="10.00">fiftyone.pipeline.core.data.</text>
<text text-anchor="middle" x="313.5" y="-7.5" font-family="Helvetica,sans-Serif" font-size="10.00">DataBase</text>
</a>
</g>
</g>
<!-- Node8&#45;&gt;Node7 -->
<g id="edge2" class="edge">
<title>Node8&#45;&gt;Node7</title>
<path fill="none" stroke="midnightblue" d="M397.31,-15.92C411.45,-15.99 426.05,-16.06 439.91,-16.13"/>
<polygon fill="midnightblue" stroke="midnightblue" points="397.12,-12.42 387.1,-15.87 397.09,-19.42 397.12,-12.42"/>
</g>
<!-- Node9 -->
<g id="node4" class="node">
<title>Node9</title>
<g id="a_node4"><a xlink:href="interfacefiftyone_1_1pipeline_1_1core_1_1data_1_1_data.html" target="_top" xlink:title="Represents a collection of property values.">
<polygon fill="none" stroke="black" points="0,-48 0,-67 170,-67 170,-48 0,-48"/>
<text text-anchor="middle" x="85" y="-55" font-family="Helvetica,sans-Serif" font-size="10.00">fiftyone.pipeline.core.data.Data</text>
</a>
</g>
</g>
<!-- Node9&#45;&gt;Node8 -->
<g id="edge3" class="edge">
<title>Node9&#45;&gt;Node8</title>
<path fill="none" stroke="midnightblue" d="M147.25,-46.14C175.8,-40.85 209.99,-34.51 239.84,-28.97"/>
<polygon fill="midnightblue" stroke="midnightblue" points="146.59,-42.7 137.4,-47.97 147.87,-49.59 146.59,-42.7"/>
</g>
<!-- Node11 -->
<g id="node6" class="node">
<title>Node11</title>
<g id="a_node6"><a xlink:href="interfacefiftyone_1_1pipeline_1_1core_1_1data_1_1_element_data.html" target="_top" xlink:title="Represents property values that have be determined by a specific FlowElement based on the supplied ev...">
<polygon fill="none" stroke="black" points="240,-49.5 240,-79.5 387,-79.5 387,-49.5 240,-49.5"/>
<text text-anchor="start" x="248" y="-67.5" font-family="Helvetica,sans-Serif" font-size="10.00">fiftyone.pipeline.core.data.</text>
<text text-anchor="middle" x="313.5" y="-56.5" font-family="Helvetica,sans-Serif" font-size="10.00">ElementData</text>
</a>
</g>
</g>
<!-- Node9&#45;&gt;Node11 -->
<g id="edge6" class="edge">
<title>Node9&#45;&gt;Node11</title>
<path fill="none" stroke="midnightblue" d="M180.05,-60.41C200,-61.02 220.77,-61.67 239.79,-62.25"/>
<polygon fill="midnightblue" stroke="midnightblue" points="180.12,-56.91 170.02,-60.1 179.91,-63.9 180.12,-56.91"/>
</g>
<!-- Node10 -->
<g id="node5" class="node">
<title>Node10</title>
<g id="a_node5"><a xlink:title=" ">
<polygon fill="none" stroke="#bfbfbf" points="60,-4 60,-23 110,-23 110,-4 60,-4"/>
<text text-anchor="middle" x="85" y="-11" font-family="Helvetica,sans-Serif" font-size="10.00">Logger</text>
</a>
</g>
</g>
<!-- Node10&#45;&gt;Node8 -->
<g id="edge4" class="edge">
<title>Node10&#45;&gt;Node8</title>
<path fill="none" stroke="#9a32cd" stroke-dasharray="5,2" d="M120.35,-13.72C147.85,-13.9 187.4,-14.18 222,-14.5 227.81,-14.55 233.84,-14.61 239.89,-14.67"/>
<polygon fill="#9a32cd" stroke="#9a32cd" points="120.1,-10.22 110.08,-13.65 120.05,-17.22 120.1,-10.22"/>
<text text-anchor="middle" x="205" y="-17.5" font-family="Helvetica,sans-Serif" font-size="10.00"> logger</text>
</g>
<!-- Node11&#45;&gt;Node7 -->
<g id="edge5" class="edge">
<title>Node11&#45;&gt;Node7</title>
<path fill="none" stroke="midnightblue" d="M386.45,-47.06C407.48,-41.96 430.27,-36.43 450.62,-31.5"/>
<polygon fill="midnightblue" stroke="midnightblue" points="385.5,-43.69 376.61,-49.44 387.15,-50.49 385.5,-43.69"/>
</g>
<!-- Node12 -->
<g id="node7" class="node">
<title>Node12</title>
<g id="a_node7"><a xlink:href="interfacefiftyone_1_1pipeline_1_1jsonbuilder_1_1data_1_1_json_builder_data.html" target="_top" xlink:title="Data containing the result of a JsonBuilderElements processing.">
<polygon fill="none" stroke="black" points="424,-50.5 424,-80.5 603,-80.5 603,-50.5 424,-50.5"/>
<text text-anchor="start" x="432" y="-68.5" font-family="Helvetica,sans-Serif" font-size="10.00">fiftyone.pipeline.jsonbuilder.data.</text>
<text text-anchor="middle" x="513.5" y="-57.5" font-family="Helvetica,sans-Serif" font-size="10.00">JsonBuilderData</text>
</a>
</g>
</g>
<!-- Node11&#45;&gt;Node12 -->
<g id="edge8" class="edge">
<title>Node11&#45;&gt;Node12</title>
<path fill="none" stroke="midnightblue" d="M397.27,-64.92C406.02,-64.96 414.94,-65.01 423.75,-65.05"/>
<polygon fill="midnightblue" stroke="midnightblue" points="397.12,-61.42 387.1,-64.87 397.09,-68.42 397.12,-61.42"/>
</g>
<!-- Node12&#45;&gt;Node6 -->
<g id="edge7" class="edge">
<title>Node12&#45;&gt;Node6</title>
<path fill="none" stroke="midnightblue" d="M613.39,-55.05C622.11,-54.13 630.97,-53.19 639.77,-52.26"/>
<polygon fill="midnightblue" stroke="midnightblue" points="612.81,-51.59 603.24,-56.12 613.55,-58.55 612.81,-51.59"/>
</g>
</g>
</svg>
