<?xml version="1.0" encoding="UTF-8" standalone="no"?>
<!DOCTYPE svg PUBLIC "-//W3C//DTD SVG 1.1//EN"
 "http://www.w3.org/Graphics/SVG/1.1/DTD/svg11.dtd">
<!-- Generated by graphviz version 2.43.0 (0)
 -->
<!-- Title: fiftyone.pipeline.engines.fiftyone.flowelements.FiftyOneOnPremiseAspectEngineBuilderBase&lt; TBuilder extends FiftyOneOnPremiseAspectEngineBuilderBase&lt; TBuilder, TEngine, TEngine extends FiftyOneAspectEngine &gt; Pages: 1 -->
<svg width="3120pt" height="441pt"
 viewBox="0.00 0.00 3120.00 441.00" xmlns="http://www.w3.org/2000/svg" xmlns:xlink="http://www.w3.org/1999/xlink">
<g id="graph0" class="graph" transform="scale(1 1) rotate(0) translate(4 437)">
<title>fiftyone.pipeline.engines.fiftyone.flowelements.FiftyOneOnPremiseAspectEngineBuilderBase&lt; TBuilder extends FiftyOneOnPremiseAspectEngineBuilderBase&lt; TBuilder, TEngine, TEngine extends FiftyOneAspectEngine &gt;</title>
<!-- Node20 -->
<g id="node1" class="node">
<title>Node20</title>
<g id="a_node1"><a xlink:title="Abstract base class that exposes the common options that all 51Degrees on&#45;premise engine builders usi...">
<polygon fill="#bfbfbf" stroke="black" points="2767,-140 2767,-192 3112,-192 3112,-140 2767,-140"/>
<text text-anchor="start" x="2775" y="-180" font-family="Helvetica,sans-Serif" font-size="10.00">fiftyone.pipeline.engines.fiftyone.flowelements.</text>
<text text-anchor="start" x="2775" y="-169" font-family="Helvetica,sans-Serif" font-size="10.00">FiftyOneOnPremiseAspectEngineBuilderBase</text>
<text text-anchor="start" x="2775" y="-158" font-family="Helvetica,sans-Serif" font-size="10.00">&lt; TBuilder extends FiftyOneOnPremiseAspectEngineBuilder</text>
<text text-anchor="middle" x="2939.5" y="-147" font-family="Helvetica,sans-Serif" font-size="10.00">Base&lt; TBuilder, TEngine, TEngine extends FiftyOneAspectEngine &gt;</text>
</a>
</g>
</g>
<!-- Node21 -->
<g id="node2" class="node">
<title>Node21</title>
<g id="a_node2"><a xlink:href="classfiftyone_1_1pipeline_1_1engines_1_1flowelements_1_1_single_file_aspect_engine_builder_base.html" target="_top" xlink:title="Abstract base class that exposes the common options that all on&#45;premise engine builders using a singl...">
<polygon fill="none" stroke="black" points="2560,-184 2560,-236 2730,-236 2730,-184 2560,-184"/>
<text text-anchor="start" x="2568" y="-224" font-family="Helvetica,sans-Serif" font-size="10.00">fiftyone::pipeline</text>
<text text-anchor="start" x="2568" y="-213" font-family="Helvetica,sans-Serif" font-size="10.00">::engines::flowelements</text>
<text text-anchor="start" x="2568" y="-202" font-family="Helvetica,sans-Serif" font-size="10.00">::SingleFileAspectEngineBuilder</text>
<text text-anchor="middle" x="2645" y="-191" font-family="Helvetica,sans-Serif" font-size="10.00">Base&lt; TBuilder, TEngine &gt;</text>
</a>
</g>
</g>
<!-- Node21&#45;&gt;Node20 -->
<g id="edge1" class="edge">
<title>Node21&#45;&gt;Node20</title>
<path fill="none" stroke="midnightblue" d="M2740.25,-195.82C2748.93,-194.52 2757.88,-193.17 2766.97,-191.8"/>
<polygon fill="midnightblue" stroke="midnightblue" points="2739.58,-192.38 2730.21,-197.33 2740.62,-199.31 2739.58,-192.38"/>
</g>
<!-- Node22 -->
<g id="node3" class="node">
<title>Node22</title>
<g id="a_node3"><a xlink:href="classfiftyone_1_1pipeline_1_1engines_1_1flowelements_1_1_on_premise_aspect_engine_builder_base.html" target="_top" xlink:title=" ">
<polygon fill="none" stroke="black" points="2272,-251.5 2272,-292.5 2481,-292.5 2481,-251.5 2272,-251.5"/>
<text text-anchor="start" x="2280" y="-280.5" font-family="Helvetica,sans-Serif" font-size="10.00">fiftyone.pipeline.engines.flowelements.</text>
<text text-anchor="start" x="2280" y="-269.5" font-family="Helvetica,sans-Serif" font-size="10.00">OnPremiseAspectEngineBuilderBase</text>
<text text-anchor="middle" x="2376.5" y="-258.5" font-family="Helvetica,sans-Serif" font-size="10.00">&lt; TBuilder, TEngine &gt;</text>
</a>
</g>
</g>
<!-- Node22&#45;&gt;Node21 -->
<g id="edge2" class="edge">
<title>Node22&#45;&gt;Node21</title>
<path fill="none" stroke="midnightblue" d="M2475.93,-249.1C2503.52,-242.68 2533.26,-235.76 2559.93,-229.56"/>
<polygon fill="midnightblue" stroke="midnightblue" points="2474.82,-245.77 2465.87,-251.44 2476.4,-252.58 2474.82,-245.77"/>
</g>
<!-- Node23 -->
<g id="node4" class="node">
<title>Node23</title>
<g id="a_node4"><a xlink:href="classfiftyone_1_1pipeline_1_1engines_1_1flowelements_1_1_on_premise_aspect_engine_builder_base.html" target="_top" xlink:title="Abstract base class that exposes the common options that all 51Degrees on&#45;premise engine builders sho...">
<polygon fill="none" stroke="black" points="1846,-265.5 1846,-328.5 2113,-328.5 2113,-265.5 1846,-265.5"/>
<text text-anchor="start" x="1854" y="-316.5" font-family="Helvetica,sans-Serif" font-size="10.00">fiftyone.pipeline.engines.flowelements.</text>
<text text-anchor="start" x="1854" y="-305.5" font-family="Helvetica,sans-Serif" font-size="10.00">OnPremiseAspectEngineBuilderBase</text>
<text text-anchor="start" x="1854" y="-294.5" font-family="Helvetica,sans-Serif" font-size="10.00">&lt; TBuilder extends OnPremiseAspectEngineBuilder</text>
<text text-anchor="start" x="1854" y="-283.5" font-family="Helvetica,sans-Serif" font-size="10.00">Base&lt; TBuilder, TEngine, TEngine extends</text>
<text text-anchor="middle" x="1979.5" y="-272.5" font-family="Helvetica,sans-Serif" font-size="10.00"> OnPremiseAspectEngine &gt;</text>
</a>
</g>
</g>
<!-- Node23&#45;&gt;Node22 -->
<g id="edge3" class="edge">
<title>Node23&#45;&gt;Node22</title>
<path fill="none" stroke="orange" stroke-dasharray="5,2" d="M2123.22,-287.97C2172.4,-284.85 2226.5,-281.43 2271.94,-278.55"/>
<polygon fill="orange" stroke="orange" points="2122.89,-284.48 2113.13,-288.61 2123.33,-291.47 2122.89,-284.48"/>
<text text-anchor="middle" x="2198" y="-290" font-family="Helvetica,sans-Serif" font-size="10.00"> &lt; TBuilder, TEngine &gt;</text>
</g>
<!-- Node24 -->
<g id="node5" class="node">
<title>Node24</title>
<g id="a_node5"><a xlink:href="classfiftyone_1_1pipeline_1_1engines_1_1flowelements_1_1_aspect_engine_builder_base.html" target="_top" xlink:title=" ">
<polygon fill="none" stroke="black" points="1491.5,-353.5 1491.5,-394.5 1700.5,-394.5 1700.5,-353.5 1491.5,-353.5"/>
<text text-anchor="start" x="1499.5" y="-382.5" font-family="Helvetica,sans-Serif" font-size="10.00">fiftyone.pipeline.engines.flowelements.</text>
<text text-anchor="start" x="1499.5" y="-371.5" font-family="Helvetica,sans-Serif" font-size="10.00">AspectEngineBuilderBase&lt; TBuilder,</text>
<text text-anchor="middle" x="1596" y="-360.5" font-family="Helvetica,sans-Serif" font-size="10.00"> TEngine &gt;</text>
</a>
</g>
</g>
<!-- Node24&#45;&gt;Node23 -->
<g id="edge4" class="edge">
<title>Node24&#45;&gt;Node23</title>
<path fill="none" stroke="midnightblue" d="M1708.65,-351.47C1751.61,-342.79 1801.07,-332.81 1845.82,-323.78"/>
<polygon fill="midnightblue" stroke="midnightblue" points="1707.84,-348.06 1698.73,-353.47 1709.23,-354.92 1707.84,-348.06"/>
</g>
<!-- Node25 -->
<g id="node6" class="node">
<title>Node25</title>
<g id="a_node6"><a xlink:href="classfiftyone_1_1pipeline_1_1engines_1_1flowelements_1_1_aspect_engine_builder_base.html" target="_top" xlink:title="Abstract base class that exposes the common options that all 51Degrees engine builders should make us...">
<polygon fill="none" stroke="black" points="1082,-347.5 1082,-410.5 1291,-410.5 1291,-347.5 1082,-347.5"/>
<text text-anchor="start" x="1090" y="-398.5" font-family="Helvetica,sans-Serif" font-size="10.00">fiftyone.pipeline.engines.flowelements.</text>
<text text-anchor="start" x="1090" y="-387.5" font-family="Helvetica,sans-Serif" font-size="10.00">AspectEngineBuilderBase&lt; TBuilder</text>
<text text-anchor="start" x="1090" y="-376.5" font-family="Helvetica,sans-Serif" font-size="10.00"> extends AspectEngineBuilderBase</text>
<text text-anchor="start" x="1090" y="-365.5" font-family="Helvetica,sans-Serif" font-size="10.00">&lt; TBuilder, TEngine, TEngine extends</text>
<text text-anchor="middle" x="1186.5" y="-354.5" font-family="Helvetica,sans-Serif" font-size="10.00"> AspectEngine &gt;</text>
</a>
</g>
</g>
<!-- Node25&#45;&gt;Node24 -->
<g id="edge5" class="edge">
<title>Node25&#45;&gt;Node24</title>
<path fill="none" stroke="orange" stroke-dasharray="5,2" d="M1301.32,-377.6C1360.85,-376.87 1433.19,-375.99 1491.18,-375.27"/>
<polygon fill="orange" stroke="orange" points="1301.08,-374.11 1291.12,-377.73 1301.16,-381.11 1301.08,-374.11"/>
<text text-anchor="middle" x="1381.5" y="-380" font-family="Helvetica,sans-Serif" font-size="10.00"> &lt; TBuilder, TEngine &gt;</text>
</g>
<!-- Node26 -->
<g id="node7" class="node">
<title>Node26</title>
<g id="a_node7"><a xlink:href="classfiftyone_1_1pipeline_1_1engines_1_1configuration_1_1_cache_configuration.html" target="_top" xlink:title="Contains everything needed to build a cache.">
<polygon fill="none" stroke="black" points="711.5,-357 711.5,-387 917.5,-387 917.5,-357 711.5,-357"/>
<text text-anchor="start" x="719.5" y="-375" font-family="Helvetica,sans-Serif" font-size="10.00">fiftyone.pipeline.engines.configuration.</text>
<text text-anchor="middle" x="814.5" y="-364" font-family="Helvetica,sans-Serif" font-size="10.00">CacheConfiguration</text>
</a>
</g>
</g>
<!-- Node26&#45;&gt;Node25 -->
<g id="edge6" class="edge">
<title>Node26&#45;&gt;Node25</title>
<path fill="none" stroke="#9a32cd" stroke-dasharray="5,2" d="M927.6,-374.12C976.63,-375.05 1033.79,-376.13 1081.82,-377.04"/>
<polygon fill="#9a32cd" stroke="#9a32cd" points="927.65,-370.62 917.58,-373.93 927.52,-377.62 927.65,-370.62"/>
<text text-anchor="middle" x="1009.5" y="-379" font-family="Helvetica,sans-Serif" font-size="10.00"> cacheConfig</text>
</g>
<!-- Node27 -->
<g id="node8" class="node">
<title>Node27</title>
<g id="a_node8"><a xlink:title=" ">
<polygon fill="none" stroke="#bfbfbf" points="770.5,-406.5 770.5,-425.5 858.5,-425.5 858.5,-406.5 770.5,-406.5"/>
<text text-anchor="middle" x="814.5" y="-413.5" font-family="Helvetica,sans-Serif" font-size="10.00">ILoggerFactory</text>
</a>
</g>
</g>
<!-- Node27&#45;&gt;Node25 -->
<g id="edge7" class="edge">
<title>Node27&#45;&gt;Node25</title>
<path fill="none" stroke="#9a32cd" stroke-dasharray="5,2" d="M868.63,-410.69C924.07,-405.14 1012.43,-396.31 1081.77,-389.37"/>
<polygon fill="#9a32cd" stroke="#9a32cd" points="868.27,-407.21 858.67,-411.68 868.97,-414.17 868.27,-407.21"/>
<text text-anchor="middle" x="1009.5" y="-404" font-family="Helvetica,sans-Serif" font-size="10.00"> loggerFactory</text>
</g>
<!-- Node28 -->
<g id="node9" class="node">
<title>Node28</title>
<g id="a_node9"><a xlink:href="interfacefiftyone_1_1pipeline_1_1engines_1_1flowelements_1_1_aspect_engine.html" target="_top" xlink:title="AspectEngines are a subset of FlowElements.">
<polygon fill="none" stroke="black" points="692,-164.5 692,-205.5 937,-205.5 937,-164.5 692,-164.5"/>
<text text-anchor="start" x="700" y="-193.5" font-family="Helvetica,sans-Serif" font-size="10.00">fiftyone.pipeline.engines.flowelements.</text>
<text text-anchor="start" x="700" y="-182.5" font-family="Helvetica,sans-Serif" font-size="10.00">AspectEngine&lt; TData extends AspectData,</text>
<text text-anchor="middle" x="814.5" y="-171.5" font-family="Helvetica,sans-Serif" font-size="10.00"> TProperty extends AspectPropertyMetaData &gt;</text>
</a>
</g>
</g>
<!-- Node28&#45;&gt;Node25 -->
<g id="edge8" class="edge">
<title>Node28&#45;&gt;Node25</title>
<path fill="none" stroke="orange" stroke-dasharray="5,2" d="M847.95,-212.38C875.25,-234.5 915.99,-265.41 955,-287 997.97,-310.79 1048.38,-331.63 1091.08,-347.44"/>
<polygon fill="orange" stroke="orange" points="849.88,-209.44 839.92,-205.82 845.45,-214.86 849.88,-209.44"/>
<text text-anchor="middle" x="1009.5" y="-338" font-family="Helvetica,sans-Serif" font-size="10.00"> TEngine</text>
</g>
<!-- Node41 -->
<g id="node22" class="node">
<title>Node41</title>
<g id="a_node22"><a xlink:href="interfacefiftyone_1_1pipeline_1_1engines_1_1flowelements_1_1_aspect_engine.html" target="_top" xlink:title=" ">
<polygon fill="none" stroke="black" points="1082,-166 1082,-196 1291,-196 1291,-166 1082,-166"/>
<text text-anchor="start" x="1090" y="-184" font-family="Helvetica,sans-Serif" font-size="10.00">fiftyone.pipeline.engines.flowelements.</text>
<text text-anchor="middle" x="1186.5" y="-173" font-family="Helvetica,sans-Serif" font-size="10.00">AspectEngine&lt; TData, TProperty &gt;</text>
</a>
</g>
</g>
<!-- Node28&#45;&gt;Node41 -->
<g id="edge25" class="edge">
<title>Node28&#45;&gt;Node41</title>
<path fill="none" stroke="orange" stroke-dasharray="5,2" d="M947.39,-183.57C991.53,-183.1 1040.07,-182.57 1081.74,-182.12"/>
<polygon fill="orange" stroke="orange" points="947.13,-180.08 937.16,-183.68 947.2,-187.08 947.13,-180.08"/>
<text text-anchor="middle" x="1009.5" y="-187" font-family="Helvetica,sans-Serif" font-size="10.00"> &lt; TData, TProperty &gt;</text>
</g>
<!-- Node29 -->
<g id="node10" class="node">
<title>Node29</title>
<g id="a_node10"><a xlink:href="interfacefiftyone_1_1pipeline_1_1core_1_1flowelements_1_1_flow_element.html" target="_top" xlink:title="A component that processes a FlowData (by examining its evidence, or by examining data processed by o...">
<polygon fill="none" stroke="black" points="458,-136 458,-188 588,-188 588,-136 458,-136"/>
<text text-anchor="start" x="466" y="-176" font-family="Helvetica,sans-Serif" font-size="10.00">fiftyone::pipeline</text>
<text text-anchor="start" x="466" y="-165" font-family="Helvetica,sans-Serif" font-size="10.00">::core::flowelements</text>
<text text-anchor="start" x="466" y="-154" font-family="Helvetica,sans-Serif" font-size="10.00">::FlowElement&lt; TData,</text>
<text text-anchor="middle" x="523" y="-143" font-family="Helvetica,sans-Serif" font-size="10.00"> TProperty &gt;</text>
</a>
</g>
</g>
<!-- Node29&#45;&gt;Node28 -->
<g id="edge9" class="edge">
<title>Node29&#45;&gt;Node28</title>
<path fill="none" stroke="midnightblue" d="M598.49,-167.92C626.91,-170.18 660.09,-172.81 691.77,-175.33"/>
<polygon fill="midnightblue" stroke="midnightblue" points="598.5,-164.41 588.25,-167.1 597.94,-171.39 598.5,-164.41"/>
</g>
<!-- Node30 -->
<g id="node11" class="node">
<title>Node30</title>
<g id="a_node11"><a xlink:title=" ">
<polygon fill="none" stroke="#bfbfbf" points="237,-152.5 237,-171.5 324,-171.5 324,-152.5 237,-152.5"/>
<text text-anchor="middle" x="280.5" y="-159.5" font-family="Helvetica,sans-Serif" font-size="10.00">AutoCloseable</text>
</a>
</g>
</g>
<!-- Node30&#45;&gt;Node29 -->
<g id="edge10" class="edge">
<title>Node30&#45;&gt;Node29</title>
<path fill="none" stroke="midnightblue" d="M334.62,-162C371,-162 419.44,-162 457.96,-162"/>
<polygon fill="midnightblue" stroke="midnightblue" points="334.22,-158.5 324.22,-162 334.22,-165.5 334.22,-158.5"/>
</g>
<!-- Node31 -->
<g id="node12" class="node">
<title>Node31</title>
<g id="a_node12"><a xlink:href="interfacefiftyone_1_1pipeline_1_1core_1_1data_1_1_element_data.html" target="_top" xlink:title="Represents property values that have be determined by a specific FlowElement based on the supplied ev...">
<polygon fill="none" stroke="black" points="207,-198 207,-228 354,-228 354,-198 207,-198"/>
<text text-anchor="start" x="215" y="-216" font-family="Helvetica,sans-Serif" font-size="10.00">fiftyone.pipeline.core.data.</text>
<text text-anchor="middle" x="280.5" y="-205" font-family="Helvetica,sans-Serif" font-size="10.00">ElementData</text>
</a>
</g>
</g>
<!-- Node31&#45;&gt;Node29 -->
<g id="edge11" class="edge">
<title>Node31&#45;&gt;Node29</title>
<path fill="none" stroke="orange" stroke-dasharray="5,2" d="M362.3,-195.86C393.41,-189.27 428.47,-181.83 457.8,-175.61"/>
<polygon fill="orange" stroke="orange" points="361.41,-192.48 352.36,-197.97 362.87,-199.32 361.41,-192.48"/>
<text text-anchor="middle" x="397.5" y="-197" font-family="Helvetica,sans-Serif" font-size="10.00"> TData</text>
</g>
<!-- Node34 -->
<g id="node15" class="node">
<title>Node34</title>
<g id="a_node15"><a xlink:href="interfacefiftyone_1_1pipeline_1_1engines_1_1data_1_1_aspect_data.html" target="_top" xlink:title="Represents a specialized ElementData instance that is generated by an AspectEngine.">
<polygon fill="none" stroke="black" points="441,-207 441,-237 605,-237 605,-207 441,-207"/>
<text text-anchor="start" x="449" y="-225" font-family="Helvetica,sans-Serif" font-size="10.00">fiftyone.pipeline.engines.data.</text>
<text text-anchor="middle" x="523" y="-214" font-family="Helvetica,sans-Serif" font-size="10.00">AspectData</text>
</a>
</g>
</g>
<!-- Node31&#45;&gt;Node34 -->
<g id="edge15" class="edge">
<title>Node31&#45;&gt;Node34</title>
<path fill="none" stroke="midnightblue" d="M364.36,-216.1C389.03,-217.02 416.03,-218.03 440.61,-218.95"/>
<polygon fill="midnightblue" stroke="midnightblue" points="364.43,-212.6 354.31,-215.72 364.17,-219.6 364.43,-212.6"/>
</g>
<!-- Node32 -->
<g id="node13" class="node">
<title>Node32</title>
<g id="a_node13"><a xlink:href="interfacefiftyone_1_1pipeline_1_1core_1_1data_1_1_data.html" target="_top" xlink:title="Represents a collection of property values.">
<polygon fill="none" stroke="black" points="0,-203.5 0,-222.5 170,-222.5 170,-203.5 0,-203.5"/>
<text text-anchor="middle" x="85" y="-210.5" font-family="Helvetica,sans-Serif" font-size="10.00">fiftyone.pipeline.core.data.Data</text>
</a>
</g>
</g>
<!-- Node32&#45;&gt;Node31 -->
<g id="edge12" class="edge">
<title>Node32&#45;&gt;Node31</title>
<path fill="none" stroke="midnightblue" d="M180.11,-213C189.07,-213 198.06,-213 206.77,-213"/>
<polygon fill="midnightblue" stroke="midnightblue" points="180.03,-209.5 170.03,-213 180.03,-216.5 180.03,-209.5"/>
</g>
<!-- Node33 -->
<g id="node14" class="node">
<title>Node33</title>
<g id="a_node14"><a xlink:href="interfacefiftyone_1_1pipeline_1_1core_1_1data_1_1_element_property_meta_data.html" target="_top" xlink:title="Defines details of a property that can be returned by a FlowElement.">
<polygon fill="none" stroke="black" points="207,-96 207,-126 354,-126 354,-96 207,-96"/>
<text text-anchor="start" x="215" y="-114" font-family="Helvetica,sans-Serif" font-size="10.00">fiftyone.pipeline.core.data.</text>
<text text-anchor="middle" x="280.5" y="-103" font-family="Helvetica,sans-Serif" font-size="10.00">ElementPropertyMetaData</text>
</a>
</g>
</g>
<!-- Node33&#45;&gt;Node29 -->
<g id="edge13" class="edge">
<title>Node33&#45;&gt;Node29</title>
<path fill="none" stroke="orange" stroke-dasharray="5,2" d="M362.3,-128.14C393.41,-134.73 428.47,-142.17 457.8,-148.39"/>
<polygon fill="orange" stroke="orange" points="362.87,-124.68 352.36,-126.03 361.41,-131.52 362.87,-124.68"/>
<text text-anchor="middle" x="397.5" y="-143" font-family="Helvetica,sans-Serif" font-size="10.00"> TProperty</text>
</g>
<!-- Node35 -->
<g id="node16" class="node">
<title>Node35</title>
<g id="a_node16"><a xlink:href="interfacefiftyone_1_1pipeline_1_1engines_1_1data_1_1_aspect_property_meta_data.html" target="_top" xlink:title="Holds details about a property that can be returned by an AspectEngine.">
<polygon fill="none" stroke="black" points="441,-76 441,-106 605,-106 605,-76 441,-76"/>
<text text-anchor="start" x="449" y="-94" font-family="Helvetica,sans-Serif" font-size="10.00">fiftyone.pipeline.engines.data.</text>
<text text-anchor="middle" x="523" y="-83" font-family="Helvetica,sans-Serif" font-size="10.00">AspectPropertyMetaData</text>
</a>
</g>
</g>
<!-- Node33&#45;&gt;Node35 -->
<g id="edge17" class="edge">
<title>Node33&#45;&gt;Node35</title>
<path fill="none" stroke="midnightblue" d="M364.36,-104.11C389.03,-102.06 416.03,-99.81 440.61,-97.77"/>
<polygon fill="midnightblue" stroke="midnightblue" points="363.99,-100.63 354.31,-104.95 364.57,-107.6 363.99,-100.63"/>
</g>
<!-- Node34&#45;&gt;Node28 -->
<g id="edge14" class="edge">
<title>Node34&#45;&gt;Node28</title>
<path fill="none" stroke="orange" stroke-dasharray="5,2" d="M615.23,-210C617.85,-209.66 620.44,-209.33 623,-209 645.23,-206.14 668.93,-203.13 691.79,-200.24"/>
<polygon fill="orange" stroke="orange" points="614.5,-206.57 605.04,-211.32 615.4,-213.51 614.5,-206.57"/>
<text text-anchor="middle" x="648.5" y="-212" font-family="Helvetica,sans-Serif" font-size="10.00"> TData</text>
</g>
<!-- Node40 -->
<g id="node21" class="node">
<title>Node40</title>
<g id="a_node21"><a xlink:href="interfacefiftyone_1_1pipeline_1_1engines_1_1flowelements_1_1_on_premise_aspect_engine.html" target="_top" xlink:title="Aspect engine interface which processes data internally using a data file and populates the results.">
<polygon fill="none" stroke="black" points="1472,-184 1472,-236 1720,-236 1720,-184 1472,-184"/>
<text text-anchor="start" x="1480" y="-224" font-family="Helvetica,sans-Serif" font-size="10.00">fiftyone.pipeline.engines.flowelements.</text>
<text text-anchor="start" x="1480" y="-213" font-family="Helvetica,sans-Serif" font-size="10.00">OnPremiseAspectEngine&lt; TData extends</text>
<text text-anchor="start" x="1480" y="-202" font-family="Helvetica,sans-Serif" font-size="10.00"> AspectData, TProperty extends AspectProperty</text>
<text text-anchor="middle" x="1596" y="-191" font-family="Helvetica,sans-Serif" font-size="10.00">MetaData &gt;</text>
</a>
</g>
</g>
<!-- Node34&#45;&gt;Node40 -->
<g id="edge26" class="edge">
<title>Node34&#45;&gt;Node40</title>
<path fill="none" stroke="orange" stroke-dasharray="5,2" d="M580.85,-239.59C594.52,-243.08 609.17,-246.21 623,-248 917.44,-286.02 994.68,-266.45 1291,-248 1350.72,-244.28 1416.66,-236.49 1471.82,-228.93"/>
<polygon fill="orange" stroke="orange" points="581.66,-236.19 571.1,-237.01 579.86,-242.95 581.66,-236.19"/>
<text text-anchor="middle" x="1009.5" y="-273" font-family="Helvetica,sans-Serif" font-size="10.00"> TData</text>
</g>
<!-- Node42 -->
<g id="node23" class="node">
<title>Node42</title>
<g id="a_node23"><a xlink:href="interfacefiftyone_1_1pipeline_1_1engines_1_1fiftyone_1_1flowelements_1_1_fifty_one_aspect_engine.html" target="_top" xlink:title="51Degrees specific Engine interface.">
<polygon fill="none" stroke="black" points="1835,-126 1835,-178 2124,-178 2124,-126 1835,-126"/>
<text text-anchor="start" x="1843" y="-166" font-family="Helvetica,sans-Serif" font-size="10.00">fiftyone.pipeline.engines.fiftyone.flowelements.</text>
<text text-anchor="start" x="1843" y="-155" font-family="Helvetica,sans-Serif" font-size="10.00">FiftyOneAspectEngine&lt; TData extends</text>
<text text-anchor="start" x="1843" y="-144" font-family="Helvetica,sans-Serif" font-size="10.00"> AspectData, TProperty extends FiftyOneAspectProperty</text>
<text text-anchor="middle" x="1979.5" y="-133" font-family="Helvetica,sans-Serif" font-size="10.00">MetaData &gt;</text>
</a>
</g>
</g>
<!-- Node34&#45;&gt;Node42 -->
<g id="edge34" class="edge">
<title>Node34&#45;&gt;Node42</title>
<path fill="none" stroke="orange" stroke-dasharray="5,2" d="M615.38,-220.86C634.73,-220.6 655.04,-220.31 674,-220 790.89,-218.11 820.12,-217.76 937,-215 1094.35,-211.28 1134.37,-220.55 1291,-205 1372.22,-196.94 1390.85,-182.68 1472,-174 1593.98,-160.96 1733.27,-155.6 1834.87,-153.42"/>
<polygon fill="orange" stroke="orange" points="615.3,-217.36 605.35,-221 615.4,-224.36 615.3,-217.36"/>
<text text-anchor="middle" x="1186.5" y="-218" font-family="Helvetica,sans-Serif" font-size="10.00"> TData</text>
</g>
<!-- Node43 -->
<g id="node24" class="node">
<title>Node43</title>
<g id="a_node24"><a xlink:href="interfacefiftyone_1_1pipeline_1_1engines_1_1flowelements_1_1_on_premise_aspect_engine.html" target="_top" xlink:title="Aspect engine interface which processes data internally using a data file and populates the results.">
<polygon fill="none" stroke="black" points="1525,-72 1525,-124 1667,-124 1667,-72 1525,-72"/>
<text text-anchor="start" x="1533" y="-112" font-family="Helvetica,sans-Serif" font-size="10.00">fiftyone::pipeline</text>
<text text-anchor="start" x="1533" y="-101" font-family="Helvetica,sans-Serif" font-size="10.00">::engines::flowelements</text>
<text text-anchor="start" x="1533" y="-90" font-family="Helvetica,sans-Serif" font-size="10.00">::OnPremiseAspectEngine</text>
<text text-anchor="middle" x="1596" y="-79" font-family="Helvetica,sans-Serif" font-size="10.00">&lt; TData, TProperty &gt;</text>
</a>
</g>
</g>
<!-- Node34&#45;&gt;Node43 -->
<g id="edge32" class="edge">
<title>Node34&#45;&gt;Node43</title>
<path fill="none" stroke="orange" stroke-dasharray="5,2" d="M586.83,-203.64C593.01,-201.52 599.16,-199.3 605,-197 644.96,-181.29 651.2,-168.38 692,-155 804.98,-117.94 836.67,-117.67 955,-106 1161.24,-85.65 1406.65,-90.71 1524.7,-94.95"/>
<polygon fill="orange" stroke="orange" points="585.51,-200.39 577.12,-206.86 587.71,-207.03 585.51,-200.39"/>
<text text-anchor="middle" x="1009.5" y="-109" font-family="Helvetica,sans-Serif" font-size="10.00"> TData</text>
</g>
<!-- Node35&#45;&gt;Node28 -->
<g id="edge16" class="edge">
<title>Node35&#45;&gt;Node28</title>
<path fill="none" stroke="orange" stroke-dasharray="5,2" d="M574.36,-109.53C607.6,-121.55 652.2,-137.29 692,-150 707.37,-154.91 723.93,-159.88 739.73,-164.48"/>
<polygon fill="orange" stroke="orange" points="575.45,-106.21 564.86,-106.09 573.07,-112.79 575.45,-106.21"/>
<text text-anchor="middle" x="648.5" y="-148" font-family="Helvetica,sans-Serif" font-size="10.00"> TProperty</text>
</g>
<!-- Node35&#45;&gt;Node40 -->
<g id="edge27" class="edge">
<title>Node35&#45;&gt;Node40</title>
<path fill="none" stroke="orange" stroke-dasharray="5,2" d="M615.27,-96.03C759.28,-104.58 1047.89,-124.17 1291,-156 1350.79,-163.83 1416.74,-175.2 1471.89,-185.5"/>
<polygon fill="orange" stroke="orange" points="615.34,-92.53 605.15,-95.44 614.93,-99.52 615.34,-92.53"/>
<text text-anchor="middle" x="1009.5" y="-133" font-family="Helvetica,sans-Serif" font-size="10.00"> TProperty</text>
</g>
<!-- Node35&#45;&gt;Node43 -->
<g id="edge33" class="edge">
<title>Node35&#45;&gt;Node43</title>
<path fill="none" stroke="orange" stroke-dasharray="5,2" d="M615.31,-77.73C617.9,-77.47 620.47,-77.22 623,-77 990.91,-44.43 1085.66,-56.76 1454,-84 1477.06,-85.71 1502.2,-88.05 1524.77,-90.33"/>
<polygon fill="orange" stroke="orange" points="614.8,-74.27 605.23,-78.82 615.55,-81.22 614.8,-74.27"/>
<text text-anchor="middle" x="1009.5" y="-62" font-family="Helvetica,sans-Serif" font-size="10.00"> TProperty</text>
</g>
<!-- Node44 -->
<g id="node25" class="node">
<title>Node44</title>
<g id="a_node25"><a xlink:href="interfacefiftyone_1_1pipeline_1_1engines_1_1fiftyone_1_1data_1_1_fifty_one_aspect_property_meta_data.html" target="_top" xlink:title="51Degrees specific meta data.">
<polygon fill="none" stroke="black" points="712.5,-1 712.5,-31 916.5,-31 916.5,-1 712.5,-1"/>
<text text-anchor="start" x="720.5" y="-19" font-family="Helvetica,sans-Serif" font-size="10.00">fiftyone.pipeline.engines.fiftyone.data.</text>
<text text-anchor="middle" x="814.5" y="-8" font-family="Helvetica,sans-Serif" font-size="10.00">FiftyOneAspectPropertyMetaData</text>
</a>
</g>
</g>
<!-- Node35&#45;&gt;Node44 -->
<g id="edge36" class="edge">
<title>Node35&#45;&gt;Node44</title>
<path fill="none" stroke="midnightblue" d="M563.99,-71.56C581.72,-63.59 603.05,-54.87 623,-49 651.5,-40.61 683.06,-34.08 712.16,-29.12"/>
<polygon fill="midnightblue" stroke="midnightblue" points="562.17,-68.54 554.54,-75.88 565.09,-74.9 562.17,-68.54"/>
</g>
<!-- Node36 -->
<g id="node17" class="node">
<title>Node36</title>
<g id="a_node17"><a xlink:title=" ">
<polygon fill="none" stroke="#bfbfbf" points="1571,-413.5 1571,-432.5 1621,-432.5 1621,-413.5 1571,-413.5"/>
<text text-anchor="middle" x="1596" y="-420.5" font-family="Helvetica,sans-Serif" font-size="10.00">Logger</text>
</a>
</g>
</g>
<!-- Node36&#45;&gt;Node23 -->
<g id="edge18" class="edge">
<title>Node36&#45;&gt;Node23</title>
<path fill="none" stroke="#9a32cd" stroke-dasharray="5,2" d="M1631.47,-419.91C1656.39,-417.13 1690.69,-412.2 1720,-404 1788.41,-384.86 1863.02,-352.66 1914.42,-328.58"/>
<polygon fill="#9a32cd" stroke="#9a32cd" points="1630.98,-416.44 1621.4,-420.97 1631.72,-423.4 1630.98,-416.44"/>
<text text-anchor="middle" x="1777.5" y="-400" font-family="Helvetica,sans-Serif" font-size="10.00"> logger</text>
</g>
<!-- Node37 -->
<g id="node18" class="node">
<title>Node37</title>
<g id="a_node18"><a xlink:title=" ">
<polygon fill="none" stroke="#bfbfbf" points="1499.5,-304 1499.5,-334 1692.5,-334 1692.5,-304 1499.5,-304"/>
<text text-anchor="start" x="1507.5" y="-322" font-family="Helvetica,sans-Serif" font-size="10.00">List&lt; fiftyone.pipeline.engines.data.</text>
<text text-anchor="middle" x="1596" y="-311" font-family="Helvetica,sans-Serif" font-size="10.00">AspectEngineDataFile &gt;</text>
</a>
</g>
</g>
<!-- Node37&#45;&gt;Node23 -->
<g id="edge19" class="edge">
<title>Node37&#45;&gt;Node23</title>
<path fill="none" stroke="#9a32cd" stroke-dasharray="5,2" d="M1702.98,-312.89C1747.25,-310.34 1799.16,-307.34 1845.93,-304.65"/>
<polygon fill="#9a32cd" stroke="#9a32cd" points="1702.56,-309.41 1692.78,-313.48 1702.96,-316.4 1702.56,-309.41"/>
<text text-anchor="middle" x="1777.5" y="-313" font-family="Helvetica,sans-Serif" font-size="10.00"> dataFiles</text>
</g>
<!-- Node38 -->
<g id="node19" class="node">
<title>Node38</title>
<g id="a_node19"><a xlink:title=" ">
<polygon fill="none" stroke="#bfbfbf" points="1169.5,-303.5 1169.5,-322.5 1203.5,-322.5 1203.5,-303.5 1169.5,-303.5"/>
<text text-anchor="middle" x="1186.5" y="-310.5" font-family="Helvetica,sans-Serif" font-size="10.00">List</text>
</a>
</g>
</g>
<!-- Node38&#45;&gt;Node37 -->
<g id="edge20" class="edge">
<title>Node38&#45;&gt;Node37</title>
<path fill="none" stroke="orange" stroke-dasharray="5,2" d="M1213.98,-313.39C1270.7,-314.22 1406.31,-316.22 1499.44,-317.59"/>
<polygon fill="orange" stroke="orange" points="1213.78,-309.89 1203.73,-313.24 1213.67,-316.89 1213.78,-309.89"/>
<text text-anchor="start" x="1309" y="-341" font-family="Helvetica,sans-Serif" font-size="10.00"> &lt; fiftyone::pipeline</text>
<text text-anchor="start" x="1309" y="-330" font-family="Helvetica,sans-Serif" font-size="10.00">::engines::data::AspectEngine</text>
<text text-anchor="middle" x="1381.5" y="-319" font-family="Helvetica,sans-Serif" font-size="10.00">DataFile &gt;</text>
</g>
<!-- Node39 -->
<g id="node20" class="node">
<title>Node39</title>
<g id="a_node20"><a xlink:title=" ">
<polygon fill="none" stroke="#bfbfbf" points="1478.5,-255 1478.5,-285 1713.5,-285 1713.5,-255 1478.5,-255"/>
<text text-anchor="start" x="1486.5" y="-273" font-family="Helvetica,sans-Serif" font-size="10.00">List&lt; fiftyone.pipeline.engines.configuration.</text>
<text text-anchor="middle" x="1596" y="-262" font-family="Helvetica,sans-Serif" font-size="10.00">DataFileConfiguration &gt;</text>
</a>
</g>
</g>
<!-- Node38&#45;&gt;Node39 -->
<g id="edge22" class="edge">
<title>Node38&#45;&gt;Node39</title>
<path fill="none" stroke="orange" stroke-dasharray="5,2" d="M1213.48,-307.8C1234.7,-303.18 1265.27,-295.67 1291,-286 1299.37,-282.85 1300.32,-279.16 1309,-277 1363.58,-263.41 1425.84,-260.47 1478.31,-261.42"/>
<polygon fill="orange" stroke="orange" points="1212.66,-304.4 1203.6,-309.89 1214.11,-311.24 1212.66,-304.4"/>
<text text-anchor="start" x="1319.5" y="-302" font-family="Helvetica,sans-Serif" font-size="10.00"> &lt; fiftyone::pipeline</text>
<text text-anchor="start" x="1319.5" y="-291" font-family="Helvetica,sans-Serif" font-size="10.00">::engines::configuration</text>
<text text-anchor="middle" x="1381.5" y="-280" font-family="Helvetica,sans-Serif" font-size="10.00">::DataFileConfiguration &gt;</text>
</g>
<!-- Node39&#45;&gt;Node23 -->
<g id="edge21" class="edge">
<title>Node39&#45;&gt;Node23</title>
<path fill="none" stroke="#9a32cd" stroke-dasharray="5,2" d="M1723.69,-278.97C1762.97,-281.75 1806.34,-284.82 1846,-287.62"/>
<polygon fill="#9a32cd" stroke="#9a32cd" points="1723.76,-275.46 1713.54,-278.25 1723.26,-282.44 1723.76,-275.46"/>
<text text-anchor="middle" x="1777.5" y="-289" font-family="Helvetica,sans-Serif" font-size="10.00"> dataFileConfigs</text>
</g>
<!-- Node40&#45;&gt;Node21 -->
<g id="edge28" class="edge">
<title>Node40&#45;&gt;Node21</title>
<path fill="none" stroke="orange" stroke-dasharray="5,2" d="M1730.44,-210C1949.27,-210 2378.2,-210 2559.69,-210"/>
<polygon fill="orange" stroke="orange" points="1730.18,-206.5 1720.18,-210 1730.18,-213.5 1730.18,-206.5"/>
<text text-anchor="middle" x="2198" y="-213" font-family="Helvetica,sans-Serif" font-size="10.00"> TEngine</text>
</g>
<!-- Node40&#45;&gt;Node23 -->
<g id="edge23" class="edge">
<title>Node40&#45;&gt;Node23</title>
<path fill="none" stroke="orange" stroke-dasharray="5,2" d="M1720.99,-238.27C1760.92,-247.38 1805.32,-257.51 1845.85,-266.75"/>
<polygon fill="orange" stroke="orange" points="1721.73,-234.86 1711.2,-236.04 1720.18,-241.68 1721.73,-234.86"/>
<text text-anchor="middle" x="1777.5" y="-262" font-family="Helvetica,sans-Serif" font-size="10.00"> TEngine</text>
</g>
<!-- Node41&#45;&gt;Node40 -->
<g id="edge24" class="edge">
<title>Node41&#45;&gt;Node40</title>
<path fill="none" stroke="midnightblue" d="M1301.3,-191.4C1303.89,-191.6 1306.46,-191.81 1309,-192 1362.33,-196.09 1421.3,-199.92 1471.77,-202.99"/>
<polygon fill="midnightblue" stroke="midnightblue" points="1301.46,-187.9 1291.21,-190.58 1300.9,-194.88 1301.46,-187.9"/>
</g>
<!-- Node41&#45;&gt;Node43 -->
<g id="edge31" class="edge">
<title>Node41&#45;&gt;Node43</title>
<path fill="none" stroke="midnightblue" d="M1235.59,-162.55C1257.68,-154.65 1284.39,-145.91 1309,-140 1381.71,-122.54 1466.67,-111.18 1524.98,-104.73"/>
<polygon fill="midnightblue" stroke="midnightblue" points="1234.31,-159.29 1226.1,-165.99 1236.7,-165.87 1234.31,-159.29"/>
</g>
<!-- Node42&#45;&gt;Node20 -->
<g id="edge29" class="edge">
<title>Node42&#45;&gt;Node20</title>
<path fill="none" stroke="orange" stroke-dasharray="5,2" d="M2134.38,-154.25C2307.15,-156.77 2586.8,-160.86 2766.61,-163.49"/>
<polygon fill="orange" stroke="orange" points="2134.23,-150.75 2124.18,-154.1 2134.13,-157.75 2134.23,-150.75"/>
<text text-anchor="middle" x="2520.5" y="-164" font-family="Helvetica,sans-Serif" font-size="10.00"> TEngine</text>
</g>
<!-- Node43&#45;&gt;Node42 -->
<g id="edge30" class="edge">
<title>Node43&#45;&gt;Node42</title>
<path fill="none" stroke="midnightblue" d="M1677.53,-109.4C1723.1,-115.85 1781.45,-124.11 1834.61,-131.63"/>
<polygon fill="midnightblue" stroke="midnightblue" points="1677.81,-105.9 1667.42,-107.97 1676.83,-112.83 1677.81,-105.9"/>
</g>
<!-- Node44&#45;&gt;Node42 -->
<g id="edge35" class="edge">
<title>Node44&#45;&gt;Node42</title>
<path fill="none" stroke="orange" stroke-dasharray="5,2" d="M926.75,-11.59C1098.64,-7.03 1438.39,-6.99 1720,-62 1790.43,-75.76 1867.71,-104.6 1919.25,-125.94"/>
<polygon fill="orange" stroke="orange" points="926.58,-8.1 916.68,-11.87 926.77,-15.09 926.58,-8.1"/>
<text text-anchor="middle" x="1381.5" y="-28" font-family="Helvetica,sans-Serif" font-size="10.00"> TProperty</text>
</g>
<!-- Node45 -->
<g id="node26" class="node">
<title>Node45</title>
<g id="a_node26"><a xlink:title=" ">
<polygon fill="none" stroke="#bfbfbf" points="490.5,-0.5 490.5,-19.5 555.5,-19.5 555.5,-0.5 490.5,-0.5"/>
<text text-anchor="middle" x="523" y="-7.5" font-family="Helvetica,sans-Serif" font-size="10.00">Closeable</text>
</a>
</g>
</g>
<!-- Node45&#45;&gt;Node44 -->
<g id="edge37" class="edge">
<title>Node45&#45;&gt;Node44</title>
<path fill="none" stroke="midnightblue" d="M565.76,-10.87C603.96,-11.66 662.02,-12.86 712.33,-13.9"/>
<polygon fill="midnightblue" stroke="midnightblue" points="565.6,-7.36 555.53,-10.65 565.46,-14.36 565.6,-7.36"/>
</g>
</g>
</svg>
