<?xml version="1.0" encoding="UTF-8" standalone="no"?>
<!DOCTYPE svg PUBLIC "-//W3C//DTD SVG 1.1//EN"
 "http://www.w3.org/Graphics/SVG/1.1/DTD/svg11.dtd">
<!-- Generated by graphviz version 2.43.0 (0)
 -->
<!-- Title: fiftyone.pipeline.engines.flowelements.SingleFileAspectEngineBuilderBase&lt; TBuilder extends OnPremiseAspectEngineBuilderBase&lt; TBuilder, TEngine, TEngine extends OnPremiseAspectEngine &gt; Pages: 1 -->
<svg width="3059pt" height="179pt"
 viewBox="0.00 0.00 3059.00 178.65" xmlns="http://www.w3.org/2000/svg" xmlns:xlink="http://www.w3.org/1999/xlink">
<g id="graph0" class="graph" transform="scale(1 1) rotate(0) translate(4 174.65)">
<title>fiftyone.pipeline.engines.flowelements.SingleFileAspectEngineBuilderBase&lt; TBuilder extends OnPremiseAspectEngineBuilderBase&lt; TBuilder, TEngine, TEngine extends OnPremiseAspectEngine &gt;</title>
<!-- Node0 -->
<g id="node1" class="node">
<title>Node0</title>
<g id="a_node1"><a xlink:title="Abstract base class that exposes the common options that all on&#45;premise engine builders using a singl...">
<polygon fill="#bfbfbf" stroke="black" points="2427,-67.65 2427,-130.65 2694,-130.65 2694,-67.65 2427,-67.65"/>
<text text-anchor="start" x="2435" y="-118.65" font-family="Helvetica,sans-Serif" font-size="10.00">fiftyone.pipeline.engines.flowelements.</text>
<text text-anchor="start" x="2435" y="-107.65" font-family="Helvetica,sans-Serif" font-size="10.00">SingleFileAspectEngineBuilderBase</text>
<text text-anchor="start" x="2435" y="-96.65" font-family="Helvetica,sans-Serif" font-size="10.00">&lt; TBuilder extends OnPremiseAspectEngineBuilder</text>
<text text-anchor="start" x="2435" y="-85.65" font-family="Helvetica,sans-Serif" font-size="10.00">Base&lt; TBuilder, TEngine, TEngine extends</text>
<text text-anchor="middle" x="2560.5" y="-74.65" font-family="Helvetica,sans-Serif" font-size="10.00"> OnPremiseAspectEngine &gt;</text>
</a>
</g>
</g>
<!-- Node15 -->
<g id="node16" class="node">
<title>Node15</title>
<g id="a_node16"><a xlink:href="classfiftyone_1_1pipeline_1_1engines_1_1fiftyone_1_1flowelements_1_1_fifty_one_on_premise_aspect_engine_builder_base.html" target="_top" xlink:title="Abstract base class that exposes the common options that all 51Degrees on&#45;premise engine builders usi...">
<polygon fill="none" stroke="black" points="2848.5,-103.65 2848.5,-166.65 3044.5,-166.65 3044.5,-103.65 2848.5,-103.65"/>
<text text-anchor="start" x="2856.5" y="-154.65" font-family="Helvetica,sans-Serif" font-size="10.00">fiftyone::pipeline</text>
<text text-anchor="start" x="2856.5" y="-143.65" font-family="Helvetica,sans-Serif" font-size="10.00">::engines::fiftyone</text>
<text text-anchor="start" x="2856.5" y="-132.65" font-family="Helvetica,sans-Serif" font-size="10.00">::flowelements::FiftyOneOnPremise</text>
<text text-anchor="start" x="2856.5" y="-121.65" font-family="Helvetica,sans-Serif" font-size="10.00">AspectEngineBuilderBase&lt; TBuilder,</text>
<text text-anchor="middle" x="2946.5" y="-110.65" font-family="Helvetica,sans-Serif" font-size="10.00"> TEngine &gt;</text>
</a>
</g>
</g>
<!-- Node0&#45;&gt;Node15 -->
<g id="edge21" class="edge">
<title>Node0&#45;&gt;Node15</title>
<path fill="none" stroke="midnightblue" d="M2704.35,-112.54C2752.3,-117.04 2804.63,-121.95 2848.25,-126.04"/>
<polygon fill="midnightblue" stroke="midnightblue" points="2704.47,-109.04 2694.19,-111.59 2703.82,-116.01 2704.47,-109.04"/>
</g>
<!-- Node16 -->
<g id="node17" class="node">
<title>Node16</title>
<g id="a_node17"><a xlink:href="classfiftyone_1_1pipeline_1_1engines_1_1flowelements_1_1_single_file_aspect_engine_builder_base.html" target="_top" xlink:title=" ">
<polygon fill="none" stroke="black" points="2842,-43.65 2842,-84.65 3051,-84.65 3051,-43.65 2842,-43.65"/>
<text text-anchor="start" x="2850" y="-72.65" font-family="Helvetica,sans-Serif" font-size="10.00">fiftyone.pipeline.engines.flowelements.</text>
<text text-anchor="start" x="2850" y="-61.65" font-family="Helvetica,sans-Serif" font-size="10.00">SingleFileAspectEngineBuilderBase</text>
<text text-anchor="middle" x="2946.5" y="-50.65" font-family="Helvetica,sans-Serif" font-size="10.00">&lt; TBuilder, TEngine &gt;</text>
</a>
</g>
</g>
<!-- Node0&#45;&gt;Node16 -->
<g id="edge22" class="edge">
<title>Node0&#45;&gt;Node16</title>
<path fill="none" stroke="orange" stroke-dasharray="5,2" d="M2704.18,-86.15C2749.86,-81.98 2799.54,-77.46 2841.89,-73.6"/>
<polygon fill="orange" stroke="orange" points="2703.83,-82.66 2694.19,-87.06 2704.47,-89.64 2703.83,-82.66"/>
<text text-anchor="middle" x="2768" y="-88.15" font-family="Helvetica,sans-Serif" font-size="10.00"> &lt; TBuilder, TEngine &gt;</text>
</g>
<!-- Node1 -->
<g id="node2" class="node">
<title>Node1</title>
<g id="a_node2"><a xlink:href="classfiftyone_1_1pipeline_1_1engines_1_1flowelements_1_1_on_premise_aspect_engine_builder_base.html" target="_top" xlink:title=" ">
<polygon fill="none" stroke="black" points="2181,-51.65 2181,-92.65 2390,-92.65 2390,-51.65 2181,-51.65"/>
<text text-anchor="start" x="2189" y="-80.65" font-family="Helvetica,sans-Serif" font-size="10.00">fiftyone.pipeline.engines.flowelements.</text>
<text text-anchor="start" x="2189" y="-69.65" font-family="Helvetica,sans-Serif" font-size="10.00">OnPremiseAspectEngineBuilderBase</text>
<text text-anchor="middle" x="2285.5" y="-58.65" font-family="Helvetica,sans-Serif" font-size="10.00">&lt; TBuilder, TEngine &gt;</text>
</a>
</g>
</g>
<!-- Node1&#45;&gt;Node0 -->
<g id="edge1" class="edge">
<title>Node1&#45;&gt;Node0</title>
<path fill="none" stroke="midnightblue" d="M2400.07,-83.38C2408.96,-84.26 2417.99,-85.16 2426.99,-86.05"/>
<polygon fill="midnightblue" stroke="midnightblue" points="2400.39,-79.9 2390.1,-82.4 2399.71,-86.87 2400.39,-79.9"/>
</g>
<!-- Node2 -->
<g id="node3" class="node">
<title>Node2</title>
<g id="a_node3"><a xlink:href="classfiftyone_1_1pipeline_1_1engines_1_1flowelements_1_1_on_premise_aspect_engine_builder_base.html" target="_top" xlink:title="Abstract base class that exposes the common options that all 51Degrees on&#45;premise engine builders sho...">
<polygon fill="none" stroke="black" points="1766,-32.65 1766,-95.65 2033,-95.65 2033,-32.65 1766,-32.65"/>
<text text-anchor="start" x="1774" y="-83.65" font-family="Helvetica,sans-Serif" font-size="10.00">fiftyone.pipeline.engines.flowelements.</text>
<text text-anchor="start" x="1774" y="-72.65" font-family="Helvetica,sans-Serif" font-size="10.00">OnPremiseAspectEngineBuilderBase</text>
<text text-anchor="start" x="1774" y="-61.65" font-family="Helvetica,sans-Serif" font-size="10.00">&lt; TBuilder extends OnPremiseAspectEngineBuilder</text>
<text text-anchor="start" x="1774" y="-50.65" font-family="Helvetica,sans-Serif" font-size="10.00">Base&lt; TBuilder, TEngine, TEngine extends</text>
<text text-anchor="middle" x="1899.5" y="-39.65" font-family="Helvetica,sans-Serif" font-size="10.00"> OnPremiseAspectEngine &gt;</text>
</a>
</g>
</g>
<!-- Node2&#45;&gt;Node1 -->
<g id="edge2" class="edge">
<title>Node2&#45;&gt;Node1</title>
<path fill="none" stroke="orange" stroke-dasharray="5,2" d="M2043.46,-67.13C2089.07,-68.08 2138.63,-69.11 2180.89,-69.99"/>
<polygon fill="orange" stroke="orange" points="2043.26,-63.63 2033.19,-66.92 2043.11,-70.62 2043.26,-63.63"/>
<text text-anchor="middle" x="2107" y="-73.15" font-family="Helvetica,sans-Serif" font-size="10.00"> &lt; TBuilder, TEngine &gt;</text>
</g>
<!-- Node3 -->
<g id="node4" class="node">
<title>Node3</title>
<g id="a_node4"><a xlink:href="classfiftyone_1_1pipeline_1_1engines_1_1flowelements_1_1_aspect_engine_builder_base.html" target="_top" xlink:title=" ">
<polygon fill="none" stroke="black" points="1458.5,-37.65 1458.5,-78.65 1667.5,-78.65 1667.5,-37.65 1458.5,-37.65"/>
<text text-anchor="start" x="1466.5" y="-66.65" font-family="Helvetica,sans-Serif" font-size="10.00">fiftyone.pipeline.engines.flowelements.</text>
<text text-anchor="start" x="1466.5" y="-55.65" font-family="Helvetica,sans-Serif" font-size="10.00">AspectEngineBuilderBase&lt; TBuilder,</text>
<text text-anchor="middle" x="1563" y="-44.65" font-family="Helvetica,sans-Serif" font-size="10.00"> TEngine &gt;</text>
</a>
</g>
</g>
<!-- Node3&#45;&gt;Node2 -->
<g id="edge3" class="edge">
<title>Node3&#45;&gt;Node2</title>
<path fill="none" stroke="midnightblue" d="M1677.86,-60.19C1706.16,-60.7 1736.74,-61.25 1765.86,-61.77"/>
<polygon fill="midnightblue" stroke="midnightblue" points="1677.61,-56.69 1667.55,-60.01 1677.48,-63.69 1677.61,-56.69"/>
</g>
<!-- Node4 -->
<g id="node5" class="node">
<title>Node4</title>
<g id="a_node5"><a xlink:href="classfiftyone_1_1pipeline_1_1engines_1_1flowelements_1_1_aspect_engine_builder_base.html" target="_top" xlink:title="Abstract base class that exposes the common options that all 51Degrees engine builders should make us...">
<polygon fill="none" stroke="black" points="1082,-26.65 1082,-89.65 1291,-89.65 1291,-26.65 1082,-26.65"/>
<text text-anchor="start" x="1090" y="-77.65" font-family="Helvetica,sans-Serif" font-size="10.00">fiftyone.pipeline.engines.flowelements.</text>
<text text-anchor="start" x="1090" y="-66.65" font-family="Helvetica,sans-Serif" font-size="10.00">AspectEngineBuilderBase&lt; TBuilder</text>
<text text-anchor="start" x="1090" y="-55.65" font-family="Helvetica,sans-Serif" font-size="10.00"> extends AspectEngineBuilderBase</text>
<text text-anchor="start" x="1090" y="-44.65" font-family="Helvetica,sans-Serif" font-size="10.00">&lt; TBuilder, TEngine, TEngine extends</text>
<text text-anchor="middle" x="1186.5" y="-33.65" font-family="Helvetica,sans-Serif" font-size="10.00"> AspectEngine &gt;</text>
</a>
</g>
</g>
<!-- Node4&#45;&gt;Node3 -->
<g id="edge4" class="edge">
<title>Node4&#45;&gt;Node3</title>
<path fill="none" stroke="orange" stroke-dasharray="5,2" d="M1301.52,-58.15C1351.44,-58.15 1409.61,-58.15 1458.3,-58.15"/>
<polygon fill="orange" stroke="orange" points="1301.32,-54.65 1291.32,-58.15 1301.32,-61.65 1301.32,-54.65"/>
<text text-anchor="middle" x="1365" y="-61.15" font-family="Helvetica,sans-Serif" font-size="10.00"> &lt; TBuilder, TEngine &gt;</text>
</g>
<!-- Node5 -->
<g id="node6" class="node">
<title>Node5</title>
<g id="a_node6"><a xlink:href="interfacefiftyone_1_1pipeline_1_1engines_1_1flowelements_1_1_aspect_engine.html" target="_top" xlink:title="AspectEngines are a subset of FlowElements.">
<polygon fill="none" stroke="black" points="692,-74.65 692,-115.65 937,-115.65 937,-74.65 692,-74.65"/>
<text text-anchor="start" x="700" y="-103.65" font-family="Helvetica,sans-Serif" font-size="10.00">fiftyone.pipeline.engines.flowelements.</text>
<text text-anchor="start" x="700" y="-92.65" font-family="Helvetica,sans-Serif" font-size="10.00">AspectEngine&lt; TData extends AspectData,</text>
<text text-anchor="middle" x="814.5" y="-81.65" font-family="Helvetica,sans-Serif" font-size="10.00"> TProperty extends AspectPropertyMetaData &gt;</text>
</a>
</g>
</g>
<!-- Node5&#45;&gt;Node4 -->
<g id="edge5" class="edge">
<title>Node5&#45;&gt;Node4</title>
<path fill="none" stroke="orange" stroke-dasharray="5,2" d="M947.39,-81.96C991.53,-77.55 1040.07,-72.7 1081.74,-68.53"/>
<polygon fill="orange" stroke="orange" points="946.77,-78.51 937.16,-82.99 947.46,-85.47 946.77,-78.51"/>
<text text-anchor="middle" x="1009.5" y="-84.15" font-family="Helvetica,sans-Serif" font-size="10.00"> TEngine</text>
</g>
<!-- Node14 -->
<g id="node15" class="node">
<title>Node14</title>
<g id="a_node15"><a xlink:href="interfacefiftyone_1_1pipeline_1_1engines_1_1flowelements_1_1_aspect_engine.html" target="_top" xlink:title=" ">
<polygon fill="none" stroke="black" points="1082,-109.15 1082,-139.15 1291,-139.15 1291,-109.15 1082,-109.15"/>
<text text-anchor="start" x="1090" y="-127.15" font-family="Helvetica,sans-Serif" font-size="10.00">fiftyone.pipeline.engines.flowelements.</text>
<text text-anchor="middle" x="1186.5" y="-116.15" font-family="Helvetica,sans-Serif" font-size="10.00">AspectEngine&lt; TData, TProperty &gt;</text>
</a>
</g>
</g>
<!-- Node5&#45;&gt;Node14 -->
<g id="edge17" class="edge">
<title>Node5&#45;&gt;Node14</title>
<path fill="none" stroke="orange" stroke-dasharray="5,2" d="M947.39,-105.49C991.53,-108.95 1040.07,-112.75 1081.74,-116.02"/>
<polygon fill="orange" stroke="orange" points="947.41,-101.98 937.16,-104.69 946.86,-108.96 947.41,-101.98"/>
<text text-anchor="middle" x="1009.5" y="-117.15" font-family="Helvetica,sans-Serif" font-size="10.00"> &lt; TData, TProperty &gt;</text>
</g>
<!-- Node6 -->
<g id="node7" class="node">
<title>Node6</title>
<g id="a_node7"><a xlink:href="interfacefiftyone_1_1pipeline_1_1core_1_1flowelements_1_1_flow_element.html" target="_top" xlink:title="A component that processes a FlowData (by examining its evidence, or by examining data processed by o...">
<polygon fill="none" stroke="black" points="458,-69.15 458,-121.15 588,-121.15 588,-69.15 458,-69.15"/>
<text text-anchor="start" x="466" y="-109.15" font-family="Helvetica,sans-Serif" font-size="10.00">fiftyone::pipeline</text>
<text text-anchor="start" x="466" y="-98.15" font-family="Helvetica,sans-Serif" font-size="10.00">::core::flowelements</text>
<text text-anchor="start" x="466" y="-87.15" font-family="Helvetica,sans-Serif" font-size="10.00">::FlowElement&lt; TData,</text>
<text text-anchor="middle" x="523" y="-76.15" font-family="Helvetica,sans-Serif" font-size="10.00"> TProperty &gt;</text>
</a>
</g>
</g>
<!-- Node6&#45;&gt;Node5 -->
<g id="edge6" class="edge">
<title>Node6&#45;&gt;Node5</title>
<path fill="none" stroke="midnightblue" d="M598.49,-95.15C626.91,-95.15 660.09,-95.15 691.77,-95.15"/>
<polygon fill="midnightblue" stroke="midnightblue" points="598.25,-91.65 588.25,-95.15 598.25,-98.65 598.25,-91.65"/>
</g>
<!-- Node7 -->
<g id="node8" class="node">
<title>Node7</title>
<g id="a_node8"><a xlink:title=" ">
<polygon fill="none" stroke="#bfbfbf" points="237,-85.65 237,-104.65 324,-104.65 324,-85.65 237,-85.65"/>
<text text-anchor="middle" x="280.5" y="-92.65" font-family="Helvetica,sans-Serif" font-size="10.00">AutoCloseable</text>
</a>
</g>
</g>
<!-- Node7&#45;&gt;Node6 -->
<g id="edge7" class="edge">
<title>Node7&#45;&gt;Node6</title>
<path fill="none" stroke="midnightblue" d="M334.62,-95.15C371,-95.15 419.44,-95.15 457.96,-95.15"/>
<polygon fill="midnightblue" stroke="midnightblue" points="334.22,-91.65 324.22,-95.15 334.22,-98.65 334.22,-91.65"/>
</g>
<!-- Node8 -->
<g id="node9" class="node">
<title>Node8</title>
<g id="a_node9"><a xlink:href="interfacefiftyone_1_1pipeline_1_1core_1_1data_1_1_element_data.html" target="_top" xlink:title="Represents property values that have be determined by a specific FlowElement based on the supplied ev...">
<polygon fill="none" stroke="black" points="207,-29.15 207,-59.15 354,-59.15 354,-29.15 207,-29.15"/>
<text text-anchor="start" x="215" y="-47.15" font-family="Helvetica,sans-Serif" font-size="10.00">fiftyone.pipeline.core.data.</text>
<text text-anchor="middle" x="280.5" y="-36.15" font-family="Helvetica,sans-Serif" font-size="10.00">ElementData</text>
</a>
</g>
</g>
<!-- Node8&#45;&gt;Node6 -->
<g id="edge8" class="edge">
<title>Node8&#45;&gt;Node6</title>
<path fill="none" stroke="orange" stroke-dasharray="5,2" d="M362.3,-61.29C393.41,-67.88 428.47,-75.32 457.8,-81.54"/>
<polygon fill="orange" stroke="orange" points="362.87,-57.83 352.36,-59.18 361.41,-64.68 362.87,-57.83"/>
<text text-anchor="middle" x="397.5" y="-76.15" font-family="Helvetica,sans-Serif" font-size="10.00"> TData</text>
</g>
<!-- Node11 -->
<g id="node12" class="node">
<title>Node11</title>
<g id="a_node12"><a xlink:href="interfacefiftyone_1_1pipeline_1_1engines_1_1data_1_1_aspect_data.html" target="_top" xlink:title="Represents a specialized ElementData instance that is generated by an AspectEngine.">
<polygon fill="none" stroke="black" points="441,-20.15 441,-50.15 605,-50.15 605,-20.15 441,-20.15"/>
<text text-anchor="start" x="449" y="-38.15" font-family="Helvetica,sans-Serif" font-size="10.00">fiftyone.pipeline.engines.data.</text>
<text text-anchor="middle" x="523" y="-27.15" font-family="Helvetica,sans-Serif" font-size="10.00">AspectData</text>
</a>
</g>
</g>
<!-- Node8&#45;&gt;Node11 -->
<g id="edge12" class="edge">
<title>Node8&#45;&gt;Node11</title>
<path fill="none" stroke="midnightblue" d="M364.36,-41.05C389.03,-40.13 416.03,-39.12 440.61,-38.2"/>
<polygon fill="midnightblue" stroke="midnightblue" points="364.17,-37.56 354.31,-41.43 364.43,-44.55 364.17,-37.56"/>
</g>
<!-- Node9 -->
<g id="node10" class="node">
<title>Node9</title>
<g id="a_node10"><a xlink:href="interfacefiftyone_1_1pipeline_1_1core_1_1data_1_1_data.html" target="_top" xlink:title="Represents a collection of property values.">
<polygon fill="none" stroke="black" points="0,-34.65 0,-53.65 170,-53.65 170,-34.65 0,-34.65"/>
<text text-anchor="middle" x="85" y="-41.65" font-family="Helvetica,sans-Serif" font-size="10.00">fiftyone.pipeline.core.data.Data</text>
</a>
</g>
</g>
<!-- Node9&#45;&gt;Node8 -->
<g id="edge9" class="edge">
<title>Node9&#45;&gt;Node8</title>
<path fill="none" stroke="midnightblue" d="M180.11,-44.15C189.07,-44.15 198.06,-44.15 206.77,-44.15"/>
<polygon fill="midnightblue" stroke="midnightblue" points="180.03,-40.65 170.03,-44.15 180.03,-47.65 180.03,-40.65"/>
</g>
<!-- Node10 -->
<g id="node11" class="node">
<title>Node10</title>
<g id="a_node11"><a xlink:href="interfacefiftyone_1_1pipeline_1_1core_1_1data_1_1_element_property_meta_data.html" target="_top" xlink:title="Defines details of a property that can be returned by a FlowElement.">
<polygon fill="none" stroke="black" points="207,-132.15 207,-162.15 354,-162.15 354,-132.15 207,-132.15"/>
<text text-anchor="start" x="215" y="-150.15" font-family="Helvetica,sans-Serif" font-size="10.00">fiftyone.pipeline.core.data.</text>
<text text-anchor="middle" x="280.5" y="-139.15" font-family="Helvetica,sans-Serif" font-size="10.00">ElementPropertyMetaData</text>
</a>
</g>
</g>
<!-- Node10&#45;&gt;Node6 -->
<g id="edge10" class="edge">
<title>Node10&#45;&gt;Node6</title>
<path fill="none" stroke="orange" stroke-dasharray="5,2" d="M361.11,-129.94C392.56,-123.14 428.21,-115.43 457.94,-109"/>
<polygon fill="orange" stroke="orange" points="360.1,-126.58 351.06,-132.11 361.58,-133.42 360.1,-126.58"/>
<text text-anchor="middle" x="397.5" y="-130.15" font-family="Helvetica,sans-Serif" font-size="10.00"> TProperty</text>
</g>
<!-- Node12 -->
<g id="node13" class="node">
<title>Node12</title>
<g id="a_node13"><a xlink:href="interfacefiftyone_1_1pipeline_1_1engines_1_1data_1_1_aspect_property_meta_data.html" target="_top" xlink:title="Holds details about a property that can be returned by an AspectEngine.">
<polygon fill="none" stroke="black" points="441,-140.15 441,-170.15 605,-170.15 605,-140.15 441,-140.15"/>
<text text-anchor="start" x="449" y="-158.15" font-family="Helvetica,sans-Serif" font-size="10.00">fiftyone.pipeline.engines.data.</text>
<text text-anchor="middle" x="523" y="-147.15" font-family="Helvetica,sans-Serif" font-size="10.00">AspectPropertyMetaData</text>
</a>
</g>
</g>
<!-- Node10&#45;&gt;Node12 -->
<g id="edge14" class="edge">
<title>Node10&#45;&gt;Node12</title>
<path fill="none" stroke="midnightblue" d="M364.36,-149.91C389.03,-150.73 416.03,-151.63 440.61,-152.44"/>
<polygon fill="midnightblue" stroke="midnightblue" points="364.42,-146.41 354.31,-149.57 364.19,-153.4 364.42,-146.41"/>
</g>
<!-- Node11&#45;&gt;Node5 -->
<g id="edge11" class="edge">
<title>Node11&#45;&gt;Node5</title>
<path fill="none" stroke="orange" stroke-dasharray="5,2" d="M606.48,-52.25C640.14,-59.22 679.35,-67.35 714.53,-74.64"/>
<polygon fill="orange" stroke="orange" points="607.18,-48.82 596.68,-50.22 605.76,-55.67 607.18,-48.82"/>
<text text-anchor="middle" x="648.5" y="-68.15" font-family="Helvetica,sans-Serif" font-size="10.00"> TData</text>
</g>
<!-- Node13 -->
<g id="node14" class="node">
<title>Node13</title>
<g id="a_node14"><a xlink:href="interfacefiftyone_1_1pipeline_1_1engines_1_1flowelements_1_1_on_premise_aspect_engine.html" target="_top" xlink:title="Aspect engine interface which processes data internally using a data file and populates the results.">
<polygon fill="none" stroke="black" points="1439,-98.15 1439,-150.15 1687,-150.15 1687,-98.15 1439,-98.15"/>
<text text-anchor="start" x="1447" y="-138.15" font-family="Helvetica,sans-Serif" font-size="10.00">fiftyone.pipeline.engines.flowelements.</text>
<text text-anchor="start" x="1447" y="-127.15" font-family="Helvetica,sans-Serif" font-size="10.00">OnPremiseAspectEngine&lt; TData extends</text>
<text text-anchor="start" x="1447" y="-116.15" font-family="Helvetica,sans-Serif" font-size="10.00"> AspectData, TProperty extends AspectProperty</text>
<text text-anchor="middle" x="1563" y="-105.15" font-family="Helvetica,sans-Serif" font-size="10.00">MetaData &gt;</text>
</a>
</g>
</g>
<!-- Node11&#45;&gt;Node13 -->
<g id="edge18" class="edge">
<title>Node11&#45;&gt;Node13</title>
<path fill="none" stroke="orange" stroke-dasharray="5,2" d="M615.24,-23.54C759.51,-7.29 1048.81,16.64 1291,-17.15 1350.5,-25.45 1374.31,-16.35 1421,-54.15 1434.29,-64.91 1425.75,-77.34 1439,-88.15 1443.48,-91.81 1448.32,-95.09 1453.4,-98.05"/>
<polygon fill="orange" stroke="orange" points="614.64,-20.08 605.11,-24.69 615.44,-27.04 614.64,-20.08"/>
<text text-anchor="middle" x="1009.5" y="-4.15" font-family="Helvetica,sans-Serif" font-size="10.00"> TData</text>
</g>
<!-- Node12&#45;&gt;Node5 -->
<g id="edge13" class="edge">
<title>Node12&#45;&gt;Node5</title>
<path fill="none" stroke="orange" stroke-dasharray="5,2" d="M606.48,-138.06C640.14,-131.08 679.35,-122.96 714.53,-115.66"/>
<polygon fill="orange" stroke="orange" points="605.76,-134.63 596.68,-140.09 607.18,-141.49 605.76,-134.63"/>
<text text-anchor="middle" x="648.5" y="-136.15" font-family="Helvetica,sans-Serif" font-size="10.00"> TProperty</text>
</g>
<!-- Node12&#45;&gt;Node13 -->
<g id="edge19" class="edge">
<title>Node12&#45;&gt;Node13</title>
<path fill="none" stroke="orange" stroke-dasharray="5,2" d="M615.33,-156.7C759.13,-158.62 1047.1,-160.41 1291,-149.15 1339.38,-146.92 1392.46,-142.47 1438.72,-137.93"/>
<polygon fill="orange" stroke="orange" points="615.27,-153.2 605.23,-156.56 615.18,-160.19 615.27,-153.2"/>
<text text-anchor="middle" x="1009.5" y="-160.15" font-family="Helvetica,sans-Serif" font-size="10.00"> TProperty</text>
</g>
<!-- Node13&#45;&gt;Node0 -->
<g id="edge20" class="edge">
<title>Node13&#45;&gt;Node0</title>
<path fill="none" stroke="orange" stroke-dasharray="5,2" d="M1697.15,-120.81C1887.78,-116.02 2236.44,-107.27 2426.82,-102.48"/>
<polygon fill="orange" stroke="orange" points="1696.98,-117.31 1687.07,-121.06 1697.15,-124.31 1696.98,-117.31"/>
<text text-anchor="middle" x="2107" y="-115.15" font-family="Helvetica,sans-Serif" font-size="10.00"> TEngine</text>
</g>
<!-- Node13&#45;&gt;Node2 -->
<g id="edge15" class="edge">
<title>Node13&#45;&gt;Node2</title>
<path fill="none" stroke="orange" stroke-dasharray="5,2" d="M1697.1,-100.28C1719.71,-96.22 1743.19,-92.01 1765.79,-87.96"/>
<polygon fill="orange" stroke="orange" points="1696.36,-96.86 1687.13,-102.07 1697.59,-103.75 1696.36,-96.86"/>
<text text-anchor="middle" x="1726.5" y="-101.15" font-family="Helvetica,sans-Serif" font-size="10.00"> TEngine</text>
</g>
<!-- Node14&#45;&gt;Node13 -->
<g id="edge16" class="edge">
<title>Node14&#45;&gt;Node13</title>
<path fill="none" stroke="midnightblue" d="M1301.35,-124.15C1344.77,-124.15 1394.44,-124.15 1438.7,-124.15"/>
<polygon fill="midnightblue" stroke="midnightblue" points="1301.32,-120.65 1291.32,-124.15 1301.32,-127.65 1301.32,-120.65"/>
</g>
</g>
</svg>
