<?xml version="1.0" encoding="UTF-8" standalone="no"?>
<!DOCTYPE svg PUBLIC "-//W3C//DTD SVG 1.1//EN"
 "http://www.w3.org/Graphics/SVG/1.1/DTD/svg11.dtd">
<!-- Generated by graphviz version 2.43.0 (0)
 -->
<!-- Title: fiftyone.pipeline.web.mvc.services.ClientsidePropertyService.Default Pages: 1 -->
<svg width="832pt" height="90pt"
 viewBox="0.00 0.00 832.00 90.00" xmlns="http://www.w3.org/2000/svg" xmlns:xlink="http://www.w3.org/1999/xlink">
<g id="graph0" class="graph" transform="scale(1 1) rotate(0) translate(4 86)">
<title>fiftyone.pipeline.web.mvc.services.ClientsidePropertyService.Default</title>
<!-- Node4 -->
<g id="node1" class="node">
<title>Node4</title>
<g id="a_node1"><a xlink:title=" ">
<polygon fill="#bfbfbf" stroke="black" points="635,-26.5 635,-56.5 824,-56.5 824,-26.5 635,-26.5"/>
<text text-anchor="start" x="643" y="-44.5" font-family="Helvetica,sans-Serif" font-size="10.00">fiftyone.pipeline.web.mvc.services.</text>
<text text-anchor="middle" x="729.5" y="-33.5" font-family="Helvetica,sans-Serif" font-size="10.00">ClientsidePropertyService.Default</text>
</a>
</g>
</g>
<!-- Node5 -->
<g id="node2" class="node">
<title>Node5</title>
<g id="a_node2"><a xlink:href="classfiftyone_1_1pipeline_1_1web_1_1services_1_1_clientside_property_service_core_1_1_default.html" target="_top" xlink:title="Default implementation of the ClientsidePropertyServiceCore interface.">
<polygon fill="none" stroke="black" points="394,-2.5 394,-32.5 598,-32.5 598,-2.5 394,-2.5"/>
<text text-anchor="start" x="402" y="-20.5" font-family="Helvetica,sans-Serif" font-size="10.00">fiftyone.pipeline.web.services.</text>
<text text-anchor="middle" x="496" y="-9.5" font-family="Helvetica,sans-Serif" font-size="10.00">ClientsidePropertyServiceCore.Default</text>
</a>
</g>
</g>
<!-- Node5&#45;&gt;Node4 -->
<g id="edge1" class="edge">
<title>Node5&#45;&gt;Node4</title>
<path fill="none" stroke="midnightblue" d="M608.22,-29.03C617.12,-29.95 626.05,-30.88 634.81,-31.79"/>
<polygon fill="midnightblue" stroke="midnightblue" points="608.51,-25.54 598.2,-27.99 607.79,-32.5 608.51,-25.54"/>
</g>
<!-- Node6 -->
<g id="node3" class="node">
<title>Node6</title>
<g id="a_node3"><a xlink:href="interfacefiftyone_1_1pipeline_1_1web_1_1services_1_1_clientside_property_service_core.html" target="_top" xlink:title="Class that provides functionality for the &#39;Client side overrides&#39; feature.">
<polygon fill="none" stroke="black" points="137,-50.5 137,-80.5 302,-80.5 302,-50.5 137,-50.5"/>
<text text-anchor="start" x="145" y="-68.5" font-family="Helvetica,sans-Serif" font-size="10.00">fiftyone.pipeline.web.services.</text>
<text text-anchor="middle" x="219.5" y="-57.5" font-family="Helvetica,sans-Serif" font-size="10.00">ClientsidePropertyServiceCore</text>
</a>
</g>
</g>
<!-- Node6&#45;&gt;Node5 -->
<g id="edge2" class="edge">
<title>Node6&#45;&gt;Node5</title>
<path fill="none" stroke="midnightblue" d="M312.12,-49.48C343.36,-44.02 378.15,-37.93 408.93,-32.55"/>
<polygon fill="midnightblue" stroke="midnightblue" points="311.36,-46.06 302.12,-51.23 312.57,-52.95 311.36,-46.06"/>
</g>
<!-- Node9 -->
<g id="node6" class="node">
<title>Node9</title>
<g id="a_node6"><a xlink:href="interfacefiftyone_1_1pipeline_1_1web_1_1mvc_1_1services_1_1_clientside_property_service.html" target="_top" xlink:title="Spring framework service for the ClientsidePropertyServiceCore.">
<polygon fill="none" stroke="black" points="401.5,-51.5 401.5,-81.5 590.5,-81.5 590.5,-51.5 401.5,-51.5"/>
<text text-anchor="start" x="409.5" y="-69.5" font-family="Helvetica,sans-Serif" font-size="10.00">fiftyone.pipeline.web.mvc.services.</text>
<text text-anchor="middle" x="496" y="-58.5" font-family="Helvetica,sans-Serif" font-size="10.00">ClientsidePropertyService</text>
</a>
</g>
</g>
<!-- Node6&#45;&gt;Node9 -->
<g id="edge6" class="edge">
<title>Node6&#45;&gt;Node9</title>
<path fill="none" stroke="midnightblue" d="M312.49,-65.84C341.02,-65.94 372.5,-66.05 401.16,-66.16"/>
<polygon fill="midnightblue" stroke="midnightblue" points="312.13,-62.33 302.12,-65.8 312.1,-69.33 312.13,-62.33"/>
</g>
<!-- Node7 -->
<g id="node4" class="node">
<title>Node7</title>
<g id="a_node4"><a xlink:href="interfacefiftyone_1_1pipeline_1_1core_1_1flowelements_1_1_pipeline.html" target="_top" xlink:title="The Pipeline groups together FlowElements and is a factory for FlowData which serves as the evidence,...">
<polygon fill="none" stroke="black" points="124,-0.5 124,-30.5 315,-30.5 315,-0.5 124,-0.5"/>
<text text-anchor="start" x="132" y="-18.5" font-family="Helvetica,sans-Serif" font-size="10.00">fiftyone.pipeline.core.flowelements.</text>
<text text-anchor="middle" x="219.5" y="-7.5" font-family="Helvetica,sans-Serif" font-size="10.00">Pipeline</text>
</a>
</g>
</g>
<!-- Node7&#45;&gt;Node5 -->
<g id="edge3" class="edge">
<title>Node7&#45;&gt;Node5</title>
<path fill="none" stroke="#9a32cd" stroke-dasharray="5,2" d="M325.51,-16.15C342.4,-16.26 359.68,-16.38 376,-16.5 381.78,-16.54 387.73,-16.59 393.72,-16.64"/>
<polygon fill="#9a32cd" stroke="#9a32cd" points="325.09,-12.64 315.07,-16.08 325.04,-19.64 325.09,-12.64"/>
<text text-anchor="middle" x="354.5" y="-19.5" font-family="Helvetica,sans-Serif" font-size="10.00"> pipeline</text>
</g>
<!-- Node8 -->
<g id="node5" class="node">
<title>Node8</title>
<g id="a_node5"><a xlink:title=" ">
<polygon fill="none" stroke="#bfbfbf" points="0,-6 0,-25 87,-25 87,-6 0,-6"/>
<text text-anchor="middle" x="43.5" y="-13" font-family="Helvetica,sans-Serif" font-size="10.00">AutoCloseable</text>
</a>
</g>
</g>
<!-- Node8&#45;&gt;Node7 -->
<g id="edge4" class="edge">
<title>Node8&#45;&gt;Node7</title>
<path fill="none" stroke="midnightblue" d="M97.15,-15.5C105.65,-15.5 114.68,-15.5 123.81,-15.5"/>
<polygon fill="midnightblue" stroke="midnightblue" points="97.07,-12 87.07,-15.5 97.07,-19 97.07,-12"/>
</g>
<!-- Node9&#45;&gt;Node4 -->
<g id="edge5" class="edge">
<title>Node9&#45;&gt;Node4</title>
<path fill="none" stroke="midnightblue" d="M600.77,-55.29C612.15,-54.07 623.68,-52.82 634.92,-51.61"/>
<polygon fill="midnightblue" stroke="midnightblue" points="600.39,-51.81 590.83,-56.37 601.14,-58.77 600.39,-51.81"/>
</g>
</g>
</svg>
