<?xml version="1.0" encoding="UTF-8" standalone="no"?>
<!DOCTYPE svg PUBLIC "-//W3C//DTD SVG 1.1//EN"
 "http://www.w3.org/Graphics/SVG/1.1/DTD/svg11.dtd">
<!-- Generated by graphviz version 2.43.0 (0)
 -->
<!-- Title: fiftyone.pipeline.core.data.DataBase Pages: 1 -->
<svg width="1435pt" height="186pt"
 viewBox="0.00 0.00 1435.00 186.00" xmlns="http://www.w3.org/2000/svg" xmlns:xlink="http://www.w3.org/1999/xlink">
<g id="graph0" class="graph" transform="scale(1 1) rotate(0) translate(4 182)">
<title>fiftyone.pipeline.core.data.DataBase</title>
<!-- Node0 -->
<g id="node1" class="node">
<title>Node0</title>
<g id="a_node1"><a xlink:title="This implementation of Data stores data values as key/value pairs in a Map where the key is a string ...">
<polygon fill="#bfbfbf" stroke="black" points="206,-48.5 206,-78.5 353,-78.5 353,-48.5 206,-48.5"/>
<text text-anchor="start" x="214" y="-66.5" font-family="Helvetica,sans-Serif" font-size="10.00">fiftyone.pipeline.core.data.</text>
<text text-anchor="middle" x="279.5" y="-55.5" font-family="Helvetica,sans-Serif" font-size="10.00">DataBase</text>
</a>
</g>
</g>
<!-- Node2 -->
<g id="node3" class="node">
<title>Node2</title>
<g id="a_node3"><a xlink:href="classfiftyone_1_1pipeline_1_1core_1_1data_1_1_element_data_base.html" target="_top" xlink:title="Base implementation of ElementData.">
<polygon fill="none" stroke="black" points="411,-73.5 411,-103.5 558,-103.5 558,-73.5 411,-73.5"/>
<text text-anchor="start" x="419" y="-91.5" font-family="Helvetica,sans-Serif" font-size="10.00">fiftyone.pipeline.core.data.</text>
<text text-anchor="middle" x="484.5" y="-80.5" font-family="Helvetica,sans-Serif" font-size="10.00">ElementDataBase</text>
</a>
</g>
</g>
<!-- Node0&#45;&gt;Node2 -->
<g id="edge2" class="edge">
<title>Node0&#45;&gt;Node2</title>
<path fill="none" stroke="midnightblue" d="M363.46,-73.72C379.2,-75.66 395.56,-77.67 410.95,-79.57"/>
<polygon fill="midnightblue" stroke="midnightblue" points="363.57,-70.2 353.21,-72.45 362.71,-77.15 363.57,-70.2"/>
</g>
<!-- Node9 -->
<g id="node10" class="node">
<title>Node9</title>
<g id="a_node10"><a xlink:title="Default implementation of the Evidence interface.">
<polygon fill="none" stroke="#bfbfbf" points="389,-24.5 389,-54.5 580,-54.5 580,-24.5 389,-24.5"/>
<text text-anchor="start" x="397" y="-42.5" font-family="Helvetica,sans-Serif" font-size="10.00">fiftyone.pipeline.core.flowelements.</text>
<text text-anchor="middle" x="484.5" y="-31.5" font-family="Helvetica,sans-Serif" font-size="10.00">EvidenceDefault</text>
</a>
</g>
</g>
<!-- Node0&#45;&gt;Node9 -->
<g id="edge9" class="edge">
<title>Node0&#45;&gt;Node9</title>
<path fill="none" stroke="midnightblue" d="M363.4,-53.7C371.83,-52.7 380.44,-51.68 388.99,-50.67"/>
<polygon fill="midnightblue" stroke="midnightblue" points="362.73,-50.25 353.21,-54.9 363.56,-57.2 362.73,-50.25"/>
</g>
<!-- Node1 -->
<g id="node2" class="node">
<title>Node1</title>
<g id="a_node2"><a xlink:href="interfacefiftyone_1_1pipeline_1_1core_1_1data_1_1_data.html" target="_top" xlink:title="Represents a collection of property values.">
<polygon fill="none" stroke="black" points="0,-54 0,-73 170,-73 170,-54 0,-54"/>
<text text-anchor="middle" x="85" y="-61" font-family="Helvetica,sans-Serif" font-size="10.00">fiftyone.pipeline.core.data.Data</text>
</a>
</g>
</g>
<!-- Node1&#45;&gt;Node0 -->
<g id="edge1" class="edge">
<title>Node1&#45;&gt;Node0</title>
<path fill="none" stroke="midnightblue" d="M180.27,-63.5C188.91,-63.5 197.57,-63.5 205.97,-63.5"/>
<polygon fill="midnightblue" stroke="midnightblue" points="180.15,-60 170.15,-63.5 180.15,-67 180.15,-60"/>
</g>
<!-- Node3 -->
<g id="node4" class="node">
<title>Node3</title>
<g id="a_node4"><a xlink:href="classfiftyone_1_1pipeline_1_1engines_1_1data_1_1_aspect_data_base.html" target="_top" xlink:title="Abstract base class for AspectData which overrides the.">
<polygon fill="none" stroke="black" points="659.5,-147.5 659.5,-177.5 823.5,-177.5 823.5,-147.5 659.5,-147.5"/>
<text text-anchor="start" x="667.5" y="-165.5" font-family="Helvetica,sans-Serif" font-size="10.00">fiftyone.pipeline.engines.data.</text>
<text text-anchor="middle" x="741.5" y="-154.5" font-family="Helvetica,sans-Serif" font-size="10.00">AspectDataBase</text>
</a>
</g>
</g>
<!-- Node2&#45;&gt;Node3 -->
<g id="edge3" class="edge">
<title>Node2&#45;&gt;Node3</title>
<path fill="none" stroke="midnightblue" d="M530.51,-107.45C555.39,-117.4 587.04,-129.21 616,-137.5 629.88,-141.47 644.81,-145.05 659.34,-148.17"/>
<polygon fill="midnightblue" stroke="midnightblue" points="531.57,-104.1 520.98,-103.6 528.94,-110.59 531.57,-104.1"/>
</g>
<!-- Node6 -->
<g id="node7" class="node">
<title>Node6</title>
<g id="a_node7"><a xlink:href="classfiftyone_1_1pipeline_1_1engines_1_1fiftyone_1_1data_1_1_set_headers_data.html" target="_top" xlink:title="[class] [constructor]">
<polygon fill="none" stroke="black" points="639.5,-98.5 639.5,-128.5 843.5,-128.5 843.5,-98.5 639.5,-98.5"/>
<text text-anchor="start" x="647.5" y="-116.5" font-family="Helvetica,sans-Serif" font-size="10.00">fiftyone.pipeline.engines.fiftyone.data.</text>
<text text-anchor="middle" x="741.5" y="-105.5" font-family="Helvetica,sans-Serif" font-size="10.00">SetHeadersData</text>
</a>
</g>
</g>
<!-- Node2&#45;&gt;Node6 -->
<g id="edge6" class="edge">
<title>Node2&#45;&gt;Node6</title>
<path fill="none" stroke="midnightblue" d="M568.44,-96.63C591,-98.84 615.69,-101.26 639.14,-103.56"/>
<polygon fill="midnightblue" stroke="midnightblue" points="568.53,-93.12 558.23,-95.63 567.84,-100.09 568.53,-93.12"/>
</g>
<!-- Node7 -->
<g id="node8" class="node">
<title>Node7</title>
<g id="a_node8"><a xlink:href="classfiftyone_1_1pipeline_1_1javascriptbuilder_1_1flowelements_1_1_java_script_builder_data_internal.html" target="_top" xlink:title="[class]">
<polygon fill="none" stroke="black" points="616,-49.5 616,-79.5 867,-79.5 867,-49.5 616,-49.5"/>
<text text-anchor="start" x="624" y="-67.5" font-family="Helvetica,sans-Serif" font-size="10.00">fiftyone.pipeline.javascriptbuilder.flowelements.</text>
<text text-anchor="middle" x="741.5" y="-56.5" font-family="Helvetica,sans-Serif" font-size="10.00">JavaScriptBuilderDataInternal</text>
</a>
</g>
</g>
<!-- Node2&#45;&gt;Node7 -->
<g id="edge7" class="edge">
<title>Node2&#45;&gt;Node7</title>
<path fill="none" stroke="midnightblue" d="M568.51,-80.69C583.59,-79.27 599.63,-77.76 615.61,-76.25"/>
<polygon fill="midnightblue" stroke="midnightblue" points="567.86,-77.23 558.23,-81.65 568.52,-84.2 567.86,-77.23"/>
</g>
<!-- Node8 -->
<g id="node9" class="node">
<title>Node8</title>
<g id="a_node9"><a xlink:href="classfiftyone_1_1pipeline_1_1jsonbuilder_1_1flowelements_1_1_json_builder_data_internal.html" target="_top" xlink:title="[class]">
<polygon fill="none" stroke="black" points="629.5,-0.5 629.5,-30.5 853.5,-30.5 853.5,-0.5 629.5,-0.5"/>
<text text-anchor="start" x="637.5" y="-18.5" font-family="Helvetica,sans-Serif" font-size="10.00">fiftyone.pipeline.jsonbuilder.flowelements.</text>
<text text-anchor="middle" x="741.5" y="-7.5" font-family="Helvetica,sans-Serif" font-size="10.00">JsonBuilderDataInternal</text>
</a>
</g>
</g>
<!-- Node2&#45;&gt;Node8 -->
<g id="edge8" class="edge">
<title>Node2&#45;&gt;Node8</title>
<path fill="none" stroke="midnightblue" d="M563.12,-70.21C568.91,-68.17 574.6,-65.93 580,-63.5 597.53,-55.6 598.21,-46.8 616,-39.5 624.45,-36.03 633.44,-33.06 642.56,-30.51"/>
<polygon fill="midnightblue" stroke="midnightblue" points="561.69,-67 553.3,-73.48 563.9,-73.64 561.69,-67"/>
</g>
<!-- Node4 -->
<g id="node5" class="node">
<title>Node4</title>
<g id="a_node5"><a xlink:href="classfiftyone_1_1pipeline_1_1cloudrequestengine_1_1flowelements_1_1_cloud_request_data_internal.html" target="_top" xlink:title=" ">
<polygon fill="none" stroke="black" points="903,-147.5 903,-177.5 1169,-177.5 1169,-147.5 903,-147.5"/>
<text text-anchor="start" x="911" y="-165.5" font-family="Helvetica,sans-Serif" font-size="10.00">fiftyone.pipeline.cloudrequestengine.flowelements.</text>
<text text-anchor="middle" x="1036" y="-154.5" font-family="Helvetica,sans-Serif" font-size="10.00">CloudRequestDataInternal</text>
</a>
</g>
</g>
<!-- Node3&#45;&gt;Node4 -->
<g id="edge4" class="edge">
<title>Node3&#45;&gt;Node4</title>
<path fill="none" stroke="midnightblue" d="M833.84,-162.5C855.75,-162.5 879.58,-162.5 902.92,-162.5"/>
<polygon fill="midnightblue" stroke="midnightblue" points="833.59,-159 823.59,-162.5 833.59,-166 833.59,-159"/>
</g>
<!-- Node5 -->
<g id="node6" class="node">
<title>Node5</title>
<g id="a_node6"><a xlink:href="classfiftyone_1_1pipeline_1_1cloudrequestengine_1_1data_1_1_cloud_request_data.html" target="_top" xlink:title=" ">
<polygon fill="none" stroke="black" points="1205,-147.5 1205,-177.5 1427,-177.5 1427,-147.5 1205,-147.5"/>
<text text-anchor="start" x="1213" y="-165.5" font-family="Helvetica,sans-Serif" font-size="10.00">fiftyone.pipeline.cloudrequestengine.data.</text>
<text text-anchor="middle" x="1316" y="-154.5" font-family="Helvetica,sans-Serif" font-size="10.00">CloudRequestData</text>
</a>
</g>
</g>
<!-- Node4&#45;&gt;Node5 -->
<g id="edge5" class="edge">
<title>Node4&#45;&gt;Node5</title>
<path fill="none" stroke="midnightblue" d="M1179.14,-162.5C1187.7,-162.5 1196.25,-162.5 1204.66,-162.5"/>
<polygon fill="midnightblue" stroke="midnightblue" points="1179.08,-159 1169.08,-162.5 1179.08,-166 1179.08,-159"/>
</g>
</g>
</svg>
