<?xml version="1.0" encoding="UTF-8" standalone="no"?>
<!DOCTYPE svg PUBLIC "-//W3C//DTD SVG 1.1//EN"
 "http://www.w3.org/Graphics/SVG/1.1/DTD/svg11.dtd">
<!-- Generated by graphviz version 2.43.0 (0)
 -->
<!-- Title: fiftyone.pipeline.jsonbuilder.flowelements.JsonBuilderElement Pages: 1 -->
<svg width="1746pt" height="258pt"
 viewBox="0.00 0.00 1746.00 258.00" xmlns="http://www.w3.org/2000/svg" xmlns:xlink="http://www.w3.org/1999/xlink">
<g id="graph0" class="graph" transform="scale(1 1) rotate(0) translate(4 254)">
<title>fiftyone.pipeline.jsonbuilder.flowelements.JsonBuilderElement</title>
<!-- Node0 -->
<g id="node1" class="node">
<title>Node0</title>
<g id="a_node1"><a xlink:title="[class] [constructor]">
<polygon fill="#bfbfbf" stroke="black" points="1514,-79.5 1514,-109.5 1738,-109.5 1738,-79.5 1514,-79.5"/>
<text text-anchor="start" x="1522" y="-97.5" font-family="Helvetica,sans-Serif" font-size="10.00">fiftyone.pipeline.jsonbuilder.flowelements.</text>
<text text-anchor="middle" x="1626" y="-86.5" font-family="Helvetica,sans-Serif" font-size="10.00">JsonBuilderElement</text>
</a>
</g>
</g>
<!-- Node1 -->
<g id="node2" class="node">
<title>Node1</title>
<g id="a_node2"><a xlink:href="classfiftyone_1_1pipeline_1_1core_1_1flowelements_1_1_flow_element_base.html" target="_top" xlink:title="Provides a base class from which authors may create new FlowElements.">
<polygon fill="none" stroke="black" points="1290,-109.5 1290,-161.5 1477,-161.5 1477,-109.5 1290,-109.5"/>
<text text-anchor="start" x="1298" y="-149.5" font-family="Helvetica,sans-Serif" font-size="10.00">fiftyone::pipeline</text>
<text text-anchor="start" x="1298" y="-138.5" font-family="Helvetica,sans-Serif" font-size="10.00">::core::flowelements</text>
<text text-anchor="start" x="1298" y="-127.5" font-family="Helvetica,sans-Serif" font-size="10.00">::FlowElementBase&lt; JsonBuilder</text>
<text text-anchor="middle" x="1383.5" y="-116.5" font-family="Helvetica,sans-Serif" font-size="10.00">Data, ElementPropertyMetaData &gt;</text>
</a>
</g>
</g>
<!-- Node1&#45;&gt;Node0 -->
<g id="edge1" class="edge">
<title>Node1&#45;&gt;Node0</title>
<path fill="none" stroke="midnightblue" d="M1487.32,-117.97C1503.78,-115.17 1520.68,-112.28 1536.76,-109.54"/>
<polygon fill="midnightblue" stroke="midnightblue" points="1486.41,-114.58 1477.14,-119.71 1487.59,-121.48 1486.41,-114.58"/>
</g>
<!-- Node2 -->
<g id="node3" class="node">
<title>Node2</title>
<g id="a_node3"><a xlink:href="interfacefiftyone_1_1pipeline_1_1core_1_1flowelements_1_1_flow_element.html" target="_top" xlink:title=" ">
<polygon fill="none" stroke="black" points="839,-140.5 839,-170.5 1030,-170.5 1030,-140.5 839,-140.5"/>
<text text-anchor="start" x="847" y="-158.5" font-family="Helvetica,sans-Serif" font-size="10.00">fiftyone.pipeline.core.flowelements.</text>
<text text-anchor="middle" x="934.5" y="-147.5" font-family="Helvetica,sans-Serif" font-size="10.00">FlowElement&lt; TData, TProperty &gt;</text>
</a>
</g>
</g>
<!-- Node2&#45;&gt;Node1 -->
<g id="edge2" class="edge">
<title>Node2&#45;&gt;Node1</title>
<path fill="none" stroke="midnightblue" d="M1040.05,-150.82C1115.65,-147.44 1216.88,-142.91 1289.64,-139.65"/>
<polygon fill="midnightblue" stroke="midnightblue" points="1039.86,-147.33 1030.02,-151.27 1040.17,-154.32 1039.86,-147.33"/>
</g>
<!-- Node3 -->
<g id="node4" class="node">
<title>Node3</title>
<g id="a_node4"><a xlink:href="interfacefiftyone_1_1pipeline_1_1core_1_1flowelements_1_1_flow_element.html" target="_top" xlink:title="A component that processes a FlowData (by examining its evidence, or by examining data processed by o...">
<polygon fill="none" stroke="black" points="441,-167 441,-208 694,-208 694,-167 441,-167"/>
<text text-anchor="start" x="449" y="-196" font-family="Helvetica,sans-Serif" font-size="10.00">fiftyone.pipeline.core.flowelements.</text>
<text text-anchor="start" x="449" y="-185" font-family="Helvetica,sans-Serif" font-size="10.00">FlowElement&lt; TData extends ElementData,</text>
<text text-anchor="middle" x="567.5" y="-174" font-family="Helvetica,sans-Serif" font-size="10.00"> TProperty extends ElementPropertyMetaData &gt;</text>
</a>
</g>
</g>
<!-- Node3&#45;&gt;Node2 -->
<g id="edge3" class="edge">
<title>Node3&#45;&gt;Node2</title>
<path fill="none" stroke="orange" stroke-dasharray="5,2" d="M704.2,-175.6C748.97,-171.68 797.77,-167.4 838.8,-163.8"/>
<polygon fill="orange" stroke="orange" points="703.77,-172.13 694.11,-176.49 704.38,-179.1 703.77,-172.13"/>
<text text-anchor="middle" x="766.5" y="-176.5" font-family="Helvetica,sans-Serif" font-size="10.00"> &lt; TData, TProperty &gt;</text>
</g>
<!-- Node4 -->
<g id="node5" class="node">
<title>Node4</title>
<g id="a_node5"><a xlink:title=" ">
<polygon fill="none" stroke="#bfbfbf" points="237,-149 237,-168 324,-168 324,-149 237,-149"/>
<text text-anchor="middle" x="280.5" y="-156" font-family="Helvetica,sans-Serif" font-size="10.00">AutoCloseable</text>
</a>
</g>
</g>
<!-- Node4&#45;&gt;Node3 -->
<g id="edge4" class="edge">
<title>Node4&#45;&gt;Node3</title>
<path fill="none" stroke="midnightblue" d="M313.91,-171.58C330.91,-177.75 352.24,-184.41 372,-187.5 394.1,-190.95 417.79,-192.62 440.76,-193.19"/>
<polygon fill="midnightblue" stroke="midnightblue" points="315.05,-168.27 304.46,-168.04 312.6,-174.83 315.05,-168.27"/>
</g>
<!-- Node9 -->
<g id="node10" class="node">
<title>Node9</title>
<g id="a_node10"><a xlink:href="interfacefiftyone_1_1pipeline_1_1core_1_1flowelements_1_1_flow_element.html" target="_top" xlink:title="A component that processes a FlowData (by examining its evidence, or by examining data processed by o...">
<polygon fill="none" stroke="black" points="478,-80.5 478,-132.5 657,-132.5 657,-80.5 478,-80.5"/>
<text text-anchor="start" x="486" y="-120.5" font-family="Helvetica,sans-Serif" font-size="10.00">fiftyone::pipeline</text>
<text text-anchor="start" x="486" y="-109.5" font-family="Helvetica,sans-Serif" font-size="10.00">::core::flowelements</text>
<text text-anchor="start" x="486" y="-98.5" font-family="Helvetica,sans-Serif" font-size="10.00">::FlowElement&lt; JsonBuilderData,</text>
<text text-anchor="middle" x="567.5" y="-87.5" font-family="Helvetica,sans-Serif" font-size="10.00"> ElementPropertyMetaData &gt;</text>
</a>
</g>
</g>
<!-- Node4&#45;&gt;Node9 -->
<g id="edge12" class="edge">
<title>Node4&#45;&gt;Node9</title>
<path fill="none" stroke="midnightblue" d="M309.82,-144.71C327.32,-136.83 350.47,-127.55 372,-122.5 405.98,-114.53 444.1,-110.39 477.53,-108.28"/>
<polygon fill="midnightblue" stroke="midnightblue" points="308.34,-141.54 300.73,-148.91 311.28,-147.89 308.34,-141.54"/>
</g>
<!-- Node5 -->
<g id="node6" class="node">
<title>Node5</title>
<g id="a_node6"><a xlink:href="interfacefiftyone_1_1pipeline_1_1core_1_1data_1_1_element_data.html" target="_top" xlink:title="Represents property values that have be determined by a specific FlowElement based on the supplied ev...">
<polygon fill="none" stroke="black" points="207,-67.5 207,-97.5 354,-97.5 354,-67.5 207,-67.5"/>
<text text-anchor="start" x="215" y="-85.5" font-family="Helvetica,sans-Serif" font-size="10.00">fiftyone.pipeline.core.data.</text>
<text text-anchor="middle" x="280.5" y="-74.5" font-family="Helvetica,sans-Serif" font-size="10.00">ElementData</text>
</a>
</g>
</g>
<!-- Node5&#45;&gt;Node1 -->
<g id="edge8" class="edge">
<title>Node5&#45;&gt;Node1</title>
<path fill="none" stroke="orange" stroke-dasharray="5,2" d="M364.16,-75.71C388.86,-73.98 416.01,-72.36 441,-71.5 553.38,-67.63 581.68,-66.29 694,-71.5 907.9,-81.42 1157.99,-108.59 1289.98,-124.15"/>
<polygon fill="orange" stroke="orange" points="363.82,-72.23 354.1,-76.43 364.32,-79.21 363.82,-72.23"/>
<text text-anchor="middle" x="766.5" y="-82.5" font-family="Helvetica,sans-Serif" font-size="10.00"> TData</text>
</g>
<!-- Node5&#45;&gt;Node3 -->
<g id="edge5" class="edge">
<title>Node5&#45;&gt;Node3</title>
<path fill="none" stroke="orange" stroke-dasharray="5,2" d="M330.52,-101.17C362.04,-113.11 403.88,-128.86 441,-142.5 463.05,-150.6 487.35,-159.35 508.64,-166.96"/>
<polygon fill="orange" stroke="orange" points="331.68,-97.86 321.09,-97.59 329.2,-104.41 331.68,-97.86"/>
<text text-anchor="middle" x="397.5" y="-136.5" font-family="Helvetica,sans-Serif" font-size="10.00"> TData</text>
</g>
<!-- Node5&#45;&gt;Node9 -->
<g id="edge13" class="edge">
<title>Node5&#45;&gt;Node9</title>
<path fill="none" stroke="orange" stroke-dasharray="5,2" d="M364.55,-80.98C383.76,-81.21 404.12,-81.93 423,-83.5 440.85,-84.99 459.84,-87.42 477.96,-90.15"/>
<polygon fill="orange" stroke="orange" points="364.33,-77.48 354.31,-80.9 364.28,-84.48 364.33,-77.48"/>
<text text-anchor="middle" x="397.5" y="-86.5" font-family="Helvetica,sans-Serif" font-size="10.00"> TData</text>
</g>
<!-- Node6 -->
<g id="node7" class="node">
<title>Node6</title>
<g id="a_node7"><a xlink:href="interfacefiftyone_1_1pipeline_1_1core_1_1data_1_1_data.html" target="_top" xlink:title="Represents a collection of property values.">
<polygon fill="none" stroke="black" points="0,-73 0,-92 170,-92 170,-73 0,-73"/>
<text text-anchor="middle" x="85" y="-80" font-family="Helvetica,sans-Serif" font-size="10.00">fiftyone.pipeline.core.data.Data</text>
</a>
</g>
</g>
<!-- Node6&#45;&gt;Node5 -->
<g id="edge6" class="edge">
<title>Node6&#45;&gt;Node5</title>
<path fill="none" stroke="midnightblue" d="M180.11,-82.5C189.07,-82.5 198.06,-82.5 206.77,-82.5"/>
<polygon fill="midnightblue" stroke="midnightblue" points="180.03,-79 170.03,-82.5 180.03,-86 180.03,-79"/>
</g>
<!-- Node7 -->
<g id="node8" class="node">
<title>Node7</title>
<g id="a_node8"><a xlink:href="interfacefiftyone_1_1pipeline_1_1core_1_1data_1_1_element_property_meta_data.html" target="_top" xlink:title="Defines details of a property that can be returned by a FlowElement.">
<polygon fill="none" stroke="black" points="207,-219.5 207,-249.5 354,-249.5 354,-219.5 207,-219.5"/>
<text text-anchor="start" x="215" y="-237.5" font-family="Helvetica,sans-Serif" font-size="10.00">fiftyone.pipeline.core.data.</text>
<text text-anchor="middle" x="280.5" y="-226.5" font-family="Helvetica,sans-Serif" font-size="10.00">ElementPropertyMetaData</text>
</a>
</g>
</g>
<!-- Node7&#45;&gt;Node1 -->
<g id="edge9" class="edge">
<title>Node7&#45;&gt;Node1</title>
<path fill="none" stroke="orange" stroke-dasharray="5,2" d="M364.46,-234.63C383.69,-234.46 404.06,-234.13 423,-233.5 801.56,-221 897.89,-218.7 1272,-159.5 1277.82,-158.58 1283.79,-157.55 1289.8,-156.44"/>
<polygon fill="orange" stroke="orange" points="364.2,-231.14 354.23,-234.71 364.25,-238.14 364.2,-231.14"/>
<text text-anchor="middle" x="766.5" y="-225.5" font-family="Helvetica,sans-Serif" font-size="10.00"> TProperty</text>
</g>
<!-- Node7&#45;&gt;Node3 -->
<g id="edge7" class="edge">
<title>Node7&#45;&gt;Node3</title>
<path fill="none" stroke="orange" stroke-dasharray="5,2" d="M364.04,-220.89C388.38,-216.87 415.57,-212.39 441.93,-208.04"/>
<polygon fill="orange" stroke="orange" points="363.45,-217.44 354.15,-222.52 364.59,-224.34 363.45,-217.44"/>
<text text-anchor="middle" x="397.5" y="-221.5" font-family="Helvetica,sans-Serif" font-size="10.00"> TProperty</text>
</g>
<!-- Node7&#45;&gt;Node9 -->
<g id="edge14" class="edge">
<title>Node7&#45;&gt;Node9</title>
<path fill="none" stroke="orange" stroke-dasharray="5,2" d="M320.27,-214.93C352.37,-198.93 399.31,-176.01 441,-157.5 460.02,-149.05 480.89,-140.35 500.06,-132.58"/>
<polygon fill="orange" stroke="orange" points="318.6,-211.85 311.22,-219.45 321.73,-218.11 318.6,-211.85"/>
<text text-anchor="middle" x="397.5" y="-190.5" font-family="Helvetica,sans-Serif" font-size="10.00"> TProperty</text>
</g>
<!-- Node8 -->
<g id="node9" class="node">
<title>Node8</title>
<g id="a_node9"><a xlink:href="interfacefiftyone_1_1pipeline_1_1jsonbuilder_1_1flowelements_1_1_json_builder.html" target="_top" xlink:title="The JsonBuilderElement takes accessible properties and adds the property key:values to the Json objec...">
<polygon fill="none" stroke="black" points="1048,-0.5 1048,-30.5 1272,-30.5 1272,-0.5 1048,-0.5"/>
<text text-anchor="start" x="1056" y="-18.5" font-family="Helvetica,sans-Serif" font-size="10.00">fiftyone.pipeline.jsonbuilder.flowelements.</text>
<text text-anchor="middle" x="1160" y="-7.5" font-family="Helvetica,sans-Serif" font-size="10.00">JsonBuilder</text>
</a>
</g>
</g>
<!-- Node8&#45;&gt;Node0 -->
<g id="edge10" class="edge">
<title>Node8&#45;&gt;Node0</title>
<path fill="none" stroke="midnightblue" d="M1259.46,-32.26C1341.53,-46.24 1457.42,-65.97 1536.57,-79.44"/>
<polygon fill="midnightblue" stroke="midnightblue" points="1259.81,-28.77 1249.37,-30.55 1258.64,-35.67 1259.81,-28.77"/>
</g>
<!-- Node9&#45;&gt;Node8 -->
<g id="edge11" class="edge">
<title>Node9&#45;&gt;Node8</title>
<path fill="none" stroke="midnightblue" d="M612.96,-74.76C640.16,-57.25 676.46,-37.15 712,-27.5 823.26,2.7 955.85,1.9 1047.59,-4.1"/>
<polygon fill="midnightblue" stroke="midnightblue" points="610.9,-71.92 604.46,-80.33 614.74,-77.77 610.9,-71.92"/>
</g>
</g>
</svg>
