<?xml version="1.0" encoding="UTF-8" standalone="no"?>
<!DOCTYPE svg PUBLIC "-//W3C//DTD SVG 1.1//EN"
 "http://www.w3.org/Graphics/SVG/1.1/DTD/svg11.dtd">
<!-- Generated by graphviz version 2.43.0 (0)
 -->
<!-- Title: fiftyone.pipeline.engines.caching.DataKeyedCacheBase&lt; V &gt; Pages: 1 -->
<svg width="188pt" height="307pt"
 viewBox="0.00 0.00 188.00 307.00" xmlns="http://www.w3.org/2000/svg" xmlns:xlink="http://www.w3.org/1999/xlink">
<g id="graph0" class="graph" transform="scale(1 1) rotate(0) translate(4 303)">
<title>fiftyone.pipeline.engines.caching.DataKeyedCacheBase&lt; V &gt;</title>
<!-- Node11 -->
<g id="node1" class="node">
<title>Node11</title>
<g id="a_node1"><a xlink:title="Abstract base class for caches that use FlowData as the key.">
<polygon fill="#bfbfbf" stroke="black" points="0,-0.5 0,-30.5 180,-30.5 180,-0.5 0,-0.5"/>
<text text-anchor="start" x="8" y="-18.5" font-family="Helvetica,sans-Serif" font-size="10.00">fiftyone.pipeline.engines.caching.</text>
<text text-anchor="middle" x="90" y="-7.5" font-family="Helvetica,sans-Serif" font-size="10.00">DataKeyedCacheBase&lt; V &gt;</text>
</a>
</g>
</g>
<!-- Node12 -->
<g id="node2" class="node">
<title>Node12</title>
<g id="a_node2"><a xlink:href="interfacefiftyone_1_1pipeline_1_1engines_1_1caching_1_1_data_keyed_cache.html" target="_top" xlink:title="Represents a put cache where the key is a FlowData instance.">
<polygon fill="none" stroke="black" points="25.5,-67.5 25.5,-108.5 154.5,-108.5 154.5,-67.5 25.5,-67.5"/>
<text text-anchor="start" x="33.5" y="-96.5" font-family="Helvetica,sans-Serif" font-size="10.00">fiftyone::pipeline</text>
<text text-anchor="start" x="33.5" y="-85.5" font-family="Helvetica,sans-Serif" font-size="10.00">::engines::caching::</text>
<text text-anchor="middle" x="90" y="-74.5" font-family="Helvetica,sans-Serif" font-size="10.00">DataKeyedCache&lt; V &gt;</text>
</a>
</g>
</g>
<!-- Node12&#45;&gt;Node11 -->
<g id="edge1" class="edge">
<title>Node12&#45;&gt;Node11</title>
<path fill="none" stroke="midnightblue" d="M90,-57.08C90,-48.01 90,-38.45 90,-30.89"/>
<polygon fill="midnightblue" stroke="midnightblue" points="86.5,-57.36 90,-67.36 93.5,-57.36 86.5,-57.36"/>
</g>
<!-- Node13 -->
<g id="node3" class="node">
<title>Node13</title>
<g id="a_node3"><a xlink:href="interfacefiftyone_1_1caching_1_1_put_cache.html" target="_top" xlink:title="A cache that supports a thread safe put method for inserting to cache.">
<polygon fill="none" stroke="black" points="18,-145.5 18,-175.5 162,-175.5 162,-145.5 18,-145.5"/>
<text text-anchor="start" x="26" y="-163.5" font-family="Helvetica,sans-Serif" font-size="10.00">fiftyone::caching::</text>
<text text-anchor="middle" x="90" y="-152.5" font-family="Helvetica,sans-Serif" font-size="10.00">PutCache&lt; FlowData, V &gt;</text>
</a>
</g>
</g>
<!-- Node13&#45;&gt;Node12 -->
<g id="edge2" class="edge">
<title>Node13&#45;&gt;Node12</title>
<path fill="none" stroke="midnightblue" d="M90,-134.98C90,-126.35 90,-116.76 90,-108.59"/>
<polygon fill="midnightblue" stroke="midnightblue" points="86.5,-135.23 90,-145.23 93.5,-135.23 86.5,-135.23"/>
</g>
<!-- Node14 -->
<g id="node4" class="node">
<title>Node14</title>
<g id="a_node4"><a xlink:href="interfacefiftyone_1_1caching_1_1_cache.html" target="_top" xlink:title="Base cache interface which declares only the get method and the types of key and value stored in the ...">
<polygon fill="none" stroke="black" points="38.5,-212.5 38.5,-242.5 141.5,-242.5 141.5,-212.5 38.5,-212.5"/>
<text text-anchor="start" x="46.5" y="-230.5" font-family="Helvetica,sans-Serif" font-size="10.00">fiftyone::caching::</text>
<text text-anchor="middle" x="90" y="-219.5" font-family="Helvetica,sans-Serif" font-size="10.00">Cache&lt; K, V &gt;</text>
</a>
</g>
</g>
<!-- Node14&#45;&gt;Node13 -->
<g id="edge3" class="edge">
<title>Node14&#45;&gt;Node13</title>
<path fill="none" stroke="midnightblue" d="M90,-202.11C90,-193.15 90,-183.32 90,-175.58"/>
<polygon fill="midnightblue" stroke="midnightblue" points="86.5,-202.4 90,-212.4 93.5,-202.4 86.5,-202.4"/>
</g>
<!-- Node15 -->
<g id="node5" class="node">
<title>Node15</title>
<g id="a_node5"><a xlink:title=" ">
<polygon fill="none" stroke="#bfbfbf" points="57.5,-279.5 57.5,-298.5 122.5,-298.5 122.5,-279.5 57.5,-279.5"/>
<text text-anchor="middle" x="90" y="-286.5" font-family="Helvetica,sans-Serif" font-size="10.00">Closeable</text>
</a>
</g>
</g>
<!-- Node15&#45;&gt;Node14 -->
<g id="edge4" class="edge">
<title>Node15&#45;&gt;Node14</title>
<path fill="none" stroke="midnightblue" d="M90,-269.23C90,-260.59 90,-250.5 90,-242.52"/>
<polygon fill="midnightblue" stroke="midnightblue" points="86.5,-269.48 90,-279.48 93.5,-269.48 86.5,-269.48"/>
</g>
</g>
</svg>
