<?xml version="1.0" encoding="UTF-8" standalone="no"?>
<!DOCTYPE svg PUBLIC "-//W3C//DTD SVG 1.1//EN"
 "http://www.w3.org/Graphics/SVG/1.1/DTD/svg11.dtd">
<!-- Generated by graphviz version 2.43.0 (0)
 -->
<!-- Title: fiftyone.pipeline.engines.flowelements.CloudAspectEngineBuilderBase&lt; TBuilder extends CloudAspectEngineBuilderBase&lt; TBuilder, TEngine, TEngine extends CloudAspectEngine &gt; Pages: 1 -->
<svg width="2007pt" height="251pt"
 viewBox="0.00 0.00 2007.00 251.00" xmlns="http://www.w3.org/2000/svg" xmlns:xlink="http://www.w3.org/1999/xlink">
<g id="graph0" class="graph" transform="scale(1 1) rotate(0) translate(4 247)">
<title>fiftyone.pipeline.engines.flowelements.CloudAspectEngineBuilderBase&lt; TBuilder extends CloudAspectEngineBuilderBase&lt; TBuilder, TEngine, TEngine extends CloudAspectEngine &gt;</title>
<!-- Node13 -->
<g id="node1" class="node">
<title>Node13</title>
<g id="a_node1"><a xlink:title="Abstract base class for all cloud engine builders.">
<polygon fill="#bfbfbf" stroke="black" points="1766,-99 1766,-162 1999,-162 1999,-99 1766,-99"/>
<text text-anchor="start" x="1774" y="-150" font-family="Helvetica,sans-Serif" font-size="10.00">fiftyone.pipeline.engines.flowelements.</text>
<text text-anchor="start" x="1774" y="-139" font-family="Helvetica,sans-Serif" font-size="10.00">CloudAspectEngineBuilderBase&lt;</text>
<text text-anchor="start" x="1774" y="-128" font-family="Helvetica,sans-Serif" font-size="10.00"> TBuilder extends CloudAspectEngineBuilder</text>
<text text-anchor="start" x="1774" y="-117" font-family="Helvetica,sans-Serif" font-size="10.00">Base&lt; TBuilder, TEngine, TEngine extends</text>
<text text-anchor="middle" x="1882.5" y="-106" font-family="Helvetica,sans-Serif" font-size="10.00"> CloudAspectEngine &gt;</text>
</a>
</g>
</g>
<!-- Node14 -->
<g id="node2" class="node">
<title>Node14</title>
<g id="a_node2"><a xlink:href="classfiftyone_1_1pipeline_1_1engines_1_1flowelements_1_1_aspect_engine_builder_base.html" target="_top" xlink:title=" ">
<polygon fill="none" stroke="black" points="1458.5,-146 1458.5,-187 1667.5,-187 1667.5,-146 1458.5,-146"/>
<text text-anchor="start" x="1466.5" y="-175" font-family="Helvetica,sans-Serif" font-size="10.00">fiftyone.pipeline.engines.flowelements.</text>
<text text-anchor="start" x="1466.5" y="-164" font-family="Helvetica,sans-Serif" font-size="10.00">AspectEngineBuilderBase&lt; TBuilder,</text>
<text text-anchor="middle" x="1563" y="-153" font-family="Helvetica,sans-Serif" font-size="10.00"> TEngine &gt;</text>
</a>
</g>
</g>
<!-- Node14&#45;&gt;Node13 -->
<g id="edge1" class="edge">
<title>Node14&#45;&gt;Node13</title>
<path fill="none" stroke="midnightblue" d="M1677.56,-153.62C1706.21,-150.38 1737,-146.88 1765.75,-143.62"/>
<polygon fill="midnightblue" stroke="midnightblue" points="1677.06,-150.16 1667.52,-154.76 1677.85,-157.11 1677.06,-150.16"/>
</g>
<!-- Node15 -->
<g id="node3" class="node">
<title>Node15</title>
<g id="a_node3"><a xlink:href="classfiftyone_1_1pipeline_1_1engines_1_1flowelements_1_1_aspect_engine_builder_base.html" target="_top" xlink:title="Abstract base class that exposes the common options that all 51Degrees engine builders should make us...">
<polygon fill="none" stroke="black" points="1082,-163 1082,-226 1291,-226 1291,-163 1082,-163"/>
<text text-anchor="start" x="1090" y="-214" font-family="Helvetica,sans-Serif" font-size="10.00">fiftyone.pipeline.engines.flowelements.</text>
<text text-anchor="start" x="1090" y="-203" font-family="Helvetica,sans-Serif" font-size="10.00">AspectEngineBuilderBase&lt; TBuilder</text>
<text text-anchor="start" x="1090" y="-192" font-family="Helvetica,sans-Serif" font-size="10.00"> extends AspectEngineBuilderBase</text>
<text text-anchor="start" x="1090" y="-181" font-family="Helvetica,sans-Serif" font-size="10.00">&lt; TBuilder, TEngine, TEngine extends</text>
<text text-anchor="middle" x="1186.5" y="-170" font-family="Helvetica,sans-Serif" font-size="10.00"> AspectEngine &gt;</text>
</a>
</g>
</g>
<!-- Node15&#45;&gt;Node14 -->
<g id="edge2" class="edge">
<title>Node15&#45;&gt;Node14</title>
<path fill="none" stroke="orange" stroke-dasharray="5,2" d="M1301.52,-185.98C1351.44,-182.24 1409.61,-177.89 1458.3,-174.25"/>
<polygon fill="orange" stroke="orange" points="1301.03,-182.5 1291.32,-186.74 1301.55,-189.48 1301.03,-182.5"/>
<text text-anchor="middle" x="1365" y="-187.5" font-family="Helvetica,sans-Serif" font-size="10.00"> &lt; TBuilder, TEngine &gt;</text>
</g>
<!-- Node16 -->
<g id="node4" class="node">
<title>Node16</title>
<g id="a_node4"><a xlink:href="classfiftyone_1_1pipeline_1_1engines_1_1configuration_1_1_cache_configuration.html" target="_top" xlink:title="Contains everything needed to build a cache.">
<polygon fill="none" stroke="black" points="711.5,-212.5 711.5,-242.5 917.5,-242.5 917.5,-212.5 711.5,-212.5"/>
<text text-anchor="start" x="719.5" y="-230.5" font-family="Helvetica,sans-Serif" font-size="10.00">fiftyone.pipeline.engines.configuration.</text>
<text text-anchor="middle" x="814.5" y="-219.5" font-family="Helvetica,sans-Serif" font-size="10.00">CacheConfiguration</text>
</a>
</g>
</g>
<!-- Node16&#45;&gt;Node15 -->
<g id="edge3" class="edge">
<title>Node16&#45;&gt;Node15</title>
<path fill="none" stroke="#9a32cd" stroke-dasharray="5,2" d="M927.8,-217.61C970.45,-213.84 1019.47,-209.49 1064,-205.5 1069.8,-204.98 1075.76,-204.45 1081.77,-203.91"/>
<polygon fill="#9a32cd" stroke="#9a32cd" points="927.32,-214.13 917.67,-218.5 927.94,-221.11 927.32,-214.13"/>
<text text-anchor="middle" x="1009.5" y="-217.5" font-family="Helvetica,sans-Serif" font-size="10.00"> cacheConfig</text>
</g>
<!-- Node17 -->
<g id="node5" class="node">
<title>Node17</title>
<g id="a_node5"><a xlink:title=" ">
<polygon fill="none" stroke="#bfbfbf" points="770.5,-174 770.5,-193 858.5,-193 858.5,-174 770.5,-174"/>
<text text-anchor="middle" x="814.5" y="-181" font-family="Helvetica,sans-Serif" font-size="10.00">ILoggerFactory</text>
</a>
</g>
</g>
<!-- Node17&#45;&gt;Node15 -->
<g id="edge4" class="edge">
<title>Node17&#45;&gt;Node15</title>
<path fill="none" stroke="#9a32cd" stroke-dasharray="5,2" d="M868.97,-185.09C924.44,-186.74 1012.57,-189.36 1081.77,-191.42"/>
<polygon fill="#9a32cd" stroke="#9a32cd" points="868.77,-181.58 858.67,-184.78 868.56,-188.58 868.77,-181.58"/>
<text text-anchor="middle" x="1009.5" y="-193.5" font-family="Helvetica,sans-Serif" font-size="10.00"> loggerFactory</text>
</g>
<!-- Node18 -->
<g id="node6" class="node">
<title>Node18</title>
<g id="a_node6"><a xlink:href="interfacefiftyone_1_1pipeline_1_1engines_1_1flowelements_1_1_aspect_engine.html" target="_top" xlink:title="AspectEngines are a subset of FlowElements.">
<polygon fill="none" stroke="black" points="692,-55 692,-96 937,-96 937,-55 692,-55"/>
<text text-anchor="start" x="700" y="-84" font-family="Helvetica,sans-Serif" font-size="10.00">fiftyone.pipeline.engines.flowelements.</text>
<text text-anchor="start" x="700" y="-73" font-family="Helvetica,sans-Serif" font-size="10.00">AspectEngine&lt; TData extends AspectData,</text>
<text text-anchor="middle" x="814.5" y="-62" font-family="Helvetica,sans-Serif" font-size="10.00"> TProperty extends AspectPropertyMetaData &gt;</text>
</a>
</g>
</g>
<!-- Node18&#45;&gt;Node15 -->
<g id="edge5" class="edge">
<title>Node18&#45;&gt;Node15</title>
<path fill="none" stroke="orange" stroke-dasharray="5,2" d="M947.35,-82.88C994.96,-86.9 1042.32,-92.87 1064,-101.5 1098.55,-115.25 1131.65,-141.78 1154.55,-162.99"/>
<polygon fill="orange" stroke="orange" points="947.44,-79.38 937.19,-82.05 946.87,-86.36 947.44,-79.38"/>
<text text-anchor="middle" x="1009.5" y="-104.5" font-family="Helvetica,sans-Serif" font-size="10.00"> TEngine</text>
</g>
<!-- Node27 -->
<g id="node15" class="node">
<title>Node27</title>
<g id="a_node15"><a xlink:href="interfacefiftyone_1_1pipeline_1_1engines_1_1flowelements_1_1_aspect_engine.html" target="_top" xlink:title=" ">
<polygon fill="none" stroke="black" points="1082,-63.5 1082,-93.5 1291,-93.5 1291,-63.5 1082,-63.5"/>
<text text-anchor="start" x="1090" y="-81.5" font-family="Helvetica,sans-Serif" font-size="10.00">fiftyone.pipeline.engines.flowelements.</text>
<text text-anchor="middle" x="1186.5" y="-70.5" font-family="Helvetica,sans-Serif" font-size="10.00">AspectEngine&lt; TData, TProperty &gt;</text>
</a>
</g>
</g>
<!-- Node18&#45;&gt;Node27 -->
<g id="edge17" class="edge">
<title>Node18&#45;&gt;Node27</title>
<path fill="none" stroke="orange" stroke-dasharray="5,2" d="M947.2,-67.47C984.93,-66.19 1026.1,-65.79 1064,-67.5 1069.82,-67.76 1075.79,-68.1 1081.81,-68.48"/>
<polygon fill="orange" stroke="orange" points="947.05,-63.97 937.18,-67.83 947.3,-70.97 947.05,-63.97"/>
<text text-anchor="middle" x="1009.5" y="-70.5" font-family="Helvetica,sans-Serif" font-size="10.00"> &lt; TData, TProperty &gt;</text>
</g>
<!-- Node19 -->
<g id="node7" class="node">
<title>Node19</title>
<g id="a_node7"><a xlink:href="interfacefiftyone_1_1pipeline_1_1core_1_1flowelements_1_1_flow_element.html" target="_top" xlink:title="A component that processes a FlowData (by examining its evidence, or by examining data processed by o...">
<polygon fill="none" stroke="black" points="458,-49.5 458,-101.5 588,-101.5 588,-49.5 458,-49.5"/>
<text text-anchor="start" x="466" y="-89.5" font-family="Helvetica,sans-Serif" font-size="10.00">fiftyone::pipeline</text>
<text text-anchor="start" x="466" y="-78.5" font-family="Helvetica,sans-Serif" font-size="10.00">::core::flowelements</text>
<text text-anchor="start" x="466" y="-67.5" font-family="Helvetica,sans-Serif" font-size="10.00">::FlowElement&lt; TData,</text>
<text text-anchor="middle" x="523" y="-56.5" font-family="Helvetica,sans-Serif" font-size="10.00"> TProperty &gt;</text>
</a>
</g>
</g>
<!-- Node19&#45;&gt;Node18 -->
<g id="edge6" class="edge">
<title>Node19&#45;&gt;Node18</title>
<path fill="none" stroke="midnightblue" d="M598.49,-75.5C626.91,-75.5 660.09,-75.5 691.77,-75.5"/>
<polygon fill="midnightblue" stroke="midnightblue" points="598.25,-72 588.25,-75.5 598.25,-79 598.25,-72"/>
</g>
<!-- Node20 -->
<g id="node8" class="node">
<title>Node20</title>
<g id="a_node8"><a xlink:title=" ">
<polygon fill="none" stroke="#bfbfbf" points="237,-66 237,-85 324,-85 324,-66 237,-66"/>
<text text-anchor="middle" x="280.5" y="-73" font-family="Helvetica,sans-Serif" font-size="10.00">AutoCloseable</text>
</a>
</g>
</g>
<!-- Node20&#45;&gt;Node19 -->
<g id="edge7" class="edge">
<title>Node20&#45;&gt;Node19</title>
<path fill="none" stroke="midnightblue" d="M334.62,-75.5C371,-75.5 419.44,-75.5 457.96,-75.5"/>
<polygon fill="midnightblue" stroke="midnightblue" points="334.22,-72 324.22,-75.5 334.22,-79 334.22,-72"/>
</g>
<!-- Node21 -->
<g id="node9" class="node">
<title>Node21</title>
<g id="a_node9"><a xlink:href="interfacefiftyone_1_1pipeline_1_1core_1_1data_1_1_element_data.html" target="_top" xlink:title="Represents property values that have be determined by a specific FlowElement based on the supplied ev...">
<polygon fill="none" stroke="black" points="207,-9.5 207,-39.5 354,-39.5 354,-9.5 207,-9.5"/>
<text text-anchor="start" x="215" y="-27.5" font-family="Helvetica,sans-Serif" font-size="10.00">fiftyone.pipeline.core.data.</text>
<text text-anchor="middle" x="280.5" y="-16.5" font-family="Helvetica,sans-Serif" font-size="10.00">ElementData</text>
</a>
</g>
</g>
<!-- Node21&#45;&gt;Node19 -->
<g id="edge8" class="edge">
<title>Node21&#45;&gt;Node19</title>
<path fill="none" stroke="orange" stroke-dasharray="5,2" d="M362.3,-41.64C393.41,-48.23 428.47,-55.67 457.8,-61.89"/>
<polygon fill="orange" stroke="orange" points="362.87,-38.18 352.36,-39.53 361.41,-45.02 362.87,-38.18"/>
<text text-anchor="middle" x="397.5" y="-56.5" font-family="Helvetica,sans-Serif" font-size="10.00"> TData</text>
</g>
<!-- Node24 -->
<g id="node12" class="node">
<title>Node24</title>
<g id="a_node12"><a xlink:href="interfacefiftyone_1_1pipeline_1_1engines_1_1data_1_1_aspect_data.html" target="_top" xlink:title="Represents a specialized ElementData instance that is generated by an AspectEngine.">
<polygon fill="none" stroke="black" points="441,-0.5 441,-30.5 605,-30.5 605,-0.5 441,-0.5"/>
<text text-anchor="start" x="449" y="-18.5" font-family="Helvetica,sans-Serif" font-size="10.00">fiftyone.pipeline.engines.data.</text>
<text text-anchor="middle" x="523" y="-7.5" font-family="Helvetica,sans-Serif" font-size="10.00">AspectData</text>
</a>
</g>
</g>
<!-- Node21&#45;&gt;Node24 -->
<g id="edge12" class="edge">
<title>Node21&#45;&gt;Node24</title>
<path fill="none" stroke="midnightblue" d="M364.36,-21.4C389.03,-20.48 416.03,-19.47 440.61,-18.55"/>
<polygon fill="midnightblue" stroke="midnightblue" points="364.17,-17.9 354.31,-21.78 364.43,-24.9 364.17,-17.9"/>
</g>
<!-- Node22 -->
<g id="node10" class="node">
<title>Node22</title>
<g id="a_node10"><a xlink:href="interfacefiftyone_1_1pipeline_1_1core_1_1data_1_1_data.html" target="_top" xlink:title="Represents a collection of property values.">
<polygon fill="none" stroke="black" points="0,-15 0,-34 170,-34 170,-15 0,-15"/>
<text text-anchor="middle" x="85" y="-22" font-family="Helvetica,sans-Serif" font-size="10.00">fiftyone.pipeline.core.data.Data</text>
</a>
</g>
</g>
<!-- Node22&#45;&gt;Node21 -->
<g id="edge9" class="edge">
<title>Node22&#45;&gt;Node21</title>
<path fill="none" stroke="midnightblue" d="M180.11,-24.5C189.07,-24.5 198.06,-24.5 206.77,-24.5"/>
<polygon fill="midnightblue" stroke="midnightblue" points="180.03,-21 170.03,-24.5 180.03,-28 180.03,-21"/>
</g>
<!-- Node23 -->
<g id="node11" class="node">
<title>Node23</title>
<g id="a_node11"><a xlink:href="interfacefiftyone_1_1pipeline_1_1core_1_1data_1_1_element_property_meta_data.html" target="_top" xlink:title="Defines details of a property that can be returned by a FlowElement.">
<polygon fill="none" stroke="black" points="207,-112.5 207,-142.5 354,-142.5 354,-112.5 207,-112.5"/>
<text text-anchor="start" x="215" y="-130.5" font-family="Helvetica,sans-Serif" font-size="10.00">fiftyone.pipeline.core.data.</text>
<text text-anchor="middle" x="280.5" y="-119.5" font-family="Helvetica,sans-Serif" font-size="10.00">ElementPropertyMetaData</text>
</a>
</g>
</g>
<!-- Node23&#45;&gt;Node19 -->
<g id="edge10" class="edge">
<title>Node23&#45;&gt;Node19</title>
<path fill="none" stroke="orange" stroke-dasharray="5,2" d="M361.11,-110.29C392.56,-103.49 428.21,-95.78 457.94,-89.35"/>
<polygon fill="orange" stroke="orange" points="360.1,-106.93 351.06,-112.46 361.58,-113.77 360.1,-106.93"/>
<text text-anchor="middle" x="397.5" y="-110.5" font-family="Helvetica,sans-Serif" font-size="10.00"> TProperty</text>
</g>
<!-- Node25 -->
<g id="node13" class="node">
<title>Node25</title>
<g id="a_node13"><a xlink:href="interfacefiftyone_1_1pipeline_1_1engines_1_1data_1_1_aspect_property_meta_data.html" target="_top" xlink:title="Holds details about a property that can be returned by an AspectEngine.">
<polygon fill="none" stroke="black" points="441,-120.5 441,-150.5 605,-150.5 605,-120.5 441,-120.5"/>
<text text-anchor="start" x="449" y="-138.5" font-family="Helvetica,sans-Serif" font-size="10.00">fiftyone.pipeline.engines.data.</text>
<text text-anchor="middle" x="523" y="-127.5" font-family="Helvetica,sans-Serif" font-size="10.00">AspectPropertyMetaData</text>
</a>
</g>
</g>
<!-- Node23&#45;&gt;Node25 -->
<g id="edge14" class="edge">
<title>Node23&#45;&gt;Node25</title>
<path fill="none" stroke="midnightblue" d="M364.36,-130.26C389.03,-131.08 416.03,-131.98 440.61,-132.79"/>
<polygon fill="midnightblue" stroke="midnightblue" points="364.42,-126.76 354.31,-129.92 364.19,-133.75 364.42,-126.76"/>
</g>
<!-- Node24&#45;&gt;Node18 -->
<g id="edge11" class="edge">
<title>Node24&#45;&gt;Node18</title>
<path fill="none" stroke="orange" stroke-dasharray="5,2" d="M606.48,-32.59C640.14,-39.57 679.35,-47.7 714.53,-54.99"/>
<polygon fill="orange" stroke="orange" points="607.18,-29.17 596.68,-30.56 605.76,-36.02 607.18,-29.17"/>
<text text-anchor="middle" x="648.5" y="-48.5" font-family="Helvetica,sans-Serif" font-size="10.00"> TData</text>
</g>
<!-- Node26 -->
<g id="node14" class="node">
<title>Node26</title>
<g id="a_node14"><a xlink:href="interfacefiftyone_1_1pipeline_1_1engines_1_1flowelements_1_1_cloud_aspect_engine.html" target="_top" xlink:title="Aspect engine interface which is specific to a cloud engine.">
<polygon fill="none" stroke="black" points="1439,-71.5 1439,-123.5 1687,-123.5 1687,-71.5 1439,-71.5"/>
<text text-anchor="start" x="1447" y="-111.5" font-family="Helvetica,sans-Serif" font-size="10.00">fiftyone.pipeline.engines.flowelements.</text>
<text text-anchor="start" x="1447" y="-100.5" font-family="Helvetica,sans-Serif" font-size="10.00">CloudAspectEngine&lt; TData extends</text>
<text text-anchor="start" x="1447" y="-89.5" font-family="Helvetica,sans-Serif" font-size="10.00"> AspectData, TProperty extends AspectProperty</text>
<text text-anchor="middle" x="1563" y="-78.5" font-family="Helvetica,sans-Serif" font-size="10.00">MetaData &gt;</text>
</a>
</g>
</g>
<!-- Node24&#45;&gt;Node26 -->
<g id="edge18" class="edge">
<title>Node24&#45;&gt;Node26</title>
<path fill="none" stroke="orange" stroke-dasharray="5,2" d="M615.23,-16.74C759.2,-19.42 1047.74,-27.81 1291,-53.5 1339.59,-58.63 1392.71,-66.71 1438.95,-74.55"/>
<polygon fill="orange" stroke="orange" points="615.18,-13.23 605.12,-16.55 615.05,-20.23 615.18,-13.23"/>
<text text-anchor="middle" x="1009.5" y="-37.5" font-family="Helvetica,sans-Serif" font-size="10.00"> TData</text>
</g>
<!-- Node25&#45;&gt;Node18 -->
<g id="edge13" class="edge">
<title>Node25&#45;&gt;Node18</title>
<path fill="none" stroke="orange" stroke-dasharray="5,2" d="M587.72,-117.96C599.41,-114.97 611.54,-112.02 623,-109.5 645.15,-104.62 668.86,-99.96 691.77,-95.72"/>
<polygon fill="orange" stroke="orange" points="586.82,-114.58 578.02,-120.48 588.58,-121.36 586.82,-114.58"/>
<text text-anchor="middle" x="648.5" y="-112.5" font-family="Helvetica,sans-Serif" font-size="10.00"> TProperty</text>
</g>
<!-- Node25&#45;&gt;Node26 -->
<g id="edge19" class="edge">
<title>Node25&#45;&gt;Node26</title>
<path fill="none" stroke="orange" stroke-dasharray="5,2" d="M615.07,-132.17C801.72,-125.33 1227.8,-109.73 1438.85,-102.01"/>
<polygon fill="orange" stroke="orange" points="614.88,-128.67 605.02,-132.53 615.14,-135.67 614.88,-128.67"/>
<text text-anchor="middle" x="1009.5" y="-122.5" font-family="Helvetica,sans-Serif" font-size="10.00"> TProperty</text>
</g>
<!-- Node26&#45;&gt;Node13 -->
<g id="edge15" class="edge">
<title>Node26&#45;&gt;Node13</title>
<path fill="none" stroke="orange" stroke-dasharray="5,2" d="M1697.28,-111.35C1720.08,-113.72 1743.61,-116.17 1765.9,-118.49"/>
<polygon fill="orange" stroke="orange" points="1697.52,-107.86 1687.21,-110.31 1696.79,-114.82 1697.52,-107.86"/>
<text text-anchor="middle" x="1726.5" y="-118.5" font-family="Helvetica,sans-Serif" font-size="10.00"> TEngine</text>
</g>
<!-- Node27&#45;&gt;Node26 -->
<g id="edge16" class="edge">
<title>Node27&#45;&gt;Node26</title>
<path fill="none" stroke="midnightblue" d="M1301.35,-84.28C1344.77,-86.48 1394.44,-89 1438.7,-91.24"/>
<polygon fill="midnightblue" stroke="midnightblue" points="1301.49,-80.78 1291.32,-83.77 1301.13,-87.77 1301.49,-80.78"/>
</g>
</g>
</svg>
