<?xml version="1.0" encoding="UTF-8" standalone="no"?>
<!DOCTYPE svg PUBLIC "-//W3C//DTD SVG 1.1//EN"
 "http://www.w3.org/Graphics/SVG/1.1/DTD/svg11.dtd">
<!-- Generated by graphviz version 2.43.0 (0)
 -->
<!-- Title: fiftyone.pipeline.engines.fiftyone.flowelements.ShareUsageBase Pages: 1 -->
<svg width="1664pt" height="275pt"
 viewBox="0.00 0.00 1664.00 274.50" xmlns="http://www.w3.org/2000/svg" xmlns:xlink="http://www.w3.org/1999/xlink">
<g id="graph0" class="graph" transform="scale(1 1) rotate(0) translate(4 270.5)">
<title>fiftyone.pipeline.engines.fiftyone.flowelements.ShareUsageBase</title>
<!-- Node9 -->
<g id="node1" class="node">
<title>Node9</title>
<g id="a_node1"><a xlink:title="Abstract base class for ShareUsage elements.">
<polygon fill="#bfbfbf" stroke="black" points="1408,-52 1408,-82 1656,-82 1656,-52 1408,-52"/>
<text text-anchor="start" x="1416" y="-70" font-family="Helvetica,sans-Serif" font-size="10.00">fiftyone.pipeline.engines.fiftyone.flowelements.</text>
<text text-anchor="middle" x="1532" y="-59" font-family="Helvetica,sans-Serif" font-size="10.00">ShareUsageBase</text>
</a>
</g>
</g>
<!-- Node10 -->
<g id="node2" class="node">
<title>Node10</title>
<g id="a_node2"><a xlink:href="classfiftyone_1_1pipeline_1_1core_1_1flowelements_1_1_flow_element_base.html" target="_top" xlink:title="Provides a base class from which authors may create new FlowElements.">
<polygon fill="none" stroke="black" points="1115,-115 1115,-167 1303,-167 1303,-115 1115,-115"/>
<text text-anchor="start" x="1123" y="-155" font-family="Helvetica,sans-Serif" font-size="10.00">fiftyone::pipeline</text>
<text text-anchor="start" x="1123" y="-144" font-family="Helvetica,sans-Serif" font-size="10.00">::core::flowelements</text>
<text text-anchor="start" x="1123" y="-133" font-family="Helvetica,sans-Serif" font-size="10.00">::FlowElementBase&lt; ElementData,</text>
<text text-anchor="middle" x="1209" y="-122" font-family="Helvetica,sans-Serif" font-size="10.00"> ElementPropertyMetaData &gt;</text>
</a>
</g>
</g>
<!-- Node10&#45;&gt;Node9 -->
<g id="edge1" class="edge">
<title>Node10&#45;&gt;Node9</title>
<path fill="none" stroke="midnightblue" d="M1313.16,-117.22C1363.17,-105.69 1421.73,-92.19 1465.53,-82.09"/>
<polygon fill="midnightblue" stroke="midnightblue" points="1312.24,-113.84 1303.28,-119.5 1313.81,-120.66 1312.24,-113.84"/>
</g>
<!-- Node11 -->
<g id="node3" class="node">
<title>Node11</title>
<g id="a_node3"><a xlink:href="interfacefiftyone_1_1pipeline_1_1core_1_1flowelements_1_1_flow_element.html" target="_top" xlink:title=" ">
<polygon fill="none" stroke="black" points="839,-172 839,-202 1030,-202 1030,-172 839,-172"/>
<text text-anchor="start" x="847" y="-190" font-family="Helvetica,sans-Serif" font-size="10.00">fiftyone.pipeline.core.flowelements.</text>
<text text-anchor="middle" x="934.5" y="-179" font-family="Helvetica,sans-Serif" font-size="10.00">FlowElement&lt; TData, TProperty &gt;</text>
</a>
</g>
</g>
<!-- Node11&#45;&gt;Node10 -->
<g id="edge2" class="edge">
<title>Node11&#45;&gt;Node10</title>
<path fill="none" stroke="midnightblue" d="M1034.65,-170.26C1060.83,-165.84 1088.98,-161.09 1114.83,-156.73"/>
<polygon fill="midnightblue" stroke="midnightblue" points="1034,-166.82 1024.73,-171.94 1035.17,-173.72 1034,-166.82"/>
</g>
<!-- Node12 -->
<g id="node4" class="node">
<title>Node12</title>
<g id="a_node4"><a xlink:href="interfacefiftyone_1_1pipeline_1_1core_1_1flowelements_1_1_flow_element.html" target="_top" xlink:title="A component that processes a FlowData (by examining its evidence, or by examining data processed by o...">
<polygon fill="none" stroke="black" points="441,-177.5 441,-218.5 694,-218.5 694,-177.5 441,-177.5"/>
<text text-anchor="start" x="449" y="-206.5" font-family="Helvetica,sans-Serif" font-size="10.00">fiftyone.pipeline.core.flowelements.</text>
<text text-anchor="start" x="449" y="-195.5" font-family="Helvetica,sans-Serif" font-size="10.00">FlowElement&lt; TData extends ElementData,</text>
<text text-anchor="middle" x="567.5" y="-184.5" font-family="Helvetica,sans-Serif" font-size="10.00"> TProperty extends ElementPropertyMetaData &gt;</text>
</a>
</g>
</g>
<!-- Node12&#45;&gt;Node11 -->
<g id="edge3" class="edge">
<title>Node12&#45;&gt;Node11</title>
<path fill="none" stroke="orange" stroke-dasharray="5,2" d="M704.2,-193.91C748.97,-192.56 797.77,-191.09 838.8,-189.85"/>
<polygon fill="orange" stroke="orange" points="704,-190.41 694.11,-194.21 704.21,-197.41 704,-190.41"/>
<text text-anchor="middle" x="766.5" y="-196" font-family="Helvetica,sans-Serif" font-size="10.00"> &lt; TData, TProperty &gt;</text>
</g>
<!-- Node13 -->
<g id="node5" class="node">
<title>Node13</title>
<g id="a_node5"><a xlink:title=" ">
<polygon fill="none" stroke="#bfbfbf" points="237,-190.5 237,-209.5 324,-209.5 324,-190.5 237,-190.5"/>
<text text-anchor="middle" x="280.5" y="-197.5" font-family="Helvetica,sans-Serif" font-size="10.00">AutoCloseable</text>
</a>
</g>
</g>
<!-- Node13&#45;&gt;Node12 -->
<g id="edge4" class="edge">
<title>Node13&#45;&gt;Node12</title>
<path fill="none" stroke="midnightblue" d="M334.4,-199.63C364.44,-199.42 403.4,-199.14 440.81,-198.88"/>
<polygon fill="midnightblue" stroke="midnightblue" points="334.14,-196.13 324.17,-199.7 334.19,-203.13 334.14,-196.13"/>
</g>
<!-- Node14 -->
<g id="node6" class="node">
<title>Node14</title>
<g id="a_node6"><a xlink:href="interfacefiftyone_1_1pipeline_1_1core_1_1data_1_1_element_data.html" target="_top" xlink:title="Represents property values that have be determined by a specific FlowElement based on the supplied ev...">
<polygon fill="none" stroke="black" points="207,-236 207,-266 354,-266 354,-236 207,-236"/>
<text text-anchor="start" x="215" y="-254" font-family="Helvetica,sans-Serif" font-size="10.00">fiftyone.pipeline.core.data.</text>
<text text-anchor="middle" x="280.5" y="-243" font-family="Helvetica,sans-Serif" font-size="10.00">ElementData</text>
</a>
</g>
</g>
<!-- Node14&#45;&gt;Node10 -->
<g id="edge11" class="edge">
<title>Node14&#45;&gt;Node10</title>
<path fill="none" stroke="orange" stroke-dasharray="5,2" d="M364.19,-255.47C503.44,-261.05 792.75,-264.29 1030,-212 1073.86,-202.33 1120.96,-183.12 1155.69,-167.11"/>
<polygon fill="orange" stroke="orange" points="364.16,-251.96 354.02,-255.05 363.87,-258.96 364.16,-251.96"/>
<text text-anchor="middle" x="766.5" y="-255" font-family="Helvetica,sans-Serif" font-size="10.00"> TData</text>
</g>
<!-- Node14&#45;&gt;Node12 -->
<g id="edge5" class="edge">
<title>Node14&#45;&gt;Node12</title>
<path fill="none" stroke="orange" stroke-dasharray="5,2" d="M363.98,-235.5C366.69,-234.99 369.37,-234.49 372,-234 399.01,-228.96 428.13,-223.56 455.41,-218.51"/>
<polygon fill="orange" stroke="orange" points="363.29,-232.06 354.11,-237.34 364.58,-238.95 363.29,-232.06"/>
<text text-anchor="middle" x="397.5" y="-237" font-family="Helvetica,sans-Serif" font-size="10.00"> TData</text>
</g>
<!-- Node15 -->
<g id="node7" class="node">
<title>Node15</title>
<g id="a_node7"><a xlink:href="interfacefiftyone_1_1pipeline_1_1core_1_1data_1_1_data.html" target="_top" xlink:title="Represents a collection of property values.">
<polygon fill="none" stroke="black" points="0,-241.5 0,-260.5 170,-260.5 170,-241.5 0,-241.5"/>
<text text-anchor="middle" x="85" y="-248.5" font-family="Helvetica,sans-Serif" font-size="10.00">fiftyone.pipeline.core.data.Data</text>
</a>
</g>
</g>
<!-- Node15&#45;&gt;Node14 -->
<g id="edge6" class="edge">
<title>Node15&#45;&gt;Node14</title>
<path fill="none" stroke="midnightblue" d="M180.11,-251C189.07,-251 198.06,-251 206.77,-251"/>
<polygon fill="midnightblue" stroke="midnightblue" points="180.03,-247.5 170.03,-251 180.03,-254.5 180.03,-247.5"/>
</g>
<!-- Node16 -->
<g id="node8" class="node">
<title>Node16</title>
<g id="a_node8"><a xlink:href="interfacefiftyone_1_1pipeline_1_1core_1_1data_1_1_element_property_meta_data.html" target="_top" xlink:title="Defines details of a property that can be returned by a FlowElement.">
<polygon fill="none" stroke="black" points="207,-134 207,-164 354,-164 354,-134 207,-134"/>
<text text-anchor="start" x="215" y="-152" font-family="Helvetica,sans-Serif" font-size="10.00">fiftyone.pipeline.core.data.</text>
<text text-anchor="middle" x="280.5" y="-141" font-family="Helvetica,sans-Serif" font-size="10.00">ElementPropertyMetaData</text>
</a>
</g>
</g>
<!-- Node16&#45;&gt;Node10 -->
<g id="edge12" class="edge">
<title>Node16&#45;&gt;Node10</title>
<path fill="none" stroke="orange" stroke-dasharray="5,2" d="M364.24,-148.29C536.68,-146.8 933.53,-143.37 1114.72,-141.81"/>
<polygon fill="orange" stroke="orange" points="364.17,-144.79 354.2,-148.37 364.23,-151.79 364.17,-144.79"/>
<text text-anchor="middle" x="766.5" y="-148" font-family="Helvetica,sans-Serif" font-size="10.00"> TProperty</text>
</g>
<!-- Node16&#45;&gt;Node12 -->
<g id="edge7" class="edge">
<title>Node16&#45;&gt;Node12</title>
<path fill="none" stroke="orange" stroke-dasharray="5,2" d="M364.29,-163.23C390.19,-167.69 419.3,-172.69 447.2,-177.49"/>
<polygon fill="orange" stroke="orange" points="364.6,-159.74 354.15,-161.49 363.42,-166.64 364.6,-159.74"/>
<text text-anchor="middle" x="397.5" y="-175" font-family="Helvetica,sans-Serif" font-size="10.00"> TProperty</text>
</g>
<!-- Node17 -->
<g id="node9" class="node">
<title>Node17</title>
<g id="a_node9"><a xlink:href="interfacefiftyone_1_1pipeline_1_1core_1_1typed_1_1_typed_key.html" target="_top" xlink:title=" ">
<polygon fill="none" stroke="black" points="858,-82 858,-112 1011,-112 1011,-82 858,-82"/>
<text text-anchor="start" x="866" y="-100" font-family="Helvetica,sans-Serif" font-size="10.00">fiftyone.pipeline.core.typed.</text>
<text text-anchor="middle" x="934.5" y="-89" font-family="Helvetica,sans-Serif" font-size="10.00">TypedKey&lt; TData &gt;</text>
</a>
</g>
</g>
<!-- Node17&#45;&gt;Node10 -->
<g id="edge8" class="edge">
<title>Node17&#45;&gt;Node10</title>
<path fill="none" stroke="#9a32cd" stroke-dasharray="5,2" d="M1021.32,-105.41C1045.84,-108.27 1072.54,-111.82 1097,-116 1102.84,-117 1108.84,-118.11 1114.87,-119.28"/>
<polygon fill="#9a32cd" stroke="#9a32cd" points="1021.66,-101.93 1011.32,-104.27 1020.86,-108.88 1021.66,-101.93"/>
<text text-anchor="middle" x="1072.5" y="-119" font-family="Helvetica,sans-Serif" font-size="10.00"> typedKey</text>
</g>
<!-- Node18 -->
<g id="node10" class="node">
<title>Node18</title>
<g id="a_node10"><a xlink:href="interfacefiftyone_1_1pipeline_1_1core_1_1typed_1_1_typed_key.html" target="_top" xlink:title="Holds a name and a type to allow for type safe operations on named values.">
<polygon fill="none" stroke="black" points="491,-82 491,-112 644,-112 644,-82 491,-82"/>
<text text-anchor="start" x="499" y="-100" font-family="Helvetica,sans-Serif" font-size="10.00">fiftyone.pipeline.core.typed.</text>
<text text-anchor="middle" x="567.5" y="-89" font-family="Helvetica,sans-Serif" font-size="10.00">TypedKey&lt; T &gt;</text>
</a>
</g>
</g>
<!-- Node18&#45;&gt;Node17 -->
<g id="edge9" class="edge">
<title>Node18&#45;&gt;Node17</title>
<path fill="none" stroke="orange" stroke-dasharray="5,2" d="M654.25,-97C716.04,-97 798.65,-97 857.97,-97"/>
<polygon fill="orange" stroke="orange" points="654.13,-93.5 644.13,-97 654.13,-100.5 654.13,-93.5"/>
<text text-anchor="middle" x="766.5" y="-100" font-family="Helvetica,sans-Serif" font-size="10.00"> &lt; TData &gt;</text>
</g>
<!-- Node19 -->
<g id="node11" class="node">
<title>Node19</title>
<g id="a_node11"><a xlink:title=" ">
<polygon fill="none" stroke="#bfbfbf" points="909.5,-43.5 909.5,-62.5 959.5,-62.5 959.5,-43.5 909.5,-43.5"/>
<text text-anchor="middle" x="934.5" y="-50.5" font-family="Helvetica,sans-Serif" font-size="10.00">Logger</text>
</a>
</g>
</g>
<!-- Node19&#45;&gt;Node10 -->
<g id="edge10" class="edge">
<title>Node19&#45;&gt;Node10</title>
<path fill="none" stroke="#9a32cd" stroke-dasharray="5,2" d="M969.79,-58.99C987.82,-62.37 1010.22,-66.93 1030,-72 1060.23,-79.75 1068.84,-79.54 1097,-93 1105.67,-97.15 1106.47,-100.57 1115,-105 1121.61,-108.43 1128.62,-111.72 1135.71,-114.83"/>
<polygon fill="#9a32cd" stroke="#9a32cd" points="970.21,-55.51 959.74,-57.15 968.94,-62.4 970.21,-55.51"/>
<text text-anchor="middle" x="1072.5" y="-96" font-family="Helvetica,sans-Serif" font-size="10.00"> logger</text>
</g>
<!-- Node20 -->
<g id="node12" class="node">
<title>Node20</title>
<g id="a_node12"><a xlink:title=" ">
<polygon fill="none" stroke="#bfbfbf" points="1155,-76.5 1155,-95.5 1263,-95.5 1263,-76.5 1155,-76.5"/>
<text text-anchor="middle" x="1209" y="-83.5" font-family="Helvetica,sans-Serif" font-size="10.00">SimpleDateFormat</text>
</a>
</g>
</g>
<!-- Node20&#45;&gt;Node9 -->
<g id="edge13" class="edge">
<title>Node20&#45;&gt;Node9</title>
<path fill="none" stroke="#9a32cd" stroke-dasharray="5,2" d="M1273,-82.27C1311.4,-80 1361.79,-77.02 1407.83,-74.29"/>
<polygon fill="#9a32cd" stroke="#9a32cd" points="1272.78,-78.78 1263.01,-82.86 1273.2,-85.77 1272.78,-78.78"/>
<text text-anchor="middle" x="1355.5" y="-83" font-family="Helvetica,sans-Serif" font-size="10.00"> DATE_FMT</text>
</g>
<!-- Node21 -->
<g id="node13" class="node">
<title>Node21</title>
<g id="a_node13"><a xlink:title=" ">
<polygon fill="none" stroke="#bfbfbf" points="1161.5,-38.5 1161.5,-57.5 1256.5,-57.5 1256.5,-38.5 1161.5,-38.5"/>
<text text-anchor="middle" x="1209" y="-45.5" font-family="Helvetica,sans-Serif" font-size="10.00">ExecutorService</text>
</a>
</g>
</g>
<!-- Node21&#45;&gt;Node9 -->
<g id="edge14" class="edge">
<title>Node21&#45;&gt;Node9</title>
<path fill="none" stroke="#9a32cd" stroke-dasharray="5,2" d="M1266.78,-51.36C1305.8,-53.67 1359.14,-56.83 1407.67,-59.7"/>
<polygon fill="#9a32cd" stroke="#9a32cd" points="1266.87,-47.86 1256.68,-50.76 1266.45,-54.85 1266.87,-47.86"/>
<text text-anchor="middle" x="1355.5" y="-62" font-family="Helvetica,sans-Serif" font-size="10.00"> executor</text>
</g>
<!-- Node22 -->
<g id="node14" class="node">
<title>Node22</title>
<g id="a_node14"><a xlink:title=" ">
<polygon fill="none" stroke="#bfbfbf" points="1184,-0.5 1184,-19.5 1234,-19.5 1234,-0.5 1184,-0.5"/>
<text text-anchor="middle" x="1209" y="-7.5" font-family="Helvetica,sans-Serif" font-size="10.00">Marker</text>
</a>
</g>
</g>
<!-- Node22&#45;&gt;Node9 -->
<g id="edge15" class="edge">
<title>Node22&#45;&gt;Node9</title>
<path fill="none" stroke="#9a32cd" stroke-dasharray="5,2" d="M1244.24,-15.46C1280.48,-21.29 1339.34,-30.93 1390,-40 1410.85,-43.73 1433.4,-47.96 1454.22,-51.95"/>
<polygon fill="#9a32cd" stroke="#9a32cd" points="1244.63,-11.97 1234.2,-13.84 1243.52,-18.88 1244.63,-11.97"/>
<text text-anchor="middle" x="1355.5" y="-43" font-family="Helvetica,sans-Serif" font-size="10.00"> threadMarker</text>
</g>
</g>
</svg>
