<?xml version="1.0" encoding="UTF-8" standalone="no"?>
<!DOCTYPE svg PUBLIC "-//W3C//DTD SVG 1.1//EN"
 "http://www.w3.org/Graphics/SVG/1.1/DTD/svg11.dtd">
<!-- Generated by graphviz version 2.43.0 (0)
 -->
<!-- Title: fiftyone.pipeline.cloudrequestengine.flowelements.CloudAspectEngineBase&lt; TData extends AspectData &gt; Pages: 1 -->
<svg width="2166pt" height="544pt"
 viewBox="0.00 0.00 2166.00 543.50" xmlns="http://www.w3.org/2000/svg" xmlns:xlink="http://www.w3.org/1999/xlink">
<g id="graph0" class="graph" transform="scale(1 1) rotate(0) translate(4 539.5)">
<title>fiftyone.pipeline.cloudrequestengine.flowelements.CloudAspectEngineBase&lt; TData extends AspectData &gt;</title>
<!-- Node17 -->
<g id="node1" class="node">
<title>Node17</title>
<g id="a_node1"><a xlink:title="Base class for 51Degrees Cloud Aspect Engines.">
<polygon fill="#bfbfbf" stroke="black" points="1892,-43.5 1892,-84.5 2158,-84.5 2158,-43.5 1892,-43.5"/>
<text text-anchor="start" x="1900" y="-72.5" font-family="Helvetica,sans-Serif" font-size="10.00">fiftyone.pipeline.cloudrequestengine.flowelements.</text>
<text text-anchor="start" x="1900" y="-61.5" font-family="Helvetica,sans-Serif" font-size="10.00">CloudAspectEngineBase&lt; TData extends</text>
<text text-anchor="middle" x="2025" y="-50.5" font-family="Helvetica,sans-Serif" font-size="10.00"> AspectData &gt;</text>
</a>
</g>
</g>
<!-- Node18 -->
<g id="node2" class="node">
<title>Node18</title>
<g id="a_node2"><a xlink:href="classfiftyone_1_1pipeline_1_1engines_1_1flowelements_1_1_aspect_engine_base.html" target="_top" xlink:title="Base class for AspectEngines to extend.">
<polygon fill="none" stroke="black" points="1697,-272 1697,-324 1853,-324 1853,-272 1697,-272"/>
<text text-anchor="start" x="1705" y="-312" font-family="Helvetica,sans-Serif" font-size="10.00">fiftyone::pipeline</text>
<text text-anchor="start" x="1705" y="-301" font-family="Helvetica,sans-Serif" font-size="10.00">::engines::flowelements</text>
<text text-anchor="start" x="1705" y="-290" font-family="Helvetica,sans-Serif" font-size="10.00">::AspectEngineBase&lt; TData,</text>
<text text-anchor="middle" x="1775" y="-279" font-family="Helvetica,sans-Serif" font-size="10.00"> AspectPropertyMetaData &gt;</text>
</a>
</g>
</g>
<!-- Node18&#45;&gt;Node17 -->
<g id="edge1" class="edge">
<title>Node18&#45;&gt;Node17</title>
<path fill="none" stroke="midnightblue" d="M1811.31,-264.69C1863.28,-215.65 1958.86,-125.46 2001.93,-84.82"/>
<polygon fill="midnightblue" stroke="midnightblue" points="1808.84,-262.2 1803.97,-271.61 1813.64,-267.29 1808.84,-262.2"/>
</g>
<!-- Node19 -->
<g id="node3" class="node">
<title>Node19</title>
<g id="a_node3"><a xlink:href="classfiftyone_1_1pipeline_1_1core_1_1flowelements_1_1_flow_element_base.html" target="_top" xlink:title="Provides a base class from which authors may create new FlowElements.">
<polygon fill="none" stroke="black" points="1358.5,-272 1358.5,-324 1512.5,-324 1512.5,-272 1358.5,-272"/>
<text text-anchor="start" x="1366.5" y="-312" font-family="Helvetica,sans-Serif" font-size="10.00">fiftyone::pipeline</text>
<text text-anchor="start" x="1366.5" y="-301" font-family="Helvetica,sans-Serif" font-size="10.00">::core::flowelements</text>
<text text-anchor="start" x="1366.5" y="-290" font-family="Helvetica,sans-Serif" font-size="10.00">::FlowElementBase&lt; TData,</text>
<text text-anchor="middle" x="1435.5" y="-279" font-family="Helvetica,sans-Serif" font-size="10.00"> TProperty &gt;</text>
</a>
</g>
</g>
<!-- Node19&#45;&gt;Node18 -->
<g id="edge2" class="edge">
<title>Node19&#45;&gt;Node18</title>
<path fill="none" stroke="midnightblue" d="M1522.86,-298C1576.58,-298 1645.07,-298 1696.95,-298"/>
<polygon fill="midnightblue" stroke="midnightblue" points="1522.66,-294.5 1512.66,-298 1522.66,-301.5 1522.66,-294.5"/>
</g>
<!-- Node20 -->
<g id="node4" class="node">
<title>Node20</title>
<g id="a_node4"><a xlink:href="interfacefiftyone_1_1pipeline_1_1core_1_1flowelements_1_1_flow_element.html" target="_top" xlink:title=" ">
<polygon fill="none" stroke="black" points="968,-368 968,-398 1159,-398 1159,-368 968,-368"/>
<text text-anchor="start" x="976" y="-386" font-family="Helvetica,sans-Serif" font-size="10.00">fiftyone.pipeline.core.flowelements.</text>
<text text-anchor="middle" x="1063.5" y="-375" font-family="Helvetica,sans-Serif" font-size="10.00">FlowElement&lt; TData, TProperty &gt;</text>
</a>
</g>
</g>
<!-- Node20&#45;&gt;Node19 -->
<g id="edge3" class="edge">
<title>Node20&#45;&gt;Node19</title>
<path fill="none" stroke="midnightblue" d="M1115.58,-364.62C1141.77,-355.69 1174.32,-345.33 1204,-338 1254.97,-325.42 1313.22,-315.35 1358.42,-308.46"/>
<polygon fill="midnightblue" stroke="midnightblue" points="1114.19,-361.4 1105.87,-367.97 1116.47,-368.02 1114.19,-361.4"/>
</g>
<!-- Node21 -->
<g id="node5" class="node">
<title>Node21</title>
<g id="a_node5"><a xlink:href="interfacefiftyone_1_1pipeline_1_1core_1_1flowelements_1_1_flow_element.html" target="_top" xlink:title="A component that processes a FlowData (by examining its evidence, or by examining data processed by o...">
<polygon fill="none" stroke="black" points="543,-352.5 543,-393.5 796,-393.5 796,-352.5 543,-352.5"/>
<text text-anchor="start" x="551" y="-381.5" font-family="Helvetica,sans-Serif" font-size="10.00">fiftyone.pipeline.core.flowelements.</text>
<text text-anchor="start" x="551" y="-370.5" font-family="Helvetica,sans-Serif" font-size="10.00">FlowElement&lt; TData extends ElementData,</text>
<text text-anchor="middle" x="669.5" y="-359.5" font-family="Helvetica,sans-Serif" font-size="10.00"> TProperty extends ElementPropertyMetaData &gt;</text>
</a>
</g>
</g>
<!-- Node21&#45;&gt;Node20 -->
<g id="edge4" class="edge">
<title>Node21&#45;&gt;Node20</title>
<path fill="none" stroke="orange" stroke-dasharray="5,2" d="M806.35,-376.47C859.55,-377.82 919.29,-379.35 967.69,-380.58"/>
<polygon fill="orange" stroke="orange" points="806.23,-372.96 796.15,-376.21 806.06,-379.96 806.23,-372.96"/>
<text text-anchor="middle" x="868.5" y="-383" font-family="Helvetica,sans-Serif" font-size="10.00"> &lt; TData, TProperty &gt;</text>
</g>
<!-- Node22 -->
<g id="node6" class="node">
<title>Node22</title>
<g id="a_node6"><a xlink:title=" ">
<polygon fill="none" stroke="#bfbfbf" points="339,-281.5 339,-300.5 426,-300.5 426,-281.5 339,-281.5"/>
<text text-anchor="middle" x="382.5" y="-288.5" font-family="Helvetica,sans-Serif" font-size="10.00">AutoCloseable</text>
</a>
</g>
</g>
<!-- Node22&#45;&gt;Node21 -->
<g id="edge5" class="edge">
<title>Node22&#45;&gt;Node21</title>
<path fill="none" stroke="midnightblue" d="M410.54,-305.13C428.21,-313.88 452.01,-324.8 474,-332 498.43,-340 525.12,-346.82 550.67,-352.47"/>
<polygon fill="midnightblue" stroke="midnightblue" points="411.91,-301.9 401.41,-300.52 408.76,-308.15 411.91,-301.9"/>
</g>
<!-- Node31 -->
<g id="node15" class="node">
<title>Node31</title>
<g id="a_node15"><a xlink:href="interfacefiftyone_1_1pipeline_1_1core_1_1flowelements_1_1_flow_element.html" target="_top" xlink:title="A component that processes a FlowData (by examining its evidence, or by examining data processed by o...">
<polygon fill="none" stroke="black" points="604.5,-99 604.5,-151 734.5,-151 734.5,-99 604.5,-99"/>
<text text-anchor="start" x="612.5" y="-139" font-family="Helvetica,sans-Serif" font-size="10.00">fiftyone::pipeline</text>
<text text-anchor="start" x="612.5" y="-128" font-family="Helvetica,sans-Serif" font-size="10.00">::core::flowelements</text>
<text text-anchor="start" x="612.5" y="-117" font-family="Helvetica,sans-Serif" font-size="10.00">::FlowElement&lt; TData,</text>
<text text-anchor="middle" x="669.5" y="-106" font-family="Helvetica,sans-Serif" font-size="10.00"> TProperty &gt;</text>
</a>
</g>
</g>
<!-- Node22&#45;&gt;Node31 -->
<g id="edge17" class="edge">
<title>Node22&#45;&gt;Node31</title>
<path fill="none" stroke="midnightblue" d="M436.39,-297.22C466.28,-297.66 502.13,-292.53 525,-270 560.29,-235.23 509.95,-196.9 543,-160 558.55,-142.65 581.9,-133.59 604.26,-128.97"/>
<polygon fill="midnightblue" stroke="midnightblue" points="436.22,-293.71 426.1,-296.85 435.97,-300.71 436.22,-293.71"/>
</g>
<!-- Node23 -->
<g id="node7" class="node">
<title>Node23</title>
<g id="a_node7"><a xlink:href="interfacefiftyone_1_1pipeline_1_1core_1_1data_1_1_element_data.html" target="_top" xlink:title="Represents property values that have be determined by a specific FlowElement based on the supplied ev...">
<polygon fill="none" stroke="black" points="309,-160 309,-190 456,-190 456,-160 309,-160"/>
<text text-anchor="start" x="317" y="-178" font-family="Helvetica,sans-Serif" font-size="10.00">fiftyone.pipeline.core.data.</text>
<text text-anchor="middle" x="382.5" y="-167" font-family="Helvetica,sans-Serif" font-size="10.00">ElementData</text>
</a>
</g>
</g>
<!-- Node23&#45;&gt;Node19 -->
<g id="edge12" class="edge">
<title>Node23&#45;&gt;Node19</title>
<path fill="none" stroke="orange" stroke-dasharray="5,2" d="M434.26,-194.02C462.2,-205.6 496.82,-221.86 525,-241 534.1,-247.18 532.85,-253.74 543,-258 608.93,-285.65 1114.6,-278.37 1186,-282 1243.86,-284.94 1309.23,-289.19 1358.4,-292.57"/>
<polygon fill="orange" stroke="orange" points="435.26,-190.64 424.68,-190.11 432.62,-197.13 435.26,-190.64"/>
<text text-anchor="middle" x="868.5" y="-283" font-family="Helvetica,sans-Serif" font-size="10.00"> TData</text>
</g>
<!-- Node23&#45;&gt;Node21 -->
<g id="edge6" class="edge">
<title>Node23&#45;&gt;Node21</title>
<path fill="none" stroke="orange" stroke-dasharray="5,2" d="M411.69,-196.47C443.28,-220.34 496.2,-259.78 543,-292 573.86,-313.25 609.87,-336.32 635.38,-352.38"/>
<polygon fill="orange" stroke="orange" points="413.45,-193.41 403.37,-190.17 409.23,-198.99 413.45,-193.41"/>
<text text-anchor="middle" x="499.5" y="-280" font-family="Helvetica,sans-Serif" font-size="10.00"> TData</text>
</g>
<!-- Node23&#45;&gt;Node31 -->
<g id="edge18" class="edge">
<title>Node23&#45;&gt;Node31</title>
<path fill="none" stroke="orange" stroke-dasharray="5,2" d="M466.25,-160.48C510.2,-152.77 563.42,-143.43 604.23,-136.27"/>
<polygon fill="orange" stroke="orange" points="465.4,-157.08 456.15,-162.25 466.61,-163.97 465.4,-157.08"/>
<text text-anchor="middle" x="499.5" y="-162" font-family="Helvetica,sans-Serif" font-size="10.00"> TData</text>
</g>
<!-- Node32 -->
<g id="node16" class="node">
<title>Node32</title>
<g id="a_node16"><a xlink:href="interfacefiftyone_1_1pipeline_1_1engines_1_1data_1_1_aspect_data.html" target="_top" xlink:title="Represents a specialized ElementData instance that is generated by an AspectEngine.">
<polygon fill="none" stroke="black" points="587.5,-50 587.5,-80 751.5,-80 751.5,-50 587.5,-50"/>
<text text-anchor="start" x="595.5" y="-68" font-family="Helvetica,sans-Serif" font-size="10.00">fiftyone.pipeline.engines.data.</text>
<text text-anchor="middle" x="669.5" y="-57" font-family="Helvetica,sans-Serif" font-size="10.00">AspectData</text>
</a>
</g>
</g>
<!-- Node23&#45;&gt;Node32 -->
<g id="edge21" class="edge">
<title>Node23&#45;&gt;Node32</title>
<path fill="none" stroke="midnightblue" d="M414.65,-154.47C445.87,-134.81 495.92,-105.74 543,-89 557,-84.02 572.27,-80 587.19,-76.78"/>
<polygon fill="midnightblue" stroke="midnightblue" points="412.53,-151.67 405.98,-159.99 416.29,-157.57 412.53,-151.67"/>
</g>
<!-- Node24 -->
<g id="node8" class="node">
<title>Node24</title>
<g id="a_node8"><a xlink:href="interfacefiftyone_1_1pipeline_1_1core_1_1data_1_1_data.html" target="_top" xlink:title="Represents a collection of property values.">
<polygon fill="none" stroke="black" points="102,-165.5 102,-184.5 272,-184.5 272,-165.5 102,-165.5"/>
<text text-anchor="middle" x="187" y="-172.5" font-family="Helvetica,sans-Serif" font-size="10.00">fiftyone.pipeline.core.data.Data</text>
</a>
</g>
</g>
<!-- Node24&#45;&gt;Node23 -->
<g id="edge7" class="edge">
<title>Node24&#45;&gt;Node23</title>
<path fill="none" stroke="midnightblue" d="M282.11,-175C291.07,-175 300.06,-175 308.77,-175"/>
<polygon fill="midnightblue" stroke="midnightblue" points="282.03,-171.5 272.03,-175 282.03,-178.5 282.03,-171.5"/>
</g>
<!-- Node25 -->
<g id="node9" class="node">
<title>Node25</title>
<g id="a_node9"><a xlink:href="interfacefiftyone_1_1pipeline_1_1core_1_1data_1_1_element_property_meta_data.html" target="_top" xlink:title="Defines details of a property that can be returned by a FlowElement.">
<polygon fill="none" stroke="black" points="309,-357 309,-387 456,-387 456,-357 309,-357"/>
<text text-anchor="start" x="317" y="-375" font-family="Helvetica,sans-Serif" font-size="10.00">fiftyone.pipeline.core.data.</text>
<text text-anchor="middle" x="382.5" y="-364" font-family="Helvetica,sans-Serif" font-size="10.00">ElementPropertyMetaData</text>
</a>
</g>
</g>
<!-- Node25&#45;&gt;Node19 -->
<g id="edge13" class="edge">
<title>Node25&#45;&gt;Node19</title>
<path fill="none" stroke="orange" stroke-dasharray="5,2" d="M447.65,-389.43C456.46,-391.49 465.43,-393.42 474,-395 504.36,-400.59 512.19,-401.06 543,-403 685.61,-411.96 1067.36,-486.65 1186,-407 1203.54,-395.22 1188.07,-376.88 1204,-363 1241.7,-330.13 1264.84,-348.51 1313,-335 1327.76,-330.86 1343.45,-326.24 1358.5,-321.71"/>
<polygon fill="orange" stroke="orange" points="448.34,-385.99 437.8,-387.05 446.7,-392.8 448.34,-385.99"/>
<text text-anchor="middle" x="868.5" y="-445" font-family="Helvetica,sans-Serif" font-size="10.00"> TProperty</text>
</g>
<!-- Node25&#45;&gt;Node21 -->
<g id="edge8" class="edge">
<title>Node25&#45;&gt;Node21</title>
<path fill="none" stroke="orange" stroke-dasharray="5,2" d="M466.25,-378.66C468.86,-378.79 471.45,-378.9 474,-379 496.28,-379.86 520,-379.88 542.94,-379.43"/>
<polygon fill="orange" stroke="orange" points="466.26,-375.16 456.08,-378.11 465.88,-382.15 466.26,-375.16"/>
<text text-anchor="middle" x="499.5" y="-383" font-family="Helvetica,sans-Serif" font-size="10.00"> TProperty</text>
</g>
<!-- Node25&#45;&gt;Node31 -->
<g id="edge19" class="edge">
<title>Node25&#45;&gt;Node31</title>
<path fill="none" stroke="orange" stroke-dasharray="5,2" d="M414.11,-351.32C431.31,-340.15 453.4,-326.52 474,-316 495.83,-304.85 510.04,-314.42 525,-295 561.94,-247.05 503.28,-205.68 543,-160 558.36,-142.33 581.81,-133.23 604.31,-128.65"/>
<polygon fill="orange" stroke="orange" points="412.03,-348.5 405.59,-356.91 415.87,-354.35 412.03,-348.5"/>
<text text-anchor="middle" x="499.5" y="-319" font-family="Helvetica,sans-Serif" font-size="10.00"> TProperty</text>
</g>
<!-- Node33 -->
<g id="node17" class="node">
<title>Node33</title>
<g id="a_node17"><a xlink:href="interfacefiftyone_1_1pipeline_1_1engines_1_1data_1_1_aspect_property_meta_data.html" target="_top" xlink:title="Holds details about a property that can be returned by an AspectEngine.">
<polygon fill="none" stroke="black" points="587.5,-170 587.5,-200 751.5,-200 751.5,-170 587.5,-170"/>
<text text-anchor="start" x="595.5" y="-188" font-family="Helvetica,sans-Serif" font-size="10.00">fiftyone.pipeline.engines.data.</text>
<text text-anchor="middle" x="669.5" y="-177" font-family="Helvetica,sans-Serif" font-size="10.00">AspectPropertyMetaData</text>
</a>
</g>
</g>
<!-- Node25&#45;&gt;Node33 -->
<g id="edge23" class="edge">
<title>Node25&#45;&gt;Node33</title>
<path fill="none" stroke="midnightblue" d="M465.98,-363.21C488.06,-356.93 509.94,-346.43 525,-329 560.25,-288.18 505.64,-247.89 543,-209 554.76,-196.76 570.69,-189.7 587.26,-185.8"/>
<polygon fill="midnightblue" stroke="midnightblue" points="465,-359.85 456.19,-365.73 466.75,-366.63 465,-359.85"/>
</g>
<!-- Node26 -->
<g id="node10" class="node">
<title>Node26</title>
<g id="a_node10"><a xlink:href="interfacefiftyone_1_1pipeline_1_1core_1_1typed_1_1_typed_key.html" target="_top" xlink:title=" ">
<polygon fill="none" stroke="black" points="987,-204 987,-234 1140,-234 1140,-204 987,-204"/>
<text text-anchor="start" x="995" y="-222" font-family="Helvetica,sans-Serif" font-size="10.00">fiftyone.pipeline.core.typed.</text>
<text text-anchor="middle" x="1063.5" y="-211" font-family="Helvetica,sans-Serif" font-size="10.00">TypedKey&lt; TData &gt;</text>
</a>
</g>
</g>
<!-- Node26&#45;&gt;Node19 -->
<g id="edge9" class="edge">
<title>Node26&#45;&gt;Node19</title>
<path fill="none" stroke="#9a32cd" stroke-dasharray="5,2" d="M1150.41,-217.56C1198.91,-218.72 1260.21,-223.53 1313,-238 1340.57,-245.56 1369.34,-259.45 1391.95,-271.97"/>
<polygon fill="#9a32cd" stroke="#9a32cd" points="1150.32,-214.06 1140.26,-217.37 1150.19,-221.06 1150.32,-214.06"/>
<text text-anchor="middle" x="1258.5" y="-241" font-family="Helvetica,sans-Serif" font-size="10.00"> typedKey</text>
</g>
<!-- Node27 -->
<g id="node11" class="node">
<title>Node27</title>
<g id="a_node11"><a xlink:href="interfacefiftyone_1_1pipeline_1_1core_1_1typed_1_1_typed_key.html" target="_top" xlink:title="Holds a name and a type to allow for type safe operations on named values.">
<polygon fill="none" stroke="black" points="593,-219 593,-249 746,-249 746,-219 593,-219"/>
<text text-anchor="start" x="601" y="-237" font-family="Helvetica,sans-Serif" font-size="10.00">fiftyone.pipeline.core.typed.</text>
<text text-anchor="middle" x="669.5" y="-226" font-family="Helvetica,sans-Serif" font-size="10.00">TypedKey&lt; T &gt;</text>
</a>
</g>
</g>
<!-- Node27&#45;&gt;Node26 -->
<g id="edge10" class="edge">
<title>Node27&#45;&gt;Node26</title>
<path fill="none" stroke="orange" stroke-dasharray="5,2" d="M756.46,-230.71C825.28,-228.08 920.87,-224.42 986.82,-221.9"/>
<polygon fill="orange" stroke="orange" points="755.94,-227.23 746.08,-231.11 756.21,-234.22 755.94,-227.23"/>
<text text-anchor="middle" x="868.5" y="-232" font-family="Helvetica,sans-Serif" font-size="10.00"> &lt; TData &gt;</text>
</g>
<!-- Node28 -->
<g id="node12" class="node">
<title>Node28</title>
<g id="a_node12"><a xlink:title=" ">
<polygon fill="none" stroke="#bfbfbf" points="1038.5,-291.5 1038.5,-310.5 1088.5,-310.5 1088.5,-291.5 1038.5,-291.5"/>
<text text-anchor="middle" x="1063.5" y="-298.5" font-family="Helvetica,sans-Serif" font-size="10.00">Logger</text>
</a>
</g>
</g>
<!-- Node28&#45;&gt;Node19 -->
<g id="edge11" class="edge">
<title>Node28&#45;&gt;Node19</title>
<path fill="none" stroke="#9a32cd" stroke-dasharray="5,2" d="M1098.85,-300.41C1127.08,-299.95 1168.13,-299.33 1204,-299 1255.52,-298.52 1313.52,-298.27 1358.45,-298.14"/>
<polygon fill="#9a32cd" stroke="#9a32cd" points="1098.63,-296.91 1088.69,-300.58 1098.75,-303.91 1098.63,-296.91"/>
<text text-anchor="middle" x="1258.5" y="-302" font-family="Helvetica,sans-Serif" font-size="10.00"> logger</text>
</g>
<!-- Node29 -->
<g id="node13" class="node">
<title>Node29</title>
<g id="a_node13"><a xlink:href="interfacefiftyone_1_1pipeline_1_1engines_1_1flowelements_1_1_aspect_engine.html" target="_top" xlink:title=" ">
<polygon fill="none" stroke="black" points="1331,-111 1331,-141 1540,-141 1540,-111 1331,-111"/>
<text text-anchor="start" x="1339" y="-129" font-family="Helvetica,sans-Serif" font-size="10.00">fiftyone.pipeline.engines.flowelements.</text>
<text text-anchor="middle" x="1435.5" y="-118" font-family="Helvetica,sans-Serif" font-size="10.00">AspectEngine&lt; TData, TProperty &gt;</text>
</a>
</g>
</g>
<!-- Node29&#45;&gt;Node18 -->
<g id="edge14" class="edge">
<title>Node29&#45;&gt;Node18</title>
<path fill="none" stroke="midnightblue" d="M1475.08,-145.66C1536.06,-176.74 1654.8,-237.25 1722.83,-271.92"/>
<polygon fill="midnightblue" stroke="midnightblue" points="1476.65,-142.54 1466.16,-141.11 1473.48,-148.77 1476.65,-142.54"/>
</g>
<!-- Node42 -->
<g id="node26" class="node">
<title>Node42</title>
<g id="a_node26"><a xlink:href="interfacefiftyone_1_1pipeline_1_1engines_1_1flowelements_1_1_cloud_aspect_engine.html" target="_top" xlink:title="Aspect engine interface which is specific to a cloud engine.">
<polygon fill="none" stroke="black" points="1695,-38 1695,-90 1855,-90 1855,-38 1695,-38"/>
<text text-anchor="start" x="1703" y="-78" font-family="Helvetica,sans-Serif" font-size="10.00">fiftyone::pipeline</text>
<text text-anchor="start" x="1703" y="-67" font-family="Helvetica,sans-Serif" font-size="10.00">::engines::flowelements</text>
<text text-anchor="start" x="1703" y="-56" font-family="Helvetica,sans-Serif" font-size="10.00">::CloudAspectEngine&lt; TData,</text>
<text text-anchor="middle" x="1775" y="-45" font-family="Helvetica,sans-Serif" font-size="10.00"> AspectPropertyMetaData &gt;</text>
</a>
</g>
</g>
<!-- Node29&#45;&gt;Node42 -->
<g id="edge35" class="edge">
<title>Node29&#45;&gt;Node42</title>
<path fill="none" stroke="midnightblue" d="M1528.11,-109.17C1580.24,-99.59 1644.88,-87.72 1694.8,-78.55"/>
<polygon fill="midnightblue" stroke="midnightblue" points="1527.4,-105.74 1518.2,-110.99 1528.67,-112.63 1527.4,-105.74"/>
</g>
<!-- Node30 -->
<g id="node14" class="node">
<title>Node30</title>
<g id="a_node14"><a xlink:href="interfacefiftyone_1_1pipeline_1_1engines_1_1flowelements_1_1_aspect_engine.html" target="_top" xlink:title="AspectEngines are a subset of FlowElements.">
<polygon fill="none" stroke="black" points="941,-105.5 941,-146.5 1186,-146.5 1186,-105.5 941,-105.5"/>
<text text-anchor="start" x="949" y="-134.5" font-family="Helvetica,sans-Serif" font-size="10.00">fiftyone.pipeline.engines.flowelements.</text>
<text text-anchor="start" x="949" y="-123.5" font-family="Helvetica,sans-Serif" font-size="10.00">AspectEngine&lt; TData extends AspectData,</text>
<text text-anchor="middle" x="1063.5" y="-112.5" font-family="Helvetica,sans-Serif" font-size="10.00"> TProperty extends AspectPropertyMetaData &gt;</text>
</a>
</g>
</g>
<!-- Node30&#45;&gt;Node29 -->
<g id="edge15" class="edge">
<title>Node30&#45;&gt;Node29</title>
<path fill="none" stroke="orange" stroke-dasharray="5,2" d="M1196.39,-126C1240.53,-126 1289.07,-126 1330.74,-126"/>
<polygon fill="orange" stroke="orange" points="1196.16,-122.5 1186.16,-126 1196.16,-129.5 1196.16,-122.5"/>
<text text-anchor="middle" x="1258.5" y="-129" font-family="Helvetica,sans-Serif" font-size="10.00"> &lt; TData, TProperty &gt;</text>
</g>
<!-- Node31&#45;&gt;Node30 -->
<g id="edge16" class="edge">
<title>Node31&#45;&gt;Node30</title>
<path fill="none" stroke="midnightblue" d="M744.85,-125.19C800.08,-125.33 876.63,-125.53 940.75,-125.69"/>
<polygon fill="midnightblue" stroke="midnightblue" points="744.8,-121.69 734.79,-125.16 744.78,-128.69 744.8,-121.69"/>
</g>
<!-- Node32&#45;&gt;Node17 -->
<g id="edge38" class="edge">
<title>Node32&#45;&gt;Node17</title>
<path fill="none" stroke="orange" stroke-dasharray="5,2" d="M735.93,-47.39C813.31,-28.14 946.3,0 1062.5,0 1062.5,0 1062.5,0 1776,0 1846.7,0 1925.25,-24.69 1974.62,-43.4"/>
<polygon fill="orange" stroke="orange" points="734.69,-44.09 725.85,-49.92 736.4,-50.88 734.69,-44.09"/>
<text text-anchor="middle" x="1435.5" y="-3" font-family="Helvetica,sans-Serif" font-size="10.00"> TData</text>
</g>
<!-- Node32&#45;&gt;Node18 -->
<g id="edge32" class="edge">
<title>Node32&#45;&gt;Node18</title>
<path fill="none" stroke="orange" stroke-dasharray="5,2" d="M761.96,-62.83C954.82,-59.21 1397.21,-56.27 1540,-101 1636.54,-131.24 1718.98,-225.56 1754.84,-271.85"/>
<polygon fill="orange" stroke="orange" points="761.78,-59.33 751.85,-63.02 761.91,-66.33 761.78,-59.33"/>
<text text-anchor="middle" x="1258.5" y="-73" font-family="Helvetica,sans-Serif" font-size="10.00"> TData</text>
</g>
<!-- Node32&#45;&gt;Node30 -->
<g id="edge20" class="edge">
<title>Node32&#45;&gt;Node30</title>
<path fill="none" stroke="orange" stroke-dasharray="5,2" d="M761.84,-79.21C815.12,-87.5 883.01,-98.07 940.79,-107.06"/>
<polygon fill="orange" stroke="orange" points="762.14,-75.72 751.72,-77.64 761.07,-82.64 762.14,-75.72"/>
<text text-anchor="middle" x="868.5" y="-106" font-family="Helvetica,sans-Serif" font-size="10.00"> TData</text>
</g>
<!-- Node32&#45;&gt;Node42 -->
<g id="edge36" class="edge">
<title>Node32&#45;&gt;Node42</title>
<path fill="none" stroke="orange" stroke-dasharray="5,2" d="M761.76,-56.5C779.09,-55.13 797.1,-53.88 814,-53 1035.51,-41.48 1091.24,-40.43 1313,-45 1447.14,-47.76 1603.1,-55.04 1694.9,-59.75"/>
<polygon fill="orange" stroke="orange" points="761.33,-53.02 751.64,-57.32 761.89,-60 761.33,-53.02"/>
<text text-anchor="middle" x="1258.5" y="-48" font-family="Helvetica,sans-Serif" font-size="10.00"> TData</text>
</g>
<!-- Node33&#45;&gt;Node18 -->
<g id="edge33" class="edge">
<title>Node33&#45;&gt;Node18</title>
<path fill="none" stroke="orange" stroke-dasharray="5,2" d="M761.31,-194.49C773.48,-197.98 785.4,-202.69 796,-209 806.86,-215.46 803.35,-224.2 814,-231 856.16,-257.92 887.01,-224.27 923,-259 943.34,-278.63 918.65,-302.7 941,-320 993.65,-360.74 1473.61,-337.94 1540,-333 1592.64,-329.09 1651.39,-320.28 1696.86,-312.48"/>
<polygon fill="orange" stroke="orange" points="762.08,-191.07 751.52,-191.94 760.32,-197.85 762.08,-191.07"/>
<text text-anchor="middle" x="1258.5" y="-347" font-family="Helvetica,sans-Serif" font-size="10.00"> TProperty</text>
</g>
<!-- Node33&#45;&gt;Node30 -->
<g id="edge22" class="edge">
<title>Node33&#45;&gt;Node30</title>
<path fill="none" stroke="orange" stroke-dasharray="5,2" d="M761.73,-168.59C779.07,-165.62 797.08,-162.63 814,-160 855.2,-153.6 900.34,-147.22 940.72,-141.76"/>
<polygon fill="orange" stroke="orange" points="760.88,-165.19 751.62,-170.34 762.07,-172.08 760.88,-165.19"/>
<text text-anchor="middle" x="868.5" y="-163" font-family="Helvetica,sans-Serif" font-size="10.00"> TProperty</text>
</g>
<!-- Node33&#45;&gt;Node42 -->
<g id="edge37" class="edge">
<title>Node33&#45;&gt;Node42</title>
<path fill="none" stroke="orange" stroke-dasharray="5,2" d="M761.8,-189.17C921.11,-194.71 1259.63,-198.76 1540,-150 1604.18,-138.84 1673.77,-111.08 1720.23,-90.09"/>
<polygon fill="orange" stroke="orange" points="761.69,-185.67 751.57,-188.81 761.44,-192.66 761.69,-185.67"/>
<text text-anchor="middle" x="1258.5" y="-189" font-family="Helvetica,sans-Serif" font-size="10.00"> TProperty</text>
</g>
<!-- Node34 -->
<g id="node18" class="node">
<title>Node34</title>
<g id="a_node18"><a xlink:href="interfacefiftyone_1_1pipeline_1_1engines_1_1caching_1_1_flow_cache.html" target="_top" xlink:title="Used to cache results from individual flow elements in the pipeline.">
<polygon fill="none" stroke="black" points="1345.5,-484 1345.5,-514 1525.5,-514 1525.5,-484 1345.5,-484"/>
<text text-anchor="start" x="1353.5" y="-502" font-family="Helvetica,sans-Serif" font-size="10.00">fiftyone.pipeline.engines.caching.</text>
<text text-anchor="middle" x="1435.5" y="-491" font-family="Helvetica,sans-Serif" font-size="10.00">FlowCache</text>
</a>
</g>
</g>
<!-- Node34&#45;&gt;Node18 -->
<g id="edge24" class="edge">
<title>Node34&#45;&gt;Node18</title>
<path fill="none" stroke="#9a32cd" stroke-dasharray="5,2" d="M1535.65,-495.29C1581.95,-489.44 1635.81,-476.35 1677,-448 1721.83,-417.14 1750.78,-358.1 1764.56,-324.01"/>
<polygon fill="#9a32cd" stroke="#9a32cd" points="1535.11,-491.83 1525.59,-496.46 1535.92,-498.78 1535.11,-491.83"/>
<text text-anchor="middle" x="1617.5" y="-494" font-family="Helvetica,sans-Serif" font-size="10.00"> cache</text>
</g>
<!-- Node35 -->
<g id="node19" class="node">
<title>Node35</title>
<g id="a_node19"><a xlink:href="interfacefiftyone_1_1pipeline_1_1engines_1_1caching_1_1_data_keyed_cache.html" target="_top" xlink:title=" ">
<polygon fill="none" stroke="black" points="970.5,-505 970.5,-535 1156.5,-535 1156.5,-505 970.5,-505"/>
<text text-anchor="start" x="978.5" y="-523" font-family="Helvetica,sans-Serif" font-size="10.00">fiftyone.pipeline.engines.caching.</text>
<text text-anchor="middle" x="1063.5" y="-512" font-family="Helvetica,sans-Serif" font-size="10.00">DataKeyedCache&lt; ElementData &gt;</text>
</a>
</g>
</g>
<!-- Node35&#45;&gt;Node34 -->
<g id="edge25" class="edge">
<title>Node35&#45;&gt;Node34</title>
<path fill="none" stroke="midnightblue" d="M1167.21,-514.17C1223.2,-510.99 1291.81,-507.1 1345.5,-504.05"/>
<polygon fill="midnightblue" stroke="midnightblue" points="1166.7,-510.69 1156.91,-514.75 1167.09,-517.68 1166.7,-510.69"/>
</g>
<!-- Node36 -->
<g id="node20" class="node">
<title>Node36</title>
<g id="a_node20"><a xlink:href="interfacefiftyone_1_1pipeline_1_1engines_1_1caching_1_1_data_keyed_cache.html" target="_top" xlink:title="Represents a put cache where the key is a FlowData instance.">
<polygon fill="none" stroke="black" points="579.5,-505 579.5,-535 759.5,-535 759.5,-505 579.5,-505"/>
<text text-anchor="start" x="587.5" y="-523" font-family="Helvetica,sans-Serif" font-size="10.00">fiftyone.pipeline.engines.caching.</text>
<text text-anchor="middle" x="669.5" y="-512" font-family="Helvetica,sans-Serif" font-size="10.00">DataKeyedCache&lt; V &gt;</text>
</a>
</g>
</g>
<!-- Node36&#45;&gt;Node35 -->
<g id="edge26" class="edge">
<title>Node36&#45;&gt;Node35</title>
<path fill="none" stroke="orange" stroke-dasharray="5,2" d="M770.07,-520C831.67,-520 910.21,-520 970.38,-520"/>
<polygon fill="orange" stroke="orange" points="769.94,-516.5 759.94,-520 769.94,-523.5 769.94,-516.5"/>
<text text-anchor="middle" x="868.5" y="-523" font-family="Helvetica,sans-Serif" font-size="10.00"> &lt; ElementData &gt;</text>
</g>
<!-- Node37 -->
<g id="node21" class="node">
<title>Node37</title>
<g id="a_node21"><a xlink:href="interfacefiftyone_1_1caching_1_1_put_cache.html" target="_top" xlink:title="A cache that supports a thread safe put method for inserting to cache.">
<polygon fill="none" stroke="black" points="310.5,-505 310.5,-535 454.5,-535 454.5,-505 310.5,-505"/>
<text text-anchor="start" x="318.5" y="-523" font-family="Helvetica,sans-Serif" font-size="10.00">fiftyone::caching::</text>
<text text-anchor="middle" x="382.5" y="-512" font-family="Helvetica,sans-Serif" font-size="10.00">PutCache&lt; FlowData, V &gt;</text>
</a>
</g>
</g>
<!-- Node37&#45;&gt;Node36 -->
<g id="edge27" class="edge">
<title>Node37&#45;&gt;Node36</title>
<path fill="none" stroke="midnightblue" d="M465.07,-520C500.79,-520 542.8,-520 579.35,-520"/>
<polygon fill="midnightblue" stroke="midnightblue" points="464.68,-516.5 454.68,-520 464.68,-523.5 464.68,-516.5"/>
</g>
<!-- Node38 -->
<g id="node22" class="node">
<title>Node38</title>
<g id="a_node22"><a xlink:href="interfacefiftyone_1_1caching_1_1_cache.html" target="_top" xlink:title="Base cache interface which declares only the get method and the types of key and value stored in the ...">
<polygon fill="none" stroke="black" points="135.5,-505 135.5,-535 238.5,-535 238.5,-505 135.5,-505"/>
<text text-anchor="start" x="143.5" y="-523" font-family="Helvetica,sans-Serif" font-size="10.00">fiftyone::caching::</text>
<text text-anchor="middle" x="187" y="-512" font-family="Helvetica,sans-Serif" font-size="10.00">Cache&lt; K, V &gt;</text>
</a>
</g>
</g>
<!-- Node38&#45;&gt;Node37 -->
<g id="edge28" class="edge">
<title>Node38&#45;&gt;Node37</title>
<path fill="none" stroke="midnightblue" d="M248.61,-520C268.23,-520 290.16,-520 310.46,-520"/>
<polygon fill="midnightblue" stroke="midnightblue" points="248.59,-516.5 238.59,-520 248.59,-523.5 248.59,-516.5"/>
</g>
<!-- Node39 -->
<g id="node23" class="node">
<title>Node39</title>
<g id="a_node23"><a xlink:title=" ">
<polygon fill="none" stroke="#bfbfbf" points="0,-510.5 0,-529.5 65,-529.5 65,-510.5 0,-510.5"/>
<text text-anchor="middle" x="32.5" y="-517.5" font-family="Helvetica,sans-Serif" font-size="10.00">Closeable</text>
</a>
</g>
</g>
<!-- Node39&#45;&gt;Node38 -->
<g id="edge29" class="edge">
<title>Node39&#45;&gt;Node38</title>
<path fill="none" stroke="midnightblue" d="M75.28,-520C93.81,-520 115.77,-520 135.23,-520"/>
<polygon fill="midnightblue" stroke="midnightblue" points="75.1,-516.5 65.1,-520 75.1,-523.5 75.1,-516.5"/>
</g>
<!-- Node40 -->
<g id="node24" class="node">
<title>Node40</title>
<g id="a_node24"><a xlink:href="interfacefiftyone_1_1pipeline_1_1engines_1_1services_1_1_missing_property_service.html" target="_top" xlink:title="Service used by AspectEngines to report the reason for a property not being present in the results.">
<polygon fill="none" stroke="black" points="1344,-427 1344,-457 1527,-457 1527,-427 1344,-427"/>
<text text-anchor="start" x="1352" y="-445" font-family="Helvetica,sans-Serif" font-size="10.00">fiftyone.pipeline.engines.services.</text>
<text text-anchor="middle" x="1435.5" y="-434" font-family="Helvetica,sans-Serif" font-size="10.00">MissingPropertyService</text>
</a>
</g>
</g>
<!-- Node40&#45;&gt;Node18 -->
<g id="edge30" class="edge">
<title>Node40&#45;&gt;Node18</title>
<path fill="none" stroke="#9a32cd" stroke-dasharray="5,2" d="M1537.06,-436.27C1581.97,-430.39 1634.28,-418.77 1677,-396 1709.53,-378.66 1738.03,-346.72 1755.57,-324.02"/>
<polygon fill="#9a32cd" stroke="#9a32cd" points="1536.5,-432.81 1527.01,-437.5 1537.36,-439.76 1536.5,-432.81"/>
<text text-anchor="middle" x="1617.5" y="-436" font-family="Helvetica,sans-Serif" font-size="10.00"> missingPropertyService</text>
</g>
<!-- Node41 -->
<g id="node25" class="node">
<title>Node41</title>
<g id="a_node25"><a xlink:href="interfacefiftyone_1_1pipeline_1_1core_1_1services_1_1_pipeline_service.html" target="_top" xlink:title="Service interface used by PipelineBuilder to hand out services to elements which required them.">
<polygon fill="none" stroke="black" points="980.5,-456 980.5,-486 1146.5,-486 1146.5,-456 980.5,-456"/>
<text text-anchor="start" x="988.5" y="-474" font-family="Helvetica,sans-Serif" font-size="10.00">fiftyone.pipeline.core.services.</text>
<text text-anchor="middle" x="1063.5" y="-463" font-family="Helvetica,sans-Serif" font-size="10.00">PipelineService</text>
</a>
</g>
</g>
<!-- Node41&#45;&gt;Node40 -->
<g id="edge31" class="edge">
<title>Node41&#45;&gt;Node40</title>
<path fill="none" stroke="midnightblue" d="M1156.73,-463.77C1213.89,-459.29 1287,-453.56 1343.86,-449.1"/>
<polygon fill="midnightblue" stroke="midnightblue" points="1156.31,-460.29 1146.61,-464.56 1156.86,-467.27 1156.31,-460.29"/>
</g>
<!-- Node42&#45;&gt;Node17 -->
<g id="edge34" class="edge">
<title>Node42&#45;&gt;Node17</title>
<path fill="none" stroke="midnightblue" d="M1865.21,-64C1873.89,-64 1882.82,-64 1891.8,-64"/>
<polygon fill="midnightblue" stroke="midnightblue" points="1865.15,-60.5 1855.15,-64 1865.15,-67.5 1865.15,-60.5"/>
</g>
</g>
</svg>
