<?xml version="1.0" encoding="UTF-8" standalone="no"?>
<!DOCTYPE svg PUBLIC "-//W3C//DTD SVG 1.1//EN"
 "http://www.w3.org/Graphics/SVG/1.1/DTD/svg11.dtd">
<!-- Generated by graphviz version 2.43.0 (0)
 -->
<!-- Title: fiftyone.pipeline.engines.fiftyone.flowelements.SetHeadersElement.PipelineConfig Pages: 1 -->
<svg width="980pt" height="68pt"
 viewBox="0.00 0.00 980.00 67.50" xmlns="http://www.w3.org/2000/svg" xmlns:xlink="http://www.w3.org/1999/xlink">
<g id="graph0" class="graph" transform="scale(1 1) rotate(0) translate(4 63.5)">
<title>fiftyone.pipeline.engines.fiftyone.flowelements.SetHeadersElement.PipelineConfig</title>
<!-- Node1 -->
<g id="node1" class="node">
<title>Node1</title>
<g id="a_node1"><a xlink:title="Internal class to hold &#39;SetHeader&#39; properties available per pipeline.">
<polygon fill="#bfbfbf" stroke="black" points="724,-0.5 724,-30.5 972,-30.5 972,-0.5 724,-0.5"/>
<text text-anchor="start" x="732" y="-18.5" font-family="Helvetica,sans-Serif" font-size="10.00">fiftyone.pipeline.engines.fiftyone.flowelements.</text>
<text text-anchor="middle" x="848" y="-7.5" font-family="Helvetica,sans-Serif" font-size="10.00">SetHeadersElement.PipelineConfig</text>
</a>
</g>
</g>
<!-- Node2 -->
<g id="node2" class="node">
<title>Node2</title>
<g id="a_node2"><a xlink:title=" ">
<polygon fill="none" stroke="#bfbfbf" points="270,-0.5 270,-30.5 585,-30.5 585,-0.5 270,-0.5"/>
<text text-anchor="start" x="278" y="-18.5" font-family="Helvetica,sans-Serif" font-size="10.00">Map&lt; String, fiftyone.pipeline.engines.fiftyone.flowelements.</text>
<text text-anchor="middle" x="427.5" y="-7.5" font-family="Helvetica,sans-Serif" font-size="10.00">SetHeadersElement.PropertyDetails &gt;</text>
</a>
</g>
</g>
<!-- Node2&#45;&gt;Node1 -->
<g id="edge1" class="edge">
<title>Node2&#45;&gt;Node1</title>
<path fill="none" stroke="#9a32cd" stroke-dasharray="5,2" d="M595.49,-15.5C638.36,-15.5 683.7,-15.5 723.91,-15.5"/>
<polygon fill="#9a32cd" stroke="#9a32cd" points="595.23,-12 585.23,-15.5 595.23,-19 595.23,-12"/>
<text text-anchor="middle" x="654.5" y="-18.5" font-family="Helvetica,sans-Serif" font-size="10.00"> setHeaderProperties</text>
</g>
<!-- Node3 -->
<g id="node3" class="node">
<title>Node3</title>
<g id="a_node3"><a xlink:title=" ">
<polygon fill="none" stroke="#bfbfbf" points="0,-6 0,-25 38,-25 38,-6 0,-6"/>
<text text-anchor="middle" x="19" y="-13" font-family="Helvetica,sans-Serif" font-size="10.00">Map</text>
</a>
</g>
</g>
<!-- Node3&#45;&gt;Node2 -->
<g id="edge2" class="edge">
<title>Node3&#45;&gt;Node2</title>
<path fill="none" stroke="orange" stroke-dasharray="5,2" d="M48.31,-15.5C94.04,-15.5 187.41,-15.5 269.93,-15.5"/>
<polygon fill="orange" stroke="orange" points="48.26,-12 38.26,-15.5 48.26,-19 48.26,-12"/>
<text text-anchor="start" x="56" y="-51.5" font-family="Helvetica,sans-Serif" font-size="10.00"> &lt; String, fiftyone</text>
<text text-anchor="start" x="56" y="-40.5" font-family="Helvetica,sans-Serif" font-size="10.00">::pipeline::engines</text>
<text text-anchor="start" x="56" y="-29.5" font-family="Helvetica,sans-Serif" font-size="10.00">::fiftyone::flowelements</text>
<text text-anchor="middle" x="154" y="-18.5" font-family="Helvetica,sans-Serif" font-size="10.00">::SetHeadersElement::PropertyDetails &gt;</text>
</g>
</g>
</svg>
