<?xml version="1.0" encoding="UTF-8" standalone="no"?>
<!DOCTYPE svg PUBLIC "-//W3C//DTD SVG 1.1//EN"
 "http://www.w3.org/Graphics/SVG/1.1/DTD/svg11.dtd">
<!-- Generated by graphviz version 2.43.0 (0)
 -->
<!-- Title: fiftyone.pipeline.jsonbuilder.flowelements.JsonBuilderElement Pages: 1 -->
<svg width="1746pt" height="268pt"
 viewBox="0.00 0.00 1746.00 267.50" xmlns="http://www.w3.org/2000/svg" xmlns:xlink="http://www.w3.org/1999/xlink">
<g id="graph0" class="graph" transform="scale(1 1) rotate(0) translate(4 263.5)">
<title>fiftyone.pipeline.jsonbuilder.flowelements.JsonBuilderElement</title>
<!-- Node10 -->
<g id="node1" class="node">
<title>Node10</title>
<g id="a_node1"><a xlink:title="[class] [constructor]">
<polygon fill="#bfbfbf" stroke="black" points="1514,-48.5 1514,-78.5 1738,-78.5 1738,-48.5 1514,-48.5"/>
<text text-anchor="start" x="1522" y="-66.5" font-family="Helvetica,sans-Serif" font-size="10.00">fiftyone.pipeline.jsonbuilder.flowelements.</text>
<text text-anchor="middle" x="1626" y="-55.5" font-family="Helvetica,sans-Serif" font-size="10.00">JsonBuilderElement</text>
</a>
</g>
</g>
<!-- Node11 -->
<g id="node2" class="node">
<title>Node11</title>
<g id="a_node2"><a xlink:href="classfiftyone_1_1pipeline_1_1core_1_1flowelements_1_1_flow_element_base.html" target="_top" xlink:title="Provides a base class from which authors may create new FlowElements.">
<polygon fill="none" stroke="black" points="1290,-78.5 1290,-130.5 1477,-130.5 1477,-78.5 1290,-78.5"/>
<text text-anchor="start" x="1298" y="-118.5" font-family="Helvetica,sans-Serif" font-size="10.00">fiftyone::pipeline</text>
<text text-anchor="start" x="1298" y="-107.5" font-family="Helvetica,sans-Serif" font-size="10.00">::core::flowelements</text>
<text text-anchor="start" x="1298" y="-96.5" font-family="Helvetica,sans-Serif" font-size="10.00">::FlowElementBase&lt; JsonBuilder</text>
<text text-anchor="middle" x="1383.5" y="-85.5" font-family="Helvetica,sans-Serif" font-size="10.00">Data, ElementPropertyMetaData &gt;</text>
</a>
</g>
</g>
<!-- Node11&#45;&gt;Node10 -->
<g id="edge1" class="edge">
<title>Node11&#45;&gt;Node10</title>
<path fill="none" stroke="midnightblue" d="M1487.32,-86.97C1503.78,-84.17 1520.68,-81.28 1536.76,-78.54"/>
<polygon fill="midnightblue" stroke="midnightblue" points="1486.41,-83.58 1477.14,-88.71 1487.59,-90.48 1486.41,-83.58"/>
</g>
<!-- Node12 -->
<g id="node3" class="node">
<title>Node12</title>
<g id="a_node3"><a xlink:href="interfacefiftyone_1_1pipeline_1_1core_1_1flowelements_1_1_flow_element.html" target="_top" xlink:title=" ">
<polygon fill="none" stroke="black" points="839,-116.5 839,-146.5 1030,-146.5 1030,-116.5 839,-116.5"/>
<text text-anchor="start" x="847" y="-134.5" font-family="Helvetica,sans-Serif" font-size="10.00">fiftyone.pipeline.core.flowelements.</text>
<text text-anchor="middle" x="934.5" y="-123.5" font-family="Helvetica,sans-Serif" font-size="10.00">FlowElement&lt; TData, TProperty &gt;</text>
</a>
</g>
</g>
<!-- Node12&#45;&gt;Node11 -->
<g id="edge2" class="edge">
<title>Node12&#45;&gt;Node11</title>
<path fill="none" stroke="midnightblue" d="M1040.05,-125.19C1115.65,-120.62 1216.88,-114.5 1289.64,-110.11"/>
<polygon fill="midnightblue" stroke="midnightblue" points="1039.79,-121.69 1030.02,-125.79 1040.22,-128.68 1039.79,-121.69"/>
</g>
<!-- Node13 -->
<g id="node4" class="node">
<title>Node13</title>
<g id="a_node4"><a xlink:href="interfacefiftyone_1_1pipeline_1_1core_1_1flowelements_1_1_flow_element.html" target="_top" xlink:title="A component that processes a FlowData (by examining its evidence, or by examining data processed by o...">
<polygon fill="none" stroke="black" points="441,-102 441,-143 694,-143 694,-102 441,-102"/>
<text text-anchor="start" x="449" y="-131" font-family="Helvetica,sans-Serif" font-size="10.00">fiftyone.pipeline.core.flowelements.</text>
<text text-anchor="start" x="449" y="-120" font-family="Helvetica,sans-Serif" font-size="10.00">FlowElement&lt; TData extends ElementData,</text>
<text text-anchor="middle" x="567.5" y="-109" font-family="Helvetica,sans-Serif" font-size="10.00"> TProperty extends ElementPropertyMetaData &gt;</text>
</a>
</g>
</g>
<!-- Node13&#45;&gt;Node12 -->
<g id="edge3" class="edge">
<title>Node13&#45;&gt;Node12</title>
<path fill="none" stroke="orange" stroke-dasharray="5,2" d="M704.2,-125.85C748.97,-126.95 797.77,-128.15 838.8,-129.16"/>
<polygon fill="orange" stroke="orange" points="704.2,-122.34 694.11,-125.6 704.02,-129.34 704.2,-122.34"/>
<text text-anchor="middle" x="766.5" y="-131.5" font-family="Helvetica,sans-Serif" font-size="10.00"> &lt; TData, TProperty &gt;</text>
</g>
<!-- Node14 -->
<g id="node5" class="node">
<title>Node14</title>
<g id="a_node5"><a xlink:title=" ">
<polygon fill="none" stroke="#bfbfbf" points="237,-81 237,-100 324,-100 324,-81 237,-81"/>
<text text-anchor="middle" x="280.5" y="-88" font-family="Helvetica,sans-Serif" font-size="10.00">AutoCloseable</text>
</a>
</g>
</g>
<!-- Node14&#45;&gt;Node13 -->
<g id="edge4" class="edge">
<title>Node14&#45;&gt;Node13</title>
<path fill="none" stroke="midnightblue" d="M334.4,-96.44C364.44,-99.81 403.4,-104.19 440.81,-108.39"/>
<polygon fill="midnightblue" stroke="midnightblue" points="334.5,-92.93 324.17,-95.29 333.71,-99.88 334.5,-92.93"/>
</g>
<!-- Node22 -->
<g id="node13" class="node">
<title>Node22</title>
<g id="a_node13"><a xlink:href="interfacefiftyone_1_1pipeline_1_1core_1_1flowelements_1_1_flow_element.html" target="_top" xlink:title="A component that processes a FlowData (by examining its evidence, or by examining data processed by o...">
<polygon fill="none" stroke="black" points="478,-18.5 478,-70.5 657,-70.5 657,-18.5 478,-18.5"/>
<text text-anchor="start" x="486" y="-58.5" font-family="Helvetica,sans-Serif" font-size="10.00">fiftyone::pipeline</text>
<text text-anchor="start" x="486" y="-47.5" font-family="Helvetica,sans-Serif" font-size="10.00">::core::flowelements</text>
<text text-anchor="start" x="486" y="-36.5" font-family="Helvetica,sans-Serif" font-size="10.00">::FlowElement&lt; JsonBuilderData,</text>
<text text-anchor="middle" x="567.5" y="-25.5" font-family="Helvetica,sans-Serif" font-size="10.00"> ElementPropertyMetaData &gt;</text>
</a>
</g>
</g>
<!-- Node14&#45;&gt;Node22 -->
<g id="edge15" class="edge">
<title>Node14&#45;&gt;Node22</title>
<path fill="none" stroke="midnightblue" d="M334.28,-81.98C374.48,-75.49 430.74,-66.41 477.81,-58.81"/>
<polygon fill="midnightblue" stroke="midnightblue" points="333.48,-78.56 324.17,-83.61 334.6,-85.48 333.48,-78.56"/>
</g>
<!-- Node15 -->
<g id="node6" class="node">
<title>Node15</title>
<g id="a_node6"><a xlink:href="interfacefiftyone_1_1pipeline_1_1core_1_1data_1_1_element_data.html" target="_top" xlink:title="Represents property values that have be determined by a specific FlowElement based on the supplied ev...">
<polygon fill="none" stroke="black" points="207,-3.5 207,-33.5 354,-33.5 354,-3.5 207,-3.5"/>
<text text-anchor="start" x="215" y="-21.5" font-family="Helvetica,sans-Serif" font-size="10.00">fiftyone.pipeline.core.data.</text>
<text text-anchor="middle" x="280.5" y="-10.5" font-family="Helvetica,sans-Serif" font-size="10.00">ElementData</text>
</a>
</g>
</g>
<!-- Node15&#45;&gt;Node11 -->
<g id="edge11" class="edge">
<title>Node15&#45;&gt;Node11</title>
<path fill="none" stroke="orange" stroke-dasharray="5,2" d="M364.16,-12.33C388.87,-10.75 416.02,-9.28 441,-8.5 811.73,3.11 905.33,-29.57 1272,-85.5 1277.87,-86.4 1283.91,-87.35 1289.99,-88.33"/>
<polygon fill="orange" stroke="orange" points="363.86,-8.84 354.11,-12.99 364.31,-15.83 363.86,-8.84"/>
<text text-anchor="middle" x="766.5" y="-21.5" font-family="Helvetica,sans-Serif" font-size="10.00"> TData</text>
</g>
<!-- Node15&#45;&gt;Node13 -->
<g id="edge5" class="edge">
<title>Node15&#45;&gt;Node13</title>
<path fill="none" stroke="orange" stroke-dasharray="5,2" d="M329.16,-37.23C360.77,-49.53 403.24,-65.81 441,-79.5 461.79,-87.03 484.63,-94.96 505.07,-101.93"/>
<polygon fill="orange" stroke="orange" points="330.3,-33.92 319.71,-33.55 327.76,-40.44 330.3,-33.92"/>
<text text-anchor="middle" x="397.5" y="-75.5" font-family="Helvetica,sans-Serif" font-size="10.00"> TData</text>
</g>
<!-- Node15&#45;&gt;Node22 -->
<g id="edge16" class="edge">
<title>Node15&#45;&gt;Node22</title>
<path fill="none" stroke="orange" stroke-dasharray="5,2" d="M364.56,-16.79C383.78,-17.04 404.13,-17.8 423,-19.5 440.76,-21.1 459.62,-23.71 477.62,-26.66"/>
<polygon fill="orange" stroke="orange" points="364.35,-13.29 354.32,-16.71 364.3,-20.29 364.35,-13.29"/>
<text text-anchor="middle" x="397.5" y="-22.5" font-family="Helvetica,sans-Serif" font-size="10.00"> TData</text>
</g>
<!-- Node16 -->
<g id="node7" class="node">
<title>Node16</title>
<g id="a_node7"><a xlink:href="interfacefiftyone_1_1pipeline_1_1core_1_1data_1_1_data.html" target="_top" xlink:title="Represents a collection of property values.">
<polygon fill="none" stroke="black" points="0,-9 0,-28 170,-28 170,-9 0,-9"/>
<text text-anchor="middle" x="85" y="-16" font-family="Helvetica,sans-Serif" font-size="10.00">fiftyone.pipeline.core.data.Data</text>
</a>
</g>
</g>
<!-- Node16&#45;&gt;Node15 -->
<g id="edge6" class="edge">
<title>Node16&#45;&gt;Node15</title>
<path fill="none" stroke="midnightblue" d="M180.11,-18.5C189.07,-18.5 198.06,-18.5 206.77,-18.5"/>
<polygon fill="midnightblue" stroke="midnightblue" points="180.03,-15 170.03,-18.5 180.03,-22 180.03,-15"/>
</g>
<!-- Node17 -->
<g id="node8" class="node">
<title>Node17</title>
<g id="a_node8"><a xlink:href="interfacefiftyone_1_1pipeline_1_1core_1_1data_1_1_element_property_meta_data.html" target="_top" xlink:title="Defines details of a property that can be returned by a FlowElement.">
<polygon fill="none" stroke="black" points="207,-155.5 207,-185.5 354,-185.5 354,-155.5 207,-155.5"/>
<text text-anchor="start" x="215" y="-173.5" font-family="Helvetica,sans-Serif" font-size="10.00">fiftyone.pipeline.core.data.</text>
<text text-anchor="middle" x="280.5" y="-162.5" font-family="Helvetica,sans-Serif" font-size="10.00">ElementPropertyMetaData</text>
</a>
</g>
</g>
<!-- Node17&#45;&gt;Node11 -->
<g id="edge12" class="edge">
<title>Node17&#45;&gt;Node11</title>
<path fill="none" stroke="orange" stroke-dasharray="5,2" d="M364.45,-171.63C383.68,-171.74 404.05,-171.73 423,-171.5 692.84,-168.17 760.69,-173.71 1030,-156.5 1137.91,-149.6 1165.45,-149.93 1272,-131.5 1277.84,-130.49 1283.82,-129.35 1289.85,-128.11"/>
<polygon fill="orange" stroke="orange" points="364.24,-168.12 354.21,-171.55 364.19,-175.12 364.24,-168.12"/>
<text text-anchor="middle" x="766.5" y="-171.5" font-family="Helvetica,sans-Serif" font-size="10.00"> TProperty</text>
</g>
<!-- Node17&#45;&gt;Node13 -->
<g id="edge7" class="edge">
<title>Node17&#45;&gt;Node13</title>
<path fill="none" stroke="orange" stroke-dasharray="5,2" d="M364.24,-157.99C383.54,-154.98 404,-151.7 423,-148.5 433.24,-146.78 443.88,-144.94 454.52,-143.07"/>
<polygon fill="orange" stroke="orange" points="363.61,-154.55 354.27,-159.54 364.69,-161.46 363.61,-154.55"/>
<text text-anchor="middle" x="397.5" y="-159.5" font-family="Helvetica,sans-Serif" font-size="10.00"> TProperty</text>
</g>
<!-- Node17&#45;&gt;Node22 -->
<g id="edge17" class="edge">
<title>Node17&#45;&gt;Node22</title>
<path fill="none" stroke="orange" stroke-dasharray="5,2" d="M319.26,-150.85C351.3,-134.46 398.68,-110.9 441,-92.5 458.33,-84.97 477.26,-77.4 495.03,-70.56"/>
<polygon fill="orange" stroke="orange" points="317.54,-147.8 310.24,-155.48 320.74,-154.02 317.54,-147.8"/>
<text text-anchor="middle" x="397.5" y="-125.5" font-family="Helvetica,sans-Serif" font-size="10.00"> TProperty</text>
</g>
<!-- Node18 -->
<g id="node9" class="node">
<title>Node18</title>
<g id="a_node9"><a xlink:href="interfacefiftyone_1_1pipeline_1_1core_1_1typed_1_1_typed_key.html" target="_top" xlink:title=" ">
<polygon fill="none" stroke="black" points="858,-225.5 858,-255.5 1011,-255.5 1011,-225.5 858,-225.5"/>
<text text-anchor="start" x="866" y="-243.5" font-family="Helvetica,sans-Serif" font-size="10.00">fiftyone.pipeline.core.typed.</text>
<text text-anchor="middle" x="934.5" y="-232.5" font-family="Helvetica,sans-Serif" font-size="10.00">TypedKey&lt; TData &gt;</text>
</a>
</g>
</g>
<!-- Node18&#45;&gt;Node11 -->
<g id="edge8" class="edge">
<title>Node18&#45;&gt;Node11</title>
<path fill="none" stroke="#9a32cd" stroke-dasharray="5,2" d="M1021.47,-248.13C1091.93,-250.88 1192.61,-246.6 1272,-210.5 1310.72,-192.89 1344.2,-155.89 1363.87,-130.61"/>
<polygon fill="#9a32cd" stroke="#9a32cd" points="1021.44,-244.63 1011.3,-247.68 1021.13,-251.62 1021.44,-244.63"/>
<text text-anchor="middle" x="1160" y="-251.5" font-family="Helvetica,sans-Serif" font-size="10.00"> typedKey</text>
</g>
<!-- Node19 -->
<g id="node10" class="node">
<title>Node19</title>
<g id="a_node10"><a xlink:href="interfacefiftyone_1_1pipeline_1_1core_1_1typed_1_1_typed_key.html" target="_top" xlink:title="Holds a name and a type to allow for type safe operations on named values.">
<polygon fill="none" stroke="black" points="491,-225.5 491,-255.5 644,-255.5 644,-225.5 491,-225.5"/>
<text text-anchor="start" x="499" y="-243.5" font-family="Helvetica,sans-Serif" font-size="10.00">fiftyone.pipeline.core.typed.</text>
<text text-anchor="middle" x="567.5" y="-232.5" font-family="Helvetica,sans-Serif" font-size="10.00">TypedKey&lt; T &gt;</text>
</a>
</g>
</g>
<!-- Node19&#45;&gt;Node18 -->
<g id="edge9" class="edge">
<title>Node19&#45;&gt;Node18</title>
<path fill="none" stroke="orange" stroke-dasharray="5,2" d="M654.25,-240.5C716.04,-240.5 798.65,-240.5 857.97,-240.5"/>
<polygon fill="orange" stroke="orange" points="654.13,-237 644.13,-240.5 654.13,-244 654.13,-237"/>
<text text-anchor="middle" x="766.5" y="-243.5" font-family="Helvetica,sans-Serif" font-size="10.00"> &lt; TData &gt;</text>
</g>
<!-- Node20 -->
<g id="node11" class="node">
<title>Node20</title>
<g id="a_node11"><a xlink:title=" ">
<polygon fill="none" stroke="#bfbfbf" points="909.5,-78 909.5,-97 959.5,-97 959.5,-78 909.5,-78"/>
<text text-anchor="middle" x="934.5" y="-85" font-family="Helvetica,sans-Serif" font-size="10.00">Logger</text>
</a>
</g>
</g>
<!-- Node20&#45;&gt;Node11 -->
<g id="edge10" class="edge">
<title>Node20&#45;&gt;Node11</title>
<path fill="none" stroke="#9a32cd" stroke-dasharray="5,2" d="M969.77,-88.14C1030.63,-89.36 1161.57,-92.36 1272,-97.5 1277.86,-97.77 1283.89,-98.08 1289.96,-98.41"/>
<polygon fill="#9a32cd" stroke="#9a32cd" points="969.65,-84.64 959.58,-87.94 969.51,-91.63 969.65,-84.64"/>
<text text-anchor="middle" x="1160" y="-100.5" font-family="Helvetica,sans-Serif" font-size="10.00"> logger</text>
</g>
<!-- Node21 -->
<g id="node12" class="node">
<title>Node21</title>
<g id="a_node12"><a xlink:href="interfacefiftyone_1_1pipeline_1_1jsonbuilder_1_1flowelements_1_1_json_builder.html" target="_top" xlink:title="The JsonBuilderElement takes accessible properties and adds the property key:values to the Json objec...">
<polygon fill="none" stroke="black" points="1048,-0.5 1048,-30.5 1272,-30.5 1272,-0.5 1048,-0.5"/>
<text text-anchor="start" x="1056" y="-18.5" font-family="Helvetica,sans-Serif" font-size="10.00">fiftyone.pipeline.jsonbuilder.flowelements.</text>
<text text-anchor="middle" x="1160" y="-7.5" font-family="Helvetica,sans-Serif" font-size="10.00">JsonBuilder</text>
</a>
</g>
</g>
<!-- Node21&#45;&gt;Node10 -->
<g id="edge13" class="edge">
<title>Node21&#45;&gt;Node10</title>
<path fill="none" stroke="midnightblue" d="M1282.13,-28.03C1353.86,-35.45 1444.08,-44.78 1513.96,-52.01"/>
<polygon fill="midnightblue" stroke="midnightblue" points="1282.45,-24.54 1272.14,-27 1281.73,-31.51 1282.45,-24.54"/>
</g>
<!-- Node22&#45;&gt;Node21 -->
<g id="edge14" class="edge">
<title>Node22&#45;&gt;Node21</title>
<path fill="none" stroke="midnightblue" d="M667.52,-39.64C772.64,-34.47 938.41,-26.33 1047.92,-20.96"/>
<polygon fill="midnightblue" stroke="midnightblue" points="667.04,-36.16 657.22,-40.14 667.38,-43.15 667.04,-36.16"/>
</g>
</g>
</svg>
