<?xml version="1.0" encoding="UTF-8" standalone="no"?>
<!DOCTYPE svg PUBLIC "-//W3C//DTD SVG 1.1//EN"
 "http://www.w3.org/Graphics/SVG/1.1/DTD/svg11.dtd">
<!-- Generated by graphviz version 2.43.0 (0)
 -->
<!-- Title: fiftyone.pipeline.engines.fiftyone.trackers.ShareUsageTracker Pages: 1 -->
<svg width="1195pt" height="100pt"
 viewBox="0.00 0.00 1195.00 99.50" xmlns="http://www.w3.org/2000/svg" xmlns:xlink="http://www.w3.org/1999/xlink">
<g id="graph0" class="graph" transform="scale(1 1) rotate(0) translate(4 95.5)">
<title>fiftyone.pipeline.engines.fiftyone.trackers.ShareUsageTracker</title>
<!-- Node0 -->
<g id="node1" class="node">
<title>Node0</title>
<g id="a_node1"><a xlink:title="A tracker used by share usage to attempt to avoid repeatedly sending data relating to the same user s...">
<polygon fill="#bfbfbf" stroke="black" points="966,-27.5 966,-57.5 1187,-57.5 1187,-27.5 966,-27.5"/>
<text text-anchor="start" x="974" y="-45.5" font-family="Helvetica,sans-Serif" font-size="10.00">fiftyone.pipeline.engines.fiftyone.trackers.</text>
<text text-anchor="middle" x="1076.5" y="-34.5" font-family="Helvetica,sans-Serif" font-size="10.00">ShareUsageTracker</text>
</a>
</g>
</g>
<!-- Node1 -->
<g id="node2" class="node">
<title>Node1</title>
<g id="a_node2"><a xlink:href="classfiftyone_1_1pipeline_1_1engines_1_1trackers_1_1_tracker_base.html" target="_top" xlink:title="The abstract base class for trackers.">
<polygon fill="none" stroke="black" points="803,-22 803,-63 930,-63 930,-22 803,-22"/>
<text text-anchor="start" x="811" y="-51" font-family="Helvetica,sans-Serif" font-size="10.00">fiftyone::pipeline</text>
<text text-anchor="start" x="811" y="-40" font-family="Helvetica,sans-Serif" font-size="10.00">::engines::trackers</text>
<text text-anchor="middle" x="866.5" y="-29" font-family="Helvetica,sans-Serif" font-size="10.00">::TrackerBase&lt; Date &gt;</text>
</a>
</g>
</g>
<!-- Node1&#45;&gt;Node0 -->
<g id="edge1" class="edge">
<title>Node1&#45;&gt;Node0</title>
<path fill="none" stroke="midnightblue" d="M940.22,-42.5C948.59,-42.5 957.24,-42.5 965.95,-42.5"/>
<polygon fill="midnightblue" stroke="midnightblue" points="940.19,-39 930.19,-42.5 940.19,-46 940.19,-39"/>
</g>
<!-- Node2 -->
<g id="node3" class="node">
<title>Node2</title>
<g id="a_node3"><a xlink:href="classfiftyone_1_1pipeline_1_1engines_1_1caching_1_1_data_keyed_cache_base.html" target="_top" xlink:title="Abstract base class for caches that use FlowData as the key.">
<polygon fill="none" stroke="black" points="600,-50 600,-91 752,-91 752,-50 600,-50"/>
<text text-anchor="start" x="608" y="-79" font-family="Helvetica,sans-Serif" font-size="10.00">fiftyone::pipeline</text>
<text text-anchor="start" x="608" y="-68" font-family="Helvetica,sans-Serif" font-size="10.00">::engines::caching::</text>
<text text-anchor="middle" x="676" y="-57" font-family="Helvetica,sans-Serif" font-size="10.00">DataKeyedCacheBase&lt; T &gt;</text>
</a>
</g>
</g>
<!-- Node2&#45;&gt;Node1 -->
<g id="edge2" class="edge">
<title>Node2&#45;&gt;Node1</title>
<path fill="none" stroke="midnightblue" d="M761.99,-57.88C775.74,-55.83 789.75,-53.75 802.84,-51.81"/>
<polygon fill="midnightblue" stroke="midnightblue" points="761.42,-54.42 752.04,-59.35 762.45,-61.35 761.42,-54.42"/>
</g>
<!-- Node3 -->
<g id="node4" class="node">
<title>Node3</title>
<g id="a_node4"><a xlink:href="interfacefiftyone_1_1pipeline_1_1engines_1_1caching_1_1_data_keyed_cache.html" target="_top" xlink:title="Represents a put cache where the key is a FlowData instance.">
<polygon fill="none" stroke="black" points="420,-50 420,-91 549,-91 549,-50 420,-50"/>
<text text-anchor="start" x="428" y="-79" font-family="Helvetica,sans-Serif" font-size="10.00">fiftyone::pipeline</text>
<text text-anchor="start" x="428" y="-68" font-family="Helvetica,sans-Serif" font-size="10.00">::engines::caching::</text>
<text text-anchor="middle" x="484.5" y="-57" font-family="Helvetica,sans-Serif" font-size="10.00">DataKeyedCache&lt; V &gt;</text>
</a>
</g>
</g>
<!-- Node3&#45;&gt;Node2 -->
<g id="edge3" class="edge">
<title>Node3&#45;&gt;Node2</title>
<path fill="none" stroke="midnightblue" d="M559.17,-70.5C572.48,-70.5 586.38,-70.5 599.73,-70.5"/>
<polygon fill="midnightblue" stroke="midnightblue" points="559.13,-67 549.13,-70.5 559.13,-74 559.13,-67"/>
</g>
<!-- Node4 -->
<g id="node5" class="node">
<title>Node4</title>
<g id="a_node5"><a xlink:href="interfacefiftyone_1_1caching_1_1_put_cache.html" target="_top" xlink:title="A cache that supports a thread safe put method for inserting to cache.">
<polygon fill="none" stroke="black" points="240,-55.5 240,-85.5 384,-85.5 384,-55.5 240,-55.5"/>
<text text-anchor="start" x="248" y="-73.5" font-family="Helvetica,sans-Serif" font-size="10.00">fiftyone::caching::</text>
<text text-anchor="middle" x="312" y="-62.5" font-family="Helvetica,sans-Serif" font-size="10.00">PutCache&lt; FlowData, V &gt;</text>
</a>
</g>
</g>
<!-- Node4&#45;&gt;Node3 -->
<g id="edge4" class="edge">
<title>Node4&#45;&gt;Node3</title>
<path fill="none" stroke="midnightblue" d="M394.6,-70.5C403.06,-70.5 411.57,-70.5 419.8,-70.5"/>
<polygon fill="midnightblue" stroke="midnightblue" points="394.32,-67 384.32,-70.5 394.32,-74 394.32,-67"/>
</g>
<!-- Node5 -->
<g id="node6" class="node">
<title>Node5</title>
<g id="a_node6"><a xlink:href="interfacefiftyone_1_1caching_1_1_cache.html" target="_top" xlink:title="Base cache interface which declares only the get method and the types of key and value stored in the ...">
<polygon fill="none" stroke="black" points="101,-55.5 101,-85.5 204,-85.5 204,-55.5 101,-55.5"/>
<text text-anchor="start" x="109" y="-73.5" font-family="Helvetica,sans-Serif" font-size="10.00">fiftyone::caching::</text>
<text text-anchor="middle" x="152.5" y="-62.5" font-family="Helvetica,sans-Serif" font-size="10.00">Cache&lt; K, V &gt;</text>
</a>
</g>
</g>
<!-- Node5&#45;&gt;Node4 -->
<g id="edge5" class="edge">
<title>Node5&#45;&gt;Node4</title>
<path fill="none" stroke="midnightblue" d="M214.22,-70.5C222.58,-70.5 231.22,-70.5 239.74,-70.5"/>
<polygon fill="midnightblue" stroke="midnightblue" points="214.2,-67 204.2,-70.5 214.2,-74 214.2,-67"/>
</g>
<!-- Node6 -->
<g id="node7" class="node">
<title>Node6</title>
<g id="a_node7"><a xlink:title=" ">
<polygon fill="none" stroke="#bfbfbf" points="0,-61 0,-80 65,-80 65,-61 0,-61"/>
<text text-anchor="middle" x="32.5" y="-68" font-family="Helvetica,sans-Serif" font-size="10.00">Closeable</text>
</a>
</g>
</g>
<!-- Node6&#45;&gt;Node5 -->
<g id="edge6" class="edge">
<title>Node6&#45;&gt;Node5</title>
<path fill="none" stroke="midnightblue" d="M75.22,-70.5C83.44,-70.5 92.16,-70.5 100.64,-70.5"/>
<polygon fill="midnightblue" stroke="midnightblue" points="75.12,-67 65.12,-70.5 75.12,-74 75.12,-67"/>
</g>
<!-- Node7 -->
<g id="node8" class="node">
<title>Node7</title>
<g id="a_node8"><a xlink:href="interfacefiftyone_1_1pipeline_1_1engines_1_1trackers_1_1_tracker.html" target="_top" xlink:title="Represents a &#39;tracker&#39;.">
<polygon fill="none" stroke="black" points="585,-0.5 585,-30.5 767,-30.5 767,-0.5 585,-0.5"/>
<text text-anchor="start" x="593" y="-18.5" font-family="Helvetica,sans-Serif" font-size="10.00">fiftyone.pipeline.engines.trackers.</text>
<text text-anchor="middle" x="676" y="-7.5" font-family="Helvetica,sans-Serif" font-size="10.00">Tracker</text>
</a>
</g>
</g>
<!-- Node7&#45;&gt;Node1 -->
<g id="edge7" class="edge">
<title>Node7&#45;&gt;Node1</title>
<path fill="none" stroke="midnightblue" d="M777.05,-29.83C785.85,-31.09 794.58,-32.34 802.93,-33.54"/>
<polygon fill="midnightblue" stroke="midnightblue" points="777.5,-26.36 767.11,-28.41 776.51,-33.29 777.5,-26.36"/>
</g>
</g>
</svg>
