<?xml version="1.0" encoding="UTF-8" standalone="no"?>
<!DOCTYPE svg PUBLIC "-//W3C//DTD SVG 1.1//EN"
 "http://www.w3.org/Graphics/SVG/1.1/DTD/svg11.dtd">
<!-- Generated by graphviz version 2.43.0 (0)
 -->
<!-- Title: fiftyone.pipeline.engines.fiftyone.flowelements.ShareUsageElement Pages: 1 -->
<svg width="2059pt" height="325pt"
 viewBox="0.00 0.00 2059.00 324.50" xmlns="http://www.w3.org/2000/svg" xmlns:xlink="http://www.w3.org/1999/xlink">
<g id="graph0" class="graph" transform="scale(1 1) rotate(0) translate(4 320.5)">
<title>fiftyone.pipeline.engines.fiftyone.flowelements.ShareUsageElement</title>
<!-- Node9 -->
<g id="node1" class="node">
<title>Node9</title>
<g id="a_node1"><a xlink:title="Flow element that sends usage data to 51Degrees for analysis.">
<polygon fill="#bfbfbf" stroke="black" points="1803,-77 1803,-107 2051,-107 2051,-77 1803,-77"/>
<text text-anchor="start" x="1811" y="-95" font-family="Helvetica,sans-Serif" font-size="10.00">fiftyone.pipeline.engines.fiftyone.flowelements.</text>
<text text-anchor="middle" x="1927" y="-84" font-family="Helvetica,sans-Serif" font-size="10.00">ShareUsageElement</text>
</a>
</g>
</g>
<!-- Node10 -->
<g id="node2" class="node">
<title>Node10</title>
<g id="a_node2"><a xlink:href="classfiftyone_1_1pipeline_1_1engines_1_1fiftyone_1_1flowelements_1_1_share_usage_base.html" target="_top" xlink:title="Abstract base class for ShareUsage elements.">
<polygon fill="none" stroke="black" points="1428,-176 1428,-206 1676,-206 1676,-176 1428,-176"/>
<text text-anchor="start" x="1436" y="-194" font-family="Helvetica,sans-Serif" font-size="10.00">fiftyone.pipeline.engines.fiftyone.flowelements.</text>
<text text-anchor="middle" x="1552" y="-183" font-family="Helvetica,sans-Serif" font-size="10.00">ShareUsageBase</text>
</a>
</g>
</g>
<!-- Node10&#45;&gt;Node9 -->
<g id="edge1" class="edge">
<title>Node10&#45;&gt;Node9</title>
<path fill="none" stroke="midnightblue" d="M1640.55,-173.87C1652.49,-171.34 1664.56,-168.68 1676,-166 1724.81,-154.56 1736.89,-151.07 1785,-137 1817.19,-127.59 1853.2,-116.08 1880.77,-107.06"/>
<polygon fill="midnightblue" stroke="midnightblue" points="1639.65,-170.49 1630.58,-175.96 1641.08,-177.34 1639.65,-170.49"/>
</g>
<!-- Node11 -->
<g id="node3" class="node">
<title>Node11</title>
<g id="a_node3"><a xlink:href="classfiftyone_1_1pipeline_1_1core_1_1flowelements_1_1_flow_element_base.html" target="_top" xlink:title="Provides a base class from which authors may create new FlowElements.">
<polygon fill="none" stroke="black" points="1115,-165 1115,-217 1303,-217 1303,-165 1115,-165"/>
<text text-anchor="start" x="1123" y="-205" font-family="Helvetica,sans-Serif" font-size="10.00">fiftyone::pipeline</text>
<text text-anchor="start" x="1123" y="-194" font-family="Helvetica,sans-Serif" font-size="10.00">::core::flowelements</text>
<text text-anchor="start" x="1123" y="-183" font-family="Helvetica,sans-Serif" font-size="10.00">::FlowElementBase&lt; ElementData,</text>
<text text-anchor="middle" x="1209" y="-172" font-family="Helvetica,sans-Serif" font-size="10.00"> ElementPropertyMetaData &gt;</text>
</a>
</g>
</g>
<!-- Node11&#45;&gt;Node10 -->
<g id="edge2" class="edge">
<title>Node11&#45;&gt;Node10</title>
<path fill="none" stroke="midnightblue" d="M1313.23,-191C1349.36,-191 1390.28,-191 1427.86,-191"/>
<polygon fill="midnightblue" stroke="midnightblue" points="1313.18,-187.5 1303.18,-191 1313.18,-194.5 1313.18,-187.5"/>
</g>
<!-- Node12 -->
<g id="node4" class="node">
<title>Node12</title>
<g id="a_node4"><a xlink:href="interfacefiftyone_1_1pipeline_1_1core_1_1flowelements_1_1_flow_element.html" target="_top" xlink:title=" ">
<polygon fill="none" stroke="black" points="839,-222 839,-252 1030,-252 1030,-222 839,-222"/>
<text text-anchor="start" x="847" y="-240" font-family="Helvetica,sans-Serif" font-size="10.00">fiftyone.pipeline.core.flowelements.</text>
<text text-anchor="middle" x="934.5" y="-229" font-family="Helvetica,sans-Serif" font-size="10.00">FlowElement&lt; TData, TProperty &gt;</text>
</a>
</g>
</g>
<!-- Node12&#45;&gt;Node11 -->
<g id="edge3" class="edge">
<title>Node12&#45;&gt;Node11</title>
<path fill="none" stroke="midnightblue" d="M1034.65,-220.26C1060.83,-215.84 1088.98,-211.09 1114.83,-206.73"/>
<polygon fill="midnightblue" stroke="midnightblue" points="1034,-216.82 1024.73,-221.94 1035.17,-223.72 1034,-216.82"/>
</g>
<!-- Node13 -->
<g id="node5" class="node">
<title>Node13</title>
<g id="a_node5"><a xlink:href="interfacefiftyone_1_1pipeline_1_1core_1_1flowelements_1_1_flow_element.html" target="_top" xlink:title="A component that processes a FlowData (by examining its evidence, or by examining data processed by o...">
<polygon fill="none" stroke="black" points="441,-227.5 441,-268.5 694,-268.5 694,-227.5 441,-227.5"/>
<text text-anchor="start" x="449" y="-256.5" font-family="Helvetica,sans-Serif" font-size="10.00">fiftyone.pipeline.core.flowelements.</text>
<text text-anchor="start" x="449" y="-245.5" font-family="Helvetica,sans-Serif" font-size="10.00">FlowElement&lt; TData extends ElementData,</text>
<text text-anchor="middle" x="567.5" y="-234.5" font-family="Helvetica,sans-Serif" font-size="10.00"> TProperty extends ElementPropertyMetaData &gt;</text>
</a>
</g>
</g>
<!-- Node13&#45;&gt;Node12 -->
<g id="edge4" class="edge">
<title>Node13&#45;&gt;Node12</title>
<path fill="none" stroke="orange" stroke-dasharray="5,2" d="M704.2,-243.91C748.97,-242.56 797.77,-241.09 838.8,-239.85"/>
<polygon fill="orange" stroke="orange" points="704,-240.41 694.11,-244.21 704.21,-247.41 704,-240.41"/>
<text text-anchor="middle" x="766.5" y="-246" font-family="Helvetica,sans-Serif" font-size="10.00"> &lt; TData, TProperty &gt;</text>
</g>
<!-- Node14 -->
<g id="node6" class="node">
<title>Node14</title>
<g id="a_node6"><a xlink:title=" ">
<polygon fill="none" stroke="#bfbfbf" points="237,-240.5 237,-259.5 324,-259.5 324,-240.5 237,-240.5"/>
<text text-anchor="middle" x="280.5" y="-247.5" font-family="Helvetica,sans-Serif" font-size="10.00">AutoCloseable</text>
</a>
</g>
</g>
<!-- Node14&#45;&gt;Node13 -->
<g id="edge5" class="edge">
<title>Node14&#45;&gt;Node13</title>
<path fill="none" stroke="midnightblue" d="M334.4,-249.63C364.44,-249.42 403.4,-249.14 440.81,-248.88"/>
<polygon fill="midnightblue" stroke="midnightblue" points="334.14,-246.13 324.17,-249.7 334.19,-253.13 334.14,-246.13"/>
</g>
<!-- Node15 -->
<g id="node7" class="node">
<title>Node15</title>
<g id="a_node7"><a xlink:href="interfacefiftyone_1_1pipeline_1_1core_1_1data_1_1_element_data.html" target="_top" xlink:title="Represents property values that have be determined by a specific FlowElement based on the supplied ev...">
<polygon fill="none" stroke="black" points="207,-286 207,-316 354,-316 354,-286 207,-286"/>
<text text-anchor="start" x="215" y="-304" font-family="Helvetica,sans-Serif" font-size="10.00">fiftyone.pipeline.core.data.</text>
<text text-anchor="middle" x="280.5" y="-293" font-family="Helvetica,sans-Serif" font-size="10.00">ElementData</text>
</a>
</g>
</g>
<!-- Node15&#45;&gt;Node11 -->
<g id="edge12" class="edge">
<title>Node15&#45;&gt;Node11</title>
<path fill="none" stroke="orange" stroke-dasharray="5,2" d="M364.26,-305.76C503.59,-311.76 793.04,-315.6 1030,-262 1069.85,-252.99 1077.06,-242.15 1115,-227 1123.12,-223.76 1131.65,-220.39 1140.13,-217.08"/>
<polygon fill="orange" stroke="orange" points="364.23,-302.25 354.08,-305.3 363.91,-309.25 364.23,-302.25"/>
<text text-anchor="middle" x="766.5" y="-306" font-family="Helvetica,sans-Serif" font-size="10.00"> TData</text>
</g>
<!-- Node15&#45;&gt;Node13 -->
<g id="edge6" class="edge">
<title>Node15&#45;&gt;Node13</title>
<path fill="none" stroke="orange" stroke-dasharray="5,2" d="M363.98,-285.5C366.69,-284.99 369.37,-284.49 372,-284 399.01,-278.96 428.13,-273.56 455.41,-268.51"/>
<polygon fill="orange" stroke="orange" points="363.29,-282.06 354.11,-287.34 364.58,-288.95 363.29,-282.06"/>
<text text-anchor="middle" x="397.5" y="-287" font-family="Helvetica,sans-Serif" font-size="10.00"> TData</text>
</g>
<!-- Node16 -->
<g id="node8" class="node">
<title>Node16</title>
<g id="a_node8"><a xlink:href="interfacefiftyone_1_1pipeline_1_1core_1_1data_1_1_data.html" target="_top" xlink:title="Represents a collection of property values.">
<polygon fill="none" stroke="black" points="0,-291.5 0,-310.5 170,-310.5 170,-291.5 0,-291.5"/>
<text text-anchor="middle" x="85" y="-298.5" font-family="Helvetica,sans-Serif" font-size="10.00">fiftyone.pipeline.core.data.Data</text>
</a>
</g>
</g>
<!-- Node16&#45;&gt;Node15 -->
<g id="edge7" class="edge">
<title>Node16&#45;&gt;Node15</title>
<path fill="none" stroke="midnightblue" d="M180.11,-301C189.07,-301 198.06,-301 206.77,-301"/>
<polygon fill="midnightblue" stroke="midnightblue" points="180.03,-297.5 170.03,-301 180.03,-304.5 180.03,-297.5"/>
</g>
<!-- Node17 -->
<g id="node9" class="node">
<title>Node17</title>
<g id="a_node9"><a xlink:href="interfacefiftyone_1_1pipeline_1_1core_1_1data_1_1_element_property_meta_data.html" target="_top" xlink:title="Defines details of a property that can be returned by a FlowElement.">
<polygon fill="none" stroke="black" points="207,-184 207,-214 354,-214 354,-184 207,-184"/>
<text text-anchor="start" x="215" y="-202" font-family="Helvetica,sans-Serif" font-size="10.00">fiftyone.pipeline.core.data.</text>
<text text-anchor="middle" x="280.5" y="-191" font-family="Helvetica,sans-Serif" font-size="10.00">ElementPropertyMetaData</text>
</a>
</g>
</g>
<!-- Node17&#45;&gt;Node11 -->
<g id="edge13" class="edge">
<title>Node17&#45;&gt;Node11</title>
<path fill="none" stroke="orange" stroke-dasharray="5,2" d="M364.24,-198.29C536.68,-196.8 933.53,-193.37 1114.72,-191.81"/>
<polygon fill="orange" stroke="orange" points="364.17,-194.79 354.2,-198.37 364.23,-201.79 364.17,-194.79"/>
<text text-anchor="middle" x="766.5" y="-198" font-family="Helvetica,sans-Serif" font-size="10.00"> TProperty</text>
</g>
<!-- Node17&#45;&gt;Node13 -->
<g id="edge8" class="edge">
<title>Node17&#45;&gt;Node13</title>
<path fill="none" stroke="orange" stroke-dasharray="5,2" d="M364.29,-213.23C390.19,-217.69 419.3,-222.69 447.2,-227.49"/>
<polygon fill="orange" stroke="orange" points="364.6,-209.74 354.15,-211.49 363.42,-216.64 364.6,-209.74"/>
<text text-anchor="middle" x="397.5" y="-225" font-family="Helvetica,sans-Serif" font-size="10.00"> TProperty</text>
</g>
<!-- Node18 -->
<g id="node10" class="node">
<title>Node18</title>
<g id="a_node10"><a xlink:href="interfacefiftyone_1_1pipeline_1_1core_1_1typed_1_1_typed_key.html" target="_top" xlink:title=" ">
<polygon fill="none" stroke="black" points="858,-132 858,-162 1011,-162 1011,-132 858,-132"/>
<text text-anchor="start" x="866" y="-150" font-family="Helvetica,sans-Serif" font-size="10.00">fiftyone.pipeline.core.typed.</text>
<text text-anchor="middle" x="934.5" y="-139" font-family="Helvetica,sans-Serif" font-size="10.00">TypedKey&lt; TData &gt;</text>
</a>
</g>
</g>
<!-- Node18&#45;&gt;Node11 -->
<g id="edge9" class="edge">
<title>Node18&#45;&gt;Node11</title>
<path fill="none" stroke="#9a32cd" stroke-dasharray="5,2" d="M1021.32,-155.41C1045.84,-158.27 1072.54,-161.82 1097,-166 1102.84,-167 1108.84,-168.11 1114.87,-169.28"/>
<polygon fill="#9a32cd" stroke="#9a32cd" points="1021.66,-151.93 1011.32,-154.27 1020.86,-158.88 1021.66,-151.93"/>
<text text-anchor="middle" x="1072.5" y="-169" font-family="Helvetica,sans-Serif" font-size="10.00"> typedKey</text>
</g>
<!-- Node19 -->
<g id="node11" class="node">
<title>Node19</title>
<g id="a_node11"><a xlink:href="interfacefiftyone_1_1pipeline_1_1core_1_1typed_1_1_typed_key.html" target="_top" xlink:title="Holds a name and a type to allow for type safe operations on named values.">
<polygon fill="none" stroke="black" points="491,-132 491,-162 644,-162 644,-132 491,-132"/>
<text text-anchor="start" x="499" y="-150" font-family="Helvetica,sans-Serif" font-size="10.00">fiftyone.pipeline.core.typed.</text>
<text text-anchor="middle" x="567.5" y="-139" font-family="Helvetica,sans-Serif" font-size="10.00">TypedKey&lt; T &gt;</text>
</a>
</g>
</g>
<!-- Node19&#45;&gt;Node18 -->
<g id="edge10" class="edge">
<title>Node19&#45;&gt;Node18</title>
<path fill="none" stroke="orange" stroke-dasharray="5,2" d="M654.25,-147C716.04,-147 798.65,-147 857.97,-147"/>
<polygon fill="orange" stroke="orange" points="654.13,-143.5 644.13,-147 654.13,-150.5 654.13,-143.5"/>
<text text-anchor="middle" x="766.5" y="-150" font-family="Helvetica,sans-Serif" font-size="10.00"> &lt; TData &gt;</text>
</g>
<!-- Node20 -->
<g id="node12" class="node">
<title>Node20</title>
<g id="a_node12"><a xlink:title=" ">
<polygon fill="none" stroke="#bfbfbf" points="909.5,-93.5 909.5,-112.5 959.5,-112.5 959.5,-93.5 909.5,-93.5"/>
<text text-anchor="middle" x="934.5" y="-100.5" font-family="Helvetica,sans-Serif" font-size="10.00">Logger</text>
</a>
</g>
</g>
<!-- Node20&#45;&gt;Node11 -->
<g id="edge11" class="edge">
<title>Node20&#45;&gt;Node11</title>
<path fill="none" stroke="#9a32cd" stroke-dasharray="5,2" d="M969.75,-109.55C987.76,-113.17 1010.17,-117.95 1030,-123 1060.12,-130.67 1068.87,-129.79 1097,-143 1105.7,-147.09 1106.47,-150.57 1115,-155 1121.61,-158.43 1128.62,-161.72 1135.71,-164.83"/>
<polygon fill="#9a32cd" stroke="#9a32cd" points="970.2,-106.07 959.71,-107.56 968.84,-112.94 970.2,-106.07"/>
<text text-anchor="middle" x="1072.5" y="-146" font-family="Helvetica,sans-Serif" font-size="10.00"> logger</text>
</g>
<!-- Node21 -->
<g id="node13" class="node">
<title>Node21</title>
<g id="a_node13"><a xlink:title=" ">
<polygon fill="none" stroke="#bfbfbf" points="1155,-126.5 1155,-145.5 1263,-145.5 1263,-126.5 1155,-126.5"/>
<text text-anchor="middle" x="1209" y="-133.5" font-family="Helvetica,sans-Serif" font-size="10.00">SimpleDateFormat</text>
</a>
</g>
</g>
<!-- Node21&#45;&gt;Node10 -->
<g id="edge14" class="edge">
<title>Node21&#45;&gt;Node10</title>
<path fill="none" stroke="#9a32cd" stroke-dasharray="5,2" d="M1273.35,-146.22C1325.21,-154.58 1399.32,-166.54 1457.93,-175.99"/>
<polygon fill="#9a32cd" stroke="#9a32cd" points="1273.71,-142.73 1263.28,-144.59 1272.6,-149.64 1273.71,-142.73"/>
<text text-anchor="middle" x="1365.5" y="-169" font-family="Helvetica,sans-Serif" font-size="10.00"> DATE_FMT</text>
</g>
<!-- Node22 -->
<g id="node14" class="node">
<title>Node22</title>
<g id="a_node14"><a xlink:title=" ">
<polygon fill="none" stroke="#bfbfbf" points="1161.5,-274.5 1161.5,-293.5 1256.5,-293.5 1256.5,-274.5 1161.5,-274.5"/>
<text text-anchor="middle" x="1209" y="-281.5" font-family="Helvetica,sans-Serif" font-size="10.00">ExecutorService</text>
</a>
</g>
</g>
<!-- Node22&#45;&gt;Node10 -->
<g id="edge15" class="edge">
<title>Node22&#45;&gt;Node10</title>
<path fill="none" stroke="#9a32cd" stroke-dasharray="5,2" d="M1266.76,-272.58C1278.74,-270.12 1291.29,-267.51 1303,-265 1350.66,-254.79 1363.17,-254.5 1410,-241 1445.19,-230.85 1484.39,-216.72 1512.51,-206.06"/>
<polygon fill="#9a32cd" stroke="#9a32cd" points="1265.97,-269.17 1256.87,-274.61 1267.37,-276.03 1265.97,-269.17"/>
<text text-anchor="middle" x="1365.5" y="-264" font-family="Helvetica,sans-Serif" font-size="10.00"> executor</text>
</g>
<!-- Node23 -->
<g id="node15" class="node">
<title>Node23</title>
<g id="a_node15"><a xlink:title=" ">
<polygon fill="none" stroke="#bfbfbf" points="1184,-236.5 1184,-255.5 1234,-255.5 1234,-236.5 1184,-236.5"/>
<text text-anchor="middle" x="1209" y="-243.5" font-family="Helvetica,sans-Serif" font-size="10.00">Marker</text>
</a>
</g>
</g>
<!-- Node23&#45;&gt;Node10 -->
<g id="edge16" class="edge">
<title>Node23&#45;&gt;Node10</title>
<path fill="none" stroke="#9a32cd" stroke-dasharray="5,2" d="M1244.41,-240.45C1293.91,-232.47 1387,-217.45 1457.67,-206.05"/>
<polygon fill="#9a32cd" stroke="#9a32cd" points="1243.57,-237.04 1234.25,-242.09 1244.68,-243.95 1243.57,-237.04"/>
<text text-anchor="middle" x="1365.5" y="-229" font-family="Helvetica,sans-Serif" font-size="10.00"> threadMarker</text>
</g>
<!-- Node24 -->
<g id="node16" class="node">
<title>Node24</title>
<g id="a_node16"><a xlink:href="interfacefiftyone_1_1pipeline_1_1engines_1_1services_1_1_data_uploader.html" target="_top" xlink:title="provides an OutputStream to share usage">
<polygon fill="none" stroke="black" points="1460.5,-126 1460.5,-156 1643.5,-156 1643.5,-126 1460.5,-126"/>
<text text-anchor="start" x="1468.5" y="-144" font-family="Helvetica,sans-Serif" font-size="10.00">fiftyone.pipeline.engines.services.</text>
<text text-anchor="middle" x="1552" y="-133" font-family="Helvetica,sans-Serif" font-size="10.00">DataUploader</text>
</a>
</g>
</g>
<!-- Node24&#45;&gt;Node9 -->
<g id="edge17" class="edge">
<title>Node24&#45;&gt;Node9</title>
<path fill="none" stroke="#9a32cd" stroke-dasharray="5,2" d="M1653.7,-127.77C1702.48,-121.36 1761.26,-113.64 1811.71,-107.01"/>
<polygon fill="#9a32cd" stroke="#9a32cd" points="1653.23,-124.3 1643.77,-129.08 1654.14,-131.24 1653.23,-124.3"/>
<text text-anchor="middle" x="1739.5" y="-125" font-family="Helvetica,sans-Serif" font-size="10.00"> dataUploader</text>
</g>
<!-- Node25 -->
<g id="node17" class="node">
<title>Node25</title>
<g id="a_node17"><a xlink:href="interfacefiftyone_1_1pipeline_1_1engines_1_1services_1_1_http_client.html" target="_top" xlink:title="Interface used by the DataUpdateService to process HTTP requests.">
<polygon fill="none" stroke="black" points="1460.5,-77 1460.5,-107 1643.5,-107 1643.5,-77 1460.5,-77"/>
<text text-anchor="start" x="1468.5" y="-95" font-family="Helvetica,sans-Serif" font-size="10.00">fiftyone.pipeline.engines.services.</text>
<text text-anchor="middle" x="1552" y="-84" font-family="Helvetica,sans-Serif" font-size="10.00">HttpClient</text>
</a>
</g>
</g>
<!-- Node25&#45;&gt;Node9 -->
<g id="edge18" class="edge">
<title>Node25&#45;&gt;Node9</title>
<path fill="none" stroke="#9a32cd" stroke-dasharray="5,2" d="M1654.01,-92C1699.83,-92 1754.44,-92 1802.66,-92"/>
<polygon fill="#9a32cd" stroke="#9a32cd" points="1653.77,-88.5 1643.77,-92 1653.77,-95.5 1653.77,-88.5"/>
<text text-anchor="middle" x="1739.5" y="-95" font-family="Helvetica,sans-Serif" font-size="10.00"> httpClient</text>
</g>
<!-- Node26 -->
<g id="node18" class="node">
<title>Node26</title>
<g id="a_node18"><a xlink:href="interfacefiftyone_1_1pipeline_1_1core_1_1services_1_1_pipeline_service.html" target="_top" xlink:title="Service interface used by PipelineBuilder to hand out services to elements which required them.">
<polygon fill="none" stroke="black" points="1126,-77 1126,-107 1292,-107 1292,-77 1126,-77"/>
<text text-anchor="start" x="1134" y="-95" font-family="Helvetica,sans-Serif" font-size="10.00">fiftyone.pipeline.core.services.</text>
<text text-anchor="middle" x="1209" y="-84" font-family="Helvetica,sans-Serif" font-size="10.00">PipelineService</text>
</a>
</g>
</g>
<!-- Node26&#45;&gt;Node25 -->
<g id="edge19" class="edge">
<title>Node26&#45;&gt;Node25</title>
<path fill="none" stroke="midnightblue" d="M1302.4,-92C1351.46,-92 1411.51,-92 1460.31,-92"/>
<polygon fill="midnightblue" stroke="midnightblue" points="1302.11,-88.5 1292.11,-92 1302.11,-95.5 1302.11,-88.5"/>
</g>
<!-- Node27 -->
<g id="node19" class="node">
<title>Node27</title>
<g id="a_node19"><a xlink:title=" ">
<polygon fill="none" stroke="#bfbfbf" points="1490.5,-38.5 1490.5,-57.5 1613.5,-57.5 1613.5,-38.5 1490.5,-38.5"/>
<text text-anchor="middle" x="1552" y="-45.5" font-family="Helvetica,sans-Serif" font-size="10.00">Map&lt; String, String &gt;</text>
</a>
</g>
</g>
<!-- Node27&#45;&gt;Node9 -->
<g id="edge20" class="edge">
<title>Node27&#45;&gt;Node9</title>
<path fill="none" stroke="#9a32cd" stroke-dasharray="5,2" d="M1623.9,-56.36C1674.3,-62.31 1743.3,-70.45 1802.63,-77.45"/>
<polygon fill="#9a32cd" stroke="#9a32cd" points="1624.1,-52.86 1613.76,-55.17 1623.28,-59.81 1624.1,-52.86"/>
<text text-anchor="middle" x="1739.5" y="-78" font-family="Helvetica,sans-Serif" font-size="10.00"> headers</text>
</g>
<!-- Node28 -->
<g id="node20" class="node">
<title>Node28</title>
<g id="a_node20"><a xlink:title=" ">
<polygon fill="none" stroke="#bfbfbf" points="1190,-38.5 1190,-57.5 1228,-57.5 1228,-38.5 1190,-38.5"/>
<text text-anchor="middle" x="1209" y="-45.5" font-family="Helvetica,sans-Serif" font-size="10.00">Map</text>
</a>
</g>
</g>
<!-- Node28&#45;&gt;Node27 -->
<g id="edge21" class="edge">
<title>Node28&#45;&gt;Node27</title>
<path fill="none" stroke="orange" stroke-dasharray="5,2" d="M1238.43,-48C1293.59,-48 1416.23,-48 1490.43,-48"/>
<polygon fill="orange" stroke="orange" points="1238.33,-44.5 1228.33,-48 1238.33,-51.5 1238.33,-44.5"/>
<text text-anchor="middle" x="1365.5" y="-51" font-family="Helvetica,sans-Serif" font-size="10.00"> &lt; String, String &gt;</text>
</g>
<!-- Node29 -->
<g id="node21" class="node">
<title>Node29</title>
<g id="a_node21"><a xlink:title=" ">
<polygon fill="none" stroke="#bfbfbf" points="1499,-0.5 1499,-19.5 1605,-19.5 1605,-0.5 1499,-0.5"/>
<text text-anchor="middle" x="1552" y="-7.5" font-family="Helvetica,sans-Serif" font-size="10.00">XMLOutputFactory</text>
</a>
</g>
</g>
<!-- Node29&#45;&gt;Node9 -->
<g id="edge22" class="edge">
<title>Node29&#45;&gt;Node9</title>
<path fill="none" stroke="#9a32cd" stroke-dasharray="5,2" d="M1615.11,-19.25C1634.62,-22.24 1656.22,-25.66 1676,-29 1724.56,-37.2 1737.14,-37.35 1785,-49 1817.57,-56.93 1853.73,-68 1881.28,-76.93"/>
<polygon fill="#9a32cd" stroke="#9a32cd" points="1615.54,-15.77 1605.12,-17.72 1614.48,-22.69 1615.54,-15.77"/>
<text text-anchor="middle" x="1739.5" y="-52" font-family="Helvetica,sans-Serif" font-size="10.00"> xmlOutputFactory</text>
</g>
</g>
</svg>
