<?xml version="1.0" encoding="UTF-8" standalone="no"?>
<!DOCTYPE svg PUBLIC "-//W3C//DTD SVG 1.1//EN"
 "http://www.w3.org/Graphics/SVG/1.1/DTD/svg11.dtd">
<!-- Generated by graphviz version 2.43.0 (0)
 -->
<!-- Title: fiftyone.caching.LruCacheBase&lt; K, V &gt; Pages: 1 -->
<svg width="288pt" height="229pt"
 viewBox="0.00 0.00 287.50 229.00" xmlns="http://www.w3.org/2000/svg" xmlns:xlink="http://www.w3.org/1999/xlink">
<g id="graph0" class="graph" transform="scale(1 1) rotate(0) translate(4 225)">
<title>fiftyone.caching.LruCacheBase&lt; K, V &gt;</title>
<!-- Node0 -->
<g id="node1" class="node">
<title>Node0</title>
<g id="a_node1"><a xlink:title="This is a Least Recently Used (LRU) cache with multiple linked lists in place of the usual single lin...">
<polygon fill="#bfbfbf" stroke="black" points="74,-67.5 74,-97.5 216,-97.5 216,-67.5 74,-67.5"/>
<text text-anchor="start" x="82" y="-85.5" font-family="Helvetica,sans-Serif" font-size="10.00">fiftyone.caching.LruCache</text>
<text text-anchor="middle" x="145" y="-74.5" font-family="Helvetica,sans-Serif" font-size="10.00">Base&lt; K, V &gt;</text>
</a>
</g>
</g>
<!-- Node3 -->
<g id="node4" class="node">
<title>Node3</title>
<g id="a_node4"><a xlink:href="classfiftyone_1_1caching_1_1_lru_loading_cache.html" target="_top" xlink:title="Uses the LruCacheBase to implement the LoadingCache interface.">
<polygon fill="none" stroke="black" points="0,-0.5 0,-30.5 142,-30.5 142,-0.5 0,-0.5"/>
<text text-anchor="start" x="8" y="-18.5" font-family="Helvetica,sans-Serif" font-size="10.00">fiftyone::caching::</text>
<text text-anchor="middle" x="71" y="-7.5" font-family="Helvetica,sans-Serif" font-size="10.00">LruLoadingCache&lt; K, V &gt;</text>
</a>
</g>
</g>
<!-- Node0&#45;&gt;Node3 -->
<g id="edge4" class="edge">
<title>Node0&#45;&gt;Node3</title>
<path fill="none" stroke="midnightblue" d="M121.2,-60.6C110.03,-50.78 97.01,-39.34 87.03,-30.58"/>
<polygon fill="midnightblue" stroke="midnightblue" points="119.12,-63.43 128.94,-67.4 123.74,-58.17 119.12,-63.43"/>
</g>
<!-- Node4 -->
<g id="node5" class="node">
<title>Node4</title>
<g id="a_node5"><a xlink:href="classfiftyone_1_1caching_1_1_lru_put_cache.html" target="_top" xlink:title="Uses the LruCacheBase to implement the PutCache interface.">
<polygon fill="none" stroke="black" points="160.5,-0.5 160.5,-30.5 279.5,-30.5 279.5,-0.5 160.5,-0.5"/>
<text text-anchor="start" x="168.5" y="-18.5" font-family="Helvetica,sans-Serif" font-size="10.00">fiftyone::caching::</text>
<text text-anchor="middle" x="220" y="-7.5" font-family="Helvetica,sans-Serif" font-size="10.00">LruPutCache&lt; K, V &gt;</text>
</a>
</g>
</g>
<!-- Node0&#45;&gt;Node4 -->
<g id="edge5" class="edge">
<title>Node0&#45;&gt;Node4</title>
<path fill="none" stroke="midnightblue" d="M169.12,-60.6C180.44,-50.78 193.64,-39.34 203.76,-30.58"/>
<polygon fill="midnightblue" stroke="midnightblue" points="166.54,-58.2 161.27,-67.4 171.12,-63.49 166.54,-58.2"/>
</g>
<!-- Node1 -->
<g id="node2" class="node">
<title>Node1</title>
<g id="a_node2"><a xlink:href="interfacefiftyone_1_1caching_1_1_cache.html" target="_top" xlink:title="Base cache interface which declares only the get method and the types of key and value stored in the ...">
<polygon fill="none" stroke="black" points="133.5,-134.5 133.5,-164.5 236.5,-164.5 236.5,-134.5 133.5,-134.5"/>
<text text-anchor="start" x="141.5" y="-152.5" font-family="Helvetica,sans-Serif" font-size="10.00">fiftyone::caching::</text>
<text text-anchor="middle" x="185" y="-141.5" font-family="Helvetica,sans-Serif" font-size="10.00">Cache&lt; K, V &gt;</text>
</a>
</g>
</g>
<!-- Node1&#45;&gt;Node0 -->
<g id="edge1" class="edge">
<title>Node1&#45;&gt;Node0</title>
<path fill="none" stroke="midnightblue" d="M171.07,-125.87C165.28,-116.46 158.74,-105.83 153.66,-97.58"/>
<polygon fill="midnightblue" stroke="midnightblue" points="168.1,-127.71 176.32,-134.4 174.06,-124.05 168.1,-127.71"/>
</g>
<!-- Node2 -->
<g id="node3" class="node">
<title>Node2</title>
<g id="a_node3"><a xlink:title=" ">
<polygon fill="none" stroke="#bfbfbf" points="112.5,-201.5 112.5,-220.5 177.5,-220.5 177.5,-201.5 112.5,-201.5"/>
<text text-anchor="middle" x="145" y="-208.5" font-family="Helvetica,sans-Serif" font-size="10.00">Closeable</text>
</a>
</g>
</g>
<!-- Node2&#45;&gt;Node0 -->
<g id="edge3" class="edge">
<title>Node2&#45;&gt;Node0</title>
<path fill="none" stroke="midnightblue" d="M135.07,-192.3C131.1,-184.24 127,-174.41 125,-165 122.14,-151.52 122.42,-147.53 125,-134 127.44,-121.22 133.06,-107.54 137.72,-97.65"/>
<polygon fill="midnightblue" stroke="midnightblue" points="132.11,-194.19 139.87,-201.41 138.31,-190.93 132.11,-194.19"/>
</g>
<!-- Node2&#45;&gt;Node1 -->
<g id="edge2" class="edge">
<title>Node2&#45;&gt;Node1</title>
<path fill="none" stroke="midnightblue" d="M156.45,-192.96C162.51,-183.96 169.85,-173.03 175.57,-164.52"/>
<polygon fill="midnightblue" stroke="midnightblue" points="153.41,-191.22 150.73,-201.48 159.21,-195.13 153.41,-191.22"/>
</g>
</g>
</svg>
