<?xml version="1.0" encoding="UTF-8" standalone="no"?>
<!DOCTYPE svg PUBLIC "-//W3C//DTD SVG 1.1//EN"
 "http://www.w3.org/Graphics/SVG/1.1/DTD/svg11.dtd">
<!-- Generated by graphviz version 2.43.0 (0)
 -->
<!-- Title: fiftyone.pipeline.web.services.ClientsidePropertyServiceCore.Default Pages: 1 -->
<svg width="606pt" height="88pt"
 viewBox="0.00 0.00 606.00 88.00" xmlns="http://www.w3.org/2000/svg" xmlns:xlink="http://www.w3.org/1999/xlink">
<g id="graph0" class="graph" transform="scale(1 1) rotate(0) translate(4 84)">
<title>fiftyone.pipeline.web.services.ClientsidePropertyServiceCore.Default</title>
<!-- Node3 -->
<g id="node1" class="node">
<title>Node3</title>
<g id="a_node1"><a xlink:title="Default implementation of the ClientsidePropertyServiceCore interface.">
<polygon fill="#bfbfbf" stroke="black" points="394,-25.5 394,-55.5 598,-55.5 598,-25.5 394,-25.5"/>
<text text-anchor="start" x="402" y="-43.5" font-family="Helvetica,sans-Serif" font-size="10.00">fiftyone.pipeline.web.services.</text>
<text text-anchor="middle" x="496" y="-32.5" font-family="Helvetica,sans-Serif" font-size="10.00">ClientsidePropertyServiceCore.Default</text>
</a>
</g>
</g>
<!-- Node4 -->
<g id="node2" class="node">
<title>Node4</title>
<g id="a_node2"><a xlink:href="interfacefiftyone_1_1pipeline_1_1web_1_1services_1_1_clientside_property_service_core.html" target="_top" xlink:title="Class that provides functionality for the &#39;Client side overrides&#39; feature.">
<polygon fill="none" stroke="black" points="137,-49.5 137,-79.5 302,-79.5 302,-49.5 137,-49.5"/>
<text text-anchor="start" x="145" y="-67.5" font-family="Helvetica,sans-Serif" font-size="10.00">fiftyone.pipeline.web.services.</text>
<text text-anchor="middle" x="219.5" y="-56.5" font-family="Helvetica,sans-Serif" font-size="10.00">ClientsidePropertyServiceCore</text>
</a>
</g>
</g>
<!-- Node4&#45;&gt;Node3 -->
<g id="edge1" class="edge">
<title>Node4&#45;&gt;Node3</title>
<path fill="none" stroke="midnightblue" d="M312.38,-56.47C338.51,-54.18 367.1,-51.68 393.75,-49.35"/>
<polygon fill="midnightblue" stroke="midnightblue" points="311.77,-53.01 302.12,-57.36 312.38,-59.98 311.77,-53.01"/>
</g>
<!-- Node5 -->
<g id="node3" class="node">
<title>Node5</title>
<g id="a_node3"><a xlink:href="interfacefiftyone_1_1pipeline_1_1core_1_1flowelements_1_1_pipeline.html" target="_top" xlink:title="The Pipeline groups together FlowElements and is a factory for FlowData which serves as the evidence,...">
<polygon fill="none" stroke="black" points="124,-0.5 124,-30.5 315,-30.5 315,-0.5 124,-0.5"/>
<text text-anchor="start" x="132" y="-18.5" font-family="Helvetica,sans-Serif" font-size="10.00">fiftyone.pipeline.core.flowelements.</text>
<text text-anchor="middle" x="219.5" y="-7.5" font-family="Helvetica,sans-Serif" font-size="10.00">Pipeline</text>
</a>
</g>
</g>
<!-- Node5&#45;&gt;Node3 -->
<g id="edge2" class="edge">
<title>Node5&#45;&gt;Node3</title>
<path fill="none" stroke="#9a32cd" stroke-dasharray="5,2" d="M325.52,-25.06C347.85,-27.1 371.39,-29.24 393.59,-31.26"/>
<polygon fill="#9a32cd" stroke="#9a32cd" points="325.63,-21.56 315.35,-24.14 324.99,-28.53 325.63,-21.56"/>
<text text-anchor="middle" x="354.5" y="-31.5" font-family="Helvetica,sans-Serif" font-size="10.00"> pipeline</text>
</g>
<!-- Node6 -->
<g id="node4" class="node">
<title>Node6</title>
<g id="a_node4"><a xlink:title=" ">
<polygon fill="none" stroke="#bfbfbf" points="0,-6 0,-25 87,-25 87,-6 0,-6"/>
<text text-anchor="middle" x="43.5" y="-13" font-family="Helvetica,sans-Serif" font-size="10.00">AutoCloseable</text>
</a>
</g>
</g>
<!-- Node6&#45;&gt;Node5 -->
<g id="edge3" class="edge">
<title>Node6&#45;&gt;Node5</title>
<path fill="none" stroke="midnightblue" d="M97.15,-15.5C105.65,-15.5 114.68,-15.5 123.81,-15.5"/>
<polygon fill="midnightblue" stroke="midnightblue" points="97.07,-12 87.07,-15.5 97.07,-19 97.07,-12"/>
</g>
</g>
</svg>
