<?xml version="1.0" encoding="UTF-8" standalone="no"?>
<!DOCTYPE svg PUBLIC "-//W3C//DTD SVG 1.1//EN"
 "http://www.w3.org/Graphics/SVG/1.1/DTD/svg11.dtd">
<!-- Generated by graphviz version 2.43.0 (0)
 -->
<!-- Title: fiftyone.pipeline.cloudrequestengine.flowelements.CloudAspectEngineBase&lt; TData extends AspectData &gt; Pages: 1 -->
<svg width="2606pt" height="412pt"
 viewBox="0.00 0.00 2606.00 411.88" xmlns="http://www.w3.org/2000/svg" xmlns:xlink="http://www.w3.org/1999/xlink">
<g id="graph0" class="graph" transform="scale(1 1) rotate(0) translate(4 407.88)">
<title>fiftyone.pipeline.cloudrequestengine.flowelements.CloudAspectEngineBase&lt; TData extends AspectData &gt;</title>
<!-- Node0 -->
<g id="node1" class="node">
<title>Node0</title>
<g id="a_node1"><a xlink:title="Base class for 51Degrees Cloud Aspect Engines.">
<polygon fill="#bfbfbf" stroke="black" points="1672,-192.38 1672,-233.38 1938,-233.38 1938,-192.38 1672,-192.38"/>
<text text-anchor="start" x="1680" y="-221.38" font-family="Helvetica,sans-Serif" font-size="10.00">fiftyone.pipeline.cloudrequestengine.flowelements.</text>
<text text-anchor="start" x="1680" y="-210.38" font-family="Helvetica,sans-Serif" font-size="10.00">CloudAspectEngineBase&lt; TData extends</text>
<text text-anchor="middle" x="1805" y="-199.38" font-family="Helvetica,sans-Serif" font-size="10.00"> AspectData &gt;</text>
</a>
</g>
</g>
<!-- Node15 -->
<g id="node16" class="node">
<title>Node15</title>
<g id="a_node16"><a xlink:href="classfiftyone_1_1pipeline_1_1cloudrequestengine_1_1flowelements_1_1_cloud_aspect_engine_base.html" target="_top" xlink:title=" ">
<polygon fill="none" stroke="black" points="2029,-197.88 2029,-227.88 2295,-227.88 2295,-197.88 2029,-197.88"/>
<text text-anchor="start" x="2037" y="-215.88" font-family="Helvetica,sans-Serif" font-size="10.00">fiftyone.pipeline.cloudrequestengine.flowelements.</text>
<text text-anchor="middle" x="2162" y="-204.88" font-family="Helvetica,sans-Serif" font-size="10.00">CloudAspectEngineBase&lt; TData &gt;</text>
</a>
</g>
</g>
<!-- Node0&#45;&gt;Node15 -->
<g id="edge28" class="edge">
<title>Node0&#45;&gt;Node15</title>
<path fill="none" stroke="orange" stroke-dasharray="5,2" d="M1948.34,-212.88C1974.97,-212.88 2002.7,-212.88 2029,-212.88"/>
<polygon fill="orange" stroke="orange" points="1948.19,-209.38 1938.19,-212.88 1948.19,-216.38 1948.19,-209.38"/>
<text text-anchor="middle" x="1983.5" y="-215.88" font-family="Helvetica,sans-Serif" font-size="10.00"> &lt; TData &gt;</text>
</g>
<!-- Node1 -->
<g id="node2" class="node">
<title>Node1</title>
<g id="a_node2"><a xlink:href="classfiftyone_1_1pipeline_1_1engines_1_1flowelements_1_1_aspect_engine_base.html" target="_top" xlink:title="Base class for AspectEngines to extend.">
<polygon fill="none" stroke="black" points="1477,-186.88 1477,-238.88 1633,-238.88 1633,-186.88 1477,-186.88"/>
<text text-anchor="start" x="1485" y="-226.88" font-family="Helvetica,sans-Serif" font-size="10.00">fiftyone::pipeline</text>
<text text-anchor="start" x="1485" y="-215.88" font-family="Helvetica,sans-Serif" font-size="10.00">::engines::flowelements</text>
<text text-anchor="start" x="1485" y="-204.88" font-family="Helvetica,sans-Serif" font-size="10.00">::AspectEngineBase&lt; TData,</text>
<text text-anchor="middle" x="1555" y="-193.88" font-family="Helvetica,sans-Serif" font-size="10.00"> AspectPropertyMetaData &gt;</text>
</a>
</g>
</g>
<!-- Node1&#45;&gt;Node0 -->
<g id="edge1" class="edge">
<title>Node1&#45;&gt;Node0</title>
<path fill="none" stroke="midnightblue" d="M1643.11,-212.88C1652.45,-212.88 1662.09,-212.88 1671.81,-212.88"/>
<polygon fill="midnightblue" stroke="midnightblue" points="1643.11,-209.38 1633.11,-212.88 1643.11,-216.38 1643.11,-209.38"/>
</g>
<!-- Node2 -->
<g id="node3" class="node">
<title>Node2</title>
<g id="a_node3"><a xlink:href="classfiftyone_1_1pipeline_1_1core_1_1flowelements_1_1_flow_element_base.html" target="_top" xlink:title="Provides a base class from which authors may create new FlowElements.">
<polygon fill="none" stroke="black" points="1256.5,-200.88 1256.5,-252.88 1410.5,-252.88 1410.5,-200.88 1256.5,-200.88"/>
<text text-anchor="start" x="1264.5" y="-240.88" font-family="Helvetica,sans-Serif" font-size="10.00">fiftyone::pipeline</text>
<text text-anchor="start" x="1264.5" y="-229.88" font-family="Helvetica,sans-Serif" font-size="10.00">::core::flowelements</text>
<text text-anchor="start" x="1264.5" y="-218.88" font-family="Helvetica,sans-Serif" font-size="10.00">::FlowElementBase&lt; TData,</text>
<text text-anchor="middle" x="1333.5" y="-207.88" font-family="Helvetica,sans-Serif" font-size="10.00"> TProperty &gt;</text>
</a>
</g>
</g>
<!-- Node2&#45;&gt;Node1 -->
<g id="edge2" class="edge">
<title>Node2&#45;&gt;Node1</title>
<path fill="none" stroke="midnightblue" d="M1420.82,-221.37C1439.32,-220.19 1458.74,-218.95 1476.86,-217.8"/>
<polygon fill="midnightblue" stroke="midnightblue" points="1420.41,-217.89 1410.65,-222.02 1420.86,-224.88 1420.41,-217.89"/>
</g>
<!-- Node3 -->
<g id="node4" class="node">
<title>Node3</title>
<g id="a_node4"><a xlink:href="interfacefiftyone_1_1pipeline_1_1core_1_1flowelements_1_1_flow_element.html" target="_top" xlink:title=" ">
<polygon fill="none" stroke="black" points="866,-211.88 866,-241.88 1057,-241.88 1057,-211.88 866,-211.88"/>
<text text-anchor="start" x="874" y="-229.88" font-family="Helvetica,sans-Serif" font-size="10.00">fiftyone.pipeline.core.flowelements.</text>
<text text-anchor="middle" x="961.5" y="-218.88" font-family="Helvetica,sans-Serif" font-size="10.00">FlowElement&lt; TData, TProperty &gt;</text>
</a>
</g>
</g>
<!-- Node3&#45;&gt;Node2 -->
<g id="edge3" class="edge">
<title>Node3&#45;&gt;Node2</title>
<path fill="none" stroke="midnightblue" d="M1067.59,-226.88C1127.71,-226.88 1201.76,-226.88 1256.28,-226.88"/>
<polygon fill="midnightblue" stroke="midnightblue" points="1067.3,-223.38 1057.3,-226.88 1067.3,-230.38 1067.3,-223.38"/>
</g>
<!-- Node4 -->
<g id="node5" class="node">
<title>Node4</title>
<g id="a_node5"><a xlink:href="interfacefiftyone_1_1pipeline_1_1core_1_1flowelements_1_1_flow_element.html" target="_top" xlink:title="A component that processes a FlowData (by examining its evidence, or by examining data processed by o...">
<polygon fill="none" stroke="black" points="441,-206.38 441,-247.38 694,-247.38 694,-206.38 441,-206.38"/>
<text text-anchor="start" x="449" y="-235.38" font-family="Helvetica,sans-Serif" font-size="10.00">fiftyone.pipeline.core.flowelements.</text>
<text text-anchor="start" x="449" y="-224.38" font-family="Helvetica,sans-Serif" font-size="10.00">FlowElement&lt; TData extends ElementData,</text>
<text text-anchor="middle" x="567.5" y="-213.38" font-family="Helvetica,sans-Serif" font-size="10.00"> TProperty extends ElementPropertyMetaData &gt;</text>
</a>
</g>
</g>
<!-- Node4&#45;&gt;Node3 -->
<g id="edge4" class="edge">
<title>Node4&#45;&gt;Node3</title>
<path fill="none" stroke="orange" stroke-dasharray="5,2" d="M704.35,-226.88C757.55,-226.88 817.29,-226.88 865.69,-226.88"/>
<polygon fill="orange" stroke="orange" points="704.15,-223.38 694.15,-226.88 704.15,-230.38 704.15,-223.38"/>
<text text-anchor="middle" x="766.5" y="-229.88" font-family="Helvetica,sans-Serif" font-size="10.00"> &lt; TData, TProperty &gt;</text>
</g>
<!-- Node5 -->
<g id="node6" class="node">
<title>Node5</title>
<g id="a_node6"><a xlink:title=" ">
<polygon fill="none" stroke="#bfbfbf" points="237,-191.38 237,-210.38 324,-210.38 324,-191.38 237,-191.38"/>
<text text-anchor="middle" x="280.5" y="-198.38" font-family="Helvetica,sans-Serif" font-size="10.00">AutoCloseable</text>
</a>
</g>
</g>
<!-- Node5&#45;&gt;Node4 -->
<g id="edge5" class="edge">
<title>Node5&#45;&gt;Node4</title>
<path fill="none" stroke="midnightblue" d="M334.29,-211.34C346.63,-213.47 359.74,-215.49 372,-216.88 394.17,-219.4 417.84,-221.28 440.76,-222.7"/>
<polygon fill="midnightblue" stroke="midnightblue" points="334.61,-207.85 324.16,-209.54 333.39,-214.74 334.61,-207.85"/>
</g>
<!-- Node11 -->
<g id="node12" class="node">
<title>Node11</title>
<g id="a_node12"><a xlink:href="interfacefiftyone_1_1pipeline_1_1core_1_1flowelements_1_1_flow_element.html" target="_top" xlink:title="A component that processes a FlowData (by examining its evidence, or by examining data processed by o...">
<polygon fill="none" stroke="black" points="502.5,-115.88 502.5,-167.88 632.5,-167.88 632.5,-115.88 502.5,-115.88"/>
<text text-anchor="start" x="510.5" y="-155.88" font-family="Helvetica,sans-Serif" font-size="10.00">fiftyone::pipeline</text>
<text text-anchor="start" x="510.5" y="-144.88" font-family="Helvetica,sans-Serif" font-size="10.00">::core::flowelements</text>
<text text-anchor="start" x="510.5" y="-133.88" font-family="Helvetica,sans-Serif" font-size="10.00">::FlowElement&lt; TData,</text>
<text text-anchor="middle" x="567.5" y="-122.88" font-family="Helvetica,sans-Serif" font-size="10.00"> TProperty &gt;</text>
</a>
</g>
</g>
<!-- Node5&#45;&gt;Node11 -->
<g id="edge14" class="edge">
<title>Node5&#45;&gt;Node11</title>
<path fill="none" stroke="midnightblue" d="M303.19,-185.53C320.82,-173.97 346.81,-158.96 372,-151.88 414.32,-139.99 463.81,-137.6 502.28,-138.12"/>
<polygon fill="midnightblue" stroke="midnightblue" points="301.12,-182.71 294.78,-191.2 305.03,-188.51 301.12,-182.71"/>
</g>
<!-- Node6 -->
<g id="node7" class="node">
<title>Node6</title>
<g id="a_node7"><a xlink:href="interfacefiftyone_1_1pipeline_1_1core_1_1data_1_1_element_data.html" target="_top" xlink:title="Represents property values that have be determined by a specific FlowElement based on the supplied ev...">
<polygon fill="none" stroke="black" points="207,-261.88 207,-291.88 354,-291.88 354,-261.88 207,-261.88"/>
<text text-anchor="start" x="215" y="-279.88" font-family="Helvetica,sans-Serif" font-size="10.00">fiftyone.pipeline.core.data.</text>
<text text-anchor="middle" x="280.5" y="-268.88" font-family="Helvetica,sans-Serif" font-size="10.00">ElementData</text>
</a>
</g>
</g>
<!-- Node6&#45;&gt;Node2 -->
<g id="edge9" class="edge">
<title>Node6&#45;&gt;Node2</title>
<path fill="none" stroke="orange" stroke-dasharray="5,2" d="M364.24,-275.91C509.87,-273.84 821.42,-267.81 1084,-251.88 1142,-248.36 1207.36,-241.68 1256.49,-236.1"/>
<polygon fill="orange" stroke="orange" points="364,-272.41 354.05,-276.05 364.09,-279.41 364,-272.41"/>
<text text-anchor="middle" x="766.5" y="-270.88" font-family="Helvetica,sans-Serif" font-size="10.00"> TData</text>
</g>
<!-- Node6&#45;&gt;Node4 -->
<g id="edge6" class="edge">
<title>Node6&#45;&gt;Node4</title>
<path fill="none" stroke="orange" stroke-dasharray="5,2" d="M364.18,-262.37C390.79,-257.71 420.8,-252.44 449.4,-247.42"/>
<polygon fill="orange" stroke="orange" points="363.4,-258.96 354.15,-264.13 364.61,-265.85 363.4,-258.96"/>
<text text-anchor="middle" x="397.5" y="-262.88" font-family="Helvetica,sans-Serif" font-size="10.00"> TData</text>
</g>
<!-- Node6&#45;&gt;Node11 -->
<g id="edge15" class="edge">
<title>Node6&#45;&gt;Node11</title>
<path fill="none" stroke="orange" stroke-dasharray="5,2" d="M319.44,-257.16C351.58,-240.61 399.02,-216.59 441,-196.88 461.78,-187.12 484.73,-176.91 505.25,-167.96"/>
<polygon fill="orange" stroke="orange" points="317.67,-254.13 310.38,-261.83 320.88,-260.35 317.67,-254.13"/>
<text text-anchor="middle" x="397.5" y="-231.88" font-family="Helvetica,sans-Serif" font-size="10.00"> TData</text>
</g>
<!-- Node12 -->
<g id="node13" class="node">
<title>Node12</title>
<g id="a_node13"><a xlink:href="interfacefiftyone_1_1pipeline_1_1engines_1_1data_1_1_aspect_data.html" target="_top" xlink:title="Represents a specialized ElementData instance that is generated by an AspectEngine.">
<polygon fill="none" stroke="black" points="485.5,-304.88 485.5,-334.88 649.5,-334.88 649.5,-304.88 485.5,-304.88"/>
<text text-anchor="start" x="493.5" y="-322.88" font-family="Helvetica,sans-Serif" font-size="10.00">fiftyone.pipeline.engines.data.</text>
<text text-anchor="middle" x="567.5" y="-311.88" font-family="Helvetica,sans-Serif" font-size="10.00">AspectData</text>
</a>
</g>
</g>
<!-- Node6&#45;&gt;Node12 -->
<g id="edge18" class="edge">
<title>Node6&#45;&gt;Node12</title>
<path fill="none" stroke="midnightblue" d="M335.12,-294.87C347.14,-298.35 359.92,-301.6 372,-303.88 408.79,-310.8 450.06,-314.73 485.09,-316.96"/>
<polygon fill="midnightblue" stroke="midnightblue" points="335.82,-291.43 325.24,-291.92 333.82,-298.14 335.82,-291.43"/>
</g>
<!-- Node7 -->
<g id="node8" class="node">
<title>Node7</title>
<g id="a_node8"><a xlink:href="interfacefiftyone_1_1pipeline_1_1core_1_1data_1_1_data.html" target="_top" xlink:title="Represents a collection of property values.">
<polygon fill="none" stroke="black" points="0,-267.38 0,-286.38 170,-286.38 170,-267.38 0,-267.38"/>
<text text-anchor="middle" x="85" y="-274.38" font-family="Helvetica,sans-Serif" font-size="10.00">fiftyone.pipeline.core.data.Data</text>
</a>
</g>
</g>
<!-- Node7&#45;&gt;Node6 -->
<g id="edge7" class="edge">
<title>Node7&#45;&gt;Node6</title>
<path fill="none" stroke="midnightblue" d="M180.11,-276.88C189.07,-276.88 198.06,-276.88 206.77,-276.88"/>
<polygon fill="midnightblue" stroke="midnightblue" points="180.03,-273.38 170.03,-276.88 180.03,-280.38 180.03,-273.38"/>
</g>
<!-- Node8 -->
<g id="node9" class="node">
<title>Node8</title>
<g id="a_node9"><a xlink:href="interfacefiftyone_1_1pipeline_1_1core_1_1data_1_1_element_property_meta_data.html" target="_top" xlink:title="Defines details of a property that can be returned by a FlowElement.">
<polygon fill="none" stroke="black" points="207,-80.88 207,-110.88 354,-110.88 354,-80.88 207,-80.88"/>
<text text-anchor="start" x="215" y="-98.88" font-family="Helvetica,sans-Serif" font-size="10.00">fiftyone.pipeline.core.data.</text>
<text text-anchor="middle" x="280.5" y="-87.88" font-family="Helvetica,sans-Serif" font-size="10.00">ElementPropertyMetaData</text>
</a>
</g>
</g>
<!-- Node8&#45;&gt;Node2 -->
<g id="edge10" class="edge">
<title>Node8&#45;&gt;Node2</title>
<path fill="none" stroke="orange" stroke-dasharray="5,2" d="M363.97,-87.03C469.21,-77.55 643.67,-68.46 694,-105.88 714.64,-121.23 692,-144.7 712,-160.88 717.25,-165.13 1091.62,-202.88 1256.24,-219.31"/>
<polygon fill="orange" stroke="orange" points="363.64,-83.55 354,-87.95 364.28,-90.52 363.64,-83.55"/>
<text text-anchor="middle" x="766.5" y="-176.88" font-family="Helvetica,sans-Serif" font-size="10.00"> TProperty</text>
</g>
<!-- Node8&#45;&gt;Node4 -->
<g id="edge8" class="edge">
<title>Node8&#45;&gt;Node4</title>
<path fill="none" stroke="orange" stroke-dasharray="5,2" d="M318.36,-115.8C350.4,-132.83 398.24,-157.55 441,-176.88 463.87,-187.22 489.54,-197.65 511.69,-206.29"/>
<polygon fill="orange" stroke="orange" points="319.83,-112.62 309.36,-111 316.54,-118.8 319.83,-112.62"/>
<text text-anchor="middle" x="397.5" y="-169.88" font-family="Helvetica,sans-Serif" font-size="10.00"> TProperty</text>
</g>
<!-- Node8&#45;&gt;Node11 -->
<g id="edge16" class="edge">
<title>Node8&#45;&gt;Node11</title>
<path fill="none" stroke="orange" stroke-dasharray="5,2" d="M364.02,-104.67C383.41,-107.04 403.97,-109.82 423,-112.88 449.1,-117.08 477.67,-122.65 502.41,-127.79"/>
<polygon fill="orange" stroke="orange" points="364.35,-101.18 354,-103.46 363.51,-108.13 364.35,-101.18"/>
<text text-anchor="middle" x="397.5" y="-115.88" font-family="Helvetica,sans-Serif" font-size="10.00"> TProperty</text>
</g>
<!-- Node13 -->
<g id="node14" class="node">
<title>Node13</title>
<g id="a_node14"><a xlink:href="interfacefiftyone_1_1pipeline_1_1engines_1_1data_1_1_aspect_property_meta_data.html" target="_top" xlink:title="Holds details about a property that can be returned by an AspectEngine.">
<polygon fill="none" stroke="black" points="485.5,-27.88 485.5,-57.88 649.5,-57.88 649.5,-27.88 485.5,-27.88"/>
<text text-anchor="start" x="493.5" y="-45.88" font-family="Helvetica,sans-Serif" font-size="10.00">fiftyone.pipeline.engines.data.</text>
<text text-anchor="middle" x="567.5" y="-34.88" font-family="Helvetica,sans-Serif" font-size="10.00">AspectPropertyMetaData</text>
</a>
</g>
</g>
<!-- Node8&#45;&gt;Node13 -->
<g id="edge20" class="edge">
<title>Node8&#45;&gt;Node13</title>
<path fill="none" stroke="midnightblue" d="M329.36,-77.32C342.97,-72.64 357.92,-68.05 372,-64.88 408.8,-56.6 450.25,-51.36 485.41,-48.09"/>
<polygon fill="midnightblue" stroke="midnightblue" points="327.99,-74.09 319.72,-80.72 330.32,-80.69 327.99,-74.09"/>
</g>
<!-- Node9 -->
<g id="node10" class="node">
<title>Node9</title>
<g id="a_node10"><a xlink:href="interfacefiftyone_1_1pipeline_1_1engines_1_1flowelements_1_1_aspect_engine.html" target="_top" xlink:title=" ">
<polygon fill="none" stroke="black" points="1229,-111.88 1229,-141.88 1438,-141.88 1438,-111.88 1229,-111.88"/>
<text text-anchor="start" x="1237" y="-129.88" font-family="Helvetica,sans-Serif" font-size="10.00">fiftyone.pipeline.engines.flowelements.</text>
<text text-anchor="middle" x="1333.5" y="-118.88" font-family="Helvetica,sans-Serif" font-size="10.00">AspectEngine&lt; TData, TProperty &gt;</text>
</a>
</g>
</g>
<!-- Node9&#45;&gt;Node1 -->
<g id="edge11" class="edge">
<title>Node9&#45;&gt;Node1</title>
<path fill="none" stroke="midnightblue" d="M1369.3,-146.88C1393.12,-159.93 1425.75,-176.58 1456,-187.88 1462.66,-190.37 1469.67,-192.69 1476.74,-194.85"/>
<polygon fill="midnightblue" stroke="midnightblue" points="1370.75,-143.68 1360.31,-141.89 1367.36,-149.8 1370.75,-143.68"/>
</g>
<!-- Node14 -->
<g id="node15" class="node">
<title>Node14</title>
<g id="a_node15"><a xlink:href="interfacefiftyone_1_1pipeline_1_1engines_1_1flowelements_1_1_cloud_aspect_engine.html" target="_top" xlink:title="Aspect engine interface which is specific to a cloud engine.">
<polygon fill="none" stroke="black" points="1475,-113.88 1475,-165.88 1635,-165.88 1635,-113.88 1475,-113.88"/>
<text text-anchor="start" x="1483" y="-153.88" font-family="Helvetica,sans-Serif" font-size="10.00">fiftyone::pipeline</text>
<text text-anchor="start" x="1483" y="-142.88" font-family="Helvetica,sans-Serif" font-size="10.00">::engines::flowelements</text>
<text text-anchor="start" x="1483" y="-131.88" font-family="Helvetica,sans-Serif" font-size="10.00">::CloudAspectEngine&lt; TData,</text>
<text text-anchor="middle" x="1555" y="-120.88" font-family="Helvetica,sans-Serif" font-size="10.00"> AspectPropertyMetaData &gt;</text>
</a>
</g>
</g>
<!-- Node9&#45;&gt;Node14 -->
<g id="edge24" class="edge">
<title>Node9&#45;&gt;Node14</title>
<path fill="none" stroke="midnightblue" d="M1448.26,-133.62C1457.22,-134.15 1466.14,-134.68 1474.79,-135.19"/>
<polygon fill="midnightblue" stroke="midnightblue" points="1448.33,-130.11 1438.14,-133.02 1447.92,-137.1 1448.33,-130.11"/>
</g>
<!-- Node10 -->
<g id="node11" class="node">
<title>Node10</title>
<g id="a_node11"><a xlink:href="interfacefiftyone_1_1pipeline_1_1engines_1_1flowelements_1_1_aspect_engine.html" target="_top" xlink:title="AspectEngines are a subset of FlowElements.">
<polygon fill="none" stroke="black" points="839,-104.38 839,-145.38 1084,-145.38 1084,-104.38 839,-104.38"/>
<text text-anchor="start" x="847" y="-133.38" font-family="Helvetica,sans-Serif" font-size="10.00">fiftyone.pipeline.engines.flowelements.</text>
<text text-anchor="start" x="847" y="-122.38" font-family="Helvetica,sans-Serif" font-size="10.00">AspectEngine&lt; TData extends AspectData,</text>
<text text-anchor="middle" x="961.5" y="-111.38" font-family="Helvetica,sans-Serif" font-size="10.00"> TProperty extends AspectPropertyMetaData &gt;</text>
</a>
</g>
</g>
<!-- Node10&#45;&gt;Node9 -->
<g id="edge12" class="edge">
<title>Node10&#45;&gt;Node9</title>
<path fill="none" stroke="orange" stroke-dasharray="5,2" d="M1094.39,-125.59C1138.53,-125.83 1187.07,-126.09 1228.74,-126.32"/>
<polygon fill="orange" stroke="orange" points="1094.18,-122.09 1084.16,-125.54 1094.15,-129.09 1094.18,-122.09"/>
<text text-anchor="middle" x="1156.5" y="-129.88" font-family="Helvetica,sans-Serif" font-size="10.00"> &lt; TData, TProperty &gt;</text>
</g>
<!-- Node11&#45;&gt;Node10 -->
<g id="edge13" class="edge">
<title>Node11&#45;&gt;Node10</title>
<path fill="none" stroke="midnightblue" d="M642.78,-134.77C665.02,-132.88 689.48,-131.05 712,-129.88 753.26,-127.74 798.42,-126.5 838.79,-125.79"/>
<polygon fill="midnightblue" stroke="midnightblue" points="642.39,-131.29 632.73,-135.63 643,-138.26 642.39,-131.29"/>
</g>
<!-- Node12&#45;&gt;Node0 -->
<g id="edge27" class="edge">
<title>Node12&#45;&gt;Node0</title>
<path fill="none" stroke="orange" stroke-dasharray="5,2" d="M627.02,-337.75C703.09,-359.36 840.42,-392.88 960.5,-392.88 960.5,-392.88 960.5,-392.88 1556,-392.88 1663.47,-392.88 1755.75,-280.81 1789.9,-233.53"/>
<polygon fill="orange" stroke="orange" points="627.73,-334.31 617.15,-334.92 625.8,-341.04 627.73,-334.31"/>
<text text-anchor="middle" x="1333.5" y="-395.88" font-family="Helvetica,sans-Serif" font-size="10.00"> TData</text>
</g>
<!-- Node12&#45;&gt;Node1 -->
<g id="edge21" class="edge">
<title>Node12&#45;&gt;Node1</title>
<path fill="none" stroke="orange" stroke-dasharray="5,2" d="M659.79,-326.79C853.36,-340.14 1298.66,-363.61 1438,-308.88 1475.71,-294.07 1510.28,-262 1531.69,-239"/>
<polygon fill="orange" stroke="orange" points="659.87,-323.29 649.65,-326.08 659.38,-330.27 659.87,-323.29"/>
<text text-anchor="middle" x="1156.5" y="-345.88" font-family="Helvetica,sans-Serif" font-size="10.00"> TData</text>
</g>
<!-- Node12&#45;&gt;Node10 -->
<g id="edge17" class="edge">
<title>Node12&#45;&gt;Node10</title>
<path fill="none" stroke="orange" stroke-dasharray="5,2" d="M633.25,-300.98C655.74,-291.29 679.05,-277.13 694,-256.88 722.65,-218.09 676.79,-182.83 712,-149.88 721.85,-140.66 780.9,-134.49 838.96,-130.59"/>
<polygon fill="orange" stroke="orange" points="631.64,-297.86 623.69,-304.87 634.27,-304.35 631.64,-297.86"/>
<text text-anchor="middle" x="766.5" y="-152.88" font-family="Helvetica,sans-Serif" font-size="10.00"> TData</text>
</g>
<!-- Node12&#45;&gt;Node14 -->
<g id="edge25" class="edge">
<title>Node12&#45;&gt;Node14</title>
<path fill="none" stroke="orange" stroke-dasharray="5,2" d="M659.7,-319.21C869.94,-316.91 1375.49,-306.84 1438,-262.88 1471.7,-239.18 1446.42,-207.56 1475,-177.88 1479.22,-173.49 1484.05,-169.55 1489.2,-166.02"/>
<polygon fill="orange" stroke="orange" points="659.57,-315.71 649.61,-319.32 659.64,-322.71 659.57,-315.71"/>
<text text-anchor="middle" x="1156.5" y="-308.88" font-family="Helvetica,sans-Serif" font-size="10.00"> TData</text>
</g>
<!-- Node13&#45;&gt;Node1 -->
<g id="edge22" class="edge">
<title>Node13&#45;&gt;Node1</title>
<path fill="none" stroke="orange" stroke-dasharray="5,2" d="M659.92,-44.02C870.04,-47.36 1374.3,-59.72 1438,-101.88 1468.33,-121.96 1449.01,-149.43 1475,-174.88 1479.46,-179.25 1484.51,-183.19 1489.86,-186.73"/>
<polygon fill="orange" stroke="orange" points="659.89,-40.52 649.83,-43.86 659.78,-47.52 659.89,-40.52"/>
<text text-anchor="middle" x="1156.5" y="-68.88" font-family="Helvetica,sans-Serif" font-size="10.00"> TProperty</text>
</g>
<!-- Node13&#45;&gt;Node10 -->
<g id="edge19" class="edge">
<title>Node13&#45;&gt;Node10</title>
<path fill="none" stroke="orange" stroke-dasharray="5,2" d="M650.49,-60.03C712.24,-72.95 797.14,-90.71 862.48,-104.38"/>
<polygon fill="orange" stroke="orange" points="650.9,-56.54 640.4,-57.92 649.47,-63.39 650.9,-56.54"/>
<text text-anchor="middle" x="766.5" y="-96.88" font-family="Helvetica,sans-Serif" font-size="10.00"> TProperty</text>
</g>
<!-- Node13&#45;&gt;Node14 -->
<g id="edge26" class="edge">
<title>Node13&#45;&gt;Node14</title>
<path fill="none" stroke="orange" stroke-dasharray="5,2" d="M659.64,-26.92C821.7,-2.43 1168.29,32.26 1438,-62.88 1469.91,-74.14 1501.61,-96.11 1523.79,-113.71"/>
<polygon fill="orange" stroke="orange" points="659.06,-23.47 649.71,-28.45 660.12,-30.39 659.06,-23.47"/>
<text text-anchor="middle" x="1156.5" y="-14.88" font-family="Helvetica,sans-Serif" font-size="10.00"> TProperty</text>
</g>
<!-- Node14&#45;&gt;Node0 -->
<g id="edge23" class="edge">
<title>Node14&#45;&gt;Node0</title>
<path fill="none" stroke="midnightblue" d="M1644.96,-166.06C1674.22,-174.68 1706.32,-184.13 1733.97,-192.27"/>
<polygon fill="midnightblue" stroke="midnightblue" points="1645.73,-162.64 1635.15,-163.18 1643.76,-169.36 1645.73,-162.64"/>
</g>
<!-- Node16 -->
<g id="node17" class="node">
<title>Node16</title>
<g id="a_node17"><a xlink:href="classfiftyone_1_1pipeline_1_1cloudrequestengine_1_1flowelements_1_1_property_keyed_cloud_engine_base.html" target="_top" xlink:title="A specialised type of CloudAspectEngineBase that has the functionality to support returning a list of...">
<polygon fill="none" stroke="black" points="2332,-186.88 2332,-238.88 2598,-238.88 2598,-186.88 2332,-186.88"/>
<text text-anchor="start" x="2340" y="-226.88" font-family="Helvetica,sans-Serif" font-size="10.00">fiftyone.pipeline.cloudrequestengine.flowelements.</text>
<text text-anchor="start" x="2340" y="-215.88" font-family="Helvetica,sans-Serif" font-size="10.00">PropertyKeyedCloudEngineBase&lt; TData</text>
<text text-anchor="start" x="2340" y="-204.88" font-family="Helvetica,sans-Serif" font-size="10.00"> extends MultiProfileData&lt; TProfile,</text>
<text text-anchor="middle" x="2465" y="-193.88" font-family="Helvetica,sans-Serif" font-size="10.00"> TProfile extends AspectData &gt;</text>
</a>
</g>
</g>
<!-- Node15&#45;&gt;Node16 -->
<g id="edge29" class="edge">
<title>Node15&#45;&gt;Node16</title>
<path fill="none" stroke="midnightblue" d="M2305.03,-212.88C2313.91,-212.88 2322.84,-212.88 2331.68,-212.88"/>
<polygon fill="midnightblue" stroke="midnightblue" points="2305.02,-209.38 2295.02,-212.88 2305.02,-216.38 2305.02,-209.38"/>
</g>
</g>
</svg>
