<?xml version="1.0" encoding="UTF-8" standalone="no"?>
<!DOCTYPE svg PUBLIC "-//W3C//DTD SVG 1.1//EN"
 "http://www.w3.org/Graphics/SVG/1.1/DTD/svg11.dtd">
<!-- Generated by graphviz version 2.43.0 (0)
 -->
<!-- Title: fiftyone.pipeline.engines.flowelements.AspectEngineBuilderBase&lt; TBuilder extends AspectEngineBuilderBase&lt; TBuilder, TEngine, TEngine extends AspectEngine &gt; Pages: 1 -->
<svg width="2997pt" height="268pt"
 viewBox="0.00 0.00 2997.00 268.00" xmlns="http://www.w3.org/2000/svg" xmlns:xlink="http://www.w3.org/1999/xlink">
<g id="graph0" class="graph" transform="scale(1 1) rotate(0) translate(4 264)">
<title>fiftyone.pipeline.engines.flowelements.AspectEngineBuilderBase&lt; TBuilder extends AspectEngineBuilderBase&lt; TBuilder, TEngine, TEngine extends AspectEngine &gt;</title>
<!-- Node0 -->
<g id="node1" class="node">
<title>Node0</title>
<g id="a_node1"><a xlink:title="Abstract base class that exposes the common options that all 51Degrees engine builders should make us...">
<polygon fill="#bfbfbf" stroke="black" points="1016,-125.5 1016,-188.5 1225,-188.5 1225,-125.5 1016,-125.5"/>
<text text-anchor="start" x="1024" y="-176.5" font-family="Helvetica,sans-Serif" font-size="10.00">fiftyone.pipeline.engines.flowelements.</text>
<text text-anchor="start" x="1024" y="-165.5" font-family="Helvetica,sans-Serif" font-size="10.00">AspectEngineBuilderBase&lt; TBuilder</text>
<text text-anchor="start" x="1024" y="-154.5" font-family="Helvetica,sans-Serif" font-size="10.00"> extends AspectEngineBuilderBase</text>
<text text-anchor="start" x="1024" y="-143.5" font-family="Helvetica,sans-Serif" font-size="10.00">&lt; TBuilder, TEngine, TEngine extends</text>
<text text-anchor="middle" x="1120.5" y="-132.5" font-family="Helvetica,sans-Serif" font-size="10.00"> AspectEngine &gt;</text>
</a>
</g>
</g>
<!-- Node9 -->
<g id="node10" class="node">
<title>Node9</title>
<g id="a_node10"><a xlink:href="classfiftyone_1_1pipeline_1_1cloudrequestengine_1_1flowelements_1_1_cloud_request_engine_builder.html" target="_top" xlink:title="Builder for the CloudRequestEngine.">
<polygon fill="none" stroke="black" points="1442.5,-196.5 1442.5,-259.5 1638.5,-259.5 1638.5,-196.5 1442.5,-196.5"/>
<text text-anchor="start" x="1450.5" y="-247.5" font-family="Helvetica,sans-Serif" font-size="10.00">fiftyone::pipeline</text>
<text text-anchor="start" x="1450.5" y="-236.5" font-family="Helvetica,sans-Serif" font-size="10.00">::cloudrequestengine</text>
<text text-anchor="start" x="1450.5" y="-225.5" font-family="Helvetica,sans-Serif" font-size="10.00">::flowelements::CloudRequest</text>
<text text-anchor="start" x="1450.5" y="-214.5" font-family="Helvetica,sans-Serif" font-size="10.00">EngineBuilder&lt; CloudRequestEngine</text>
<text text-anchor="middle" x="1540.5" y="-203.5" font-family="Helvetica,sans-Serif" font-size="10.00">Builder, CloudRequestEngine &gt;</text>
</a>
</g>
</g>
<!-- Node0&#45;&gt;Node9 -->
<g id="edge11" class="edge">
<title>Node0&#45;&gt;Node9</title>
<path fill="none" stroke="midnightblue" d="M1234.99,-181.51C1237.68,-182.02 1240.36,-182.52 1243,-183 1309.33,-195.12 1384.42,-206.49 1442.44,-214.77"/>
<polygon fill="midnightblue" stroke="midnightblue" points="1235.63,-178.07 1225.15,-179.62 1234.31,-184.94 1235.63,-178.07"/>
</g>
<!-- Node10 -->
<g id="node11" class="node">
<title>Node10</title>
<g id="a_node11"><a xlink:href="classfiftyone_1_1pipeline_1_1engines_1_1flowelements_1_1_aspect_engine_builder_base.html" target="_top" xlink:title=" ">
<polygon fill="none" stroke="black" points="1414,-136.5 1414,-177.5 1667,-177.5 1667,-136.5 1414,-136.5"/>
<text text-anchor="start" x="1422" y="-165.5" font-family="Helvetica,sans-Serif" font-size="10.00">fiftyone.pipeline.engines.flowelements.</text>
<text text-anchor="start" x="1422" y="-154.5" font-family="Helvetica,sans-Serif" font-size="10.00">AspectEngineBuilderBase&lt; CloudRequestEngine</text>
<text text-anchor="middle" x="1540.5" y="-143.5" font-family="Helvetica,sans-Serif" font-size="10.00">Builder, CloudRequestEngine &gt;</text>
</a>
</g>
</g>
<!-- Node0&#45;&gt;Node10 -->
<g id="edge12" class="edge">
<title>Node0&#45;&gt;Node10</title>
<path fill="none" stroke="orange" stroke-dasharray="5,2" d="M1235.27,-157C1290.47,-157 1356.94,-157 1413.65,-157"/>
<polygon fill="orange" stroke="orange" points="1235.09,-153.5 1225.09,-157 1235.09,-160.5 1235.09,-153.5"/>
<text text-anchor="start" x="1243" y="-171" font-family="Helvetica,sans-Serif" font-size="10.00"> &lt; CloudRequestEngineBuilder,</text>
<text text-anchor="middle" x="1319.5" y="-160" font-family="Helvetica,sans-Serif" font-size="10.00"> CloudRequestEngine &gt;</text>
</g>
<!-- Node11 -->
<g id="node12" class="node">
<title>Node11</title>
<g id="a_node12"><a xlink:href="classfiftyone_1_1pipeline_1_1engines_1_1flowelements_1_1_aspect_engine_builder_base.html" target="_top" xlink:title=" ">
<polygon fill="none" stroke="black" points="1436,-76.5 1436,-117.5 1645,-117.5 1645,-76.5 1436,-76.5"/>
<text text-anchor="start" x="1444" y="-105.5" font-family="Helvetica,sans-Serif" font-size="10.00">fiftyone.pipeline.engines.flowelements.</text>
<text text-anchor="start" x="1444" y="-94.5" font-family="Helvetica,sans-Serif" font-size="10.00">AspectEngineBuilderBase&lt; TBuilder,</text>
<text text-anchor="middle" x="1540.5" y="-83.5" font-family="Helvetica,sans-Serif" font-size="10.00"> TEngine &gt;</text>
</a>
</g>
</g>
<!-- Node0&#45;&gt;Node11 -->
<g id="edge13" class="edge">
<title>Node0&#45;&gt;Node11</title>
<path fill="none" stroke="orange" stroke-dasharray="5,2" d="M1235.01,-140.71C1297.58,-131.72 1374.71,-120.65 1435.68,-111.9"/>
<polygon fill="orange" stroke="orange" points="1234.5,-137.24 1225.09,-142.13 1235.49,-144.17 1234.5,-137.24"/>
<text text-anchor="middle" x="1319.5" y="-143" font-family="Helvetica,sans-Serif" font-size="10.00"> &lt; TBuilder, TEngine &gt;</text>
</g>
<!-- Node1 -->
<g id="node2" class="node">
<title>Node1</title>
<g id="a_node2"><a xlink:href="interfacefiftyone_1_1pipeline_1_1engines_1_1flowelements_1_1_aspect_engine.html" target="_top" xlink:title="AspectEngines are a subset of FlowElements.">
<polygon fill="none" stroke="black" points="692,-136.5 692,-177.5 937,-177.5 937,-136.5 692,-136.5"/>
<text text-anchor="start" x="700" y="-165.5" font-family="Helvetica,sans-Serif" font-size="10.00">fiftyone.pipeline.engines.flowelements.</text>
<text text-anchor="start" x="700" y="-154.5" font-family="Helvetica,sans-Serif" font-size="10.00">AspectEngine&lt; TData extends AspectData,</text>
<text text-anchor="middle" x="814.5" y="-143.5" font-family="Helvetica,sans-Serif" font-size="10.00"> TProperty extends AspectPropertyMetaData &gt;</text>
</a>
</g>
</g>
<!-- Node1&#45;&gt;Node0 -->
<g id="edge1" class="edge">
<title>Node1&#45;&gt;Node0</title>
<path fill="none" stroke="orange" stroke-dasharray="5,2" d="M947.48,-157C970.3,-157 993.73,-157 1015.67,-157"/>
<polygon fill="orange" stroke="orange" points="947.4,-153.5 937.4,-157 947.4,-160.5 947.4,-153.5"/>
<text text-anchor="middle" x="976.5" y="-160" font-family="Helvetica,sans-Serif" font-size="10.00"> TEngine</text>
</g>
<!-- Node2 -->
<g id="node3" class="node">
<title>Node2</title>
<g id="a_node3"><a xlink:href="interfacefiftyone_1_1pipeline_1_1core_1_1flowelements_1_1_flow_element.html" target="_top" xlink:title="A component that processes a FlowData (by examining its evidence, or by examining data processed by o...">
<polygon fill="none" stroke="black" points="458,-131 458,-183 588,-183 588,-131 458,-131"/>
<text text-anchor="start" x="466" y="-171" font-family="Helvetica,sans-Serif" font-size="10.00">fiftyone::pipeline</text>
<text text-anchor="start" x="466" y="-160" font-family="Helvetica,sans-Serif" font-size="10.00">::core::flowelements</text>
<text text-anchor="start" x="466" y="-149" font-family="Helvetica,sans-Serif" font-size="10.00">::FlowElement&lt; TData,</text>
<text text-anchor="middle" x="523" y="-138" font-family="Helvetica,sans-Serif" font-size="10.00"> TProperty &gt;</text>
</a>
</g>
</g>
<!-- Node2&#45;&gt;Node1 -->
<g id="edge2" class="edge">
<title>Node2&#45;&gt;Node1</title>
<path fill="none" stroke="midnightblue" d="M598.49,-157C626.91,-157 660.09,-157 691.77,-157"/>
<polygon fill="midnightblue" stroke="midnightblue" points="598.25,-153.5 588.25,-157 598.25,-160.5 598.25,-153.5"/>
</g>
<!-- Node3 -->
<g id="node4" class="node">
<title>Node3</title>
<g id="a_node4"><a xlink:title=" ">
<polygon fill="none" stroke="#bfbfbf" points="237,-147.5 237,-166.5 324,-166.5 324,-147.5 237,-147.5"/>
<text text-anchor="middle" x="280.5" y="-154.5" font-family="Helvetica,sans-Serif" font-size="10.00">AutoCloseable</text>
</a>
</g>
</g>
<!-- Node3&#45;&gt;Node2 -->
<g id="edge3" class="edge">
<title>Node3&#45;&gt;Node2</title>
<path fill="none" stroke="midnightblue" d="M334.62,-157C371,-157 419.44,-157 457.96,-157"/>
<polygon fill="midnightblue" stroke="midnightblue" points="334.22,-153.5 324.22,-157 334.22,-160.5 334.22,-153.5"/>
</g>
<!-- Node4 -->
<g id="node5" class="node">
<title>Node4</title>
<g id="a_node5"><a xlink:href="interfacefiftyone_1_1pipeline_1_1core_1_1data_1_1_element_data.html" target="_top" xlink:title="Represents property values that have be determined by a specific FlowElement based on the supplied ev...">
<polygon fill="none" stroke="black" points="207,-194 207,-224 354,-224 354,-194 207,-194"/>
<text text-anchor="start" x="215" y="-212" font-family="Helvetica,sans-Serif" font-size="10.00">fiftyone.pipeline.core.data.</text>
<text text-anchor="middle" x="280.5" y="-201" font-family="Helvetica,sans-Serif" font-size="10.00">ElementData</text>
</a>
</g>
</g>
<!-- Node4&#45;&gt;Node2 -->
<g id="edge4" class="edge">
<title>Node4&#45;&gt;Node2</title>
<path fill="none" stroke="orange" stroke-dasharray="5,2" d="M361.11,-191.79C392.56,-184.99 428.21,-177.28 457.94,-170.85"/>
<polygon fill="orange" stroke="orange" points="360.1,-188.43 351.06,-193.96 361.58,-195.27 360.1,-188.43"/>
<text text-anchor="middle" x="397.5" y="-192" font-family="Helvetica,sans-Serif" font-size="10.00"> TData</text>
</g>
<!-- Node7 -->
<g id="node8" class="node">
<title>Node7</title>
<g id="a_node8"><a xlink:href="interfacefiftyone_1_1pipeline_1_1engines_1_1data_1_1_aspect_data.html" target="_top" xlink:title="Represents a specialized ElementData instance that is generated by an AspectEngine.">
<polygon fill="none" stroke="black" points="441,-202 441,-232 605,-232 605,-202 441,-202"/>
<text text-anchor="start" x="449" y="-220" font-family="Helvetica,sans-Serif" font-size="10.00">fiftyone.pipeline.engines.data.</text>
<text text-anchor="middle" x="523" y="-209" font-family="Helvetica,sans-Serif" font-size="10.00">AspectData</text>
</a>
</g>
</g>
<!-- Node4&#45;&gt;Node7 -->
<g id="edge8" class="edge">
<title>Node4&#45;&gt;Node7</title>
<path fill="none" stroke="midnightblue" d="M364.36,-211.76C389.03,-212.58 416.03,-213.48 440.61,-214.29"/>
<polygon fill="midnightblue" stroke="midnightblue" points="364.42,-208.26 354.31,-211.42 364.19,-215.25 364.42,-208.26"/>
</g>
<!-- Node5 -->
<g id="node6" class="node">
<title>Node5</title>
<g id="a_node6"><a xlink:href="interfacefiftyone_1_1pipeline_1_1core_1_1data_1_1_data.html" target="_top" xlink:title="Represents a collection of property values.">
<polygon fill="none" stroke="black" points="0,-199.5 0,-218.5 170,-218.5 170,-199.5 0,-199.5"/>
<text text-anchor="middle" x="85" y="-206.5" font-family="Helvetica,sans-Serif" font-size="10.00">fiftyone.pipeline.core.data.Data</text>
</a>
</g>
</g>
<!-- Node5&#45;&gt;Node4 -->
<g id="edge5" class="edge">
<title>Node5&#45;&gt;Node4</title>
<path fill="none" stroke="midnightblue" d="M180.11,-209C189.07,-209 198.06,-209 206.77,-209"/>
<polygon fill="midnightblue" stroke="midnightblue" points="180.03,-205.5 170.03,-209 180.03,-212.5 180.03,-205.5"/>
</g>
<!-- Node6 -->
<g id="node7" class="node">
<title>Node6</title>
<g id="a_node7"><a xlink:href="interfacefiftyone_1_1pipeline_1_1core_1_1data_1_1_element_property_meta_data.html" target="_top" xlink:title="Defines details of a property that can be returned by a FlowElement.">
<polygon fill="none" stroke="black" points="207,-91 207,-121 354,-121 354,-91 207,-91"/>
<text text-anchor="start" x="215" y="-109" font-family="Helvetica,sans-Serif" font-size="10.00">fiftyone.pipeline.core.data.</text>
<text text-anchor="middle" x="280.5" y="-98" font-family="Helvetica,sans-Serif" font-size="10.00">ElementPropertyMetaData</text>
</a>
</g>
</g>
<!-- Node6&#45;&gt;Node2 -->
<g id="edge6" class="edge">
<title>Node6&#45;&gt;Node2</title>
<path fill="none" stroke="orange" stroke-dasharray="5,2" d="M362.3,-123.14C393.41,-129.73 428.47,-137.17 457.8,-143.39"/>
<polygon fill="orange" stroke="orange" points="362.87,-119.68 352.36,-121.03 361.41,-126.52 362.87,-119.68"/>
<text text-anchor="middle" x="397.5" y="-138" font-family="Helvetica,sans-Serif" font-size="10.00"> TProperty</text>
</g>
<!-- Node8 -->
<g id="node9" class="node">
<title>Node8</title>
<g id="a_node9"><a xlink:href="interfacefiftyone_1_1pipeline_1_1engines_1_1data_1_1_aspect_property_meta_data.html" target="_top" xlink:title="Holds details about a property that can be returned by an AspectEngine.">
<polygon fill="none" stroke="black" points="441,-82 441,-112 605,-112 605,-82 441,-82"/>
<text text-anchor="start" x="449" y="-100" font-family="Helvetica,sans-Serif" font-size="10.00">fiftyone.pipeline.engines.data.</text>
<text text-anchor="middle" x="523" y="-89" font-family="Helvetica,sans-Serif" font-size="10.00">AspectPropertyMetaData</text>
</a>
</g>
</g>
<!-- Node6&#45;&gt;Node8 -->
<g id="edge10" class="edge">
<title>Node6&#45;&gt;Node8</title>
<path fill="none" stroke="midnightblue" d="M364.36,-102.9C389.03,-101.98 416.03,-100.97 440.61,-100.05"/>
<polygon fill="midnightblue" stroke="midnightblue" points="364.17,-99.4 354.31,-103.28 364.43,-106.4 364.17,-99.4"/>
</g>
<!-- Node7&#45;&gt;Node1 -->
<g id="edge7" class="edge">
<title>Node7&#45;&gt;Node1</title>
<path fill="none" stroke="orange" stroke-dasharray="5,2" d="M606.48,-199.91C640.14,-192.93 679.35,-184.8 714.53,-177.51"/>
<polygon fill="orange" stroke="orange" points="605.76,-196.48 596.68,-201.94 607.18,-203.33 605.76,-196.48"/>
<text text-anchor="middle" x="648.5" y="-198" font-family="Helvetica,sans-Serif" font-size="10.00"> TData</text>
</g>
<!-- Node8&#45;&gt;Node1 -->
<g id="edge9" class="edge">
<title>Node8&#45;&gt;Node1</title>
<path fill="none" stroke="orange" stroke-dasharray="5,2" d="M606.48,-114.09C640.14,-121.07 679.35,-129.2 714.53,-136.49"/>
<polygon fill="orange" stroke="orange" points="607.18,-110.67 596.68,-112.06 605.76,-117.52 607.18,-110.67"/>
<text text-anchor="middle" x="648.5" y="-130" font-family="Helvetica,sans-Serif" font-size="10.00"> TProperty</text>
</g>
<!-- Node12 -->
<g id="node13" class="node">
<title>Node12</title>
<g id="a_node13"><a xlink:href="classfiftyone_1_1pipeline_1_1engines_1_1flowelements_1_1_cloud_aspect_engine_builder_base.html" target="_top" xlink:title="Abstract base class for all cloud engine builders.">
<polygon fill="none" stroke="black" points="1721,-106.5 1721,-169.5 1954,-169.5 1954,-106.5 1721,-106.5"/>
<text text-anchor="start" x="1729" y="-157.5" font-family="Helvetica,sans-Serif" font-size="10.00">fiftyone.pipeline.engines.flowelements.</text>
<text text-anchor="start" x="1729" y="-146.5" font-family="Helvetica,sans-Serif" font-size="10.00">CloudAspectEngineBuilderBase&lt;</text>
<text text-anchor="start" x="1729" y="-135.5" font-family="Helvetica,sans-Serif" font-size="10.00"> TBuilder extends CloudAspectEngineBuilder</text>
<text text-anchor="start" x="1729" y="-124.5" font-family="Helvetica,sans-Serif" font-size="10.00">Base&lt; TBuilder, TEngine, TEngine extends</text>
<text text-anchor="middle" x="1837.5" y="-113.5" font-family="Helvetica,sans-Serif" font-size="10.00"> CloudAspectEngine &gt;</text>
</a>
</g>
</g>
<!-- Node11&#45;&gt;Node12 -->
<g id="edge14" class="edge">
<title>Node11&#45;&gt;Node12</title>
<path fill="none" stroke="midnightblue" d="M1655.23,-112.81C1676.74,-115.8 1699.26,-118.93 1720.83,-121.92"/>
<polygon fill="midnightblue" stroke="midnightblue" points="1655.48,-109.31 1645.09,-111.4 1654.51,-116.24 1655.48,-109.31"/>
</g>
<!-- Node13 -->
<g id="node14" class="node">
<title>Node13</title>
<g id="a_node14"><a xlink:href="classfiftyone_1_1pipeline_1_1engines_1_1flowelements_1_1_on_premise_aspect_engine_builder_base.html" target="_top" xlink:title="Abstract base class that exposes the common options that all 51Degrees on&#45;premise engine builders sho...">
<polygon fill="none" stroke="black" points="1704,-24.5 1704,-87.5 1971,-87.5 1971,-24.5 1704,-24.5"/>
<text text-anchor="start" x="1712" y="-75.5" font-family="Helvetica,sans-Serif" font-size="10.00">fiftyone.pipeline.engines.flowelements.</text>
<text text-anchor="start" x="1712" y="-64.5" font-family="Helvetica,sans-Serif" font-size="10.00">OnPremiseAspectEngineBuilderBase</text>
<text text-anchor="start" x="1712" y="-53.5" font-family="Helvetica,sans-Serif" font-size="10.00">&lt; TBuilder extends OnPremiseAspectEngineBuilder</text>
<text text-anchor="start" x="1712" y="-42.5" font-family="Helvetica,sans-Serif" font-size="10.00">Base&lt; TBuilder, TEngine, TEngine extends</text>
<text text-anchor="middle" x="1837.5" y="-31.5" font-family="Helvetica,sans-Serif" font-size="10.00"> OnPremiseAspectEngine &gt;</text>
</a>
</g>
</g>
<!-- Node11&#45;&gt;Node13 -->
<g id="edge15" class="edge">
<title>Node11&#45;&gt;Node13</title>
<path fill="none" stroke="midnightblue" d="M1655.43,-81.17C1671.3,-78.96 1687.72,-76.68 1703.9,-74.43"/>
<polygon fill="midnightblue" stroke="midnightblue" points="1654.51,-77.76 1645.09,-82.6 1655.48,-84.69 1654.51,-77.76"/>
</g>
<!-- Node14 -->
<g id="node15" class="node">
<title>Node14</title>
<g id="a_node15"><a xlink:href="classfiftyone_1_1pipeline_1_1engines_1_1flowelements_1_1_on_premise_aspect_engine_builder_base.html" target="_top" xlink:title=" ">
<polygon fill="none" stroke="black" points="2119,-35.5 2119,-76.5 2328,-76.5 2328,-35.5 2119,-35.5"/>
<text text-anchor="start" x="2127" y="-64.5" font-family="Helvetica,sans-Serif" font-size="10.00">fiftyone.pipeline.engines.flowelements.</text>
<text text-anchor="start" x="2127" y="-53.5" font-family="Helvetica,sans-Serif" font-size="10.00">OnPremiseAspectEngineBuilderBase</text>
<text text-anchor="middle" x="2223.5" y="-42.5" font-family="Helvetica,sans-Serif" font-size="10.00">&lt; TBuilder, TEngine &gt;</text>
</a>
</g>
</g>
<!-- Node13&#45;&gt;Node14 -->
<g id="edge16" class="edge">
<title>Node13&#45;&gt;Node14</title>
<path fill="none" stroke="orange" stroke-dasharray="5,2" d="M1981.46,-56C2027.07,-56 2076.63,-56 2118.89,-56"/>
<polygon fill="orange" stroke="orange" points="1981.19,-52.5 1971.19,-56 1981.19,-59.5 1981.19,-52.5"/>
<text text-anchor="middle" x="2045" y="-59" font-family="Helvetica,sans-Serif" font-size="10.00"> &lt; TBuilder, TEngine &gt;</text>
</g>
<!-- Node15 -->
<g id="node16" class="node">
<title>Node15</title>
<g id="a_node16"><a xlink:href="classfiftyone_1_1pipeline_1_1engines_1_1flowelements_1_1_single_file_aspect_engine_builder_base.html" target="_top" xlink:title="Abstract base class that exposes the common options that all on&#45;premise engine builders using a singl...">
<polygon fill="none" stroke="black" points="2365,-24.5 2365,-87.5 2632,-87.5 2632,-24.5 2365,-24.5"/>
<text text-anchor="start" x="2373" y="-75.5" font-family="Helvetica,sans-Serif" font-size="10.00">fiftyone.pipeline.engines.flowelements.</text>
<text text-anchor="start" x="2373" y="-64.5" font-family="Helvetica,sans-Serif" font-size="10.00">SingleFileAspectEngineBuilderBase</text>
<text text-anchor="start" x="2373" y="-53.5" font-family="Helvetica,sans-Serif" font-size="10.00">&lt; TBuilder extends OnPremiseAspectEngineBuilder</text>
<text text-anchor="start" x="2373" y="-42.5" font-family="Helvetica,sans-Serif" font-size="10.00">Base&lt; TBuilder, TEngine, TEngine extends</text>
<text text-anchor="middle" x="2498.5" y="-31.5" font-family="Helvetica,sans-Serif" font-size="10.00"> OnPremiseAspectEngine &gt;</text>
</a>
</g>
</g>
<!-- Node14&#45;&gt;Node15 -->
<g id="edge17" class="edge">
<title>Node14&#45;&gt;Node15</title>
<path fill="none" stroke="midnightblue" d="M2338.36,-56C2347.16,-56 2356.08,-56 2364.99,-56"/>
<polygon fill="midnightblue" stroke="midnightblue" points="2338.1,-52.5 2328.1,-56 2338.1,-59.5 2338.1,-52.5"/>
</g>
<!-- Node16 -->
<g id="node17" class="node">
<title>Node16</title>
<g id="a_node17"><a xlink:href="classfiftyone_1_1pipeline_1_1engines_1_1fiftyone_1_1flowelements_1_1_fifty_one_on_premise_aspect_engine_builder_base.html" target="_top" xlink:title="Abstract base class that exposes the common options that all 51Degrees on&#45;premise engine builders usi...">
<polygon fill="none" stroke="black" points="2786.5,-60.5 2786.5,-123.5 2982.5,-123.5 2982.5,-60.5 2786.5,-60.5"/>
<text text-anchor="start" x="2794.5" y="-111.5" font-family="Helvetica,sans-Serif" font-size="10.00">fiftyone::pipeline</text>
<text text-anchor="start" x="2794.5" y="-100.5" font-family="Helvetica,sans-Serif" font-size="10.00">::engines::fiftyone</text>
<text text-anchor="start" x="2794.5" y="-89.5" font-family="Helvetica,sans-Serif" font-size="10.00">::flowelements::FiftyOneOnPremise</text>
<text text-anchor="start" x="2794.5" y="-78.5" font-family="Helvetica,sans-Serif" font-size="10.00">AspectEngineBuilderBase&lt; TBuilder,</text>
<text text-anchor="middle" x="2884.5" y="-67.5" font-family="Helvetica,sans-Serif" font-size="10.00"> TEngine &gt;</text>
</a>
</g>
</g>
<!-- Node15&#45;&gt;Node16 -->
<g id="edge18" class="edge">
<title>Node15&#45;&gt;Node16</title>
<path fill="none" stroke="midnightblue" d="M2642.35,-69.39C2690.3,-73.89 2742.63,-78.79 2786.25,-82.88"/>
<polygon fill="midnightblue" stroke="midnightblue" points="2642.47,-65.89 2632.19,-68.44 2641.82,-72.86 2642.47,-65.89"/>
</g>
<!-- Node17 -->
<g id="node18" class="node">
<title>Node17</title>
<g id="a_node18"><a xlink:href="classfiftyone_1_1pipeline_1_1engines_1_1flowelements_1_1_single_file_aspect_engine_builder_base.html" target="_top" xlink:title=" ">
<polygon fill="none" stroke="black" points="2780,-0.5 2780,-41.5 2989,-41.5 2989,-0.5 2780,-0.5"/>
<text text-anchor="start" x="2788" y="-29.5" font-family="Helvetica,sans-Serif" font-size="10.00">fiftyone.pipeline.engines.flowelements.</text>
<text text-anchor="start" x="2788" y="-18.5" font-family="Helvetica,sans-Serif" font-size="10.00">SingleFileAspectEngineBuilderBase</text>
<text text-anchor="middle" x="2884.5" y="-7.5" font-family="Helvetica,sans-Serif" font-size="10.00">&lt; TBuilder, TEngine &gt;</text>
</a>
</g>
</g>
<!-- Node15&#45;&gt;Node17 -->
<g id="edge19" class="edge">
<title>Node15&#45;&gt;Node17</title>
<path fill="none" stroke="orange" stroke-dasharray="5,2" d="M2642.18,-43C2687.86,-38.83 2737.54,-34.3 2779.89,-30.44"/>
<polygon fill="orange" stroke="orange" points="2641.83,-39.51 2632.19,-43.91 2642.47,-46.48 2641.83,-39.51"/>
<text text-anchor="middle" x="2706" y="-45" font-family="Helvetica,sans-Serif" font-size="10.00"> &lt; TBuilder, TEngine &gt;</text>
</g>
</g>
</svg>
