<?xml version="1.0" encoding="UTF-8" standalone="no"?>
<!DOCTYPE svg PUBLIC "-//W3C//DTD SVG 1.1//EN"
 "http://www.w3.org/Graphics/SVG/1.1/DTD/svg11.dtd">
<!-- Generated by graphviz version 2.43.0 (0)
 -->
<!-- Title: fiftyone.pipeline.web.mvc.components.FiftyOneInterceptor Pages: 1 -->
<svg width="379pt" height="174pt"
 viewBox="0.00 0.00 379.00 174.00" xmlns="http://www.w3.org/2000/svg" xmlns:xlink="http://www.w3.org/1999/xlink">
<g id="graph0" class="graph" transform="scale(1 1) rotate(0) translate(4 170)">
<title>fiftyone.pipeline.web.mvc.components.FiftyOneInterceptor</title>
<!-- Node2 -->
<g id="node1" class="node">
<title>Node2</title>
<g id="a_node1"><a xlink:title="The 51Degrees middleware component.">
<polygon fill="#bfbfbf" stroke="black" points="0,-0.5 0,-30.5 209,-30.5 209,-0.5 0,-0.5"/>
<text text-anchor="start" x="8" y="-18.5" font-family="Helvetica,sans-Serif" font-size="10.00">fiftyone.pipeline.web.mvc.components.</text>
<text text-anchor="middle" x="104.5" y="-7.5" font-family="Helvetica,sans-Serif" font-size="10.00">FiftyOneInterceptor</text>
</a>
</g>
</g>
<!-- Node3 -->
<g id="node2" class="node">
<title>Node3</title>
<g id="a_node2"><a xlink:title=" ">
<polygon fill="none" stroke="#bfbfbf" points="15.5,-84 15.5,-103 161.5,-103 161.5,-84 15.5,-84"/>
<text text-anchor="middle" x="88.5" y="-91" font-family="Helvetica,sans-Serif" font-size="10.00">HandlerInterceptorAdapter</text>
</a>
</g>
</g>
<!-- Node3&#45;&gt;Node2 -->
<g id="edge1" class="edge">
<title>Node3&#45;&gt;Node2</title>
<path fill="none" stroke="midnightblue" d="M92.44,-73.78C95.26,-60.4 98.99,-42.69 101.55,-30.52"/>
<polygon fill="midnightblue" stroke="midnightblue" points="88.97,-73.28 90.34,-83.78 95.82,-74.72 88.97,-73.28"/>
</g>
<!-- Node4 -->
<g id="node3" class="node">
<title>Node4</title>
<g id="a_node3"><a xlink:href="interfacefiftyone_1_1pipeline_1_1core_1_1flowelements_1_1_pipeline.html" target="_top" xlink:title="The Pipeline groups together FlowElements and is a factory for FlowData which serves as the evidence,...">
<polygon fill="none" stroke="black" points="180,-78.5 180,-108.5 371,-108.5 371,-78.5 180,-78.5"/>
<text text-anchor="start" x="188" y="-96.5" font-family="Helvetica,sans-Serif" font-size="10.00">fiftyone.pipeline.core.flowelements.</text>
<text text-anchor="middle" x="275.5" y="-85.5" font-family="Helvetica,sans-Serif" font-size="10.00">Pipeline</text>
</a>
</g>
</g>
<!-- Node4&#45;&gt;Node2 -->
<g id="edge2" class="edge">
<title>Node4&#45;&gt;Node2</title>
<path fill="none" stroke="#9a32cd" stroke-dasharray="5,2" d="M234.32,-74.2C204.13,-60.78 163.76,-42.84 136.09,-30.54"/>
<polygon fill="#9a32cd" stroke="#9a32cd" points="233.18,-77.52 243.74,-78.38 236.02,-71.12 233.18,-77.52"/>
<text text-anchor="middle" x="221" y="-52" font-family="Helvetica,sans-Serif" font-size="10.00"> pipeline</text>
</g>
<!-- Node5 -->
<g id="node4" class="node">
<title>Node5</title>
<g id="a_node4"><a xlink:title=" ">
<polygon fill="none" stroke="#bfbfbf" points="232,-146.5 232,-165.5 319,-165.5 319,-146.5 232,-146.5"/>
<text text-anchor="middle" x="275.5" y="-153.5" font-family="Helvetica,sans-Serif" font-size="10.00">AutoCloseable</text>
</a>
</g>
</g>
<!-- Node5&#45;&gt;Node4 -->
<g id="edge3" class="edge">
<title>Node5&#45;&gt;Node4</title>
<path fill="none" stroke="midnightblue" d="M275.5,-136.22C275.5,-127.36 275.5,-116.96 275.5,-108.76"/>
<polygon fill="midnightblue" stroke="midnightblue" points="272,-136.33 275.5,-146.33 279,-136.33 272,-136.33"/>
</g>
</g>
</svg>
