<?xml version="1.0" encoding="UTF-8" standalone="no"?>
<!DOCTYPE svg PUBLIC "-//W3C//DTD SVG 1.1//EN"
 "http://www.w3.org/Graphics/SVG/1.1/DTD/svg11.dtd">
<!-- Generated by graphviz version 2.43.0 (0)
 -->
<!-- Title: fiftyone.pipeline.core.data.AccessiblePropertyMetaData.PropertyMetaData Pages: 1 -->
<svg width="770pt" height="89pt"
 viewBox="0.00 0.00 770.00 89.00" xmlns="http://www.w3.org/2000/svg" xmlns:xlink="http://www.w3.org/1999/xlink">
<g id="graph0" class="graph" transform="scale(1 1) rotate(0) translate(4 85)">
<title>fiftyone.pipeline.core.data.AccessiblePropertyMetaData.PropertyMetaData</title>
<!-- Node1 -->
<g id="node1" class="node">
<title>Node1</title>
<g id="a_node1"><a xlink:title="Standalone instance of ElementPropertyMetaData, used to serialise element or aspect properties.">
<polygon fill="#bfbfbf" stroke="black" points="560,-15.5 560,-56.5 762,-56.5 762,-15.5 560,-15.5"/>
<text text-anchor="start" x="568" y="-44.5" font-family="Helvetica,sans-Serif" font-size="10.00">fiftyone.pipeline.core.data.</text>
<text text-anchor="start" x="568" y="-33.5" font-family="Helvetica,sans-Serif" font-size="10.00">AccessiblePropertyMetaData.Property</text>
<text text-anchor="middle" x="661" y="-22.5" font-family="Helvetica,sans-Serif" font-size="10.00">MetaData</text>
</a>
</g>
</g>
<!-- Node2 -->
<g id="node2" class="node">
<title>Node2</title>
<g id="a_node2"><a xlink:title=" ">
<polygon fill="none" stroke="#bfbfbf" points="225,-38.5 225,-79.5 427,-79.5 427,-38.5 225,-38.5"/>
<text text-anchor="start" x="233" y="-67.5" font-family="Helvetica,sans-Serif" font-size="10.00">List&lt; fiftyone.pipeline.core.data.</text>
<text text-anchor="start" x="233" y="-56.5" font-family="Helvetica,sans-Serif" font-size="10.00">AccessiblePropertyMetaData.Property</text>
<text text-anchor="middle" x="326" y="-45.5" font-family="Helvetica,sans-Serif" font-size="10.00">MetaData &gt;</text>
</a>
</g>
</g>
<!-- Node2&#45;&gt;Node1 -->
<g id="edge1" class="edge">
<title>Node2&#45;&gt;Node1</title>
<path fill="none" stroke="#9a32cd" stroke-dasharray="5,2" d="M437.56,-51.36C477.05,-48.64 521.28,-45.58 559.84,-42.92"/>
<polygon fill="#9a32cd" stroke="#9a32cd" points="437.1,-47.89 427.36,-52.07 437.58,-54.87 437.1,-47.89"/>
<text text-anchor="middle" x="493.5" y="-53" font-family="Helvetica,sans-Serif" font-size="10.00"> itemProperties</text>
</g>
<!-- Node3 -->
<g id="node3" class="node">
<title>Node3</title>
<g id="a_node3"><a xlink:title=" ">
<polygon fill="none" stroke="#bfbfbf" points="0,-24.5 0,-43.5 34,-43.5 34,-24.5 0,-24.5"/>
<text text-anchor="middle" x="17" y="-31.5" font-family="Helvetica,sans-Serif" font-size="10.00">List</text>
</a>
</g>
</g>
<!-- Node3&#45;&gt;Node2 -->
<g id="edge2" class="edge">
<title>Node3&#45;&gt;Node2</title>
<path fill="none" stroke="orange" stroke-dasharray="5,2" d="M44.23,-36.14C83.92,-39.37 161.37,-45.67 224.88,-50.85"/>
<polygon fill="orange" stroke="orange" points="44.32,-32.63 34.07,-35.31 43.76,-39.61 44.32,-32.63"/>
<text text-anchor="start" x="52" y="-73" font-family="Helvetica,sans-Serif" font-size="10.00"> &lt; fiftyone::pipeline</text>
<text text-anchor="start" x="52" y="-62" font-family="Helvetica,sans-Serif" font-size="10.00">::core::data::AccessibleProperty</text>
<text text-anchor="middle" x="129.5" y="-51" font-family="Helvetica,sans-Serif" font-size="10.00">MetaData::PropertyMetaData &gt;</text>
</g>
<!-- Node4 -->
<g id="node4" class="node">
<title>Node4</title>
<g id="a_node4"><a xlink:title=" ">
<polygon fill="none" stroke="#bfbfbf" points="283.5,-0.5 283.5,-19.5 368.5,-19.5 368.5,-0.5 283.5,-0.5"/>
<text text-anchor="middle" x="326" y="-7.5" font-family="Helvetica,sans-Serif" font-size="10.00">List&lt; String &gt;</text>
</a>
</g>
</g>
<!-- Node3&#45;&gt;Node4 -->
<g id="edge4" class="edge">
<title>Node3&#45;&gt;Node4</title>
<path fill="none" stroke="orange" stroke-dasharray="5,2" d="M43.86,-23.99C46.58,-23.21 49.33,-22.52 52,-22 132.8,-6.32 229.48,-6.38 283.39,-8.05"/>
<polygon fill="orange" stroke="orange" points="42.73,-20.68 34.33,-27.14 44.92,-27.33 42.73,-20.68"/>
<text text-anchor="middle" x="129.5" y="-25" font-family="Helvetica,sans-Serif" font-size="10.00"> &lt; String &gt;</text>
</g>
<!-- Node4&#45;&gt;Node1 -->
<g id="edge3" class="edge">
<title>Node4&#45;&gt;Node1</title>
<path fill="none" stroke="#9a32cd" stroke-dasharray="5,2" d="M378.7,-14.04C426.92,-17.8 500.19,-23.52 559.86,-28.18"/>
<polygon fill="#9a32cd" stroke="#9a32cd" points="378.74,-10.53 368.5,-13.24 378.2,-17.51 378.74,-10.53"/>
<text text-anchor="middle" x="493.5" y="-29" font-family="Helvetica,sans-Serif" font-size="10.00"> evidenceProperties</text>
</g>
</g>
</svg>
