<?xml version="1.0" encoding="UTF-8" standalone="no"?>
<!DOCTYPE svg PUBLIC "-//W3C//DTD SVG 1.1//EN"
 "http://www.w3.org/Graphics/SVG/1.1/DTD/svg11.dtd">
<!-- Generated by graphviz version 2.43.0 (0)
 -->
<!-- Title: fiftyone.pipeline.web.mvc.configuration.FiftyOneInterceptorConfigDefault Pages: 1 -->
<svg width="327pt" height="117pt"
 viewBox="0.00 0.00 326.50 117.00" xmlns="http://www.w3.org/2000/svg" xmlns:xlink="http://www.w3.org/1999/xlink">
<g id="graph0" class="graph" transform="scale(1 1) rotate(0) translate(4 113)">
<title>fiftyone.pipeline.web.mvc.configuration.FiftyOneInterceptorConfigDefault</title>
<!-- Node2 -->
<g id="node1" class="node">
<title>Node2</title>
<g id="a_node1"><a xlink:title="Default implementation of the FiftyOneInterceptorConfig interface.">
<polygon fill="#bfbfbf" stroke="black" points="84,-0.5 84,-30.5 296,-30.5 296,-0.5 84,-0.5"/>
<text text-anchor="start" x="92" y="-18.5" font-family="Helvetica,sans-Serif" font-size="10.00">fiftyone.pipeline.web.mvc.configuration.</text>
<text text-anchor="middle" x="190" y="-7.5" font-family="Helvetica,sans-Serif" font-size="10.00">FiftyOneInterceptorConfigDefault</text>
</a>
</g>
</g>
<!-- Node3 -->
<g id="node2" class="node">
<title>Node3</title>
<g id="a_node2"><a xlink:href="interfacefiftyone_1_1pipeline_1_1web_1_1mvc_1_1configuration_1_1_fifty_one_interceptor_config.html" target="_top" xlink:title="Configuration class for the FiftyOneInterceptor.">
<polygon fill="none" stroke="black" points="0,-78.5 0,-108.5 212,-108.5 212,-78.5 0,-78.5"/>
<text text-anchor="start" x="8" y="-96.5" font-family="Helvetica,sans-Serif" font-size="10.00">fiftyone.pipeline.web.mvc.configuration.</text>
<text text-anchor="middle" x="106" y="-85.5" font-family="Helvetica,sans-Serif" font-size="10.00">FiftyOneInterceptorConfig</text>
</a>
</g>
</g>
<!-- Node3&#45;&gt;Node2 -->
<g id="edge1" class="edge">
<title>Node3&#45;&gt;Node2</title>
<path fill="none" stroke="midnightblue" d="M129.33,-71.39C143.65,-58.43 161.62,-42.18 174.27,-30.73"/>
<polygon fill="midnightblue" stroke="midnightblue" points="126.87,-68.9 121.8,-78.2 131.56,-74.09 126.87,-68.9"/>
</g>
<!-- Node4 -->
<g id="node3" class="node">
<title>Node4</title>
<g id="a_node3"><a xlink:title=" ">
<polygon fill="none" stroke="#bfbfbf" points="229.5,-84 229.5,-103 318.5,-103 318.5,-84 229.5,-84"/>
<text text-anchor="middle" x="274" y="-91" font-family="Helvetica,sans-Serif" font-size="10.00">ServletContext</text>
</a>
</g>
</g>
<!-- Node4&#45;&gt;Node2 -->
<g id="edge2" class="edge">
<title>Node4&#45;&gt;Node2</title>
<path fill="none" stroke="#9a32cd" stroke-dasharray="5,2" d="M256.76,-76.9C241.7,-63.27 220.02,-43.66 205.5,-30.52"/>
<polygon fill="#9a32cd" stroke="#9a32cd" points="254.6,-79.67 264.36,-83.78 259.3,-74.48 254.6,-79.67"/>
<text text-anchor="middle" x="276" y="-52" font-family="Helvetica,sans-Serif" font-size="10.00"> servletContext</text>
</g>
</g>
</svg>
