<?xml version="1.0" encoding="UTF-8" standalone="no"?>
<!DOCTYPE svg PUBLIC "-//W3C//DTD SVG 1.1//EN"
 "http://www.w3.org/Graphics/SVG/1.1/DTD/svg11.dtd">
<!-- Generated by graphviz version 2.43.0 (0)
 -->
<!-- Title: fiftyone.pipeline.web.mvc.components.FlowDataProvider.Default Pages: 1 -->
<svg width="663pt" height="88pt"
 viewBox="0.00 0.00 663.00 88.00" xmlns="http://www.w3.org/2000/svg" xmlns:xlink="http://www.w3.org/1999/xlink">
<g id="graph0" class="graph" transform="scale(1 1) rotate(0) translate(4 84)">
<title>fiftyone.pipeline.web.mvc.components.FlowDataProvider.Default</title>
<!-- Node4 -->
<g id="node1" class="node">
<title>Node4</title>
<g id="a_node1"><a xlink:title=" ">
<polygon fill="#bfbfbf" stroke="black" points="446,-24.5 446,-54.5 655,-54.5 655,-24.5 446,-24.5"/>
<text text-anchor="start" x="454" y="-42.5" font-family="Helvetica,sans-Serif" font-size="10.00">fiftyone.pipeline.web.mvc.components.</text>
<text text-anchor="middle" x="550.5" y="-31.5" font-family="Helvetica,sans-Serif" font-size="10.00">FlowDataProvider.Default</text>
</a>
</g>
</g>
<!-- Node5 -->
<g id="node2" class="node">
<title>Node5</title>
<g id="a_node2"><a xlink:href="classfiftyone_1_1pipeline_1_1web_1_1services_1_1_flow_data_provider_core_1_1_default.html" target="_top" xlink:title="Default implementation of the FlowDataProviderCore service.">
<polygon fill="none" stroke="black" points="223,-49.5 223,-79.5 388,-79.5 388,-49.5 223,-49.5"/>
<text text-anchor="start" x="231" y="-67.5" font-family="Helvetica,sans-Serif" font-size="10.00">fiftyone.pipeline.web.services.</text>
<text text-anchor="middle" x="305.5" y="-56.5" font-family="Helvetica,sans-Serif" font-size="10.00">FlowDataProviderCore.Default</text>
</a>
</g>
</g>
<!-- Node5&#45;&gt;Node4 -->
<g id="edge1" class="edge">
<title>Node5&#45;&gt;Node4</title>
<path fill="none" stroke="midnightblue" d="M398.17,-55.07C413.69,-53.47 429.89,-51.81 445.68,-50.18"/>
<polygon fill="midnightblue" stroke="midnightblue" points="397.68,-51.6 388.09,-56.11 398.4,-58.56 397.68,-51.6"/>
</g>
<!-- Node6 -->
<g id="node3" class="node">
<title>Node6</title>
<g id="a_node3"><a xlink:href="interfacefiftyone_1_1pipeline_1_1web_1_1services_1_1_flow_data_provider_core.html" target="_top" xlink:title="Provider to be injected into controllers to get the pre&#45;processed FlowData for the request being serv...">
<polygon fill="none" stroke="black" points="0,-24.5 0,-54.5 165,-54.5 165,-24.5 0,-24.5"/>
<text text-anchor="start" x="8" y="-42.5" font-family="Helvetica,sans-Serif" font-size="10.00">fiftyone.pipeline.web.services.</text>
<text text-anchor="middle" x="82.5" y="-31.5" font-family="Helvetica,sans-Serif" font-size="10.00">FlowDataProviderCore</text>
</a>
</g>
</g>
<!-- Node6&#45;&gt;Node5 -->
<g id="edge2" class="edge">
<title>Node6&#45;&gt;Node5</title>
<path fill="none" stroke="midnightblue" d="M175.41,-49.9C191.13,-51.68 207.37,-53.51 222.8,-55.26"/>
<polygon fill="midnightblue" stroke="midnightblue" points="175.49,-46.38 165.16,-48.74 174.71,-53.34 175.49,-46.38"/>
</g>
<!-- Node7 -->
<g id="node4" class="node">
<title>Node7</title>
<g id="a_node4"><a xlink:href="interfacefiftyone_1_1pipeline_1_1web_1_1mvc_1_1components_1_1_flow_data_provider.html" target="_top" xlink:title="Spring framework component for the FlowDataProviderCore.">
<polygon fill="none" stroke="black" points="201,-0.5 201,-30.5 410,-30.5 410,-0.5 201,-0.5"/>
<text text-anchor="start" x="209" y="-18.5" font-family="Helvetica,sans-Serif" font-size="10.00">fiftyone.pipeline.web.mvc.components.</text>
<text text-anchor="middle" x="305.5" y="-7.5" font-family="Helvetica,sans-Serif" font-size="10.00">FlowDataProvider</text>
</a>
</g>
</g>
<!-- Node6&#45;&gt;Node7 -->
<g id="edge4" class="edge">
<title>Node6&#45;&gt;Node7</title>
<path fill="none" stroke="midnightblue" d="M175.29,-29.53C183.66,-28.62 192.18,-27.7 200.64,-26.78"/>
<polygon fill="midnightblue" stroke="midnightblue" points="174.73,-26.07 165.16,-30.63 175.48,-33.03 174.73,-26.07"/>
</g>
<!-- Node7&#45;&gt;Node4 -->
<g id="edge3" class="edge">
<title>Node7&#45;&gt;Node4</title>
<path fill="none" stroke="midnightblue" d="M420.48,-26.76C428.9,-27.59 437.36,-28.42 445.7,-29.25"/>
<polygon fill="midnightblue" stroke="midnightblue" points="420.55,-23.25 410.26,-25.75 419.87,-30.21 420.55,-23.25"/>
</g>
</g>
</svg>
