<?xml version="1.0" encoding="UTF-8" standalone="no"?>
<!DOCTYPE svg PUBLIC "-//W3C//DTD SVG 1.1//EN"
 "http://www.w3.org/Graphics/SVG/1.1/DTD/svg11.dtd">
<!-- Generated by graphviz version 2.43.0 (0)
 -->
<!-- Title: fiftyone.pipeline.core.data.EvidenceKeyFilterWhitelist Pages: 1 -->
<svg width="333pt" height="184pt"
 viewBox="0.00 0.00 332.50 184.00" xmlns="http://www.w3.org/2000/svg" xmlns:xlink="http://www.w3.org/1999/xlink">
<g id="graph0" class="graph" transform="scale(1 1) rotate(0) translate(4 180)">
<title>fiftyone.pipeline.core.data.EvidenceKeyFilterWhitelist</title>
<!-- Node3 -->
<g id="node1" class="node">
<title>Node3</title>
<g id="a_node1"><a xlink:title="This evidence filter will only include keys that are on a whitelist that is specified at construction...">
<polygon fill="#bfbfbf" stroke="black" points="47,-0.5 47,-30.5 194,-30.5 194,-0.5 47,-0.5"/>
<text text-anchor="start" x="55" y="-18.5" font-family="Helvetica,sans-Serif" font-size="10.00">fiftyone.pipeline.core.data.</text>
<text text-anchor="middle" x="120.5" y="-7.5" font-family="Helvetica,sans-Serif" font-size="10.00">EvidenceKeyFilterWhitelist</text>
</a>
</g>
</g>
<!-- Node4 -->
<g id="node2" class="node">
<title>Node4</title>
<g id="a_node2"><a xlink:href="interfacefiftyone_1_1pipeline_1_1core_1_1data_1_1_evidence_key_filter.html" target="_top" xlink:title="Represents an object that filters evidence key names based on some criteria.">
<polygon fill="none" stroke="black" points="0,-78.5 0,-108.5 147,-108.5 147,-78.5 0,-78.5"/>
<text text-anchor="start" x="8" y="-96.5" font-family="Helvetica,sans-Serif" font-size="10.00">fiftyone.pipeline.core.data.</text>
<text text-anchor="middle" x="73.5" y="-85.5" font-family="Helvetica,sans-Serif" font-size="10.00">EvidenceKeyFilter</text>
</a>
</g>
</g>
<!-- Node4&#45;&gt;Node3 -->
<g id="edge1" class="edge">
<title>Node4&#45;&gt;Node3</title>
<path fill="none" stroke="midnightblue" d="M87.68,-69.57C95.49,-56.94 104.95,-41.65 111.7,-30.73"/>
<polygon fill="midnightblue" stroke="midnightblue" points="84.62,-67.86 82.34,-78.2 90.58,-71.54 84.62,-67.86"/>
</g>
<!-- Node5 -->
<g id="node3" class="node">
<title>Node5</title>
<g id="a_node3"><a xlink:title=" ">
<polygon fill="none" stroke="#bfbfbf" points="165,-84 165,-103 294,-103 294,-84 165,-84"/>
<text text-anchor="middle" x="229.5" y="-91" font-family="Helvetica,sans-Serif" font-size="10.00">Map&lt; String, Integer &gt;</text>
</a>
</g>
</g>
<!-- Node5&#45;&gt;Node3 -->
<g id="edge2" class="edge">
<title>Node5&#45;&gt;Node3</title>
<path fill="none" stroke="#9a32cd" stroke-dasharray="5,2" d="M208.74,-78.03C189.15,-64.37 159.98,-44.03 140.61,-30.52"/>
<polygon fill="#9a32cd" stroke="#9a32cd" points="206.79,-80.93 217,-83.78 210.8,-75.19 206.79,-80.93"/>
<text text-anchor="middle" x="204.5" y="-52" font-family="Helvetica,sans-Serif" font-size="10.00"> whitelist</text>
</g>
<!-- Node6 -->
<g id="node4" class="node">
<title>Node6</title>
<g id="a_node4"><a xlink:title=" ">
<polygon fill="none" stroke="#bfbfbf" points="210.5,-156.5 210.5,-175.5 248.5,-175.5 248.5,-156.5 210.5,-156.5"/>
<text text-anchor="middle" x="229.5" y="-163.5" font-family="Helvetica,sans-Serif" font-size="10.00">Map</text>
</a>
</g>
</g>
<!-- Node6&#45;&gt;Node5 -->
<g id="edge3" class="edge">
<title>Node6&#45;&gt;Node5</title>
<path fill="none" stroke="orange" stroke-dasharray="5,2" d="M229.5,-145.94C229.5,-132.03 229.5,-113.82 229.5,-103.22"/>
<polygon fill="orange" stroke="orange" points="226,-146.36 229.5,-156.36 233,-146.36 226,-146.36"/>
<text text-anchor="middle" x="277" y="-130" font-family="Helvetica,sans-Serif" font-size="10.00"> &lt; String, Integer &gt;</text>
</g>
</g>
</svg>
