<?xml version="1.0" encoding="UTF-8" standalone="no"?>
<!DOCTYPE svg PUBLIC "-//W3C//DTD SVG 1.1//EN"
 "http://www.w3.org/Graphics/SVG/1.1/DTD/svg11.dtd">
<!-- Generated by graphviz version 2.43.0 (0)
 -->
<!-- Title: fiftyone.pipeline.web.services.FiftyOneJSServiceCore.Default Pages: 1 -->
<svg width="525pt" height="88pt"
 viewBox="0.00 0.00 525.00 88.00" xmlns="http://www.w3.org/2000/svg" xmlns:xlink="http://www.w3.org/1999/xlink">
<g id="graph0" class="graph" transform="scale(1 1) rotate(0) translate(4 84)">
<title>fiftyone.pipeline.web.services.FiftyOneJSServiceCore.Default</title>
<!-- Node3 -->
<g id="node1" class="node">
<title>Node3</title>
<g id="a_node1"><a xlink:title="Default implementation of the FiftyOneJSServiceCore service.">
<polygon fill="#bfbfbf" stroke="black" points="352,-24.5 352,-54.5 517,-54.5 517,-24.5 352,-24.5"/>
<text text-anchor="start" x="360" y="-42.5" font-family="Helvetica,sans-Serif" font-size="10.00">fiftyone.pipeline.web.services.</text>
<text text-anchor="middle" x="434.5" y="-31.5" font-family="Helvetica,sans-Serif" font-size="10.00">FiftyOneJSServiceCore.Default</text>
</a>
</g>
</g>
<!-- Node4 -->
<g id="node2" class="node">
<title>Node4</title>
<g id="a_node2"><a xlink:href="interfacefiftyone_1_1pipeline_1_1web_1_1services_1_1_fifty_one_j_s_service_core.html" target="_top" xlink:title="Service that provides the 51Degrees javascript when requested.">
<polygon fill="none" stroke="black" points="0,-49.5 0,-79.5 165,-79.5 165,-49.5 0,-49.5"/>
<text text-anchor="start" x="8" y="-67.5" font-family="Helvetica,sans-Serif" font-size="10.00">fiftyone.pipeline.web.services.</text>
<text text-anchor="middle" x="82.5" y="-56.5" font-family="Helvetica,sans-Serif" font-size="10.00">FiftyOneJSServiceCore</text>
</a>
</g>
</g>
<!-- Node4&#45;&gt;Node3 -->
<g id="edge1" class="edge">
<title>Node4&#45;&gt;Node3</title>
<path fill="none" stroke="midnightblue" d="M175.17,-57.95C229.92,-54.04 298.86,-49.12 351.75,-45.34"/>
<polygon fill="midnightblue" stroke="midnightblue" points="174.84,-54.47 165.12,-58.67 175.34,-61.45 174.84,-54.47"/>
</g>
<!-- Node5 -->
<g id="node3" class="node">
<title>Node5</title>
<g id="a_node3"><a xlink:href="interfacefiftyone_1_1pipeline_1_1web_1_1services_1_1_clientside_property_service_core.html" target="_top" xlink:title="Class that provides functionality for the &#39;Client side overrides&#39; feature.">
<polygon fill="none" stroke="black" points="0,-0.5 0,-30.5 165,-30.5 165,-0.5 0,-0.5"/>
<text text-anchor="start" x="8" y="-18.5" font-family="Helvetica,sans-Serif" font-size="10.00">fiftyone.pipeline.web.services.</text>
<text text-anchor="middle" x="82.5" y="-7.5" font-family="Helvetica,sans-Serif" font-size="10.00">ClientsidePropertyServiceCore</text>
</a>
</g>
</g>
<!-- Node5&#45;&gt;Node3 -->
<g id="edge2" class="edge">
<title>Node5&#45;&gt;Node3</title>
<path fill="none" stroke="#9a32cd" stroke-dasharray="5,2" d="M175.17,-21.79C229.92,-25.54 298.86,-30.27 351.75,-33.89"/>
<polygon fill="#9a32cd" stroke="#9a32cd" points="175.33,-18.29 165.12,-21.1 174.85,-25.27 175.33,-18.29"/>
<text text-anchor="middle" x="258.5" y="-34.5" font-family="Helvetica,sans-Serif" font-size="10.00"> clientsidePropertyServiceCore</text>
</g>
</g>
</svg>
