<?xml version="1.0" encoding="UTF-8" standalone="no"?>
<!DOCTYPE svg PUBLIC "-//W3C//DTD SVG 1.1//EN"
 "http://www.w3.org/Graphics/SVG/1.1/DTD/svg11.dtd">
<!-- Generated by graphviz version 2.43.0 (0)
 -->
<!-- Title: fiftyone.pipeline.core.flowelements.FlowElementBase&lt; TData extends ElementData, TProperty extends ElementPropertyMetaData &gt;.DataFactoryInternal&lt; T extends ElementData &gt; Pages: 1 -->
<svg width="351pt" height="207pt"
 viewBox="0.00 0.00 351.00 207.00" xmlns="http://www.w3.org/2000/svg" xmlns:xlink="http://www.w3.org/1999/xlink">
<g id="graph0" class="graph" transform="scale(1 1) rotate(0) translate(4 203)">
<title>fiftyone.pipeline.core.flowelements.FlowElementBase&lt; TData extends ElementData, TProperty extends ElementPropertyMetaData &gt;.DataFactoryInternal&lt; T extends ElementData &gt;</title>
<!-- Node4 -->
<g id="node1" class="node">
<title>Node4</title>
<g id="a_node1"><a xlink:title="Default implementation of the FlowElement.DataFactory interface.">
<polygon fill="#bfbfbf" stroke="black" points="0,-0.5 0,-63.5 260,-63.5 260,-0.5 0,-0.5"/>
<text text-anchor="start" x="8" y="-51.5" font-family="Helvetica,sans-Serif" font-size="10.00">fiftyone.pipeline.core.flowelements.</text>
<text text-anchor="start" x="8" y="-40.5" font-family="Helvetica,sans-Serif" font-size="10.00">FlowElementBase&lt; TData extends</text>
<text text-anchor="start" x="8" y="-29.5" font-family="Helvetica,sans-Serif" font-size="10.00"> ElementData, TProperty extends</text>
<text text-anchor="start" x="8" y="-18.5" font-family="Helvetica,sans-Serif" font-size="10.00"> ElementPropertyMetaData &gt;.DataFactoryInternal</text>
<text text-anchor="middle" x="130" y="-7.5" font-family="Helvetica,sans-Serif" font-size="10.00">&lt; T extends ElementData &gt;</text>
</a>
</g>
</g>
<!-- Node5 -->
<g id="node2" class="node">
<title>Node5</title>
<g id="a_node2"><a xlink:title=" ">
<polygon fill="none" stroke="#bfbfbf" points="62,-117 62,-136 166,-136 166,-117 62,-117"/>
<text text-anchor="middle" x="114" y="-124" font-family="Helvetica,sans-Serif" font-size="10.00">DataFactory&lt; T &gt;</text>
</a>
</g>
</g>
<!-- Node5&#45;&gt;Node4 -->
<g id="edge1" class="edge">
<title>Node5&#45;&gt;Node4</title>
<path fill="none" stroke="midnightblue" d="M117.2,-107C119.33,-94.66 122.19,-78.16 124.66,-63.87"/>
<polygon fill="midnightblue" stroke="midnightblue" points="113.73,-106.51 115.48,-116.96 120.63,-107.71 113.73,-106.51"/>
</g>
<!-- Node6 -->
<g id="node3" class="node">
<title>Node6</title>
<g id="a_node3"><a xlink:href="interfacefiftyone_1_1pipeline_1_1core_1_1data_1_1_element_data.html" target="_top" xlink:title="Represents property values that have be determined by a specific FlowElement based on the supplied ev...">
<polygon fill="none" stroke="black" points="184.5,-111.5 184.5,-141.5 331.5,-141.5 331.5,-111.5 184.5,-111.5"/>
<text text-anchor="start" x="192.5" y="-129.5" font-family="Helvetica,sans-Serif" font-size="10.00">fiftyone.pipeline.core.data.</text>
<text text-anchor="middle" x="258" y="-118.5" font-family="Helvetica,sans-Serif" font-size="10.00">ElementData</text>
</a>
</g>
</g>
<!-- Node6&#45;&gt;Node4 -->
<g id="edge2" class="edge">
<title>Node6&#45;&gt;Node4</title>
<path fill="none" stroke="orange" stroke-dasharray="5,2" d="M230.23,-105.43C213.36,-93.24 191.47,-77.42 172.45,-63.68"/>
<polygon fill="orange" stroke="orange" points="228.4,-108.43 238.56,-111.45 232.5,-102.76 228.4,-108.43"/>
<text text-anchor="middle" x="217" y="-85" font-family="Helvetica,sans-Serif" font-size="10.00"> T</text>
</g>
<!-- Node7 -->
<g id="node4" class="node">
<title>Node7</title>
<g id="a_node4"><a xlink:href="interfacefiftyone_1_1pipeline_1_1core_1_1data_1_1_data.html" target="_top" xlink:title="Represents a collection of property values.">
<polygon fill="none" stroke="black" points="173,-179.5 173,-198.5 343,-198.5 343,-179.5 173,-179.5"/>
<text text-anchor="middle" x="258" y="-186.5" font-family="Helvetica,sans-Serif" font-size="10.00">fiftyone.pipeline.core.data.Data</text>
</a>
</g>
</g>
<!-- Node7&#45;&gt;Node6 -->
<g id="edge3" class="edge">
<title>Node7&#45;&gt;Node6</title>
<path fill="none" stroke="midnightblue" d="M258,-169.22C258,-160.36 258,-149.96 258,-141.76"/>
<polygon fill="midnightblue" stroke="midnightblue" points="254.5,-169.33 258,-179.33 261.5,-169.33 254.5,-169.33"/>
</g>
</g>
</svg>
