<?xml version="1.0" encoding="UTF-8" standalone="no"?>
<!DOCTYPE svg PUBLIC "-//W3C//DTD SVG 1.1//EN"
 "http://www.w3.org/Graphics/SVG/1.1/DTD/svg11.dtd">
<!-- Generated by graphviz version 2.43.0 (0)
 -->
<!-- Title: fiftyone.pipeline.engines.trackers.TrackerBase&lt; T &gt; Pages: 1 -->
<svg width="1265pt" height="118pt"
 viewBox="0.00 0.00 1265.00 117.50" xmlns="http://www.w3.org/2000/svg" xmlns:xlink="http://www.w3.org/1999/xlink">
<g id="graph0" class="graph" transform="scale(1 1) rotate(0) translate(4 113.5)">
<title>fiftyone.pipeline.engines.trackers.TrackerBase&lt; T &gt;</title>
<!-- Node0 -->
<g id="node1" class="node">
<title>Node0</title>
<g id="a_node1"><a xlink:title="The abstract base class for trackers.">
<polygon fill="#bfbfbf" stroke="black" points="808,-30.5 808,-60.5 990,-60.5 990,-30.5 808,-30.5"/>
<text text-anchor="start" x="816" y="-48.5" font-family="Helvetica,sans-Serif" font-size="10.00">fiftyone.pipeline.engines.trackers.</text>
<text text-anchor="middle" x="899" y="-37.5" font-family="Helvetica,sans-Serif" font-size="10.00">TrackerBase&lt; T &gt;</text>
</a>
</g>
</g>
<!-- Node7 -->
<g id="node8" class="node">
<title>Node7</title>
<g id="a_node8"><a xlink:href="classfiftyone_1_1pipeline_1_1engines_1_1fiftyone_1_1trackers_1_1_share_usage_tracker.html" target="_top" xlink:title="A tracker used by share usage to attempt to avoid repeatedly sending data relating to the same user s...">
<polygon fill="none" stroke="black" points="1085.5,-49.5 1085.5,-101.5 1246.5,-101.5 1246.5,-49.5 1085.5,-49.5"/>
<text text-anchor="start" x="1093.5" y="-89.5" font-family="Helvetica,sans-Serif" font-size="10.00">fiftyone::pipeline</text>
<text text-anchor="start" x="1093.5" y="-78.5" font-family="Helvetica,sans-Serif" font-size="10.00">::engines::fiftyone</text>
<text text-anchor="start" x="1093.5" y="-67.5" font-family="Helvetica,sans-Serif" font-size="10.00">::trackers::ShareUsageTracker</text>
<text text-anchor="middle" x="1166" y="-56.5" font-family="Helvetica,sans-Serif" font-size="10.00">&lt; Date &gt;</text>
</a>
</g>
</g>
<!-- Node0&#45;&gt;Node7 -->
<g id="edge7" class="edge">
<title>Node0&#45;&gt;Node7</title>
<path fill="none" stroke="midnightblue" d="M1000.34,-56.86C1028.46,-60.04 1058.63,-63.46 1085.37,-66.49"/>
<polygon fill="midnightblue" stroke="midnightblue" points="1000.42,-53.35 990.09,-55.7 999.63,-60.3 1000.42,-53.35"/>
</g>
<!-- Node8 -->
<g id="node9" class="node">
<title>Node8</title>
<g id="a_node9"><a xlink:href="classfiftyone_1_1pipeline_1_1engines_1_1trackers_1_1_tracker_base.html" target="_top" xlink:title=" ">
<polygon fill="none" stroke="black" points="1075,-0.5 1075,-30.5 1257,-30.5 1257,-0.5 1075,-0.5"/>
<text text-anchor="start" x="1083" y="-18.5" font-family="Helvetica,sans-Serif" font-size="10.00">fiftyone.pipeline.engines.trackers.</text>
<text text-anchor="middle" x="1166" y="-7.5" font-family="Helvetica,sans-Serif" font-size="10.00">TrackerBase&lt; Date &gt;</text>
</a>
</g>
</g>
<!-- Node0&#45;&gt;Node8 -->
<g id="edge8" class="edge">
<title>Node0&#45;&gt;Node8</title>
<path fill="none" stroke="orange" stroke-dasharray="5,2" d="M1000.12,-34.17C1024.62,-31.39 1050.7,-28.44 1074.71,-25.72"/>
<polygon fill="orange" stroke="orange" points="999.63,-30.7 990.09,-35.3 1000.42,-37.65 999.63,-30.7"/>
<text text-anchor="middle" x="1032.5" y="-36.5" font-family="Helvetica,sans-Serif" font-size="10.00"> &lt; Date &gt;</text>
</g>
<!-- Node1 -->
<g id="node2" class="node">
<title>Node1</title>
<g id="a_node2"><a xlink:href="classfiftyone_1_1pipeline_1_1engines_1_1caching_1_1_data_keyed_cache_base.html" target="_top" xlink:title="Abstract base class for caches that use FlowData as the key.">
<polygon fill="none" stroke="black" points="604,-68 604,-109 756,-109 756,-68 604,-68"/>
<text text-anchor="start" x="612" y="-97" font-family="Helvetica,sans-Serif" font-size="10.00">fiftyone::pipeline</text>
<text text-anchor="start" x="612" y="-86" font-family="Helvetica,sans-Serif" font-size="10.00">::engines::caching::</text>
<text text-anchor="middle" x="680" y="-75" font-family="Helvetica,sans-Serif" font-size="10.00">DataKeyedCacheBase&lt; T &gt;</text>
</a>
</g>
</g>
<!-- Node1&#45;&gt;Node0 -->
<g id="edge1" class="edge">
<title>Node1&#45;&gt;Node0</title>
<path fill="none" stroke="midnightblue" d="M766.14,-71.63C784.61,-67.97 804.03,-64.12 822.11,-60.54"/>
<polygon fill="midnightblue" stroke="midnightblue" points="765.42,-68.2 756.29,-73.58 766.78,-75.07 765.42,-68.2"/>
</g>
<!-- Node2 -->
<g id="node3" class="node">
<title>Node2</title>
<g id="a_node3"><a xlink:href="interfacefiftyone_1_1pipeline_1_1engines_1_1caching_1_1_data_keyed_cache.html" target="_top" xlink:title="Represents a put cache where the key is a FlowData instance.">
<polygon fill="none" stroke="black" points="423,-68 423,-109 552,-109 552,-68 423,-68"/>
<text text-anchor="start" x="431" y="-97" font-family="Helvetica,sans-Serif" font-size="10.00">fiftyone::pipeline</text>
<text text-anchor="start" x="431" y="-86" font-family="Helvetica,sans-Serif" font-size="10.00">::engines::caching::</text>
<text text-anchor="middle" x="487.5" y="-75" font-family="Helvetica,sans-Serif" font-size="10.00">DataKeyedCache&lt; V &gt;</text>
</a>
</g>
</g>
<!-- Node2&#45;&gt;Node1 -->
<g id="edge2" class="edge">
<title>Node2&#45;&gt;Node1</title>
<path fill="none" stroke="midnightblue" d="M562.44,-88.5C576.02,-88.5 590.2,-88.5 603.81,-88.5"/>
<polygon fill="midnightblue" stroke="midnightblue" points="562.2,-85 552.2,-88.5 562.2,-92 562.2,-85"/>
</g>
<!-- Node3 -->
<g id="node4" class="node">
<title>Node3</title>
<g id="a_node4"><a xlink:href="interfacefiftyone_1_1caching_1_1_put_cache.html" target="_top" xlink:title="A cache that supports a thread safe put method for inserting to cache.">
<polygon fill="none" stroke="black" points="242,-73.5 242,-103.5 386,-103.5 386,-73.5 242,-73.5"/>
<text text-anchor="start" x="250" y="-91.5" font-family="Helvetica,sans-Serif" font-size="10.00">fiftyone::caching::</text>
<text text-anchor="middle" x="314" y="-80.5" font-family="Helvetica,sans-Serif" font-size="10.00">PutCache&lt; FlowData, V &gt;</text>
</a>
</g>
</g>
<!-- Node3&#45;&gt;Node2 -->
<g id="edge3" class="edge">
<title>Node3&#45;&gt;Node2</title>
<path fill="none" stroke="midnightblue" d="M396.28,-88.5C405.21,-88.5 414.2,-88.5 422.87,-88.5"/>
<polygon fill="midnightblue" stroke="midnightblue" points="396.24,-85 386.24,-88.5 396.24,-92 396.24,-85"/>
</g>
<!-- Node4 -->
<g id="node5" class="node">
<title>Node4</title>
<g id="a_node5"><a xlink:href="interfacefiftyone_1_1caching_1_1_cache.html" target="_top" xlink:title="Base cache interface which declares only the get method and the types of key and value stored in the ...">
<polygon fill="none" stroke="black" points="102,-73.5 102,-103.5 205,-103.5 205,-73.5 102,-73.5"/>
<text text-anchor="start" x="110" y="-91.5" font-family="Helvetica,sans-Serif" font-size="10.00">fiftyone::caching::</text>
<text text-anchor="middle" x="153.5" y="-80.5" font-family="Helvetica,sans-Serif" font-size="10.00">Cache&lt; K, V &gt;</text>
</a>
</g>
</g>
<!-- Node4&#45;&gt;Node3 -->
<g id="edge4" class="edge">
<title>Node4&#45;&gt;Node3</title>
<path fill="none" stroke="midnightblue" d="M215.15,-88.5C223.87,-88.5 232.9,-88.5 241.8,-88.5"/>
<polygon fill="midnightblue" stroke="midnightblue" points="215.09,-85 205.09,-88.5 215.09,-92 215.09,-85"/>
</g>
<!-- Node5 -->
<g id="node6" class="node">
<title>Node5</title>
<g id="a_node6"><a xlink:title=" ">
<polygon fill="none" stroke="#bfbfbf" points="0,-79 0,-98 65,-98 65,-79 0,-79"/>
<text text-anchor="middle" x="32.5" y="-86" font-family="Helvetica,sans-Serif" font-size="10.00">Closeable</text>
</a>
</g>
</g>
<!-- Node5&#45;&gt;Node4 -->
<g id="edge5" class="edge">
<title>Node5&#45;&gt;Node4</title>
<path fill="none" stroke="midnightblue" d="M75.25,-88.5C83.86,-88.5 93.01,-88.5 101.89,-88.5"/>
<polygon fill="midnightblue" stroke="midnightblue" points="75.08,-85 65.08,-88.5 75.08,-92 75.08,-85"/>
</g>
<!-- Node6 -->
<g id="node7" class="node">
<title>Node6</title>
<g id="a_node7"><a xlink:href="interfacefiftyone_1_1pipeline_1_1engines_1_1trackers_1_1_tracker.html" target="_top" xlink:title="Represents a &#39;tracker&#39;.">
<polygon fill="none" stroke="black" points="589,-18.5 589,-48.5 771,-48.5 771,-18.5 589,-18.5"/>
<text text-anchor="start" x="597" y="-36.5" font-family="Helvetica,sans-Serif" font-size="10.00">fiftyone.pipeline.engines.trackers.</text>
<text text-anchor="middle" x="680" y="-25.5" font-family="Helvetica,sans-Serif" font-size="10.00">Tracker</text>
</a>
</g>
</g>
<!-- Node6&#45;&gt;Node0 -->
<g id="edge6" class="edge">
<title>Node6&#45;&gt;Node0</title>
<path fill="none" stroke="midnightblue" d="M781.13,-39.04C790.02,-39.53 798.99,-40.02 807.79,-40.51"/>
<polygon fill="midnightblue" stroke="midnightblue" points="781.32,-35.54 771.14,-38.48 780.93,-42.53 781.32,-35.54"/>
</g>
</g>
</svg>
