<?xml version="1.0" encoding="UTF-8" standalone="no"?>
<!DOCTYPE svg PUBLIC "-//W3C//DTD SVG 1.1//EN"
 "http://www.w3.org/Graphics/SVG/1.1/DTD/svg11.dtd">
<!-- Generated by graphviz version 2.43.0 (0)
 -->
<!-- Title: fiftyone.pipeline.engines.fiftyone.data.CollectionIterableCachedBase&lt; T &gt; Pages: 1 -->
<svg width="212pt" height="251pt"
 viewBox="0.00 0.00 212.00 251.00" xmlns="http://www.w3.org/2000/svg" xmlns:xlink="http://www.w3.org/1999/xlink">
<g id="graph0" class="graph" transform="scale(1 1) rotate(0) translate(4 247)">
<title>fiftyone.pipeline.engines.fiftyone.data.CollectionIterableCachedBase&lt; T &gt;</title>
<!-- Node0 -->
<g id="node1" class="node">
<title>Node0</title>
<g id="a_node1"><a xlink:title=" ">
<polygon fill="#bfbfbf" stroke="black" points="0,-0.5 0,-30.5 204,-30.5 204,-0.5 0,-0.5"/>
<text text-anchor="start" x="8" y="-18.5" font-family="Helvetica,sans-Serif" font-size="10.00">fiftyone.pipeline.engines.fiftyone.data.</text>
<text text-anchor="middle" x="102" y="-7.5" font-family="Helvetica,sans-Serif" font-size="10.00">CollectionIterableCachedBase&lt; T &gt;</text>
</a>
</g>
</g>
<!-- Node1 -->
<g id="node2" class="node">
<title>Node1</title>
<g id="a_node2"><a xlink:href="classfiftyone_1_1pipeline_1_1engines_1_1fiftyone_1_1data_1_1_collection_iterable_base.html" target="_top" xlink:title=" ">
<polygon fill="none" stroke="black" points="7.5,-67.5 7.5,-108.5 196.5,-108.5 196.5,-67.5 7.5,-67.5"/>
<text text-anchor="start" x="15.5" y="-96.5" font-family="Helvetica,sans-Serif" font-size="10.00">fiftyone::pipeline</text>
<text text-anchor="start" x="15.5" y="-85.5" font-family="Helvetica,sans-Serif" font-size="10.00">::engines::fiftyone</text>
<text text-anchor="middle" x="102" y="-74.5" font-family="Helvetica,sans-Serif" font-size="10.00">::data::CollectionIterableBase&lt; T &gt;</text>
</a>
</g>
</g>
<!-- Node1&#45;&gt;Node0 -->
<g id="edge1" class="edge">
<title>Node1&#45;&gt;Node0</title>
<path fill="none" stroke="midnightblue" d="M102,-57.08C102,-48.01 102,-38.45 102,-30.89"/>
<polygon fill="midnightblue" stroke="midnightblue" points="98.5,-57.36 102,-67.36 105.5,-57.36 98.5,-57.36"/>
</g>
<!-- Node2 -->
<g id="node3" class="node">
<title>Node2</title>
<g id="a_node3"><a xlink:href="interfacefiftyone_1_1pipeline_1_1engines_1_1fiftyone_1_1data_1_1_closeable_iterable.html" target="_top" xlink:title="An iterable class which also implements auto&#45;closable.">
<polygon fill="none" stroke="black" points="20,-145.5 20,-186.5 184,-186.5 184,-145.5 20,-145.5"/>
<text text-anchor="start" x="28" y="-174.5" font-family="Helvetica,sans-Serif" font-size="10.00">fiftyone::pipeline</text>
<text text-anchor="start" x="28" y="-163.5" font-family="Helvetica,sans-Serif" font-size="10.00">::engines::fiftyone</text>
<text text-anchor="middle" x="102" y="-152.5" font-family="Helvetica,sans-Serif" font-size="10.00">::data::CloseableIterable&lt; T &gt;</text>
</a>
</g>
</g>
<!-- Node2&#45;&gt;Node1 -->
<g id="edge2" class="edge">
<title>Node2&#45;&gt;Node1</title>
<path fill="none" stroke="midnightblue" d="M102,-135.3C102,-126.3 102,-116.65 102,-108.51"/>
<polygon fill="midnightblue" stroke="midnightblue" points="98.5,-135.43 102,-145.43 105.5,-135.43 98.5,-135.43"/>
</g>
<!-- Node3 -->
<g id="node4" class="node">
<title>Node3</title>
<g id="a_node4"><a xlink:title=" ">
<polygon fill="none" stroke="#bfbfbf" points="9.5,-223.5 9.5,-242.5 92.5,-242.5 92.5,-223.5 9.5,-223.5"/>
<text text-anchor="middle" x="51" y="-230.5" font-family="Helvetica,sans-Serif" font-size="10.00">Iterable&lt; T &gt;</text>
</a>
</g>
</g>
<!-- Node3&#45;&gt;Node2 -->
<g id="edge3" class="edge">
<title>Node3&#45;&gt;Node2</title>
<path fill="none" stroke="midnightblue" d="M64.13,-215.27C71.01,-206.5 79.48,-195.7 86.67,-186.54"/>
<polygon fill="midnightblue" stroke="midnightblue" points="61.3,-213.21 57.88,-223.23 66.8,-217.53 61.3,-213.21"/>
</g>
<!-- Node4 -->
<g id="node5" class="node">
<title>Node4</title>
<g id="a_node5"><a xlink:title=" ">
<polygon fill="none" stroke="#bfbfbf" points="110.5,-223.5 110.5,-242.5 197.5,-242.5 197.5,-223.5 110.5,-223.5"/>
<text text-anchor="middle" x="154" y="-230.5" font-family="Helvetica,sans-Serif" font-size="10.00">AutoCloseable</text>
</a>
</g>
</g>
<!-- Node4&#45;&gt;Node2 -->
<g id="edge4" class="edge">
<title>Node4&#45;&gt;Node2</title>
<path fill="none" stroke="midnightblue" d="M140.62,-215.27C133.6,-206.5 124.96,-195.7 117.63,-186.54"/>
<polygon fill="midnightblue" stroke="midnightblue" points="138.01,-217.61 146.99,-223.23 143.47,-213.24 138.01,-217.61"/>
</g>
</g>
</svg>
