<?xml version="1.0" encoding="UTF-8" standalone="no"?>
<!DOCTYPE svg PUBLIC "-//W3C//DTD SVG 1.1//EN"
 "http://www.w3.org/Graphics/SVG/1.1/DTD/svg11.dtd">
<!-- Generated by graphviz version 2.43.0 (0)
 -->
<!-- Title: fiftyone.pipeline.engines.fiftyone.flowelements.ShareUsageBase.ShareUsageData Pages: 1 -->
<svg width="256pt" height="195pt"
 viewBox="0.00 0.00 256.00 195.00" xmlns="http://www.w3.org/2000/svg" xmlns:xlink="http://www.w3.org/1999/xlink">
<g id="graph0" class="graph" transform="scale(1 1) rotate(0) translate(4 191)">
<title>fiftyone.pipeline.engines.fiftyone.flowelements.ShareUsageBase.ShareUsageData</title>
<!-- Node1 -->
<g id="node1" class="node">
<title>Node1</title>
<g id="a_node1"><a xlink:title="Inner class that is used to store details of data in memory prior to it being sent to 51Degrees.">
<polygon fill="#bfbfbf" stroke="black" points="0,-0.5 0,-30.5 248,-30.5 248,-0.5 0,-0.5"/>
<text text-anchor="start" x="8" y="-18.5" font-family="Helvetica,sans-Serif" font-size="10.00">fiftyone.pipeline.engines.fiftyone.flowelements.</text>
<text text-anchor="middle" x="124" y="-7.5" font-family="Helvetica,sans-Serif" font-size="10.00">ShareUsageBase.ShareUsageData</text>
</a>
</g>
</g>
<!-- Node2 -->
<g id="node2" class="node">
<title>Node2</title>
<g id="a_node2"><a xlink:title=" ">
<polygon fill="none" stroke="#bfbfbf" points="50.5,-78.5 50.5,-108.5 197.5,-108.5 197.5,-78.5 50.5,-78.5"/>
<text text-anchor="start" x="58.5" y="-96.5" font-family="Helvetica,sans-Serif" font-size="10.00">Map&lt; String, Map&lt; String,</text>
<text text-anchor="middle" x="124" y="-85.5" font-family="Helvetica,sans-Serif" font-size="10.00"> String &gt; &gt;</text>
</a>
</g>
</g>
<!-- Node2&#45;&gt;Node1 -->
<g id="edge1" class="edge">
<title>Node2&#45;&gt;Node1</title>
<path fill="none" stroke="#9a32cd" stroke-dasharray="5,2" d="M124,-68.09C124,-55.76 124,-41.22 124,-30.73"/>
<polygon fill="#9a32cd" stroke="#9a32cd" points="120.5,-68.2 124,-78.2 127.5,-68.21 120.5,-68.2"/>
<text text-anchor="middle" x="159.5" y="-52" font-family="Helvetica,sans-Serif" font-size="10.00"> evidenceData</text>
</g>
<!-- Node3 -->
<g id="node3" class="node">
<title>Node3</title>
<g id="a_node3"><a xlink:title=" ">
<polygon fill="none" stroke="#bfbfbf" points="105,-167.5 105,-186.5 143,-186.5 143,-167.5 105,-167.5"/>
<text text-anchor="middle" x="124" y="-174.5" font-family="Helvetica,sans-Serif" font-size="10.00">Map</text>
</a>
</g>
</g>
<!-- Node3&#45;&gt;Node2 -->
<g id="edge2" class="edge">
<title>Node3&#45;&gt;Node2</title>
<path fill="none" stroke="orange" stroke-dasharray="5,2" d="M124,-157.23C124,-142.41 124,-122.05 124,-108.6"/>
<polygon fill="orange" stroke="orange" points="120.5,-157.28 124,-167.28 127.5,-157.28 120.5,-157.28"/>
<text text-anchor="start" x="124" y="-141" font-family="Helvetica,sans-Serif" font-size="10.00"> &lt; String, Map&lt; String,</text>
<text text-anchor="middle" x="180.5" y="-130" font-family="Helvetica,sans-Serif" font-size="10.00"> String &gt; &gt;</text>
</g>
</g>
</svg>
