<?xml version="1.0" encoding="UTF-8" standalone="no"?>
<!DOCTYPE svg PUBLIC "-//W3C//DTD SVG 1.1//EN"
 "http://www.w3.org/Graphics/SVG/1.1/DTD/svg11.dtd">
<!-- Generated by graphviz version 2.43.0 (0)
 -->
<!-- Title: fiftyone.pipeline.core.flowelements.PipelineBuilder Pages: 1 -->
<svg width="1335pt" height="171pt"
 viewBox="0.00 0.00 1335.00 171.00" xmlns="http://www.w3.org/2000/svg" xmlns:xlink="http://www.w3.org/1999/xlink">
<g id="graph0" class="graph" transform="scale(1 1) rotate(0) translate(4 167)">
<title>fiftyone.pipeline.core.flowelements.PipelineBuilder</title>
<!-- Node5 -->
<g id="node1" class="node">
<title>Node5</title>
<g id="a_node1"><a xlink:title="The PipelineBuilder follows the fluent builder pattern.">
<polygon fill="#bfbfbf" stroke="black" points="1136,-13 1136,-43 1327,-43 1327,-13 1136,-13"/>
<text text-anchor="start" x="1144" y="-31" font-family="Helvetica,sans-Serif" font-size="10.00">fiftyone.pipeline.core.flowelements.</text>
<text text-anchor="middle" x="1231.5" y="-20" font-family="Helvetica,sans-Serif" font-size="10.00">PipelineBuilder</text>
</a>
</g>
</g>
<!-- Node6 -->
<g id="node2" class="node">
<title>Node6</title>
<g id="a_node2"><a xlink:href="classfiftyone_1_1pipeline_1_1core_1_1flowelements_1_1_pipeline_builder_base.html" target="_top" xlink:title=" ">
<polygon fill="none" stroke="black" points="889,-50 889,-80 1099,-80 1099,-50 889,-50"/>
<text text-anchor="start" x="897" y="-68" font-family="Helvetica,sans-Serif" font-size="10.00">fiftyone.pipeline.core.flowelements.</text>
<text text-anchor="middle" x="994" y="-57" font-family="Helvetica,sans-Serif" font-size="10.00">PipelineBuilderBase&lt; PipelineBuilder &gt;</text>
</a>
</g>
</g>
<!-- Node6&#45;&gt;Node5 -->
<g id="edge1" class="edge">
<title>Node6&#45;&gt;Node5</title>
<path fill="none" stroke="midnightblue" d="M1100.98,-48.35C1112.63,-46.52 1124.44,-44.66 1135.94,-42.86"/>
<polygon fill="midnightblue" stroke="midnightblue" points="1100.12,-44.94 1090.79,-49.95 1101.21,-51.86 1100.12,-44.94"/>
</g>
<!-- Node7 -->
<g id="node3" class="node">
<title>Node7</title>
<g id="a_node3"><a xlink:href="classfiftyone_1_1pipeline_1_1core_1_1flowelements_1_1_pipeline_builder_base.html" target="_top" xlink:title="Abstract base class for all Pipeline builders.">
<polygon fill="none" stroke="black" points="562,-44.5 562,-85.5 753,-85.5 753,-44.5 562,-44.5"/>
<text text-anchor="start" x="570" y="-73.5" font-family="Helvetica,sans-Serif" font-size="10.00">fiftyone.pipeline.core.flowelements.</text>
<text text-anchor="start" x="570" y="-62.5" font-family="Helvetica,sans-Serif" font-size="10.00">PipelineBuilderBase&lt; T extends</text>
<text text-anchor="middle" x="657.5" y="-51.5" font-family="Helvetica,sans-Serif" font-size="10.00"> PipelineBuilderBase &gt;</text>
</a>
</g>
</g>
<!-- Node7&#45;&gt;Node6 -->
<g id="edge2" class="edge">
<title>Node7&#45;&gt;Node6</title>
<path fill="none" stroke="orange" stroke-dasharray="5,2" d="M763.06,-65C803.1,-65 848.74,-65 888.74,-65"/>
<polygon fill="orange" stroke="orange" points="763.01,-61.5 753.01,-65 763.01,-68.5 763.01,-61.5"/>
<text text-anchor="middle" x="821" y="-68" font-family="Helvetica,sans-Serif" font-size="10.00"> &lt; PipelineBuilder &gt;</text>
</g>
<!-- Node7&#45;&gt;Node7 -->
<g id="edge9" class="edge">
<title>Node7&#45;&gt;Node7</title>
<path fill="none" stroke="orange" stroke-dasharray="5,2" d="M632.04,-95.86C635.82,-100.7 644.31,-104 657.5,-104 678.6,-104 687.67,-95.54 684.7,-85.86"/>
<polygon fill="orange" stroke="orange" points="635.46,-95.12 630.3,-85.86 628.57,-96.32 635.46,-95.12"/>
<text text-anchor="middle" x="657.5" y="-107" font-family="Helvetica,sans-Serif" font-size="10.00"> T</text>
</g>
<!-- Node8 -->
<g id="node4" class="node">
<title>Node8</title>
<g id="a_node4"><a xlink:title=" ">
<polygon fill="none" stroke="#bfbfbf" points="236,-126 236,-156 456,-156 456,-126 236,-126"/>
<text text-anchor="start" x="244" y="-144" font-family="Helvetica,sans-Serif" font-size="10.00">List&lt; fiftyone.pipeline.core.flowelements.</text>
<text text-anchor="middle" x="346" y="-133" font-family="Helvetica,sans-Serif" font-size="10.00">FlowElement &gt;</text>
</a>
</g>
</g>
<!-- Node8&#45;&gt;Node7 -->
<g id="edge3" class="edge">
<title>Node8&#45;&gt;Node7</title>
<path fill="none" stroke="#9a32cd" stroke-dasharray="5,2" d="M426.46,-123.78C436.42,-121.54 446.45,-119.24 456,-117 497.31,-107.29 543.13,-95.48 580.54,-85.58"/>
<polygon fill="#9a32cd" stroke="#9a32cd" points="425.55,-120.4 416.55,-125.99 427.08,-127.23 425.55,-120.4"/>
<text text-anchor="middle" x="509" y="-114" font-family="Helvetica,sans-Serif" font-size="10.00"> flowElements</text>
</g>
<!-- Node9 -->
<g id="node5" class="node">
<title>Node9</title>
<g id="a_node5"><a xlink:title=" ">
<polygon fill="none" stroke="#bfbfbf" points="0,-106.5 0,-125.5 34,-125.5 34,-106.5 0,-106.5"/>
<text text-anchor="middle" x="17" y="-113.5" font-family="Helvetica,sans-Serif" font-size="10.00">List</text>
</a>
</g>
</g>
<!-- Node9&#45;&gt;Node8 -->
<g id="edge4" class="edge">
<title>Node9&#45;&gt;Node8</title>
<path fill="none" stroke="orange" stroke-dasharray="5,2" d="M44.25,-118.01C85.52,-121.16 167.88,-127.46 235.99,-132.67"/>
<polygon fill="orange" stroke="orange" points="44.45,-114.51 34.22,-117.24 43.92,-121.49 44.45,-114.51"/>
<text text-anchor="start" x="85" y="-155" font-family="Helvetica,sans-Serif" font-size="10.00"> &lt; fiftyone::pipeline</text>
<text text-anchor="start" x="85" y="-144" font-family="Helvetica,sans-Serif" font-size="10.00">::core::flowelements</text>
<text text-anchor="middle" x="135" y="-133" font-family="Helvetica,sans-Serif" font-size="10.00">::FlowElement &gt;</text>
</g>
<!-- Node11 -->
<g id="node7" class="node">
<title>Node11</title>
<g id="a_node7"><a xlink:title=" ">
<polygon fill="none" stroke="#bfbfbf" points="249,-77 249,-107 443,-107 443,-77 249,-77"/>
<text text-anchor="start" x="257" y="-95" font-family="Helvetica,sans-Serif" font-size="10.00">List&lt; fiftyone.pipeline.core.services.</text>
<text text-anchor="middle" x="346" y="-84" font-family="Helvetica,sans-Serif" font-size="10.00">PipelineService &gt;</text>
</a>
</g>
</g>
<!-- Node9&#45;&gt;Node11 -->
<g id="edge7" class="edge">
<title>Node9&#45;&gt;Node11</title>
<path fill="none" stroke="orange" stroke-dasharray="5,2" d="M39.54,-101.13C43.53,-99.03 47.77,-97.18 52,-96 115.94,-78.12 190.83,-77.43 248.89,-81.05"/>
<polygon fill="orange" stroke="orange" points="37.64,-98.19 30.84,-106.31 41.22,-104.2 37.64,-98.19"/>
<text text-anchor="start" x="52" y="-110" font-family="Helvetica,sans-Serif" font-size="10.00"> &lt; fiftyone::pipeline</text>
<text text-anchor="middle" x="135" y="-99" font-family="Helvetica,sans-Serif" font-size="10.00">::core::services::PipelineService &gt;</text>
</g>
<!-- Node10 -->
<g id="node6" class="node">
<title>Node10</title>
<g id="a_node6"><a xlink:title=" ">
<polygon fill="none" stroke="#bfbfbf" points="321,-38.5 321,-57.5 371,-57.5 371,-38.5 321,-38.5"/>
<text text-anchor="middle" x="346" y="-45.5" font-family="Helvetica,sans-Serif" font-size="10.00">Logger</text>
</a>
</g>
</g>
<!-- Node10&#45;&gt;Node7 -->
<g id="edge5" class="edge">
<title>Node10&#45;&gt;Node7</title>
<path fill="none" stroke="#9a32cd" stroke-dasharray="5,2" d="M381.4,-48.35C420.74,-48.91 487.07,-50.35 544,-54 549.78,-54.37 555.72,-54.8 561.71,-55.27"/>
<polygon fill="#9a32cd" stroke="#9a32cd" points="381.33,-44.85 371.29,-48.22 381.24,-51.85 381.33,-44.85"/>
<text text-anchor="middle" x="509" y="-57" font-family="Helvetica,sans-Serif" font-size="10.00"> logger</text>
</g>
<!-- Node11&#45;&gt;Node7 -->
<g id="edge6" class="edge">
<title>Node11&#45;&gt;Node7</title>
<path fill="none" stroke="#9a32cd" stroke-dasharray="5,2" d="M453.54,-82.71C488.76,-79.63 527.67,-76.24 561.92,-73.25"/>
<polygon fill="#9a32cd" stroke="#9a32cd" points="452.89,-79.25 443.23,-83.61 453.5,-86.22 452.89,-79.25"/>
<text text-anchor="middle" x="509" y="-83" font-family="Helvetica,sans-Serif" font-size="10.00"> services</text>
</g>
<!-- Node12 -->
<g id="node8" class="node">
<title>Node12</title>
<g id="a_node8"><a xlink:title=" ">
<polygon fill="none" stroke="#bfbfbf" points="302,-0.5 302,-19.5 390,-19.5 390,-0.5 302,-0.5"/>
<text text-anchor="middle" x="346" y="-7.5" font-family="Helvetica,sans-Serif" font-size="10.00">ILoggerFactory</text>
</a>
</g>
</g>
<!-- Node12&#45;&gt;Node7 -->
<g id="edge8" class="edge">
<title>Node12&#45;&gt;Node7</title>
<path fill="none" stroke="#9a32cd" stroke-dasharray="5,2" d="M400.3,-15.27C440.1,-19.63 495.71,-26.63 544,-36 556.38,-38.4 569.41,-41.36 582.05,-44.46"/>
<polygon fill="#9a32cd" stroke="#9a32cd" points="400.6,-11.78 390.28,-14.19 399.85,-18.74 400.6,-11.78"/>
<text text-anchor="middle" x="509" y="-39" font-family="Helvetica,sans-Serif" font-size="10.00"> loggerFactory</text>
</g>
<!-- Node13 -->
<g id="node9" class="node">
<title>Node13</title>
<g id="a_node9"><a xlink:href="interfacefiftyone_1_1pipeline_1_1core_1_1flowelements_1_1_pipeline_builder_from_configuration.html" target="_top" xlink:title="Pipeline builders implementing this interface are capable of building a Pipeline based on a supplied ...">
<polygon fill="none" stroke="black" points="898.5,-1 898.5,-31 1089.5,-31 1089.5,-1 898.5,-1"/>
<text text-anchor="start" x="906.5" y="-19" font-family="Helvetica,sans-Serif" font-size="10.00">fiftyone.pipeline.core.flowelements.</text>
<text text-anchor="middle" x="994" y="-8" font-family="Helvetica,sans-Serif" font-size="10.00">PipelineBuilderFromConfiguration</text>
</a>
</g>
</g>
<!-- Node13&#45;&gt;Node5 -->
<g id="edge10" class="edge">
<title>Node13&#45;&gt;Node5</title>
<path fill="none" stroke="midnightblue" d="M1099.82,-21.34C1111.84,-21.95 1124.05,-22.58 1135.93,-23.18"/>
<polygon fill="midnightblue" stroke="midnightblue" points="1099.93,-17.84 1089.77,-20.83 1099.58,-24.83 1099.93,-17.84"/>
</g>
</g>
</svg>
