<?xml version="1.0" encoding="UTF-8" standalone="no"?>
<!DOCTYPE svg PUBLIC "-//W3C//DTD SVG 1.1//EN"
 "http://www.w3.org/Graphics/SVG/1.1/DTD/svg11.dtd">
<!-- Generated by graphviz version 2.43.0 (0)
 -->
<!-- Title: fiftyone.pipeline.core.flowelements.FlowElementBase&lt; TData extends ElementData, TProperty extends ElementPropertyMetaData &gt;.DataFactorySimple&lt; T extends ElementData &gt; Pages: 1 -->
<svg width="349pt" height="207pt"
 viewBox="0.00 0.00 349.00 207.00" xmlns="http://www.w3.org/2000/svg" xmlns:xlink="http://www.w3.org/1999/xlink">
<g id="graph0" class="graph" transform="scale(1 1) rotate(0) translate(4 203)">
<title>fiftyone.pipeline.core.flowelements.FlowElementBase&lt; TData extends ElementData, TProperty extends ElementPropertyMetaData &gt;.DataFactorySimple&lt; T extends ElementData &gt;</title>
<!-- Node0 -->
<g id="node1" class="node">
<title>Node0</title>
<g id="a_node1"><a xlink:title="FlowElement.DataFactory implementation which should be used temporarily with a single ElementData ins...">
<polygon fill="#bfbfbf" stroke="black" points="0,-0.5 0,-63.5 256,-63.5 256,-0.5 0,-0.5"/>
<text text-anchor="start" x="8" y="-51.5" font-family="Helvetica,sans-Serif" font-size="10.00">fiftyone.pipeline.core.flowelements.</text>
<text text-anchor="start" x="8" y="-40.5" font-family="Helvetica,sans-Serif" font-size="10.00">FlowElementBase&lt; TData extends</text>
<text text-anchor="start" x="8" y="-29.5" font-family="Helvetica,sans-Serif" font-size="10.00"> ElementData, TProperty extends</text>
<text text-anchor="start" x="8" y="-18.5" font-family="Helvetica,sans-Serif" font-size="10.00"> ElementPropertyMetaData &gt;.DataFactorySimple</text>
<text text-anchor="middle" x="128" y="-7.5" font-family="Helvetica,sans-Serif" font-size="10.00">&lt; T extends ElementData &gt;</text>
</a>
</g>
</g>
<!-- Node1 -->
<g id="node2" class="node">
<title>Node1</title>
<g id="a_node2"><a xlink:title=" ">
<polygon fill="none" stroke="#bfbfbf" points="60,-117 60,-136 164,-136 164,-117 60,-117"/>
<text text-anchor="middle" x="112" y="-124" font-family="Helvetica,sans-Serif" font-size="10.00">DataFactory&lt; T &gt;</text>
</a>
</g>
</g>
<!-- Node1&#45;&gt;Node0 -->
<g id="edge1" class="edge">
<title>Node1&#45;&gt;Node0</title>
<path fill="none" stroke="midnightblue" d="M115.2,-107C117.33,-94.66 120.19,-78.16 122.66,-63.87"/>
<polygon fill="midnightblue" stroke="midnightblue" points="111.73,-106.51 113.48,-116.96 118.63,-107.71 111.73,-106.51"/>
</g>
<!-- Node2 -->
<g id="node3" class="node">
<title>Node2</title>
<g id="a_node3"><a xlink:href="interfacefiftyone_1_1pipeline_1_1core_1_1data_1_1_element_data.html" target="_top" xlink:title="Represents property values that have be determined by a specific FlowElement based on the supplied ev...">
<polygon fill="none" stroke="black" points="182.5,-111.5 182.5,-141.5 329.5,-141.5 329.5,-111.5 182.5,-111.5"/>
<text text-anchor="start" x="190.5" y="-129.5" font-family="Helvetica,sans-Serif" font-size="10.00">fiftyone.pipeline.core.data.</text>
<text text-anchor="middle" x="256" y="-118.5" font-family="Helvetica,sans-Serif" font-size="10.00">ElementData</text>
</a>
</g>
</g>
<!-- Node2&#45;&gt;Node0 -->
<g id="edge2" class="edge">
<title>Node2&#45;&gt;Node0</title>
<path fill="none" stroke="orange" stroke-dasharray="5,2" d="M228.23,-105.43C211.36,-93.24 189.47,-77.42 170.45,-63.68"/>
<polygon fill="orange" stroke="orange" points="226.4,-108.43 236.56,-111.45 230.5,-102.76 226.4,-108.43"/>
<text text-anchor="middle" x="215" y="-85" font-family="Helvetica,sans-Serif" font-size="10.00"> T</text>
</g>
<!-- Node3 -->
<g id="node4" class="node">
<title>Node3</title>
<g id="a_node4"><a xlink:href="interfacefiftyone_1_1pipeline_1_1core_1_1data_1_1_data.html" target="_top" xlink:title="Represents a collection of property values.">
<polygon fill="none" stroke="black" points="171,-179.5 171,-198.5 341,-198.5 341,-179.5 171,-179.5"/>
<text text-anchor="middle" x="256" y="-186.5" font-family="Helvetica,sans-Serif" font-size="10.00">fiftyone.pipeline.core.data.Data</text>
</a>
</g>
</g>
<!-- Node3&#45;&gt;Node2 -->
<g id="edge3" class="edge">
<title>Node3&#45;&gt;Node2</title>
<path fill="none" stroke="midnightblue" d="M256,-169.22C256,-160.36 256,-149.96 256,-141.76"/>
<polygon fill="midnightblue" stroke="midnightblue" points="252.5,-169.33 256,-179.33 259.5,-169.33 252.5,-169.33"/>
</g>
</g>
</svg>
