<?xml version="1.0" encoding="UTF-8" standalone="no"?>
<!DOCTYPE svg PUBLIC "-//W3C//DTD SVG 1.1//EN"
 "http://www.w3.org/Graphics/SVG/1.1/DTD/svg11.dtd">
<!-- Generated by graphviz version 2.43.0 (0)
 -->
<!-- Title: fiftyone.pipeline.core.data.ElementDataBase Pages: 1 -->
<svg width="320pt" height="174pt"
 viewBox="0.00 0.00 320.00 174.00" xmlns="http://www.w3.org/2000/svg" xmlns:xlink="http://www.w3.org/1999/xlink">
<g id="graph0" class="graph" transform="scale(1 1) rotate(0) translate(4 170)">
<title>fiftyone.pipeline.core.data.ElementDataBase</title>
<!-- Node10 -->
<g id="node1" class="node">
<title>Node10</title>
<g id="a_node1"><a xlink:title="Base implementation of ElementData.">
<polygon fill="#bfbfbf" stroke="black" points="82,-0.5 82,-30.5 229,-30.5 229,-0.5 82,-0.5"/>
<text text-anchor="start" x="90" y="-18.5" font-family="Helvetica,sans-Serif" font-size="10.00">fiftyone.pipeline.core.data.</text>
<text text-anchor="middle" x="155.5" y="-7.5" font-family="Helvetica,sans-Serif" font-size="10.00">ElementDataBase</text>
</a>
</g>
</g>
<!-- Node11 -->
<g id="node2" class="node">
<title>Node11</title>
<g id="a_node2"><a xlink:href="classfiftyone_1_1pipeline_1_1core_1_1data_1_1_data_base.html" target="_top" xlink:title="This implementation of Data stores data values as key/value pairs in a Map where the key is a string ...">
<polygon fill="none" stroke="black" points="165,-68.5 165,-98.5 312,-98.5 312,-68.5 165,-68.5"/>
<text text-anchor="start" x="173" y="-86.5" font-family="Helvetica,sans-Serif" font-size="10.00">fiftyone.pipeline.core.data.</text>
<text text-anchor="middle" x="238.5" y="-75.5" font-family="Helvetica,sans-Serif" font-size="10.00">DataBase</text>
</a>
</g>
</g>
<!-- Node11&#45;&gt;Node10 -->
<g id="edge1" class="edge">
<title>Node11&#45;&gt;Node10</title>
<path fill="none" stroke="midnightblue" d="M212.48,-61.81C199.69,-51.64 184.62,-39.66 173.19,-30.57"/>
<polygon fill="midnightblue" stroke="midnightblue" points="210.48,-64.69 220.49,-68.18 214.84,-59.22 210.48,-64.69"/>
</g>
<!-- Node12 -->
<g id="node3" class="node">
<title>Node12</title>
<g id="a_node3"><a xlink:href="interfacefiftyone_1_1pipeline_1_1core_1_1data_1_1_data.html" target="_top" xlink:title="Represents a collection of property values.">
<polygon fill="none" stroke="black" points="7.5,-146.5 7.5,-165.5 177.5,-165.5 177.5,-146.5 7.5,-146.5"/>
<text text-anchor="middle" x="92.5" y="-153.5" font-family="Helvetica,sans-Serif" font-size="10.00">fiftyone.pipeline.core.data.Data</text>
</a>
</g>
</g>
<!-- Node12&#45;&gt;Node11 -->
<g id="edge2" class="edge">
<title>Node12&#45;&gt;Node11</title>
<path fill="none" stroke="midnightblue" d="M119.22,-142.1C144.78,-129.76 183.21,-111.2 209.49,-98.51"/>
<polygon fill="midnightblue" stroke="midnightblue" points="117.59,-139 110.11,-146.5 120.64,-145.3 117.59,-139"/>
</g>
<!-- Node14 -->
<g id="node5" class="node">
<title>Node14</title>
<g id="a_node5"><a xlink:href="interfacefiftyone_1_1pipeline_1_1core_1_1data_1_1_element_data.html" target="_top" xlink:title="Represents property values that have be determined by a specific FlowElement based on the supplied ev...">
<polygon fill="none" stroke="black" points="0,-68.5 0,-98.5 147,-98.5 147,-68.5 0,-68.5"/>
<text text-anchor="start" x="8" y="-86.5" font-family="Helvetica,sans-Serif" font-size="10.00">fiftyone.pipeline.core.data.</text>
<text text-anchor="middle" x="73.5" y="-75.5" font-family="Helvetica,sans-Serif" font-size="10.00">ElementData</text>
</a>
</g>
</g>
<!-- Node12&#45;&gt;Node14 -->
<g id="edge5" class="edge">
<title>Node12&#45;&gt;Node14</title>
<path fill="none" stroke="midnightblue" d="M87.54,-136.6C84.34,-124.72 80.24,-109.49 77.29,-98.58"/>
<polygon fill="midnightblue" stroke="midnightblue" points="84.19,-137.61 90.17,-146.36 90.95,-135.79 84.19,-137.61"/>
</g>
<!-- Node13 -->
<g id="node4" class="node">
<title>Node13</title>
<g id="a_node4"><a xlink:title=" ">
<polygon fill="none" stroke="#bfbfbf" points="213.5,-146.5 213.5,-165.5 263.5,-165.5 263.5,-146.5 213.5,-146.5"/>
<text text-anchor="middle" x="238.5" y="-153.5" font-family="Helvetica,sans-Serif" font-size="10.00">Logger</text>
</a>
</g>
</g>
<!-- Node13&#45;&gt;Node11 -->
<g id="edge3" class="edge">
<title>Node13&#45;&gt;Node11</title>
<path fill="none" stroke="#9a32cd" stroke-dasharray="5,2" d="M238.5,-136.24C238.5,-124.41 238.5,-109.38 238.5,-98.58"/>
<polygon fill="#9a32cd" stroke="#9a32cd" points="235,-136.36 238.5,-146.36 242,-136.36 235,-136.36"/>
<text text-anchor="middle" x="255.5" y="-120" font-family="Helvetica,sans-Serif" font-size="10.00"> logger</text>
</g>
<!-- Node14&#45;&gt;Node10 -->
<g id="edge4" class="edge">
<title>Node14&#45;&gt;Node10</title>
<path fill="none" stroke="midnightblue" d="M99.21,-61.81C111.84,-51.64 126.73,-39.66 138.02,-30.57"/>
<polygon fill="midnightblue" stroke="midnightblue" points="96.89,-59.18 91.29,-68.18 101.28,-64.64 96.89,-59.18"/>
</g>
</g>
</svg>
