<?xml version="1.0" encoding="UTF-8" standalone="no"?>
<!DOCTYPE svg PUBLIC "-//W3C//DTD SVG 1.1//EN"
 "http://www.w3.org/Graphics/SVG/1.1/DTD/svg11.dtd">
<!-- Generated by graphviz version 2.43.0 (0)
 -->
<!-- Title: fiftyone.pipeline.cloudrequestengine.flowelements.CloudRequestEngineBuilder Pages: 1 -->
<svg width="1520pt" height="192pt"
 viewBox="0.00 0.00 1520.00 192.00" xmlns="http://www.w3.org/2000/svg" xmlns:xlink="http://www.w3.org/1999/xlink">
<g id="graph0" class="graph" transform="scale(1 1) rotate(0) translate(4 188)">
<title>fiftyone.pipeline.cloudrequestengine.flowelements.CloudRequestEngineBuilder</title>
<!-- Node10 -->
<g id="node1" class="node">
<title>Node10</title>
<g id="a_node1"><a xlink:title="Builder for the CloudRequestEngine.">
<polygon fill="#bfbfbf" stroke="black" points="1246,-109.5 1246,-139.5 1512,-139.5 1512,-109.5 1246,-109.5"/>
<text text-anchor="start" x="1254" y="-127.5" font-family="Helvetica,sans-Serif" font-size="10.00">fiftyone.pipeline.cloudrequestengine.flowelements.</text>
<text text-anchor="middle" x="1379" y="-116.5" font-family="Helvetica,sans-Serif" font-size="10.00">CloudRequestEngineBuilder</text>
</a>
</g>
</g>
<!-- Node11 -->
<g id="node2" class="node">
<title>Node11</title>
<g id="a_node2"><a xlink:href="classfiftyone_1_1pipeline_1_1engines_1_1flowelements_1_1_aspect_engine_builder_base.html" target="_top" xlink:title="Abstract base class that exposes the common options that all 51Degrees engine builders should make us...">
<polygon fill="none" stroke="black" points="1043,-93 1043,-156 1209,-156 1209,-93 1043,-93"/>
<text text-anchor="start" x="1051" y="-144" font-family="Helvetica,sans-Serif" font-size="10.00">fiftyone::pipeline</text>
<text text-anchor="start" x="1051" y="-133" font-family="Helvetica,sans-Serif" font-size="10.00">::engines::flowelements</text>
<text text-anchor="start" x="1051" y="-122" font-family="Helvetica,sans-Serif" font-size="10.00">::AspectEngineBuilderBase</text>
<text text-anchor="start" x="1051" y="-111" font-family="Helvetica,sans-Serif" font-size="10.00">&lt; CloudRequestEngineBuilder,</text>
<text text-anchor="middle" x="1126" y="-100" font-family="Helvetica,sans-Serif" font-size="10.00"> CloudRequestEngine &gt;</text>
</a>
</g>
</g>
<!-- Node11&#45;&gt;Node10 -->
<g id="edge1" class="edge">
<title>Node11&#45;&gt;Node10</title>
<path fill="none" stroke="midnightblue" d="M1219.2,-124.5C1227.84,-124.5 1236.69,-124.5 1245.6,-124.5"/>
<polygon fill="midnightblue" stroke="midnightblue" points="1219.19,-121 1209.19,-124.5 1219.19,-128 1219.19,-121"/>
</g>
<!-- Node12 -->
<g id="node3" class="node">
<title>Node12</title>
<g id="a_node3"><a xlink:href="classfiftyone_1_1pipeline_1_1engines_1_1configuration_1_1_cache_configuration.html" target="_top" xlink:title="Contains everything needed to build a cache.">
<polygon fill="none" stroke="black" points="711.5,-153.5 711.5,-183.5 917.5,-183.5 917.5,-153.5 711.5,-153.5"/>
<text text-anchor="start" x="719.5" y="-171.5" font-family="Helvetica,sans-Serif" font-size="10.00">fiftyone.pipeline.engines.configuration.</text>
<text text-anchor="middle" x="814.5" y="-160.5" font-family="Helvetica,sans-Serif" font-size="10.00">CacheConfiguration</text>
</a>
</g>
</g>
<!-- Node12&#45;&gt;Node11 -->
<g id="edge2" class="edge">
<title>Node12&#45;&gt;Node11</title>
<path fill="none" stroke="#9a32cd" stroke-dasharray="5,2" d="M927.68,-153.21C959.18,-148.85 993.44,-144.05 1025,-139.5 1030.82,-138.66 1036.83,-137.78 1042.88,-136.89"/>
<polygon fill="#9a32cd" stroke="#9a32cd" points="926.99,-149.77 917.56,-154.61 927.95,-156.71 926.99,-149.77"/>
<text text-anchor="middle" x="990" y="-151.5" font-family="Helvetica,sans-Serif" font-size="10.00"> cacheConfig</text>
</g>
<!-- Node13 -->
<g id="node4" class="node">
<title>Node13</title>
<g id="a_node4"><a xlink:title=" ">
<polygon fill="none" stroke="#bfbfbf" points="770.5,-115 770.5,-134 858.5,-134 858.5,-115 770.5,-115"/>
<text text-anchor="middle" x="814.5" y="-122" font-family="Helvetica,sans-Serif" font-size="10.00">ILoggerFactory</text>
</a>
</g>
</g>
<!-- Node13&#45;&gt;Node11 -->
<g id="edge3" class="edge">
<title>Node13&#45;&gt;Node11</title>
<path fill="none" stroke="#9a32cd" stroke-dasharray="5,2" d="M868.68,-124.5C916.56,-124.5 987.67,-124.5 1042.85,-124.5"/>
<polygon fill="#9a32cd" stroke="#9a32cd" points="868.53,-121 858.53,-124.5 868.53,-128 868.53,-121"/>
<text text-anchor="middle" x="990" y="-127.5" font-family="Helvetica,sans-Serif" font-size="10.00"> loggerFactory</text>
</g>
<!-- Node14 -->
<g id="node5" class="node">
<title>Node14</title>
<g id="a_node5"><a xlink:href="interfacefiftyone_1_1pipeline_1_1engines_1_1flowelements_1_1_aspect_engine.html" target="_top" xlink:title="AspectEngines are a subset of FlowElements.">
<polygon fill="none" stroke="black" points="692,-55 692,-96 937,-96 937,-55 692,-55"/>
<text text-anchor="start" x="700" y="-84" font-family="Helvetica,sans-Serif" font-size="10.00">fiftyone.pipeline.engines.flowelements.</text>
<text text-anchor="start" x="700" y="-73" font-family="Helvetica,sans-Serif" font-size="10.00">AspectEngine&lt; TData extends AspectData,</text>
<text text-anchor="middle" x="814.5" y="-62" font-family="Helvetica,sans-Serif" font-size="10.00"> TProperty extends AspectPropertyMetaData &gt;</text>
</a>
</g>
</g>
<!-- Node14&#45;&gt;Node11 -->
<g id="edge4" class="edge">
<title>Node14&#45;&gt;Node11</title>
<path fill="none" stroke="orange" stroke-dasharray="5,2" d="M947.38,-96.38C979.76,-101.51 1013.52,-106.85 1042.79,-111.48"/>
<polygon fill="orange" stroke="orange" points="947.8,-92.9 937.38,-94.8 946.71,-99.82 947.8,-92.9"/>
<text text-anchor="middle" x="990" y="-111.5" font-family="Helvetica,sans-Serif" font-size="10.00"> TEngine</text>
</g>
<!-- Node15 -->
<g id="node6" class="node">
<title>Node15</title>
<g id="a_node6"><a xlink:href="interfacefiftyone_1_1pipeline_1_1core_1_1flowelements_1_1_flow_element.html" target="_top" xlink:title="A component that processes a FlowData (by examining its evidence, or by examining data processed by o...">
<polygon fill="none" stroke="black" points="458,-49.5 458,-101.5 588,-101.5 588,-49.5 458,-49.5"/>
<text text-anchor="start" x="466" y="-89.5" font-family="Helvetica,sans-Serif" font-size="10.00">fiftyone::pipeline</text>
<text text-anchor="start" x="466" y="-78.5" font-family="Helvetica,sans-Serif" font-size="10.00">::core::flowelements</text>
<text text-anchor="start" x="466" y="-67.5" font-family="Helvetica,sans-Serif" font-size="10.00">::FlowElement&lt; TData,</text>
<text text-anchor="middle" x="523" y="-56.5" font-family="Helvetica,sans-Serif" font-size="10.00"> TProperty &gt;</text>
</a>
</g>
</g>
<!-- Node15&#45;&gt;Node14 -->
<g id="edge5" class="edge">
<title>Node15&#45;&gt;Node14</title>
<path fill="none" stroke="midnightblue" d="M598.49,-75.5C626.91,-75.5 660.09,-75.5 691.77,-75.5"/>
<polygon fill="midnightblue" stroke="midnightblue" points="598.25,-72 588.25,-75.5 598.25,-79 598.25,-72"/>
</g>
<!-- Node16 -->
<g id="node7" class="node">
<title>Node16</title>
<g id="a_node7"><a xlink:title=" ">
<polygon fill="none" stroke="#bfbfbf" points="237,-66 237,-85 324,-85 324,-66 237,-66"/>
<text text-anchor="middle" x="280.5" y="-73" font-family="Helvetica,sans-Serif" font-size="10.00">AutoCloseable</text>
</a>
</g>
</g>
<!-- Node16&#45;&gt;Node15 -->
<g id="edge6" class="edge">
<title>Node16&#45;&gt;Node15</title>
<path fill="none" stroke="midnightblue" d="M334.62,-75.5C371,-75.5 419.44,-75.5 457.96,-75.5"/>
<polygon fill="midnightblue" stroke="midnightblue" points="334.22,-72 324.22,-75.5 334.22,-79 334.22,-72"/>
</g>
<!-- Node17 -->
<g id="node8" class="node">
<title>Node17</title>
<g id="a_node8"><a xlink:href="interfacefiftyone_1_1pipeline_1_1core_1_1data_1_1_element_data.html" target="_top" xlink:title="Represents property values that have be determined by a specific FlowElement based on the supplied ev...">
<polygon fill="none" stroke="black" points="207,-112.5 207,-142.5 354,-142.5 354,-112.5 207,-112.5"/>
<text text-anchor="start" x="215" y="-130.5" font-family="Helvetica,sans-Serif" font-size="10.00">fiftyone.pipeline.core.data.</text>
<text text-anchor="middle" x="280.5" y="-119.5" font-family="Helvetica,sans-Serif" font-size="10.00">ElementData</text>
</a>
</g>
</g>
<!-- Node17&#45;&gt;Node15 -->
<g id="edge7" class="edge">
<title>Node17&#45;&gt;Node15</title>
<path fill="none" stroke="orange" stroke-dasharray="5,2" d="M361.11,-110.29C392.56,-103.49 428.21,-95.78 457.94,-89.35"/>
<polygon fill="orange" stroke="orange" points="360.1,-106.93 351.06,-112.46 361.58,-113.77 360.1,-106.93"/>
<text text-anchor="middle" x="397.5" y="-110.5" font-family="Helvetica,sans-Serif" font-size="10.00"> TData</text>
</g>
<!-- Node20 -->
<g id="node11" class="node">
<title>Node20</title>
<g id="a_node11"><a xlink:href="interfacefiftyone_1_1pipeline_1_1engines_1_1data_1_1_aspect_data.html" target="_top" xlink:title="Represents a specialized ElementData instance that is generated by an AspectEngine.">
<polygon fill="none" stroke="black" points="441,-120.5 441,-150.5 605,-150.5 605,-120.5 441,-120.5"/>
<text text-anchor="start" x="449" y="-138.5" font-family="Helvetica,sans-Serif" font-size="10.00">fiftyone.pipeline.engines.data.</text>
<text text-anchor="middle" x="523" y="-127.5" font-family="Helvetica,sans-Serif" font-size="10.00">AspectData</text>
</a>
</g>
</g>
<!-- Node17&#45;&gt;Node20 -->
<g id="edge11" class="edge">
<title>Node17&#45;&gt;Node20</title>
<path fill="none" stroke="midnightblue" d="M364.36,-130.26C389.03,-131.08 416.03,-131.98 440.61,-132.79"/>
<polygon fill="midnightblue" stroke="midnightblue" points="364.42,-126.76 354.31,-129.92 364.19,-133.75 364.42,-126.76"/>
</g>
<!-- Node18 -->
<g id="node9" class="node">
<title>Node18</title>
<g id="a_node9"><a xlink:href="interfacefiftyone_1_1pipeline_1_1core_1_1data_1_1_data.html" target="_top" xlink:title="Represents a collection of property values.">
<polygon fill="none" stroke="black" points="0,-118 0,-137 170,-137 170,-118 0,-118"/>
<text text-anchor="middle" x="85" y="-125" font-family="Helvetica,sans-Serif" font-size="10.00">fiftyone.pipeline.core.data.Data</text>
</a>
</g>
</g>
<!-- Node18&#45;&gt;Node17 -->
<g id="edge8" class="edge">
<title>Node18&#45;&gt;Node17</title>
<path fill="none" stroke="midnightblue" d="M180.11,-127.5C189.07,-127.5 198.06,-127.5 206.77,-127.5"/>
<polygon fill="midnightblue" stroke="midnightblue" points="180.03,-124 170.03,-127.5 180.03,-131 180.03,-124"/>
</g>
<!-- Node19 -->
<g id="node10" class="node">
<title>Node19</title>
<g id="a_node10"><a xlink:href="interfacefiftyone_1_1pipeline_1_1core_1_1data_1_1_element_property_meta_data.html" target="_top" xlink:title="Defines details of a property that can be returned by a FlowElement.">
<polygon fill="none" stroke="black" points="207,-9.5 207,-39.5 354,-39.5 354,-9.5 207,-9.5"/>
<text text-anchor="start" x="215" y="-27.5" font-family="Helvetica,sans-Serif" font-size="10.00">fiftyone.pipeline.core.data.</text>
<text text-anchor="middle" x="280.5" y="-16.5" font-family="Helvetica,sans-Serif" font-size="10.00">ElementPropertyMetaData</text>
</a>
</g>
</g>
<!-- Node19&#45;&gt;Node15 -->
<g id="edge9" class="edge">
<title>Node19&#45;&gt;Node15</title>
<path fill="none" stroke="orange" stroke-dasharray="5,2" d="M362.3,-41.64C393.41,-48.23 428.47,-55.67 457.8,-61.89"/>
<polygon fill="orange" stroke="orange" points="362.87,-38.18 352.36,-39.53 361.41,-45.02 362.87,-38.18"/>
<text text-anchor="middle" x="397.5" y="-56.5" font-family="Helvetica,sans-Serif" font-size="10.00"> TProperty</text>
</g>
<!-- Node21 -->
<g id="node12" class="node">
<title>Node21</title>
<g id="a_node12"><a xlink:href="interfacefiftyone_1_1pipeline_1_1engines_1_1data_1_1_aspect_property_meta_data.html" target="_top" xlink:title="Holds details about a property that can be returned by an AspectEngine.">
<polygon fill="none" stroke="black" points="441,-0.5 441,-30.5 605,-30.5 605,-0.5 441,-0.5"/>
<text text-anchor="start" x="449" y="-18.5" font-family="Helvetica,sans-Serif" font-size="10.00">fiftyone.pipeline.engines.data.</text>
<text text-anchor="middle" x="523" y="-7.5" font-family="Helvetica,sans-Serif" font-size="10.00">AspectPropertyMetaData</text>
</a>
</g>
</g>
<!-- Node19&#45;&gt;Node21 -->
<g id="edge13" class="edge">
<title>Node19&#45;&gt;Node21</title>
<path fill="none" stroke="midnightblue" d="M364.36,-21.4C389.03,-20.48 416.03,-19.47 440.61,-18.55"/>
<polygon fill="midnightblue" stroke="midnightblue" points="364.17,-17.9 354.31,-21.78 364.43,-24.9 364.17,-17.9"/>
</g>
<!-- Node20&#45;&gt;Node14 -->
<g id="edge10" class="edge">
<title>Node20&#45;&gt;Node14</title>
<path fill="none" stroke="orange" stroke-dasharray="5,2" d="M606.48,-118.41C640.14,-111.43 679.35,-103.3 714.53,-96.01"/>
<polygon fill="orange" stroke="orange" points="605.76,-114.98 596.68,-120.44 607.18,-121.83 605.76,-114.98"/>
<text text-anchor="middle" x="648.5" y="-116.5" font-family="Helvetica,sans-Serif" font-size="10.00"> TData</text>
</g>
<!-- Node21&#45;&gt;Node14 -->
<g id="edge12" class="edge">
<title>Node21&#45;&gt;Node14</title>
<path fill="none" stroke="orange" stroke-dasharray="5,2" d="M606.48,-32.59C640.14,-39.57 679.35,-47.7 714.53,-54.99"/>
<polygon fill="orange" stroke="orange" points="607.18,-29.17 596.68,-30.56 605.76,-36.02 607.18,-29.17"/>
<text text-anchor="middle" x="648.5" y="-48.5" font-family="Helvetica,sans-Serif" font-size="10.00"> TProperty</text>
</g>
</g>
</svg>
