<?xml version="1.0" encoding="UTF-8" standalone="no"?>
<!DOCTYPE svg PUBLIC "-//W3C//DTD SVG 1.1//EN"
 "http://www.w3.org/Graphics/SVG/1.1/DTD/svg11.dtd">
<!-- Generated by graphviz version 2.43.0 (0)
 -->
<!-- Title: fiftyone.pipeline.engines.services.DataUpdateServiceDefault Pages: 1 -->
<svg width="258pt" height="173pt"
 viewBox="0.00 0.00 257.50 173.00" xmlns="http://www.w3.org/2000/svg" xmlns:xlink="http://www.w3.org/1999/xlink">
<g id="graph0" class="graph" transform="scale(1 1) rotate(0) translate(4 169)">
<title>fiftyone.pipeline.engines.services.DataUpdateServiceDefault</title>
<!-- Node0 -->
<g id="node1" class="node">
<title>Node0</title>
<g id="a_node1"><a xlink:title="Default singleton implementation of the DataUpdateService.">
<polygon fill="#bfbfbf" stroke="black" points="8,-0.5 8,-30.5 191,-30.5 191,-0.5 8,-0.5"/>
<text text-anchor="start" x="16" y="-18.5" font-family="Helvetica,sans-Serif" font-size="10.00">fiftyone.pipeline.engines.services.</text>
<text text-anchor="middle" x="99.5" y="-7.5" font-family="Helvetica,sans-Serif" font-size="10.00">DataUpdateServiceDefault</text>
</a>
</g>
</g>
<!-- Node1 -->
<g id="node2" class="node">
<title>Node1</title>
<g id="a_node2"><a xlink:href="interfacefiftyone_1_1pipeline_1_1engines_1_1services_1_1_data_update_service.html" target="_top" xlink:title="The data update service keeps AspectEngine’s data files up to date.">
<polygon fill="none" stroke="black" points="8,-67.5 8,-97.5 191,-97.5 191,-67.5 8,-67.5"/>
<text text-anchor="start" x="16" y="-85.5" font-family="Helvetica,sans-Serif" font-size="10.00">fiftyone.pipeline.engines.services.</text>
<text text-anchor="middle" x="99.5" y="-74.5" font-family="Helvetica,sans-Serif" font-size="10.00">DataUpdateService</text>
</a>
</g>
</g>
<!-- Node1&#45;&gt;Node0 -->
<g id="edge1" class="edge">
<title>Node1&#45;&gt;Node0</title>
<path fill="none" stroke="midnightblue" d="M99.5,-57.11C99.5,-48.15 99.5,-38.32 99.5,-30.58"/>
<polygon fill="midnightblue" stroke="midnightblue" points="96,-57.4 99.5,-67.4 103,-57.4 96,-57.4"/>
</g>
<!-- Node2 -->
<g id="node3" class="node">
<title>Node2</title>
<g id="a_node3"><a xlink:title=" ">
<polygon fill="none" stroke="#bfbfbf" points="0,-140 0,-159 65,-159 65,-140 0,-140"/>
<text text-anchor="middle" x="32.5" y="-147" font-family="Helvetica,sans-Serif" font-size="10.00">Closeable</text>
</a>
</g>
</g>
<!-- Node2&#45;&gt;Node1 -->
<g id="edge2" class="edge">
<title>Node2&#45;&gt;Node1</title>
<path fill="none" stroke="midnightblue" d="M48.87,-132.62C59.91,-121.91 74.35,-107.9 84.98,-97.59"/>
<polygon fill="midnightblue" stroke="midnightblue" points="46.28,-130.26 41.54,-139.73 51.15,-135.28 46.28,-130.26"/>
</g>
<!-- Node3 -->
<g id="node4" class="node">
<title>Node3</title>
<g id="a_node4"><a xlink:href="interfacefiftyone_1_1pipeline_1_1core_1_1services_1_1_pipeline_service.html" target="_top" xlink:title="Service interface used by PipelineBuilder to hand out services to elements which required them.">
<polygon fill="none" stroke="black" points="83.5,-134.5 83.5,-164.5 249.5,-164.5 249.5,-134.5 83.5,-134.5"/>
<text text-anchor="start" x="91.5" y="-152.5" font-family="Helvetica,sans-Serif" font-size="10.00">fiftyone.pipeline.core.services.</text>
<text text-anchor="middle" x="166.5" y="-141.5" font-family="Helvetica,sans-Serif" font-size="10.00">PipelineService</text>
</a>
</g>
</g>
<!-- Node3&#45;&gt;Node1 -->
<g id="edge3" class="edge">
<title>Node3&#45;&gt;Node1</title>
<path fill="none" stroke="midnightblue" d="M144.66,-127.31C134.61,-117.56 122.96,-106.26 114.01,-97.58"/>
<polygon fill="midnightblue" stroke="midnightblue" points="142.35,-129.94 151.96,-134.4 147.22,-124.92 142.35,-129.94"/>
</g>
</g>
</svg>
