<?xml version="1.0" encoding="UTF-8" standalone="no"?>
<!DOCTYPE svg PUBLIC "-//W3C//DTD SVG 1.1//EN"
 "http://www.w3.org/Graphics/SVG/1.1/DTD/svg11.dtd">
<!-- Generated by graphviz version 2.43.0 (0)
 -->
<!-- Title: fiftyone.pipeline.cloudrequestengine.flowelements.CloudRequestEngineDefault Pages: 1 -->
<svg width="2344pt" height="549pt"
 viewBox="0.00 0.00 2344.00 549.00" xmlns="http://www.w3.org/2000/svg" xmlns:xlink="http://www.w3.org/1999/xlink">
<g id="graph0" class="graph" transform="scale(1 1) rotate(0) translate(4 545)">
<title>fiftyone.pipeline.cloudrequestengine.flowelements.CloudRequestEngineDefault</title>
<!-- Node16 -->
<g id="node1" class="node">
<title>Node16</title>
<g id="a_node1"><a xlink:title="Engine that makes requests to the 51Degrees cloud service.">
<polygon fill="#bfbfbf" stroke="black" points="2070,-407.5 2070,-437.5 2336,-437.5 2336,-407.5 2070,-407.5"/>
<text text-anchor="start" x="2078" y="-425.5" font-family="Helvetica,sans-Serif" font-size="10.00">fiftyone.pipeline.cloudrequestengine.flowelements.</text>
<text text-anchor="middle" x="2203" y="-414.5" font-family="Helvetica,sans-Serif" font-size="10.00">CloudRequestEngineDefault</text>
</a>
</g>
</g>
<!-- Node17 -->
<g id="node2" class="node">
<title>Node17</title>
<g id="a_node2"><a xlink:href="classfiftyone_1_1pipeline_1_1engines_1_1flowelements_1_1_aspect_engine_base.html" target="_top" xlink:title="Base class for AspectEngines to extend.">
<polygon fill="none" stroke="black" points="1842,-295.5 1842,-347.5 2033,-347.5 2033,-295.5 1842,-295.5"/>
<text text-anchor="start" x="1850" y="-335.5" font-family="Helvetica,sans-Serif" font-size="10.00">fiftyone::pipeline</text>
<text text-anchor="start" x="1850" y="-324.5" font-family="Helvetica,sans-Serif" font-size="10.00">::engines::flowelements</text>
<text text-anchor="start" x="1850" y="-313.5" font-family="Helvetica,sans-Serif" font-size="10.00">::AspectEngineBase&lt; CloudRequest</text>
<text text-anchor="middle" x="1937.5" y="-302.5" font-family="Helvetica,sans-Serif" font-size="10.00">Data, AspectPropertyMetaData &gt;</text>
</a>
</g>
</g>
<!-- Node17&#45;&gt;Node16 -->
<g id="edge1" class="edge">
<title>Node17&#45;&gt;Node16</title>
<path fill="none" stroke="midnightblue" d="M2015.83,-351.14C2064.01,-369.61 2123.96,-392.59 2162.6,-407.4"/>
<polygon fill="midnightblue" stroke="midnightblue" points="2016.95,-347.82 2006.36,-347.51 2014.44,-354.36 2016.95,-347.82"/>
</g>
<!-- Node18 -->
<g id="node3" class="node">
<title>Node18</title>
<g id="a_node3"><a xlink:href="classfiftyone_1_1pipeline_1_1core_1_1flowelements_1_1_flow_element_base.html" target="_top" xlink:title="Provides a base class from which authors may create new FlowElements.">
<polygon fill="none" stroke="black" points="1358.5,-148.5 1358.5,-200.5 1512.5,-200.5 1512.5,-148.5 1358.5,-148.5"/>
<text text-anchor="start" x="1366.5" y="-188.5" font-family="Helvetica,sans-Serif" font-size="10.00">fiftyone::pipeline</text>
<text text-anchor="start" x="1366.5" y="-177.5" font-family="Helvetica,sans-Serif" font-size="10.00">::core::flowelements</text>
<text text-anchor="start" x="1366.5" y="-166.5" font-family="Helvetica,sans-Serif" font-size="10.00">::FlowElementBase&lt; TData,</text>
<text text-anchor="middle" x="1435.5" y="-155.5" font-family="Helvetica,sans-Serif" font-size="10.00"> TProperty &gt;</text>
</a>
</g>
</g>
<!-- Node18&#45;&gt;Node17 -->
<g id="edge2" class="edge">
<title>Node18&#45;&gt;Node17</title>
<path fill="none" stroke="midnightblue" d="M1522.71,-185.68C1602.66,-197.79 1723.99,-220.63 1824,-258.5 1849.33,-268.09 1875.85,-282.69 1896.77,-295.42"/>
<polygon fill="midnightblue" stroke="midnightblue" points="1523.09,-182.2 1512.69,-184.19 1522.06,-189.12 1523.09,-182.2"/>
</g>
<!-- Node19 -->
<g id="node4" class="node">
<title>Node19</title>
<g id="a_node4"><a xlink:href="interfacefiftyone_1_1pipeline_1_1core_1_1flowelements_1_1_flow_element.html" target="_top" xlink:title=" ">
<polygon fill="none" stroke="black" points="968,-137.5 968,-167.5 1159,-167.5 1159,-137.5 968,-137.5"/>
<text text-anchor="start" x="976" y="-155.5" font-family="Helvetica,sans-Serif" font-size="10.00">fiftyone.pipeline.core.flowelements.</text>
<text text-anchor="middle" x="1063.5" y="-144.5" font-family="Helvetica,sans-Serif" font-size="10.00">FlowElement&lt; TData, TProperty &gt;</text>
</a>
</g>
</g>
<!-- Node19&#45;&gt;Node18 -->
<g id="edge3" class="edge">
<title>Node19&#45;&gt;Node18</title>
<path fill="none" stroke="midnightblue" d="M1169.59,-158.75C1229.71,-162.32 1303.76,-166.73 1358.28,-169.97"/>
<polygon fill="midnightblue" stroke="midnightblue" points="1169.49,-155.24 1159.3,-158.14 1169.08,-162.22 1169.49,-155.24"/>
</g>
<!-- Node20 -->
<g id="node5" class="node">
<title>Node20</title>
<g id="a_node5"><a xlink:href="interfacefiftyone_1_1pipeline_1_1core_1_1flowelements_1_1_flow_element.html" target="_top" xlink:title="A component that processes a FlowData (by examining its evidence, or by examining data processed by o...">
<polygon fill="none" stroke="black" points="543,-138 543,-179 796,-179 796,-138 543,-138"/>
<text text-anchor="start" x="551" y="-167" font-family="Helvetica,sans-Serif" font-size="10.00">fiftyone.pipeline.core.flowelements.</text>
<text text-anchor="start" x="551" y="-156" font-family="Helvetica,sans-Serif" font-size="10.00">FlowElement&lt; TData extends ElementData,</text>
<text text-anchor="middle" x="669.5" y="-145" font-family="Helvetica,sans-Serif" font-size="10.00"> TProperty extends ElementPropertyMetaData &gt;</text>
</a>
</g>
</g>
<!-- Node20&#45;&gt;Node19 -->
<g id="edge4" class="edge">
<title>Node20&#45;&gt;Node19</title>
<path fill="none" stroke="orange" stroke-dasharray="5,2" d="M806.35,-156.42C859.55,-155.61 919.29,-154.69 967.69,-153.95"/>
<polygon fill="orange" stroke="orange" points="806.09,-152.92 796.15,-156.58 806.2,-159.92 806.09,-152.92"/>
<text text-anchor="middle" x="868.5" y="-159.5" font-family="Helvetica,sans-Serif" font-size="10.00"> &lt; TData, TProperty &gt;</text>
</g>
<!-- Node21 -->
<g id="node6" class="node">
<title>Node21</title>
<g id="a_node6"><a xlink:title=" ">
<polygon fill="none" stroke="#bfbfbf" points="339,-213 339,-232 426,-232 426,-213 339,-213"/>
<text text-anchor="middle" x="382.5" y="-220" font-family="Helvetica,sans-Serif" font-size="10.00">AutoCloseable</text>
</a>
</g>
</g>
<!-- Node21&#45;&gt;Node20 -->
<g id="edge5" class="edge">
<title>Node21&#45;&gt;Node20</title>
<path fill="none" stroke="midnightblue" d="M404.87,-207.18C422.5,-195.44 448.65,-180.02 474,-172.5 495.83,-166.03 519.61,-161.99 542.81,-159.55"/>
<polygon fill="midnightblue" stroke="midnightblue" points="402.76,-204.39 396.48,-212.92 406.71,-210.17 402.76,-204.39"/>
</g>
<!-- Node30 -->
<g id="node15" class="node">
<title>Node30</title>
<g id="a_node15"><a xlink:href="interfacefiftyone_1_1pipeline_1_1core_1_1flowelements_1_1_flow_element.html" target="_top" xlink:title="A component that processes a FlowData (by examining its evidence, or by examining data processed by o...">
<polygon fill="none" stroke="black" points="604.5,-312.5 604.5,-364.5 734.5,-364.5 734.5,-312.5 604.5,-312.5"/>
<text text-anchor="start" x="612.5" y="-352.5" font-family="Helvetica,sans-Serif" font-size="10.00">fiftyone::pipeline</text>
<text text-anchor="start" x="612.5" y="-341.5" font-family="Helvetica,sans-Serif" font-size="10.00">::core::flowelements</text>
<text text-anchor="start" x="612.5" y="-330.5" font-family="Helvetica,sans-Serif" font-size="10.00">::FlowElement&lt; TData,</text>
<text text-anchor="middle" x="669.5" y="-319.5" font-family="Helvetica,sans-Serif" font-size="10.00"> TProperty &gt;</text>
</a>
</g>
</g>
<!-- Node21&#45;&gt;Node30 -->
<g id="edge17" class="edge">
<title>Node21&#45;&gt;Node30</title>
<path fill="none" stroke="midnightblue" d="M409.09,-237.2C440.04,-254.54 494.09,-283.41 543,-302.5 562.53,-310.12 584.33,-316.94 604.22,-322.53"/>
<polygon fill="midnightblue" stroke="midnightblue" points="410.68,-234.08 400.25,-232.21 407.24,-240.18 410.68,-234.08"/>
</g>
<!-- Node22 -->
<g id="node7" class="node">
<title>Node22</title>
<g id="a_node7"><a xlink:href="interfacefiftyone_1_1pipeline_1_1core_1_1data_1_1_element_data.html" target="_top" xlink:title="Represents property values that have be determined by a specific FlowElement based on the supplied ev...">
<polygon fill="none" stroke="black" points="309,-275.5 309,-305.5 456,-305.5 456,-275.5 309,-275.5"/>
<text text-anchor="start" x="317" y="-293.5" font-family="Helvetica,sans-Serif" font-size="10.00">fiftyone.pipeline.core.data.</text>
<text text-anchor="middle" x="382.5" y="-282.5" font-family="Helvetica,sans-Serif" font-size="10.00">ElementData</text>
</a>
</g>
</g>
<!-- Node22&#45;&gt;Node18 -->
<g id="edge12" class="edge">
<title>Node22&#45;&gt;Node18</title>
<path fill="none" stroke="orange" stroke-dasharray="5,2" d="M448.01,-272.92C476.86,-265.74 511.42,-258.06 543,-253.5 826.33,-212.56 900.56,-237.41 1186,-215.5 1242.53,-211.16 1257.07,-212.77 1313,-203.5 1327.76,-201.05 1343.39,-197.82 1358.35,-194.4"/>
<polygon fill="orange" stroke="orange" points="446.9,-269.59 438.06,-275.43 448.61,-276.38 446.9,-269.59"/>
<text text-anchor="middle" x="868.5" y="-231.5" font-family="Helvetica,sans-Serif" font-size="10.00"> TData</text>
</g>
<!-- Node22&#45;&gt;Node20 -->
<g id="edge6" class="edge">
<title>Node22&#45;&gt;Node20</title>
<path fill="none" stroke="orange" stroke-dasharray="5,2" d="M415.59,-269.82C428.36,-261.32 443.07,-251.22 456,-241.5 464.32,-235.24 464.94,-231.63 474,-226.5 496.33,-213.85 554.74,-194.01 601.77,-179.02"/>
<polygon fill="orange" stroke="orange" points="413.52,-266.99 407.1,-275.41 417.37,-272.83 413.52,-266.99"/>
<text text-anchor="middle" x="499.5" y="-229.5" font-family="Helvetica,sans-Serif" font-size="10.00"> TData</text>
</g>
<!-- Node22&#45;&gt;Node30 -->
<g id="edge18" class="edge">
<title>Node22&#45;&gt;Node30</title>
<path fill="none" stroke="orange" stroke-dasharray="5,2" d="M466.25,-304.44C510.2,-311.84 563.42,-320.8 604.23,-327.68"/>
<polygon fill="orange" stroke="orange" points="466.6,-300.95 456.15,-302.74 465.43,-307.85 466.6,-300.95"/>
<text text-anchor="middle" x="499.5" y="-316.5" font-family="Helvetica,sans-Serif" font-size="10.00"> TData</text>
</g>
<!-- Node31 -->
<g id="node16" class="node">
<title>Node31</title>
<g id="a_node16"><a xlink:href="interfacefiftyone_1_1pipeline_1_1engines_1_1data_1_1_aspect_data.html" target="_top" xlink:title="Represents a specialized ElementData instance that is generated by an AspectEngine.">
<polygon fill="none" stroke="black" points="587.5,-412.5 587.5,-442.5 751.5,-442.5 751.5,-412.5 587.5,-412.5"/>
<text text-anchor="start" x="595.5" y="-430.5" font-family="Helvetica,sans-Serif" font-size="10.00">fiftyone.pipeline.engines.data.</text>
<text text-anchor="middle" x="669.5" y="-419.5" font-family="Helvetica,sans-Serif" font-size="10.00">AspectData</text>
</a>
</g>
</g>
<!-- Node22&#45;&gt;Node31 -->
<g id="edge21" class="edge">
<title>Node22&#45;&gt;Node31</title>
<path fill="none" stroke="midnightblue" d="M419.86,-310.39C451.94,-327.71 500.13,-353.16 543,-373.5 572.47,-387.48 606.48,-402.02 631.66,-412.49"/>
<polygon fill="midnightblue" stroke="midnightblue" points="421.31,-307.2 410.85,-305.52 417.98,-313.36 421.31,-307.2"/>
</g>
<!-- Node23 -->
<g id="node8" class="node">
<title>Node23</title>
<g id="a_node8"><a xlink:href="interfacefiftyone_1_1pipeline_1_1core_1_1data_1_1_data.html" target="_top" xlink:title="Represents a collection of property values.">
<polygon fill="none" stroke="black" points="102,-281 102,-300 272,-300 272,-281 102,-281"/>
<text text-anchor="middle" x="187" y="-288" font-family="Helvetica,sans-Serif" font-size="10.00">fiftyone.pipeline.core.data.Data</text>
</a>
</g>
</g>
<!-- Node23&#45;&gt;Node22 -->
<g id="edge7" class="edge">
<title>Node23&#45;&gt;Node22</title>
<path fill="none" stroke="midnightblue" d="M282.11,-290.5C291.07,-290.5 300.06,-290.5 308.77,-290.5"/>
<polygon fill="midnightblue" stroke="midnightblue" points="282.03,-287 272.03,-290.5 282.03,-294 282.03,-287"/>
</g>
<!-- Node24 -->
<g id="node9" class="node">
<title>Node24</title>
<g id="a_node9"><a xlink:href="interfacefiftyone_1_1pipeline_1_1core_1_1data_1_1_element_property_meta_data.html" target="_top" xlink:title="Defines details of a property that can be returned by a FlowElement.">
<polygon fill="none" stroke="black" points="309,-105.5 309,-135.5 456,-135.5 456,-105.5 309,-105.5"/>
<text text-anchor="start" x="317" y="-123.5" font-family="Helvetica,sans-Serif" font-size="10.00">fiftyone.pipeline.core.data.</text>
<text text-anchor="middle" x="382.5" y="-112.5" font-family="Helvetica,sans-Serif" font-size="10.00">ElementPropertyMetaData</text>
</a>
</g>
</g>
<!-- Node24&#45;&gt;Node18 -->
<g id="edge13" class="edge">
<title>Node24&#45;&gt;Node18</title>
<path fill="none" stroke="orange" stroke-dasharray="5,2" d="M437.86,-102.47C468.38,-93.29 507.38,-83.11 543,-78.5 826.41,-41.81 904.19,-31.07 1186,-78.5 1258.06,-90.63 1335.83,-124.35 1384.81,-148.4"/>
<polygon fill="orange" stroke="orange" points="436.8,-99.13 428.26,-105.4 438.85,-105.82 436.8,-99.13"/>
<text text-anchor="middle" x="868.5" y="-52.5" font-family="Helvetica,sans-Serif" font-size="10.00"> TProperty</text>
</g>
<!-- Node24&#45;&gt;Node20 -->
<g id="edge8" class="edge">
<title>Node24&#45;&gt;Node20</title>
<path fill="none" stroke="orange" stroke-dasharray="5,2" d="M466.22,-109.08C468.84,-108.86 471.44,-108.67 474,-108.5 496.62,-107.01 504.18,-99.54 525,-108.5 535.69,-113.1 532.95,-121.65 543,-127.5 549.79,-131.45 557.07,-134.9 564.57,-137.92"/>
<polygon fill="orange" stroke="orange" points="465.66,-105.62 456.03,-110.03 466.31,-112.59 465.66,-105.62"/>
<text text-anchor="middle" x="499.5" y="-111.5" font-family="Helvetica,sans-Serif" font-size="10.00"> TProperty</text>
</g>
<!-- Node24&#45;&gt;Node30 -->
<g id="edge19" class="edge">
<title>Node24&#45;&gt;Node30</title>
<path fill="none" stroke="orange" stroke-dasharray="5,2" d="M418.47,-140.55C435.08,-149.79 455.34,-160.64 474,-169.5 496.14,-180.02 509.78,-171.28 525,-190.5 556.3,-230.02 509.55,-264.78 543,-302.5 558.49,-319.97 581.83,-329.21 604.2,-334.01"/>
<polygon fill="orange" stroke="orange" points="420.09,-137.45 409.65,-135.61 416.67,-143.55 420.09,-137.45"/>
<text text-anchor="middle" x="499.5" y="-193.5" font-family="Helvetica,sans-Serif" font-size="10.00"> TProperty</text>
</g>
<!-- Node32 -->
<g id="node17" class="node">
<title>Node32</title>
<g id="a_node17"><a xlink:href="interfacefiftyone_1_1pipeline_1_1engines_1_1data_1_1_aspect_property_meta_data.html" target="_top" xlink:title="Holds details about a property that can be returned by an AspectEngine.">
<polygon fill="none" stroke="black" points="587.5,-263.5 587.5,-293.5 751.5,-293.5 751.5,-263.5 587.5,-263.5"/>
<text text-anchor="start" x="595.5" y="-281.5" font-family="Helvetica,sans-Serif" font-size="10.00">fiftyone.pipeline.engines.data.</text>
<text text-anchor="middle" x="669.5" y="-270.5" font-family="Helvetica,sans-Serif" font-size="10.00">AspectPropertyMetaData</text>
</a>
</g>
</g>
<!-- Node24&#45;&gt;Node32 -->
<g id="edge23" class="edge">
<title>Node24&#45;&gt;Node32</title>
<path fill="none" stroke="midnightblue" d="M457.06,-138.6C479.9,-146.11 504.45,-156.24 525,-169.5 534.77,-175.81 534.23,-180.85 543,-188.5 576.34,-217.58 618.84,-246.56 644.84,-263.49"/>
<polygon fill="midnightblue" stroke="midnightblue" points="457.98,-135.22 447.39,-135.54 455.87,-141.9 457.98,-135.22"/>
</g>
<!-- Node25 -->
<g id="node10" class="node">
<title>Node25</title>
<g id="a_node10"><a xlink:href="interfacefiftyone_1_1pipeline_1_1core_1_1typed_1_1_typed_key.html" target="_top" xlink:title=" ">
<polygon fill="none" stroke="black" points="987,-88.5 987,-118.5 1140,-118.5 1140,-88.5 987,-88.5"/>
<text text-anchor="start" x="995" y="-106.5" font-family="Helvetica,sans-Serif" font-size="10.00">fiftyone.pipeline.core.typed.</text>
<text text-anchor="middle" x="1063.5" y="-95.5" font-family="Helvetica,sans-Serif" font-size="10.00">TypedKey&lt; TData &gt;</text>
</a>
</g>
</g>
<!-- Node25&#45;&gt;Node18 -->
<g id="edge9" class="edge">
<title>Node25&#45;&gt;Node18</title>
<path fill="none" stroke="#9a32cd" stroke-dasharray="5,2" d="M1150.05,-117.11C1198.07,-125.04 1259.01,-135.62 1313,-146.5 1327.75,-149.47 1343.44,-152.9 1358.48,-156.3"/>
<polygon fill="#9a32cd" stroke="#9a32cd" points="1150.44,-113.63 1140.01,-115.45 1149.31,-120.53 1150.44,-113.63"/>
<text text-anchor="middle" x="1258.5" y="-149.5" font-family="Helvetica,sans-Serif" font-size="10.00"> typedKey</text>
</g>
<!-- Node26 -->
<g id="node11" class="node">
<title>Node26</title>
<g id="a_node11"><a xlink:href="interfacefiftyone_1_1pipeline_1_1core_1_1typed_1_1_typed_key.html" target="_top" xlink:title="Holds a name and a type to allow for type safe operations on named values.">
<polygon fill="none" stroke="black" points="593,-88.5 593,-118.5 746,-118.5 746,-88.5 593,-88.5"/>
<text text-anchor="start" x="601" y="-106.5" font-family="Helvetica,sans-Serif" font-size="10.00">fiftyone.pipeline.core.typed.</text>
<text text-anchor="middle" x="669.5" y="-95.5" font-family="Helvetica,sans-Serif" font-size="10.00">TypedKey&lt; T &gt;</text>
</a>
</g>
</g>
<!-- Node26&#45;&gt;Node25 -->
<g id="edge10" class="edge">
<title>Node26&#45;&gt;Node25</title>
<path fill="none" stroke="orange" stroke-dasharray="5,2" d="M756.46,-103.5C825.28,-103.5 920.87,-103.5 986.82,-103.5"/>
<polygon fill="orange" stroke="orange" points="756.08,-100 746.08,-103.5 756.08,-107 756.08,-100"/>
<text text-anchor="middle" x="868.5" y="-106.5" font-family="Helvetica,sans-Serif" font-size="10.00"> &lt; TData &gt;</text>
</g>
<!-- Node27 -->
<g id="node12" class="node">
<title>Node27</title>
<g id="a_node12"><a xlink:title=" ">
<polygon fill="none" stroke="#bfbfbf" points="1038.5,-187 1038.5,-206 1088.5,-206 1088.5,-187 1038.5,-187"/>
<text text-anchor="middle" x="1063.5" y="-194" font-family="Helvetica,sans-Serif" font-size="10.00">Logger</text>
</a>
</g>
</g>
<!-- Node27&#45;&gt;Node18 -->
<g id="edge11" class="edge">
<title>Node27&#45;&gt;Node18</title>
<path fill="none" stroke="#9a32cd" stroke-dasharray="5,2" d="M1099.02,-194.45C1157.87,-190.95 1278.97,-183.75 1358.42,-179.02"/>
<polygon fill="#9a32cd" stroke="#9a32cd" points="1098.55,-190.97 1088.78,-195.06 1098.97,-197.96 1098.55,-190.97"/>
<text text-anchor="middle" x="1258.5" y="-191.5" font-family="Helvetica,sans-Serif" font-size="10.00"> logger</text>
</g>
<!-- Node28 -->
<g id="node13" class="node">
<title>Node28</title>
<g id="a_node13"><a xlink:href="interfacefiftyone_1_1pipeline_1_1engines_1_1flowelements_1_1_aspect_engine.html" target="_top" xlink:title=" ">
<polygon fill="none" stroke="black" points="1331,-306.5 1331,-336.5 1540,-336.5 1540,-306.5 1331,-306.5"/>
<text text-anchor="start" x="1339" y="-324.5" font-family="Helvetica,sans-Serif" font-size="10.00">fiftyone.pipeline.engines.flowelements.</text>
<text text-anchor="middle" x="1435.5" y="-313.5" font-family="Helvetica,sans-Serif" font-size="10.00">AspectEngine&lt; TData, TProperty &gt;</text>
</a>
</g>
</g>
<!-- Node28&#45;&gt;Node17 -->
<g id="edge14" class="edge">
<title>Node28&#45;&gt;Node17</title>
<path fill="none" stroke="midnightblue" d="M1550.14,-321.5C1638.28,-321.5 1758.99,-321.5 1841.91,-321.5"/>
<polygon fill="midnightblue" stroke="midnightblue" points="1550.1,-318 1540.1,-321.5 1550.1,-325 1550.1,-318"/>
</g>
<!-- Node29 -->
<g id="node14" class="node">
<title>Node29</title>
<g id="a_node14"><a xlink:href="interfacefiftyone_1_1pipeline_1_1engines_1_1flowelements_1_1_aspect_engine.html" target="_top" xlink:title="AspectEngines are a subset of FlowElements.">
<polygon fill="none" stroke="black" points="941,-301 941,-342 1186,-342 1186,-301 941,-301"/>
<text text-anchor="start" x="949" y="-330" font-family="Helvetica,sans-Serif" font-size="10.00">fiftyone.pipeline.engines.flowelements.</text>
<text text-anchor="start" x="949" y="-319" font-family="Helvetica,sans-Serif" font-size="10.00">AspectEngine&lt; TData extends AspectData,</text>
<text text-anchor="middle" x="1063.5" y="-308" font-family="Helvetica,sans-Serif" font-size="10.00"> TProperty extends AspectPropertyMetaData &gt;</text>
</a>
</g>
</g>
<!-- Node29&#45;&gt;Node28 -->
<g id="edge15" class="edge">
<title>Node29&#45;&gt;Node28</title>
<path fill="none" stroke="orange" stroke-dasharray="5,2" d="M1196.39,-321.5C1240.53,-321.5 1289.07,-321.5 1330.74,-321.5"/>
<polygon fill="orange" stroke="orange" points="1196.16,-318 1186.16,-321.5 1196.16,-325 1196.16,-318"/>
<text text-anchor="middle" x="1258.5" y="-324.5" font-family="Helvetica,sans-Serif" font-size="10.00"> &lt; TData, TProperty &gt;</text>
</g>
<!-- Node30&#45;&gt;Node29 -->
<g id="edge16" class="edge">
<title>Node30&#45;&gt;Node29</title>
<path fill="none" stroke="midnightblue" d="M744.85,-335.28C800.08,-332.88 876.63,-329.56 940.75,-326.78"/>
<polygon fill="midnightblue" stroke="midnightblue" points="744.63,-331.78 734.79,-335.71 744.93,-338.78 744.63,-331.78"/>
</g>
<!-- Node42 -->
<g id="node27" class="node">
<title>Node42</title>
<g id="a_node27"><a xlink:href="interfacefiftyone_1_1pipeline_1_1engines_1_1flowelements_1_1_aspect_engine.html" target="_top" xlink:title="AspectEngines are a subset of FlowElements.">
<polygon fill="none" stroke="black" points="966.5,-410.5 966.5,-462.5 1160.5,-462.5 1160.5,-410.5 966.5,-410.5"/>
<text text-anchor="start" x="974.5" y="-450.5" font-family="Helvetica,sans-Serif" font-size="10.00">fiftyone::pipeline</text>
<text text-anchor="start" x="974.5" y="-439.5" font-family="Helvetica,sans-Serif" font-size="10.00">::engines::flowelements</text>
<text text-anchor="start" x="974.5" y="-428.5" font-family="Helvetica,sans-Serif" font-size="10.00">::AspectEngine&lt; CloudRequestData,</text>
<text text-anchor="middle" x="1063.5" y="-417.5" font-family="Helvetica,sans-Serif" font-size="10.00"> AspectPropertyMetaData &gt;</text>
</a>
</g>
</g>
<!-- Node30&#45;&gt;Node42 -->
<g id="edge36" class="edge">
<title>Node30&#45;&gt;Node42</title>
<path fill="none" stroke="midnightblue" d="M729.19,-369.2C764.72,-387.55 804.88,-407.83 814,-410.5 863.02,-424.84 919.52,-431.49 966.25,-434.49"/>
<polygon fill="midnightblue" stroke="midnightblue" points="730.77,-366.08 720.29,-364.58 727.56,-372.29 730.77,-366.08"/>
</g>
<!-- Node31&#45;&gt;Node17 -->
<g id="edge32" class="edge">
<title>Node31&#45;&gt;Node17</title>
<path fill="none" stroke="orange" stroke-dasharray="5,2" d="M751.12,-444.51C804.68,-454.92 876.7,-467.22 941,-472.5 1334.43,-504.81 1447.11,-493.93 1824,-376.5 1847.04,-369.32 1871.25,-358.03 1891.28,-347.54"/>
<polygon fill="orange" stroke="orange" points="751.49,-441.02 741.01,-442.53 750.15,-447.89 751.49,-441.02"/>
<text text-anchor="middle" x="1258.5" y="-490.5" font-family="Helvetica,sans-Serif" font-size="10.00"> TData</text>
</g>
<!-- Node31&#45;&gt;Node29 -->
<g id="edge20" class="edge">
<title>Node31&#45;&gt;Node29</title>
<path fill="none" stroke="orange" stroke-dasharray="5,2" d="M714.93,-408.53C738.96,-398.24 769.14,-385.25 796,-373.5 804.02,-369.99 805.63,-368.06 814,-365.5 838.04,-358.15 890.46,-348.55 940.98,-340.19"/>
<polygon fill="orange" stroke="orange" points="713.53,-405.33 705.71,-412.48 716.28,-411.76 713.53,-405.33"/>
<text text-anchor="middle" x="868.5" y="-368.5" font-family="Helvetica,sans-Serif" font-size="10.00"> TData</text>
</g>
<!-- Node31&#45;&gt;Node42 -->
<g id="edge37" class="edge">
<title>Node31&#45;&gt;Node42</title>
<path fill="none" stroke="orange" stroke-dasharray="5,2" d="M761.79,-433.3C779.12,-434.2 797.11,-435 814,-435.5 864.24,-437 920.22,-437.34 966.3,-437.27"/>
<polygon fill="orange" stroke="orange" points="761.84,-429.8 751.67,-432.76 761.47,-436.79 761.84,-429.8"/>
<text text-anchor="middle" x="868.5" y="-439.5" font-family="Helvetica,sans-Serif" font-size="10.00"> TData</text>
</g>
<!-- Node32&#45;&gt;Node17 -->
<g id="edge33" class="edge">
<title>Node32&#45;&gt;Node17</title>
<path fill="none" stroke="orange" stroke-dasharray="5,2" d="M761.93,-279.12C920.42,-280.49 1256.4,-284.63 1540,-296.5 1643.2,-300.82 1761.34,-308.64 1841.62,-314.39"/>
<polygon fill="orange" stroke="orange" points="761.78,-275.62 751.75,-279.04 761.72,-282.62 761.78,-275.62"/>
<text text-anchor="middle" x="1258.5" y="-292.5" font-family="Helvetica,sans-Serif" font-size="10.00"> TProperty</text>
</g>
<!-- Node32&#45;&gt;Node29 -->
<g id="edge22" class="edge">
<title>Node32&#45;&gt;Node29</title>
<path fill="none" stroke="orange" stroke-dasharray="5,2" d="M761.84,-288.52C815.12,-294.36 883.01,-301.81 940.79,-308.15"/>
<polygon fill="orange" stroke="orange" points="762.04,-285.02 751.72,-287.41 761.28,-291.98 762.04,-285.02"/>
<text text-anchor="middle" x="868.5" y="-308.5" font-family="Helvetica,sans-Serif" font-size="10.00"> TProperty</text>
</g>
<!-- Node32&#45;&gt;Node42 -->
<g id="edge38" class="edge">
<title>Node32&#45;&gt;Node42</title>
<path fill="none" stroke="orange" stroke-dasharray="5,2" d="M761.49,-282.99C774.28,-287.1 786.33,-293.3 796,-302.5 820.52,-325.83 789.5,-353.15 814,-376.5 849.72,-410.53 874.98,-386.18 923,-397.5 939.4,-401.37 956.77,-405.88 973.48,-410.44"/>
<polygon fill="orange" stroke="orange" points="762.17,-279.55 751.6,-280.25 760.3,-286.3 762.17,-279.55"/>
<text text-anchor="middle" x="868.5" y="-400.5" font-family="Helvetica,sans-Serif" font-size="10.00"> TProperty</text>
</g>
<!-- Node33 -->
<g id="node18" class="node">
<title>Node33</title>
<g id="a_node18"><a xlink:href="interfacefiftyone_1_1pipeline_1_1engines_1_1caching_1_1_flow_cache.html" target="_top" xlink:title="Used to cache results from individual flow elements in the pipeline.">
<polygon fill="none" stroke="black" points="1345.5,-55.5 1345.5,-85.5 1525.5,-85.5 1525.5,-55.5 1345.5,-55.5"/>
<text text-anchor="start" x="1353.5" y="-73.5" font-family="Helvetica,sans-Serif" font-size="10.00">fiftyone.pipeline.engines.caching.</text>
<text text-anchor="middle" x="1435.5" y="-62.5" font-family="Helvetica,sans-Serif" font-size="10.00">FlowCache</text>
</a>
</g>
</g>
<!-- Node33&#45;&gt;Node17 -->
<g id="edge24" class="edge">
<title>Node33&#45;&gt;Node17</title>
<path fill="none" stroke="#9a32cd" stroke-dasharray="5,2" d="M1535.76,-80.42C1618.62,-92.59 1736.84,-119.33 1824,-177.5 1869.52,-207.88 1904.77,-262.7 1922.93,-295.23"/>
<polygon fill="#9a32cd" stroke="#9a32cd" points="1536.23,-76.95 1525.84,-79 1535.24,-83.88 1536.23,-76.95"/>
<text text-anchor="middle" x="1691" y="-180.5" font-family="Helvetica,sans-Serif" font-size="10.00"> cache</text>
</g>
<!-- Node34 -->
<g id="node19" class="node">
<title>Node34</title>
<g id="a_node19"><a xlink:href="interfacefiftyone_1_1pipeline_1_1engines_1_1caching_1_1_data_keyed_cache.html" target="_top" xlink:title=" ">
<polygon fill="none" stroke="black" points="970.5,-0.5 970.5,-30.5 1156.5,-30.5 1156.5,-0.5 970.5,-0.5"/>
<text text-anchor="start" x="978.5" y="-18.5" font-family="Helvetica,sans-Serif" font-size="10.00">fiftyone.pipeline.engines.caching.</text>
<text text-anchor="middle" x="1063.5" y="-7.5" font-family="Helvetica,sans-Serif" font-size="10.00">DataKeyedCache&lt; ElementData &gt;</text>
</a>
</g>
</g>
<!-- Node34&#45;&gt;Node33 -->
<g id="edge25" class="edge">
<title>Node34&#45;&gt;Node33</title>
<path fill="none" stroke="midnightblue" d="M1166.58,-25.9C1211.59,-30.98 1265.05,-37.69 1313,-45.5 1330.43,-48.34 1349.16,-51.93 1366.57,-55.49"/>
<polygon fill="midnightblue" stroke="midnightblue" points="1166.84,-22.4 1156.51,-24.77 1166.06,-29.36 1166.84,-22.4"/>
</g>
<!-- Node35 -->
<g id="node20" class="node">
<title>Node35</title>
<g id="a_node20"><a xlink:href="interfacefiftyone_1_1pipeline_1_1engines_1_1caching_1_1_data_keyed_cache.html" target="_top" xlink:title="Represents a put cache where the key is a FlowData instance.">
<polygon fill="none" stroke="black" points="579.5,-0.5 579.5,-30.5 759.5,-30.5 759.5,-0.5 579.5,-0.5"/>
<text text-anchor="start" x="587.5" y="-18.5" font-family="Helvetica,sans-Serif" font-size="10.00">fiftyone.pipeline.engines.caching.</text>
<text text-anchor="middle" x="669.5" y="-7.5" font-family="Helvetica,sans-Serif" font-size="10.00">DataKeyedCache&lt; V &gt;</text>
</a>
</g>
</g>
<!-- Node35&#45;&gt;Node34 -->
<g id="edge26" class="edge">
<title>Node35&#45;&gt;Node34</title>
<path fill="none" stroke="orange" stroke-dasharray="5,2" d="M770.07,-15.5C831.67,-15.5 910.21,-15.5 970.38,-15.5"/>
<polygon fill="orange" stroke="orange" points="769.94,-12 759.94,-15.5 769.94,-19 769.94,-12"/>
<text text-anchor="middle" x="868.5" y="-18.5" font-family="Helvetica,sans-Serif" font-size="10.00"> &lt; ElementData &gt;</text>
</g>
<!-- Node36 -->
<g id="node21" class="node">
<title>Node36</title>
<g id="a_node21"><a xlink:href="interfacefiftyone_1_1caching_1_1_put_cache.html" target="_top" xlink:title="A cache that supports a thread safe put method for inserting to cache.">
<polygon fill="none" stroke="black" points="310.5,-0.5 310.5,-30.5 454.5,-30.5 454.5,-0.5 310.5,-0.5"/>
<text text-anchor="start" x="318.5" y="-18.5" font-family="Helvetica,sans-Serif" font-size="10.00">fiftyone::caching::</text>
<text text-anchor="middle" x="382.5" y="-7.5" font-family="Helvetica,sans-Serif" font-size="10.00">PutCache&lt; FlowData, V &gt;</text>
</a>
</g>
</g>
<!-- Node36&#45;&gt;Node35 -->
<g id="edge27" class="edge">
<title>Node36&#45;&gt;Node35</title>
<path fill="none" stroke="midnightblue" d="M465.07,-15.5C500.79,-15.5 542.8,-15.5 579.35,-15.5"/>
<polygon fill="midnightblue" stroke="midnightblue" points="464.68,-12 454.68,-15.5 464.68,-19 464.68,-12"/>
</g>
<!-- Node37 -->
<g id="node22" class="node">
<title>Node37</title>
<g id="a_node22"><a xlink:href="interfacefiftyone_1_1caching_1_1_cache.html" target="_top" xlink:title="Base cache interface which declares only the get method and the types of key and value stored in the ...">
<polygon fill="none" stroke="black" points="135.5,-0.5 135.5,-30.5 238.5,-30.5 238.5,-0.5 135.5,-0.5"/>
<text text-anchor="start" x="143.5" y="-18.5" font-family="Helvetica,sans-Serif" font-size="10.00">fiftyone::caching::</text>
<text text-anchor="middle" x="187" y="-7.5" font-family="Helvetica,sans-Serif" font-size="10.00">Cache&lt; K, V &gt;</text>
</a>
</g>
</g>
<!-- Node37&#45;&gt;Node36 -->
<g id="edge28" class="edge">
<title>Node37&#45;&gt;Node36</title>
<path fill="none" stroke="midnightblue" d="M248.61,-15.5C268.23,-15.5 290.16,-15.5 310.46,-15.5"/>
<polygon fill="midnightblue" stroke="midnightblue" points="248.59,-12 238.59,-15.5 248.59,-19 248.59,-12"/>
</g>
<!-- Node38 -->
<g id="node23" class="node">
<title>Node38</title>
<g id="a_node23"><a xlink:title=" ">
<polygon fill="none" stroke="#bfbfbf" points="0,-6 0,-25 65,-25 65,-6 0,-6"/>
<text text-anchor="middle" x="32.5" y="-13" font-family="Helvetica,sans-Serif" font-size="10.00">Closeable</text>
</a>
</g>
</g>
<!-- Node38&#45;&gt;Node37 -->
<g id="edge29" class="edge">
<title>Node38&#45;&gt;Node37</title>
<path fill="none" stroke="midnightblue" d="M75.28,-15.5C93.81,-15.5 115.77,-15.5 135.23,-15.5"/>
<polygon fill="midnightblue" stroke="midnightblue" points="75.1,-12 65.1,-15.5 75.1,-19 75.1,-12"/>
</g>
<!-- Node39 -->
<g id="node24" class="node">
<title>Node39</title>
<g id="a_node24"><a xlink:href="interfacefiftyone_1_1pipeline_1_1engines_1_1services_1_1_missing_property_service.html" target="_top" xlink:title="Service used by AspectEngines to report the reason for a property not being present in the results.">
<polygon fill="none" stroke="black" points="1344,-358.5 1344,-388.5 1527,-388.5 1527,-358.5 1344,-358.5"/>
<text text-anchor="start" x="1352" y="-376.5" font-family="Helvetica,sans-Serif" font-size="10.00">fiftyone.pipeline.engines.services.</text>
<text text-anchor="middle" x="1435.5" y="-365.5" font-family="Helvetica,sans-Serif" font-size="10.00">MissingPropertyService</text>
</a>
</g>
</g>
<!-- Node39&#45;&gt;Node17 -->
<g id="edge30" class="edge">
<title>Node39&#45;&gt;Node17</title>
<path fill="none" stroke="#9a32cd" stroke-dasharray="5,2" d="M1537.34,-364.34C1615.59,-357.05 1726.75,-346.32 1824,-335.5 1829.87,-334.85 1835.91,-334.16 1841.99,-333.44"/>
<polygon fill="#9a32cd" stroke="#9a32cd" points="1536.64,-360.89 1527,-365.3 1537.28,-367.86 1536.64,-360.89"/>
<text text-anchor="middle" x="1691" y="-364.5" font-family="Helvetica,sans-Serif" font-size="10.00"> missingPropertyService</text>
</g>
<!-- Node40 -->
<g id="node25" class="node">
<title>Node40</title>
<g id="a_node25"><a xlink:href="interfacefiftyone_1_1pipeline_1_1core_1_1services_1_1_pipeline_service.html" target="_top" xlink:title="Service interface used by PipelineBuilder to hand out services to elements which required them.">
<polygon fill="none" stroke="black" points="980.5,-361.5 980.5,-391.5 1146.5,-391.5 1146.5,-361.5 980.5,-361.5"/>
<text text-anchor="start" x="988.5" y="-379.5" font-family="Helvetica,sans-Serif" font-size="10.00">fiftyone.pipeline.core.services.</text>
<text text-anchor="middle" x="1063.5" y="-368.5" font-family="Helvetica,sans-Serif" font-size="10.00">PipelineService</text>
</a>
</g>
</g>
<!-- Node40&#45;&gt;Node39 -->
<g id="edge31" class="edge">
<title>Node40&#45;&gt;Node39</title>
<path fill="none" stroke="midnightblue" d="M1156.73,-375.75C1213.89,-375.29 1287,-374.7 1343.86,-374.23"/>
<polygon fill="midnightblue" stroke="midnightblue" points="1156.59,-372.25 1146.61,-375.83 1156.64,-379.25 1156.59,-372.25"/>
</g>
<!-- Node41 -->
<g id="node26" class="node">
<title>Node41</title>
<g id="a_node26"><a xlink:href="interfacefiftyone_1_1pipeline_1_1cloudrequestengine_1_1flowelements_1_1_cloud_request_engine.html" target="_top" xlink:title="Engine that makes requests to the 51Degrees cloud service based on the details passed at creation and...">
<polygon fill="none" stroke="black" points="1558,-510.5 1558,-540.5 1824,-540.5 1824,-510.5 1558,-510.5"/>
<text text-anchor="start" x="1566" y="-528.5" font-family="Helvetica,sans-Serif" font-size="10.00">fiftyone.pipeline.cloudrequestengine.flowelements.</text>
<text text-anchor="middle" x="1691" y="-517.5" font-family="Helvetica,sans-Serif" font-size="10.00">CloudRequestEngine</text>
</a>
</g>
</g>
<!-- Node41&#45;&gt;Node16 -->
<g id="edge34" class="edge">
<title>Node41&#45;&gt;Node16</title>
<path fill="none" stroke="midnightblue" d="M1805.43,-508.81C1811.72,-507.73 1817.94,-506.62 1824,-505.5 1935.65,-484.81 2064.62,-455.26 2139.39,-437.57"/>
<polygon fill="midnightblue" stroke="midnightblue" points="1804.79,-505.37 1795.51,-510.48 1805.96,-512.27 1804.79,-505.37"/>
</g>
<!-- Node42&#45;&gt;Node41 -->
<g id="edge35" class="edge">
<title>Node42&#45;&gt;Node41</title>
<path fill="none" stroke="midnightblue" d="M1113.63,-467.63C1139.48,-482.3 1172.31,-498.34 1204,-506.5 1320.93,-536.62 1458.87,-539.02 1557.87,-535.27"/>
<polygon fill="midnightblue" stroke="midnightblue" points="1115.2,-464.5 1104.79,-462.52 1111.69,-470.56 1115.2,-464.5"/>
</g>
</g>
</svg>
