<?xml version="1.0" encoding="UTF-8" standalone="no"?>
<!DOCTYPE svg PUBLIC "-//W3C//DTD SVG 1.1//EN"
 "http://www.w3.org/Graphics/SVG/1.1/DTD/svg11.dtd">
<!-- Generated by graphviz version 2.43.0 (0)
 -->
<!-- Title: fiftyone.pipeline.cloudrequestengine.flowelements.CloudRequestDataInternal Pages: 1 -->
<svg width="1100pt" height="89pt"
 viewBox="0.00 0.00 1100.00 89.00" xmlns="http://www.w3.org/2000/svg" xmlns:xlink="http://www.w3.org/1999/xlink">
<g id="graph0" class="graph" transform="scale(1 1) rotate(0) translate(4 85)">
<title>fiftyone.pipeline.cloudrequestengine.flowelements.CloudRequestDataInternal</title>
<!-- Node8 -->
<g id="node1" class="node">
<title>Node8</title>
<g id="a_node1"><a xlink:title=" ">
<polygon fill="#bfbfbf" stroke="black" points="826,-25.5 826,-55.5 1092,-55.5 1092,-25.5 826,-25.5"/>
<text text-anchor="start" x="834" y="-43.5" font-family="Helvetica,sans-Serif" font-size="10.00">fiftyone.pipeline.cloudrequestengine.flowelements.</text>
<text text-anchor="middle" x="959" y="-32.5" font-family="Helvetica,sans-Serif" font-size="10.00">CloudRequestDataInternal</text>
</a>
</g>
</g>
<!-- Node9 -->
<g id="node2" class="node">
<title>Node9</title>
<g id="a_node2"><a xlink:href="classfiftyone_1_1pipeline_1_1engines_1_1data_1_1_aspect_data_base.html" target="_top" xlink:title="Abstract base class for AspectData which overrides the.">
<polygon fill="none" stroke="black" points="625,-25.5 625,-55.5 789,-55.5 789,-25.5 625,-25.5"/>
<text text-anchor="start" x="633" y="-43.5" font-family="Helvetica,sans-Serif" font-size="10.00">fiftyone.pipeline.engines.data.</text>
<text text-anchor="middle" x="707" y="-32.5" font-family="Helvetica,sans-Serif" font-size="10.00">AspectDataBase</text>
</a>
</g>
</g>
<!-- Node9&#45;&gt;Node8 -->
<g id="edge1" class="edge">
<title>Node9&#45;&gt;Node8</title>
<path fill="none" stroke="midnightblue" d="M799.28,-40.5C808,-40.5 816.96,-40.5 825.96,-40.5"/>
<polygon fill="midnightblue" stroke="midnightblue" points="799.17,-37 789.17,-40.5 799.17,-44 799.17,-37"/>
</g>
<!-- Node10 -->
<g id="node3" class="node">
<title>Node10</title>
<g id="a_node3"><a xlink:href="classfiftyone_1_1pipeline_1_1core_1_1data_1_1_element_data_base.html" target="_top" xlink:title="Base implementation of ElementData.">
<polygon fill="none" stroke="black" points="432.5,-1.5 432.5,-31.5 579.5,-31.5 579.5,-1.5 432.5,-1.5"/>
<text text-anchor="start" x="440.5" y="-19.5" font-family="Helvetica,sans-Serif" font-size="10.00">fiftyone.pipeline.core.data.</text>
<text text-anchor="middle" x="506" y="-8.5" font-family="Helvetica,sans-Serif" font-size="10.00">ElementDataBase</text>
</a>
</g>
</g>
<!-- Node10&#45;&gt;Node9 -->
<g id="edge2" class="edge">
<title>Node10&#45;&gt;Node9</title>
<path fill="none" stroke="midnightblue" d="M589.76,-26.48C601.34,-27.88 613.22,-29.31 624.77,-30.7"/>
<polygon fill="midnightblue" stroke="midnightblue" points="590.04,-22.99 579.69,-25.27 589.2,-29.94 590.04,-22.99"/>
</g>
<!-- Node11 -->
<g id="node4" class="node">
<title>Node11</title>
<g id="a_node4"><a xlink:href="classfiftyone_1_1pipeline_1_1core_1_1data_1_1_data_base.html" target="_top" xlink:title="This implementation of Data stores data values as key/value pairs in a Map where the key is a string ...">
<polygon fill="none" stroke="black" points="240,-0.5 240,-30.5 387,-30.5 387,-0.5 240,-0.5"/>
<text text-anchor="start" x="248" y="-18.5" font-family="Helvetica,sans-Serif" font-size="10.00">fiftyone.pipeline.core.data.</text>
<text text-anchor="middle" x="313.5" y="-7.5" font-family="Helvetica,sans-Serif" font-size="10.00">DataBase</text>
</a>
</g>
</g>
<!-- Node11&#45;&gt;Node10 -->
<g id="edge3" class="edge">
<title>Node11&#45;&gt;Node10</title>
<path fill="none" stroke="midnightblue" d="M397.24,-15.93C408.92,-16 420.85,-16.06 432.32,-16.12"/>
<polygon fill="midnightblue" stroke="midnightblue" points="397.08,-12.43 387.06,-15.88 397.04,-19.43 397.08,-12.43"/>
</g>
<!-- Node12 -->
<g id="node5" class="node">
<title>Node12</title>
<g id="a_node5"><a xlink:href="interfacefiftyone_1_1pipeline_1_1core_1_1data_1_1_data.html" target="_top" xlink:title="Represents a collection of property values.">
<polygon fill="none" stroke="black" points="0,-48 0,-67 170,-67 170,-48 0,-48"/>
<text text-anchor="middle" x="85" y="-55" font-family="Helvetica,sans-Serif" font-size="10.00">fiftyone.pipeline.core.data.Data</text>
</a>
</g>
</g>
<!-- Node12&#45;&gt;Node11 -->
<g id="edge4" class="edge">
<title>Node12&#45;&gt;Node11</title>
<path fill="none" stroke="midnightblue" d="M147.25,-46.14C175.8,-40.85 209.99,-34.51 239.84,-28.97"/>
<polygon fill="midnightblue" stroke="midnightblue" points="146.59,-42.7 137.4,-47.97 147.87,-49.59 146.59,-42.7"/>
</g>
<!-- Node14 -->
<g id="node7" class="node">
<title>Node14</title>
<g id="a_node7"><a xlink:href="interfacefiftyone_1_1pipeline_1_1core_1_1data_1_1_element_data.html" target="_top" xlink:title="Represents property values that have be determined by a specific FlowElement based on the supplied ev...">
<polygon fill="none" stroke="black" points="240,-49.5 240,-79.5 387,-79.5 387,-49.5 240,-49.5"/>
<text text-anchor="start" x="248" y="-67.5" font-family="Helvetica,sans-Serif" font-size="10.00">fiftyone.pipeline.core.data.</text>
<text text-anchor="middle" x="313.5" y="-56.5" font-family="Helvetica,sans-Serif" font-size="10.00">ElementData</text>
</a>
</g>
</g>
<!-- Node12&#45;&gt;Node14 -->
<g id="edge7" class="edge">
<title>Node12&#45;&gt;Node14</title>
<path fill="none" stroke="midnightblue" d="M180.05,-60.41C200,-61.02 220.77,-61.67 239.79,-62.25"/>
<polygon fill="midnightblue" stroke="midnightblue" points="180.12,-56.91 170.02,-60.1 179.91,-63.9 180.12,-56.91"/>
</g>
<!-- Node13 -->
<g id="node6" class="node">
<title>Node13</title>
<g id="a_node6"><a xlink:title=" ">
<polygon fill="none" stroke="#bfbfbf" points="60,-4 60,-23 110,-23 110,-4 60,-4"/>
<text text-anchor="middle" x="85" y="-11" font-family="Helvetica,sans-Serif" font-size="10.00">Logger</text>
</a>
</g>
</g>
<!-- Node13&#45;&gt;Node11 -->
<g id="edge5" class="edge">
<title>Node13&#45;&gt;Node11</title>
<path fill="none" stroke="#9a32cd" stroke-dasharray="5,2" d="M120.35,-13.72C147.85,-13.9 187.4,-14.18 222,-14.5 227.81,-14.55 233.84,-14.61 239.89,-14.67"/>
<polygon fill="#9a32cd" stroke="#9a32cd" points="120.1,-10.22 110.08,-13.65 120.05,-17.22 120.1,-10.22"/>
<text text-anchor="middle" x="205" y="-17.5" font-family="Helvetica,sans-Serif" font-size="10.00"> logger</text>
</g>
<!-- Node14&#45;&gt;Node10 -->
<g id="edge6" class="edge">
<title>Node14&#45;&gt;Node10</title>
<path fill="none" stroke="midnightblue" d="M384,-46.99C404.15,-41.91 425.97,-36.41 445.46,-31.5"/>
<polygon fill="midnightblue" stroke="midnightblue" points="383.09,-43.61 374.25,-49.44 384.8,-50.39 383.09,-43.61"/>
</g>
<!-- Node15 -->
<g id="node8" class="node">
<title>Node15</title>
<g id="a_node8"><a xlink:href="interfacefiftyone_1_1pipeline_1_1engines_1_1data_1_1_aspect_data.html" target="_top" xlink:title="Represents a specialized ElementData instance that is generated by an AspectEngine.">
<polygon fill="none" stroke="black" points="424,-50.5 424,-80.5 588,-80.5 588,-50.5 424,-50.5"/>
<text text-anchor="start" x="432" y="-68.5" font-family="Helvetica,sans-Serif" font-size="10.00">fiftyone.pipeline.engines.data.</text>
<text text-anchor="middle" x="506" y="-57.5" font-family="Helvetica,sans-Serif" font-size="10.00">AspectData</text>
</a>
</g>
</g>
<!-- Node14&#45;&gt;Node15 -->
<g id="edge9" class="edge">
<title>Node14&#45;&gt;Node15</title>
<path fill="none" stroke="midnightblue" d="M397.28,-64.93C406.05,-64.98 414.97,-65.03 423.73,-65.07"/>
<polygon fill="midnightblue" stroke="midnightblue" points="397.08,-61.43 387.06,-64.88 397.04,-68.43 397.08,-61.43"/>
</g>
<!-- Node15&#45;&gt;Node9 -->
<g id="edge8" class="edge">
<title>Node15&#45;&gt;Node9</title>
<path fill="none" stroke="midnightblue" d="M598.17,-54.05C607.02,-52.93 615.96,-51.81 624.71,-50.71"/>
<polygon fill="midnightblue" stroke="midnightblue" points="597.71,-50.58 588.23,-55.3 598.59,-57.52 597.71,-50.58"/>
</g>
</g>
</svg>
