<?xml version="1.0" encoding="UTF-8" standalone="no"?>
<!DOCTYPE svg PUBLIC "-//W3C//DTD SVG 1.1//EN"
 "http://www.w3.org/Graphics/SVG/1.1/DTD/svg11.dtd">
<!-- Generated by graphviz version 2.43.0 (0)
 -->
<!-- Title: fiftyone.caching.LruCacheBase&lt; K, V &gt; Pages: 1 -->
<svg width="509pt" height="182pt"
 viewBox="0.00 0.00 509.00 181.50" xmlns="http://www.w3.org/2000/svg" xmlns:xlink="http://www.w3.org/1999/xlink">
<g id="graph0" class="graph" transform="scale(1 1) rotate(0) translate(4 177.5)">
<title>fiftyone.caching.LruCacheBase&lt; K, V &gt;</title>
<!-- Node5 -->
<g id="node1" class="node">
<title>Node5</title>
<g id="a_node1"><a xlink:title="This is a Least Recently Used (LRU) cache with multiple linked lists in place of the usual single lin...">
<polygon fill="#bfbfbf" stroke="black" points="358,-97.5 358,-127.5 500,-127.5 500,-97.5 358,-97.5"/>
<text text-anchor="start" x="366" y="-115.5" font-family="Helvetica,sans-Serif" font-size="10.00">fiftyone.caching.LruCache</text>
<text text-anchor="middle" x="429" y="-104.5" font-family="Helvetica,sans-Serif" font-size="10.00">Base&lt; K, V &gt;</text>
</a>
</g>
</g>
<!-- Node6 -->
<g id="node2" class="node">
<title>Node6</title>
<g id="a_node2"><a xlink:href="interfacefiftyone_1_1caching_1_1_cache.html" target="_top" xlink:title="Base cache interface which declares only the get method and the types of key and value stored in the ...">
<polygon fill="none" stroke="black" points="132.5,-66.5 132.5,-96.5 235.5,-96.5 235.5,-66.5 132.5,-66.5"/>
<text text-anchor="start" x="140.5" y="-84.5" font-family="Helvetica,sans-Serif" font-size="10.00">fiftyone::caching::</text>
<text text-anchor="middle" x="184" y="-73.5" font-family="Helvetica,sans-Serif" font-size="10.00">Cache&lt; K, V &gt;</text>
</a>
</g>
</g>
<!-- Node6&#45;&gt;Node5 -->
<g id="edge1" class="edge">
<title>Node6&#45;&gt;Node5</title>
<path fill="none" stroke="midnightblue" d="M245.89,-89.27C279.83,-93.6 322.25,-99.01 357.61,-103.52"/>
<polygon fill="midnightblue" stroke="midnightblue" points="246.01,-85.75 235.64,-87.96 245.12,-92.7 246.01,-85.75"/>
</g>
<!-- Node7 -->
<g id="node3" class="node">
<title>Node7</title>
<g id="a_node3"><a xlink:title=" ">
<polygon fill="none" stroke="#bfbfbf" points="0,-94 0,-113 65,-113 65,-94 0,-94"/>
<text text-anchor="middle" x="32.5" y="-101" font-family="Helvetica,sans-Serif" font-size="10.00">Closeable</text>
</a>
</g>
</g>
<!-- Node7&#45;&gt;Node5 -->
<g id="edge3" class="edge">
<title>Node7&#45;&gt;Node5</title>
<path fill="none" stroke="midnightblue" d="M75.23,-109.81C77.86,-110.08 80.46,-110.31 83,-110.5 177.98,-117.46 288.06,-116.55 357.85,-114.85"/>
<polygon fill="midnightblue" stroke="midnightblue" points="75.46,-106.31 65.12,-108.62 74.64,-113.26 75.46,-106.31"/>
</g>
<!-- Node7&#45;&gt;Node6 -->
<g id="edge2" class="edge">
<title>Node7&#45;&gt;Node6</title>
<path fill="none" stroke="midnightblue" d="M75.22,-97.36C92.9,-94.76 113.66,-91.7 132.22,-88.97"/>
<polygon fill="midnightblue" stroke="midnightblue" points="74.59,-93.92 65.21,-98.83 75.61,-100.84 74.59,-93.92"/>
</g>
<!-- Node8 -->
<g id="node4" class="node">
<title>Node8</title>
<g id="a_node4"><a xlink:title="A linked list used in the LruCache implementation.">
<polygon fill="none" stroke="#bfbfbf" points="102,-14.5 102,-44.5 266,-44.5 266,-14.5 102,-14.5"/>
<text text-anchor="start" x="110" y="-32.5" font-family="Helvetica,sans-Serif" font-size="10.00">fiftyone.caching.LruCache</text>
<text text-anchor="middle" x="184" y="-21.5" font-family="Helvetica,sans-Serif" font-size="10.00">Base&lt; K, V &gt;.CacheLinkedList</text>
</a>
</g>
</g>
<!-- Node8&#45;&gt;Node5 -->
<g id="edge4" class="edge">
<title>Node8&#45;&gt;Node5</title>
<path fill="none" stroke="#9a32cd" stroke-dasharray="5,2" d="M242.6,-47.58C271.61,-56.85 307.27,-68.47 339,-79.5 355.19,-85.13 372.91,-91.63 388.25,-97.36"/>
<polygon fill="#9a32cd" stroke="#9a32cd" points="243.62,-44.23 233.03,-44.54 241.5,-50.9 243.62,-44.23"/>
<text text-anchor="middle" x="311.5" y="-82.5" font-family="Helvetica,sans-Serif" font-size="10.00"> linkedLists</text>
</g>
<!-- Node9 -->
<g id="node5" class="node">
<title>Node9</title>
<g id="a_node5"><a xlink:title="An item stored in the cache along with references to the next and previous items.">
<polygon fill="none" stroke="#bfbfbf" points="357,-0.5 357,-30.5 501,-30.5 501,-0.5 357,-0.5"/>
<text text-anchor="start" x="365" y="-18.5" font-family="Helvetica,sans-Serif" font-size="10.00">fiftyone.caching.LruCache</text>
<text text-anchor="middle" x="429" y="-7.5" font-family="Helvetica,sans-Serif" font-size="10.00">Base&lt; K, V &gt;.CachedItem</text>
</a>
</g>
</g>
<!-- Node8&#45;&gt;Node9 -->
<g id="edge6" class="edge">
<title>Node8&#45;&gt;Node9</title>
<path fill="none" stroke="#9a32cd" stroke-dasharray="5,2" d="M249.49,-12.29C260.91,-9.88 272.75,-7.79 284,-6.5 308.29,-3.72 314.59,-5.27 339,-6.5 344.74,-6.79 350.68,-7.18 356.64,-7.65"/>
<polygon fill="#9a32cd" stroke="#9a32cd" points="248.6,-8.9 239.59,-14.47 250.11,-15.73 248.6,-8.9"/>
<text text-anchor="middle" x="311.5" y="-9.5" font-family="Helvetica,sans-Serif" font-size="10.00"> list</text>
</g>
<!-- Node9&#45;&gt;Node8 -->
<g id="edge5" class="edge">
<title>Node9&#45;&gt;Node8</title>
<path fill="none" stroke="#9a32cd" stroke-dasharray="5,2" d="M346.47,-20.2C320.63,-21.69 292.08,-23.33 266.25,-24.82"/>
<polygon fill="#9a32cd" stroke="#9a32cd" points="346.83,-23.68 356.61,-19.61 346.42,-16.69 346.83,-23.68"/>
<text text-anchor="middle" x="311.5" y="-38.5" font-family="Helvetica,sans-Serif" font-size="10.00"> last</text>
<text text-anchor="middle" x="311.5" y="-27.5" font-family="Helvetica,sans-Serif" font-size="10.00">first</text>
</g>
<!-- Node9&#45;&gt;Node9 -->
<g id="edge7" class="edge">
<title>Node9&#45;&gt;Node9</title>
<path fill="none" stroke="#9a32cd" stroke-dasharray="5,2" d="M408.39,-40.96C410.95,-45.68 417.82,-49 429,-49 447.35,-49 454.09,-40.06 449.22,-30.66"/>
<polygon fill="#9a32cd" stroke="#9a32cd" points="411.9,-40.79 408.78,-30.66 404.9,-40.52 411.9,-40.79"/>
<text text-anchor="middle" x="429" y="-63" font-family="Helvetica,sans-Serif" font-size="10.00"> previous</text>
<text text-anchor="middle" x="429" y="-52" font-family="Helvetica,sans-Serif" font-size="10.00">next</text>
</g>
<!-- Node10 -->
<g id="node6" class="node">
<title>Node10</title>
<g id="a_node6"><a xlink:title=" ">
<polygon fill="none" stroke="#bfbfbf" points="155.5,-154 155.5,-173 212.5,-173 212.5,-154 155.5,-154"/>
<text text-anchor="middle" x="184" y="-161" font-family="Helvetica,sans-Serif" font-size="10.00">Random</text>
</a>
</g>
</g>
<!-- Node10&#45;&gt;Node5 -->
<g id="edge8" class="edge">
<title>Node10&#45;&gt;Node5</title>
<path fill="none" stroke="#9a32cd" stroke-dasharray="5,2" d="M222.82,-159.11C254.16,-155.11 299.78,-148.46 339,-139.5 353.32,-136.23 368.71,-131.87 382.59,-127.61"/>
<polygon fill="#9a32cd" stroke="#9a32cd" points="222.25,-155.65 212.76,-160.36 223.12,-162.6 222.25,-155.65"/>
<text text-anchor="middle" x="311.5" y="-152.5" font-family="Helvetica,sans-Serif" font-size="10.00"> random</text>
</g>
</g>
</svg>
