<?xml version="1.0" encoding="UTF-8" standalone="no"?>
<!DOCTYPE svg PUBLIC "-//W3C//DTD SVG 1.1//EN"
 "http://www.w3.org/Graphics/SVG/1.1/DTD/svg11.dtd">
<!-- Generated by graphviz version 2.43.0 (0)
 -->
<!-- Title: fiftyone.pipeline.engines.trackers.TrackerBase&lt; T &gt; Pages: 1 -->
<svg width="993pt" height="100pt"
 viewBox="0.00 0.00 993.00 99.50" xmlns="http://www.w3.org/2000/svg" xmlns:xlink="http://www.w3.org/1999/xlink">
<g id="graph0" class="graph" transform="scale(1 1) rotate(0) translate(4 95.5)">
<title>fiftyone.pipeline.engines.trackers.TrackerBase&lt; T &gt;</title>
<!-- Node9 -->
<g id="node1" class="node">
<title>Node9</title>
<g id="a_node1"><a xlink:title="The abstract base class for trackers.">
<polygon fill="#bfbfbf" stroke="black" points="803,-27.5 803,-57.5 985,-57.5 985,-27.5 803,-27.5"/>
<text text-anchor="start" x="811" y="-45.5" font-family="Helvetica,sans-Serif" font-size="10.00">fiftyone.pipeline.engines.trackers.</text>
<text text-anchor="middle" x="894" y="-34.5" font-family="Helvetica,sans-Serif" font-size="10.00">TrackerBase&lt; T &gt;</text>
</a>
</g>
</g>
<!-- Node10 -->
<g id="node2" class="node">
<title>Node10</title>
<g id="a_node2"><a xlink:href="classfiftyone_1_1pipeline_1_1engines_1_1caching_1_1_data_keyed_cache_base.html" target="_top" xlink:title="Abstract base class for caches that use FlowData as the key.">
<polygon fill="none" stroke="black" points="600,-50 600,-91 752,-91 752,-50 600,-50"/>
<text text-anchor="start" x="608" y="-79" font-family="Helvetica,sans-Serif" font-size="10.00">fiftyone::pipeline</text>
<text text-anchor="start" x="608" y="-68" font-family="Helvetica,sans-Serif" font-size="10.00">::engines::caching::</text>
<text text-anchor="middle" x="676" y="-57" font-family="Helvetica,sans-Serif" font-size="10.00">DataKeyedCacheBase&lt; T &gt;</text>
</a>
</g>
</g>
<!-- Node10&#45;&gt;Node9 -->
<g id="edge1" class="edge">
<title>Node10&#45;&gt;Node9</title>
<path fill="none" stroke="midnightblue" d="M762.31,-59.44C775.61,-57.72 789.39,-55.93 802.8,-54.19"/>
<polygon fill="midnightblue" stroke="midnightblue" points="761.71,-55.99 752.24,-60.75 762.61,-62.93 761.71,-55.99"/>
</g>
<!-- Node11 -->
<g id="node3" class="node">
<title>Node11</title>
<g id="a_node3"><a xlink:href="interfacefiftyone_1_1pipeline_1_1engines_1_1caching_1_1_data_keyed_cache.html" target="_top" xlink:title="Represents a put cache where the key is a FlowData instance.">
<polygon fill="none" stroke="black" points="420,-50 420,-91 549,-91 549,-50 420,-50"/>
<text text-anchor="start" x="428" y="-79" font-family="Helvetica,sans-Serif" font-size="10.00">fiftyone::pipeline</text>
<text text-anchor="start" x="428" y="-68" font-family="Helvetica,sans-Serif" font-size="10.00">::engines::caching::</text>
<text text-anchor="middle" x="484.5" y="-57" font-family="Helvetica,sans-Serif" font-size="10.00">DataKeyedCache&lt; V &gt;</text>
</a>
</g>
</g>
<!-- Node11&#45;&gt;Node10 -->
<g id="edge2" class="edge">
<title>Node11&#45;&gt;Node10</title>
<path fill="none" stroke="midnightblue" d="M559.17,-70.5C572.48,-70.5 586.38,-70.5 599.73,-70.5"/>
<polygon fill="midnightblue" stroke="midnightblue" points="559.13,-67 549.13,-70.5 559.13,-74 559.13,-67"/>
</g>
<!-- Node12 -->
<g id="node4" class="node">
<title>Node12</title>
<g id="a_node4"><a xlink:href="interfacefiftyone_1_1caching_1_1_put_cache.html" target="_top" xlink:title="A cache that supports a thread safe put method for inserting to cache.">
<polygon fill="none" stroke="black" points="240,-55.5 240,-85.5 384,-85.5 384,-55.5 240,-55.5"/>
<text text-anchor="start" x="248" y="-73.5" font-family="Helvetica,sans-Serif" font-size="10.00">fiftyone::caching::</text>
<text text-anchor="middle" x="312" y="-62.5" font-family="Helvetica,sans-Serif" font-size="10.00">PutCache&lt; FlowData, V &gt;</text>
</a>
</g>
</g>
<!-- Node12&#45;&gt;Node11 -->
<g id="edge3" class="edge">
<title>Node12&#45;&gt;Node11</title>
<path fill="none" stroke="midnightblue" d="M394.6,-70.5C403.06,-70.5 411.57,-70.5 419.8,-70.5"/>
<polygon fill="midnightblue" stroke="midnightblue" points="394.32,-67 384.32,-70.5 394.32,-74 394.32,-67"/>
</g>
<!-- Node13 -->
<g id="node5" class="node">
<title>Node13</title>
<g id="a_node5"><a xlink:href="interfacefiftyone_1_1caching_1_1_cache.html" target="_top" xlink:title="Base cache interface which declares only the get method and the types of key and value stored in the ...">
<polygon fill="none" stroke="black" points="101,-55.5 101,-85.5 204,-85.5 204,-55.5 101,-55.5"/>
<text text-anchor="start" x="109" y="-73.5" font-family="Helvetica,sans-Serif" font-size="10.00">fiftyone::caching::</text>
<text text-anchor="middle" x="152.5" y="-62.5" font-family="Helvetica,sans-Serif" font-size="10.00">Cache&lt; K, V &gt;</text>
</a>
</g>
</g>
<!-- Node13&#45;&gt;Node12 -->
<g id="edge4" class="edge">
<title>Node13&#45;&gt;Node12</title>
<path fill="none" stroke="midnightblue" d="M214.22,-70.5C222.58,-70.5 231.22,-70.5 239.74,-70.5"/>
<polygon fill="midnightblue" stroke="midnightblue" points="214.2,-67 204.2,-70.5 214.2,-74 214.2,-67"/>
</g>
<!-- Node14 -->
<g id="node6" class="node">
<title>Node14</title>
<g id="a_node6"><a xlink:title=" ">
<polygon fill="none" stroke="#bfbfbf" points="0,-61 0,-80 65,-80 65,-61 0,-61"/>
<text text-anchor="middle" x="32.5" y="-68" font-family="Helvetica,sans-Serif" font-size="10.00">Closeable</text>
</a>
</g>
</g>
<!-- Node14&#45;&gt;Node13 -->
<g id="edge5" class="edge">
<title>Node14&#45;&gt;Node13</title>
<path fill="none" stroke="midnightblue" d="M75.22,-70.5C83.44,-70.5 92.16,-70.5 100.64,-70.5"/>
<polygon fill="midnightblue" stroke="midnightblue" points="75.12,-67 65.12,-70.5 75.12,-74 75.12,-67"/>
</g>
<!-- Node15 -->
<g id="node7" class="node">
<title>Node15</title>
<g id="a_node7"><a xlink:href="interfacefiftyone_1_1pipeline_1_1engines_1_1trackers_1_1_tracker.html" target="_top" xlink:title="Represents a &#39;tracker&#39;.">
<polygon fill="none" stroke="black" points="585,-0.5 585,-30.5 767,-30.5 767,-0.5 585,-0.5"/>
<text text-anchor="start" x="593" y="-18.5" font-family="Helvetica,sans-Serif" font-size="10.00">fiftyone.pipeline.engines.trackers.</text>
<text text-anchor="middle" x="676" y="-7.5" font-family="Helvetica,sans-Serif" font-size="10.00">Tracker</text>
</a>
</g>
</g>
<!-- Node15&#45;&gt;Node9 -->
<g id="edge6" class="edge">
<title>Node15&#45;&gt;Node9</title>
<path fill="none" stroke="midnightblue" d="M777.06,-28.01C785.63,-29.08 794.27,-30.16 802.76,-31.22"/>
<polygon fill="midnightblue" stroke="midnightblue" points="777.4,-24.52 767.04,-26.75 776.53,-31.47 777.4,-24.52"/>
</g>
</g>
</svg>
