<?xml version="1.0" encoding="UTF-8" standalone="no"?>
<!DOCTYPE svg PUBLIC "-//W3C//DTD SVG 1.1//EN"
 "http://www.w3.org/Graphics/SVG/1.1/DTD/svg11.dtd">
<!-- Generated by graphviz version 2.43.0 (0)
 -->
<!-- Title: fiftyone.pipeline.engines.fiftyone.flowelements.FiftyOneOnPremiseAspectEngineBuilderBase&lt; TBuilder extends FiftyOneOnPremiseAspectEngineBuilderBase&lt; TBuilder, TEngine, TEngine extends FiftyOneAspectEngine &gt; Pages: 1 -->
<svg width="3051pt" height="382pt"
 viewBox="0.00 0.00 3051.00 381.50" xmlns="http://www.w3.org/2000/svg" xmlns:xlink="http://www.w3.org/1999/xlink">
<g id="graph0" class="graph" transform="scale(1 1) rotate(0) translate(4 377.5)">
<title>fiftyone.pipeline.engines.fiftyone.flowelements.FiftyOneOnPremiseAspectEngineBuilderBase&lt; TBuilder extends FiftyOneOnPremiseAspectEngineBuilderBase&lt; TBuilder, TEngine, TEngine extends FiftyOneAspectEngine &gt;</title>
<!-- Node0 -->
<g id="node1" class="node">
<title>Node0</title>
<g id="a_node1"><a xlink:title="Abstract base class that exposes the common options that all 51Degrees on&#45;premise engine builders usi...">
<polygon fill="#bfbfbf" stroke="black" points="2698,-123 2698,-175 3043,-175 3043,-123 2698,-123"/>
<text text-anchor="start" x="2706" y="-163" font-family="Helvetica,sans-Serif" font-size="10.00">fiftyone.pipeline.engines.fiftyone.flowelements.</text>
<text text-anchor="start" x="2706" y="-152" font-family="Helvetica,sans-Serif" font-size="10.00">FiftyOneOnPremiseAspectEngineBuilderBase</text>
<text text-anchor="start" x="2706" y="-141" font-family="Helvetica,sans-Serif" font-size="10.00">&lt; TBuilder extends FiftyOneOnPremiseAspectEngineBuilder</text>
<text text-anchor="middle" x="2870.5" y="-130" font-family="Helvetica,sans-Serif" font-size="10.00">Base&lt; TBuilder, TEngine, TEngine extends FiftyOneAspectEngine &gt;</text>
</a>
</g>
</g>
<!-- Node1 -->
<g id="node2" class="node">
<title>Node1</title>
<g id="a_node2"><a xlink:href="classfiftyone_1_1pipeline_1_1engines_1_1flowelements_1_1_single_file_aspect_engine_builder_base.html" target="_top" xlink:title="Abstract base class that exposes the common options that all on&#45;premise engine builders using a singl...">
<polygon fill="none" stroke="black" points="2491,-187 2491,-239 2661,-239 2661,-187 2491,-187"/>
<text text-anchor="start" x="2499" y="-227" font-family="Helvetica,sans-Serif" font-size="10.00">fiftyone::pipeline</text>
<text text-anchor="start" x="2499" y="-216" font-family="Helvetica,sans-Serif" font-size="10.00">::engines::flowelements</text>
<text text-anchor="start" x="2499" y="-205" font-family="Helvetica,sans-Serif" font-size="10.00">::SingleFileAspectEngineBuilder</text>
<text text-anchor="middle" x="2576" y="-194" font-family="Helvetica,sans-Serif" font-size="10.00">Base&lt; TBuilder, TEngine &gt;</text>
</a>
</g>
</g>
<!-- Node1&#45;&gt;Node0 -->
<g id="edge1" class="edge">
<title>Node1&#45;&gt;Node0</title>
<path fill="none" stroke="midnightblue" d="M2671.14,-192.4C2696.43,-186.87 2724.1,-180.81 2750.54,-175.03"/>
<polygon fill="midnightblue" stroke="midnightblue" points="2670.23,-189.02 2661.21,-194.57 2671.73,-195.86 2670.23,-189.02"/>
</g>
<!-- Node2 -->
<g id="node3" class="node">
<title>Node2</title>
<g id="a_node3"><a xlink:href="classfiftyone_1_1pipeline_1_1engines_1_1flowelements_1_1_on_premise_aspect_engine_builder_base.html" target="_top" xlink:title=" ">
<polygon fill="none" stroke="black" points="2203,-246.5 2203,-287.5 2412,-287.5 2412,-246.5 2203,-246.5"/>
<text text-anchor="start" x="2211" y="-275.5" font-family="Helvetica,sans-Serif" font-size="10.00">fiftyone.pipeline.engines.flowelements.</text>
<text text-anchor="start" x="2211" y="-264.5" font-family="Helvetica,sans-Serif" font-size="10.00">OnPremiseAspectEngineBuilderBase</text>
<text text-anchor="middle" x="2307.5" y="-253.5" font-family="Helvetica,sans-Serif" font-size="10.00">&lt; TBuilder, TEngine &gt;</text>
</a>
</g>
</g>
<!-- Node2&#45;&gt;Node1 -->
<g id="edge2" class="edge">
<title>Node2&#45;&gt;Node1</title>
<path fill="none" stroke="midnightblue" d="M2420.07,-244.39C2443.7,-239.61 2468.26,-234.63 2490.67,-230.09"/>
<polygon fill="midnightblue" stroke="midnightblue" points="2419.12,-241.01 2410.01,-246.43 2420.51,-247.88 2419.12,-241.01"/>
</g>
<!-- Node3 -->
<g id="node4" class="node">
<title>Node3</title>
<g id="a_node4"><a xlink:href="classfiftyone_1_1pipeline_1_1engines_1_1flowelements_1_1_on_premise_aspect_engine_builder_base.html" target="_top" xlink:title="Abstract base class that exposes the common options that all 51Degrees on&#45;premise engine builders sho...">
<polygon fill="none" stroke="black" points="1777,-241.5 1777,-304.5 2044,-304.5 2044,-241.5 1777,-241.5"/>
<text text-anchor="start" x="1785" y="-292.5" font-family="Helvetica,sans-Serif" font-size="10.00">fiftyone.pipeline.engines.flowelements.</text>
<text text-anchor="start" x="1785" y="-281.5" font-family="Helvetica,sans-Serif" font-size="10.00">OnPremiseAspectEngineBuilderBase</text>
<text text-anchor="start" x="1785" y="-270.5" font-family="Helvetica,sans-Serif" font-size="10.00">&lt; TBuilder extends OnPremiseAspectEngineBuilder</text>
<text text-anchor="start" x="1785" y="-259.5" font-family="Helvetica,sans-Serif" font-size="10.00">Base&lt; TBuilder, TEngine, TEngine extends</text>
<text text-anchor="middle" x="1910.5" y="-248.5" font-family="Helvetica,sans-Serif" font-size="10.00"> OnPremiseAspectEngine &gt;</text>
</a>
</g>
</g>
<!-- Node3&#45;&gt;Node2 -->
<g id="edge3" class="edge">
<title>Node3&#45;&gt;Node2</title>
<path fill="none" stroke="orange" stroke-dasharray="5,2" d="M2054.22,-270.83C2103.4,-270.09 2157.5,-269.26 2202.94,-268.57"/>
<polygon fill="orange" stroke="orange" points="2054.07,-267.33 2044.13,-270.99 2054.18,-274.33 2054.07,-267.33"/>
<text text-anchor="middle" x="2129" y="-273" font-family="Helvetica,sans-Serif" font-size="10.00"> &lt; TBuilder, TEngine &gt;</text>
</g>
<!-- Node4 -->
<g id="node5" class="node">
<title>Node4</title>
<g id="a_node5"><a xlink:href="classfiftyone_1_1pipeline_1_1engines_1_1flowelements_1_1_aspect_engine_builder_base.html" target="_top" xlink:title=" ">
<polygon fill="none" stroke="black" points="1458.5,-287.5 1458.5,-328.5 1667.5,-328.5 1667.5,-287.5 1458.5,-287.5"/>
<text text-anchor="start" x="1466.5" y="-316.5" font-family="Helvetica,sans-Serif" font-size="10.00">fiftyone.pipeline.engines.flowelements.</text>
<text text-anchor="start" x="1466.5" y="-305.5" font-family="Helvetica,sans-Serif" font-size="10.00">AspectEngineBuilderBase&lt; TBuilder,</text>
<text text-anchor="middle" x="1563" y="-294.5" font-family="Helvetica,sans-Serif" font-size="10.00"> TEngine &gt;</text>
</a>
</g>
</g>
<!-- Node4&#45;&gt;Node3 -->
<g id="edge4" class="edge">
<title>Node4&#45;&gt;Node3</title>
<path fill="none" stroke="midnightblue" d="M1677.82,-296.47C1709.47,-293.26 1744.12,-289.75 1776.74,-286.45"/>
<polygon fill="midnightblue" stroke="midnightblue" points="1677.26,-293.01 1667.66,-297.5 1677.96,-299.97 1677.26,-293.01"/>
</g>
<!-- Node5 -->
<g id="node6" class="node">
<title>Node5</title>
<g id="a_node6"><a xlink:href="classfiftyone_1_1pipeline_1_1engines_1_1flowelements_1_1_aspect_engine_builder_base.html" target="_top" xlink:title="Abstract base class that exposes the common options that all 51Degrees engine builders should make us...">
<polygon fill="none" stroke="black" points="1082,-299.5 1082,-362.5 1291,-362.5 1291,-299.5 1082,-299.5"/>
<text text-anchor="start" x="1090" y="-350.5" font-family="Helvetica,sans-Serif" font-size="10.00">fiftyone.pipeline.engines.flowelements.</text>
<text text-anchor="start" x="1090" y="-339.5" font-family="Helvetica,sans-Serif" font-size="10.00">AspectEngineBuilderBase&lt; TBuilder</text>
<text text-anchor="start" x="1090" y="-328.5" font-family="Helvetica,sans-Serif" font-size="10.00"> extends AspectEngineBuilderBase</text>
<text text-anchor="start" x="1090" y="-317.5" font-family="Helvetica,sans-Serif" font-size="10.00">&lt; TBuilder, TEngine, TEngine extends</text>
<text text-anchor="middle" x="1186.5" y="-306.5" font-family="Helvetica,sans-Serif" font-size="10.00"> AspectEngine &gt;</text>
</a>
</g>
</g>
<!-- Node5&#45;&gt;Node4 -->
<g id="edge5" class="edge">
<title>Node5&#45;&gt;Node4</title>
<path fill="none" stroke="orange" stroke-dasharray="5,2" d="M1301.52,-324C1351.44,-320.93 1409.61,-317.36 1458.3,-314.37"/>
<polygon fill="orange" stroke="orange" points="1301.09,-320.52 1291.32,-324.62 1301.52,-327.5 1301.09,-320.52"/>
<text text-anchor="middle" x="1365" y="-325" font-family="Helvetica,sans-Serif" font-size="10.00"> &lt; TBuilder, TEngine &gt;</text>
</g>
<!-- Node6 -->
<g id="node7" class="node">
<title>Node6</title>
<g id="a_node7"><a xlink:href="interfacefiftyone_1_1pipeline_1_1engines_1_1flowelements_1_1_aspect_engine.html" target="_top" xlink:title="AspectEngines are a subset of FlowElements.">
<polygon fill="none" stroke="black" points="692,-310.5 692,-351.5 937,-351.5 937,-310.5 692,-310.5"/>
<text text-anchor="start" x="700" y="-339.5" font-family="Helvetica,sans-Serif" font-size="10.00">fiftyone.pipeline.engines.flowelements.</text>
<text text-anchor="start" x="700" y="-328.5" font-family="Helvetica,sans-Serif" font-size="10.00">AspectEngine&lt; TData extends AspectData,</text>
<text text-anchor="middle" x="814.5" y="-317.5" font-family="Helvetica,sans-Serif" font-size="10.00"> TProperty extends AspectPropertyMetaData &gt;</text>
</a>
</g>
</g>
<!-- Node6&#45;&gt;Node5 -->
<g id="edge6" class="edge">
<title>Node6&#45;&gt;Node5</title>
<path fill="none" stroke="orange" stroke-dasharray="5,2" d="M947.39,-331C991.53,-331 1040.07,-331 1081.74,-331"/>
<polygon fill="orange" stroke="orange" points="947.16,-327.5 937.16,-331 947.16,-334.5 947.16,-327.5"/>
<text text-anchor="middle" x="1009.5" y="-334" font-family="Helvetica,sans-Serif" font-size="10.00"> TEngine</text>
</g>
<!-- Node15 -->
<g id="node16" class="node">
<title>Node15</title>
<g id="a_node16"><a xlink:href="interfacefiftyone_1_1pipeline_1_1engines_1_1flowelements_1_1_aspect_engine.html" target="_top" xlink:title=" ">
<polygon fill="none" stroke="black" points="1082,-174 1082,-204 1291,-204 1291,-174 1082,-174"/>
<text text-anchor="start" x="1090" y="-192" font-family="Helvetica,sans-Serif" font-size="10.00">fiftyone.pipeline.engines.flowelements.</text>
<text text-anchor="middle" x="1186.5" y="-181" font-family="Helvetica,sans-Serif" font-size="10.00">AspectEngine&lt; TData, TProperty &gt;</text>
</a>
</g>
</g>
<!-- Node6&#45;&gt;Node15 -->
<g id="edge18" class="edge">
<title>Node6&#45;&gt;Node15</title>
<path fill="none" stroke="orange" stroke-dasharray="5,2" d="M835.8,-302.4C860.08,-270.84 903.89,-221.66 955,-200 994.38,-183.31 1040.99,-178.63 1081.97,-178.84"/>
<polygon fill="orange" stroke="orange" points="833,-300.31 829.77,-310.4 838.59,-304.52 833,-300.31"/>
<text text-anchor="middle" x="1009.5" y="-203" font-family="Helvetica,sans-Serif" font-size="10.00"> &lt; TData, TProperty &gt;</text>
</g>
<!-- Node7 -->
<g id="node8" class="node">
<title>Node7</title>
<g id="a_node8"><a xlink:href="interfacefiftyone_1_1pipeline_1_1core_1_1flowelements_1_1_flow_element.html" target="_top" xlink:title="A component that processes a FlowData (by examining its evidence, or by examining data processed by o...">
<polygon fill="none" stroke="black" points="458,-321 458,-373 588,-373 588,-321 458,-321"/>
<text text-anchor="start" x="466" y="-361" font-family="Helvetica,sans-Serif" font-size="10.00">fiftyone::pipeline</text>
<text text-anchor="start" x="466" y="-350" font-family="Helvetica,sans-Serif" font-size="10.00">::core::flowelements</text>
<text text-anchor="start" x="466" y="-339" font-family="Helvetica,sans-Serif" font-size="10.00">::FlowElement&lt; TData,</text>
<text text-anchor="middle" x="523" y="-328" font-family="Helvetica,sans-Serif" font-size="10.00"> TProperty &gt;</text>
</a>
</g>
</g>
<!-- Node7&#45;&gt;Node6 -->
<g id="edge7" class="edge">
<title>Node7&#45;&gt;Node6</title>
<path fill="none" stroke="midnightblue" d="M598.44,-347.98C622.56,-347.9 649.43,-347.4 674,-346 679.84,-345.67 685.8,-345.27 691.83,-344.81"/>
<polygon fill="midnightblue" stroke="midnightblue" points="598.28,-344.48 588.28,-347.99 598.28,-351.48 598.28,-344.48"/>
</g>
<!-- Node8 -->
<g id="node9" class="node">
<title>Node8</title>
<g id="a_node9"><a xlink:title=" ">
<polygon fill="none" stroke="#bfbfbf" points="237,-350.5 237,-369.5 324,-369.5 324,-350.5 237,-350.5"/>
<text text-anchor="middle" x="280.5" y="-357.5" font-family="Helvetica,sans-Serif" font-size="10.00">AutoCloseable</text>
</a>
</g>
</g>
<!-- Node8&#45;&gt;Node7 -->
<g id="edge8" class="edge">
<title>Node8&#45;&gt;Node7</title>
<path fill="none" stroke="midnightblue" d="M334.62,-357.13C371,-355.16 419.44,-352.54 457.96,-350.46"/>
<polygon fill="midnightblue" stroke="midnightblue" points="334.02,-353.66 324.22,-357.69 334.39,-360.65 334.02,-353.66"/>
</g>
<!-- Node9 -->
<g id="node10" class="node">
<title>Node9</title>
<g id="a_node10"><a xlink:href="interfacefiftyone_1_1pipeline_1_1core_1_1data_1_1_element_data.html" target="_top" xlink:title="Represents property values that have be determined by a specific FlowElement based on the supplied ev...">
<polygon fill="none" stroke="black" points="207,-295 207,-325 354,-325 354,-295 207,-295"/>
<text text-anchor="start" x="215" y="-313" font-family="Helvetica,sans-Serif" font-size="10.00">fiftyone.pipeline.core.data.</text>
<text text-anchor="middle" x="280.5" y="-302" font-family="Helvetica,sans-Serif" font-size="10.00">ElementData</text>
</a>
</g>
</g>
<!-- Node9&#45;&gt;Node7 -->
<g id="edge9" class="edge">
<title>Node9&#45;&gt;Node7</title>
<path fill="none" stroke="orange" stroke-dasharray="5,2" d="M364.54,-322.78C395.15,-327.48 429.33,-332.74 458,-337.15"/>
<polygon fill="orange" stroke="orange" points="364.73,-319.26 354.31,-321.2 363.66,-326.18 364.73,-319.26"/>
<text text-anchor="middle" x="397.5" y="-333" font-family="Helvetica,sans-Serif" font-size="10.00"> TData</text>
</g>
<!-- Node12 -->
<g id="node13" class="node">
<title>Node12</title>
<g id="a_node13"><a xlink:href="interfacefiftyone_1_1pipeline_1_1engines_1_1data_1_1_aspect_data.html" target="_top" xlink:title="Represents a specialized ElementData instance that is generated by an AspectEngine.">
<polygon fill="none" stroke="black" points="441,-252 441,-282 605,-282 605,-252 441,-252"/>
<text text-anchor="start" x="449" y="-270" font-family="Helvetica,sans-Serif" font-size="10.00">fiftyone.pipeline.engines.data.</text>
<text text-anchor="middle" x="523" y="-259" font-family="Helvetica,sans-Serif" font-size="10.00">AspectData</text>
</a>
</g>
</g>
<!-- Node9&#45;&gt;Node12 -->
<g id="edge13" class="edge">
<title>Node9&#45;&gt;Node12</title>
<path fill="none" stroke="midnightblue" d="M331.68,-291.79C344.67,-287.67 358.73,-283.71 372,-281 394.17,-276.47 418.48,-273.4 440.96,-271.33"/>
<polygon fill="midnightblue" stroke="midnightblue" points="330.41,-288.52 322,-294.95 332.59,-295.17 330.41,-288.52"/>
</g>
<!-- Node10 -->
<g id="node11" class="node">
<title>Node10</title>
<g id="a_node11"><a xlink:href="interfacefiftyone_1_1pipeline_1_1core_1_1data_1_1_data.html" target="_top" xlink:title="Represents a collection of property values.">
<polygon fill="none" stroke="black" points="0,-300.5 0,-319.5 170,-319.5 170,-300.5 0,-300.5"/>
<text text-anchor="middle" x="85" y="-307.5" font-family="Helvetica,sans-Serif" font-size="10.00">fiftyone.pipeline.core.data.Data</text>
</a>
</g>
</g>
<!-- Node10&#45;&gt;Node9 -->
<g id="edge10" class="edge">
<title>Node10&#45;&gt;Node9</title>
<path fill="none" stroke="midnightblue" d="M180.11,-310C189.07,-310 198.06,-310 206.77,-310"/>
<polygon fill="midnightblue" stroke="midnightblue" points="180.03,-306.5 170.03,-310 180.03,-313.5 180.03,-306.5"/>
</g>
<!-- Node11 -->
<g id="node12" class="node">
<title>Node11</title>
<g id="a_node12"><a xlink:href="interfacefiftyone_1_1pipeline_1_1core_1_1data_1_1_element_property_meta_data.html" target="_top" xlink:title="Defines details of a property that can be returned by a FlowElement.">
<polygon fill="none" stroke="black" points="207,-234 207,-264 354,-264 354,-234 207,-234"/>
<text text-anchor="start" x="215" y="-252" font-family="Helvetica,sans-Serif" font-size="10.00">fiftyone.pipeline.core.data.</text>
<text text-anchor="middle" x="280.5" y="-241" font-family="Helvetica,sans-Serif" font-size="10.00">ElementPropertyMetaData</text>
</a>
</g>
</g>
<!-- Node11&#45;&gt;Node7 -->
<g id="edge11" class="edge">
<title>Node11&#45;&gt;Node7</title>
<path fill="none" stroke="orange" stroke-dasharray="5,2" d="M328.06,-267.97C364.95,-283 416.89,-304.17 457.74,-320.81"/>
<polygon fill="orange" stroke="orange" points="329.13,-264.63 318.55,-264.1 326.49,-271.11 329.13,-264.63"/>
<text text-anchor="middle" x="397.5" y="-306" font-family="Helvetica,sans-Serif" font-size="10.00"> TProperty</text>
</g>
<!-- Node13 -->
<g id="node14" class="node">
<title>Node13</title>
<g id="a_node14"><a xlink:href="interfacefiftyone_1_1pipeline_1_1engines_1_1data_1_1_aspect_property_meta_data.html" target="_top" xlink:title="Holds details about a property that can be returned by an AspectEngine.">
<polygon fill="none" stroke="black" points="441,-203 441,-233 605,-233 605,-203 441,-203"/>
<text text-anchor="start" x="449" y="-221" font-family="Helvetica,sans-Serif" font-size="10.00">fiftyone.pipeline.engines.data.</text>
<text text-anchor="middle" x="523" y="-210" font-family="Helvetica,sans-Serif" font-size="10.00">AspectPropertyMetaData</text>
</a>
</g>
</g>
<!-- Node11&#45;&gt;Node13 -->
<g id="edge15" class="edge">
<title>Node11&#45;&gt;Node13</title>
<path fill="none" stroke="midnightblue" d="M364.36,-238.32C389.03,-235.14 416.03,-231.66 440.61,-228.49"/>
<polygon fill="midnightblue" stroke="midnightblue" points="363.78,-234.87 354.31,-239.61 364.68,-241.81 363.78,-234.87"/>
</g>
<!-- Node12&#45;&gt;Node6 -->
<g id="edge12" class="edge">
<title>Node12&#45;&gt;Node6</title>
<path fill="none" stroke="orange" stroke-dasharray="5,2" d="M559.97,-286.8C578.3,-295.99 601.27,-306.15 623,-312 644.98,-317.92 668.84,-322.03 692,-324.88"/>
<polygon fill="orange" stroke="orange" points="561.33,-283.56 550.84,-282.11 558.14,-289.79 561.33,-283.56"/>
<text text-anchor="middle" x="648.5" y="-324" font-family="Helvetica,sans-Serif" font-size="10.00"> TData</text>
</g>
<!-- Node14 -->
<g id="node15" class="node">
<title>Node14</title>
<g id="a_node15"><a xlink:href="interfacefiftyone_1_1pipeline_1_1engines_1_1flowelements_1_1_on_premise_aspect_engine.html" target="_top" xlink:title="Aspect engine interface which processes data internally using a data file and populates the results.">
<polygon fill="none" stroke="black" points="1439,-207 1439,-259 1687,-259 1687,-207 1439,-207"/>
<text text-anchor="start" x="1447" y="-247" font-family="Helvetica,sans-Serif" font-size="10.00">fiftyone.pipeline.engines.flowelements.</text>
<text text-anchor="start" x="1447" y="-236" font-family="Helvetica,sans-Serif" font-size="10.00">OnPremiseAspectEngine&lt; TData extends</text>
<text text-anchor="start" x="1447" y="-225" font-family="Helvetica,sans-Serif" font-size="10.00"> AspectData, TProperty extends AspectProperty</text>
<text text-anchor="middle" x="1563" y="-214" font-family="Helvetica,sans-Serif" font-size="10.00">MetaData &gt;</text>
</a>
</g>
</g>
<!-- Node12&#45;&gt;Node14 -->
<g id="edge19" class="edge">
<title>Node12&#45;&gt;Node14</title>
<path fill="none" stroke="orange" stroke-dasharray="5,2" d="M615.49,-266.23C777.81,-264.51 1126.82,-259.24 1421,-244 1426.88,-243.7 1432.91,-243.35 1438.99,-242.98"/>
<polygon fill="orange" stroke="orange" points="615.03,-262.73 605.07,-266.34 615.11,-269.73 615.03,-262.73"/>
<text text-anchor="middle" x="1009.5" y="-263" font-family="Helvetica,sans-Serif" font-size="10.00"> TData</text>
</g>
<!-- Node16 -->
<g id="node17" class="node">
<title>Node16</title>
<g id="a_node17"><a xlink:href="interfacefiftyone_1_1pipeline_1_1engines_1_1fiftyone_1_1flowelements_1_1_fifty_one_aspect_engine.html" target="_top" xlink:title="51Degrees specific Engine interface.">
<polygon fill="none" stroke="black" points="1766,-90 1766,-142 2055,-142 2055,-90 1766,-90"/>
<text text-anchor="start" x="1774" y="-130" font-family="Helvetica,sans-Serif" font-size="10.00">fiftyone.pipeline.engines.fiftyone.flowelements.</text>
<text text-anchor="start" x="1774" y="-119" font-family="Helvetica,sans-Serif" font-size="10.00">FiftyOneAspectEngine&lt; TData extends</text>
<text text-anchor="start" x="1774" y="-108" font-family="Helvetica,sans-Serif" font-size="10.00"> AspectData, TProperty extends FiftyOneAspectProperty</text>
<text text-anchor="middle" x="1910.5" y="-97" font-family="Helvetica,sans-Serif" font-size="10.00">MetaData &gt;</text>
</a>
</g>
</g>
<!-- Node12&#45;&gt;Node16 -->
<g id="edge27" class="edge">
<title>Node12&#45;&gt;Node16</title>
<path fill="none" stroke="orange" stroke-dasharray="5,2" d="M599.82,-249.7C685.73,-230.36 830.08,-198.65 955,-175 1011.21,-164.36 1025.1,-159.99 1082,-154 1090.39,-153.12 1530.98,-133.12 1765.73,-122.5"/>
<polygon fill="orange" stroke="orange" points="598.88,-246.33 589.89,-251.94 600.42,-253.15 598.88,-246.33"/>
<text text-anchor="middle" x="1186.5" y="-157" font-family="Helvetica,sans-Serif" font-size="10.00"> TData</text>
</g>
<!-- Node17 -->
<g id="node18" class="node">
<title>Node17</title>
<g id="a_node18"><a xlink:href="interfacefiftyone_1_1pipeline_1_1engines_1_1flowelements_1_1_on_premise_aspect_engine.html" target="_top" xlink:title="Aspect engine interface which processes data internally using a data file and populates the results.">
<polygon fill="none" stroke="black" points="1492,-65 1492,-117 1634,-117 1634,-65 1492,-65"/>
<text text-anchor="start" x="1500" y="-105" font-family="Helvetica,sans-Serif" font-size="10.00">fiftyone::pipeline</text>
<text text-anchor="start" x="1500" y="-94" font-family="Helvetica,sans-Serif" font-size="10.00">::engines::flowelements</text>
<text text-anchor="start" x="1500" y="-83" font-family="Helvetica,sans-Serif" font-size="10.00">::OnPremiseAspectEngine</text>
<text text-anchor="middle" x="1563" y="-72" font-family="Helvetica,sans-Serif" font-size="10.00">&lt; TData, TProperty &gt;</text>
</a>
</g>
</g>
<!-- Node12&#45;&gt;Node17 -->
<g id="edge25" class="edge">
<title>Node12&#45;&gt;Node17</title>
<path fill="none" stroke="orange" stroke-dasharray="5,2" d="M602.67,-245.47C603.47,-244.68 604.25,-243.85 605,-243 638.55,-204.78 585.01,-163.81 623,-130 687.37,-72.72 1284.92,-83.42 1491.85,-88.91"/>
<polygon fill="orange" stroke="orange" points="600.33,-242.87 594.77,-251.89 604.74,-248.3 600.33,-242.87"/>
<text text-anchor="middle" x="1009.5" y="-91" font-family="Helvetica,sans-Serif" font-size="10.00"> TData</text>
</g>
<!-- Node13&#45;&gt;Node6 -->
<g id="edge14" class="edge">
<title>Node13&#45;&gt;Node6</title>
<path fill="none" stroke="orange" stroke-dasharray="5,2" d="M585.39,-236.24C592.04,-238.42 598.68,-240.7 605,-243 662.22,-263.85 726.58,-291.71 768.47,-310.45"/>
<polygon fill="orange" stroke="orange" points="586.27,-232.84 575.68,-233.1 584.12,-239.5 586.27,-232.84"/>
<text text-anchor="middle" x="648.5" y="-270" font-family="Helvetica,sans-Serif" font-size="10.00"> TProperty</text>
</g>
<!-- Node13&#45;&gt;Node14 -->
<g id="edge20" class="edge">
<title>Node13&#45;&gt;Node14</title>
<path fill="none" stroke="orange" stroke-dasharray="5,2" d="M615.07,-219.32C801.72,-222.01 1227.8,-228.17 1438.85,-231.22"/>
<polygon fill="orange" stroke="orange" points="615.07,-215.82 605.02,-219.17 614.97,-222.82 615.07,-215.82"/>
<text text-anchor="middle" x="1009.5" y="-228" font-family="Helvetica,sans-Serif" font-size="10.00"> TProperty</text>
</g>
<!-- Node13&#45;&gt;Node17 -->
<g id="edge26" class="edge">
<title>Node13&#45;&gt;Node17</title>
<path fill="none" stroke="orange" stroke-dasharray="5,2" d="M534.08,-193.51C548.54,-161.89 578.46,-108.09 623,-84 772.31,-3.24 1300.08,-58.5 1491.76,-81.93"/>
<polygon fill="orange" stroke="orange" points="530.76,-192.36 529.92,-202.93 537.16,-195.19 530.76,-192.36"/>
<text text-anchor="middle" x="1009.5" y="-48" font-family="Helvetica,sans-Serif" font-size="10.00"> TProperty</text>
</g>
<!-- Node18 -->
<g id="node19" class="node">
<title>Node18</title>
<g id="a_node19"><a xlink:href="interfacefiftyone_1_1pipeline_1_1engines_1_1fiftyone_1_1data_1_1_fifty_one_aspect_property_meta_data.html" target="_top" xlink:title="51Degrees specific meta data.">
<polygon fill="none" stroke="black" points="712.5,-1 712.5,-31 916.5,-31 916.5,-1 712.5,-1"/>
<text text-anchor="start" x="720.5" y="-19" font-family="Helvetica,sans-Serif" font-size="10.00">fiftyone.pipeline.engines.fiftyone.data.</text>
<text text-anchor="middle" x="814.5" y="-8" font-family="Helvetica,sans-Serif" font-size="10.00">FiftyOneAspectPropertyMetaData</text>
</a>
</g>
</g>
<!-- Node13&#45;&gt;Node18 -->
<g id="edge29" class="edge">
<title>Node13&#45;&gt;Node18</title>
<path fill="none" stroke="midnightblue" d="M531.12,-193.14C543.3,-155.43 571.91,-84.42 623,-49 648.93,-31.02 681.5,-21.8 712.34,-17.32"/>
<polygon fill="midnightblue" stroke="midnightblue" points="527.73,-192.25 528.12,-202.84 534.42,-194.32 527.73,-192.25"/>
</g>
<!-- Node14&#45;&gt;Node1 -->
<g id="edge21" class="edge">
<title>Node14&#45;&gt;Node1</title>
<path fill="none" stroke="orange" stroke-dasharray="5,2" d="M1697.44,-230.36C1908.94,-226.18 2315.11,-218.14 2490.71,-214.67"/>
<polygon fill="orange" stroke="orange" points="1697.14,-226.87 1687.21,-230.56 1697.28,-233.86 1697.14,-226.87"/>
<text text-anchor="middle" x="2129" y="-225" font-family="Helvetica,sans-Serif" font-size="10.00"> TEngine</text>
</g>
<!-- Node14&#45;&gt;Node3 -->
<g id="edge16" class="edge">
<title>Node14&#45;&gt;Node3</title>
<path fill="none" stroke="orange" stroke-dasharray="5,2" d="M1697.22,-248.42C1723.37,-251.45 1750.79,-254.63 1776.91,-257.65"/>
<polygon fill="orange" stroke="orange" points="1697.61,-244.94 1687.27,-247.27 1696.8,-251.9 1697.61,-244.94"/>
<text text-anchor="middle" x="1726.5" y="-257" font-family="Helvetica,sans-Serif" font-size="10.00"> TEngine</text>
</g>
<!-- Node15&#45;&gt;Node14 -->
<g id="edge17" class="edge">
<title>Node15&#45;&gt;Node14</title>
<path fill="none" stroke="midnightblue" d="M1301.35,-202.38C1344.77,-207.48 1394.44,-213.31 1438.7,-218.51"/>
<polygon fill="midnightblue" stroke="midnightblue" points="1301.66,-198.89 1291.32,-201.2 1300.85,-205.84 1301.66,-198.89"/>
</g>
<!-- Node15&#45;&gt;Node17 -->
<g id="edge24" class="edge">
<title>Node15&#45;&gt;Node17</title>
<path fill="none" stroke="midnightblue" d="M1255.21,-171.28C1322.12,-153.77 1424.02,-127.11 1491.79,-109.37"/>
<polygon fill="midnightblue" stroke="midnightblue" points="1253.98,-167.98 1245.19,-173.9 1255.76,-174.76 1253.98,-167.98"/>
</g>
<!-- Node16&#45;&gt;Node0 -->
<g id="edge22" class="edge">
<title>Node16&#45;&gt;Node0</title>
<path fill="none" stroke="orange" stroke-dasharray="5,2" d="M2065.38,-121.3C2238.15,-127.25 2517.8,-136.89 2697.61,-143.08"/>
<polygon fill="orange" stroke="orange" points="2065.3,-117.8 2055.18,-120.95 2065.05,-124.79 2065.3,-117.8"/>
<text text-anchor="middle" x="2451.5" y="-138" font-family="Helvetica,sans-Serif" font-size="10.00"> TEngine</text>
</g>
<!-- Node17&#45;&gt;Node16 -->
<g id="edge23" class="edge">
<title>Node17&#45;&gt;Node16</title>
<path fill="none" stroke="midnightblue" d="M1644.32,-96.81C1680.47,-99.43 1724.28,-102.6 1765.79,-105.6"/>
<polygon fill="midnightblue" stroke="midnightblue" points="1644.56,-93.32 1634.33,-96.09 1644.05,-100.3 1644.56,-93.32"/>
</g>
<!-- Node18&#45;&gt;Node16 -->
<g id="edge28" class="edge">
<title>Node18&#45;&gt;Node16</title>
<path fill="none" stroke="orange" stroke-dasharray="5,2" d="M926.97,-12.04C1093.65,-8.12 1417.12,-8.31 1687,-55 1734.85,-63.28 1787.29,-77.4 1829.23,-89.97"/>
<polygon fill="orange" stroke="orange" points="926.62,-8.54 916.71,-12.29 926.79,-15.54 926.62,-8.54"/>
<text text-anchor="middle" x="1365" y="-26" font-family="Helvetica,sans-Serif" font-size="10.00"> TProperty</text>
</g>
<!-- Node19 -->
<g id="node20" class="node">
<title>Node19</title>
<g id="a_node20"><a xlink:title=" ">
<polygon fill="none" stroke="#bfbfbf" points="490.5,-0.5 490.5,-19.5 555.5,-19.5 555.5,-0.5 490.5,-0.5"/>
<text text-anchor="middle" x="523" y="-7.5" font-family="Helvetica,sans-Serif" font-size="10.00">Closeable</text>
</a>
</g>
</g>
<!-- Node19&#45;&gt;Node18 -->
<g id="edge30" class="edge">
<title>Node19&#45;&gt;Node18</title>
<path fill="none" stroke="midnightblue" d="M565.76,-10.87C603.96,-11.66 662.02,-12.86 712.33,-13.9"/>
<polygon fill="midnightblue" stroke="midnightblue" points="565.6,-7.36 555.53,-10.65 565.46,-14.36 565.6,-7.36"/>
</g>
</g>
</svg>
