<?xml version="1.0" encoding="UTF-8" standalone="no"?>
<!DOCTYPE svg PUBLIC "-//W3C//DTD SVG 1.1//EN"
 "http://www.w3.org/Graphics/SVG/1.1/DTD/svg11.dtd">
<!-- Generated by graphviz version 2.43.0 (0)
 -->
<!-- Title: fiftyone.pipeline.cloudrequestengine.flowelements.PropertyKeyedCloudEngineBase&lt; TData extends MultiProfileData&lt; TProfile, TProfile extends AspectData &gt; Pages: 1 -->
<svg width="2826pt" height="605pt"
 viewBox="0.00 0.00 2826.00 605.00" xmlns="http://www.w3.org/2000/svg" xmlns:xlink="http://www.w3.org/1999/xlink">
<g id="graph0" class="graph" transform="scale(1 1) rotate(0) translate(4 601)">
<title>fiftyone.pipeline.cloudrequestengine.flowelements.PropertyKeyedCloudEngineBase&lt; TData extends MultiProfileData&lt; TProfile, TProfile extends AspectData &gt;</title>
<!-- Node17 -->
<g id="node1" class="node">
<title>Node17</title>
<g id="a_node1"><a xlink:title="A specialised type of CloudAspectEngineBase that has the functionality to support returning a list of...">
<polygon fill="#bfbfbf" stroke="black" points="2552,-0.5 2552,-52.5 2818,-52.5 2818,-0.5 2552,-0.5"/>
<text text-anchor="start" x="2560" y="-40.5" font-family="Helvetica,sans-Serif" font-size="10.00">fiftyone.pipeline.cloudrequestengine.flowelements.</text>
<text text-anchor="start" x="2560" y="-29.5" font-family="Helvetica,sans-Serif" font-size="10.00">PropertyKeyedCloudEngineBase&lt; TData</text>
<text text-anchor="start" x="2560" y="-18.5" font-family="Helvetica,sans-Serif" font-size="10.00"> extends MultiProfileData&lt; TProfile,</text>
<text text-anchor="middle" x="2685" y="-7.5" font-family="Helvetica,sans-Serif" font-size="10.00"> TProfile extends AspectData &gt;</text>
</a>
</g>
</g>
<!-- Node18 -->
<g id="node2" class="node">
<title>Node18</title>
<g id="a_node2"><a xlink:href="classfiftyone_1_1pipeline_1_1cloudrequestengine_1_1flowelements_1_1_cloud_aspect_engine_base.html" target="_top" xlink:title=" ">
<polygon fill="none" stroke="black" points="2249,-45.5 2249,-75.5 2515,-75.5 2515,-45.5 2249,-45.5"/>
<text text-anchor="start" x="2257" y="-63.5" font-family="Helvetica,sans-Serif" font-size="10.00">fiftyone.pipeline.cloudrequestengine.flowelements.</text>
<text text-anchor="middle" x="2382" y="-52.5" font-family="Helvetica,sans-Serif" font-size="10.00">CloudAspectEngineBase&lt; TData &gt;</text>
</a>
</g>
</g>
<!-- Node18&#45;&gt;Node17 -->
<g id="edge1" class="edge">
<title>Node18&#45;&gt;Node17</title>
<path fill="none" stroke="midnightblue" d="M2525.03,-44.46C2533.91,-43.45 2542.84,-42.45 2551.68,-41.45"/>
<polygon fill="midnightblue" stroke="midnightblue" points="2524.57,-40.99 2515.02,-45.59 2525.35,-47.94 2524.57,-40.99"/>
</g>
<!-- Node19 -->
<g id="node3" class="node">
<title>Node19</title>
<g id="a_node3"><a xlink:href="classfiftyone_1_1pipeline_1_1cloudrequestengine_1_1flowelements_1_1_cloud_aspect_engine_base.html" target="_top" xlink:title="Base class for 51Degrees Cloud Aspect Engines.">
<polygon fill="none" stroke="black" points="1892,-54 1892,-95 2158,-95 2158,-54 1892,-54"/>
<text text-anchor="start" x="1900" y="-83" font-family="Helvetica,sans-Serif" font-size="10.00">fiftyone.pipeline.cloudrequestengine.flowelements.</text>
<text text-anchor="start" x="1900" y="-72" font-family="Helvetica,sans-Serif" font-size="10.00">CloudAspectEngineBase&lt; TData extends</text>
<text text-anchor="middle" x="2025" y="-61" font-family="Helvetica,sans-Serif" font-size="10.00"> AspectData &gt;</text>
</a>
</g>
</g>
<!-- Node19&#45;&gt;Node18 -->
<g id="edge2" class="edge">
<title>Node19&#45;&gt;Node18</title>
<path fill="none" stroke="orange" stroke-dasharray="5,2" d="M2168.34,-68.89C2194.97,-67.84 2222.7,-66.74 2249,-65.71"/>
<polygon fill="orange" stroke="orange" points="2168.04,-65.4 2158.19,-69.29 2168.32,-72.39 2168.04,-65.4"/>
<text text-anchor="middle" x="2203.5" y="-71.5" font-family="Helvetica,sans-Serif" font-size="10.00"> &lt; TData &gt;</text>
</g>
<!-- Node20 -->
<g id="node4" class="node">
<title>Node20</title>
<g id="a_node4"><a xlink:href="classfiftyone_1_1pipeline_1_1engines_1_1flowelements_1_1_aspect_engine_base.html" target="_top" xlink:title="Base class for AspectEngines to extend.">
<polygon fill="none" stroke="black" points="1697,-267.5 1697,-319.5 1853,-319.5 1853,-267.5 1697,-267.5"/>
<text text-anchor="start" x="1705" y="-307.5" font-family="Helvetica,sans-Serif" font-size="10.00">fiftyone::pipeline</text>
<text text-anchor="start" x="1705" y="-296.5" font-family="Helvetica,sans-Serif" font-size="10.00">::engines::flowelements</text>
<text text-anchor="start" x="1705" y="-285.5" font-family="Helvetica,sans-Serif" font-size="10.00">::AspectEngineBase&lt; TData,</text>
<text text-anchor="middle" x="1775" y="-274.5" font-family="Helvetica,sans-Serif" font-size="10.00"> AspectPropertyMetaData &gt;</text>
</a>
</g>
</g>
<!-- Node20&#45;&gt;Node19 -->
<g id="edge3" class="edge">
<title>Node20&#45;&gt;Node19</title>
<path fill="none" stroke="midnightblue" d="M1813.58,-260.32C1865.48,-214.48 1957.58,-133.16 2000.62,-95.15"/>
<polygon fill="midnightblue" stroke="midnightblue" points="1811.09,-257.84 1805.91,-267.08 1815.73,-263.09 1811.09,-257.84"/>
</g>
<!-- Node21 -->
<g id="node5" class="node">
<title>Node21</title>
<g id="a_node5"><a xlink:href="classfiftyone_1_1pipeline_1_1core_1_1flowelements_1_1_flow_element_base.html" target="_top" xlink:title="Provides a base class from which authors may create new FlowElements.">
<polygon fill="none" stroke="black" points="1358.5,-355.5 1358.5,-407.5 1512.5,-407.5 1512.5,-355.5 1358.5,-355.5"/>
<text text-anchor="start" x="1366.5" y="-395.5" font-family="Helvetica,sans-Serif" font-size="10.00">fiftyone::pipeline</text>
<text text-anchor="start" x="1366.5" y="-384.5" font-family="Helvetica,sans-Serif" font-size="10.00">::core::flowelements</text>
<text text-anchor="start" x="1366.5" y="-373.5" font-family="Helvetica,sans-Serif" font-size="10.00">::FlowElementBase&lt; TData,</text>
<text text-anchor="middle" x="1435.5" y="-362.5" font-family="Helvetica,sans-Serif" font-size="10.00"> TProperty &gt;</text>
</a>
</g>
</g>
<!-- Node21&#45;&gt;Node20 -->
<g id="edge4" class="edge">
<title>Node21&#45;&gt;Node20</title>
<path fill="none" stroke="midnightblue" d="M1522.52,-359.07C1576.29,-345.05 1644.96,-327.15 1696.95,-313.59"/>
<polygon fill="midnightblue" stroke="midnightblue" points="1521.46,-355.73 1512.66,-361.64 1523.22,-362.5 1521.46,-355.73"/>
</g>
<!-- Node22 -->
<g id="node6" class="node">
<title>Node22</title>
<g id="a_node6"><a xlink:href="interfacefiftyone_1_1pipeline_1_1core_1_1flowelements_1_1_flow_element.html" target="_top" xlink:title=" ">
<polygon fill="none" stroke="black" points="968,-352.5 968,-382.5 1159,-382.5 1159,-352.5 968,-352.5"/>
<text text-anchor="start" x="976" y="-370.5" font-family="Helvetica,sans-Serif" font-size="10.00">fiftyone.pipeline.core.flowelements.</text>
<text text-anchor="middle" x="1063.5" y="-359.5" font-family="Helvetica,sans-Serif" font-size="10.00">FlowElement&lt; TData, TProperty &gt;</text>
</a>
</g>
</g>
<!-- Node22&#45;&gt;Node21 -->
<g id="edge5" class="edge">
<title>Node22&#45;&gt;Node21</title>
<path fill="none" stroke="midnightblue" d="M1169.59,-371.48C1229.71,-373.75 1303.76,-376.55 1358.28,-378.62"/>
<polygon fill="midnightblue" stroke="midnightblue" points="1169.43,-367.97 1159.3,-371.09 1169.16,-374.96 1169.43,-367.97"/>
</g>
<!-- Node23 -->
<g id="node7" class="node">
<title>Node23</title>
<g id="a_node7"><a xlink:href="interfacefiftyone_1_1pipeline_1_1core_1_1flowelements_1_1_flow_element.html" target="_top" xlink:title="A component that processes a FlowData (by examining its evidence, or by examining data processed by o...">
<polygon fill="none" stroke="black" points="543,-341 543,-382 796,-382 796,-341 543,-341"/>
<text text-anchor="start" x="551" y="-370" font-family="Helvetica,sans-Serif" font-size="10.00">fiftyone.pipeline.core.flowelements.</text>
<text text-anchor="start" x="551" y="-359" font-family="Helvetica,sans-Serif" font-size="10.00">FlowElement&lt; TData extends ElementData,</text>
<text text-anchor="middle" x="669.5" y="-348" font-family="Helvetica,sans-Serif" font-size="10.00"> TProperty extends ElementPropertyMetaData &gt;</text>
</a>
</g>
</g>
<!-- Node23&#45;&gt;Node22 -->
<g id="edge6" class="edge">
<title>Node23&#45;&gt;Node22</title>
<path fill="none" stroke="orange" stroke-dasharray="5,2" d="M806.35,-363.58C859.55,-364.39 919.29,-365.31 967.69,-366.05"/>
<polygon fill="orange" stroke="orange" points="806.2,-360.08 796.15,-363.42 806.09,-367.08 806.2,-360.08"/>
<text text-anchor="middle" x="868.5" y="-367.5" font-family="Helvetica,sans-Serif" font-size="10.00"> &lt; TData, TProperty &gt;</text>
</g>
<!-- Node24 -->
<g id="node8" class="node">
<title>Node24</title>
<g id="a_node8"><a xlink:title=" ">
<polygon fill="none" stroke="#bfbfbf" points="339,-316 339,-335 426,-335 426,-316 339,-316"/>
<text text-anchor="middle" x="382.5" y="-323" font-family="Helvetica,sans-Serif" font-size="10.00">AutoCloseable</text>
</a>
</g>
</g>
<!-- Node24&#45;&gt;Node23 -->
<g id="edge7" class="edge">
<title>Node24&#45;&gt;Node23</title>
<path fill="none" stroke="midnightblue" d="M429.03,-337.48C443.33,-340.86 459.25,-344.23 474,-346.5 496.18,-349.91 519.9,-352.56 542.89,-354.61"/>
<polygon fill="midnightblue" stroke="midnightblue" points="429.48,-333.99 418.93,-335.03 427.83,-340.79 429.48,-333.99"/>
</g>
<!-- Node33 -->
<g id="node17" class="node">
<title>Node33</title>
<g id="a_node17"><a xlink:href="interfacefiftyone_1_1pipeline_1_1core_1_1flowelements_1_1_flow_element.html" target="_top" xlink:title="A component that processes a FlowData (by examining its evidence, or by examining data processed by o...">
<polygon fill="none" stroke="black" points="604.5,-254.5 604.5,-306.5 734.5,-306.5 734.5,-254.5 604.5,-254.5"/>
<text text-anchor="start" x="612.5" y="-294.5" font-family="Helvetica,sans-Serif" font-size="10.00">fiftyone::pipeline</text>
<text text-anchor="start" x="612.5" y="-283.5" font-family="Helvetica,sans-Serif" font-size="10.00">::core::flowelements</text>
<text text-anchor="start" x="612.5" y="-272.5" font-family="Helvetica,sans-Serif" font-size="10.00">::FlowElement&lt; TData,</text>
<text text-anchor="middle" x="669.5" y="-261.5" font-family="Helvetica,sans-Serif" font-size="10.00"> TProperty &gt;</text>
</a>
</g>
</g>
<!-- Node24&#45;&gt;Node33 -->
<g id="edge19" class="edge">
<title>Node24&#45;&gt;Node33</title>
<path fill="none" stroke="midnightblue" d="M436.24,-317.17C483.74,-309.67 553.68,-298.63 604.39,-290.62"/>
<polygon fill="midnightblue" stroke="midnightblue" points="435.5,-313.75 426.17,-318.76 436.59,-320.66 435.5,-313.75"/>
</g>
<!-- Node25 -->
<g id="node9" class="node">
<title>Node25</title>
<g id="a_node9"><a xlink:href="interfacefiftyone_1_1pipeline_1_1core_1_1data_1_1_element_data.html" target="_top" xlink:title="Represents property values that have be determined by a specific FlowElement based on the supplied ev...">
<polygon fill="none" stroke="black" points="309,-210.5 309,-240.5 456,-240.5 456,-210.5 309,-210.5"/>
<text text-anchor="start" x="317" y="-228.5" font-family="Helvetica,sans-Serif" font-size="10.00">fiftyone.pipeline.core.data.</text>
<text text-anchor="middle" x="382.5" y="-217.5" font-family="Helvetica,sans-Serif" font-size="10.00">ElementData</text>
</a>
</g>
</g>
<!-- Node25&#45;&gt;Node21 -->
<g id="edge14" class="edge">
<title>Node25&#45;&gt;Node21</title>
<path fill="none" stroke="orange" stroke-dasharray="5,2" d="M466.3,-214.37C599.81,-198.34 854.62,-176.24 923,-230.5 949.52,-251.54 916.08,-281.59 941,-304.5 942.92,-306.26 1220.27,-348.8 1358.29,-369.88"/>
<polygon fill="orange" stroke="orange" points="465.62,-210.93 456.12,-215.61 466.47,-217.88 465.62,-210.93"/>
<text text-anchor="middle" x="868.5" y="-233.5" font-family="Helvetica,sans-Serif" font-size="10.00"> TData</text>
</g>
<!-- Node25&#45;&gt;Node23 -->
<g id="edge8" class="edge">
<title>Node25&#45;&gt;Node23</title>
<path fill="none" stroke="orange" stroke-dasharray="5,2" d="M415.66,-246.07C447.27,-265.74 497.27,-295.45 543,-316.5 562.55,-325.5 584.46,-333.9 604.44,-340.95"/>
<polygon fill="orange" stroke="orange" points="417.2,-242.9 406.86,-240.56 413.48,-248.83 417.2,-242.9"/>
<text text-anchor="middle" x="499.5" y="-308.5" font-family="Helvetica,sans-Serif" font-size="10.00"> TData</text>
</g>
<!-- Node25&#45;&gt;Node33 -->
<g id="edge20" class="edge">
<title>Node25&#45;&gt;Node33</title>
<path fill="none" stroke="orange" stroke-dasharray="5,2" d="M466.17,-233.47C485.55,-235.88 506.07,-238.87 525,-242.5 551.2,-247.52 579.67,-254.69 604.29,-261.45"/>
<polygon fill="orange" stroke="orange" points="466.5,-229.98 456.15,-232.26 465.66,-236.93 466.5,-229.98"/>
<text text-anchor="middle" x="499.5" y="-245.5" font-family="Helvetica,sans-Serif" font-size="10.00"> TData</text>
</g>
<!-- Node34 -->
<g id="node18" class="node">
<title>Node34</title>
<g id="a_node18"><a xlink:href="interfacefiftyone_1_1pipeline_1_1engines_1_1data_1_1_aspect_data.html" target="_top" xlink:title="Represents a specialized ElementData instance that is generated by an AspectEngine.">
<polygon fill="none" stroke="black" points="587.5,-103.5 587.5,-133.5 751.5,-133.5 751.5,-103.5 587.5,-103.5"/>
<text text-anchor="start" x="595.5" y="-121.5" font-family="Helvetica,sans-Serif" font-size="10.00">fiftyone.pipeline.engines.data.</text>
<text text-anchor="middle" x="669.5" y="-110.5" font-family="Helvetica,sans-Serif" font-size="10.00">AspectData</text>
</a>
</g>
</g>
<!-- Node25&#45;&gt;Node34 -->
<g id="edge23" class="edge">
<title>Node25&#45;&gt;Node34</title>
<path fill="none" stroke="midnightblue" d="M433.35,-206.79C488.81,-185.96 577.33,-152.73 628.48,-133.53"/>
<polygon fill="midnightblue" stroke="midnightblue" points="431.86,-203.6 423.73,-210.4 434.32,-210.16 431.86,-203.6"/>
</g>
<!-- Node26 -->
<g id="node10" class="node">
<title>Node26</title>
<g id="a_node10"><a xlink:href="interfacefiftyone_1_1pipeline_1_1core_1_1data_1_1_data.html" target="_top" xlink:title="Represents a collection of property values.">
<polygon fill="none" stroke="black" points="102,-216 102,-235 272,-235 272,-216 102,-216"/>
<text text-anchor="middle" x="187" y="-223" font-family="Helvetica,sans-Serif" font-size="10.00">fiftyone.pipeline.core.data.Data</text>
</a>
</g>
</g>
<!-- Node26&#45;&gt;Node25 -->
<g id="edge9" class="edge">
<title>Node26&#45;&gt;Node25</title>
<path fill="none" stroke="midnightblue" d="M282.11,-225.5C291.07,-225.5 300.06,-225.5 308.77,-225.5"/>
<polygon fill="midnightblue" stroke="midnightblue" points="282.03,-222 272.03,-225.5 282.03,-229 282.03,-222"/>
</g>
<!-- Node27 -->
<g id="node11" class="node">
<title>Node27</title>
<g id="a_node11"><a xlink:href="interfacefiftyone_1_1pipeline_1_1core_1_1data_1_1_element_property_meta_data.html" target="_top" xlink:title="Defines details of a property that can be returned by a FlowElement.">
<polygon fill="none" stroke="black" points="309,-391.5 309,-421.5 456,-421.5 456,-391.5 309,-391.5"/>
<text text-anchor="start" x="317" y="-409.5" font-family="Helvetica,sans-Serif" font-size="10.00">fiftyone.pipeline.core.data.</text>
<text text-anchor="middle" x="382.5" y="-398.5" font-family="Helvetica,sans-Serif" font-size="10.00">ElementPropertyMetaData</text>
</a>
</g>
</g>
<!-- Node27&#45;&gt;Node21 -->
<g id="edge15" class="edge">
<title>Node27&#45;&gt;Node21</title>
<path fill="none" stroke="orange" stroke-dasharray="5,2" d="M405.45,-428.74C434.12,-456.04 487.26,-500.89 543,-518.5 679.25,-561.56 1043.36,-526.89 1186,-518.5 1242.74,-515.16 1261.88,-528.35 1313,-503.5 1357.9,-481.67 1395.92,-436.41 1416.93,-407.57"/>
<polygon fill="orange" stroke="orange" points="407.64,-425.99 398.03,-421.54 402.77,-431.01 407.64,-425.99"/>
<text text-anchor="middle" x="868.5" y="-541.5" font-family="Helvetica,sans-Serif" font-size="10.00"> TProperty</text>
</g>
<!-- Node27&#45;&gt;Node23 -->
<g id="edge10" class="edge">
<title>Node27&#45;&gt;Node23</title>
<path fill="none" stroke="orange" stroke-dasharray="5,2" d="M466.24,-393.44C490.18,-389.66 516.88,-385.44 542.82,-381.34"/>
<polygon fill="orange" stroke="orange" points="465.49,-390.01 456.15,-395.03 466.58,-396.93 465.49,-390.01"/>
<text text-anchor="middle" x="499.5" y="-394.5" font-family="Helvetica,sans-Serif" font-size="10.00"> TProperty</text>
</g>
<!-- Node27&#45;&gt;Node33 -->
<g id="edge21" class="edge">
<title>Node27&#45;&gt;Node33</title>
<path fill="none" stroke="orange" stroke-dasharray="5,2" d="M423.22,-387.1C455.33,-371.59 501.8,-349.54 543,-331.5 562.82,-322.82 584.6,-313.79 604.38,-305.79"/>
<polygon fill="orange" stroke="orange" points="421.63,-383.98 414.15,-391.49 424.68,-390.28 421.63,-383.98"/>
<text text-anchor="middle" x="499.5" y="-364.5" font-family="Helvetica,sans-Serif" font-size="10.00"> TProperty</text>
</g>
<!-- Node35 -->
<g id="node19" class="node">
<title>Node35</title>
<g id="a_node19"><a xlink:href="interfacefiftyone_1_1pipeline_1_1engines_1_1data_1_1_aspect_property_meta_data.html" target="_top" xlink:title="Holds details about a property that can be returned by an AspectEngine.">
<polygon fill="none" stroke="black" points="587.5,-402.5 587.5,-432.5 751.5,-432.5 751.5,-402.5 587.5,-402.5"/>
<text text-anchor="start" x="595.5" y="-420.5" font-family="Helvetica,sans-Serif" font-size="10.00">fiftyone.pipeline.engines.data.</text>
<text text-anchor="middle" x="669.5" y="-409.5" font-family="Helvetica,sans-Serif" font-size="10.00">AspectPropertyMetaData</text>
</a>
</g>
</g>
<!-- Node27&#45;&gt;Node35 -->
<g id="edge25" class="edge">
<title>Node27&#45;&gt;Node35</title>
<path fill="none" stroke="midnightblue" d="M466.2,-409.69C504.35,-411.16 549.49,-412.91 587.43,-414.37"/>
<polygon fill="midnightblue" stroke="midnightblue" points="466.28,-406.19 456.15,-409.3 466.01,-413.19 466.28,-406.19"/>
</g>
<!-- Node28 -->
<g id="node12" class="node">
<title>Node28</title>
<g id="a_node12"><a xlink:href="interfacefiftyone_1_1pipeline_1_1core_1_1typed_1_1_typed_key.html" target="_top" xlink:title=" ">
<polygon fill="none" stroke="black" points="987,-478.5 987,-508.5 1140,-508.5 1140,-478.5 987,-478.5"/>
<text text-anchor="start" x="995" y="-496.5" font-family="Helvetica,sans-Serif" font-size="10.00">fiftyone.pipeline.core.typed.</text>
<text text-anchor="middle" x="1063.5" y="-485.5" font-family="Helvetica,sans-Serif" font-size="10.00">TypedKey&lt; TData &gt;</text>
</a>
</g>
</g>
<!-- Node28&#45;&gt;Node21 -->
<g id="edge11" class="edge">
<title>Node28&#45;&gt;Node21</title>
<path fill="none" stroke="#9a32cd" stroke-dasharray="5,2" d="M1150.34,-493.57C1199.35,-491.15 1261.15,-483.88 1313,-464.5 1347.46,-451.62 1381.59,-426.97 1404.87,-407.86"/>
<polygon fill="#9a32cd" stroke="#9a32cd" points="1149.93,-490.08 1140.09,-494.01 1150.23,-497.08 1149.93,-490.08"/>
<text text-anchor="middle" x="1258.5" y="-491.5" font-family="Helvetica,sans-Serif" font-size="10.00"> typedKey</text>
</g>
<!-- Node29 -->
<g id="node13" class="node">
<title>Node29</title>
<g id="a_node13"><a xlink:href="interfacefiftyone_1_1pipeline_1_1core_1_1typed_1_1_typed_key.html" target="_top" xlink:title="Holds a name and a type to allow for type safe operations on named values.">
<polygon fill="none" stroke="black" points="593,-478.5 593,-508.5 746,-508.5 746,-478.5 593,-478.5"/>
<text text-anchor="start" x="601" y="-496.5" font-family="Helvetica,sans-Serif" font-size="10.00">fiftyone.pipeline.core.typed.</text>
<text text-anchor="middle" x="669.5" y="-485.5" font-family="Helvetica,sans-Serif" font-size="10.00">TypedKey&lt; T &gt;</text>
</a>
</g>
</g>
<!-- Node29&#45;&gt;Node28 -->
<g id="edge12" class="edge">
<title>Node29&#45;&gt;Node28</title>
<path fill="none" stroke="orange" stroke-dasharray="5,2" d="M756.46,-493.5C825.28,-493.5 920.87,-493.5 986.82,-493.5"/>
<polygon fill="orange" stroke="orange" points="756.08,-490 746.08,-493.5 756.08,-497 756.08,-490"/>
<text text-anchor="middle" x="868.5" y="-496.5" font-family="Helvetica,sans-Serif" font-size="10.00"> &lt; TData &gt;</text>
</g>
<!-- Node30 -->
<g id="node14" class="node">
<title>Node30</title>
<g id="a_node14"><a xlink:title=" ">
<polygon fill="none" stroke="#bfbfbf" points="1038.5,-402 1038.5,-421 1088.5,-421 1088.5,-402 1038.5,-402"/>
<text text-anchor="middle" x="1063.5" y="-409" font-family="Helvetica,sans-Serif" font-size="10.00">Logger</text>
</a>
</g>
</g>
<!-- Node30&#45;&gt;Node21 -->
<g id="edge13" class="edge">
<title>Node30&#45;&gt;Node21</title>
<path fill="none" stroke="#9a32cd" stroke-dasharray="5,2" d="M1099.02,-408.7C1157.87,-403.93 1278.97,-394.11 1358.42,-387.67"/>
<polygon fill="#9a32cd" stroke="#9a32cd" points="1098.46,-405.23 1088.78,-409.53 1099.03,-412.21 1098.46,-405.23"/>
<text text-anchor="middle" x="1258.5" y="-402.5" font-family="Helvetica,sans-Serif" font-size="10.00"> logger</text>
</g>
<!-- Node31 -->
<g id="node15" class="node">
<title>Node31</title>
<g id="a_node15"><a xlink:href="interfacefiftyone_1_1pipeline_1_1engines_1_1flowelements_1_1_aspect_engine.html" target="_top" xlink:title=" ">
<polygon fill="none" stroke="black" points="1331,-171.5 1331,-201.5 1540,-201.5 1540,-171.5 1331,-171.5"/>
<text text-anchor="start" x="1339" y="-189.5" font-family="Helvetica,sans-Serif" font-size="10.00">fiftyone.pipeline.engines.flowelements.</text>
<text text-anchor="middle" x="1435.5" y="-178.5" font-family="Helvetica,sans-Serif" font-size="10.00">AspectEngine&lt; TData, TProperty &gt;</text>
</a>
</g>
</g>
<!-- Node31&#45;&gt;Node20 -->
<g id="edge16" class="edge">
<title>Node31&#45;&gt;Node20</title>
<path fill="none" stroke="midnightblue" d="M1493.87,-204.69C1549.7,-222.39 1634.92,-249.41 1696.7,-268.99"/>
<polygon fill="midnightblue" stroke="midnightblue" points="1494.73,-201.29 1484.14,-201.6 1492.61,-207.96 1494.73,-201.29"/>
</g>
<!-- Node44 -->
<g id="node28" class="node">
<title>Node44</title>
<g id="a_node28"><a xlink:href="interfacefiftyone_1_1pipeline_1_1engines_1_1flowelements_1_1_cloud_aspect_engine.html" target="_top" xlink:title="Aspect engine interface which is specific to a cloud engine.">
<polygon fill="none" stroke="black" points="1695,-93.5 1695,-145.5 1855,-145.5 1855,-93.5 1695,-93.5"/>
<text text-anchor="start" x="1703" y="-133.5" font-family="Helvetica,sans-Serif" font-size="10.00">fiftyone::pipeline</text>
<text text-anchor="start" x="1703" y="-122.5" font-family="Helvetica,sans-Serif" font-size="10.00">::engines::flowelements</text>
<text text-anchor="start" x="1703" y="-111.5" font-family="Helvetica,sans-Serif" font-size="10.00">::CloudAspectEngine&lt; TData,</text>
<text text-anchor="middle" x="1775" y="-100.5" font-family="Helvetica,sans-Serif" font-size="10.00"> AspectPropertyMetaData &gt;</text>
</a>
</g>
</g>
<!-- Node31&#45;&gt;Node44 -->
<g id="edge37" class="edge">
<title>Node31&#45;&gt;Node44</title>
<path fill="none" stroke="midnightblue" d="M1522.32,-169.46C1575.45,-158.91 1643.18,-145.47 1694.99,-135.18"/>
<polygon fill="midnightblue" stroke="midnightblue" points="1521.37,-166.08 1512.24,-171.46 1522.73,-172.95 1521.37,-166.08"/>
</g>
<!-- Node32 -->
<g id="node16" class="node">
<title>Node32</title>
<g id="a_node16"><a xlink:href="interfacefiftyone_1_1pipeline_1_1engines_1_1flowelements_1_1_aspect_engine.html" target="_top" xlink:title="AspectEngines are a subset of FlowElements.">
<polygon fill="none" stroke="black" points="941,-166 941,-207 1186,-207 1186,-166 941,-166"/>
<text text-anchor="start" x="949" y="-195" font-family="Helvetica,sans-Serif" font-size="10.00">fiftyone.pipeline.engines.flowelements.</text>
<text text-anchor="start" x="949" y="-184" font-family="Helvetica,sans-Serif" font-size="10.00">AspectEngine&lt; TData extends AspectData,</text>
<text text-anchor="middle" x="1063.5" y="-173" font-family="Helvetica,sans-Serif" font-size="10.00"> TProperty extends AspectPropertyMetaData &gt;</text>
</a>
</g>
</g>
<!-- Node32&#45;&gt;Node31 -->
<g id="edge17" class="edge">
<title>Node32&#45;&gt;Node31</title>
<path fill="none" stroke="orange" stroke-dasharray="5,2" d="M1196.39,-186.5C1240.53,-186.5 1289.07,-186.5 1330.74,-186.5"/>
<polygon fill="orange" stroke="orange" points="1196.16,-183 1186.16,-186.5 1196.16,-190 1196.16,-183"/>
<text text-anchor="middle" x="1258.5" y="-189.5" font-family="Helvetica,sans-Serif" font-size="10.00"> &lt; TData, TProperty &gt;</text>
</g>
<!-- Node33&#45;&gt;Node32 -->
<g id="edge18" class="edge">
<title>Node33&#45;&gt;Node32</title>
<path fill="none" stroke="midnightblue" d="M744.43,-263.05C794.78,-251.14 862.94,-234.96 923,-220.5 940.93,-216.18 960.16,-211.52 978.42,-207.07"/>
<polygon fill="midnightblue" stroke="midnightblue" points="743.53,-259.67 734.61,-265.37 745.14,-266.48 743.53,-259.67"/>
</g>
<!-- Node34&#45;&gt;Node17 -->
<g id="edge41" class="edge">
<title>Node34&#45;&gt;Node17</title>
<path fill="none" stroke="orange" stroke-dasharray="5,2" d="M713.02,-99.43C783.94,-69.4 931.54,-14.5 1062.5,-14.5 1062.5,-14.5 1062.5,-14.5 2383,-14.5 2438.31,-14.5 2499.28,-16.55 2551.81,-18.95"/>
<polygon fill="orange" stroke="orange" points="711.35,-96.33 703.53,-103.49 714.1,-102.77 711.35,-96.33"/>
<text text-anchor="middle" x="1775" y="-17.5" font-family="Helvetica,sans-Serif" font-size="10.00"> TProfile</text>
</g>
<!-- Node34&#45;&gt;Node19 -->
<g id="edge40" class="edge">
<title>Node34&#45;&gt;Node19</title>
<path fill="none" stroke="orange" stroke-dasharray="5,2" d="M743.12,-101.23C821.45,-84.13 950.08,-60.5 1062.5,-60.5 1062.5,-60.5 1062.5,-60.5 1776,-60.5 1813.63,-60.5 1854.41,-62.13 1891.83,-64.27"/>
<polygon fill="orange" stroke="orange" points="741.89,-97.92 732.88,-103.49 743.4,-104.75 741.89,-97.92"/>
<text text-anchor="middle" x="1435.5" y="-63.5" font-family="Helvetica,sans-Serif" font-size="10.00"> TData</text>
</g>
<!-- Node34&#45;&gt;Node20 -->
<g id="edge34" class="edge">
<title>Node34&#45;&gt;Node20</title>
<path fill="none" stroke="orange" stroke-dasharray="5,2" d="M761.6,-122.09C977.05,-130.7 1502.69,-152.48 1540,-161.5 1618.89,-180.57 1698.64,-234.7 1741.64,-267.42"/>
<polygon fill="orange" stroke="orange" points="761.71,-118.59 751.58,-121.69 761.43,-125.58 761.71,-118.59"/>
<text text-anchor="middle" x="1258.5" y="-149.5" font-family="Helvetica,sans-Serif" font-size="10.00"> TData</text>
</g>
<!-- Node34&#45;&gt;Node32 -->
<g id="edge22" class="edge">
<title>Node34&#45;&gt;Node32</title>
<path fill="none" stroke="orange" stroke-dasharray="5,2" d="M740.45,-135.86C763.76,-141.3 789.92,-147.04 814,-151.5 855.13,-159.11 900.35,-165.94 940.82,-171.49"/>
<polygon fill="orange" stroke="orange" points="741.19,-132.44 730.65,-133.55 739.59,-139.25 741.19,-132.44"/>
<text text-anchor="middle" x="868.5" y="-172.5" font-family="Helvetica,sans-Serif" font-size="10.00"> TData</text>
</g>
<!-- Node34&#45;&gt;Node44 -->
<g id="edge38" class="edge">
<title>Node34&#45;&gt;Node44</title>
<path fill="none" stroke="orange" stroke-dasharray="5,2" d="M761.89,-114.91C886.48,-110.45 1116.61,-103.73 1313,-106.5 1447.1,-108.39 1603.07,-113.37 1694.89,-116.59"/>
<polygon fill="orange" stroke="orange" points="761.5,-111.42 751.64,-115.28 761.76,-118.42 761.5,-111.42"/>
<text text-anchor="middle" x="1258.5" y="-109.5" font-family="Helvetica,sans-Serif" font-size="10.00"> TData</text>
</g>
<!-- Node35&#45;&gt;Node20 -->
<g id="edge35" class="edge">
<title>Node35&#45;&gt;Node20</title>
<path fill="none" stroke="orange" stroke-dasharray="5,2" d="M761.66,-423.28C953.96,-434.53 1395.31,-455.15 1540,-417.5 1615.42,-397.88 1693.55,-349.88 1737.74,-319.68"/>
<polygon fill="orange" stroke="orange" points="761.77,-419.78 751.58,-422.69 761.36,-426.77 761.77,-419.78"/>
<text text-anchor="middle" x="1258.5" y="-441.5" font-family="Helvetica,sans-Serif" font-size="10.00"> TProperty</text>
</g>
<!-- Node35&#45;&gt;Node32 -->
<g id="edge24" class="edge">
<title>Node35&#45;&gt;Node32</title>
<path fill="none" stroke="orange" stroke-dasharray="5,2" d="M761.2,-412.62C774.31,-408.23 786.54,-401.53 796,-391.5 833.9,-351.3 776.18,-308.77 814,-268.5 847.9,-232.41 881.25,-272.12 923,-245.5 934.24,-238.33 930.02,-229.07 941,-221.5 949.22,-215.83 958.36,-211.07 967.83,-207.07"/>
<polygon fill="orange" stroke="orange" points="760.16,-409.28 751.53,-415.43 762.11,-416 760.16,-409.28"/>
<text text-anchor="middle" x="868.5" y="-271.5" font-family="Helvetica,sans-Serif" font-size="10.00"> TProperty</text>
</g>
<!-- Node35&#45;&gt;Node44 -->
<g id="edge39" class="edge">
<title>Node35&#45;&gt;Node44</title>
<path fill="none" stroke="orange" stroke-dasharray="5,2" d="M761.67,-408.32C773.94,-404.39 785.8,-398.96 796,-391.5 809.17,-381.87 803.18,-371.71 814,-359.5 853.85,-314.52 880.7,-322.18 923,-279.5 932.64,-269.77 929.05,-261.18 941,-254.5 1057.48,-189.34 1409.15,-236.84 1540,-210.5 1605.17,-197.38 1675.73,-167.6 1722.14,-145.66"/>
<polygon fill="orange" stroke="orange" points="760.41,-405.04 751.76,-411.17 762.34,-411.77 760.41,-405.04"/>
<text text-anchor="middle" x="1258.5" y="-222.5" font-family="Helvetica,sans-Serif" font-size="10.00"> TProperty</text>
</g>
<!-- Node36 -->
<g id="node20" class="node">
<title>Node36</title>
<g id="a_node20"><a xlink:href="interfacefiftyone_1_1pipeline_1_1engines_1_1caching_1_1_flow_cache.html" target="_top" xlink:title="Used to cache results from individual flow elements in the pipeline.">
<polygon fill="none" stroke="black" points="1345.5,-532.5 1345.5,-562.5 1525.5,-562.5 1525.5,-532.5 1345.5,-532.5"/>
<text text-anchor="start" x="1353.5" y="-550.5" font-family="Helvetica,sans-Serif" font-size="10.00">fiftyone.pipeline.engines.caching.</text>
<text text-anchor="middle" x="1435.5" y="-539.5" font-family="Helvetica,sans-Serif" font-size="10.00">FlowCache</text>
</a>
</g>
</g>
<!-- Node36&#45;&gt;Node20 -->
<g id="edge26" class="edge">
<title>Node36&#45;&gt;Node20</title>
<path fill="none" stroke="#9a32cd" stroke-dasharray="5,2" d="M1534.89,-529.94C1581.92,-517.62 1636.62,-497.11 1677,-463.5 1723.88,-424.48 1752.71,-356.6 1765.75,-319.52"/>
<polygon fill="#9a32cd" stroke="#9a32cd" points="1533.82,-526.6 1524.98,-532.45 1535.54,-533.39 1533.82,-526.6"/>
<text text-anchor="middle" x="1617.5" y="-524.5" font-family="Helvetica,sans-Serif" font-size="10.00"> cache</text>
</g>
<!-- Node37 -->
<g id="node21" class="node">
<title>Node37</title>
<g id="a_node21"><a xlink:href="interfacefiftyone_1_1pipeline_1_1engines_1_1caching_1_1_data_keyed_cache.html" target="_top" xlink:title=" ">
<polygon fill="none" stroke="black" points="970.5,-566.5 970.5,-596.5 1156.5,-596.5 1156.5,-566.5 970.5,-566.5"/>
<text text-anchor="start" x="978.5" y="-584.5" font-family="Helvetica,sans-Serif" font-size="10.00">fiftyone.pipeline.engines.caching.</text>
<text text-anchor="middle" x="1063.5" y="-573.5" font-family="Helvetica,sans-Serif" font-size="10.00">DataKeyedCache&lt; ElementData &gt;</text>
</a>
</g>
</g>
<!-- Node37&#45;&gt;Node36 -->
<g id="edge27" class="edge">
<title>Node37&#45;&gt;Node36</title>
<path fill="none" stroke="midnightblue" d="M1167.21,-572.06C1223.2,-566.92 1291.81,-560.61 1345.5,-555.68"/>
<polygon fill="midnightblue" stroke="midnightblue" points="1166.55,-568.61 1156.91,-573.01 1167.19,-575.58 1166.55,-568.61"/>
</g>
<!-- Node38 -->
<g id="node22" class="node">
<title>Node38</title>
<g id="a_node22"><a xlink:href="interfacefiftyone_1_1pipeline_1_1engines_1_1caching_1_1_data_keyed_cache.html" target="_top" xlink:title="Represents a put cache where the key is a FlowData instance.">
<polygon fill="none" stroke="black" points="579.5,-566.5 579.5,-596.5 759.5,-596.5 759.5,-566.5 579.5,-566.5"/>
<text text-anchor="start" x="587.5" y="-584.5" font-family="Helvetica,sans-Serif" font-size="10.00">fiftyone.pipeline.engines.caching.</text>
<text text-anchor="middle" x="669.5" y="-573.5" font-family="Helvetica,sans-Serif" font-size="10.00">DataKeyedCache&lt; V &gt;</text>
</a>
</g>
</g>
<!-- Node38&#45;&gt;Node37 -->
<g id="edge28" class="edge">
<title>Node38&#45;&gt;Node37</title>
<path fill="none" stroke="orange" stroke-dasharray="5,2" d="M770.07,-581.5C831.67,-581.5 910.21,-581.5 970.38,-581.5"/>
<polygon fill="orange" stroke="orange" points="769.94,-578 759.94,-581.5 769.94,-585 769.94,-578"/>
<text text-anchor="middle" x="868.5" y="-584.5" font-family="Helvetica,sans-Serif" font-size="10.00"> &lt; ElementData &gt;</text>
</g>
<!-- Node39 -->
<g id="node23" class="node">
<title>Node39</title>
<g id="a_node23"><a xlink:href="interfacefiftyone_1_1caching_1_1_put_cache.html" target="_top" xlink:title="A cache that supports a thread safe put method for inserting to cache.">
<polygon fill="none" stroke="black" points="310.5,-566.5 310.5,-596.5 454.5,-596.5 454.5,-566.5 310.5,-566.5"/>
<text text-anchor="start" x="318.5" y="-584.5" font-family="Helvetica,sans-Serif" font-size="10.00">fiftyone::caching::</text>
<text text-anchor="middle" x="382.5" y="-573.5" font-family="Helvetica,sans-Serif" font-size="10.00">PutCache&lt; FlowData, V &gt;</text>
</a>
</g>
</g>
<!-- Node39&#45;&gt;Node38 -->
<g id="edge29" class="edge">
<title>Node39&#45;&gt;Node38</title>
<path fill="none" stroke="midnightblue" d="M465.07,-581.5C500.79,-581.5 542.8,-581.5 579.35,-581.5"/>
<polygon fill="midnightblue" stroke="midnightblue" points="464.68,-578 454.68,-581.5 464.68,-585 464.68,-578"/>
</g>
<!-- Node40 -->
<g id="node24" class="node">
<title>Node40</title>
<g id="a_node24"><a xlink:href="interfacefiftyone_1_1caching_1_1_cache.html" target="_top" xlink:title="Base cache interface which declares only the get method and the types of key and value stored in the ...">
<polygon fill="none" stroke="black" points="135.5,-566.5 135.5,-596.5 238.5,-596.5 238.5,-566.5 135.5,-566.5"/>
<text text-anchor="start" x="143.5" y="-584.5" font-family="Helvetica,sans-Serif" font-size="10.00">fiftyone::caching::</text>
<text text-anchor="middle" x="187" y="-573.5" font-family="Helvetica,sans-Serif" font-size="10.00">Cache&lt; K, V &gt;</text>
</a>
</g>
</g>
<!-- Node40&#45;&gt;Node39 -->
<g id="edge30" class="edge">
<title>Node40&#45;&gt;Node39</title>
<path fill="none" stroke="midnightblue" d="M248.61,-581.5C268.23,-581.5 290.16,-581.5 310.46,-581.5"/>
<polygon fill="midnightblue" stroke="midnightblue" points="248.59,-578 238.59,-581.5 248.59,-585 248.59,-578"/>
</g>
<!-- Node41 -->
<g id="node25" class="node">
<title>Node41</title>
<g id="a_node25"><a xlink:title=" ">
<polygon fill="none" stroke="#bfbfbf" points="0,-572 0,-591 65,-591 65,-572 0,-572"/>
<text text-anchor="middle" x="32.5" y="-579" font-family="Helvetica,sans-Serif" font-size="10.00">Closeable</text>
</a>
</g>
</g>
<!-- Node41&#45;&gt;Node40 -->
<g id="edge31" class="edge">
<title>Node41&#45;&gt;Node40</title>
<path fill="none" stroke="midnightblue" d="M75.28,-581.5C93.81,-581.5 115.77,-581.5 135.23,-581.5"/>
<polygon fill="midnightblue" stroke="midnightblue" points="75.1,-578 65.1,-581.5 75.1,-585 75.1,-578"/>
</g>
<!-- Node42 -->
<g id="node26" class="node">
<title>Node42</title>
<g id="a_node26"><a xlink:href="interfacefiftyone_1_1pipeline_1_1engines_1_1services_1_1_missing_property_service.html" target="_top" xlink:title="Service used by AspectEngines to report the reason for a property not being present in the results.">
<polygon fill="none" stroke="black" points="1344,-271.5 1344,-301.5 1527,-301.5 1527,-271.5 1344,-271.5"/>
<text text-anchor="start" x="1352" y="-289.5" font-family="Helvetica,sans-Serif" font-size="10.00">fiftyone.pipeline.engines.services.</text>
<text text-anchor="middle" x="1435.5" y="-278.5" font-family="Helvetica,sans-Serif" font-size="10.00">MissingPropertyService</text>
</a>
</g>
</g>
<!-- Node42&#45;&gt;Node20 -->
<g id="edge32" class="edge">
<title>Node42&#45;&gt;Node20</title>
<path fill="none" stroke="#9a32cd" stroke-dasharray="5,2" d="M1537.47,-288.59C1588.6,-289.65 1649.68,-290.92 1696.97,-291.9"/>
<polygon fill="#9a32cd" stroke="#9a32cd" points="1537.46,-285.09 1527.39,-288.39 1537.31,-292.09 1537.46,-285.09"/>
<text text-anchor="middle" x="1617.5" y="-293.5" font-family="Helvetica,sans-Serif" font-size="10.00"> missingPropertyService</text>
</g>
<!-- Node43 -->
<g id="node27" class="node">
<title>Node43</title>
<g id="a_node27"><a xlink:href="interfacefiftyone_1_1pipeline_1_1core_1_1services_1_1_pipeline_service.html" target="_top" xlink:title="Service interface used by PipelineBuilder to hand out services to elements which required them.">
<polygon fill="none" stroke="black" points="980.5,-264.5 980.5,-294.5 1146.5,-294.5 1146.5,-264.5 980.5,-264.5"/>
<text text-anchor="start" x="988.5" y="-282.5" font-family="Helvetica,sans-Serif" font-size="10.00">fiftyone.pipeline.core.services.</text>
<text text-anchor="middle" x="1063.5" y="-271.5" font-family="Helvetica,sans-Serif" font-size="10.00">PipelineService</text>
</a>
</g>
</g>
<!-- Node43&#45;&gt;Node42 -->
<g id="edge33" class="edge">
<title>Node43&#45;&gt;Node42</title>
<path fill="none" stroke="midnightblue" d="M1156.73,-281.24C1213.89,-282.33 1287,-283.71 1343.86,-284.79"/>
<polygon fill="midnightblue" stroke="midnightblue" points="1156.68,-277.74 1146.61,-281.05 1156.55,-284.74 1156.68,-277.74"/>
</g>
<!-- Node44&#45;&gt;Node19 -->
<g id="edge36" class="edge">
<title>Node44&#45;&gt;Node19</title>
<path fill="none" stroke="midnightblue" d="M1865.26,-103.3C1880.03,-100.62 1895.53,-97.81 1910.8,-95.04"/>
<polygon fill="midnightblue" stroke="midnightblue" points="1864.37,-99.91 1855.15,-105.14 1865.61,-106.8 1864.37,-99.91"/>
</g>
</g>
</svg>
