<?xml version="1.0" encoding="UTF-8" standalone="no"?>
<!DOCTYPE svg PUBLIC "-//W3C//DTD SVG 1.1//EN"
 "http://www.w3.org/Graphics/SVG/1.1/DTD/svg11.dtd">
<!-- Generated by graphviz version 2.43.0 (0)
 -->
<!-- Title: fiftyone.pipeline.core.data.AccessiblePropertyMetaData.LicencedProducts Pages: 1 -->
<svg width="772pt" height="73pt"
 viewBox="0.00 0.00 772.00 73.00" xmlns="http://www.w3.org/2000/svg" xmlns:xlink="http://www.w3.org/1999/xlink">
<g id="graph0" class="graph" transform="scale(1 1) rotate(0) translate(4 69)">
<title>fiftyone.pipeline.core.data.AccessiblePropertyMetaData.LicencedProducts</title>
<!-- Node1 -->
<g id="node1" class="node">
<title>Node1</title>
<g id="a_node1"><a xlink:title="Class containing a list of ProductMetaDatas.">
<polygon fill="#bfbfbf" stroke="black" points="561,-0.5 561,-41.5 764,-41.5 764,-0.5 561,-0.5"/>
<text text-anchor="start" x="569" y="-29.5" font-family="Helvetica,sans-Serif" font-size="10.00">fiftyone.pipeline.core.data.</text>
<text text-anchor="start" x="569" y="-18.5" font-family="Helvetica,sans-Serif" font-size="10.00">AccessiblePropertyMetaData.Licenced</text>
<text text-anchor="middle" x="662.5" y="-7.5" font-family="Helvetica,sans-Serif" font-size="10.00">Products</text>
</a>
</g>
</g>
<!-- Node2 -->
<g id="node2" class="node">
<title>Node2</title>
<g id="a_node2"><a xlink:title=" ">
<polygon fill="none" stroke="#bfbfbf" points="222,-6 222,-36 479,-36 479,-6 222,-6"/>
<text text-anchor="start" x="230" y="-24" font-family="Helvetica,sans-Serif" font-size="10.00">Map&lt; String, fiftyone.pipeline.core.data.</text>
<text text-anchor="middle" x="350.5" y="-13" font-family="Helvetica,sans-Serif" font-size="10.00">AccessiblePropertyMetaData.ProductMetaData &gt;</text>
</a>
</g>
</g>
<!-- Node2&#45;&gt;Node1 -->
<g id="edge1" class="edge">
<title>Node2&#45;&gt;Node1</title>
<path fill="none" stroke="#9a32cd" stroke-dasharray="5,2" d="M489.62,-21C513.61,-21 538.15,-21 560.9,-21"/>
<polygon fill="#9a32cd" stroke="#9a32cd" points="489.38,-17.5 479.38,-21 489.38,-24.5 489.38,-17.5"/>
<text text-anchor="middle" x="520" y="-24" font-family="Helvetica,sans-Serif" font-size="10.00"> products</text>
</g>
<!-- Node3 -->
<g id="node3" class="node">
<title>Node3</title>
<g id="a_node3"><a xlink:title=" ">
<polygon fill="none" stroke="#bfbfbf" points="0,-11.5 0,-30.5 38,-30.5 38,-11.5 0,-11.5"/>
<text text-anchor="middle" x="19" y="-18.5" font-family="Helvetica,sans-Serif" font-size="10.00">Map</text>
</a>
</g>
</g>
<!-- Node3&#45;&gt;Node2 -->
<g id="edge2" class="edge">
<title>Node3&#45;&gt;Node2</title>
<path fill="none" stroke="orange" stroke-dasharray="5,2" d="M48.61,-21C87.18,-21 158.34,-21 221.77,-21"/>
<polygon fill="orange" stroke="orange" points="48.18,-17.5 38.18,-21 48.18,-24.5 48.18,-17.5"/>
<text text-anchor="start" x="56" y="-57" font-family="Helvetica,sans-Serif" font-size="10.00"> &lt; String, fiftyone</text>
<text text-anchor="start" x="56" y="-46" font-family="Helvetica,sans-Serif" font-size="10.00">::pipeline::core::data</text>
<text text-anchor="start" x="56" y="-35" font-family="Helvetica,sans-Serif" font-size="10.00">::AccessiblePropertyMetaData</text>
<text text-anchor="middle" x="130" y="-24" font-family="Helvetica,sans-Serif" font-size="10.00">::ProductMetaData &gt;</text>
</g>
</g>
</svg>
