<?xml version="1.0" encoding="UTF-8" standalone="no"?>
<!DOCTYPE svg PUBLIC "-//W3C//DTD SVG 1.1//EN"
 "http://www.w3.org/Graphics/SVG/1.1/DTD/svg11.dtd">
<!-- Generated by graphviz version 2.43.0 (0)
 -->
<!-- Title: fiftyone.pipeline.engines.data.AspectDataBase Pages: 1 -->
<svg width="1321pt" height="88pt"
 viewBox="0.00 0.00 1321.00 88.00" xmlns="http://www.w3.org/2000/svg" xmlns:xlink="http://www.w3.org/1999/xlink">
<g id="graph0" class="graph" transform="scale(1 1) rotate(0) translate(4 84)">
<title>fiftyone.pipeline.engines.data.AspectDataBase</title>
<!-- Node0 -->
<g id="node1" class="node">
<title>Node0</title>
<g id="a_node1"><a xlink:title="Abstract base class for AspectData which overrides the.">
<polygon fill="#bfbfbf" stroke="black" points="589,-24.5 589,-54.5 753,-54.5 753,-24.5 589,-24.5"/>
<text text-anchor="start" x="597" y="-42.5" font-family="Helvetica,sans-Serif" font-size="10.00">fiftyone.pipeline.engines.data.</text>
<text text-anchor="middle" x="671" y="-31.5" font-family="Helvetica,sans-Serif" font-size="10.00">AspectDataBase</text>
</a>
</g>
</g>
<!-- Node6 -->
<g id="node7" class="node">
<title>Node6</title>
<g id="a_node7"><a xlink:href="classfiftyone_1_1pipeline_1_1cloudrequestengine_1_1flowelements_1_1_cloud_request_data_internal.html" target="_top" xlink:title=" ">
<polygon fill="none" stroke="black" points="789,-24.5 789,-54.5 1055,-54.5 1055,-24.5 789,-24.5"/>
<text text-anchor="start" x="797" y="-42.5" font-family="Helvetica,sans-Serif" font-size="10.00">fiftyone.pipeline.cloudrequestengine.flowelements.</text>
<text text-anchor="middle" x="922" y="-31.5" font-family="Helvetica,sans-Serif" font-size="10.00">CloudRequestDataInternal</text>
</a>
</g>
</g>
<!-- Node0&#45;&gt;Node6 -->
<g id="edge8" class="edge">
<title>Node0&#45;&gt;Node6</title>
<path fill="none" stroke="midnightblue" d="M763.29,-39.5C771.66,-39.5 780.25,-39.5 788.9,-39.5"/>
<polygon fill="midnightblue" stroke="midnightblue" points="763.19,-36 753.19,-39.5 763.19,-43 763.19,-36"/>
</g>
<!-- Node1 -->
<g id="node2" class="node">
<title>Node1</title>
<g id="a_node2"><a xlink:href="classfiftyone_1_1pipeline_1_1core_1_1data_1_1_element_data_base.html" target="_top" xlink:title="Base implementation of ElementData.">
<polygon fill="none" stroke="black" points="397.5,-49.5 397.5,-79.5 544.5,-79.5 544.5,-49.5 397.5,-49.5"/>
<text text-anchor="start" x="405.5" y="-67.5" font-family="Helvetica,sans-Serif" font-size="10.00">fiftyone.pipeline.core.data.</text>
<text text-anchor="middle" x="471" y="-56.5" font-family="Helvetica,sans-Serif" font-size="10.00">ElementDataBase</text>
</a>
</g>
</g>
<!-- Node1&#45;&gt;Node0 -->
<g id="edge1" class="edge">
<title>Node1&#45;&gt;Node0</title>
<path fill="none" stroke="midnightblue" d="M554.81,-54.04C566.02,-52.63 577.52,-51.18 588.71,-49.76"/>
<polygon fill="midnightblue" stroke="midnightblue" points="554.09,-50.61 544.6,-55.33 554.96,-57.55 554.09,-50.61"/>
</g>
<!-- Node2 -->
<g id="node3" class="node">
<title>Node2</title>
<g id="a_node3"><a xlink:href="classfiftyone_1_1pipeline_1_1core_1_1data_1_1_data_base.html" target="_top" xlink:title="This implementation of Data stores data values as key/value pairs in a Map where the key is a string ...">
<polygon fill="none" stroke="black" points="206,-49.5 206,-79.5 353,-79.5 353,-49.5 206,-49.5"/>
<text text-anchor="start" x="214" y="-67.5" font-family="Helvetica,sans-Serif" font-size="10.00">fiftyone.pipeline.core.data.</text>
<text text-anchor="middle" x="279.5" y="-56.5" font-family="Helvetica,sans-Serif" font-size="10.00">DataBase</text>
</a>
</g>
</g>
<!-- Node2&#45;&gt;Node1 -->
<g id="edge2" class="edge">
<title>Node2&#45;&gt;Node1</title>
<path fill="none" stroke="midnightblue" d="M363.53,-64.5C374.83,-64.5 386.37,-64.5 397.47,-64.5"/>
<polygon fill="midnightblue" stroke="midnightblue" points="363.22,-61 353.22,-64.5 363.22,-68 363.22,-61"/>
</g>
<!-- Node3 -->
<g id="node4" class="node">
<title>Node3</title>
<g id="a_node4"><a xlink:href="interfacefiftyone_1_1pipeline_1_1core_1_1data_1_1_data.html" target="_top" xlink:title="Represents a collection of property values.">
<polygon fill="none" stroke="black" points="0,-30 0,-49 170,-49 170,-30 0,-30"/>
<text text-anchor="middle" x="85" y="-37" font-family="Helvetica,sans-Serif" font-size="10.00">fiftyone.pipeline.core.data.Data</text>
</a>
</g>
</g>
<!-- Node3&#45;&gt;Node2 -->
<g id="edge3" class="edge">
<title>Node3&#45;&gt;Node2</title>
<path fill="none" stroke="midnightblue" d="M169.4,-50.33C181.48,-51.9 193.84,-53.51 205.7,-55.05"/>
<polygon fill="midnightblue" stroke="midnightblue" points="169.69,-46.84 159.33,-49.02 168.79,-53.78 169.69,-46.84"/>
</g>
<!-- Node4 -->
<g id="node5" class="node">
<title>Node4</title>
<g id="a_node5"><a xlink:href="interfacefiftyone_1_1pipeline_1_1core_1_1data_1_1_element_data.html" target="_top" xlink:title="Represents property values that have be determined by a specific FlowElement based on the supplied ev...">
<polygon fill="none" stroke="black" points="206,-0.5 206,-30.5 353,-30.5 353,-0.5 206,-0.5"/>
<text text-anchor="start" x="214" y="-18.5" font-family="Helvetica,sans-Serif" font-size="10.00">fiftyone.pipeline.core.data.</text>
<text text-anchor="middle" x="279.5" y="-7.5" font-family="Helvetica,sans-Serif" font-size="10.00">ElementData</text>
</a>
</g>
</g>
<!-- Node3&#45;&gt;Node4 -->
<g id="edge5" class="edge">
<title>Node3&#45;&gt;Node4</title>
<path fill="none" stroke="midnightblue" d="M172.55,-28.71C183.73,-27.32 195.08,-25.9 206,-24.54"/>
<polygon fill="midnightblue" stroke="midnightblue" points="171.85,-25.27 162.36,-29.98 172.71,-32.22 171.85,-25.27"/>
</g>
<!-- Node4&#45;&gt;Node1 -->
<g id="edge4" class="edge">
<title>Node4&#45;&gt;Node1</title>
<path fill="none" stroke="midnightblue" d="M348.37,-33.05C369.18,-38.43 391.88,-44.3 411.97,-49.49"/>
<polygon fill="midnightblue" stroke="midnightblue" points="349.2,-29.65 338.64,-30.53 347.45,-36.43 349.2,-29.65"/>
</g>
<!-- Node5 -->
<g id="node6" class="node">
<title>Node5</title>
<g id="a_node6"><a xlink:href="interfacefiftyone_1_1pipeline_1_1engines_1_1data_1_1_aspect_data.html" target="_top" xlink:title="Represents a specialized ElementData instance that is generated by an AspectEngine.">
<polygon fill="none" stroke="black" points="389,-0.5 389,-30.5 553,-30.5 553,-0.5 389,-0.5"/>
<text text-anchor="start" x="397" y="-18.5" font-family="Helvetica,sans-Serif" font-size="10.00">fiftyone.pipeline.engines.data.</text>
<text text-anchor="middle" x="471" y="-7.5" font-family="Helvetica,sans-Serif" font-size="10.00">AspectData</text>
</a>
</g>
</g>
<!-- Node4&#45;&gt;Node5 -->
<g id="edge7" class="edge">
<title>Node4&#45;&gt;Node5</title>
<path fill="none" stroke="midnightblue" d="M363.46,-15.5C371.92,-15.5 380.51,-15.5 388.95,-15.5"/>
<polygon fill="midnightblue" stroke="midnightblue" points="363.22,-12 353.22,-15.5 363.22,-19 363.22,-12"/>
</g>
<!-- Node5&#45;&gt;Node0 -->
<g id="edge6" class="edge">
<title>Node5&#45;&gt;Node0</title>
<path fill="none" stroke="midnightblue" d="M563.08,-26.54C571.63,-27.58 580.25,-28.62 588.7,-29.65"/>
<polygon fill="midnightblue" stroke="midnightblue" points="563.45,-23.06 553.11,-25.33 562.61,-30.01 563.45,-23.06"/>
</g>
<!-- Node7 -->
<g id="node8" class="node">
<title>Node7</title>
<g id="a_node8"><a xlink:href="classfiftyone_1_1pipeline_1_1cloudrequestengine_1_1data_1_1_cloud_request_data.html" target="_top" xlink:title=" ">
<polygon fill="none" stroke="black" points="1091,-24.5 1091,-54.5 1313,-54.5 1313,-24.5 1091,-24.5"/>
<text text-anchor="start" x="1099" y="-42.5" font-family="Helvetica,sans-Serif" font-size="10.00">fiftyone.pipeline.cloudrequestengine.data.</text>
<text text-anchor="middle" x="1202" y="-31.5" font-family="Helvetica,sans-Serif" font-size="10.00">CloudRequestData</text>
</a>
</g>
</g>
<!-- Node6&#45;&gt;Node7 -->
<g id="edge9" class="edge">
<title>Node6&#45;&gt;Node7</title>
<path fill="none" stroke="midnightblue" d="M1065.14,-39.5C1073.7,-39.5 1082.25,-39.5 1090.66,-39.5"/>
<polygon fill="midnightblue" stroke="midnightblue" points="1065.08,-36 1055.08,-39.5 1065.08,-43 1065.08,-36"/>
</g>
</g>
</svg>
