<?xml version="1.0" encoding="UTF-8" standalone="no"?>
<!DOCTYPE svg PUBLIC "-//W3C//DTD SVG 1.1//EN"
 "http://www.w3.org/Graphics/SVG/1.1/DTD/svg11.dtd">
<!-- Generated by graphviz version 2.43.0 (0)
 -->
<!-- Title: fiftyone.pipeline.engines.fiftyone.data.CloseableIterableDefault&lt; T &gt; Pages: 1 -->
<svg width="212pt" height="173pt"
 viewBox="0.00 0.00 212.00 173.00" xmlns="http://www.w3.org/2000/svg" xmlns:xlink="http://www.w3.org/1999/xlink">
<g id="graph0" class="graph" transform="scale(1 1) rotate(0) translate(4 169)">
<title>fiftyone.pipeline.engines.fiftyone.data.CloseableIterableDefault&lt; T &gt;</title>
<!-- Node4 -->
<g id="node1" class="node">
<title>Node4</title>
<g id="a_node1"><a xlink:title="Default implementation of CloseableIterable.">
<polygon fill="#bfbfbf" stroke="black" points="0,-0.5 0,-30.5 204,-30.5 204,-0.5 0,-0.5"/>
<text text-anchor="start" x="8" y="-18.5" font-family="Helvetica,sans-Serif" font-size="10.00">fiftyone.pipeline.engines.fiftyone.data.</text>
<text text-anchor="middle" x="102" y="-7.5" font-family="Helvetica,sans-Serif" font-size="10.00">CloseableIterableDefault&lt; T &gt;</text>
</a>
</g>
</g>
<!-- Node5 -->
<g id="node2" class="node">
<title>Node5</title>
<g id="a_node2"><a xlink:href="interfacefiftyone_1_1pipeline_1_1engines_1_1fiftyone_1_1data_1_1_closeable_iterable.html" target="_top" xlink:title="An iterable class which also implements auto&#45;closable.">
<polygon fill="none" stroke="black" points="20,-67.5 20,-108.5 184,-108.5 184,-67.5 20,-67.5"/>
<text text-anchor="start" x="28" y="-96.5" font-family="Helvetica,sans-Serif" font-size="10.00">fiftyone::pipeline</text>
<text text-anchor="start" x="28" y="-85.5" font-family="Helvetica,sans-Serif" font-size="10.00">::engines::fiftyone</text>
<text text-anchor="middle" x="102" y="-74.5" font-family="Helvetica,sans-Serif" font-size="10.00">::data::CloseableIterable&lt; T &gt;</text>
</a>
</g>
</g>
<!-- Node5&#45;&gt;Node4 -->
<g id="edge1" class="edge">
<title>Node5&#45;&gt;Node4</title>
<path fill="none" stroke="midnightblue" d="M102,-57.08C102,-48.01 102,-38.45 102,-30.89"/>
<polygon fill="midnightblue" stroke="midnightblue" points="98.5,-57.36 102,-67.36 105.5,-57.36 98.5,-57.36"/>
</g>
<!-- Node6 -->
<g id="node3" class="node">
<title>Node6</title>
<g id="a_node3"><a xlink:title=" ">
<polygon fill="none" stroke="#bfbfbf" points="9.5,-145.5 9.5,-164.5 92.5,-164.5 92.5,-145.5 9.5,-145.5"/>
<text text-anchor="middle" x="51" y="-152.5" font-family="Helvetica,sans-Serif" font-size="10.00">Iterable&lt; T &gt;</text>
</a>
</g>
</g>
<!-- Node6&#45;&gt;Node5 -->
<g id="edge2" class="edge">
<title>Node6&#45;&gt;Node5</title>
<path fill="none" stroke="midnightblue" d="M64.13,-137.27C71.01,-128.5 79.48,-117.7 86.67,-108.54"/>
<polygon fill="midnightblue" stroke="midnightblue" points="61.3,-135.21 57.88,-145.23 66.8,-139.53 61.3,-135.21"/>
</g>
<!-- Node7 -->
<g id="node4" class="node">
<title>Node7</title>
<g id="a_node4"><a xlink:title=" ">
<polygon fill="none" stroke="#bfbfbf" points="110.5,-145.5 110.5,-164.5 197.5,-164.5 197.5,-145.5 110.5,-145.5"/>
<text text-anchor="middle" x="154" y="-152.5" font-family="Helvetica,sans-Serif" font-size="10.00">AutoCloseable</text>
</a>
</g>
</g>
<!-- Node7&#45;&gt;Node5 -->
<g id="edge3" class="edge">
<title>Node7&#45;&gt;Node5</title>
<path fill="none" stroke="midnightblue" d="M140.62,-137.27C133.6,-128.5 124.96,-117.7 117.63,-108.54"/>
<polygon fill="midnightblue" stroke="midnightblue" points="138.01,-139.61 146.99,-145.23 143.47,-135.24 138.01,-139.61"/>
</g>
</g>
</svg>
