<?xml version="1.0" encoding="UTF-8" standalone="no"?>
<!DOCTYPE svg PUBLIC "-//W3C//DTD SVG 1.1//EN"
 "http://www.w3.org/Graphics/SVG/1.1/DTD/svg11.dtd">
<!-- Generated by graphviz version 2.43.0 (0)
 -->
<!-- Title: fiftyone.pipeline.engines.flowelements.PrePackagedPipelineBuilderBase&lt; TBuilder extends PrePackagedPipelineBuilderBase&lt; TBuilder &gt; Pages: 1 -->
<svg width="1208pt" height="85pt"
 viewBox="0.00 0.00 1208.00 84.50" xmlns="http://www.w3.org/2000/svg" xmlns:xlink="http://www.w3.org/1999/xlink">
<g id="graph0" class="graph" transform="scale(1 1) rotate(0) translate(4 80.5)">
<title>fiftyone.pipeline.engines.flowelements.PrePackagedPipelineBuilderBase&lt; TBuilder extends PrePackagedPipelineBuilderBase&lt; TBuilder &gt;</title>
<!-- Node0 -->
<g id="node1" class="node">
<title>Node0</title>
<g id="a_node1"><a xlink:title="Base class for pipeline builders that will produce a pipeline with specific flow elements.">
<polygon fill="#bfbfbf" stroke="black" points="394,-0.5 394,-52.5 642,-52.5 642,-0.5 394,-0.5"/>
<text text-anchor="start" x="402" y="-40.5" font-family="Helvetica,sans-Serif" font-size="10.00">fiftyone.pipeline.engines.flowelements.</text>
<text text-anchor="start" x="402" y="-29.5" font-family="Helvetica,sans-Serif" font-size="10.00">PrePackagedPipelineBuilderBase</text>
<text text-anchor="start" x="402" y="-18.5" font-family="Helvetica,sans-Serif" font-size="10.00">&lt; TBuilder extends PrePackagedPipelineBuilder</text>
<text text-anchor="middle" x="518" y="-7.5" font-family="Helvetica,sans-Serif" font-size="10.00">Base&lt; TBuilder &gt;</text>
</a>
</g>
</g>
<!-- Node3 -->
<g id="node4" class="node">
<title>Node3</title>
<g id="a_node4"><a xlink:href="classfiftyone_1_1pipeline_1_1engines_1_1flowelements_1_1_pre_packaged_pipeline_builder_base.html" target="_top" xlink:title=" ">
<polygon fill="none" stroke="black" points="745,-6 745,-47 954,-47 954,-6 745,-6"/>
<text text-anchor="start" x="753" y="-35" font-family="Helvetica,sans-Serif" font-size="10.00">fiftyone.pipeline.engines.flowelements.</text>
<text text-anchor="start" x="753" y="-24" font-family="Helvetica,sans-Serif" font-size="10.00">PrePackagedPipelineBuilderBase</text>
<text text-anchor="middle" x="849.5" y="-13" font-family="Helvetica,sans-Serif" font-size="10.00">&lt; TBuilder &gt;</text>
</a>
</g>
</g>
<!-- Node0&#45;&gt;Node3 -->
<g id="edge4" class="edge">
<title>Node0&#45;&gt;Node3</title>
<path fill="none" stroke="orange" stroke-dasharray="5,2" d="M652.54,-26.5C683.32,-26.5 715.61,-26.5 744.89,-26.5"/>
<polygon fill="orange" stroke="orange" points="652.16,-23 642.16,-26.5 652.16,-30 652.16,-23"/>
<text text-anchor="middle" x="693.5" y="-29.5" font-family="Helvetica,sans-Serif" font-size="10.00"> &lt; TBuilder &gt;</text>
</g>
<!-- Node1 -->
<g id="node2" class="node">
<title>Node1</title>
<g id="a_node2"><a xlink:href="classfiftyone_1_1pipeline_1_1core_1_1flowelements_1_1_pipeline_builder_base.html" target="_top" xlink:title="Abstract base class for all Pipeline builders.">
<polygon fill="none" stroke="black" points="237,-0.5 237,-52.5 357,-52.5 357,-0.5 237,-0.5"/>
<text text-anchor="start" x="245" y="-40.5" font-family="Helvetica,sans-Serif" font-size="10.00">fiftyone::pipeline</text>
<text text-anchor="start" x="245" y="-29.5" font-family="Helvetica,sans-Serif" font-size="10.00">::core::flowelements</text>
<text text-anchor="start" x="245" y="-18.5" font-family="Helvetica,sans-Serif" font-size="10.00">::PipelineBuilderBase</text>
<text text-anchor="middle" x="297" y="-7.5" font-family="Helvetica,sans-Serif" font-size="10.00">&lt; TBuilder &gt;</text>
</a>
</g>
</g>
<!-- Node1&#45;&gt;Node0 -->
<g id="edge1" class="edge">
<title>Node1&#45;&gt;Node0</title>
<path fill="none" stroke="midnightblue" d="M367.48,-26.5C376.03,-26.5 384.95,-26.5 393.99,-26.5"/>
<polygon fill="midnightblue" stroke="midnightblue" points="367.26,-23 357.26,-26.5 367.26,-30 367.26,-23"/>
</g>
<!-- Node2 -->
<g id="node3" class="node">
<title>Node2</title>
<g id="a_node3"><a xlink:href="classfiftyone_1_1pipeline_1_1core_1_1flowelements_1_1_pipeline_builder_base.html" target="_top" xlink:title="Abstract base class for all Pipeline builders.">
<polygon fill="none" stroke="black" points="0,-6 0,-47 191,-47 191,-6 0,-6"/>
<text text-anchor="start" x="8" y="-35" font-family="Helvetica,sans-Serif" font-size="10.00">fiftyone.pipeline.core.flowelements.</text>
<text text-anchor="start" x="8" y="-24" font-family="Helvetica,sans-Serif" font-size="10.00">PipelineBuilderBase&lt; T extends</text>
<text text-anchor="middle" x="95.5" y="-13" font-family="Helvetica,sans-Serif" font-size="10.00"> PipelineBuilderBase &gt;</text>
</a>
</g>
</g>
<!-- Node2&#45;&gt;Node1 -->
<g id="edge2" class="edge">
<title>Node2&#45;&gt;Node1</title>
<path fill="none" stroke="orange" stroke-dasharray="5,2" d="M201.52,-26.5C213.69,-26.5 225.76,-26.5 236.99,-26.5"/>
<polygon fill="orange" stroke="orange" points="201.28,-23 191.28,-26.5 201.28,-30 201.28,-23"/>
<text text-anchor="middle" x="214" y="-29.5" font-family="Helvetica,sans-Serif" font-size="10.00"> T</text>
</g>
<!-- Node2&#45;&gt;Node2 -->
<g id="edge3" class="edge">
<title>Node2&#45;&gt;Node2</title>
<path fill="none" stroke="orange" stroke-dasharray="5,2" d="M75.2,-57.36C78.22,-62.2 84.98,-65.5 95.5,-65.5 112.32,-65.5 119.55,-57.04 117.19,-47.36"/>
<polygon fill="orange" stroke="orange" points="78.65,-56.79 73.81,-47.36 71.72,-57.75 78.65,-56.79"/>
<text text-anchor="middle" x="95.5" y="-68.5" font-family="Helvetica,sans-Serif" font-size="10.00"> T</text>
</g>
<!-- Node4 -->
<g id="node5" class="node">
<title>Node4</title>
<g id="a_node5"><a xlink:href="classfiftyone_1_1pipeline_1_1engines_1_1flowelements_1_1_cloud_pipeline_builder_base.html" target="_top" xlink:title="Base class for pipeline builders that will produce a pipeline with specific flow elements.">
<polygon fill="none" stroke="black" points="991,-0.5 991,-52.5 1200,-52.5 1200,-0.5 991,-0.5"/>
<text text-anchor="start" x="999" y="-40.5" font-family="Helvetica,sans-Serif" font-size="10.00">fiftyone.pipeline.engines.flowelements.</text>
<text text-anchor="start" x="999" y="-29.5" font-family="Helvetica,sans-Serif" font-size="10.00">CloudPipelineBuilderBase&lt; TBuilder</text>
<text text-anchor="start" x="999" y="-18.5" font-family="Helvetica,sans-Serif" font-size="10.00"> extends CloudPipelineBuilderBase</text>
<text text-anchor="middle" x="1095.5" y="-7.5" font-family="Helvetica,sans-Serif" font-size="10.00">&lt; TBuilder &gt;</text>
</a>
</g>
</g>
<!-- Node3&#45;&gt;Node4 -->
<g id="edge5" class="edge">
<title>Node3&#45;&gt;Node4</title>
<path fill="none" stroke="midnightblue" d="M964.56,-26.5C973.3,-26.5 982.09,-26.5 990.76,-26.5"/>
<polygon fill="midnightblue" stroke="midnightblue" points="964.33,-23 954.33,-26.5 964.33,-30 964.33,-23"/>
</g>
</g>
</svg>
