<?xml version="1.0" encoding="UTF-8" standalone="no"?>
<!DOCTYPE svg PUBLIC "-//W3C//DTD SVG 1.1//EN"
 "http://www.w3.org/Graphics/SVG/1.1/DTD/svg11.dtd">
<!-- Generated by graphviz version 2.43.0 (0)
 -->
<!-- Title: fiftyone.pipeline.engines.data.AspectEngineDataFileDefault Pages: 1 -->
<svg width="172pt" height="162pt"
 viewBox="0.00 0.00 172.00 162.00" xmlns="http://www.w3.org/2000/svg" xmlns:xlink="http://www.w3.org/1999/xlink">
<g id="graph0" class="graph" transform="scale(1 1) rotate(0) translate(4 158)">
<title>fiftyone.pipeline.engines.data.AspectEngineDataFileDefault</title>
<!-- Node4 -->
<g id="node1" class="node">
<title>Node4</title>
<g id="a_node1"><a xlink:title="Default implementation of the AspectEngineDataFile interface.">
<polygon fill="#bfbfbf" stroke="black" points="0,-0.5 0,-30.5 164,-30.5 164,-0.5 0,-0.5"/>
<text text-anchor="start" x="8" y="-18.5" font-family="Helvetica,sans-Serif" font-size="10.00">fiftyone.pipeline.engines.data.</text>
<text text-anchor="middle" x="82" y="-7.5" font-family="Helvetica,sans-Serif" font-size="10.00">AspectEngineDataFileDefault</text>
</a>
</g>
</g>
<!-- Node5 -->
<g id="node2" class="node">
<title>Node5</title>
<g id="a_node2"><a xlink:href="interfacefiftyone_1_1pipeline_1_1engines_1_1data_1_1_aspect_engine_data_file.html" target="_top" xlink:title="Interface for the details of a data file used by an Aspect engine.">
<polygon fill="none" stroke="black" points="0,-67.5 0,-97.5 164,-97.5 164,-67.5 0,-67.5"/>
<text text-anchor="start" x="8" y="-85.5" font-family="Helvetica,sans-Serif" font-size="10.00">fiftyone.pipeline.engines.data.</text>
<text text-anchor="middle" x="82" y="-74.5" font-family="Helvetica,sans-Serif" font-size="10.00">AspectEngineDataFile</text>
</a>
</g>
</g>
<!-- Node5&#45;&gt;Node4 -->
<g id="edge1" class="edge">
<title>Node5&#45;&gt;Node4</title>
<path fill="none" stroke="midnightblue" d="M82,-57.11C82,-48.15 82,-38.32 82,-30.58"/>
<polygon fill="midnightblue" stroke="midnightblue" points="78.5,-57.4 82,-67.4 85.5,-57.4 78.5,-57.4"/>
</g>
<!-- Node6 -->
<g id="node3" class="node">
<title>Node6</title>
<g id="a_node3"><a xlink:title=" ">
<polygon fill="none" stroke="#bfbfbf" points="49.5,-134.5 49.5,-153.5 114.5,-153.5 114.5,-134.5 49.5,-134.5"/>
<text text-anchor="middle" x="82" y="-141.5" font-family="Helvetica,sans-Serif" font-size="10.00">Closeable</text>
</a>
</g>
</g>
<!-- Node6&#45;&gt;Node5 -->
<g id="edge2" class="edge">
<title>Node6&#45;&gt;Node5</title>
<path fill="none" stroke="midnightblue" d="M82,-124.23C82,-115.59 82,-105.5 82,-97.52"/>
<polygon fill="midnightblue" stroke="midnightblue" points="78.5,-124.48 82,-134.48 85.5,-124.48 78.5,-124.48"/>
</g>
</g>
</svg>
