<?xml version="1.0" encoding="UTF-8" standalone="no"?>
<!DOCTYPE svg PUBLIC "-//W3C//DTD SVG 1.1//EN"
 "http://www.w3.org/Graphics/SVG/1.1/DTD/svg11.dtd">
<!-- Generated by graphviz version 2.43.0 (0)
 -->
<!-- Title: fiftyone.pipeline.engines.fiftyone.flowelements.SetHeadersElement Pages: 1 -->
<svg width="1595pt" height="232pt"
 viewBox="0.00 0.00 1595.00 231.50" xmlns="http://www.w3.org/2000/svg" xmlns:xlink="http://www.w3.org/1999/xlink">
<g id="graph0" class="graph" transform="scale(1 1) rotate(0) translate(4 227.5)">
<title>fiftyone.pipeline.engines.fiftyone.flowelements.SetHeadersElement</title>
<!-- Node8 -->
<g id="node1" class="node">
<title>Node8</title>
<g id="a_node1"><a xlink:title="[class] [constructor]">
<polygon fill="#bfbfbf" stroke="black" points="1339,-83 1339,-113 1587,-113 1587,-83 1339,-83"/>
<text text-anchor="start" x="1347" y="-101" font-family="Helvetica,sans-Serif" font-size="10.00">fiftyone.pipeline.engines.fiftyone.flowelements.</text>
<text text-anchor="middle" x="1463" y="-90" font-family="Helvetica,sans-Serif" font-size="10.00">SetHeadersElement</text>
</a>
</g>
</g>
<!-- Node9 -->
<g id="node2" class="node">
<title>Node9</title>
<g id="a_node2"><a xlink:href="classfiftyone_1_1pipeline_1_1core_1_1flowelements_1_1_flow_element_base.html" target="_top" xlink:title="Provides a base class from which authors may create new FlowElements.">
<polygon fill="none" stroke="black" points="1115,-72 1115,-124 1302,-124 1302,-72 1115,-72"/>
<text text-anchor="start" x="1123" y="-112" font-family="Helvetica,sans-Serif" font-size="10.00">fiftyone::pipeline</text>
<text text-anchor="start" x="1123" y="-101" font-family="Helvetica,sans-Serif" font-size="10.00">::core::flowelements</text>
<text text-anchor="start" x="1123" y="-90" font-family="Helvetica,sans-Serif" font-size="10.00">::FlowElementBase&lt; SetHeaders</text>
<text text-anchor="middle" x="1208.5" y="-79" font-family="Helvetica,sans-Serif" font-size="10.00">Data, ElementPropertyMetaData &gt;</text>
</a>
</g>
</g>
<!-- Node9&#45;&gt;Node8 -->
<g id="edge1" class="edge">
<title>Node9&#45;&gt;Node8</title>
<path fill="none" stroke="midnightblue" d="M1312.27,-98C1321.02,-98 1329.93,-98 1338.81,-98"/>
<polygon fill="midnightblue" stroke="midnightblue" points="1312.09,-94.5 1302.09,-98 1312.09,-101.5 1312.09,-94.5"/>
</g>
<!-- Node10 -->
<g id="node3" class="node">
<title>Node10</title>
<g id="a_node3"><a xlink:href="interfacefiftyone_1_1pipeline_1_1core_1_1flowelements_1_1_flow_element.html" target="_top" xlink:title=" ">
<polygon fill="none" stroke="black" points="839,-129 839,-159 1030,-159 1030,-129 839,-129"/>
<text text-anchor="start" x="847" y="-147" font-family="Helvetica,sans-Serif" font-size="10.00">fiftyone.pipeline.core.flowelements.</text>
<text text-anchor="middle" x="934.5" y="-136" font-family="Helvetica,sans-Serif" font-size="10.00">FlowElement&lt; TData, TProperty &gt;</text>
</a>
</g>
</g>
<!-- Node10&#45;&gt;Node9 -->
<g id="edge2" class="edge">
<title>Node10&#45;&gt;Node9</title>
<path fill="none" stroke="midnightblue" d="M1034.52,-127.25C1060.8,-122.81 1089.06,-118.03 1114.97,-113.65"/>
<polygon fill="midnightblue" stroke="midnightblue" points="1033.84,-123.82 1024.56,-128.94 1035.01,-130.72 1033.84,-123.82"/>
</g>
<!-- Node11 -->
<g id="node4" class="node">
<title>Node11</title>
<g id="a_node4"><a xlink:href="interfacefiftyone_1_1pipeline_1_1core_1_1flowelements_1_1_flow_element.html" target="_top" xlink:title="A component that processes a FlowData (by examining its evidence, or by examining data processed by o...">
<polygon fill="none" stroke="black" points="441,-134.5 441,-175.5 694,-175.5 694,-134.5 441,-134.5"/>
<text text-anchor="start" x="449" y="-163.5" font-family="Helvetica,sans-Serif" font-size="10.00">fiftyone.pipeline.core.flowelements.</text>
<text text-anchor="start" x="449" y="-152.5" font-family="Helvetica,sans-Serif" font-size="10.00">FlowElement&lt; TData extends ElementData,</text>
<text text-anchor="middle" x="567.5" y="-141.5" font-family="Helvetica,sans-Serif" font-size="10.00"> TProperty extends ElementPropertyMetaData &gt;</text>
</a>
</g>
</g>
<!-- Node11&#45;&gt;Node10 -->
<g id="edge3" class="edge">
<title>Node11&#45;&gt;Node10</title>
<path fill="none" stroke="orange" stroke-dasharray="5,2" d="M704.2,-150.91C748.97,-149.56 797.77,-148.09 838.8,-146.85"/>
<polygon fill="orange" stroke="orange" points="704,-147.41 694.11,-151.21 704.21,-154.41 704,-147.41"/>
<text text-anchor="middle" x="766.5" y="-153" font-family="Helvetica,sans-Serif" font-size="10.00"> &lt; TData, TProperty &gt;</text>
</g>
<!-- Node12 -->
<g id="node5" class="node">
<title>Node12</title>
<g id="a_node5"><a xlink:title=" ">
<polygon fill="none" stroke="#bfbfbf" points="237,-147.5 237,-166.5 324,-166.5 324,-147.5 237,-147.5"/>
<text text-anchor="middle" x="280.5" y="-154.5" font-family="Helvetica,sans-Serif" font-size="10.00">AutoCloseable</text>
</a>
</g>
</g>
<!-- Node12&#45;&gt;Node11 -->
<g id="edge4" class="edge">
<title>Node12&#45;&gt;Node11</title>
<path fill="none" stroke="midnightblue" d="M334.4,-156.63C364.44,-156.42 403.4,-156.14 440.81,-155.88"/>
<polygon fill="midnightblue" stroke="midnightblue" points="334.14,-153.13 324.17,-156.7 334.19,-160.13 334.14,-153.13"/>
</g>
<!-- Node13 -->
<g id="node6" class="node">
<title>Node13</title>
<g id="a_node6"><a xlink:href="interfacefiftyone_1_1pipeline_1_1core_1_1data_1_1_element_data.html" target="_top" xlink:title="Represents property values that have be determined by a specific FlowElement based on the supplied ev...">
<polygon fill="none" stroke="black" points="207,-193 207,-223 354,-223 354,-193 207,-193"/>
<text text-anchor="start" x="215" y="-211" font-family="Helvetica,sans-Serif" font-size="10.00">fiftyone.pipeline.core.data.</text>
<text text-anchor="middle" x="280.5" y="-200" font-family="Helvetica,sans-Serif" font-size="10.00">ElementData</text>
</a>
</g>
</g>
<!-- Node13&#45;&gt;Node9 -->
<g id="edge11" class="edge">
<title>Node13&#45;&gt;Node9</title>
<path fill="none" stroke="orange" stroke-dasharray="5,2" d="M364.2,-212.49C503.45,-218.11 792.77,-221.4 1030,-169 1073.75,-159.34 1120.72,-140.12 1155.35,-124.11"/>
<polygon fill="orange" stroke="orange" points="364.17,-208.99 354.03,-212.07 363.87,-215.98 364.17,-208.99"/>
<text text-anchor="middle" x="766.5" y="-212" font-family="Helvetica,sans-Serif" font-size="10.00"> TData</text>
</g>
<!-- Node13&#45;&gt;Node11 -->
<g id="edge5" class="edge">
<title>Node13&#45;&gt;Node11</title>
<path fill="none" stroke="orange" stroke-dasharray="5,2" d="M363.98,-192.5C366.69,-191.99 369.37,-191.49 372,-191 399.01,-185.96 428.13,-180.56 455.41,-175.51"/>
<polygon fill="orange" stroke="orange" points="363.29,-189.06 354.11,-194.34 364.58,-195.95 363.29,-189.06"/>
<text text-anchor="middle" x="397.5" y="-194" font-family="Helvetica,sans-Serif" font-size="10.00"> TData</text>
</g>
<!-- Node14 -->
<g id="node7" class="node">
<title>Node14</title>
<g id="a_node7"><a xlink:href="interfacefiftyone_1_1pipeline_1_1core_1_1data_1_1_data.html" target="_top" xlink:title="Represents a collection of property values.">
<polygon fill="none" stroke="black" points="0,-198.5 0,-217.5 170,-217.5 170,-198.5 0,-198.5"/>
<text text-anchor="middle" x="85" y="-205.5" font-family="Helvetica,sans-Serif" font-size="10.00">fiftyone.pipeline.core.data.Data</text>
</a>
</g>
</g>
<!-- Node14&#45;&gt;Node13 -->
<g id="edge6" class="edge">
<title>Node14&#45;&gt;Node13</title>
<path fill="none" stroke="midnightblue" d="M180.11,-208C189.07,-208 198.06,-208 206.77,-208"/>
<polygon fill="midnightblue" stroke="midnightblue" points="180.03,-204.5 170.03,-208 180.03,-211.5 180.03,-204.5"/>
</g>
<!-- Node15 -->
<g id="node8" class="node">
<title>Node15</title>
<g id="a_node8"><a xlink:href="interfacefiftyone_1_1pipeline_1_1core_1_1data_1_1_element_property_meta_data.html" target="_top" xlink:title="Defines details of a property that can be returned by a FlowElement.">
<polygon fill="none" stroke="black" points="207,-91 207,-121 354,-121 354,-91 207,-91"/>
<text text-anchor="start" x="215" y="-109" font-family="Helvetica,sans-Serif" font-size="10.00">fiftyone.pipeline.core.data.</text>
<text text-anchor="middle" x="280.5" y="-98" font-family="Helvetica,sans-Serif" font-size="10.00">ElementPropertyMetaData</text>
</a>
</g>
</g>
<!-- Node15&#45;&gt;Node9 -->
<g id="edge12" class="edge">
<title>Node15&#45;&gt;Node9</title>
<path fill="none" stroke="orange" stroke-dasharray="5,2" d="M364.2,-105.29C536.79,-103.79 934.22,-100.36 1114.98,-98.8"/>
<polygon fill="orange" stroke="orange" points="364.13,-101.79 354.16,-105.37 364.19,-108.79 364.13,-101.79"/>
<text text-anchor="middle" x="766.5" y="-105" font-family="Helvetica,sans-Serif" font-size="10.00"> TProperty</text>
</g>
<!-- Node15&#45;&gt;Node11 -->
<g id="edge7" class="edge">
<title>Node15&#45;&gt;Node11</title>
<path fill="none" stroke="orange" stroke-dasharray="5,2" d="M364.29,-120.23C390.19,-124.69 419.3,-129.69 447.2,-134.49"/>
<polygon fill="orange" stroke="orange" points="364.6,-116.74 354.15,-118.49 363.42,-123.64 364.6,-116.74"/>
<text text-anchor="middle" x="397.5" y="-132" font-family="Helvetica,sans-Serif" font-size="10.00"> TProperty</text>
</g>
<!-- Node16 -->
<g id="node9" class="node">
<title>Node16</title>
<g id="a_node9"><a xlink:href="interfacefiftyone_1_1pipeline_1_1core_1_1typed_1_1_typed_key.html" target="_top" xlink:title=" ">
<polygon fill="none" stroke="black" points="858,-39 858,-69 1011,-69 1011,-39 858,-39"/>
<text text-anchor="start" x="866" y="-57" font-family="Helvetica,sans-Serif" font-size="10.00">fiftyone.pipeline.core.typed.</text>
<text text-anchor="middle" x="934.5" y="-46" font-family="Helvetica,sans-Serif" font-size="10.00">TypedKey&lt; TData &gt;</text>
</a>
</g>
</g>
<!-- Node16&#45;&gt;Node9 -->
<g id="edge8" class="edge">
<title>Node16&#45;&gt;Node9</title>
<path fill="none" stroke="#9a32cd" stroke-dasharray="5,2" d="M1021.32,-62.39C1045.84,-65.25 1072.54,-68.81 1097,-73 1102.82,-74 1108.79,-75.1 1114.79,-76.28"/>
<polygon fill="#9a32cd" stroke="#9a32cd" points="1021.66,-58.91 1011.33,-61.25 1020.86,-65.86 1021.66,-58.91"/>
<text text-anchor="middle" x="1072.5" y="-76" font-family="Helvetica,sans-Serif" font-size="10.00"> typedKey</text>
</g>
<!-- Node17 -->
<g id="node10" class="node">
<title>Node17</title>
<g id="a_node10"><a xlink:href="interfacefiftyone_1_1pipeline_1_1core_1_1typed_1_1_typed_key.html" target="_top" xlink:title="Holds a name and a type to allow for type safe operations on named values.">
<polygon fill="none" stroke="black" points="491,-39 491,-69 644,-69 644,-39 491,-39"/>
<text text-anchor="start" x="499" y="-57" font-family="Helvetica,sans-Serif" font-size="10.00">fiftyone.pipeline.core.typed.</text>
<text text-anchor="middle" x="567.5" y="-46" font-family="Helvetica,sans-Serif" font-size="10.00">TypedKey&lt; T &gt;</text>
</a>
</g>
</g>
<!-- Node17&#45;&gt;Node16 -->
<g id="edge9" class="edge">
<title>Node17&#45;&gt;Node16</title>
<path fill="none" stroke="orange" stroke-dasharray="5,2" d="M654.25,-54C716.04,-54 798.65,-54 857.97,-54"/>
<polygon fill="orange" stroke="orange" points="654.13,-50.5 644.13,-54 654.13,-57.5 654.13,-50.5"/>
<text text-anchor="middle" x="766.5" y="-57" font-family="Helvetica,sans-Serif" font-size="10.00"> &lt; TData &gt;</text>
</g>
<!-- Node18 -->
<g id="node11" class="node">
<title>Node18</title>
<g id="a_node11"><a xlink:title=" ">
<polygon fill="none" stroke="#bfbfbf" points="909.5,-0.5 909.5,-19.5 959.5,-19.5 959.5,-0.5 909.5,-0.5"/>
<text text-anchor="middle" x="934.5" y="-7.5" font-family="Helvetica,sans-Serif" font-size="10.00">Logger</text>
</a>
</g>
</g>
<!-- Node18&#45;&gt;Node9 -->
<g id="edge10" class="edge">
<title>Node18&#45;&gt;Node9</title>
<path fill="none" stroke="#9a32cd" stroke-dasharray="5,2" d="M969.79,-15.99C987.82,-19.37 1010.22,-23.93 1030,-29 1060.23,-36.75 1067.76,-39.1 1097,-50 1114.64,-56.57 1133.53,-64.46 1150.62,-71.92"/>
<polygon fill="#9a32cd" stroke="#9a32cd" points="970.21,-12.51 959.74,-14.15 968.94,-19.4 970.21,-12.51"/>
<text text-anchor="middle" x="1072.5" y="-53" font-family="Helvetica,sans-Serif" font-size="10.00"> logger</text>
</g>
</g>
</svg>
