<?xml version="1.0" encoding="UTF-8" standalone="no"?>
<!DOCTYPE svg PUBLIC "-//W3C//DTD SVG 1.1//EN"
 "http://www.w3.org/Graphics/SVG/1.1/DTD/svg11.dtd">
<!-- Generated by graphviz version 2.43.0 (0)
 -->
<!-- Title: fiftyone.pipeline.core.flowelements.PipelineBuilderBase&lt; T extends PipelineBuilderBase &gt; Pages: 1 -->
<svg width="761pt" height="172pt"
 viewBox="0.00 0.00 761.00 172.00" xmlns="http://www.w3.org/2000/svg" xmlns:xlink="http://www.w3.org/1999/xlink">
<g id="graph0" class="graph" transform="scale(1 1) rotate(0) translate(4 168)">
<title>fiftyone.pipeline.core.flowelements.PipelineBuilderBase&lt; T extends PipelineBuilderBase &gt;</title>
<!-- Node8 -->
<g id="node1" class="node">
<title>Node8</title>
<g id="a_node1"><a xlink:title="Abstract base class for all Pipeline builders.">
<polygon fill="#bfbfbf" stroke="black" points="562,-44.5 562,-85.5 753,-85.5 753,-44.5 562,-44.5"/>
<text text-anchor="start" x="570" y="-73.5" font-family="Helvetica,sans-Serif" font-size="10.00">fiftyone.pipeline.core.flowelements.</text>
<text text-anchor="start" x="570" y="-62.5" font-family="Helvetica,sans-Serif" font-size="10.00">PipelineBuilderBase&lt; T extends</text>
<text text-anchor="middle" x="657.5" y="-51.5" font-family="Helvetica,sans-Serif" font-size="10.00"> PipelineBuilderBase &gt;</text>
</a>
</g>
</g>
<!-- Node8&#45;&gt;Node8 -->
<g id="edge7" class="edge">
<title>Node8&#45;&gt;Node8</title>
<path fill="none" stroke="orange" stroke-dasharray="5,2" d="M632.04,-95.86C635.82,-100.7 644.31,-104 657.5,-104 678.6,-104 687.67,-95.54 684.7,-85.86"/>
<polygon fill="orange" stroke="orange" points="635.46,-95.12 630.3,-85.86 628.57,-96.32 635.46,-95.12"/>
<text text-anchor="middle" x="657.5" y="-107" font-family="Helvetica,sans-Serif" font-size="10.00"> T</text>
</g>
<!-- Node9 -->
<g id="node2" class="node">
<title>Node9</title>
<g id="a_node2"><a xlink:title=" ">
<polygon fill="none" stroke="#bfbfbf" points="236,-126 236,-156 456,-156 456,-126 236,-126"/>
<text text-anchor="start" x="244" y="-144" font-family="Helvetica,sans-Serif" font-size="10.00">List&lt; fiftyone.pipeline.core.flowelements.</text>
<text text-anchor="middle" x="346" y="-133" font-family="Helvetica,sans-Serif" font-size="10.00">FlowElement &gt;</text>
</a>
</g>
</g>
<!-- Node9&#45;&gt;Node8 -->
<g id="edge1" class="edge">
<title>Node9&#45;&gt;Node8</title>
<path fill="none" stroke="#9a32cd" stroke-dasharray="5,2" d="M426.42,-123.7C462.41,-115.64 505.44,-105.71 544,-96 556.87,-92.76 570.52,-89.15 583.7,-85.57"/>
<polygon fill="#9a32cd" stroke="#9a32cd" points="425.47,-120.33 416.47,-125.92 426.99,-127.16 425.47,-120.33"/>
<text text-anchor="middle" x="509" y="-115" font-family="Helvetica,sans-Serif" font-size="10.00"> flowElements</text>
</g>
<!-- Node10 -->
<g id="node3" class="node">
<title>Node10</title>
<g id="a_node3"><a xlink:title=" ">
<polygon fill="none" stroke="#bfbfbf" points="0,-106.5 0,-125.5 34,-125.5 34,-106.5 0,-106.5"/>
<text text-anchor="middle" x="17" y="-113.5" font-family="Helvetica,sans-Serif" font-size="10.00">List</text>
</a>
</g>
</g>
<!-- Node10&#45;&gt;Node9 -->
<g id="edge2" class="edge">
<title>Node10&#45;&gt;Node9</title>
<path fill="none" stroke="orange" stroke-dasharray="5,2" d="M44.25,-118.01C85.52,-121.16 167.88,-127.46 235.99,-132.67"/>
<polygon fill="orange" stroke="orange" points="44.45,-114.51 34.22,-117.24 43.92,-121.49 44.45,-114.51"/>
<text text-anchor="start" x="85" y="-156" font-family="Helvetica,sans-Serif" font-size="10.00"> &lt; fiftyone::pipeline</text>
<text text-anchor="start" x="85" y="-145" font-family="Helvetica,sans-Serif" font-size="10.00">::core::flowelements</text>
<text text-anchor="middle" x="135" y="-134" font-family="Helvetica,sans-Serif" font-size="10.00">::FlowElement &gt;</text>
</g>
<!-- Node12 -->
<g id="node5" class="node">
<title>Node12</title>
<g id="a_node5"><a xlink:title=" ">
<polygon fill="none" stroke="#bfbfbf" points="249,-77 249,-107 443,-107 443,-77 249,-77"/>
<text text-anchor="start" x="257" y="-95" font-family="Helvetica,sans-Serif" font-size="10.00">List&lt; fiftyone.pipeline.core.services.</text>
<text text-anchor="middle" x="346" y="-84" font-family="Helvetica,sans-Serif" font-size="10.00">PipelineService &gt;</text>
</a>
</g>
</g>
<!-- Node10&#45;&gt;Node12 -->
<g id="edge5" class="edge">
<title>Node10&#45;&gt;Node12</title>
<path fill="none" stroke="orange" stroke-dasharray="5,2" d="M39.54,-101.13C43.53,-99.03 47.77,-97.18 52,-96 115.94,-78.12 190.83,-77.43 248.89,-81.05"/>
<polygon fill="orange" stroke="orange" points="37.64,-98.19 30.84,-106.31 41.22,-104.2 37.64,-98.19"/>
<text text-anchor="start" x="52" y="-110" font-family="Helvetica,sans-Serif" font-size="10.00"> &lt; fiftyone::pipeline</text>
<text text-anchor="middle" x="135" y="-99" font-family="Helvetica,sans-Serif" font-size="10.00">::core::services::PipelineService &gt;</text>
</g>
<!-- Node11 -->
<g id="node4" class="node">
<title>Node11</title>
<g id="a_node4"><a xlink:title=" ">
<polygon fill="none" stroke="#bfbfbf" points="321,-38.5 321,-57.5 371,-57.5 371,-38.5 321,-38.5"/>
<text text-anchor="middle" x="346" y="-45.5" font-family="Helvetica,sans-Serif" font-size="10.00">Logger</text>
</a>
</g>
</g>
<!-- Node11&#45;&gt;Node8 -->
<g id="edge3" class="edge">
<title>Node11&#45;&gt;Node8</title>
<path fill="none" stroke="#9a32cd" stroke-dasharray="5,2" d="M381.4,-48.35C420.74,-48.91 487.07,-50.35 544,-54 549.78,-54.37 555.72,-54.8 561.71,-55.27"/>
<polygon fill="#9a32cd" stroke="#9a32cd" points="381.33,-44.85 371.29,-48.22 381.24,-51.85 381.33,-44.85"/>
<text text-anchor="middle" x="509" y="-57" font-family="Helvetica,sans-Serif" font-size="10.00"> logger</text>
</g>
<!-- Node12&#45;&gt;Node8 -->
<g id="edge4" class="edge">
<title>Node12&#45;&gt;Node8</title>
<path fill="none" stroke="#9a32cd" stroke-dasharray="5,2" d="M453.54,-82.71C488.76,-79.63 527.67,-76.24 561.92,-73.25"/>
<polygon fill="#9a32cd" stroke="#9a32cd" points="452.89,-79.25 443.23,-83.61 453.5,-86.22 452.89,-79.25"/>
<text text-anchor="middle" x="509" y="-84" font-family="Helvetica,sans-Serif" font-size="10.00"> services</text>
</g>
<!-- Node13 -->
<g id="node6" class="node">
<title>Node13</title>
<g id="a_node6"><a xlink:title=" ">
<polygon fill="none" stroke="#bfbfbf" points="302,-0.5 302,-19.5 390,-19.5 390,-0.5 302,-0.5"/>
<text text-anchor="middle" x="346" y="-7.5" font-family="Helvetica,sans-Serif" font-size="10.00">ILoggerFactory</text>
</a>
</g>
</g>
<!-- Node13&#45;&gt;Node8 -->
<g id="edge6" class="edge">
<title>Node13&#45;&gt;Node8</title>
<path fill="none" stroke="#9a32cd" stroke-dasharray="5,2" d="M400.3,-15.27C440.1,-19.63 495.71,-26.63 544,-36 556.38,-38.4 569.41,-41.36 582.05,-44.46"/>
<polygon fill="#9a32cd" stroke="#9a32cd" points="400.6,-11.78 390.28,-14.19 399.85,-18.74 400.6,-11.78"/>
<text text-anchor="middle" x="509" y="-39" font-family="Helvetica,sans-Serif" font-size="10.00"> loggerFactory</text>
</g>
</g>
</svg>
