<?xml version="1.0" encoding="UTF-8" standalone="no"?>
<!DOCTYPE svg PUBLIC "-//W3C//DTD SVG 1.1//EN"
 "http://www.w3.org/Graphics/SVG/1.1/DTD/svg11.dtd">
<!-- Generated by graphviz version 2.43.0 (0)
 -->
<!-- Title: fiftyone.pipeline.web.mvc.services.WebRequestEvidenceService.Default Pages: 1 -->
<svg width="676pt" height="88pt"
 viewBox="0.00 0.00 676.00 88.00" xmlns="http://www.w3.org/2000/svg" xmlns:xlink="http://www.w3.org/1999/xlink">
<g id="graph0" class="graph" transform="scale(1 1) rotate(0) translate(4 84)">
<title>fiftyone.pipeline.web.mvc.services.WebRequestEvidenceService.Default</title>
<!-- Node0 -->
<g id="node1" class="node">
<title>Node0</title>
<g id="a_node1"><a xlink:title=" ">
<polygon fill="#bfbfbf" stroke="black" points="471,-24.5 471,-54.5 668,-54.5 668,-24.5 471,-24.5"/>
<text text-anchor="start" x="479" y="-42.5" font-family="Helvetica,sans-Serif" font-size="10.00">fiftyone.pipeline.web.mvc.services.</text>
<text text-anchor="middle" x="569.5" y="-31.5" font-family="Helvetica,sans-Serif" font-size="10.00">WebRequestEvidenceService.Default</text>
</a>
</g>
</g>
<!-- Node1 -->
<g id="node2" class="node">
<title>Node1</title>
<g id="a_node2"><a xlink:href="classfiftyone_1_1pipeline_1_1web_1_1services_1_1_web_request_evidence_service_core_1_1_default.html" target="_top" xlink:title="Default implementation of the WebRequestEvidenceServiceCore service.">
<polygon fill="none" stroke="black" points="216,-49.5 216,-79.5 435,-79.5 435,-49.5 216,-49.5"/>
<text text-anchor="start" x="224" y="-67.5" font-family="Helvetica,sans-Serif" font-size="10.00">fiftyone.pipeline.web.services.</text>
<text text-anchor="middle" x="325.5" y="-56.5" font-family="Helvetica,sans-Serif" font-size="10.00">WebRequestEvidenceServiceCore.Default</text>
</a>
</g>
</g>
<!-- Node1&#45;&gt;Node0 -->
<g id="edge1" class="edge">
<title>Node1&#45;&gt;Node0</title>
<path fill="none" stroke="midnightblue" d="M445.21,-52.24C453.83,-51.35 462.46,-50.45 470.94,-49.58"/>
<polygon fill="midnightblue" stroke="midnightblue" points="444.7,-48.77 435.11,-53.28 445.42,-55.73 444.7,-48.77"/>
</g>
<!-- Node2 -->
<g id="node3" class="node">
<title>Node2</title>
<g id="a_node3"><a xlink:href="interfacefiftyone_1_1pipeline_1_1web_1_1services_1_1_web_request_evidence_service_core.html" target="_top" xlink:title="Service used to populate the Evidence from a HttpServletRequest ready for it to be processed by the P...">
<polygon fill="none" stroke="black" points="0,-24.5 0,-54.5 180,-54.5 180,-24.5 0,-24.5"/>
<text text-anchor="start" x="8" y="-42.5" font-family="Helvetica,sans-Serif" font-size="10.00">fiftyone.pipeline.web.services.</text>
<text text-anchor="middle" x="90" y="-31.5" font-family="Helvetica,sans-Serif" font-size="10.00">WebRequestEvidenceServiceCore</text>
</a>
</g>
</g>
<!-- Node2&#45;&gt;Node1 -->
<g id="edge2" class="edge">
<title>Node2&#45;&gt;Node1</title>
<path fill="none" stroke="midnightblue" d="M190.41,-50.14C198.77,-51.04 207.26,-51.95 215.69,-52.85"/>
<polygon fill="midnightblue" stroke="midnightblue" points="190.59,-46.64 180.28,-49.06 189.85,-53.6 190.59,-46.64"/>
</g>
<!-- Node3 -->
<g id="node4" class="node">
<title>Node3</title>
<g id="a_node4"><a xlink:href="interfacefiftyone_1_1pipeline_1_1web_1_1mvc_1_1services_1_1_web_request_evidence_service.html" target="_top" xlink:title="Spring framework service for the WebRequestEvidenceServiceCore.">
<polygon fill="none" stroke="black" points="231,-0.5 231,-30.5 420,-30.5 420,-0.5 231,-0.5"/>
<text text-anchor="start" x="239" y="-18.5" font-family="Helvetica,sans-Serif" font-size="10.00">fiftyone.pipeline.web.mvc.services.</text>
<text text-anchor="middle" x="325.5" y="-7.5" font-family="Helvetica,sans-Serif" font-size="10.00">WebRequestEvidenceService</text>
</a>
</g>
</g>
<!-- Node2&#45;&gt;Node3 -->
<g id="edge4" class="edge">
<title>Node2&#45;&gt;Node3</title>
<path fill="none" stroke="midnightblue" d="M190.4,-29.28C203.74,-27.91 217.38,-26.51 230.62,-25.15"/>
<polygon fill="midnightblue" stroke="midnightblue" points="189.87,-25.82 180.28,-30.32 190.58,-32.78 189.87,-25.82"/>
</g>
<!-- Node3&#45;&gt;Node0 -->
<g id="edge3" class="edge">
<title>Node3&#45;&gt;Node0</title>
<path fill="none" stroke="midnightblue" d="M430.27,-25.79C443.71,-27.12 457.44,-28.49 470.78,-29.81"/>
<polygon fill="midnightblue" stroke="midnightblue" points="430.36,-22.28 420.06,-24.78 429.67,-29.25 430.36,-22.28"/>
</g>
</g>
</svg>
