<?xml version="1.0" encoding="UTF-8" standalone="no"?>
<!DOCTYPE svg PUBLIC "-//W3C//DTD SVG 1.1//EN"
 "http://www.w3.org/Graphics/SVG/1.1/DTD/svg11.dtd">
<!-- Generated by graphviz version 2.43.0 (0)
 -->
<!-- Title: fiftyone.pipeline.javascriptbuilder.flowelements.JavaScriptBuilderDataInternal Pages: 1 -->
<svg width="927pt" height="89pt"
 viewBox="0.00 0.00 927.00 89.00" xmlns="http://www.w3.org/2000/svg" xmlns:xlink="http://www.w3.org/1999/xlink">
<g id="graph0" class="graph" transform="scale(1 1) rotate(0) translate(4 85)">
<title>fiftyone.pipeline.javascriptbuilder.flowelements.JavaScriptBuilderDataInternal</title>
<!-- Node6 -->
<g id="node1" class="node">
<title>Node6</title>
<g id="a_node1"><a xlink:title="[class]">
<polygon fill="#bfbfbf" stroke="black" points="668,-25.5 668,-55.5 919,-55.5 919,-25.5 668,-25.5"/>
<text text-anchor="start" x="676" y="-43.5" font-family="Helvetica,sans-Serif" font-size="10.00">fiftyone.pipeline.javascriptbuilder.flowelements.</text>
<text text-anchor="middle" x="793.5" y="-32.5" font-family="Helvetica,sans-Serif" font-size="10.00">JavaScriptBuilderDataInternal</text>
</a>
</g>
</g>
<!-- Node7 -->
<g id="node2" class="node">
<title>Node7</title>
<g id="a_node2"><a xlink:href="classfiftyone_1_1pipeline_1_1core_1_1data_1_1_element_data_base.html" target="_top" xlink:title="Base implementation of ElementData.">
<polygon fill="none" stroke="black" points="454,-1.5 454,-31.5 601,-31.5 601,-1.5 454,-1.5"/>
<text text-anchor="start" x="462" y="-19.5" font-family="Helvetica,sans-Serif" font-size="10.00">fiftyone.pipeline.core.data.</text>
<text text-anchor="middle" x="527.5" y="-8.5" font-family="Helvetica,sans-Serif" font-size="10.00">ElementDataBase</text>
</a>
</g>
</g>
<!-- Node7&#45;&gt;Node6 -->
<g id="edge1" class="edge">
<title>Node7&#45;&gt;Node6</title>
<path fill="none" stroke="midnightblue" d="M611.45,-24.04C629.42,-25.67 648.8,-27.44 667.97,-29.18"/>
<polygon fill="midnightblue" stroke="midnightblue" points="611.61,-20.54 601.34,-23.12 610.98,-27.51 611.61,-20.54"/>
</g>
<!-- Node8 -->
<g id="node3" class="node">
<title>Node8</title>
<g id="a_node3"><a xlink:href="classfiftyone_1_1pipeline_1_1core_1_1data_1_1_data_base.html" target="_top" xlink:title="This implementation of Data stores data values as key/value pairs in a Map where the key is a string ...">
<polygon fill="none" stroke="black" points="240,-0.5 240,-30.5 387,-30.5 387,-0.5 240,-0.5"/>
<text text-anchor="start" x="248" y="-18.5" font-family="Helvetica,sans-Serif" font-size="10.00">fiftyone.pipeline.core.data.</text>
<text text-anchor="middle" x="313.5" y="-7.5" font-family="Helvetica,sans-Serif" font-size="10.00">DataBase</text>
</a>
</g>
</g>
<!-- Node8&#45;&gt;Node7 -->
<g id="edge2" class="edge">
<title>Node8&#45;&gt;Node7</title>
<path fill="none" stroke="midnightblue" d="M397.41,-15.89C416.07,-15.98 435.73,-16.07 453.93,-16.16"/>
<polygon fill="midnightblue" stroke="midnightblue" points="397.18,-12.39 387.16,-15.84 397.15,-19.39 397.18,-12.39"/>
</g>
<!-- Node9 -->
<g id="node4" class="node">
<title>Node9</title>
<g id="a_node4"><a xlink:href="interfacefiftyone_1_1pipeline_1_1core_1_1data_1_1_data.html" target="_top" xlink:title="Represents a collection of property values.">
<polygon fill="none" stroke="black" points="0,-48 0,-67 170,-67 170,-48 0,-48"/>
<text text-anchor="middle" x="85" y="-55" font-family="Helvetica,sans-Serif" font-size="10.00">fiftyone.pipeline.core.data.Data</text>
</a>
</g>
</g>
<!-- Node9&#45;&gt;Node8 -->
<g id="edge3" class="edge">
<title>Node9&#45;&gt;Node8</title>
<path fill="none" stroke="midnightblue" d="M147.25,-46.14C175.8,-40.85 209.99,-34.51 239.84,-28.97"/>
<polygon fill="midnightblue" stroke="midnightblue" points="146.59,-42.7 137.4,-47.97 147.87,-49.59 146.59,-42.7"/>
</g>
<!-- Node11 -->
<g id="node6" class="node">
<title>Node11</title>
<g id="a_node6"><a xlink:href="interfacefiftyone_1_1pipeline_1_1core_1_1data_1_1_element_data.html" target="_top" xlink:title="Represents property values that have be determined by a specific FlowElement based on the supplied ev...">
<polygon fill="none" stroke="black" points="240,-49.5 240,-79.5 387,-79.5 387,-49.5 240,-49.5"/>
<text text-anchor="start" x="248" y="-67.5" font-family="Helvetica,sans-Serif" font-size="10.00">fiftyone.pipeline.core.data.</text>
<text text-anchor="middle" x="313.5" y="-56.5" font-family="Helvetica,sans-Serif" font-size="10.00">ElementData</text>
</a>
</g>
</g>
<!-- Node9&#45;&gt;Node11 -->
<g id="edge6" class="edge">
<title>Node9&#45;&gt;Node11</title>
<path fill="none" stroke="midnightblue" d="M180.05,-60.41C200,-61.02 220.77,-61.67 239.79,-62.25"/>
<polygon fill="midnightblue" stroke="midnightblue" points="180.12,-56.91 170.02,-60.1 179.91,-63.9 180.12,-56.91"/>
</g>
<!-- Node10 -->
<g id="node5" class="node">
<title>Node10</title>
<g id="a_node5"><a xlink:title=" ">
<polygon fill="none" stroke="#bfbfbf" points="60,-4 60,-23 110,-23 110,-4 60,-4"/>
<text text-anchor="middle" x="85" y="-11" font-family="Helvetica,sans-Serif" font-size="10.00">Logger</text>
</a>
</g>
</g>
<!-- Node10&#45;&gt;Node8 -->
<g id="edge4" class="edge">
<title>Node10&#45;&gt;Node8</title>
<path fill="none" stroke="#9a32cd" stroke-dasharray="5,2" d="M120.35,-13.72C147.85,-13.9 187.4,-14.18 222,-14.5 227.81,-14.55 233.84,-14.61 239.89,-14.67"/>
<polygon fill="#9a32cd" stroke="#9a32cd" points="120.1,-10.22 110.08,-13.65 120.05,-17.22 120.1,-10.22"/>
<text text-anchor="middle" x="205" y="-17.5" font-family="Helvetica,sans-Serif" font-size="10.00"> logger</text>
</g>
<!-- Node11&#45;&gt;Node7 -->
<g id="edge5" class="edge">
<title>Node11&#45;&gt;Node7</title>
<path fill="none" stroke="midnightblue" d="M390.92,-47.2C413.61,-42.06 438.26,-36.48 460.24,-31.5"/>
<polygon fill="midnightblue" stroke="midnightblue" points="389.98,-43.82 381,-49.44 391.52,-50.65 389.98,-43.82"/>
</g>
<!-- Node12 -->
<g id="node7" class="node">
<title>Node12</title>
<g id="a_node7"><a xlink:href="interfacefiftyone_1_1pipeline_1_1javascriptbuilder_1_1data_1_1_java_script_builder_data.html" target="_top" xlink:title="Data containing the result of a JavaScriptBuilderElements processing.">
<polygon fill="none" stroke="black" points="424,-50.5 424,-80.5 631,-80.5 631,-50.5 424,-50.5"/>
<text text-anchor="start" x="432" y="-68.5" font-family="Helvetica,sans-Serif" font-size="10.00">fiftyone.pipeline.javascriptbuilder.data.</text>
<text text-anchor="middle" x="527.5" y="-57.5" font-family="Helvetica,sans-Serif" font-size="10.00">JavaScriptBuilderData</text>
</a>
</g>
</g>
<!-- Node11&#45;&gt;Node12 -->
<g id="edge8" class="edge">
<title>Node11&#45;&gt;Node12</title>
<path fill="none" stroke="midnightblue" d="M397.31,-64.89C406.05,-64.93 415.01,-64.97 423.94,-65.02"/>
<polygon fill="midnightblue" stroke="midnightblue" points="397.18,-61.39 387.16,-64.84 397.15,-68.39 397.18,-61.39"/>
</g>
<!-- Node12&#45;&gt;Node6 -->
<g id="edge7" class="edge">
<title>Node12&#45;&gt;Node6</title>
<path fill="none" stroke="midnightblue" d="M641.54,-54.8C650.29,-53.97 659.15,-53.13 667.97,-52.29"/>
<polygon fill="midnightblue" stroke="midnightblue" points="640.95,-51.34 631.33,-55.76 641.61,-58.3 640.95,-51.34"/>
</g>
</g>
</svg>
