<?xml version="1.0" encoding="UTF-8" standalone="no"?>
<!DOCTYPE svg PUBLIC "-//W3C//DTD SVG 1.1//EN"
 "http://www.w3.org/Graphics/SVG/1.1/DTD/svg11.dtd">
<!-- Generated by graphviz version 2.43.0 (0)
 -->
<!-- Title: fiftyone.pipeline.engines.fiftyone.flowelements.ShareUsageBuilder Pages: 1 -->
<svg width="2887pt" height="279pt"
 viewBox="0.00 0.00 2887.00 278.50" xmlns="http://www.w3.org/2000/svg" xmlns:xlink="http://www.w3.org/1999/xlink">
<g id="graph0" class="graph" transform="scale(1 1) rotate(0) translate(4 274.5)">
<title>fiftyone.pipeline.engines.fiftyone.flowelements.ShareUsageBuilder</title>
<!-- Node11 -->
<g id="node1" class="node">
<title>Node11</title>
<g id="a_node1"><a xlink:title="Builder class that is used to create ShareUsageElement.">
<polygon fill="#bfbfbf" stroke="black" points="2631,-93.5 2631,-123.5 2879,-123.5 2879,-93.5 2631,-93.5"/>
<text text-anchor="start" x="2639" y="-111.5" font-family="Helvetica,sans-Serif" font-size="10.00">fiftyone.pipeline.engines.fiftyone.flowelements.</text>
<text text-anchor="middle" x="2755" y="-100.5" font-family="Helvetica,sans-Serif" font-size="10.00">ShareUsageBuilder</text>
</a>
</g>
</g>
<!-- Node12 -->
<g id="node2" class="node">
<title>Node12</title>
<g id="a_node2"><a xlink:href="classfiftyone_1_1pipeline_1_1engines_1_1fiftyone_1_1flowelements_1_1_share_usage_builder_base.html" target="_top" xlink:title=" ">
<polygon fill="none" stroke="black" points="2339,-93.5 2339,-123.5 2594,-123.5 2594,-93.5 2339,-93.5"/>
<text text-anchor="start" x="2347" y="-111.5" font-family="Helvetica,sans-Serif" font-size="10.00">fiftyone.pipeline.engines.fiftyone.flowelements.</text>
<text text-anchor="middle" x="2466.5" y="-100.5" font-family="Helvetica,sans-Serif" font-size="10.00">ShareUsageBuilderBase&lt; ShareUsageElement &gt;</text>
</a>
</g>
</g>
<!-- Node12&#45;&gt;Node11 -->
<g id="edge1" class="edge">
<title>Node12&#45;&gt;Node11</title>
<path fill="none" stroke="midnightblue" d="M2604.67,-108.5C2613.43,-108.5 2622.22,-108.5 2630.91,-108.5"/>
<polygon fill="midnightblue" stroke="midnightblue" points="2604.41,-105 2594.41,-108.5 2604.41,-112 2604.41,-105"/>
</g>
<!-- Node13 -->
<g id="node3" class="node">
<title>Node13</title>
<g id="a_node3"><a xlink:href="classfiftyone_1_1pipeline_1_1engines_1_1fiftyone_1_1flowelements_1_1_share_usage_builder_base.html" target="_top" xlink:title="Abstract base class for ShareUsageElement builders.">
<polygon fill="none" stroke="black" points="1888,-93.5 1888,-123.5 2178,-123.5 2178,-93.5 1888,-93.5"/>
<text text-anchor="start" x="1896" y="-111.5" font-family="Helvetica,sans-Serif" font-size="10.00">fiftyone.pipeline.engines.fiftyone.flowelements.</text>
<text text-anchor="middle" x="2033" y="-100.5" font-family="Helvetica,sans-Serif" font-size="10.00">ShareUsageBuilderBase&lt; T extends ShareUsageBase &gt;</text>
</a>
</g>
</g>
<!-- Node13&#45;&gt;Node12 -->
<g id="edge2" class="edge">
<title>Node13&#45;&gt;Node12</title>
<path fill="none" stroke="orange" stroke-dasharray="5,2" d="M2188.4,-108.5C2237.69,-108.5 2291.64,-108.5 2338.73,-108.5"/>
<polygon fill="orange" stroke="orange" points="2188.28,-105 2178.28,-108.5 2188.28,-112 2188.28,-105"/>
<text text-anchor="middle" x="2258.5" y="-111.5" font-family="Helvetica,sans-Serif" font-size="10.00"> &lt; ShareUsageElement &gt;</text>
</g>
<!-- Node14 -->
<g id="node4" class="node">
<title>Node14</title>
<g id="a_node4"><a xlink:title=" ">
<polygon fill="none" stroke="#bfbfbf" points="909.5,-238 909.5,-257 959.5,-257 959.5,-238 909.5,-238"/>
<text text-anchor="middle" x="934.5" y="-245" font-family="Helvetica,sans-Serif" font-size="10.00">Logger</text>
</a>
</g>
</g>
<!-- Node14&#45;&gt;Node13 -->
<g id="edge3" class="edge">
<title>Node14&#45;&gt;Node13</title>
<path fill="none" stroke="#9a32cd" stroke-dasharray="5,2" d="M969.57,-250.21C1005.66,-252.94 1064.3,-256.95 1115,-258.5 1452.93,-268.84 1542.5,-249.47 1870,-165.5 1913.9,-154.24 1962.78,-136.26 1995.25,-123.51"/>
<polygon fill="#9a32cd" stroke="#9a32cd" points="969.81,-246.72 959.58,-249.45 969.28,-253.7 969.81,-246.72"/>
<text text-anchor="middle" x="1374.5" y="-262.5" font-family="Helvetica,sans-Serif" font-size="10.00"> logger</text>
</g>
<!-- Node20 -->
<g id="node10" class="node">
<title>Node20</title>
<g id="a_node10"><a xlink:href="classfiftyone_1_1pipeline_1_1core_1_1flowelements_1_1_flow_element_base.html" target="_top" xlink:title="Provides a base class from which authors may create new FlowElements.">
<polygon fill="none" stroke="black" points="1115,-82.5 1115,-134.5 1303,-134.5 1303,-82.5 1115,-82.5"/>
<text text-anchor="start" x="1123" y="-122.5" font-family="Helvetica,sans-Serif" font-size="10.00">fiftyone::pipeline</text>
<text text-anchor="start" x="1123" y="-111.5" font-family="Helvetica,sans-Serif" font-size="10.00">::core::flowelements</text>
<text text-anchor="start" x="1123" y="-100.5" font-family="Helvetica,sans-Serif" font-size="10.00">::FlowElementBase&lt; ElementData,</text>
<text text-anchor="middle" x="1209" y="-89.5" font-family="Helvetica,sans-Serif" font-size="10.00"> ElementPropertyMetaData &gt;</text>
</a>
</g>
</g>
<!-- Node14&#45;&gt;Node20 -->
<g id="edge19" class="edge">
<title>Node14&#45;&gt;Node20</title>
<path fill="none" stroke="#9a32cd" stroke-dasharray="5,2" d="M969.04,-234.51C1003.22,-220.35 1056.77,-195.49 1097,-164.5 1106.47,-157.2 1105.15,-151.29 1115,-144.5 1120.13,-140.96 1125.66,-137.71 1131.37,-134.73"/>
<polygon fill="#9a32cd" stroke="#9a32cd" points="967.46,-231.38 959.52,-238.39 970.1,-237.86 967.46,-231.38"/>
<text text-anchor="middle" x="1072.5" y="-197.5" font-family="Helvetica,sans-Serif" font-size="10.00"> logger</text>
</g>
<!-- Node15 -->
<g id="node5" class="node">
<title>Node15</title>
<g id="a_node5"><a xlink:title=" ">
<polygon fill="none" stroke="#bfbfbf" points="1501.5,-49.5 1501.5,-79.5 1638.5,-79.5 1638.5,-49.5 1501.5,-49.5"/>
<text text-anchor="start" x="1509.5" y="-67.5" font-family="Helvetica,sans-Serif" font-size="10.00">List&lt; Map.Entry&lt; String,</text>
<text text-anchor="middle" x="1570" y="-56.5" font-family="Helvetica,sans-Serif" font-size="10.00"> String &gt; &gt;</text>
</a>
</g>
</g>
<!-- Node15&#45;&gt;Node13 -->
<g id="edge4" class="edge">
<title>Node15&#45;&gt;Node13</title>
<path fill="none" stroke="#9a32cd" stroke-dasharray="5,2" d="M1648.72,-71.92C1713.86,-78.14 1808.61,-87.18 1887.61,-94.72"/>
<polygon fill="#9a32cd" stroke="#9a32cd" points="1648.81,-68.41 1638.53,-70.95 1648.15,-75.38 1648.81,-68.41"/>
<text text-anchor="middle" x="1791" y="-95.5" font-family="Helvetica,sans-Serif" font-size="10.00"> ignoreDataEvidenceFilter</text>
</g>
<!-- Node16 -->
<g id="node6" class="node">
<title>Node16</title>
<g id="a_node6"><a xlink:title=" ">
<polygon fill="none" stroke="#bfbfbf" points="1192,-44 1192,-63 1226,-63 1226,-44 1192,-44"/>
<text text-anchor="middle" x="1209" y="-51" font-family="Helvetica,sans-Serif" font-size="10.00">List</text>
</a>
</g>
</g>
<!-- Node16&#45;&gt;Node15 -->
<g id="edge5" class="edge">
<title>Node16&#45;&gt;Node15</title>
<path fill="none" stroke="orange" stroke-dasharray="5,2" d="M1236.35,-53.94C1277.34,-54.66 1358.85,-56.24 1428,-58.5 1451.88,-59.28 1478.02,-60.34 1501.24,-61.35"/>
<polygon fill="orange" stroke="orange" points="1236.2,-50.43 1226.14,-53.76 1236.08,-57.43 1236.2,-50.43"/>
<text text-anchor="start" x="1321" y="-72.5" font-family="Helvetica,sans-Serif" font-size="10.00"> &lt; Map.Entry&lt; String,</text>
<text text-anchor="middle" x="1374.5" y="-61.5" font-family="Helvetica,sans-Serif" font-size="10.00"> String &gt; &gt;</text>
</g>
<!-- Node17 -->
<g id="node7" class="node">
<title>Node17</title>
<g id="a_node7"><a xlink:title=" ">
<polygon fill="none" stroke="#bfbfbf" points="1527.5,-99 1527.5,-118 1612.5,-118 1612.5,-99 1527.5,-99"/>
<text text-anchor="middle" x="1570" y="-106" font-family="Helvetica,sans-Serif" font-size="10.00">List&lt; String &gt;</text>
</a>
</g>
</g>
<!-- Node16&#45;&gt;Node17 -->
<g id="edge7" class="edge">
<title>Node16&#45;&gt;Node17</title>
<path fill="none" stroke="orange" stroke-dasharray="5,2" d="M1236.24,-57.99C1255.02,-61.48 1280.81,-66.85 1303,-73.5 1311.22,-75.97 1312.67,-78.45 1321,-80.5 1392.1,-98.02 1477.4,-104.61 1527.17,-107.07"/>
<polygon fill="orange" stroke="orange" points="1236.79,-54.53 1226.33,-56.2 1235.55,-61.42 1236.79,-54.53"/>
<text text-anchor="middle" x="1374.5" y="-100.5" font-family="Helvetica,sans-Serif" font-size="10.00"> &lt; String &gt;</text>
</g>
<!-- Node17&#45;&gt;Node13 -->
<g id="edge6" class="edge">
<title>Node17&#45;&gt;Node13</title>
<path fill="none" stroke="#9a32cd" stroke-dasharray="5,2" d="M1622.93,-108.5C1686.75,-108.5 1797.68,-108.5 1887.93,-108.5"/>
<polygon fill="#9a32cd" stroke="#9a32cd" points="1622.72,-105 1612.72,-108.5 1622.72,-112 1622.72,-105"/>
<text text-anchor="middle" x="1791" y="-122.5" font-family="Helvetica,sans-Serif" font-size="10.00"> includedQueryStringParameters</text>
<text text-anchor="middle" x="1791" y="-111.5" font-family="Helvetica,sans-Serif" font-size="10.00">blockedHttpHeaders</text>
</g>
<!-- Node18 -->
<g id="node8" class="node">
<title>Node18</title>
<g id="a_node8"><a xlink:title=" ">
<polygon fill="none" stroke="#bfbfbf" points="1526,-11 1526,-30 1614,-30 1614,-11 1526,-11"/>
<text text-anchor="middle" x="1570" y="-18" font-family="Helvetica,sans-Serif" font-size="10.00">ILoggerFactory</text>
</a>
</g>
</g>
<!-- Node18&#45;&gt;Node13 -->
<g id="edge8" class="edge">
<title>Node18&#45;&gt;Node13</title>
<path fill="none" stroke="#9a32cd" stroke-dasharray="5,2" d="M1624.12,-26.38C1684.16,-33.47 1784.67,-46.7 1870,-64.5 1908.23,-72.48 1950.82,-84.16 1982.74,-93.48"/>
<polygon fill="#9a32cd" stroke="#9a32cd" points="1624.45,-22.89 1614.11,-25.21 1623.64,-29.85 1624.45,-22.89"/>
<text text-anchor="middle" x="1791" y="-67.5" font-family="Helvetica,sans-Serif" font-size="10.00"> loggerFactory</text>
</g>
<!-- Node19 -->
<g id="node9" class="node">
<title>Node19</title>
<g id="a_node9"><a xlink:href="classfiftyone_1_1pipeline_1_1engines_1_1fiftyone_1_1flowelements_1_1_share_usage_base.html" target="_top" xlink:title="Abstract base class for ShareUsage elements.">
<polygon fill="none" stroke="black" points="1446,-148.5 1446,-178.5 1694,-178.5 1694,-148.5 1446,-148.5"/>
<text text-anchor="start" x="1454" y="-166.5" font-family="Helvetica,sans-Serif" font-size="10.00">fiftyone.pipeline.engines.fiftyone.flowelements.</text>
<text text-anchor="middle" x="1570" y="-155.5" font-family="Helvetica,sans-Serif" font-size="10.00">ShareUsageBase</text>
</a>
</g>
</g>
<!-- Node19&#45;&gt;Node13 -->
<g id="edge9" class="edge">
<title>Node19&#45;&gt;Node13</title>
<path fill="none" stroke="orange" stroke-dasharray="5,2" d="M1704.37,-152.36C1756.16,-147.56 1815.93,-141.45 1870,-134.5 1894.3,-131.38 1920.55,-127.42 1944.71,-123.53"/>
<polygon fill="orange" stroke="orange" points="1703.76,-148.9 1694.12,-153.3 1704.4,-155.87 1703.76,-148.9"/>
<text text-anchor="middle" x="1791" y="-153.5" font-family="Helvetica,sans-Serif" font-size="10.00"> T</text>
</g>
<!-- Node20&#45;&gt;Node19 -->
<g id="edge10" class="edge">
<title>Node20&#45;&gt;Node19</title>
<path fill="none" stroke="midnightblue" d="M1313.5,-124.36C1363.1,-131.96 1422.2,-141.01 1471.06,-148.5"/>
<polygon fill="midnightblue" stroke="midnightblue" points="1313.8,-120.86 1303.39,-122.81 1312.74,-127.78 1313.8,-120.86"/>
</g>
<!-- Node21 -->
<g id="node11" class="node">
<title>Node21</title>
<g id="a_node11"><a xlink:href="interfacefiftyone_1_1pipeline_1_1core_1_1flowelements_1_1_flow_element.html" target="_top" xlink:title=" ">
<polygon fill="none" stroke="black" points="839,-59.5 839,-89.5 1030,-89.5 1030,-59.5 839,-59.5"/>
<text text-anchor="start" x="847" y="-77.5" font-family="Helvetica,sans-Serif" font-size="10.00">fiftyone.pipeline.core.flowelements.</text>
<text text-anchor="middle" x="934.5" y="-66.5" font-family="Helvetica,sans-Serif" font-size="10.00">FlowElement&lt; TData, TProperty &gt;</text>
</a>
</g>
</g>
<!-- Node21&#45;&gt;Node20 -->
<g id="edge11" class="edge">
<title>Node21&#45;&gt;Node20</title>
<path fill="none" stroke="midnightblue" d="M1040.08,-87.55C1064.6,-90.61 1090.56,-93.85 1114.55,-96.84"/>
<polygon fill="midnightblue" stroke="midnightblue" points="1040.4,-84.06 1030.04,-86.3 1039.53,-91.01 1040.4,-84.06"/>
</g>
<!-- Node22 -->
<g id="node12" class="node">
<title>Node22</title>
<g id="a_node12"><a xlink:href="interfacefiftyone_1_1pipeline_1_1core_1_1flowelements_1_1_flow_element.html" target="_top" xlink:title="A component that processes a FlowData (by examining its evidence, or by examining data processed by o...">
<polygon fill="none" stroke="black" points="441,-48 441,-89 694,-89 694,-48 441,-48"/>
<text text-anchor="start" x="449" y="-77" font-family="Helvetica,sans-Serif" font-size="10.00">fiftyone.pipeline.core.flowelements.</text>
<text text-anchor="start" x="449" y="-66" font-family="Helvetica,sans-Serif" font-size="10.00">FlowElement&lt; TData extends ElementData,</text>
<text text-anchor="middle" x="567.5" y="-55" font-family="Helvetica,sans-Serif" font-size="10.00"> TProperty extends ElementPropertyMetaData &gt;</text>
</a>
</g>
</g>
<!-- Node22&#45;&gt;Node21 -->
<g id="edge12" class="edge">
<title>Node22&#45;&gt;Node21</title>
<path fill="none" stroke="orange" stroke-dasharray="5,2" d="M704.2,-70.73C748.97,-71.47 797.77,-72.27 838.8,-72.94"/>
<polygon fill="orange" stroke="orange" points="704.17,-67.23 694.11,-70.56 704.05,-74.23 704.17,-67.23"/>
<text text-anchor="middle" x="766.5" y="-76.5" font-family="Helvetica,sans-Serif" font-size="10.00"> &lt; TData, TProperty &gt;</text>
</g>
<!-- Node23 -->
<g id="node13" class="node">
<title>Node23</title>
<g id="a_node13"><a xlink:title=" ">
<polygon fill="none" stroke="#bfbfbf" points="237,-57 237,-76 324,-76 324,-57 237,-57"/>
<text text-anchor="middle" x="280.5" y="-64" font-family="Helvetica,sans-Serif" font-size="10.00">AutoCloseable</text>
</a>
</g>
</g>
<!-- Node23&#45;&gt;Node22 -->
<g id="edge13" class="edge">
<title>Node23&#45;&gt;Node22</title>
<path fill="none" stroke="midnightblue" d="M334.4,-66.87C364.44,-67.08 403.4,-67.36 440.81,-67.62"/>
<polygon fill="midnightblue" stroke="midnightblue" points="334.19,-63.37 324.17,-66.8 334.14,-70.37 334.19,-63.37"/>
</g>
<!-- Node24 -->
<g id="node14" class="node">
<title>Node24</title>
<g id="a_node14"><a xlink:href="interfacefiftyone_1_1pipeline_1_1core_1_1data_1_1_element_data.html" target="_top" xlink:title="Represents property values that have be determined by a specific FlowElement based on the supplied ev...">
<polygon fill="none" stroke="black" points="207,-102.5 207,-132.5 354,-132.5 354,-102.5 207,-102.5"/>
<text text-anchor="start" x="215" y="-120.5" font-family="Helvetica,sans-Serif" font-size="10.00">fiftyone.pipeline.core.data.</text>
<text text-anchor="middle" x="280.5" y="-109.5" font-family="Helvetica,sans-Serif" font-size="10.00">ElementData</text>
</a>
</g>
</g>
<!-- Node24&#45;&gt;Node20 -->
<g id="edge20" class="edge">
<title>Node24&#45;&gt;Node20</title>
<path fill="none" stroke="orange" stroke-dasharray="5,2" d="M364.24,-116.7C536.68,-115.02 933.53,-111.17 1114.72,-109.41"/>
<polygon fill="orange" stroke="orange" points="364.17,-113.2 354.2,-116.79 364.23,-120.2 364.17,-113.2"/>
<text text-anchor="middle" x="766.5" y="-115.5" font-family="Helvetica,sans-Serif" font-size="10.00"> TData</text>
</g>
<!-- Node24&#45;&gt;Node22 -->
<g id="edge14" class="edge">
<title>Node24&#45;&gt;Node22</title>
<path fill="none" stroke="orange" stroke-dasharray="5,2" d="M363.97,-101.93C366.68,-101.44 369.36,-100.96 372,-100.5 394.24,-96.58 417.95,-92.56 440.88,-88.74"/>
<polygon fill="orange" stroke="orange" points="363.3,-98.49 354.09,-103.72 364.55,-105.38 363.3,-98.49"/>
<text text-anchor="middle" x="397.5" y="-103.5" font-family="Helvetica,sans-Serif" font-size="10.00"> TData</text>
</g>
<!-- Node25 -->
<g id="node15" class="node">
<title>Node25</title>
<g id="a_node15"><a xlink:href="interfacefiftyone_1_1pipeline_1_1core_1_1data_1_1_data.html" target="_top" xlink:title="Represents a collection of property values.">
<polygon fill="none" stroke="black" points="0,-108 0,-127 170,-127 170,-108 0,-108"/>
<text text-anchor="middle" x="85" y="-115" font-family="Helvetica,sans-Serif" font-size="10.00">fiftyone.pipeline.core.data.Data</text>
</a>
</g>
</g>
<!-- Node25&#45;&gt;Node24 -->
<g id="edge15" class="edge">
<title>Node25&#45;&gt;Node24</title>
<path fill="none" stroke="midnightblue" d="M180.11,-117.5C189.07,-117.5 198.06,-117.5 206.77,-117.5"/>
<polygon fill="midnightblue" stroke="midnightblue" points="180.03,-114 170.03,-117.5 180.03,-121 180.03,-114"/>
</g>
<!-- Node26 -->
<g id="node16" class="node">
<title>Node26</title>
<g id="a_node16"><a xlink:href="interfacefiftyone_1_1pipeline_1_1core_1_1data_1_1_element_property_meta_data.html" target="_top" xlink:title="Defines details of a property that can be returned by a FlowElement.">
<polygon fill="none" stroke="black" points="207,-0.5 207,-30.5 354,-30.5 354,-0.5 207,-0.5"/>
<text text-anchor="start" x="215" y="-18.5" font-family="Helvetica,sans-Serif" font-size="10.00">fiftyone.pipeline.core.data.</text>
<text text-anchor="middle" x="280.5" y="-7.5" font-family="Helvetica,sans-Serif" font-size="10.00">ElementPropertyMetaData</text>
</a>
</g>
</g>
<!-- Node26&#45;&gt;Node20 -->
<g id="edge21" class="edge">
<title>Node26&#45;&gt;Node20</title>
<path fill="none" stroke="orange" stroke-dasharray="5,2" d="M364.39,-11.91C503.34,-7.52 791.49,-5.43 1030,-49.5 1050.81,-53.35 1096.39,-68.5 1136.21,-82.49"/>
<polygon fill="orange" stroke="orange" points="364.12,-8.41 354.24,-12.24 364.35,-15.41 364.12,-8.41"/>
<text text-anchor="middle" x="766.5" y="-25.5" font-family="Helvetica,sans-Serif" font-size="10.00"> TProperty</text>
</g>
<!-- Node26&#45;&gt;Node22 -->
<g id="edge16" class="edge">
<title>Node26&#45;&gt;Node22</title>
<path fill="none" stroke="orange" stroke-dasharray="5,2" d="M364.12,-30.87C392.8,-36.2 425.43,-42.27 455.99,-47.95"/>
<polygon fill="orange" stroke="orange" points="364.63,-27.4 354.15,-29.01 363.35,-34.28 364.63,-27.4"/>
<text text-anchor="middle" x="397.5" y="-43.5" font-family="Helvetica,sans-Serif" font-size="10.00"> TProperty</text>
</g>
<!-- Node27 -->
<g id="node17" class="node">
<title>Node27</title>
<g id="a_node17"><a xlink:href="interfacefiftyone_1_1pipeline_1_1core_1_1typed_1_1_typed_key.html" target="_top" xlink:title=" ">
<polygon fill="none" stroke="black" points="858,-154.5 858,-184.5 1011,-184.5 1011,-154.5 858,-154.5"/>
<text text-anchor="start" x="866" y="-172.5" font-family="Helvetica,sans-Serif" font-size="10.00">fiftyone.pipeline.core.typed.</text>
<text text-anchor="middle" x="934.5" y="-161.5" font-family="Helvetica,sans-Serif" font-size="10.00">TypedKey&lt; TData &gt;</text>
</a>
</g>
</g>
<!-- Node27&#45;&gt;Node20 -->
<g id="edge17" class="edge">
<title>Node27&#45;&gt;Node20</title>
<path fill="none" stroke="#9a32cd" stroke-dasharray="5,2" d="M1021.38,-155.01C1045.9,-150.48 1072.58,-145.17 1097,-139.5 1103.63,-137.96 1110.45,-136.29 1117.3,-134.54"/>
<polygon fill="#9a32cd" stroke="#9a32cd" points="1020.58,-151.6 1011.38,-156.84 1021.84,-158.48 1020.58,-151.6"/>
<text text-anchor="middle" x="1072.5" y="-152.5" font-family="Helvetica,sans-Serif" font-size="10.00"> typedKey</text>
</g>
<!-- Node28 -->
<g id="node18" class="node">
<title>Node28</title>
<g id="a_node18"><a xlink:href="interfacefiftyone_1_1pipeline_1_1core_1_1typed_1_1_typed_key.html" target="_top" xlink:title="Holds a name and a type to allow for type safe operations on named values.">
<polygon fill="none" stroke="black" points="491,-154.5 491,-184.5 644,-184.5 644,-154.5 491,-154.5"/>
<text text-anchor="start" x="499" y="-172.5" font-family="Helvetica,sans-Serif" font-size="10.00">fiftyone.pipeline.core.typed.</text>
<text text-anchor="middle" x="567.5" y="-161.5" font-family="Helvetica,sans-Serif" font-size="10.00">TypedKey&lt; T &gt;</text>
</a>
</g>
</g>
<!-- Node28&#45;&gt;Node27 -->
<g id="edge18" class="edge">
<title>Node28&#45;&gt;Node27</title>
<path fill="none" stroke="orange" stroke-dasharray="5,2" d="M654.25,-169.5C716.04,-169.5 798.65,-169.5 857.97,-169.5"/>
<polygon fill="orange" stroke="orange" points="654.13,-166 644.13,-169.5 654.13,-173 654.13,-166"/>
<text text-anchor="middle" x="766.5" y="-172.5" font-family="Helvetica,sans-Serif" font-size="10.00"> &lt; TData &gt;</text>
</g>
<!-- Node29 -->
<g id="node19" class="node">
<title>Node29</title>
<g id="a_node19"><a xlink:title=" ">
<polygon fill="none" stroke="#bfbfbf" points="1155,-230 1155,-249 1263,-249 1263,-230 1155,-230"/>
<text text-anchor="middle" x="1209" y="-237" font-family="Helvetica,sans-Serif" font-size="10.00">SimpleDateFormat</text>
</a>
</g>
</g>
<!-- Node29&#45;&gt;Node19 -->
<g id="edge22" class="edge">
<title>Node29&#45;&gt;Node19</title>
<path fill="none" stroke="#9a32cd" stroke-dasharray="5,2" d="M1273.1,-231C1316.83,-224.65 1376.25,-215.07 1428,-203.5 1459.29,-196.5 1493.93,-186.7 1521.05,-178.55"/>
<polygon fill="#9a32cd" stroke="#9a32cd" points="1272.58,-227.54 1263.18,-232.43 1273.58,-234.47 1272.58,-227.54"/>
<text text-anchor="middle" x="1374.5" y="-226.5" font-family="Helvetica,sans-Serif" font-size="10.00"> DATE_FMT</text>
</g>
<!-- Node30 -->
<g id="node20" class="node">
<title>Node30</title>
<g id="a_node20"><a xlink:title=" ">
<polygon fill="none" stroke="#bfbfbf" points="1161.5,-192 1161.5,-211 1256.5,-211 1256.5,-192 1161.5,-192"/>
<text text-anchor="middle" x="1209" y="-199" font-family="Helvetica,sans-Serif" font-size="10.00">ExecutorService</text>
</a>
</g>
</g>
<!-- Node30&#45;&gt;Node19 -->
<g id="edge23" class="edge">
<title>Node30&#45;&gt;Node19</title>
<path fill="none" stroke="#9a32cd" stroke-dasharray="5,2" d="M1266.99,-195.5C1310.97,-190.87 1373.34,-184.29 1428,-178.5 1433.88,-177.88 1439.89,-177.24 1445.96,-176.6"/>
<polygon fill="#9a32cd" stroke="#9a32cd" points="1266.36,-192.05 1256.78,-196.58 1267.09,-199.01 1266.36,-192.05"/>
<text text-anchor="middle" x="1374.5" y="-191.5" font-family="Helvetica,sans-Serif" font-size="10.00"> executor</text>
</g>
<!-- Node31 -->
<g id="node21" class="node">
<title>Node31</title>
<g id="a_node21"><a xlink:title=" ">
<polygon fill="none" stroke="#bfbfbf" points="1184,-154 1184,-173 1234,-173 1234,-154 1184,-154"/>
<text text-anchor="middle" x="1209" y="-161" font-family="Helvetica,sans-Serif" font-size="10.00">Marker</text>
</a>
</g>
</g>
<!-- Node31&#45;&gt;Node19 -->
<g id="edge24" class="edge">
<title>Node31&#45;&gt;Node19</title>
<path fill="none" stroke="#9a32cd" stroke-dasharray="5,2" d="M1244.15,-163.5C1290.18,-163.5 1374.6,-163.5 1445.84,-163.5"/>
<polygon fill="#9a32cd" stroke="#9a32cd" points="1244.11,-160 1234.11,-163.5 1244.11,-167 1244.11,-160"/>
<text text-anchor="middle" x="1374.5" y="-166.5" font-family="Helvetica,sans-Serif" font-size="10.00"> threadMarker</text>
</g>
</g>
</svg>
