<?xml version="1.0" encoding="UTF-8" standalone="no"?>
<!DOCTYPE svg PUBLIC "-//W3C//DTD SVG 1.1//EN"
 "http://www.w3.org/Graphics/SVG/1.1/DTD/svg11.dtd">
<!-- Generated by graphviz version 2.43.0 (0)
 -->
<!-- Title: fiftyone.pipeline.engines.flowelements.SingleFileAspectEngineBuilderBase&lt; TBuilder extends OnPremiseAspectEngineBuilderBase&lt; TBuilder, TEngine, TEngine extends OnPremiseAspectEngine &gt; Pages: 1 -->
<svg width="2771pt" height="333pt"
 viewBox="0.00 0.00 2771.00 332.50" xmlns="http://www.w3.org/2000/svg" xmlns:xlink="http://www.w3.org/1999/xlink">
<g id="graph0" class="graph" transform="scale(1 1) rotate(0) translate(4 328.5)">
<title>fiftyone.pipeline.engines.flowelements.SingleFileAspectEngineBuilderBase&lt; TBuilder extends OnPremiseAspectEngineBuilderBase&lt; TBuilder, TEngine, TEngine extends OnPremiseAspectEngine &gt;</title>
<!-- Node17 -->
<g id="node1" class="node">
<title>Node17</title>
<g id="a_node1"><a xlink:title="Abstract base class that exposes the common options that all on&#45;premise engine builders using a singl...">
<polygon fill="#bfbfbf" stroke="black" points="2496,-83 2496,-146 2763,-146 2763,-83 2496,-83"/>
<text text-anchor="start" x="2504" y="-134" font-family="Helvetica,sans-Serif" font-size="10.00">fiftyone.pipeline.engines.flowelements.</text>
<text text-anchor="start" x="2504" y="-123" font-family="Helvetica,sans-Serif" font-size="10.00">SingleFileAspectEngineBuilderBase</text>
<text text-anchor="start" x="2504" y="-112" font-family="Helvetica,sans-Serif" font-size="10.00">&lt; TBuilder extends OnPremiseAspectEngineBuilder</text>
<text text-anchor="start" x="2504" y="-101" font-family="Helvetica,sans-Serif" font-size="10.00">Base&lt; TBuilder, TEngine, TEngine extends</text>
<text text-anchor="middle" x="2629.5" y="-90" font-family="Helvetica,sans-Serif" font-size="10.00"> OnPremiseAspectEngine &gt;</text>
</a>
</g>
</g>
<!-- Node18 -->
<g id="node2" class="node">
<title>Node18</title>
<g id="a_node2"><a xlink:href="classfiftyone_1_1pipeline_1_1engines_1_1flowelements_1_1_on_premise_aspect_engine_builder_base.html" target="_top" xlink:title=" ">
<polygon fill="none" stroke="black" points="2250,-140 2250,-181 2459,-181 2459,-140 2250,-140"/>
<text text-anchor="start" x="2258" y="-169" font-family="Helvetica,sans-Serif" font-size="10.00">fiftyone.pipeline.engines.flowelements.</text>
<text text-anchor="start" x="2258" y="-158" font-family="Helvetica,sans-Serif" font-size="10.00">OnPremiseAspectEngineBuilderBase</text>
<text text-anchor="middle" x="2354.5" y="-147" font-family="Helvetica,sans-Serif" font-size="10.00">&lt; TBuilder, TEngine &gt;</text>
</a>
</g>
</g>
<!-- Node18&#45;&gt;Node17 -->
<g id="edge1" class="edge">
<title>Node18&#45;&gt;Node17</title>
<path fill="none" stroke="midnightblue" d="M2469.07,-141.36C2477.96,-139.87 2486.99,-138.34 2495.99,-136.83"/>
<polygon fill="midnightblue" stroke="midnightblue" points="2468.38,-137.93 2459.1,-143.04 2469.54,-144.83 2468.38,-137.93"/>
</g>
<!-- Node19 -->
<g id="node3" class="node">
<title>Node19</title>
<g id="a_node3"><a xlink:href="classfiftyone_1_1pipeline_1_1engines_1_1flowelements_1_1_on_premise_aspect_engine_builder_base.html" target="_top" xlink:title="Abstract base class that exposes the common options that all 51Degrees on&#45;premise engine builders sho...">
<polygon fill="none" stroke="black" points="1835,-158 1835,-221 2102,-221 2102,-158 1835,-158"/>
<text text-anchor="start" x="1843" y="-209" font-family="Helvetica,sans-Serif" font-size="10.00">fiftyone.pipeline.engines.flowelements.</text>
<text text-anchor="start" x="1843" y="-198" font-family="Helvetica,sans-Serif" font-size="10.00">OnPremiseAspectEngineBuilderBase</text>
<text text-anchor="start" x="1843" y="-187" font-family="Helvetica,sans-Serif" font-size="10.00">&lt; TBuilder extends OnPremiseAspectEngineBuilder</text>
<text text-anchor="start" x="1843" y="-176" font-family="Helvetica,sans-Serif" font-size="10.00">Base&lt; TBuilder, TEngine, TEngine extends</text>
<text text-anchor="middle" x="1968.5" y="-165" font-family="Helvetica,sans-Serif" font-size="10.00"> OnPremiseAspectEngine &gt;</text>
</a>
</g>
</g>
<!-- Node19&#45;&gt;Node18 -->
<g id="edge2" class="edge">
<title>Node19&#45;&gt;Node18</title>
<path fill="none" stroke="orange" stroke-dasharray="5,2" d="M2112.18,-178.72C2157.86,-175.27 2207.54,-171.52 2249.89,-168.32"/>
<polygon fill="orange" stroke="orange" points="2111.9,-175.24 2102.19,-179.48 2112.42,-182.22 2111.9,-175.24"/>
<text text-anchor="middle" x="2176" y="-180.5" font-family="Helvetica,sans-Serif" font-size="10.00"> &lt; TBuilder, TEngine &gt;</text>
</g>
<!-- Node20 -->
<g id="node4" class="node">
<title>Node20</title>
<g id="a_node4"><a xlink:href="classfiftyone_1_1pipeline_1_1engines_1_1flowelements_1_1_aspect_engine_builder_base.html" target="_top" xlink:title=" ">
<polygon fill="none" stroke="black" points="1491.5,-283 1491.5,-324 1700.5,-324 1700.5,-283 1491.5,-283"/>
<text text-anchor="start" x="1499.5" y="-312" font-family="Helvetica,sans-Serif" font-size="10.00">fiftyone.pipeline.engines.flowelements.</text>
<text text-anchor="start" x="1499.5" y="-301" font-family="Helvetica,sans-Serif" font-size="10.00">AspectEngineBuilderBase&lt; TBuilder,</text>
<text text-anchor="middle" x="1596" y="-290" font-family="Helvetica,sans-Serif" font-size="10.00"> TEngine &gt;</text>
</a>
</g>
</g>
<!-- Node20&#45;&gt;Node19 -->
<g id="edge3" class="edge">
<title>Node20&#45;&gt;Node19</title>
<path fill="none" stroke="midnightblue" d="M1692.77,-280.46C1701.98,-278.15 1711.18,-275.8 1720,-273.5 1763.3,-262.2 1774.48,-260.44 1817,-246.5 1840.36,-238.84 1865.45,-229.71 1888.31,-221.03"/>
<polygon fill="midnightblue" stroke="midnightblue" points="1691.63,-277.14 1682.78,-282.95 1693.33,-283.93 1691.63,-277.14"/>
</g>
<!-- Node21 -->
<g id="node5" class="node">
<title>Node21</title>
<g id="a_node5"><a xlink:href="classfiftyone_1_1pipeline_1_1engines_1_1flowelements_1_1_aspect_engine_builder_base.html" target="_top" xlink:title="Abstract base class that exposes the common options that all 51Degrees engine builders should make us...">
<polygon fill="none" stroke="black" points="1082,-236 1082,-299 1291,-299 1291,-236 1082,-236"/>
<text text-anchor="start" x="1090" y="-287" font-family="Helvetica,sans-Serif" font-size="10.00">fiftyone.pipeline.engines.flowelements.</text>
<text text-anchor="start" x="1090" y="-276" font-family="Helvetica,sans-Serif" font-size="10.00">AspectEngineBuilderBase&lt; TBuilder</text>
<text text-anchor="start" x="1090" y="-265" font-family="Helvetica,sans-Serif" font-size="10.00"> extends AspectEngineBuilderBase</text>
<text text-anchor="start" x="1090" y="-254" font-family="Helvetica,sans-Serif" font-size="10.00">&lt; TBuilder, TEngine, TEngine extends</text>
<text text-anchor="middle" x="1186.5" y="-243" font-family="Helvetica,sans-Serif" font-size="10.00"> AspectEngine &gt;</text>
</a>
</g>
</g>
<!-- Node21&#45;&gt;Node20 -->
<g id="edge4" class="edge">
<title>Node21&#45;&gt;Node20</title>
<path fill="none" stroke="orange" stroke-dasharray="5,2" d="M1301.32,-277.56C1360.85,-282.81 1433.19,-289.2 1491.18,-294.33"/>
<polygon fill="orange" stroke="orange" points="1301.39,-274.05 1291.12,-276.65 1300.77,-281.02 1301.39,-274.05"/>
<text text-anchor="middle" x="1381.5" y="-293.5" font-family="Helvetica,sans-Serif" font-size="10.00"> &lt; TBuilder, TEngine &gt;</text>
</g>
<!-- Node22 -->
<g id="node6" class="node">
<title>Node22</title>
<g id="a_node6"><a xlink:href="classfiftyone_1_1pipeline_1_1engines_1_1configuration_1_1_cache_configuration.html" target="_top" xlink:title="Contains everything needed to build a cache.">
<polygon fill="none" stroke="black" points="711.5,-274.5 711.5,-304.5 917.5,-304.5 917.5,-274.5 711.5,-274.5"/>
<text text-anchor="start" x="719.5" y="-292.5" font-family="Helvetica,sans-Serif" font-size="10.00">fiftyone.pipeline.engines.configuration.</text>
<text text-anchor="middle" x="814.5" y="-281.5" font-family="Helvetica,sans-Serif" font-size="10.00">CacheConfiguration</text>
</a>
</g>
</g>
<!-- Node22&#45;&gt;Node21 -->
<g id="edge5" class="edge">
<title>Node22&#45;&gt;Node21</title>
<path fill="none" stroke="#9a32cd" stroke-dasharray="5,2" d="M927.6,-282.83C976.63,-279.92 1033.79,-276.52 1081.82,-273.66"/>
<polygon fill="#9a32cd" stroke="#9a32cd" points="927.36,-279.34 917.58,-283.43 927.77,-286.33 927.36,-279.34"/>
<text text-anchor="middle" x="1009.5" y="-283.5" font-family="Helvetica,sans-Serif" font-size="10.00"> cacheConfig</text>
</g>
<!-- Node23 -->
<g id="node7" class="node">
<title>Node23</title>
<g id="a_node7"><a xlink:title=" ">
<polygon fill="none" stroke="#bfbfbf" points="770.5,-236 770.5,-255 858.5,-255 858.5,-236 770.5,-236"/>
<text text-anchor="middle" x="814.5" y="-243" font-family="Helvetica,sans-Serif" font-size="10.00">ILoggerFactory</text>
</a>
</g>
</g>
<!-- Node23&#45;&gt;Node21 -->
<g id="edge6" class="edge">
<title>Node23&#45;&gt;Node21</title>
<path fill="none" stroke="#9a32cd" stroke-dasharray="5,2" d="M868.6,-248.35C918.92,-251.08 996.61,-255.38 1064,-259.5 1069.8,-259.85 1075.76,-260.23 1081.77,-260.6"/>
<polygon fill="#9a32cd" stroke="#9a32cd" points="868.78,-244.85 858.6,-247.8 868.4,-251.84 868.78,-244.85"/>
<text text-anchor="middle" x="1009.5" y="-262.5" font-family="Helvetica,sans-Serif" font-size="10.00"> loggerFactory</text>
</g>
<!-- Node24 -->
<g id="node8" class="node">
<title>Node24</title>
<g id="a_node8"><a xlink:href="interfacefiftyone_1_1pipeline_1_1engines_1_1flowelements_1_1_aspect_engine.html" target="_top" xlink:title="AspectEngines are a subset of FlowElements.">
<polygon fill="none" stroke="black" points="692,-55 692,-96 937,-96 937,-55 692,-55"/>
<text text-anchor="start" x="700" y="-84" font-family="Helvetica,sans-Serif" font-size="10.00">fiftyone.pipeline.engines.flowelements.</text>
<text text-anchor="start" x="700" y="-73" font-family="Helvetica,sans-Serif" font-size="10.00">AspectEngine&lt; TData extends AspectData,</text>
<text text-anchor="middle" x="814.5" y="-62" font-family="Helvetica,sans-Serif" font-size="10.00"> TProperty extends AspectPropertyMetaData &gt;</text>
</a>
</g>
</g>
<!-- Node24&#45;&gt;Node21 -->
<g id="edge7" class="edge">
<title>Node24&#45;&gt;Node21</title>
<path fill="none" stroke="orange" stroke-dasharray="5,2" d="M947.3,-82.43C1001.91,-86.57 1054.77,-92.76 1064,-101.5 1100.91,-136.48 1052.13,-173.34 1082,-214.5 1087.99,-222.75 1095.64,-229.81 1104.07,-235.82"/>
<polygon fill="orange" stroke="orange" points="947.32,-78.92 937.09,-81.68 946.8,-85.9 947.32,-78.92"/>
<text text-anchor="middle" x="1009.5" y="-104.5" font-family="Helvetica,sans-Serif" font-size="10.00"> TEngine</text>
</g>
<!-- Node37 -->
<g id="node21" class="node">
<title>Node37</title>
<g id="a_node21"><a xlink:href="interfacefiftyone_1_1pipeline_1_1engines_1_1flowelements_1_1_aspect_engine.html" target="_top" xlink:title=" ">
<polygon fill="none" stroke="black" points="1082,-69.5 1082,-99.5 1291,-99.5 1291,-69.5 1082,-69.5"/>
<text text-anchor="start" x="1090" y="-87.5" font-family="Helvetica,sans-Serif" font-size="10.00">fiftyone.pipeline.engines.flowelements.</text>
<text text-anchor="middle" x="1186.5" y="-76.5" font-family="Helvetica,sans-Serif" font-size="10.00">AspectEngine&lt; TData, TProperty &gt;</text>
</a>
</g>
</g>
<!-- Node24&#45;&gt;Node37 -->
<g id="edge24" class="edge">
<title>Node24&#45;&gt;Node37</title>
<path fill="none" stroke="orange" stroke-dasharray="5,2" d="M947.27,-66.27C985,-64.98 1026.15,-64.87 1064,-67.5 1071.33,-68.01 1078.89,-68.69 1086.49,-69.49"/>
<polygon fill="orange" stroke="orange" points="947.11,-62.78 937.25,-66.65 947.37,-69.77 947.11,-62.78"/>
<text text-anchor="middle" x="1009.5" y="-70.5" font-family="Helvetica,sans-Serif" font-size="10.00"> &lt; TData, TProperty &gt;</text>
</g>
<!-- Node25 -->
<g id="node9" class="node">
<title>Node25</title>
<g id="a_node9"><a xlink:href="interfacefiftyone_1_1pipeline_1_1core_1_1flowelements_1_1_flow_element.html" target="_top" xlink:title="A component that processes a FlowData (by examining its evidence, or by examining data processed by o...">
<polygon fill="none" stroke="black" points="458,-49.5 458,-101.5 588,-101.5 588,-49.5 458,-49.5"/>
<text text-anchor="start" x="466" y="-89.5" font-family="Helvetica,sans-Serif" font-size="10.00">fiftyone::pipeline</text>
<text text-anchor="start" x="466" y="-78.5" font-family="Helvetica,sans-Serif" font-size="10.00">::core::flowelements</text>
<text text-anchor="start" x="466" y="-67.5" font-family="Helvetica,sans-Serif" font-size="10.00">::FlowElement&lt; TData,</text>
<text text-anchor="middle" x="523" y="-56.5" font-family="Helvetica,sans-Serif" font-size="10.00"> TProperty &gt;</text>
</a>
</g>
</g>
<!-- Node25&#45;&gt;Node24 -->
<g id="edge8" class="edge">
<title>Node25&#45;&gt;Node24</title>
<path fill="none" stroke="midnightblue" d="M598.49,-75.5C626.91,-75.5 660.09,-75.5 691.77,-75.5"/>
<polygon fill="midnightblue" stroke="midnightblue" points="598.25,-72 588.25,-75.5 598.25,-79 598.25,-72"/>
</g>
<!-- Node26 -->
<g id="node10" class="node">
<title>Node26</title>
<g id="a_node10"><a xlink:title=" ">
<polygon fill="none" stroke="#bfbfbf" points="237,-124 237,-143 324,-143 324,-124 237,-124"/>
<text text-anchor="middle" x="280.5" y="-131" font-family="Helvetica,sans-Serif" font-size="10.00">AutoCloseable</text>
</a>
</g>
</g>
<!-- Node26&#45;&gt;Node25 -->
<g id="edge9" class="edge">
<title>Node26&#45;&gt;Node25</title>
<path fill="none" stroke="midnightblue" d="M330.9,-121.59C367.54,-112.75 417.82,-100.62 457.61,-91.03"/>
<polygon fill="midnightblue" stroke="midnightblue" points="329.85,-118.24 320.94,-123.99 331.49,-125.05 329.85,-118.24"/>
</g>
<!-- Node27 -->
<g id="node11" class="node">
<title>Node27</title>
<g id="a_node11"><a xlink:href="interfacefiftyone_1_1pipeline_1_1core_1_1data_1_1_element_data.html" target="_top" xlink:title="Represents property values that have be determined by a specific FlowElement based on the supplied ev...">
<polygon fill="none" stroke="black" points="207,-70.5 207,-100.5 354,-100.5 354,-70.5 207,-70.5"/>
<text text-anchor="start" x="215" y="-88.5" font-family="Helvetica,sans-Serif" font-size="10.00">fiftyone.pipeline.core.data.</text>
<text text-anchor="middle" x="280.5" y="-77.5" font-family="Helvetica,sans-Serif" font-size="10.00">ElementData</text>
</a>
</g>
</g>
<!-- Node27&#45;&gt;Node25 -->
<g id="edge10" class="edge">
<title>Node27&#45;&gt;Node25</title>
<path fill="none" stroke="orange" stroke-dasharray="5,2" d="M364.54,-82.05C395.15,-80.77 429.33,-79.35 458,-78.16"/>
<polygon fill="orange" stroke="orange" points="364.16,-78.56 354.31,-82.47 364.45,-85.55 364.16,-78.56"/>
<text text-anchor="middle" x="397.5" y="-85.5" font-family="Helvetica,sans-Serif" font-size="10.00"> TData</text>
</g>
<!-- Node30 -->
<g id="node14" class="node">
<title>Node30</title>
<g id="a_node14"><a xlink:href="interfacefiftyone_1_1pipeline_1_1engines_1_1data_1_1_aspect_data.html" target="_top" xlink:title="Represents a specialized ElementData instance that is generated by an AspectEngine.">
<polygon fill="none" stroke="black" points="441,-120.5 441,-150.5 605,-150.5 605,-120.5 441,-120.5"/>
<text text-anchor="start" x="449" y="-138.5" font-family="Helvetica,sans-Serif" font-size="10.00">fiftyone.pipeline.engines.data.</text>
<text text-anchor="middle" x="523" y="-127.5" font-family="Helvetica,sans-Serif" font-size="10.00">AspectData</text>
</a>
</g>
</g>
<!-- Node27&#45;&gt;Node30 -->
<g id="edge14" class="edge">
<title>Node27&#45;&gt;Node30</title>
<path fill="none" stroke="midnightblue" d="M363.76,-102.6C391.6,-108.39 422.46,-114.8 449.48,-120.42"/>
<polygon fill="midnightblue" stroke="midnightblue" points="364.16,-99.11 353.66,-100.5 362.74,-105.96 364.16,-99.11"/>
</g>
<!-- Node28 -->
<g id="node12" class="node">
<title>Node28</title>
<g id="a_node12"><a xlink:href="interfacefiftyone_1_1pipeline_1_1core_1_1data_1_1_data.html" target="_top" xlink:title="Represents a collection of property values.">
<polygon fill="none" stroke="black" points="0,-76 0,-95 170,-95 170,-76 0,-76"/>
<text text-anchor="middle" x="85" y="-83" font-family="Helvetica,sans-Serif" font-size="10.00">fiftyone.pipeline.core.data.Data</text>
</a>
</g>
</g>
<!-- Node28&#45;&gt;Node27 -->
<g id="edge11" class="edge">
<title>Node28&#45;&gt;Node27</title>
<path fill="none" stroke="midnightblue" d="M180.11,-85.5C189.07,-85.5 198.06,-85.5 206.77,-85.5"/>
<polygon fill="midnightblue" stroke="midnightblue" points="180.03,-82 170.03,-85.5 180.03,-89 180.03,-82"/>
</g>
<!-- Node29 -->
<g id="node13" class="node">
<title>Node29</title>
<g id="a_node13"><a xlink:href="interfacefiftyone_1_1pipeline_1_1core_1_1data_1_1_element_property_meta_data.html" target="_top" xlink:title="Defines details of a property that can be returned by a FlowElement.">
<polygon fill="none" stroke="black" points="207,-12.5 207,-42.5 354,-42.5 354,-12.5 207,-12.5"/>
<text text-anchor="start" x="215" y="-30.5" font-family="Helvetica,sans-Serif" font-size="10.00">fiftyone.pipeline.core.data.</text>
<text text-anchor="middle" x="280.5" y="-19.5" font-family="Helvetica,sans-Serif" font-size="10.00">ElementPropertyMetaData</text>
</a>
</g>
</g>
<!-- Node29&#45;&gt;Node25 -->
<g id="edge12" class="edge">
<title>Node29&#45;&gt;Node25</title>
<path fill="none" stroke="orange" stroke-dasharray="5,2" d="M364.14,-43.99C394.85,-50.12 429.2,-56.98 458,-62.73"/>
<polygon fill="orange" stroke="orange" points="364.8,-40.56 354.31,-42.03 363.43,-47.42 364.8,-40.56"/>
<text text-anchor="middle" x="397.5" y="-57.5" font-family="Helvetica,sans-Serif" font-size="10.00"> TProperty</text>
</g>
<!-- Node31 -->
<g id="node15" class="node">
<title>Node31</title>
<g id="a_node15"><a xlink:href="interfacefiftyone_1_1pipeline_1_1engines_1_1data_1_1_aspect_property_meta_data.html" target="_top" xlink:title="Holds details about a property that can be returned by an AspectEngine.">
<polygon fill="none" stroke="black" points="441,-0.5 441,-30.5 605,-30.5 605,-0.5 441,-0.5"/>
<text text-anchor="start" x="449" y="-18.5" font-family="Helvetica,sans-Serif" font-size="10.00">fiftyone.pipeline.engines.data.</text>
<text text-anchor="middle" x="523" y="-7.5" font-family="Helvetica,sans-Serif" font-size="10.00">AspectPropertyMetaData</text>
</a>
</g>
</g>
<!-- Node29&#45;&gt;Node31 -->
<g id="edge16" class="edge">
<title>Node29&#45;&gt;Node31</title>
<path fill="none" stroke="midnightblue" d="M364.36,-23.37C389.03,-22.13 416.03,-20.79 440.61,-19.56"/>
<polygon fill="midnightblue" stroke="midnightblue" points="364.12,-19.87 354.31,-23.87 364.47,-26.86 364.12,-19.87"/>
</g>
<!-- Node30&#45;&gt;Node24 -->
<g id="edge13" class="edge">
<title>Node30&#45;&gt;Node24</title>
<path fill="none" stroke="orange" stroke-dasharray="5,2" d="M587.72,-117.96C599.41,-114.97 611.54,-112.02 623,-109.5 645.15,-104.62 668.86,-99.96 691.77,-95.72"/>
<polygon fill="orange" stroke="orange" points="586.82,-114.58 578.02,-120.48 588.58,-121.36 586.82,-114.58"/>
<text text-anchor="middle" x="648.5" y="-112.5" font-family="Helvetica,sans-Serif" font-size="10.00"> TData</text>
</g>
<!-- Node36 -->
<g id="node20" class="node">
<title>Node36</title>
<g id="a_node20"><a xlink:href="interfacefiftyone_1_1pipeline_1_1engines_1_1flowelements_1_1_on_premise_aspect_engine.html" target="_top" xlink:title="Aspect engine interface which processes data internally using a data file and populates the results.">
<polygon fill="none" stroke="black" points="1472,-75.5 1472,-127.5 1720,-127.5 1720,-75.5 1472,-75.5"/>
<text text-anchor="start" x="1480" y="-115.5" font-family="Helvetica,sans-Serif" font-size="10.00">fiftyone.pipeline.engines.flowelements.</text>
<text text-anchor="start" x="1480" y="-104.5" font-family="Helvetica,sans-Serif" font-size="10.00">OnPremiseAspectEngine&lt; TData extends</text>
<text text-anchor="start" x="1480" y="-93.5" font-family="Helvetica,sans-Serif" font-size="10.00"> AspectData, TProperty extends AspectProperty</text>
<text text-anchor="middle" x="1596" y="-82.5" font-family="Helvetica,sans-Serif" font-size="10.00">MetaData &gt;</text>
</a>
</g>
</g>
<!-- Node30&#45;&gt;Node36 -->
<g id="edge25" class="edge">
<title>Node30&#45;&gt;Node36</title>
<path fill="none" stroke="orange" stroke-dasharray="5,2" d="M615.39,-133.13C782.08,-128.71 1146.66,-118.67 1454,-107.5 1459.88,-107.29 1465.89,-107.06 1471.96,-106.83"/>
<polygon fill="orange" stroke="orange" points="615.09,-129.63 605.18,-133.4 615.27,-136.63 615.09,-129.63"/>
<text text-anchor="middle" x="1009.5" y="-127.5" font-family="Helvetica,sans-Serif" font-size="10.00"> TData</text>
</g>
<!-- Node31&#45;&gt;Node24 -->
<g id="edge15" class="edge">
<title>Node31&#45;&gt;Node24</title>
<path fill="none" stroke="orange" stroke-dasharray="5,2" d="M606.48,-32.59C640.14,-39.57 679.35,-47.7 714.53,-54.99"/>
<polygon fill="orange" stroke="orange" points="607.18,-29.17 596.68,-30.56 605.76,-36.02 607.18,-29.17"/>
<text text-anchor="middle" x="648.5" y="-48.5" font-family="Helvetica,sans-Serif" font-size="10.00"> TProperty</text>
</g>
<!-- Node31&#45;&gt;Node36 -->
<g id="edge26" class="edge">
<title>Node31&#45;&gt;Node36</title>
<path fill="none" stroke="orange" stroke-dasharray="5,2" d="M615.16,-18.37C759.03,-23.43 1047.45,-35.73 1291,-59.5 1350.66,-65.32 1416.59,-74.14 1471.76,-82.19"/>
<polygon fill="orange" stroke="orange" points="615.17,-14.87 605.06,-18.02 614.93,-21.86 615.17,-14.87"/>
<text text-anchor="middle" x="1009.5" y="-44.5" font-family="Helvetica,sans-Serif" font-size="10.00"> TProperty</text>
</g>
<!-- Node32 -->
<g id="node16" class="node">
<title>Node32</title>
<g id="a_node16"><a xlink:title=" ">
<polygon fill="none" stroke="#bfbfbf" points="1571,-245 1571,-264 1621,-264 1621,-245 1571,-245"/>
<text text-anchor="middle" x="1596" y="-252" font-family="Helvetica,sans-Serif" font-size="10.00">Logger</text>
</a>
</g>
</g>
<!-- Node32&#45;&gt;Node19 -->
<g id="edge17" class="edge">
<title>Node32&#45;&gt;Node19</title>
<path fill="none" stroke="#9a32cd" stroke-dasharray="5,2" d="M1631.05,-249.53C1655.76,-245.85 1689.99,-240.61 1720,-235.5 1757.27,-229.16 1797.61,-221.85 1834.69,-214.95"/>
<polygon fill="#9a32cd" stroke="#9a32cd" points="1630.45,-246.08 1621.08,-251 1631.48,-253 1630.45,-246.08"/>
<text text-anchor="middle" x="1777.5" y="-234.5" font-family="Helvetica,sans-Serif" font-size="10.00"> logger</text>
</g>
<!-- Node33 -->
<g id="node17" class="node">
<title>Node33</title>
<g id="a_node17"><a xlink:title=" ">
<polygon fill="none" stroke="#bfbfbf" points="1499.5,-195.5 1499.5,-225.5 1692.5,-225.5 1692.5,-195.5 1499.5,-195.5"/>
<text text-anchor="start" x="1507.5" y="-213.5" font-family="Helvetica,sans-Serif" font-size="10.00">List&lt; fiftyone.pipeline.engines.data.</text>
<text text-anchor="middle" x="1596" y="-202.5" font-family="Helvetica,sans-Serif" font-size="10.00">AspectEngineDataFile &gt;</text>
</a>
</g>
</g>
<!-- Node33&#45;&gt;Node19 -->
<g id="edge18" class="edge">
<title>Node33&#45;&gt;Node19</title>
<path fill="none" stroke="#9a32cd" stroke-dasharray="5,2" d="M1702.91,-204.5C1743.95,-202.17 1791.4,-199.48 1834.68,-197.03"/>
<polygon fill="#9a32cd" stroke="#9a32cd" points="1702.68,-201 1692.89,-205.06 1703.08,-207.99 1702.68,-201"/>
<text text-anchor="middle" x="1777.5" y="-204.5" font-family="Helvetica,sans-Serif" font-size="10.00"> dataFiles</text>
</g>
<!-- Node34 -->
<g id="node18" class="node">
<title>Node34</title>
<g id="a_node18"><a xlink:title=" ">
<polygon fill="none" stroke="#bfbfbf" points="1169.5,-186 1169.5,-205 1203.5,-205 1203.5,-186 1169.5,-186"/>
<text text-anchor="middle" x="1186.5" y="-193" font-family="Helvetica,sans-Serif" font-size="10.00">List</text>
</a>
</g>
</g>
<!-- Node34&#45;&gt;Node33 -->
<g id="edge19" class="edge">
<title>Node34&#45;&gt;Node33</title>
<path fill="none" stroke="orange" stroke-dasharray="5,2" d="M1213.6,-196.92C1238.2,-198.23 1276.1,-200.17 1309,-201.5 1372.41,-204.06 1443.76,-206.31 1499.33,-207.92"/>
<polygon fill="orange" stroke="orange" points="1213.79,-193.43 1203.61,-196.39 1213.41,-200.42 1213.79,-193.43"/>
<text text-anchor="start" x="1309" y="-230.5" font-family="Helvetica,sans-Serif" font-size="10.00"> &lt; fiftyone::pipeline</text>
<text text-anchor="start" x="1309" y="-219.5" font-family="Helvetica,sans-Serif" font-size="10.00">::engines::data::AspectEngine</text>
<text text-anchor="middle" x="1381.5" y="-208.5" font-family="Helvetica,sans-Serif" font-size="10.00">DataFile &gt;</text>
</g>
<!-- Node35 -->
<g id="node19" class="node">
<title>Node35</title>
<g id="a_node19"><a xlink:title=" ">
<polygon fill="none" stroke="#bfbfbf" points="1478.5,-146.5 1478.5,-176.5 1713.5,-176.5 1713.5,-146.5 1478.5,-146.5"/>
<text text-anchor="start" x="1486.5" y="-164.5" font-family="Helvetica,sans-Serif" font-size="10.00">List&lt; fiftyone.pipeline.engines.configuration.</text>
<text text-anchor="middle" x="1596" y="-153.5" font-family="Helvetica,sans-Serif" font-size="10.00">DataFileConfiguration &gt;</text>
</a>
</g>
</g>
<!-- Node34&#45;&gt;Node35 -->
<g id="edge21" class="edge">
<title>Node34&#45;&gt;Node35</title>
<path fill="none" stroke="orange" stroke-dasharray="5,2" d="M1213.34,-186.99C1237.7,-179.42 1275.38,-168.9 1309,-164.5 1364.39,-157.25 1426.33,-155.79 1478.37,-156.44"/>
<polygon fill="orange" stroke="orange" points="1212.24,-183.66 1203.76,-190.02 1214.35,-190.34 1212.24,-183.66"/>
<text text-anchor="start" x="1319.5" y="-189.5" font-family="Helvetica,sans-Serif" font-size="10.00"> &lt; fiftyone::pipeline</text>
<text text-anchor="start" x="1319.5" y="-178.5" font-family="Helvetica,sans-Serif" font-size="10.00">::engines::configuration</text>
<text text-anchor="middle" x="1381.5" y="-167.5" font-family="Helvetica,sans-Serif" font-size="10.00">::DataFileConfiguration &gt;</text>
</g>
<!-- Node35&#45;&gt;Node19 -->
<g id="edge20" class="edge">
<title>Node35&#45;&gt;Node19</title>
<path fill="none" stroke="#9a32cd" stroke-dasharray="5,2" d="M1723.74,-171.08C1759.6,-173.79 1798.72,-176.74 1834.91,-179.48"/>
<polygon fill="#9a32cd" stroke="#9a32cd" points="1723.96,-167.58 1713.72,-170.32 1723.43,-174.56 1723.96,-167.58"/>
<text text-anchor="middle" x="1777.5" y="-180.5" font-family="Helvetica,sans-Serif" font-size="10.00"> dataFileConfigs</text>
</g>
<!-- Node36&#45;&gt;Node17 -->
<g id="edge27" class="edge">
<title>Node36&#45;&gt;Node17</title>
<path fill="none" stroke="orange" stroke-dasharray="5,2" d="M1730.32,-103.18C1928.41,-105.68 2298.28,-110.34 2495.93,-112.83"/>
<polygon fill="orange" stroke="orange" points="1730.19,-99.68 1720.14,-103.05 1730.1,-106.68 1730.19,-99.68"/>
<text text-anchor="middle" x="2176" y="-112.5" font-family="Helvetica,sans-Serif" font-size="10.00"> TEngine</text>
</g>
<!-- Node36&#45;&gt;Node19 -->
<g id="edge22" class="edge">
<title>Node36&#45;&gt;Node19</title>
<path fill="none" stroke="orange" stroke-dasharray="5,2" d="M1716.67,-129.92C1754.39,-138.88 1796.29,-148.83 1834.86,-158"/>
<polygon fill="orange" stroke="orange" points="1717.2,-126.45 1706.66,-127.55 1715.58,-133.26 1717.2,-126.45"/>
<text text-anchor="middle" x="1777.5" y="-156.5" font-family="Helvetica,sans-Serif" font-size="10.00"> TEngine</text>
</g>
<!-- Node37&#45;&gt;Node36 -->
<g id="edge23" class="edge">
<title>Node37&#45;&gt;Node36</title>
<path fill="none" stroke="midnightblue" d="M1301.26,-89.25C1354.38,-91.46 1417.72,-94.1 1471.95,-96.37"/>
<polygon fill="midnightblue" stroke="midnightblue" points="1301.26,-85.74 1291.12,-88.82 1300.97,-92.74 1301.26,-85.74"/>
</g>
</g>
</svg>
