<?xml version="1.0" encoding="UTF-8" standalone="no"?>
<!DOCTYPE svg PUBLIC "-//W3C//DTD SVG 1.1//EN"
 "http://www.w3.org/Graphics/SVG/1.1/DTD/svg11.dtd">
<!-- Generated by graphviz version 2.43.0 (0)
 -->
<!-- Title: fiftyone.pipeline.engines.fiftyone.flowelements.FiftyOnePipelineBuilder Pages: 1 -->
<svg width="1058pt" height="123pt"
 viewBox="0.00 0.00 1058.00 122.50" xmlns="http://www.w3.org/2000/svg" xmlns:xlink="http://www.w3.org/1999/xlink">
<g id="graph0" class="graph" transform="scale(1 1) rotate(0) translate(4 118.5)">
<title>fiftyone.pipeline.engines.fiftyone.flowelements.FiftyOnePipelineBuilder</title>
<!-- Node0 -->
<g id="node1" class="node">
<title>Node0</title>
<g id="a_node1"><a xlink:title="Pipeline builder class that allows the 51Degrees share usage element to be enabled/disabled.">
<polygon fill="#bfbfbf" stroke="black" points="802,-12.5 802,-42.5 1050,-42.5 1050,-12.5 802,-12.5"/>
<text text-anchor="start" x="810" y="-30.5" font-family="Helvetica,sans-Serif" font-size="10.00">fiftyone.pipeline.engines.fiftyone.flowelements.</text>
<text text-anchor="middle" x="926" y="-19.5" font-family="Helvetica,sans-Serif" font-size="10.00">FiftyOnePipelineBuilder</text>
</a>
</g>
</g>
<!-- Node1 -->
<g id="node2" class="node">
<title>Node1</title>
<g id="a_node2"><a xlink:href="classfiftyone_1_1pipeline_1_1core_1_1flowelements_1_1_pipeline_builder.html" target="_top" xlink:title="The PipelineBuilder follows the fluent builder pattern.">
<polygon fill="none" stroke="black" points="574,-12.5 574,-42.5 765,-42.5 765,-12.5 574,-12.5"/>
<text text-anchor="start" x="582" y="-30.5" font-family="Helvetica,sans-Serif" font-size="10.00">fiftyone.pipeline.core.flowelements.</text>
<text text-anchor="middle" x="669.5" y="-19.5" font-family="Helvetica,sans-Serif" font-size="10.00">PipelineBuilder</text>
</a>
</g>
</g>
<!-- Node1&#45;&gt;Node0 -->
<g id="edge1" class="edge">
<title>Node1&#45;&gt;Node0</title>
<path fill="none" stroke="midnightblue" d="M775.37,-27.5C784.04,-27.5 792.85,-27.5 801.64,-27.5"/>
<polygon fill="midnightblue" stroke="midnightblue" points="775.27,-24 765.27,-27.5 775.27,-31 775.27,-24"/>
</g>
<!-- Node2 -->
<g id="node3" class="node">
<title>Node2</title>
<g id="a_node3"><a xlink:href="classfiftyone_1_1pipeline_1_1core_1_1flowelements_1_1_pipeline_builder_base.html" target="_top" xlink:title=" ">
<polygon fill="none" stroke="black" points="327,-49.5 327,-79.5 537,-79.5 537,-49.5 327,-49.5"/>
<text text-anchor="start" x="335" y="-67.5" font-family="Helvetica,sans-Serif" font-size="10.00">fiftyone.pipeline.core.flowelements.</text>
<text text-anchor="middle" x="432" y="-56.5" font-family="Helvetica,sans-Serif" font-size="10.00">PipelineBuilderBase&lt; PipelineBuilder &gt;</text>
</a>
</g>
</g>
<!-- Node2&#45;&gt;Node1 -->
<g id="edge2" class="edge">
<title>Node2&#45;&gt;Node1</title>
<path fill="none" stroke="midnightblue" d="M538.98,-47.85C550.63,-46.02 562.44,-44.16 573.94,-42.36"/>
<polygon fill="midnightblue" stroke="midnightblue" points="538.12,-44.44 528.79,-49.45 539.21,-51.36 538.12,-44.44"/>
</g>
<!-- Node3 -->
<g id="node4" class="node">
<title>Node3</title>
<g id="a_node4"><a xlink:href="classfiftyone_1_1pipeline_1_1core_1_1flowelements_1_1_pipeline_builder_base.html" target="_top" xlink:title="Abstract base class for all Pipeline builders.">
<polygon fill="none" stroke="black" points="0,-44 0,-85 191,-85 191,-44 0,-44"/>
<text text-anchor="start" x="8" y="-73" font-family="Helvetica,sans-Serif" font-size="10.00">fiftyone.pipeline.core.flowelements.</text>
<text text-anchor="start" x="8" y="-62" font-family="Helvetica,sans-Serif" font-size="10.00">PipelineBuilderBase&lt; T extends</text>
<text text-anchor="middle" x="95.5" y="-51" font-family="Helvetica,sans-Serif" font-size="10.00"> PipelineBuilderBase &gt;</text>
</a>
</g>
</g>
<!-- Node3&#45;&gt;Node2 -->
<g id="edge3" class="edge">
<title>Node3&#45;&gt;Node2</title>
<path fill="none" stroke="orange" stroke-dasharray="5,2" d="M201.06,-64.5C241.1,-64.5 286.74,-64.5 326.74,-64.5"/>
<polygon fill="orange" stroke="orange" points="201.01,-61 191.01,-64.5 201.01,-68 201.01,-61"/>
<text text-anchor="middle" x="259" y="-67.5" font-family="Helvetica,sans-Serif" font-size="10.00"> &lt; PipelineBuilder &gt;</text>
</g>
<!-- Node3&#45;&gt;Node3 -->
<g id="edge4" class="edge">
<title>Node3&#45;&gt;Node3</title>
<path fill="none" stroke="orange" stroke-dasharray="5,2" d="M67.63,-95.36C71.77,-100.2 81.06,-103.5 95.5,-103.5 118.6,-103.5 128.52,-95.04 125.27,-85.36"/>
<polygon fill="orange" stroke="orange" points="71.04,-94.53 65.73,-85.36 64.16,-95.84 71.04,-94.53"/>
<text text-anchor="middle" x="95.5" y="-106.5" font-family="Helvetica,sans-Serif" font-size="10.00"> T</text>
</g>
<!-- Node4 -->
<g id="node5" class="node">
<title>Node4</title>
<g id="a_node5"><a xlink:href="interfacefiftyone_1_1pipeline_1_1core_1_1flowelements_1_1_pipeline_builder_from_configuration.html" target="_top" xlink:title="Pipeline builders implementing this interface are capable of building a Pipeline based on a supplied ...">
<polygon fill="none" stroke="black" points="336.5,-0.5 336.5,-30.5 527.5,-30.5 527.5,-0.5 336.5,-0.5"/>
<text text-anchor="start" x="344.5" y="-18.5" font-family="Helvetica,sans-Serif" font-size="10.00">fiftyone.pipeline.core.flowelements.</text>
<text text-anchor="middle" x="432" y="-7.5" font-family="Helvetica,sans-Serif" font-size="10.00">PipelineBuilderFromConfiguration</text>
</a>
</g>
</g>
<!-- Node4&#45;&gt;Node1 -->
<g id="edge5" class="edge">
<title>Node4&#45;&gt;Node1</title>
<path fill="none" stroke="midnightblue" d="M537.82,-20.84C549.84,-21.45 562.05,-22.08 573.93,-22.68"/>
<polygon fill="midnightblue" stroke="midnightblue" points="537.93,-17.34 527.77,-20.33 537.58,-24.33 537.93,-17.34"/>
</g>
</g>
</svg>
