<?xml version="1.0" encoding="UTF-8" standalone="no"?>
<!DOCTYPE svg PUBLIC "-//W3C//DTD SVG 1.1//EN"
 "http://www.w3.org/Graphics/SVG/1.1/DTD/svg11.dtd">
<!-- Generated by graphviz version 2.43.0 (0)
 -->
<!-- Title: fiftyone.pipeline.engines.fiftyone.flowelements.ShareUsageElement.ReplacedString Pages: 1 -->
<svg width="256pt" height="173pt"
 viewBox="0.00 0.00 256.00 173.00" xmlns="http://www.w3.org/2000/svg" xmlns:xlink="http://www.w3.org/1999/xlink">
<g id="graph0" class="graph" transform="scale(1 1) rotate(0) translate(4 169)">
<title>fiftyone.pipeline.engines.fiftyone.flowelements.ShareUsageElement.ReplacedString</title>
<!-- Node1 -->
<g id="node1" class="node">
<title>Node1</title>
<g id="a_node1"><a xlink:title="replace characters that cause problems in XML with the &quot;Replacement character&quot;">
<polygon fill="#bfbfbf" stroke="black" points="0,-0.5 0,-30.5 248,-30.5 248,-0.5 0,-0.5"/>
<text text-anchor="start" x="8" y="-18.5" font-family="Helvetica,sans-Serif" font-size="10.00">fiftyone.pipeline.engines.fiftyone.flowelements.</text>
<text text-anchor="middle" x="124" y="-7.5" font-family="Helvetica,sans-Serif" font-size="10.00">ShareUsageElement.ReplacedString</text>
</a>
</g>
</g>
<!-- Node2 -->
<g id="node2" class="node">
<title>Node2</title>
<g id="a_node2"><a xlink:title=" ">
<polygon fill="none" stroke="#bfbfbf" points="79.5,-78.5 79.5,-97.5 168.5,-97.5 168.5,-78.5 79.5,-78.5"/>
<text text-anchor="middle" x="124" y="-85.5" font-family="Helvetica,sans-Serif" font-size="10.00">Set&lt; Integer &gt;</text>
</a>
</g>
</g>
<!-- Node2&#45;&gt;Node1 -->
<g id="edge1" class="edge">
<title>Node2&#45;&gt;Node1</title>
<path fill="none" stroke="#9a32cd" stroke-dasharray="5,2" d="M124,-68.24C124,-56.41 124,-41.38 124,-30.58"/>
<polygon fill="#9a32cd" stroke="#9a32cd" points="120.5,-68.36 124,-78.36 127.5,-68.36 120.5,-68.36"/>
<text text-anchor="middle" x="172.5" y="-52" font-family="Helvetica,sans-Serif" font-size="10.00"> VALID_XML_CHARS</text>
</g>
<!-- Node3 -->
<g id="node3" class="node">
<title>Node3</title>
<g id="a_node3"><a xlink:title=" ">
<polygon fill="none" stroke="#bfbfbf" points="108,-145.5 108,-164.5 140,-164.5 140,-145.5 108,-145.5"/>
<text text-anchor="middle" x="124" y="-152.5" font-family="Helvetica,sans-Serif" font-size="10.00">Set</text>
</a>
</g>
</g>
<!-- Node3&#45;&gt;Node2 -->
<g id="edge2" class="edge">
<title>Node3&#45;&gt;Node2</title>
<path fill="none" stroke="orange" stroke-dasharray="5,2" d="M124,-135.04C124,-122.67 124,-107.12 124,-97.63"/>
<polygon fill="orange" stroke="orange" points="120.5,-135.23 124,-145.23 127.5,-135.23 120.5,-135.23"/>
<text text-anchor="middle" x="154.5" y="-119" font-family="Helvetica,sans-Serif" font-size="10.00"> &lt; Integer &gt;</text>
</g>
</g>
</svg>
