<?xml version="1.0" encoding="UTF-8" standalone="no"?>
<!DOCTYPE svg PUBLIC "-//W3C//DTD SVG 1.1//EN"
 "http://www.w3.org/Graphics/SVG/1.1/DTD/svg11.dtd">
<!-- Generated by graphviz version 2.43.0 (0)
 -->
<!-- Title: fiftyone.pipeline.core.data.ElementDataBase Pages: 1 -->
<svg width="1391pt" height="186pt"
 viewBox="0.00 0.00 1391.00 186.00" xmlns="http://www.w3.org/2000/svg" xmlns:xlink="http://www.w3.org/1999/xlink">
<g id="graph0" class="graph" transform="scale(1 1) rotate(0) translate(4 182)">
<title>fiftyone.pipeline.core.data.ElementDataBase</title>
<!-- Node0 -->
<g id="node1" class="node">
<title>Node0</title>
<g id="a_node1"><a xlink:title="Base implementation of ElementData.">
<polygon fill="#bfbfbf" stroke="black" points="389,-73.5 389,-103.5 536,-103.5 536,-73.5 389,-73.5"/>
<text text-anchor="start" x="397" y="-91.5" font-family="Helvetica,sans-Serif" font-size="10.00">fiftyone.pipeline.core.data.</text>
<text text-anchor="middle" x="462.5" y="-80.5" font-family="Helvetica,sans-Serif" font-size="10.00">ElementDataBase</text>
</a>
</g>
</g>
<!-- Node4 -->
<g id="node5" class="node">
<title>Node4</title>
<g id="a_node5"><a xlink:href="classfiftyone_1_1pipeline_1_1engines_1_1data_1_1_aspect_data_base.html" target="_top" xlink:title="Abstract base class for AspectData which overrides the.">
<polygon fill="none" stroke="black" points="615.5,-147.5 615.5,-177.5 779.5,-177.5 779.5,-147.5 615.5,-147.5"/>
<text text-anchor="start" x="623.5" y="-165.5" font-family="Helvetica,sans-Serif" font-size="10.00">fiftyone.pipeline.engines.data.</text>
<text text-anchor="middle" x="697.5" y="-154.5" font-family="Helvetica,sans-Serif" font-size="10.00">AspectDataBase</text>
</a>
</g>
</g>
<!-- Node0&#45;&gt;Node4 -->
<g id="edge5" class="edge">
<title>Node0&#45;&gt;Node4</title>
<path fill="none" stroke="midnightblue" d="M501.26,-108.1C521.75,-118.07 547.77,-129.71 572,-137.5 585.85,-141.96 600.84,-145.77 615.45,-148.99"/>
<polygon fill="midnightblue" stroke="midnightblue" points="502.78,-104.94 492.26,-103.65 499.68,-111.22 502.78,-104.94"/>
</g>
<!-- Node7 -->
<g id="node8" class="node">
<title>Node7</title>
<g id="a_node8"><a xlink:href="classfiftyone_1_1pipeline_1_1engines_1_1fiftyone_1_1data_1_1_set_headers_data.html" target="_top" xlink:title="[class] [constructor]">
<polygon fill="none" stroke="black" points="595.5,-98.5 595.5,-128.5 799.5,-128.5 799.5,-98.5 595.5,-98.5"/>
<text text-anchor="start" x="603.5" y="-116.5" font-family="Helvetica,sans-Serif" font-size="10.00">fiftyone.pipeline.engines.fiftyone.data.</text>
<text text-anchor="middle" x="697.5" y="-105.5" font-family="Helvetica,sans-Serif" font-size="10.00">SetHeadersData</text>
</a>
</g>
</g>
<!-- Node0&#45;&gt;Node7 -->
<g id="edge8" class="edge">
<title>Node0&#45;&gt;Node7</title>
<path fill="none" stroke="midnightblue" d="M546.5,-97.41C562.29,-99.1 578.98,-100.89 595.26,-102.64"/>
<polygon fill="midnightblue" stroke="midnightblue" points="546.58,-93.89 536.26,-96.31 545.83,-100.85 546.58,-93.89"/>
</g>
<!-- Node8 -->
<g id="node9" class="node">
<title>Node8</title>
<g id="a_node9"><a xlink:href="classfiftyone_1_1pipeline_1_1javascriptbuilder_1_1flowelements_1_1_java_script_builder_data_internal.html" target="_top" xlink:title="[class]">
<polygon fill="none" stroke="black" points="572,-49.5 572,-79.5 823,-79.5 823,-49.5 572,-49.5"/>
<text text-anchor="start" x="580" y="-67.5" font-family="Helvetica,sans-Serif" font-size="10.00">fiftyone.pipeline.javascriptbuilder.flowelements.</text>
<text text-anchor="middle" x="697.5" y="-56.5" font-family="Helvetica,sans-Serif" font-size="10.00">JavaScriptBuilderDataInternal</text>
</a>
</g>
</g>
<!-- Node0&#45;&gt;Node8 -->
<g id="edge9" class="edge">
<title>Node0&#45;&gt;Node8</title>
<path fill="none" stroke="midnightblue" d="M546.26,-79.98C554.56,-79.12 563.11,-78.24 571.73,-77.35"/>
<polygon fill="midnightblue" stroke="midnightblue" points="545.85,-76.5 536.26,-81 546.57,-83.46 545.85,-76.5"/>
</g>
<!-- Node9 -->
<g id="node10" class="node">
<title>Node9</title>
<g id="a_node10"><a xlink:href="classfiftyone_1_1pipeline_1_1jsonbuilder_1_1flowelements_1_1_json_builder_data_internal.html" target="_top" xlink:title="[class]">
<polygon fill="none" stroke="black" points="585.5,-0.5 585.5,-30.5 809.5,-30.5 809.5,-0.5 585.5,-0.5"/>
<text text-anchor="start" x="593.5" y="-18.5" font-family="Helvetica,sans-Serif" font-size="10.00">fiftyone.pipeline.jsonbuilder.flowelements.</text>
<text text-anchor="middle" x="697.5" y="-7.5" font-family="Helvetica,sans-Serif" font-size="10.00">JsonBuilderDataInternal</text>
</a>
</g>
</g>
<!-- Node0&#45;&gt;Node9 -->
<g id="edge10" class="edge">
<title>Node0&#45;&gt;Node9</title>
<path fill="none" stroke="midnightblue" d="M501.24,-68.83C521.72,-58.83 547.74,-47.2 572,-39.5 582.6,-36.14 593.86,-33.17 605.11,-30.57"/>
<polygon fill="midnightblue" stroke="midnightblue" points="499.65,-65.71 492.24,-73.29 502.76,-71.98 499.65,-65.71"/>
</g>
<!-- Node1 -->
<g id="node2" class="node">
<title>Node1</title>
<g id="a_node2"><a xlink:href="classfiftyone_1_1pipeline_1_1core_1_1data_1_1_data_base.html" target="_top" xlink:title="This implementation of Data stores data values as key/value pairs in a Map where the key is a string ...">
<polygon fill="none" stroke="black" points="206,-98.5 206,-128.5 353,-128.5 353,-98.5 206,-98.5"/>
<text text-anchor="start" x="214" y="-116.5" font-family="Helvetica,sans-Serif" font-size="10.00">fiftyone.pipeline.core.data.</text>
<text text-anchor="middle" x="279.5" y="-105.5" font-family="Helvetica,sans-Serif" font-size="10.00">DataBase</text>
</a>
</g>
</g>
<!-- Node1&#45;&gt;Node0 -->
<g id="edge1" class="edge">
<title>Node1&#45;&gt;Node0</title>
<path fill="none" stroke="midnightblue" d="M363.12,-102.09C371.72,-100.9 380.42,-99.7 388.91,-98.53"/>
<polygon fill="midnightblue" stroke="midnightblue" points="362.5,-98.64 353.08,-103.48 363.46,-105.57 362.5,-98.64"/>
</g>
<!-- Node2 -->
<g id="node3" class="node">
<title>Node2</title>
<g id="a_node3"><a xlink:href="interfacefiftyone_1_1pipeline_1_1core_1_1data_1_1_data.html" target="_top" xlink:title="Represents a collection of property values.">
<polygon fill="none" stroke="black" points="0,-79 0,-98 170,-98 170,-79 0,-79"/>
<text text-anchor="middle" x="85" y="-86" font-family="Helvetica,sans-Serif" font-size="10.00">fiftyone.pipeline.core.data.Data</text>
</a>
</g>
</g>
<!-- Node2&#45;&gt;Node1 -->
<g id="edge2" class="edge">
<title>Node2&#45;&gt;Node1</title>
<path fill="none" stroke="midnightblue" d="M169.4,-99.33C181.48,-100.9 193.84,-102.51 205.7,-104.05"/>
<polygon fill="midnightblue" stroke="midnightblue" points="169.69,-95.84 159.33,-98.02 168.79,-102.78 169.69,-95.84"/>
</g>
<!-- Node3 -->
<g id="node4" class="node">
<title>Node3</title>
<g id="a_node4"><a xlink:href="interfacefiftyone_1_1pipeline_1_1core_1_1data_1_1_element_data.html" target="_top" xlink:title="Represents property values that have be determined by a specific FlowElement based on the supplied ev...">
<polygon fill="none" stroke="black" points="206,-49.5 206,-79.5 353,-79.5 353,-49.5 206,-49.5"/>
<text text-anchor="start" x="214" y="-67.5" font-family="Helvetica,sans-Serif" font-size="10.00">fiftyone.pipeline.core.data.</text>
<text text-anchor="middle" x="279.5" y="-56.5" font-family="Helvetica,sans-Serif" font-size="10.00">ElementData</text>
</a>
</g>
</g>
<!-- Node2&#45;&gt;Node3 -->
<g id="edge4" class="edge">
<title>Node2&#45;&gt;Node3</title>
<path fill="none" stroke="midnightblue" d="M172.55,-77.71C183.73,-76.32 195.08,-74.9 206,-73.54"/>
<polygon fill="midnightblue" stroke="midnightblue" points="171.85,-74.27 162.36,-78.98 172.71,-81.22 171.85,-74.27"/>
</g>
<!-- Node3&#45;&gt;Node0 -->
<g id="edge3" class="edge">
<title>Node3&#45;&gt;Node0</title>
<path fill="none" stroke="midnightblue" d="M363.12,-75.45C371.72,-76.6 380.42,-77.75 388.91,-78.87"/>
<polygon fill="midnightblue" stroke="midnightblue" points="363.45,-71.97 353.08,-74.12 362.53,-78.91 363.45,-71.97"/>
</g>
<!-- Node5 -->
<g id="node6" class="node">
<title>Node5</title>
<g id="a_node6"><a xlink:href="classfiftyone_1_1pipeline_1_1cloudrequestengine_1_1flowelements_1_1_cloud_request_data_internal.html" target="_top" xlink:title=" ">
<polygon fill="none" stroke="black" points="859,-147.5 859,-177.5 1125,-177.5 1125,-147.5 859,-147.5"/>
<text text-anchor="start" x="867" y="-165.5" font-family="Helvetica,sans-Serif" font-size="10.00">fiftyone.pipeline.cloudrequestengine.flowelements.</text>
<text text-anchor="middle" x="992" y="-154.5" font-family="Helvetica,sans-Serif" font-size="10.00">CloudRequestDataInternal</text>
</a>
</g>
</g>
<!-- Node4&#45;&gt;Node5 -->
<g id="edge6" class="edge">
<title>Node4&#45;&gt;Node5</title>
<path fill="none" stroke="midnightblue" d="M789.84,-162.5C811.75,-162.5 835.58,-162.5 858.92,-162.5"/>
<polygon fill="midnightblue" stroke="midnightblue" points="789.59,-159 779.59,-162.5 789.59,-166 789.59,-159"/>
</g>
<!-- Node6 -->
<g id="node7" class="node">
<title>Node6</title>
<g id="a_node7"><a xlink:href="classfiftyone_1_1pipeline_1_1cloudrequestengine_1_1data_1_1_cloud_request_data.html" target="_top" xlink:title=" ">
<polygon fill="none" stroke="black" points="1161,-147.5 1161,-177.5 1383,-177.5 1383,-147.5 1161,-147.5"/>
<text text-anchor="start" x="1169" y="-165.5" font-family="Helvetica,sans-Serif" font-size="10.00">fiftyone.pipeline.cloudrequestengine.data.</text>
<text text-anchor="middle" x="1272" y="-154.5" font-family="Helvetica,sans-Serif" font-size="10.00">CloudRequestData</text>
</a>
</g>
</g>
<!-- Node5&#45;&gt;Node6 -->
<g id="edge7" class="edge">
<title>Node5&#45;&gt;Node6</title>
<path fill="none" stroke="midnightblue" d="M1135.14,-162.5C1143.7,-162.5 1152.25,-162.5 1160.66,-162.5"/>
<polygon fill="midnightblue" stroke="midnightblue" points="1135.08,-159 1125.08,-162.5 1135.08,-166 1135.08,-159"/>
</g>
</g>
</svg>
