<?xml version="1.0" encoding="UTF-8" standalone="no"?>
<!DOCTYPE svg PUBLIC "-//W3C//DTD SVG 1.1//EN"
 "http://www.w3.org/Graphics/SVG/1.1/DTD/svg11.dtd">
<!-- Generated by graphviz version 2.43.0 (0)
 -->
<!-- Title: fiftyone.pipeline.engines.flowelements.OnPremiseAspectEngineBase&lt; TData extends AspectData, TProperty extends AspectPropertyMetaData &gt; Pages: 1 -->
<svg width="2745pt" height="407pt"
 viewBox="0.00 0.00 2745.00 407.00" xmlns="http://www.w3.org/2000/svg" xmlns:xlink="http://www.w3.org/1999/xlink">
<g id="graph0" class="graph" transform="scale(1 1) rotate(0) translate(4 403)">
<title>fiftyone.pipeline.engines.flowelements.OnPremiseAspectEngineBase&lt; TData extends AspectData, TProperty extends AspectPropertyMetaData &gt;</title>
<!-- Node0 -->
<g id="node1" class="node">
<title>Node0</title>
<g id="a_node1"><a xlink:title="Base class for on&#45;premise aspect engines.">
<polygon fill="#bfbfbf" stroke="black" points="2167,-133 2167,-185 2380,-185 2380,-133 2167,-133"/>
<text text-anchor="start" x="2175" y="-173" font-family="Helvetica,sans-Serif" font-size="10.00">fiftyone.pipeline.engines.flowelements.</text>
<text text-anchor="start" x="2175" y="-162" font-family="Helvetica,sans-Serif" font-size="10.00">OnPremiseAspectEngineBase&lt; TData</text>
<text text-anchor="start" x="2175" y="-151" font-family="Helvetica,sans-Serif" font-size="10.00"> extends AspectData, TProperty extends</text>
<text text-anchor="middle" x="2273.5" y="-140" font-family="Helvetica,sans-Serif" font-size="10.00"> AspectPropertyMetaData &gt;</text>
</a>
</g>
</g>
<!-- Node17 -->
<g id="node18" class="node">
<title>Node17</title>
<g id="a_node18"><a xlink:href="classfiftyone_1_1pipeline_1_1engines_1_1fiftyone_1_1flowelements_1_1_fifty_one_on_premise_aspect_engine_base.html" target="_top" xlink:title="51Degrees specific engine base class.">
<polygon fill="none" stroke="black" points="2525,-166 2525,-218 2737,-218 2737,-166 2525,-166"/>
<text text-anchor="start" x="2533" y="-206" font-family="Helvetica,sans-Serif" font-size="10.00">fiftyone::pipeline</text>
<text text-anchor="start" x="2533" y="-195" font-family="Helvetica,sans-Serif" font-size="10.00">::engines::fiftyone</text>
<text text-anchor="start" x="2533" y="-184" font-family="Helvetica,sans-Serif" font-size="10.00">::flowelements::FiftyOneOnPremise</text>
<text text-anchor="middle" x="2631" y="-173" font-family="Helvetica,sans-Serif" font-size="10.00">AspectEngineBase&lt; TData, TProperty &gt;</text>
</a>
</g>
</g>
<!-- Node0&#45;&gt;Node17 -->
<g id="edge31" class="edge">
<title>Node0&#45;&gt;Node17</title>
<path fill="none" stroke="midnightblue" d="M2390.21,-169.74C2433.5,-173.76 2482.41,-178.3 2524.71,-182.23"/>
<polygon fill="midnightblue" stroke="midnightblue" points="2390.48,-166.25 2380.2,-168.81 2389.83,-173.22 2390.48,-166.25"/>
</g>
<!-- Node18 -->
<g id="node19" class="node">
<title>Node18</title>
<g id="a_node19"><a xlink:href="classfiftyone_1_1pipeline_1_1engines_1_1flowelements_1_1_on_premise_aspect_engine_base.html" target="_top" xlink:title=" ">
<polygon fill="none" stroke="black" points="2526.5,-105.5 2526.5,-146.5 2735.5,-146.5 2735.5,-105.5 2526.5,-105.5"/>
<text text-anchor="start" x="2534.5" y="-134.5" font-family="Helvetica,sans-Serif" font-size="10.00">fiftyone.pipeline.engines.flowelements.</text>
<text text-anchor="start" x="2534.5" y="-123.5" font-family="Helvetica,sans-Serif" font-size="10.00">OnPremiseAspectEngineBase&lt; TData,</text>
<text text-anchor="middle" x="2631" y="-112.5" font-family="Helvetica,sans-Serif" font-size="10.00"> TProperty &gt;</text>
</a>
</g>
</g>
<!-- Node0&#45;&gt;Node18 -->
<g id="edge32" class="edge">
<title>Node0&#45;&gt;Node18</title>
<path fill="none" stroke="orange" stroke-dasharray="5,2" d="M2390.32,-148.25C2434.11,-144.18 2483.63,-139.59 2526.24,-135.63"/>
<polygon fill="orange" stroke="orange" points="2389.83,-144.78 2380.2,-149.19 2390.48,-151.75 2389.83,-144.78"/>
<text text-anchor="middle" x="2452.5" y="-151" font-family="Helvetica,sans-Serif" font-size="10.00"> &lt; TData, TProperty &gt;</text>
</g>
<!-- Node1 -->
<g id="node2" class="node">
<title>Node1</title>
<g id="a_node2"><a xlink:href="classfiftyone_1_1pipeline_1_1engines_1_1flowelements_1_1_aspect_engine_base.html" target="_top" xlink:title=" ">
<polygon fill="none" stroke="black" points="1918,-164 1918,-194 2130,-194 2130,-164 1918,-164"/>
<text text-anchor="start" x="1926" y="-182" font-family="Helvetica,sans-Serif" font-size="10.00">fiftyone.pipeline.engines.flowelements.</text>
<text text-anchor="middle" x="2024" y="-171" font-family="Helvetica,sans-Serif" font-size="10.00">AspectEngineBase&lt; TData, TProperty &gt;</text>
</a>
</g>
</g>
<!-- Node1&#45;&gt;Node0 -->
<g id="edge1" class="edge">
<title>Node1&#45;&gt;Node0</title>
<path fill="none" stroke="midnightblue" d="M2140.29,-169.68C2149.16,-168.97 2158.08,-168.25 2166.88,-167.54"/>
<polygon fill="midnightblue" stroke="midnightblue" points="2140.01,-166.2 2130.32,-170.49 2140.57,-173.17 2140.01,-166.2"/>
</g>
<!-- Node2 -->
<g id="node3" class="node">
<title>Node2</title>
<g id="a_node3"><a xlink:href="classfiftyone_1_1pipeline_1_1engines_1_1flowelements_1_1_aspect_engine_base.html" target="_top" xlink:title="Base class for AspectEngines to extend.">
<polygon fill="none" stroke="black" points="1525,-163 1525,-215 1773,-215 1773,-163 1525,-163"/>
<text text-anchor="start" x="1533" y="-203" font-family="Helvetica,sans-Serif" font-size="10.00">fiftyone.pipeline.engines.flowelements.</text>
<text text-anchor="start" x="1533" y="-192" font-family="Helvetica,sans-Serif" font-size="10.00">AspectEngineBase&lt; TData extends</text>
<text text-anchor="start" x="1533" y="-181" font-family="Helvetica,sans-Serif" font-size="10.00"> AspectData, TProperty extends AspectProperty</text>
<text text-anchor="middle" x="1649" y="-170" font-family="Helvetica,sans-Serif" font-size="10.00">MetaData &gt;</text>
</a>
</g>
</g>
<!-- Node2&#45;&gt;Node1 -->
<g id="edge2" class="edge">
<title>Node2&#45;&gt;Node1</title>
<path fill="none" stroke="orange" stroke-dasharray="5,2" d="M1783.4,-185.42C1827.55,-184.24 1876.03,-182.94 1917.77,-181.82"/>
<polygon fill="orange" stroke="orange" points="1783.07,-181.93 1773.17,-185.7 1783.26,-188.93 1783.07,-181.93"/>
<text text-anchor="middle" x="1845.5" y="-188" font-family="Helvetica,sans-Serif" font-size="10.00"> &lt; TData, TProperty &gt;</text>
</g>
<!-- Node3 -->
<g id="node4" class="node">
<title>Node3</title>
<g id="a_node4"><a xlink:href="classfiftyone_1_1pipeline_1_1core_1_1flowelements_1_1_flow_element_base.html" target="_top" xlink:title="Provides a base class from which authors may create new FlowElements.">
<polygon fill="none" stroke="black" points="1256.5,-191 1256.5,-243 1410.5,-243 1410.5,-191 1256.5,-191"/>
<text text-anchor="start" x="1264.5" y="-231" font-family="Helvetica,sans-Serif" font-size="10.00">fiftyone::pipeline</text>
<text text-anchor="start" x="1264.5" y="-220" font-family="Helvetica,sans-Serif" font-size="10.00">::core::flowelements</text>
<text text-anchor="start" x="1264.5" y="-209" font-family="Helvetica,sans-Serif" font-size="10.00">::FlowElementBase&lt; TData,</text>
<text text-anchor="middle" x="1333.5" y="-198" font-family="Helvetica,sans-Serif" font-size="10.00"> TProperty &gt;</text>
</a>
</g>
</g>
<!-- Node3&#45;&gt;Node2 -->
<g id="edge3" class="edge">
<title>Node3&#45;&gt;Node2</title>
<path fill="none" stroke="midnightblue" d="M1421.02,-209.27C1453.08,-206.41 1490.09,-203.1 1524.8,-200"/>
<polygon fill="midnightblue" stroke="midnightblue" points="1420.44,-205.81 1410.79,-210.19 1421.06,-212.78 1420.44,-205.81"/>
</g>
<!-- Node4 -->
<g id="node5" class="node">
<title>Node4</title>
<g id="a_node5"><a xlink:href="interfacefiftyone_1_1pipeline_1_1core_1_1flowelements_1_1_flow_element.html" target="_top" xlink:title=" ">
<polygon fill="none" stroke="black" points="866,-203 866,-233 1057,-233 1057,-203 866,-203"/>
<text text-anchor="start" x="874" y="-221" font-family="Helvetica,sans-Serif" font-size="10.00">fiftyone.pipeline.core.flowelements.</text>
<text text-anchor="middle" x="961.5" y="-210" font-family="Helvetica,sans-Serif" font-size="10.00">FlowElement&lt; TData, TProperty &gt;</text>
</a>
</g>
</g>
<!-- Node4&#45;&gt;Node3 -->
<g id="edge4" class="edge">
<title>Node4&#45;&gt;Node3</title>
<path fill="none" stroke="midnightblue" d="M1067.59,-217.72C1127.71,-217.55 1201.76,-217.35 1256.28,-217.21"/>
<polygon fill="midnightblue" stroke="midnightblue" points="1067.29,-214.22 1057.3,-217.74 1067.31,-221.22 1067.29,-214.22"/>
</g>
<!-- Node5 -->
<g id="node6" class="node">
<title>Node5</title>
<g id="a_node6"><a xlink:href="interfacefiftyone_1_1pipeline_1_1core_1_1flowelements_1_1_flow_element.html" target="_top" xlink:title="A component that processes a FlowData (by examining its evidence, or by examining data processed by o...">
<polygon fill="none" stroke="black" points="441,-215.5 441,-256.5 694,-256.5 694,-215.5 441,-215.5"/>
<text text-anchor="start" x="449" y="-244.5" font-family="Helvetica,sans-Serif" font-size="10.00">fiftyone.pipeline.core.flowelements.</text>
<text text-anchor="start" x="449" y="-233.5" font-family="Helvetica,sans-Serif" font-size="10.00">FlowElement&lt; TData extends ElementData,</text>
<text text-anchor="middle" x="567.5" y="-222.5" font-family="Helvetica,sans-Serif" font-size="10.00"> TProperty extends ElementPropertyMetaData &gt;</text>
</a>
</g>
</g>
<!-- Node5&#45;&gt;Node4 -->
<g id="edge5" class="edge">
<title>Node5&#45;&gt;Node4</title>
<path fill="none" stroke="orange" stroke-dasharray="5,2" d="M704.35,-229.76C757.55,-227.32 817.29,-224.58 865.69,-222.35"/>
<polygon fill="orange" stroke="orange" points="703.98,-226.28 694.15,-230.23 704.3,-233.27 703.98,-226.28"/>
<text text-anchor="middle" x="766.5" y="-232" font-family="Helvetica,sans-Serif" font-size="10.00"> &lt; TData, TProperty &gt;</text>
</g>
<!-- Node6 -->
<g id="node7" class="node">
<title>Node6</title>
<g id="a_node7"><a xlink:title=" ">
<polygon fill="none" stroke="#bfbfbf" points="237,-219.5 237,-238.5 324,-238.5 324,-219.5 237,-219.5"/>
<text text-anchor="middle" x="280.5" y="-226.5" font-family="Helvetica,sans-Serif" font-size="10.00">AutoCloseable</text>
</a>
</g>
</g>
<!-- Node6&#45;&gt;Node5 -->
<g id="edge6" class="edge">
<title>Node6&#45;&gt;Node5</title>
<path fill="none" stroke="midnightblue" d="M334.4,-234.47C346.73,-235.52 359.81,-236.46 372,-237 394.27,-237.98 417.98,-238.39 440.91,-238.46"/>
<polygon fill="midnightblue" stroke="midnightblue" points="334.53,-230.96 324.26,-233.56 333.91,-237.94 334.53,-230.96"/>
</g>
<!-- Node12 -->
<g id="node13" class="node">
<title>Node12</title>
<g id="a_node13"><a xlink:href="interfacefiftyone_1_1pipeline_1_1core_1_1flowelements_1_1_flow_element.html" target="_top" xlink:title="A component that processes a FlowData (by examining its evidence, or by examining data processed by o...">
<polygon fill="none" stroke="black" points="502.5,-144 502.5,-196 632.5,-196 632.5,-144 502.5,-144"/>
<text text-anchor="start" x="510.5" y="-184" font-family="Helvetica,sans-Serif" font-size="10.00">fiftyone::pipeline</text>
<text text-anchor="start" x="510.5" y="-173" font-family="Helvetica,sans-Serif" font-size="10.00">::core::flowelements</text>
<text text-anchor="start" x="510.5" y="-162" font-family="Helvetica,sans-Serif" font-size="10.00">::FlowElement&lt; TData,</text>
<text text-anchor="middle" x="567.5" y="-151" font-family="Helvetica,sans-Serif" font-size="10.00"> TProperty &gt;</text>
</a>
</g>
</g>
<!-- Node6&#45;&gt;Node12 -->
<g id="edge15" class="edge">
<title>Node6&#45;&gt;Node12</title>
<path fill="none" stroke="midnightblue" d="M326.73,-216.88C341.15,-213.19 357.2,-209.25 372,-206 415.27,-196.51 464.32,-187.44 502.34,-180.78"/>
<polygon fill="midnightblue" stroke="midnightblue" points="325.85,-213.49 317.05,-219.39 327.61,-220.27 325.85,-213.49"/>
</g>
<!-- Node7 -->
<g id="node8" class="node">
<title>Node7</title>
<g id="a_node8"><a xlink:href="interfacefiftyone_1_1pipeline_1_1core_1_1data_1_1_element_data.html" target="_top" xlink:title="Represents property values that have be determined by a specific FlowElement based on the supplied ev...">
<polygon fill="none" stroke="black" points="207,-282 207,-312 354,-312 354,-282 207,-282"/>
<text text-anchor="start" x="215" y="-300" font-family="Helvetica,sans-Serif" font-size="10.00">fiftyone.pipeline.core.data.</text>
<text text-anchor="middle" x="280.5" y="-289" font-family="Helvetica,sans-Serif" font-size="10.00">ElementData</text>
</a>
</g>
</g>
<!-- Node7&#45;&gt;Node3 -->
<g id="edge10" class="edge">
<title>Node7&#45;&gt;Node3</title>
<path fill="none" stroke="orange" stroke-dasharray="5,2" d="M364.38,-309.27C388.98,-312.26 416.02,-314.92 441,-316 553.34,-320.88 581.89,-324.64 694,-316 898.67,-300.23 1137,-256.42 1256.28,-232.71"/>
<polygon fill="orange" stroke="orange" points="364.72,-305.78 354.36,-308.02 363.85,-312.73 364.72,-305.78"/>
<text text-anchor="middle" x="766.5" y="-317" font-family="Helvetica,sans-Serif" font-size="10.00"> TData</text>
</g>
<!-- Node7&#45;&gt;Node5 -->
<g id="edge7" class="edge">
<title>Node7&#45;&gt;Node5</title>
<path fill="none" stroke="orange" stroke-dasharray="5,2" d="M361.44,-279.89C395.33,-272.64 435.11,-264.12 470.56,-256.53"/>
<polygon fill="orange" stroke="orange" points="360.63,-276.48 351.58,-282 362.09,-283.33 360.63,-276.48"/>
<text text-anchor="middle" x="397.5" y="-280" font-family="Helvetica,sans-Serif" font-size="10.00"> TData</text>
</g>
<!-- Node7&#45;&gt;Node12 -->
<g id="edge16" class="edge">
<title>Node7&#45;&gt;Node12</title>
<path fill="none" stroke="orange" stroke-dasharray="5,2" d="M312.56,-276.29C343.9,-256.13 394.21,-225.72 441,-206 460.43,-197.81 482.3,-190.82 502.28,-185.24"/>
<polygon fill="orange" stroke="orange" points="310.34,-273.56 303.86,-281.94 314.15,-279.43 310.34,-273.56"/>
<text text-anchor="middle" x="397.5" y="-242" font-family="Helvetica,sans-Serif" font-size="10.00"> TData</text>
</g>
<!-- Node13 -->
<g id="node14" class="node">
<title>Node13</title>
<g id="a_node14"><a xlink:href="interfacefiftyone_1_1pipeline_1_1engines_1_1data_1_1_aspect_data.html" target="_top" xlink:title="Represents a specialized ElementData instance that is generated by an AspectEngine.">
<polygon fill="none" stroke="black" points="485.5,-276 485.5,-306 649.5,-306 649.5,-276 485.5,-276"/>
<text text-anchor="start" x="493.5" y="-294" font-family="Helvetica,sans-Serif" font-size="10.00">fiftyone.pipeline.engines.data.</text>
<text text-anchor="middle" x="567.5" y="-283" font-family="Helvetica,sans-Serif" font-size="10.00">AspectData</text>
</a>
</g>
</g>
<!-- Node7&#45;&gt;Node13 -->
<g id="edge19" class="edge">
<title>Node7&#45;&gt;Node13</title>
<path fill="none" stroke="midnightblue" d="M364.46,-296.8C383.68,-296.65 404.05,-296.4 423,-296 443.19,-295.58 464.97,-294.92 485.31,-294.22"/>
<polygon fill="midnightblue" stroke="midnightblue" points="364.19,-293.3 354.22,-296.87 364.24,-300.3 364.19,-293.3"/>
</g>
<!-- Node8 -->
<g id="node9" class="node">
<title>Node8</title>
<g id="a_node9"><a xlink:href="interfacefiftyone_1_1pipeline_1_1core_1_1data_1_1_data.html" target="_top" xlink:title="Represents a collection of property values.">
<polygon fill="none" stroke="black" points="0,-287.5 0,-306.5 170,-306.5 170,-287.5 0,-287.5"/>
<text text-anchor="middle" x="85" y="-294.5" font-family="Helvetica,sans-Serif" font-size="10.00">fiftyone.pipeline.core.data.Data</text>
</a>
</g>
</g>
<!-- Node8&#45;&gt;Node7 -->
<g id="edge8" class="edge">
<title>Node8&#45;&gt;Node7</title>
<path fill="none" stroke="midnightblue" d="M180.11,-297C189.07,-297 198.06,-297 206.77,-297"/>
<polygon fill="midnightblue" stroke="midnightblue" points="180.03,-293.5 170.03,-297 180.03,-300.5 180.03,-293.5"/>
</g>
<!-- Node9 -->
<g id="node10" class="node">
<title>Node9</title>
<g id="a_node10"><a xlink:href="interfacefiftyone_1_1pipeline_1_1core_1_1data_1_1_element_property_meta_data.html" target="_top" xlink:title="Defines details of a property that can be returned by a FlowElement.">
<polygon fill="none" stroke="black" points="207,-101 207,-131 354,-131 354,-101 207,-101"/>
<text text-anchor="start" x="215" y="-119" font-family="Helvetica,sans-Serif" font-size="10.00">fiftyone.pipeline.core.data.</text>
<text text-anchor="middle" x="280.5" y="-108" font-family="Helvetica,sans-Serif" font-size="10.00">ElementPropertyMetaData</text>
</a>
</g>
</g>
<!-- Node9&#45;&gt;Node3 -->
<g id="edge11" class="edge">
<title>Node9&#45;&gt;Node3</title>
<path fill="none" stroke="orange" stroke-dasharray="5,2" d="M364.45,-119.44C383.68,-120.26 404.05,-121.14 423,-122 543.46,-127.44 573.93,-123.86 694,-135 758.78,-141.01 774.5,-146.5 839,-155 986.68,-174.46 1159.41,-195.85 1256.38,-207.73"/>
<polygon fill="orange" stroke="orange" points="364.35,-115.93 354.22,-119.01 364.06,-122.93 364.35,-115.93"/>
<text text-anchor="middle" x="766.5" y="-156" font-family="Helvetica,sans-Serif" font-size="10.00"> TProperty</text>
</g>
<!-- Node9&#45;&gt;Node5 -->
<g id="edge9" class="edge">
<title>Node9&#45;&gt;Node5</title>
<path fill="none" stroke="orange" stroke-dasharray="5,2" d="M321.98,-135.46C350.85,-149.88 390.21,-170.66 423,-192 431.49,-197.53 431.86,-201.61 441,-206 448.37,-209.54 456.19,-212.68 464.18,-215.46"/>
<polygon fill="orange" stroke="orange" points="323.51,-132.31 313,-131.01 320.4,-138.58 323.51,-132.31"/>
<text text-anchor="middle" x="397.5" y="-195" font-family="Helvetica,sans-Serif" font-size="10.00"> TProperty</text>
</g>
<!-- Node9&#45;&gt;Node12 -->
<g id="edge17" class="edge">
<title>Node9&#45;&gt;Node12</title>
<path fill="none" stroke="orange" stroke-dasharray="5,2" d="M364.15,-124.06C383.53,-126.47 404.05,-129.44 423,-133 449.17,-137.92 477.63,-144.91 502.26,-151.49"/>
<polygon fill="orange" stroke="orange" points="364.48,-120.57 354.13,-122.85 363.64,-127.52 364.48,-120.57"/>
<text text-anchor="middle" x="397.5" y="-136" font-family="Helvetica,sans-Serif" font-size="10.00"> TProperty</text>
</g>
<!-- Node14 -->
<g id="node15" class="node">
<title>Node14</title>
<g id="a_node15"><a xlink:href="interfacefiftyone_1_1pipeline_1_1engines_1_1data_1_1_aspect_property_meta_data.html" target="_top" xlink:title="Holds details about a property that can be returned by an AspectEngine.">
<polygon fill="none" stroke="black" points="485.5,-56 485.5,-86 649.5,-86 649.5,-56 485.5,-56"/>
<text text-anchor="start" x="493.5" y="-74" font-family="Helvetica,sans-Serif" font-size="10.00">fiftyone.pipeline.engines.data.</text>
<text text-anchor="middle" x="567.5" y="-63" font-family="Helvetica,sans-Serif" font-size="10.00">AspectPropertyMetaData</text>
</a>
</g>
</g>
<!-- Node9&#45;&gt;Node14 -->
<g id="edge21" class="edge">
<title>Node9&#45;&gt;Node14</title>
<path fill="none" stroke="midnightblue" d="M329.71,-97.61C343.22,-93.12 358.03,-88.81 372,-86 408.85,-78.59 450.32,-74.78 485.46,-72.85"/>
<polygon fill="midnightblue" stroke="midnightblue" points="328.47,-94.34 320.14,-100.89 330.73,-100.96 328.47,-94.34"/>
</g>
<!-- Node10 -->
<g id="node11" class="node">
<title>Node10</title>
<g id="a_node11"><a xlink:href="interfacefiftyone_1_1pipeline_1_1engines_1_1flowelements_1_1_aspect_engine.html" target="_top" xlink:title=" ">
<polygon fill="none" stroke="black" points="1229,-99 1229,-129 1438,-129 1438,-99 1229,-99"/>
<text text-anchor="start" x="1237" y="-117" font-family="Helvetica,sans-Serif" font-size="10.00">fiftyone.pipeline.engines.flowelements.</text>
<text text-anchor="middle" x="1333.5" y="-106" font-family="Helvetica,sans-Serif" font-size="10.00">AspectEngine&lt; TData, TProperty &gt;</text>
</a>
</g>
</g>
<!-- Node10&#45;&gt;Node2 -->
<g id="edge12" class="edge">
<title>Node10&#45;&gt;Node2</title>
<path fill="none" stroke="midnightblue" d="M1407.79,-131.53C1446.83,-140.87 1495.62,-152.55 1539.01,-162.93"/>
<polygon fill="midnightblue" stroke="midnightblue" points="1408.1,-128.01 1397.56,-129.09 1406.48,-134.82 1408.1,-128.01"/>
</g>
<!-- Node16 -->
<g id="node17" class="node">
<title>Node16</title>
<g id="a_node17"><a xlink:href="interfacefiftyone_1_1pipeline_1_1engines_1_1flowelements_1_1_on_premise_aspect_engine.html" target="_top" xlink:title="Aspect engine interface which processes data internally using a data file and populates the results.">
<polygon fill="none" stroke="black" points="1525,-90 1525,-142 1773,-142 1773,-90 1525,-90"/>
<text text-anchor="start" x="1533" y="-130" font-family="Helvetica,sans-Serif" font-size="10.00">fiftyone.pipeline.engines.flowelements.</text>
<text text-anchor="start" x="1533" y="-119" font-family="Helvetica,sans-Serif" font-size="10.00">OnPremiseAspectEngine&lt; TData extends</text>
<text text-anchor="start" x="1533" y="-108" font-family="Helvetica,sans-Serif" font-size="10.00"> AspectData, TProperty extends AspectProperty</text>
<text text-anchor="middle" x="1649" y="-97" font-family="Helvetica,sans-Serif" font-size="10.00">MetaData &gt;</text>
</a>
</g>
</g>
<!-- Node10&#45;&gt;Node16 -->
<g id="edge26" class="edge">
<title>Node10&#45;&gt;Node16</title>
<path fill="none" stroke="midnightblue" d="M1448.23,-114.73C1473.17,-114.88 1499.69,-115.05 1524.98,-115.22"/>
<polygon fill="midnightblue" stroke="midnightblue" points="1448.04,-111.22 1438.02,-114.66 1448,-118.22 1448.04,-111.22"/>
</g>
<!-- Node11 -->
<g id="node12" class="node">
<title>Node11</title>
<g id="a_node12"><a xlink:href="interfacefiftyone_1_1pipeline_1_1engines_1_1flowelements_1_1_aspect_engine.html" target="_top" xlink:title="AspectEngines are a subset of FlowElements.">
<polygon fill="none" stroke="black" points="839,-104.5 839,-145.5 1084,-145.5 1084,-104.5 839,-104.5"/>
<text text-anchor="start" x="847" y="-133.5" font-family="Helvetica,sans-Serif" font-size="10.00">fiftyone.pipeline.engines.flowelements.</text>
<text text-anchor="start" x="847" y="-122.5" font-family="Helvetica,sans-Serif" font-size="10.00">AspectEngine&lt; TData extends AspectData,</text>
<text text-anchor="middle" x="961.5" y="-111.5" font-family="Helvetica,sans-Serif" font-size="10.00"> TProperty extends AspectPropertyMetaData &gt;</text>
</a>
</g>
</g>
<!-- Node11&#45;&gt;Node10 -->
<g id="edge13" class="edge">
<title>Node11&#45;&gt;Node10</title>
<path fill="none" stroke="orange" stroke-dasharray="5,2" d="M1094.29,-115.32C1096.88,-115.2 1099.45,-115.1 1102,-115 1143.49,-113.42 1189.21,-112.96 1228.91,-112.97"/>
<polygon fill="orange" stroke="orange" points="1094.03,-111.82 1084.2,-115.79 1094.36,-118.82 1094.03,-111.82"/>
<text text-anchor="middle" x="1156.5" y="-118" font-family="Helvetica,sans-Serif" font-size="10.00"> &lt; TData, TProperty &gt;</text>
</g>
<!-- Node12&#45;&gt;Node11 -->
<g id="edge14" class="edge">
<title>Node12&#45;&gt;Node11</title>
<path fill="none" stroke="midnightblue" d="M642.75,-168.56C693.21,-166.86 761.36,-163.14 821,-155 838.55,-152.61 857.18,-149.21 874.91,-145.56"/>
<polygon fill="midnightblue" stroke="midnightblue" points="642.47,-165.07 632.58,-168.89 642.69,-172.07 642.47,-165.07"/>
</g>
<!-- Node13&#45;&gt;Node0 -->
<g id="edge29" class="edge">
<title>Node13&#45;&gt;Node0</title>
<path fill="none" stroke="orange" stroke-dasharray="5,2" d="M613.92,-309.88C686.04,-338.1 831.77,-388 960.5,-388 960.5,-388 960.5,-388 2025,-388 2143.25,-388 2228.99,-245.42 2259.89,-185.27"/>
<polygon fill="orange" stroke="orange" points="614.83,-306.48 604.25,-306.05 612.26,-312.98 614.83,-306.48"/>
<text text-anchor="middle" x="1481.5" y="-391" font-family="Helvetica,sans-Serif" font-size="10.00"> TData</text>
</g>
<!-- Node13&#45;&gt;Node2 -->
<g id="edge22" class="edge">
<title>Node13&#45;&gt;Node2</title>
<path fill="none" stroke="orange" stroke-dasharray="5,2" d="M623,-308.99C649.53,-316.83 682.09,-325.11 712,-329 760.04,-335.25 772.57,-329.99 821,-329 1095.49,-323.37 1173.55,-372.77 1438,-299 1502.42,-281.03 1569.67,-241.55 1610.2,-215.11"/>
<polygon fill="orange" stroke="orange" points="623.73,-305.56 613.14,-306.02 621.71,-312.26 623.73,-305.56"/>
<text text-anchor="middle" x="1156.5" y="-343" font-family="Helvetica,sans-Serif" font-size="10.00"> TData</text>
</g>
<!-- Node13&#45;&gt;Node11 -->
<g id="edge18" class="edge">
<title>Node13&#45;&gt;Node11</title>
<path fill="none" stroke="orange" stroke-dasharray="5,2" d="M659.5,-284.99C672.16,-280.87 684.18,-274.8 694,-266 713.78,-248.27 693.26,-227.83 712,-209 747.89,-172.94 772.77,-190.21 821,-174 848.01,-164.92 877.82,-154.5 902.93,-145.62"/>
<polygon fill="orange" stroke="orange" points="658.37,-281.67 649.71,-287.78 660.29,-288.4 658.37,-281.67"/>
<text text-anchor="middle" x="766.5" y="-212" font-family="Helvetica,sans-Serif" font-size="10.00"> TData</text>
</g>
<!-- Node13&#45;&gt;Node16 -->
<g id="edge27" class="edge">
<title>Node13&#45;&gt;Node16</title>
<path fill="none" stroke="orange" stroke-dasharray="5,2" d="M659.71,-295.91C854.15,-304.94 1302.7,-317.81 1438,-253 1490.83,-227.69 1475.84,-185.84 1525,-154 1531.85,-149.57 1539.24,-145.62 1546.89,-142.12"/>
<polygon fill="orange" stroke="orange" points="659.67,-292.4 649.52,-295.43 659.34,-299.39 659.67,-292.4"/>
<text text-anchor="middle" x="1156.5" y="-304" font-family="Helvetica,sans-Serif" font-size="10.00"> TData</text>
</g>
<!-- Node14&#45;&gt;Node0 -->
<g id="edge30" class="edge">
<title>Node14&#45;&gt;Node0</title>
<path fill="none" stroke="orange" stroke-dasharray="5,2" d="M628.64,-53.18C705.06,-32.15 841.36,0 960.5,0 960.5,0 960.5,0 2025,0 2122.04,0 2211.37,-87.58 2250.98,-132.74"/>
<polygon fill="orange" stroke="orange" points="627.41,-49.89 618.72,-55.94 629.29,-56.63 627.41,-49.89"/>
<text text-anchor="middle" x="1481.5" y="-3" font-family="Helvetica,sans-Serif" font-size="10.00"> TProperty</text>
</g>
<!-- Node14&#45;&gt;Node2 -->
<g id="edge23" class="edge">
<title>Node14&#45;&gt;Node2</title>
<path fill="none" stroke="orange" stroke-dasharray="5,2" d="M659.76,-70.55C798.15,-70.57 1048.79,-73.62 1084,-95 1097.62,-103.27 1088.67,-117.27 1102,-126 1136.6,-148.66 1374.76,-169.52 1524.9,-180.63"/>
<polygon fill="orange" stroke="orange" points="659.59,-67.05 649.59,-70.56 659.59,-74.05 659.59,-67.05"/>
<text text-anchor="middle" x="1156.5" y="-153" font-family="Helvetica,sans-Serif" font-size="10.00"> TProperty</text>
</g>
<!-- Node14&#45;&gt;Node11 -->
<g id="edge20" class="edge">
<title>Node14&#45;&gt;Node11</title>
<path fill="none" stroke="orange" stroke-dasharray="5,2" d="M659.84,-83.58C713.12,-90.92 781.01,-100.27 838.79,-108.23"/>
<polygon fill="orange" stroke="orange" points="660.11,-80.09 649.72,-82.19 659.15,-87.02 660.11,-80.09"/>
<text text-anchor="middle" x="766.5" y="-108" font-family="Helvetica,sans-Serif" font-size="10.00"> TProperty</text>
</g>
<!-- Node14&#45;&gt;Node16 -->
<g id="edge28" class="edge">
<title>Node14&#45;&gt;Node16</title>
<path fill="none" stroke="orange" stroke-dasharray="5,2" d="M659.78,-64.41C677.11,-63.41 695.11,-62.53 712,-62 1034.73,-51.89 1116.79,-56.12 1438,-89 1466.16,-91.88 1496.37,-95.47 1524.87,-99.09"/>
<polygon fill="orange" stroke="orange" points="659.43,-60.93 649.66,-65.02 659.85,-67.92 659.43,-60.93"/>
<text text-anchor="middle" x="1156.5" y="-71" font-family="Helvetica,sans-Serif" font-size="10.00"> TProperty</text>
</g>
<!-- Node15 -->
<g id="node16" class="node">
<title>Node15</title>
<g id="a_node16"><a xlink:href="interfacefiftyone_1_1pipeline_1_1engines_1_1flowelements_1_1_on_premise_aspect_engine.html" target="_top" xlink:title=" ">
<polygon fill="none" stroke="black" points="1919.5,-101.5 1919.5,-142.5 2128.5,-142.5 2128.5,-101.5 1919.5,-101.5"/>
<text text-anchor="start" x="1927.5" y="-130.5" font-family="Helvetica,sans-Serif" font-size="10.00">fiftyone.pipeline.engines.flowelements.</text>
<text text-anchor="start" x="1927.5" y="-119.5" font-family="Helvetica,sans-Serif" font-size="10.00">OnPremiseAspectEngine&lt; TData,</text>
<text text-anchor="middle" x="2024" y="-108.5" font-family="Helvetica,sans-Serif" font-size="10.00"> TProperty &gt;</text>
</a>
</g>
</g>
<!-- Node15&#45;&gt;Node0 -->
<g id="edge24" class="edge">
<title>Node15&#45;&gt;Node0</title>
<path fill="none" stroke="midnightblue" d="M2138.71,-139C2148.14,-140.41 2157.64,-141.83 2167,-143.23"/>
<polygon fill="midnightblue" stroke="midnightblue" points="2138.94,-135.49 2128.53,-137.48 2137.9,-142.42 2138.94,-135.49"/>
</g>
<!-- Node16&#45;&gt;Node15 -->
<g id="edge25" class="edge">
<title>Node16&#45;&gt;Node15</title>
<path fill="none" stroke="orange" stroke-dasharray="5,2" d="M1783.24,-118.14C1827.97,-118.86 1877.17,-119.65 1919.29,-120.33"/>
<polygon fill="orange" stroke="orange" points="1783.22,-114.64 1773.17,-117.98 1783.11,-121.64 1783.22,-114.64"/>
<text text-anchor="middle" x="1845.5" y="-123" font-family="Helvetica,sans-Serif" font-size="10.00"> &lt; TData, TProperty &gt;</text>
</g>
</g>
</svg>
