<?xml version="1.0" encoding="UTF-8" standalone="no"?>
<!DOCTYPE svg PUBLIC "-//W3C//DTD SVG 1.1//EN"
 "http://www.w3.org/Graphics/SVG/1.1/DTD/svg11.dtd">
<!-- Generated by graphviz version 2.43.0 (0)
 -->
<!-- Title: fiftyone.pipeline.cloudrequestengine.flowelements.PropertyKeyedCloudEngineBase&lt; TData extends MultiProfileData&lt; TProfile, TProfile extends AspectData &gt; Pages: 1 -->
<svg width="2606pt" height="389pt"
 viewBox="0.00 0.00 2606.00 389.46" xmlns="http://www.w3.org/2000/svg" xmlns:xlink="http://www.w3.org/1999/xlink">
<g id="graph0" class="graph" transform="scale(1 1) rotate(0) translate(4 385.46)">
<title>fiftyone.pipeline.cloudrequestengine.flowelements.PropertyKeyedCloudEngineBase&lt; TData extends MultiProfileData&lt; TProfile, TProfile extends AspectData &gt;</title>
<!-- Node0 -->
<g id="node1" class="node">
<title>Node0</title>
<g id="a_node1"><a xlink:title="A specialised type of CloudAspectEngineBase that has the functionality to support returning a list of...">
<polygon fill="#bfbfbf" stroke="black" points="2332,-322.46 2332,-374.46 2598,-374.46 2598,-322.46 2332,-322.46"/>
<text text-anchor="start" x="2340" y="-362.46" font-family="Helvetica,sans-Serif" font-size="10.00">fiftyone.pipeline.cloudrequestengine.flowelements.</text>
<text text-anchor="start" x="2340" y="-351.46" font-family="Helvetica,sans-Serif" font-size="10.00">PropertyKeyedCloudEngineBase&lt; TData</text>
<text text-anchor="start" x="2340" y="-340.46" font-family="Helvetica,sans-Serif" font-size="10.00"> extends MultiProfileData&lt; TProfile,</text>
<text text-anchor="middle" x="2465" y="-329.46" font-family="Helvetica,sans-Serif" font-size="10.00"> TProfile extends AspectData &gt;</text>
</a>
</g>
</g>
<!-- Node1 -->
<g id="node2" class="node">
<title>Node1</title>
<g id="a_node2"><a xlink:href="classfiftyone_1_1pipeline_1_1cloudrequestengine_1_1flowelements_1_1_cloud_aspect_engine_base.html" target="_top" xlink:title=" ">
<polygon fill="none" stroke="black" points="2029,-310.46 2029,-340.46 2295,-340.46 2295,-310.46 2029,-310.46"/>
<text text-anchor="start" x="2037" y="-328.46" font-family="Helvetica,sans-Serif" font-size="10.00">fiftyone.pipeline.cloudrequestengine.flowelements.</text>
<text text-anchor="middle" x="2162" y="-317.46" font-family="Helvetica,sans-Serif" font-size="10.00">CloudAspectEngineBase&lt; TData &gt;</text>
</a>
</g>
</g>
<!-- Node1&#45;&gt;Node0 -->
<g id="edge1" class="edge">
<title>Node1&#45;&gt;Node0</title>
<path fill="none" stroke="midnightblue" d="M2305.03,-336.31C2313.91,-336.99 2322.84,-337.67 2331.68,-338.35"/>
<polygon fill="midnightblue" stroke="midnightblue" points="2305.26,-332.82 2295.02,-335.54 2304.73,-339.8 2305.26,-332.82"/>
</g>
<!-- Node2 -->
<g id="node3" class="node">
<title>Node2</title>
<g id="a_node3"><a xlink:href="classfiftyone_1_1pipeline_1_1cloudrequestengine_1_1flowelements_1_1_cloud_aspect_engine_base.html" target="_top" xlink:title="Base class for 51Degrees Cloud Aspect Engines.">
<polygon fill="none" stroke="black" points="1672,-289.96 1672,-330.96 1938,-330.96 1938,-289.96 1672,-289.96"/>
<text text-anchor="start" x="1680" y="-318.96" font-family="Helvetica,sans-Serif" font-size="10.00">fiftyone.pipeline.cloudrequestengine.flowelements.</text>
<text text-anchor="start" x="1680" y="-307.96" font-family="Helvetica,sans-Serif" font-size="10.00">CloudAspectEngineBase&lt; TData extends</text>
<text text-anchor="middle" x="1805" y="-296.96" font-family="Helvetica,sans-Serif" font-size="10.00"> AspectData &gt;</text>
</a>
</g>
</g>
<!-- Node2&#45;&gt;Node1 -->
<g id="edge2" class="edge">
<title>Node2&#45;&gt;Node1</title>
<path fill="none" stroke="orange" stroke-dasharray="5,2" d="M1948.34,-316.47C1974.97,-317.6 2002.7,-318.77 2029,-319.88"/>
<polygon fill="orange" stroke="orange" points="1948.33,-312.97 1938.19,-316.04 1948.03,-319.96 1948.33,-312.97"/>
<text text-anchor="middle" x="1983.5" y="-321.46" font-family="Helvetica,sans-Serif" font-size="10.00"> &lt; TData &gt;</text>
</g>
<!-- Node3 -->
<g id="node4" class="node">
<title>Node3</title>
<g id="a_node4"><a xlink:href="classfiftyone_1_1pipeline_1_1engines_1_1flowelements_1_1_aspect_engine_base.html" target="_top" xlink:title="Base class for AspectEngines to extend.">
<polygon fill="none" stroke="black" points="1477,-151.46 1477,-203.46 1633,-203.46 1633,-151.46 1477,-151.46"/>
<text text-anchor="start" x="1485" y="-191.46" font-family="Helvetica,sans-Serif" font-size="10.00">fiftyone::pipeline</text>
<text text-anchor="start" x="1485" y="-180.46" font-family="Helvetica,sans-Serif" font-size="10.00">::engines::flowelements</text>
<text text-anchor="start" x="1485" y="-169.46" font-family="Helvetica,sans-Serif" font-size="10.00">::AspectEngineBase&lt; TData,</text>
<text text-anchor="middle" x="1555" y="-158.46" font-family="Helvetica,sans-Serif" font-size="10.00"> AspectPropertyMetaData &gt;</text>
</a>
</g>
</g>
<!-- Node3&#45;&gt;Node2 -->
<g id="edge3" class="edge">
<title>Node3&#45;&gt;Node2</title>
<path fill="none" stroke="midnightblue" d="M1613.8,-208.45C1660.52,-233.51 1724.98,-268.08 1765.57,-289.85"/>
<polygon fill="midnightblue" stroke="midnightblue" points="1615.17,-205.22 1604.7,-203.57 1611.86,-211.38 1615.17,-205.22"/>
</g>
<!-- Node4 -->
<g id="node5" class="node">
<title>Node4</title>
<g id="a_node5"><a xlink:href="classfiftyone_1_1pipeline_1_1core_1_1flowelements_1_1_flow_element_base.html" target="_top" xlink:title="Provides a base class from which authors may create new FlowElements.">
<polygon fill="none" stroke="black" points="1256.5,-151.46 1256.5,-203.46 1410.5,-203.46 1410.5,-151.46 1256.5,-151.46"/>
<text text-anchor="start" x="1264.5" y="-191.46" font-family="Helvetica,sans-Serif" font-size="10.00">fiftyone::pipeline</text>
<text text-anchor="start" x="1264.5" y="-180.46" font-family="Helvetica,sans-Serif" font-size="10.00">::core::flowelements</text>
<text text-anchor="start" x="1264.5" y="-169.46" font-family="Helvetica,sans-Serif" font-size="10.00">::FlowElementBase&lt; TData,</text>
<text text-anchor="middle" x="1333.5" y="-158.46" font-family="Helvetica,sans-Serif" font-size="10.00"> TProperty &gt;</text>
</a>
</g>
</g>
<!-- Node4&#45;&gt;Node3 -->
<g id="edge4" class="edge">
<title>Node4&#45;&gt;Node3</title>
<path fill="none" stroke="midnightblue" d="M1420.82,-177.46C1439.32,-177.46 1458.74,-177.46 1476.86,-177.46"/>
<polygon fill="midnightblue" stroke="midnightblue" points="1420.65,-173.96 1410.65,-177.46 1420.65,-180.96 1420.65,-173.96"/>
</g>
<!-- Node5 -->
<g id="node6" class="node">
<title>Node5</title>
<g id="a_node6"><a xlink:href="interfacefiftyone_1_1pipeline_1_1core_1_1flowelements_1_1_flow_element.html" target="_top" xlink:title=" ">
<polygon fill="none" stroke="black" points="866,-151.46 866,-181.46 1057,-181.46 1057,-151.46 866,-151.46"/>
<text text-anchor="start" x="874" y="-169.46" font-family="Helvetica,sans-Serif" font-size="10.00">fiftyone.pipeline.core.flowelements.</text>
<text text-anchor="middle" x="961.5" y="-158.46" font-family="Helvetica,sans-Serif" font-size="10.00">FlowElement&lt; TData, TProperty &gt;</text>
</a>
</g>
</g>
<!-- Node5&#45;&gt;Node4 -->
<g id="edge5" class="edge">
<title>Node5&#45;&gt;Node4</title>
<path fill="none" stroke="midnightblue" d="M1067.59,-169.58C1127.71,-171.37 1201.76,-173.57 1256.28,-175.19"/>
<polygon fill="midnightblue" stroke="midnightblue" points="1067.4,-166.07 1057.3,-169.27 1067.2,-173.07 1067.4,-166.07"/>
</g>
<!-- Node6 -->
<g id="node7" class="node">
<title>Node6</title>
<g id="a_node7"><a xlink:href="interfacefiftyone_1_1pipeline_1_1core_1_1flowelements_1_1_flow_element.html" target="_top" xlink:title="A component that processes a FlowData (by examining its evidence, or by examining data processed by o...">
<polygon fill="none" stroke="black" points="441,-171.96 441,-212.96 694,-212.96 694,-171.96 441,-171.96"/>
<text text-anchor="start" x="449" y="-200.96" font-family="Helvetica,sans-Serif" font-size="10.00">fiftyone.pipeline.core.flowelements.</text>
<text text-anchor="start" x="449" y="-189.96" font-family="Helvetica,sans-Serif" font-size="10.00">FlowElement&lt; TData extends ElementData,</text>
<text text-anchor="middle" x="567.5" y="-178.96" font-family="Helvetica,sans-Serif" font-size="10.00"> TProperty extends ElementPropertyMetaData &gt;</text>
</a>
</g>
</g>
<!-- Node6&#45;&gt;Node5 -->
<g id="edge6" class="edge">
<title>Node6&#45;&gt;Node5</title>
<path fill="none" stroke="orange" stroke-dasharray="5,2" d="M704.22,-176.08C706.83,-175.86 709.43,-175.65 712,-175.46 762.79,-171.53 819.56,-169.32 866,-168.06"/>
<polygon fill="orange" stroke="orange" points="703.7,-172.62 694.05,-176.98 704.32,-179.59 703.7,-172.62"/>
<text text-anchor="middle" x="766.5" y="-178.46" font-family="Helvetica,sans-Serif" font-size="10.00"> &lt; TData, TProperty &gt;</text>
</g>
<!-- Node7 -->
<g id="node8" class="node">
<title>Node7</title>
<g id="a_node8"><a xlink:title=" ">
<polygon fill="none" stroke="#bfbfbf" points="237,-163.96 237,-182.96 324,-182.96 324,-163.96 237,-163.96"/>
<text text-anchor="middle" x="280.5" y="-170.96" font-family="Helvetica,sans-Serif" font-size="10.00">AutoCloseable</text>
</a>
</g>
</g>
<!-- Node7&#45;&gt;Node6 -->
<g id="edge7" class="edge">
<title>Node7&#45;&gt;Node6</title>
<path fill="none" stroke="midnightblue" d="M334.43,-178.42C346.76,-179.5 359.83,-180.57 372,-181.46 394.26,-183.07 417.98,-184.58 440.91,-185.94"/>
<polygon fill="midnightblue" stroke="midnightblue" points="334.56,-174.92 324.29,-177.52 333.94,-181.89 334.56,-174.92"/>
</g>
<!-- Node13 -->
<g id="node14" class="node">
<title>Node13</title>
<g id="a_node14"><a xlink:href="interfacefiftyone_1_1pipeline_1_1core_1_1flowelements_1_1_flow_element.html" target="_top" xlink:title="A component that processes a FlowData (by examining its evidence, or by examining data processed by o...">
<polygon fill="none" stroke="black" points="502.5,-100.46 502.5,-152.46 632.5,-152.46 632.5,-100.46 502.5,-100.46"/>
<text text-anchor="start" x="510.5" y="-140.46" font-family="Helvetica,sans-Serif" font-size="10.00">fiftyone::pipeline</text>
<text text-anchor="start" x="510.5" y="-129.46" font-family="Helvetica,sans-Serif" font-size="10.00">::core::flowelements</text>
<text text-anchor="start" x="510.5" y="-118.46" font-family="Helvetica,sans-Serif" font-size="10.00">::FlowElement&lt; TData,</text>
<text text-anchor="middle" x="567.5" y="-107.46" font-family="Helvetica,sans-Serif" font-size="10.00"> TProperty &gt;</text>
</a>
</g>
</g>
<!-- Node7&#45;&gt;Node13 -->
<g id="edge16" class="edge">
<title>Node7&#45;&gt;Node13</title>
<path fill="none" stroke="midnightblue" d="M324.75,-161.28C339.64,-157.41 356.47,-153.38 372,-150.46 415.13,-142.35 464.19,-136.32 502.24,-132.33"/>
<polygon fill="midnightblue" stroke="midnightblue" points="323.57,-157.98 314.8,-163.92 325.36,-164.74 323.57,-157.98"/>
</g>
<!-- Node8 -->
<g id="node9" class="node">
<title>Node8</title>
<g id="a_node9"><a xlink:href="interfacefiftyone_1_1pipeline_1_1core_1_1data_1_1_element_data.html" target="_top" xlink:title="Represents property values that have be determined by a specific FlowElement based on the supplied ev...">
<polygon fill="none" stroke="black" points="207,-226.46 207,-256.46 354,-256.46 354,-226.46 207,-226.46"/>
<text text-anchor="start" x="215" y="-244.46" font-family="Helvetica,sans-Serif" font-size="10.00">fiftyone.pipeline.core.data.</text>
<text text-anchor="middle" x="280.5" y="-233.46" font-family="Helvetica,sans-Serif" font-size="10.00">ElementData</text>
</a>
</g>
</g>
<!-- Node8&#45;&gt;Node4 -->
<g id="edge11" class="edge">
<title>Node8&#45;&gt;Node4</title>
<path fill="none" stroke="orange" stroke-dasharray="5,2" d="M364.47,-241.69C383.69,-241.52 404.06,-241.15 423,-240.46 543.63,-236.03 581.92,-267.29 694,-222.46 703.67,-218.59 702.29,-211.21 712,-207.46 750.59,-192.54 1042.67,-193.32 1084,-191.46 1140.45,-188.91 1154.58,-188.65 1211,-185.46 1225.67,-184.63 1241.33,-183.66 1256.36,-182.69"/>
<polygon fill="orange" stroke="orange" points="364.2,-238.19 354.23,-241.77 364.26,-245.19 364.2,-238.19"/>
<text text-anchor="middle" x="766.5" y="-210.46" font-family="Helvetica,sans-Serif" font-size="10.00"> TData</text>
</g>
<!-- Node8&#45;&gt;Node6 -->
<g id="edge8" class="edge">
<title>Node8&#45;&gt;Node6</title>
<path fill="none" stroke="orange" stroke-dasharray="5,2" d="M364.29,-227.22C390.19,-222.77 419.3,-217.76 447.2,-212.97"/>
<polygon fill="orange" stroke="orange" points="363.42,-223.82 354.15,-228.96 364.6,-230.72 363.42,-223.82"/>
<text text-anchor="middle" x="397.5" y="-228.46" font-family="Helvetica,sans-Serif" font-size="10.00"> TData</text>
</g>
<!-- Node8&#45;&gt;Node13 -->
<g id="edge17" class="edge">
<title>Node8&#45;&gt;Node13</title>
<path fill="none" stroke="orange" stroke-dasharray="5,2" d="M317.12,-221.49C348.9,-204.24 397.07,-179.47 441,-162.46 460.55,-154.88 482.36,-148.08 502.24,-142.48"/>
<polygon fill="orange" stroke="orange" points="315.3,-218.5 308.2,-226.36 318.66,-224.64 315.3,-218.5"/>
<text text-anchor="middle" x="397.5" y="-194.46" font-family="Helvetica,sans-Serif" font-size="10.00"> TData</text>
</g>
<!-- Node14 -->
<g id="node15" class="node">
<title>Node14</title>
<g id="a_node15"><a xlink:href="interfacefiftyone_1_1pipeline_1_1engines_1_1data_1_1_aspect_data.html" target="_top" xlink:title="Represents a specialized ElementData instance that is generated by an AspectEngine.">
<polygon fill="none" stroke="black" points="485.5,-270.46 485.5,-300.46 649.5,-300.46 649.5,-270.46 485.5,-270.46"/>
<text text-anchor="start" x="493.5" y="-288.46" font-family="Helvetica,sans-Serif" font-size="10.00">fiftyone.pipeline.engines.data.</text>
<text text-anchor="middle" x="567.5" y="-277.46" font-family="Helvetica,sans-Serif" font-size="10.00">AspectData</text>
</a>
</g>
</g>
<!-- Node8&#45;&gt;Node14 -->
<g id="edge20" class="edge">
<title>Node8&#45;&gt;Node14</title>
<path fill="none" stroke="midnightblue" d="M335.51,-259.51C347.42,-262.95 360.05,-266.18 372,-268.46 408.79,-275.48 450.06,-279.6 485.08,-282.03"/>
<polygon fill="midnightblue" stroke="midnightblue" points="336.29,-256.09 325.71,-256.6 334.29,-262.8 336.29,-256.09"/>
</g>
<!-- Node9 -->
<g id="node10" class="node">
<title>Node9</title>
<g id="a_node10"><a xlink:href="interfacefiftyone_1_1pipeline_1_1core_1_1data_1_1_data.html" target="_top" xlink:title="Represents a collection of property values.">
<polygon fill="none" stroke="black" points="0,-231.96 0,-250.96 170,-250.96 170,-231.96 0,-231.96"/>
<text text-anchor="middle" x="85" y="-238.96" font-family="Helvetica,sans-Serif" font-size="10.00">fiftyone.pipeline.core.data.Data</text>
</a>
</g>
</g>
<!-- Node9&#45;&gt;Node8 -->
<g id="edge9" class="edge">
<title>Node9&#45;&gt;Node8</title>
<path fill="none" stroke="midnightblue" d="M180.11,-241.46C189.07,-241.46 198.06,-241.46 206.77,-241.46"/>
<polygon fill="midnightblue" stroke="midnightblue" points="180.03,-237.96 170.03,-241.46 180.03,-244.96 180.03,-237.96"/>
</g>
<!-- Node10 -->
<g id="node11" class="node">
<title>Node10</title>
<g id="a_node11"><a xlink:href="interfacefiftyone_1_1pipeline_1_1core_1_1data_1_1_element_property_meta_data.html" target="_top" xlink:title="Defines details of a property that can be returned by a FlowElement.">
<polygon fill="none" stroke="black" points="207,-45.46 207,-75.46 354,-75.46 354,-45.46 207,-45.46"/>
<text text-anchor="start" x="215" y="-63.46" font-family="Helvetica,sans-Serif" font-size="10.00">fiftyone.pipeline.core.data.</text>
<text text-anchor="middle" x="280.5" y="-52.46" font-family="Helvetica,sans-Serif" font-size="10.00">ElementPropertyMetaData</text>
</a>
</g>
</g>
<!-- Node10&#45;&gt;Node4 -->
<g id="edge12" class="edge">
<title>Node10&#45;&gt;Node4</title>
<path fill="none" stroke="orange" stroke-dasharray="5,2" d="M364.5,-61.82C383.72,-62.4 404.08,-63.25 423,-64.46 718.21,-83.31 790.87,-102.65 1084,-142.46 1141.85,-150.31 1207.22,-159.53 1256.4,-166.54"/>
<polygon fill="orange" stroke="orange" points="364.35,-58.31 354.26,-61.52 364.15,-65.31 364.35,-58.31"/>
<text text-anchor="middle" x="766.5" y="-108.46" font-family="Helvetica,sans-Serif" font-size="10.00"> TProperty</text>
</g>
<!-- Node10&#45;&gt;Node6 -->
<g id="edge10" class="edge">
<title>Node10&#45;&gt;Node6</title>
<path fill="none" stroke="orange" stroke-dasharray="5,2" d="M308.47,-81.73C338.97,-104.81 390.95,-141.19 441,-162.46 449.25,-165.96 457.98,-169.1 466.85,-171.91"/>
<polygon fill="orange" stroke="orange" points="310.52,-78.9 300.45,-75.6 306.27,-84.46 310.52,-78.9"/>
<text text-anchor="middle" x="397.5" y="-156.46" font-family="Helvetica,sans-Serif" font-size="10.00"> TProperty</text>
</g>
<!-- Node10&#45;&gt;Node13 -->
<g id="edge18" class="edge">
<title>Node10&#45;&gt;Node13</title>
<path fill="none" stroke="orange" stroke-dasharray="5,2" d="M364.19,-66.85C383.65,-69.33 404.2,-72.75 423,-77.46 431.33,-79.54 432.93,-81.54 441,-84.46 460.88,-91.64 482.68,-99.09 502.45,-105.68"/>
<polygon fill="orange" stroke="orange" points="364.47,-63.36 354.12,-65.64 363.63,-70.31 364.47,-63.36"/>
<text text-anchor="middle" x="397.5" y="-80.46" font-family="Helvetica,sans-Serif" font-size="10.00"> TProperty</text>
</g>
<!-- Node15 -->
<g id="node16" class="node">
<title>Node15</title>
<g id="a_node16"><a xlink:href="interfacefiftyone_1_1pipeline_1_1engines_1_1data_1_1_aspect_property_meta_data.html" target="_top" xlink:title="Holds details about a property that can be returned by an AspectEngine.">
<polygon fill="none" stroke="black" points="485.5,-4.46 485.5,-34.46 649.5,-34.46 649.5,-4.46 485.5,-4.46"/>
<text text-anchor="start" x="493.5" y="-22.46" font-family="Helvetica,sans-Serif" font-size="10.00">fiftyone.pipeline.engines.data.</text>
<text text-anchor="middle" x="567.5" y="-11.46" font-family="Helvetica,sans-Serif" font-size="10.00">AspectPropertyMetaData</text>
</a>
</g>
</g>
<!-- Node10&#45;&gt;Node15 -->
<g id="edge22" class="edge">
<title>Node10&#45;&gt;Node15</title>
<path fill="none" stroke="midnightblue" d="M332.44,-42.42C345.21,-38.53 358.99,-34.87 372,-32.46 408.77,-25.64 450.03,-22.28 485.06,-20.67"/>
<polygon fill="midnightblue" stroke="midnightblue" points="331.38,-39.08 322.89,-45.42 333.48,-45.76 331.38,-39.08"/>
</g>
<!-- Node11 -->
<g id="node12" class="node">
<title>Node11</title>
<g id="a_node12"><a xlink:href="interfacefiftyone_1_1pipeline_1_1engines_1_1flowelements_1_1_aspect_engine.html" target="_top" xlink:title=" ">
<polygon fill="none" stroke="black" points="1229,-62.46 1229,-92.46 1438,-92.46 1438,-62.46 1229,-62.46"/>
<text text-anchor="start" x="1237" y="-80.46" font-family="Helvetica,sans-Serif" font-size="10.00">fiftyone.pipeline.engines.flowelements.</text>
<text text-anchor="middle" x="1333.5" y="-69.46" font-family="Helvetica,sans-Serif" font-size="10.00">AspectEngine&lt; TData, TProperty &gt;</text>
</a>
</g>
</g>
<!-- Node11&#45;&gt;Node3 -->
<g id="edge13" class="edge">
<title>Node11&#45;&gt;Node3</title>
<path fill="none" stroke="midnightblue" d="M1403.46,-95.53C1415.17,-99.32 1427.06,-103.65 1438,-108.46 1465.03,-120.33 1493.56,-137.23 1515.55,-151.33"/>
<polygon fill="midnightblue" stroke="midnightblue" points="1404.29,-92.12 1393.7,-92.46 1402.19,-98.8 1404.29,-92.12"/>
</g>
<!-- Node16 -->
<g id="node17" class="node">
<title>Node16</title>
<g id="a_node17"><a xlink:href="interfacefiftyone_1_1pipeline_1_1engines_1_1flowelements_1_1_cloud_aspect_engine.html" target="_top" xlink:title="Aspect engine interface which is specific to a cloud engine.">
<polygon fill="none" stroke="black" points="1475,-64.46 1475,-116.46 1635,-116.46 1635,-64.46 1475,-64.46"/>
<text text-anchor="start" x="1483" y="-104.46" font-family="Helvetica,sans-Serif" font-size="10.00">fiftyone::pipeline</text>
<text text-anchor="start" x="1483" y="-93.46" font-family="Helvetica,sans-Serif" font-size="10.00">::engines::flowelements</text>
<text text-anchor="start" x="1483" y="-82.46" font-family="Helvetica,sans-Serif" font-size="10.00">::CloudAspectEngine&lt; TData,</text>
<text text-anchor="middle" x="1555" y="-71.46" font-family="Helvetica,sans-Serif" font-size="10.00"> AspectPropertyMetaData &gt;</text>
</a>
</g>
</g>
<!-- Node11&#45;&gt;Node16 -->
<g id="edge26" class="edge">
<title>Node11&#45;&gt;Node16</title>
<path fill="none" stroke="midnightblue" d="M1448.26,-84.19C1457.22,-84.72 1466.14,-85.25 1474.79,-85.77"/>
<polygon fill="midnightblue" stroke="midnightblue" points="1448.33,-80.69 1438.14,-83.59 1447.92,-87.68 1448.33,-80.69"/>
</g>
<!-- Node12 -->
<g id="node13" class="node">
<title>Node12</title>
<g id="a_node13"><a xlink:href="interfacefiftyone_1_1pipeline_1_1engines_1_1flowelements_1_1_aspect_engine.html" target="_top" xlink:title="AspectEngines are a subset of FlowElements.">
<polygon fill="none" stroke="black" points="839,-52.96 839,-93.96 1084,-93.96 1084,-52.96 839,-52.96"/>
<text text-anchor="start" x="847" y="-81.96" font-family="Helvetica,sans-Serif" font-size="10.00">fiftyone.pipeline.engines.flowelements.</text>
<text text-anchor="start" x="847" y="-70.96" font-family="Helvetica,sans-Serif" font-size="10.00">AspectEngine&lt; TData extends AspectData,</text>
<text text-anchor="middle" x="961.5" y="-59.96" font-family="Helvetica,sans-Serif" font-size="10.00"> TProperty extends AspectPropertyMetaData &gt;</text>
</a>
</g>
</g>
<!-- Node12&#45;&gt;Node11 -->
<g id="edge14" class="edge">
<title>Node12&#45;&gt;Node11</title>
<path fill="none" stroke="orange" stroke-dasharray="5,2" d="M1094.22,-63.37C1131.95,-61.78 1173.11,-61.28 1211,-63.46 1216.83,-63.79 1222.81,-64.22 1228.84,-64.71"/>
<polygon fill="orange" stroke="orange" points="1094.03,-59.87 1084.19,-63.82 1094.34,-66.87 1094.03,-59.87"/>
<text text-anchor="middle" x="1156.5" y="-66.46" font-family="Helvetica,sans-Serif" font-size="10.00"> &lt; TData, TProperty &gt;</text>
</g>
<!-- Node13&#45;&gt;Node12 -->
<g id="edge15" class="edge">
<title>Node13&#45;&gt;Node12</title>
<path fill="none" stroke="midnightblue" d="M642.89,-125.56C693.41,-124.03 761.58,-120.12 821,-110.46 844.99,-106.55 870.83,-100.3 893.67,-94.03"/>
<polygon fill="midnightblue" stroke="midnightblue" points="642.61,-122.07 632.71,-125.85 642.8,-129.07 642.61,-122.07"/>
</g>
<!-- Node14&#45;&gt;Node0 -->
<g id="edge30" class="edge">
<title>Node14&#45;&gt;Node0</title>
<path fill="none" stroke="orange" stroke-dasharray="5,2" d="M619.18,-303.71C693.16,-328.69 835.54,-370.46 960.5,-370.46 960.5,-370.46 960.5,-370.46 2163,-370.46 2218.41,-370.46 2279.4,-366.7 2331.91,-362.3"/>
<polygon fill="orange" stroke="orange" points="620.23,-300.37 609.63,-300.46 617.97,-307 620.23,-300.37"/>
<text text-anchor="middle" x="1555" y="-373.46" font-family="Helvetica,sans-Serif" font-size="10.00"> TProfile</text>
</g>
<!-- Node14&#45;&gt;Node2 -->
<g id="edge29" class="edge">
<title>Node14&#45;&gt;Node2</title>
<path fill="none" stroke="orange" stroke-dasharray="5,2" d="M659.68,-299.69C738.97,-310.84 857.04,-324.46 960.5,-324.46 960.5,-324.46 960.5,-324.46 1556,-324.46 1593.63,-324.46 1634.41,-322.83 1671.83,-320.69"/>
<polygon fill="orange" stroke="orange" points="660.12,-296.22 649.72,-298.28 659.13,-303.15 660.12,-296.22"/>
<text text-anchor="middle" x="1333.5" y="-327.46" font-family="Helvetica,sans-Serif" font-size="10.00"> TData</text>
</g>
<!-- Node14&#45;&gt;Node3 -->
<g id="edge23" class="edge">
<title>Node14&#45;&gt;Node3</title>
<path fill="none" stroke="orange" stroke-dasharray="5,2" d="M659.6,-283.78C707.62,-282.78 767.51,-281.33 821,-279.46 1095.38,-269.87 1176.06,-331.68 1438,-249.46 1468.76,-239.8 1499.57,-220.09 1521.7,-203.72"/>
<polygon fill="orange" stroke="orange" points="659.46,-280.28 649.54,-283.99 659.61,-287.28 659.46,-280.28"/>
<text text-anchor="middle" x="1156.5" y="-295.46" font-family="Helvetica,sans-Serif" font-size="10.00"> TData</text>
</g>
<!-- Node14&#45;&gt;Node12 -->
<g id="edge19" class="edge">
<title>Node14&#45;&gt;Node12</title>
<path fill="none" stroke="orange" stroke-dasharray="5,2" d="M626.14,-267.49C652.23,-259.64 683.54,-250.61 712,-243.46 760.02,-231.38 785.66,-255.13 821,-220.46 846.39,-195.54 817.74,-170.98 839,-142.46 855.09,-120.87 880.07,-105.03 903.21,-94.01"/>
<polygon fill="orange" stroke="orange" points="624.97,-264.19 616.41,-270.43 626.99,-270.89 624.97,-264.19"/>
<text text-anchor="middle" x="766.5" y="-246.46" font-family="Helvetica,sans-Serif" font-size="10.00"> TData</text>
</g>
<!-- Node14&#45;&gt;Node16 -->
<g id="edge27" class="edge">
<title>Node14&#45;&gt;Node16</title>
<path fill="none" stroke="orange" stroke-dasharray="5,2" d="M659.88,-280.26C876.58,-267.63 1405.94,-234.76 1438,-213.46 1467.64,-193.76 1451.15,-168.86 1475,-142.46 1483.8,-132.71 1494.82,-123.97 1505.81,-116.57"/>
<polygon fill="orange" stroke="orange" points="659.58,-276.77 649.8,-280.85 659.99,-283.76 659.58,-276.77"/>
<text text-anchor="middle" x="1156.5" y="-253.46" font-family="Helvetica,sans-Serif" font-size="10.00"> TData</text>
</g>
<!-- Node15&#45;&gt;Node3 -->
<g id="edge24" class="edge">
<title>Node15&#45;&gt;Node3</title>
<path fill="none" stroke="orange" stroke-dasharray="5,2" d="M659.76,-19.01C798.15,-19.03 1048.79,-22.08 1084,-43.46 1097.62,-51.72 1089.1,-65.11 1102,-74.46 1148.73,-108.32 1172.46,-89.9 1229,-101.46 1321.74,-120.41 1346.13,-119.65 1438,-142.46 1450.66,-145.6 1463.99,-149.27 1476.92,-153.04"/>
<polygon fill="orange" stroke="orange" points="659.59,-15.51 649.59,-19.01 659.59,-22.51 659.59,-15.51"/>
<text text-anchor="middle" x="1156.5" y="-102.46" font-family="Helvetica,sans-Serif" font-size="10.00"> TProperty</text>
</g>
<!-- Node15&#45;&gt;Node12 -->
<g id="edge21" class="edge">
<title>Node15&#45;&gt;Node12</title>
<path fill="none" stroke="orange" stroke-dasharray="5,2" d="M659.84,-32.04C713.12,-39.38 781.01,-48.73 838.79,-56.69"/>
<polygon fill="orange" stroke="orange" points="660.11,-28.54 649.72,-30.64 659.15,-35.48 660.11,-28.54"/>
<text text-anchor="middle" x="766.5" y="-56.46" font-family="Helvetica,sans-Serif" font-size="10.00"> TProperty</text>
</g>
<!-- Node15&#45;&gt;Node16 -->
<g id="edge28" class="edge">
<title>Node15&#45;&gt;Node16</title>
<path fill="none" stroke="orange" stroke-dasharray="5,2" d="M659.78,-12.87C677.11,-11.86 695.11,-10.99 712,-10.46 1035.05,-0.34 1122.4,17.23 1438,-52.46 1452.38,-55.63 1467.5,-59.88 1481.91,-64.39"/>
<polygon fill="orange" stroke="orange" points="659.43,-9.39 649.66,-13.48 659.85,-16.37 659.43,-9.39"/>
<text text-anchor="middle" x="1156.5" y="-14.46" font-family="Helvetica,sans-Serif" font-size="10.00"> TProperty</text>
</g>
<!-- Node16&#45;&gt;Node2 -->
<g id="edge25" class="edge">
<title>Node16&#45;&gt;Node2</title>
<path fill="none" stroke="midnightblue" d="M1607.48,-122.19C1616.88,-128.57 1626.41,-135.48 1635,-142.46 1694.24,-190.59 1755.87,-256.6 1785.68,-289.72"/>
<polygon fill="midnightblue" stroke="midnightblue" points="1609.18,-119.11 1598.92,-116.48 1605.3,-124.94 1609.18,-119.11"/>
</g>
</g>
</svg>
