<?xml version="1.0" encoding="UTF-8" standalone="no"?>
<!DOCTYPE svg PUBLIC "-//W3C//DTD SVG 1.1//EN"
 "http://www.w3.org/Graphics/SVG/1.1/DTD/svg11.dtd">
<!-- Generated by graphviz version 2.43.0 (0)
 -->
<!-- Title: fiftyone.pipeline.web.mvc.services.FiftyOneJSService.Default Pages: 1 -->
<svg width="775pt" height="90pt"
 viewBox="0.00 0.00 775.00 90.00" xmlns="http://www.w3.org/2000/svg" xmlns:xlink="http://www.w3.org/1999/xlink">
<g id="graph0" class="graph" transform="scale(1 1) rotate(0) translate(4 86)">
<title>fiftyone.pipeline.web.mvc.services.FiftyOneJSService.Default</title>
<!-- Node4 -->
<g id="node1" class="node">
<title>Node4</title>
<g id="a_node1"><a xlink:title=" ">
<polygon fill="#bfbfbf" stroke="black" points="578,-26.5 578,-56.5 767,-56.5 767,-26.5 578,-26.5"/>
<text text-anchor="start" x="586" y="-44.5" font-family="Helvetica,sans-Serif" font-size="10.00">fiftyone.pipeline.web.mvc.services.</text>
<text text-anchor="middle" x="672.5" y="-33.5" font-family="Helvetica,sans-Serif" font-size="10.00">FiftyOneJSService.Default</text>
</a>
</g>
</g>
<!-- Node5 -->
<g id="node2" class="node">
<title>Node5</title>
<g id="a_node2"><a xlink:href="classfiftyone_1_1pipeline_1_1web_1_1services_1_1_fifty_one_j_s_service_core_1_1_default.html" target="_top" xlink:title="Default implementation of the FiftyOneJSServiceCore service.">
<polygon fill="none" stroke="black" points="364,-2.5 364,-32.5 529,-32.5 529,-2.5 364,-2.5"/>
<text text-anchor="start" x="372" y="-20.5" font-family="Helvetica,sans-Serif" font-size="10.00">fiftyone.pipeline.web.services.</text>
<text text-anchor="middle" x="446.5" y="-9.5" font-family="Helvetica,sans-Serif" font-size="10.00">FiftyOneJSServiceCore.Default</text>
</a>
</g>
</g>
<!-- Node5&#45;&gt;Node4 -->
<g id="edge1" class="edge">
<title>Node5&#45;&gt;Node4</title>
<path fill="none" stroke="midnightblue" d="M539.16,-27.32C551.94,-28.69 565.09,-30.1 577.9,-31.47"/>
<polygon fill="midnightblue" stroke="midnightblue" points="539.32,-23.82 529,-26.23 538.57,-30.78 539.32,-23.82"/>
</g>
<!-- Node6 -->
<g id="node3" class="node">
<title>Node6</title>
<g id="a_node3"><a xlink:href="interfacefiftyone_1_1pipeline_1_1web_1_1services_1_1_fifty_one_j_s_service_core.html" target="_top" xlink:title="Service that provides the 51Degrees javascript when requested.">
<polygon fill="none" stroke="black" points="0,-50.5 0,-80.5 165,-80.5 165,-50.5 0,-50.5"/>
<text text-anchor="start" x="8" y="-68.5" font-family="Helvetica,sans-Serif" font-size="10.00">fiftyone.pipeline.web.services.</text>
<text text-anchor="middle" x="82.5" y="-57.5" font-family="Helvetica,sans-Serif" font-size="10.00">FiftyOneJSServiceCore</text>
</a>
</g>
</g>
<!-- Node6&#45;&gt;Node5 -->
<g id="edge2" class="edge">
<title>Node6&#45;&gt;Node5</title>
<path fill="none" stroke="midnightblue" d="M175.46,-53.31C233.51,-45.61 307.82,-35.76 363.79,-28.33"/>
<polygon fill="midnightblue" stroke="midnightblue" points="174.64,-49.88 165.19,-54.67 175.56,-56.82 174.64,-49.88"/>
</g>
<!-- Node8 -->
<g id="node5" class="node">
<title>Node8</title>
<g id="a_node5"><a xlink:href="interfacefiftyone_1_1pipeline_1_1web_1_1mvc_1_1services_1_1_fifty_one_j_s_service.html" target="_top" xlink:title="Spring framework service for the FiftyOneJSServiceCore.">
<polygon fill="none" stroke="black" points="352,-51.5 352,-81.5 541,-81.5 541,-51.5 352,-51.5"/>
<text text-anchor="start" x="360" y="-69.5" font-family="Helvetica,sans-Serif" font-size="10.00">fiftyone.pipeline.web.mvc.services.</text>
<text text-anchor="middle" x="446.5" y="-58.5" font-family="Helvetica,sans-Serif" font-size="10.00">FiftyOneJSService</text>
</a>
</g>
</g>
<!-- Node6&#45;&gt;Node8 -->
<g id="edge5" class="edge">
<title>Node6&#45;&gt;Node8</title>
<path fill="none" stroke="midnightblue" d="M175.46,-65.75C229.5,-65.9 297.65,-66.09 351.97,-66.24"/>
<polygon fill="midnightblue" stroke="midnightblue" points="175.2,-62.25 165.19,-65.73 175.18,-69.25 175.2,-62.25"/>
</g>
<!-- Node7 -->
<g id="node4" class="node">
<title>Node7</title>
<g id="a_node4"><a xlink:href="interfacefiftyone_1_1pipeline_1_1web_1_1services_1_1_clientside_property_service_core.html" target="_top" xlink:title="Class that provides functionality for the &#39;Client side overrides&#39; feature.">
<polygon fill="none" stroke="black" points="0,-0.5 0,-30.5 165,-30.5 165,-0.5 0,-0.5"/>
<text text-anchor="start" x="8" y="-18.5" font-family="Helvetica,sans-Serif" font-size="10.00">fiftyone.pipeline.web.services.</text>
<text text-anchor="middle" x="82.5" y="-7.5" font-family="Helvetica,sans-Serif" font-size="10.00">ClientsidePropertyServiceCore</text>
</a>
</g>
</g>
<!-- Node7&#45;&gt;Node5 -->
<g id="edge3" class="edge">
<title>Node7&#45;&gt;Node5</title>
<path fill="none" stroke="#9a32cd" stroke-dasharray="5,2" d="M175.25,-15.76C222.65,-15.92 281.43,-16.16 334,-16.5 343.68,-16.56 353.83,-16.64 363.9,-16.72"/>
<polygon fill="#9a32cd" stroke="#9a32cd" points="175.02,-12.26 165.01,-15.72 175,-19.26 175.02,-12.26"/>
<text text-anchor="middle" x="258.5" y="-19.5" font-family="Helvetica,sans-Serif" font-size="10.00"> clientsidePropertyServiceCore</text>
</g>
<!-- Node8&#45;&gt;Node4 -->
<g id="edge4" class="edge">
<title>Node8&#45;&gt;Node4</title>
<path fill="none" stroke="midnightblue" d="M551.18,-54.93C560.07,-53.94 569.02,-52.94 577.82,-51.96"/>
<polygon fill="midnightblue" stroke="midnightblue" points="550.75,-51.45 541.2,-56.04 551.52,-58.41 550.75,-51.45"/>
</g>
</g>
</svg>
