<?xml version="1.0" encoding="UTF-8" standalone="no"?>
<!DOCTYPE svg PUBLIC "-//W3C//DTD SVG 1.1//EN"
 "http://www.w3.org/Graphics/SVG/1.1/DTD/svg11.dtd">
<!-- Generated by graphviz version 2.43.0 (0)
 -->
<!-- Title: fiftyone.pipeline.core.flowelements.FlowElementBase&lt; TData extends ElementData, TProperty extends ElementPropertyMetaData &gt; Pages: 1 -->
<svg width="2923pt" height="720pt"
 viewBox="0.00 0.00 2923.00 719.67" xmlns="http://www.w3.org/2000/svg" xmlns:xlink="http://www.w3.org/1999/xlink">
<g id="graph0" class="graph" transform="scale(1 1) rotate(0) translate(4 715.67)">
<title>fiftyone.pipeline.core.flowelements.FlowElementBase&lt; TData extends ElementData, TProperty extends ElementPropertyMetaData &gt;</title>
<!-- Node0 -->
<g id="node1" class="node">
<title>Node0</title>
<g id="a_node1"><a xlink:title="Provides a base class from which authors may create new FlowElements.">
<polygon fill="#bfbfbf" stroke="black" points="1067,-292.17 1067,-344.17 1258,-344.17 1258,-292.17 1067,-292.17"/>
<text text-anchor="start" x="1075" y="-332.17" font-family="Helvetica,sans-Serif" font-size="10.00">fiftyone.pipeline.core.flowelements.</text>
<text text-anchor="start" x="1075" y="-321.17" font-family="Helvetica,sans-Serif" font-size="10.00">FlowElementBase&lt; TData extends</text>
<text text-anchor="start" x="1075" y="-310.17" font-family="Helvetica,sans-Serif" font-size="10.00"> ElementData, TProperty extends</text>
<text text-anchor="middle" x="1162.5" y="-299.17" font-family="Helvetica,sans-Serif" font-size="10.00"> ElementPropertyMetaData &gt;</text>
</a>
</g>
</g>
<!-- Node7 -->
<g id="node8" class="node">
<title>Node7</title>
<g id="a_node8"><a xlink:href="classfiftyone_1_1pipeline_1_1engines_1_1fiftyone_1_1flowelements_1_1_sequence_element.html" target="_top" xlink:title="Sequence element establishes session and sequence evidence in the pipeline.">
<polygon fill="none" stroke="black" points="1467.5,-659.17 1467.5,-711.17 1706.5,-711.17 1706.5,-659.17 1467.5,-659.17"/>
<text text-anchor="start" x="1475.5" y="-699.17" font-family="Helvetica,sans-Serif" font-size="10.00">fiftyone::pipeline</text>
<text text-anchor="start" x="1475.5" y="-688.17" font-family="Helvetica,sans-Serif" font-size="10.00">::engines::fiftyone</text>
<text text-anchor="start" x="1475.5" y="-677.17" font-family="Helvetica,sans-Serif" font-size="10.00">::flowelements::SequenceElement</text>
<text text-anchor="middle" x="1587" y="-666.17" font-family="Helvetica,sans-Serif" font-size="10.00">&lt; ElementData, ElementPropertyMetaData &gt;</text>
</a>
</g>
</g>
<!-- Node0&#45;&gt;Node7 -->
<g id="edge9" class="edge">
<title>Node0&#45;&gt;Node7</title>
<path fill="none" stroke="midnightblue" d="M1175.47,-354C1192.2,-399.95 1226.23,-480.13 1276,-534.17 1341.49,-605.29 1371.6,-611.04 1460,-650.17 1467.27,-653.39 1474.9,-656.38 1482.67,-659.15"/>
<polygon fill="midnightblue" stroke="midnightblue" points="1178.72,-352.7 1172.06,-344.46 1172.13,-355.06 1178.72,-352.7"/>
</g>
<!-- Node8 -->
<g id="node9" class="node">
<title>Node8</title>
<g id="a_node9"><a xlink:href="classfiftyone_1_1pipeline_1_1engines_1_1fiftyone_1_1flowelements_1_1_set_headers_element.html" target="_top" xlink:title="[class] [constructor]">
<polygon fill="none" stroke="black" points="1460,-588.17 1460,-640.17 1714,-640.17 1714,-588.17 1460,-588.17"/>
<text text-anchor="start" x="1468" y="-628.17" font-family="Helvetica,sans-Serif" font-size="10.00">fiftyone::pipeline</text>
<text text-anchor="start" x="1468" y="-617.17" font-family="Helvetica,sans-Serif" font-size="10.00">::engines::fiftyone</text>
<text text-anchor="start" x="1468" y="-606.17" font-family="Helvetica,sans-Serif" font-size="10.00">::flowelements::SetHeadersElement</text>
<text text-anchor="middle" x="1587" y="-595.17" font-family="Helvetica,sans-Serif" font-size="10.00">&lt; SetHeadersData, ElementPropertyMetaData &gt;</text>
</a>
</g>
</g>
<!-- Node0&#45;&gt;Node8 -->
<g id="edge10" class="edge">
<title>Node0&#45;&gt;Node8</title>
<path fill="none" stroke="midnightblue" d="M1183.71,-353.15C1204,-386.15 1237.68,-435.59 1276,-470.17 1346.56,-533.86 1372.56,-541.91 1460,-579.17 1467.52,-582.38 1475.41,-585.37 1483.43,-588.15"/>
<polygon fill="midnightblue" stroke="midnightblue" points="1186.52,-351.05 1178.35,-344.31 1180.54,-354.67 1186.52,-351.05"/>
</g>
<!-- Node9 -->
<g id="node10" class="node">
<title>Node9</title>
<g id="a_node10"><a xlink:href="classfiftyone_1_1pipeline_1_1engines_1_1fiftyone_1_1flowelements_1_1_share_usage_base.html" target="_top" xlink:title="Abstract base class for ShareUsage elements.">
<polygon fill="none" stroke="black" points="1467.5,-517.17 1467.5,-569.17 1706.5,-569.17 1706.5,-517.17 1467.5,-517.17"/>
<text text-anchor="start" x="1475.5" y="-557.17" font-family="Helvetica,sans-Serif" font-size="10.00">fiftyone::pipeline</text>
<text text-anchor="start" x="1475.5" y="-546.17" font-family="Helvetica,sans-Serif" font-size="10.00">::engines::fiftyone</text>
<text text-anchor="start" x="1475.5" y="-535.17" font-family="Helvetica,sans-Serif" font-size="10.00">::flowelements::ShareUsageBase</text>
<text text-anchor="middle" x="1587" y="-524.17" font-family="Helvetica,sans-Serif" font-size="10.00">&lt; ElementData, ElementPropertyMetaData &gt;</text>
</a>
</g>
</g>
<!-- Node0&#45;&gt;Node9 -->
<g id="edge11" class="edge">
<title>Node0&#45;&gt;Node9</title>
<path fill="none" stroke="midnightblue" d="M1198.86,-351.1C1220.28,-370.17 1248.66,-393.93 1276,-412.17 1352.72,-463.37 1374.2,-474.31 1460,-508.17 1468.02,-511.34 1476.44,-514.34 1484.96,-517.15"/>
<polygon fill="midnightblue" stroke="midnightblue" points="1201.07,-348.39 1191.3,-344.31 1196.4,-353.6 1201.07,-348.39"/>
</g>
<!-- Node11 -->
<g id="node12" class="node">
<title>Node11</title>
<g id="a_node12"><a xlink:href="classfiftyone_1_1pipeline_1_1engines_1_1flowelements_1_1_aspect_engine_base.html" target="_top" xlink:title="Base class for AspectEngines to extend.">
<polygon fill="none" stroke="black" points="1509,-446.17 1509,-498.17 1665,-498.17 1665,-446.17 1509,-446.17"/>
<text text-anchor="start" x="1517" y="-486.17" font-family="Helvetica,sans-Serif" font-size="10.00">fiftyone::pipeline</text>
<text text-anchor="start" x="1517" y="-475.17" font-family="Helvetica,sans-Serif" font-size="10.00">::engines::flowelements</text>
<text text-anchor="start" x="1517" y="-464.17" font-family="Helvetica,sans-Serif" font-size="10.00">::AspectEngineBase&lt; TData,</text>
<text text-anchor="middle" x="1587" y="-453.17" font-family="Helvetica,sans-Serif" font-size="10.00"> TProperty &gt;</text>
</a>
</g>
</g>
<!-- Node0&#45;&gt;Node11 -->
<g id="edge13" class="edge">
<title>Node0&#45;&gt;Node11</title>
<path fill="none" stroke="midnightblue" d="M1231.18,-348.33C1245.9,-354.7 1261.42,-361.27 1276,-367.17 1356.95,-399.95 1377.05,-408.82 1460,-436.17 1475.66,-441.34 1492.56,-446.47 1508.74,-451.16"/>
<polygon fill="midnightblue" stroke="midnightblue" points="1232.21,-344.96 1221.65,-344.18 1229.42,-351.38 1232.21,-344.96"/>
</g>
<!-- Node22 -->
<g id="node23" class="node">
<title>Node22</title>
<g id="a_node23"><a xlink:href="classfiftyone_1_1pipeline_1_1javascriptbuilder_1_1flowelements_1_1_java_script_builder_element.html" target="_top" xlink:title="[class]">
<polygon fill="none" stroke="black" points="1498,-363.67 1498,-426.67 1676,-426.67 1676,-363.67 1498,-363.67"/>
<text text-anchor="start" x="1506" y="-414.67" font-family="Helvetica,sans-Serif" font-size="10.00">fiftyone::pipeline</text>
<text text-anchor="start" x="1506" y="-403.67" font-family="Helvetica,sans-Serif" font-size="10.00">::javascriptbuilder</text>
<text text-anchor="start" x="1506" y="-392.67" font-family="Helvetica,sans-Serif" font-size="10.00">::flowelements::JavaScriptBuilder</text>
<text text-anchor="start" x="1506" y="-381.67" font-family="Helvetica,sans-Serif" font-size="10.00">Element&lt; JavaScriptBuilderData,</text>
<text text-anchor="middle" x="1587" y="-370.67" font-family="Helvetica,sans-Serif" font-size="10.00"> ElementPropertyMetaData &gt;</text>
</a>
</g>
</g>
<!-- Node0&#45;&gt;Node22 -->
<g id="edge24" class="edge">
<title>Node0&#45;&gt;Node22</title>
<path fill="none" stroke="midnightblue" d="M1268.31,-337.27C1338.93,-350.14 1431.04,-366.93 1497.88,-379.11"/>
<polygon fill="midnightblue" stroke="midnightblue" points="1268.52,-333.75 1258.05,-335.4 1267.26,-340.64 1268.52,-333.75"/>
</g>
<!-- Node23 -->
<g id="node24" class="node">
<title>Node23</title>
<g id="a_node24"><a xlink:href="classfiftyone_1_1pipeline_1_1jsonbuilder_1_1flowelements_1_1_json_builder_element.html" target="_top" xlink:title="[class] [constructor]">
<polygon fill="none" stroke="black" points="1493.5,-292.17 1493.5,-344.17 1680.5,-344.17 1680.5,-292.17 1493.5,-292.17"/>
<text text-anchor="start" x="1501.5" y="-332.17" font-family="Helvetica,sans-Serif" font-size="10.00">fiftyone::pipeline</text>
<text text-anchor="start" x="1501.5" y="-321.17" font-family="Helvetica,sans-Serif" font-size="10.00">::jsonbuilder::flowelements</text>
<text text-anchor="start" x="1501.5" y="-310.17" font-family="Helvetica,sans-Serif" font-size="10.00">::JsonBuilderElement&lt; JsonBuilder</text>
<text text-anchor="middle" x="1587" y="-299.17" font-family="Helvetica,sans-Serif" font-size="10.00">Data, ElementPropertyMetaData &gt;</text>
</a>
</g>
</g>
<!-- Node0&#45;&gt;Node23 -->
<g id="edge25" class="edge">
<title>Node0&#45;&gt;Node23</title>
<path fill="none" stroke="midnightblue" d="M1268.08,-318.17C1337.1,-318.17 1426.72,-318.17 1493.2,-318.17"/>
<polygon fill="midnightblue" stroke="midnightblue" points="1268.05,-314.67 1258.05,-318.17 1268.05,-321.67 1268.05,-314.67"/>
</g>
<!-- Node24 -->
<g id="node25" class="node">
<title>Node24</title>
<g id="a_node25"><a xlink:href="classfiftyone_1_1pipeline_1_1core_1_1flowelements_1_1_flow_element_base.html" target="_top" xlink:title=" ">
<polygon fill="none" stroke="black" points="1488,-231.67 1488,-272.67 1686,-272.67 1686,-231.67 1488,-231.67"/>
<text text-anchor="start" x="1496" y="-260.67" font-family="Helvetica,sans-Serif" font-size="10.00">fiftyone.pipeline.core.flowelements.</text>
<text text-anchor="start" x="1496" y="-249.67" font-family="Helvetica,sans-Serif" font-size="10.00">FlowElementBase&lt; SetHeadersData,</text>
<text text-anchor="middle" x="1587" y="-238.67" font-family="Helvetica,sans-Serif" font-size="10.00"> ElementPropertyMetaData &gt;</text>
</a>
</g>
</g>
<!-- Node0&#45;&gt;Node24 -->
<g id="edge26" class="edge">
<title>Node0&#45;&gt;Node24</title>
<path fill="none" stroke="orange" stroke-dasharray="5,2" d="M1268.28,-293.6C1270.88,-293.11 1273.45,-292.63 1276,-292.17 1346.5,-279.51 1426.72,-269.27 1487.89,-262.32"/>
<polygon fill="orange" stroke="orange" points="1267.33,-290.22 1258.19,-295.58 1268.68,-297.09 1267.33,-290.22"/>
<text text-anchor="start" x="1288.5" y="-306.17" font-family="Helvetica,sans-Serif" font-size="10.00"> &lt; SetHeadersData, Element</text>
<text text-anchor="middle" x="1359" y="-295.17" font-family="Helvetica,sans-Serif" font-size="10.00">PropertyMetaData &gt;</text>
</g>
<!-- Node25 -->
<g id="node26" class="node">
<title>Node25</title>
<g id="a_node26"><a xlink:href="classfiftyone_1_1pipeline_1_1core_1_1flowelements_1_1_flow_element_base.html" target="_top" xlink:title=" ">
<polygon fill="none" stroke="black" points="1474.5,-171.67 1474.5,-212.67 1699.5,-212.67 1699.5,-171.67 1474.5,-171.67"/>
<text text-anchor="start" x="1482.5" y="-200.67" font-family="Helvetica,sans-Serif" font-size="10.00">fiftyone.pipeline.core.flowelements.</text>
<text text-anchor="start" x="1482.5" y="-189.67" font-family="Helvetica,sans-Serif" font-size="10.00">FlowElementBase&lt; JavaScriptBuilderData,</text>
<text text-anchor="middle" x="1587" y="-178.67" font-family="Helvetica,sans-Serif" font-size="10.00"> ElementPropertyMetaData &gt;</text>
</a>
</g>
</g>
<!-- Node0&#45;&gt;Node25 -->
<g id="edge27" class="edge">
<title>Node0&#45;&gt;Node25</title>
<path fill="none" stroke="orange" stroke-dasharray="5,2" d="M1203.07,-285.73C1223.64,-270.5 1249.9,-253.46 1276,-243.17 1339.05,-218.32 1413.92,-205.57 1474.29,-199.04"/>
<polygon fill="orange" stroke="orange" points="1200.77,-283.08 1194.91,-291.9 1204.99,-288.66 1200.77,-283.08"/>
<text text-anchor="start" x="1286.5" y="-257.17" font-family="Helvetica,sans-Serif" font-size="10.00"> &lt; JavaScriptBuilderData,</text>
<text text-anchor="middle" x="1359" y="-246.17" font-family="Helvetica,sans-Serif" font-size="10.00"> ElementPropertyMetaData &gt;</text>
</g>
<!-- Node26 -->
<g id="node27" class="node">
<title>Node26</title>
<g id="a_node27"><a xlink:href="classfiftyone_1_1pipeline_1_1core_1_1flowelements_1_1_flow_element_base.html" target="_top" xlink:title=" ">
<polygon fill="none" stroke="black" points="1488.5,-111.67 1488.5,-152.67 1685.5,-152.67 1685.5,-111.67 1488.5,-111.67"/>
<text text-anchor="start" x="1496.5" y="-140.67" font-family="Helvetica,sans-Serif" font-size="10.00">fiftyone.pipeline.core.flowelements.</text>
<text text-anchor="start" x="1496.5" y="-129.67" font-family="Helvetica,sans-Serif" font-size="10.00">FlowElementBase&lt; JsonBuilderData,</text>
<text text-anchor="middle" x="1587" y="-118.67" font-family="Helvetica,sans-Serif" font-size="10.00"> ElementPropertyMetaData &gt;</text>
</a>
</g>
</g>
<!-- Node0&#45;&gt;Node26 -->
<g id="edge28" class="edge">
<title>Node0&#45;&gt;Node26</title>
<path fill="none" stroke="orange" stroke-dasharray="5,2" d="M1181.26,-283.2C1200.04,-250.09 1232.92,-201.88 1276,-177.17 1340.28,-140.31 1423.94,-129.94 1488.16,-128.3"/>
<polygon fill="orange" stroke="orange" points="1178.11,-281.66 1176.34,-292.1 1184.24,-285.04 1178.11,-281.66"/>
<text text-anchor="start" x="1286.5" y="-191.17" font-family="Helvetica,sans-Serif" font-size="10.00"> &lt; JsonBuilderData,</text>
<text text-anchor="middle" x="1359" y="-180.17" font-family="Helvetica,sans-Serif" font-size="10.00"> ElementPropertyMetaData &gt;</text>
</g>
<!-- Node27 -->
<g id="node28" class="node">
<title>Node27</title>
<g id="a_node28"><a xlink:href="classfiftyone_1_1pipeline_1_1core_1_1flowelements_1_1_flow_element_base.html" target="_top" xlink:title=" ">
<polygon fill="none" stroke="black" points="1491.5,-51.67 1491.5,-92.67 1682.5,-92.67 1682.5,-51.67 1491.5,-51.67"/>
<text text-anchor="start" x="1499.5" y="-80.67" font-family="Helvetica,sans-Serif" font-size="10.00">fiftyone.pipeline.core.flowelements.</text>
<text text-anchor="start" x="1499.5" y="-69.67" font-family="Helvetica,sans-Serif" font-size="10.00">FlowElementBase&lt; ElementData,</text>
<text text-anchor="middle" x="1587" y="-58.67" font-family="Helvetica,sans-Serif" font-size="10.00"> ElementPropertyMetaData &gt;</text>
</a>
</g>
</g>
<!-- Node0&#45;&gt;Node27 -->
<g id="edge29" class="edge">
<title>Node0&#45;&gt;Node27</title>
<path fill="none" stroke="orange" stroke-dasharray="5,2" d="M1171.51,-282.21C1184.42,-233.44 1214.84,-147.67 1276,-106.17 1338.73,-63.62 1425.56,-57.44 1491.37,-60.58"/>
<polygon fill="orange" stroke="orange" points="1168.08,-281.47 1169.01,-292.03 1174.87,-283.2 1168.08,-281.47"/>
<text text-anchor="start" x="1276" y="-120.17" font-family="Helvetica,sans-Serif" font-size="10.00"> &lt; ElementData, ElementProperty</text>
<text text-anchor="middle" x="1359" y="-109.17" font-family="Helvetica,sans-Serif" font-size="10.00">MetaData &gt;</text>
</g>
<!-- Node29 -->
<g id="node30" class="node">
<title>Node29</title>
<g id="a_node30"><a xlink:href="classfiftyone_1_1pipeline_1_1core_1_1flowelements_1_1_flow_element_base.html" target="_top" xlink:title=" ">
<polygon fill="none" stroke="black" points="1482.5,-2.17 1482.5,-32.17 1691.5,-32.17 1691.5,-2.17 1482.5,-2.17"/>
<text text-anchor="start" x="1490.5" y="-20.17" font-family="Helvetica,sans-Serif" font-size="10.00">fiftyone.pipeline.core.flowelements.</text>
<text text-anchor="middle" x="1587" y="-9.17" font-family="Helvetica,sans-Serif" font-size="10.00">FlowElementBase&lt; TData, TProperty &gt;</text>
</a>
</g>
</g>
<!-- Node0&#45;&gt;Node29 -->
<g id="edge31" class="edge">
<title>Node0&#45;&gt;Node29</title>
<path fill="none" stroke="orange" stroke-dasharray="5,2" d="M1166.88,-281.71C1174.59,-221.63 1199.21,-102.86 1276,-46.17 1337.64,-0.66 1426.07,3.34 1492.71,-2.15"/>
<polygon fill="orange" stroke="orange" points="1163.38,-281.52 1165.67,-291.87 1170.33,-282.35 1163.38,-281.52"/>
<text text-anchor="middle" x="1359" y="-49.17" font-family="Helvetica,sans-Serif" font-size="10.00"> &lt; TData, TProperty &gt;</text>
</g>
<!-- Node1 -->
<g id="node2" class="node">
<title>Node1</title>
<g id="a_node2"><a xlink:href="interfacefiftyone_1_1pipeline_1_1core_1_1flowelements_1_1_flow_element.html" target="_top" xlink:title=" ">
<polygon fill="none" stroke="black" points="839,-303.17 839,-333.17 1030,-333.17 1030,-303.17 839,-303.17"/>
<text text-anchor="start" x="847" y="-321.17" font-family="Helvetica,sans-Serif" font-size="10.00">fiftyone.pipeline.core.flowelements.</text>
<text text-anchor="middle" x="934.5" y="-310.17" font-family="Helvetica,sans-Serif" font-size="10.00">FlowElement&lt; TData, TProperty &gt;</text>
</a>
</g>
</g>
<!-- Node1&#45;&gt;Node0 -->
<g id="edge1" class="edge">
<title>Node1&#45;&gt;Node0</title>
<path fill="none" stroke="midnightblue" d="M1040.11,-318.17C1049.07,-318.17 1058.1,-318.17 1066.98,-318.17"/>
<polygon fill="midnightblue" stroke="midnightblue" points="1040.03,-314.67 1030.03,-318.17 1040.03,-321.67 1040.03,-314.67"/>
</g>
<!-- Node2 -->
<g id="node3" class="node">
<title>Node2</title>
<g id="a_node3"><a xlink:href="interfacefiftyone_1_1pipeline_1_1core_1_1flowelements_1_1_flow_element.html" target="_top" xlink:title="A component that processes a FlowData (by examining its evidence, or by examining data processed by o...">
<polygon fill="none" stroke="black" points="441,-297.67 441,-338.67 694,-338.67 694,-297.67 441,-297.67"/>
<text text-anchor="start" x="449" y="-326.67" font-family="Helvetica,sans-Serif" font-size="10.00">fiftyone.pipeline.core.flowelements.</text>
<text text-anchor="start" x="449" y="-315.67" font-family="Helvetica,sans-Serif" font-size="10.00">FlowElement&lt; TData extends ElementData,</text>
<text text-anchor="middle" x="567.5" y="-304.67" font-family="Helvetica,sans-Serif" font-size="10.00"> TProperty extends ElementPropertyMetaData &gt;</text>
</a>
</g>
</g>
<!-- Node2&#45;&gt;Node1 -->
<g id="edge2" class="edge">
<title>Node2&#45;&gt;Node1</title>
<path fill="none" stroke="orange" stroke-dasharray="5,2" d="M704.2,-318.17C748.97,-318.17 797.77,-318.17 838.8,-318.17"/>
<polygon fill="orange" stroke="orange" points="704.11,-314.67 694.11,-318.17 704.11,-321.67 704.11,-314.67"/>
<text text-anchor="middle" x="766.5" y="-321.17" font-family="Helvetica,sans-Serif" font-size="10.00"> &lt; TData, TProperty &gt;</text>
</g>
<!-- Node3 -->
<g id="node4" class="node">
<title>Node3</title>
<g id="a_node4"><a xlink:title=" ">
<polygon fill="none" stroke="#bfbfbf" points="237,-308.67 237,-327.67 324,-327.67 324,-308.67 237,-308.67"/>
<text text-anchor="middle" x="280.5" y="-315.67" font-family="Helvetica,sans-Serif" font-size="10.00">AutoCloseable</text>
</a>
</g>
</g>
<!-- Node3&#45;&gt;Node2 -->
<g id="edge3" class="edge">
<title>Node3&#45;&gt;Node2</title>
<path fill="none" stroke="midnightblue" d="M334.4,-318.17C364.44,-318.17 403.4,-318.17 440.81,-318.17"/>
<polygon fill="midnightblue" stroke="midnightblue" points="334.17,-314.67 324.17,-318.17 334.17,-321.67 334.17,-314.67"/>
</g>
<!-- Node4 -->
<g id="node5" class="node">
<title>Node4</title>
<g id="a_node5"><a xlink:href="interfacefiftyone_1_1pipeline_1_1core_1_1data_1_1_element_data.html" target="_top" xlink:title="Represents property values that have be determined by a specific FlowElement based on the supplied ev...">
<polygon fill="none" stroke="black" points="207,-354.17 207,-384.17 354,-384.17 354,-354.17 207,-354.17"/>
<text text-anchor="start" x="215" y="-372.17" font-family="Helvetica,sans-Serif" font-size="10.00">fiftyone.pipeline.core.data.</text>
<text text-anchor="middle" x="280.5" y="-361.17" font-family="Helvetica,sans-Serif" font-size="10.00">ElementData</text>
</a>
</g>
</g>
<!-- Node4&#45;&gt;Node0 -->
<g id="edge7" class="edge">
<title>Node4&#45;&gt;Node0</title>
<path fill="none" stroke="orange" stroke-dasharray="5,2" d="M364.12,-370.42C502.39,-371.59 789.21,-370.08 1030,-343.17 1042.01,-341.83 1054.57,-340 1066.95,-337.94"/>
<polygon fill="orange" stroke="orange" points="364.06,-366.92 354.02,-370.33 363.99,-373.92 364.06,-366.92"/>
<text text-anchor="middle" x="766.5" y="-368.17" font-family="Helvetica,sans-Serif" font-size="10.00"> TData</text>
</g>
<!-- Node4&#45;&gt;Node2 -->
<g id="edge4" class="edge">
<title>Node4&#45;&gt;Node2</title>
<path fill="none" stroke="orange" stroke-dasharray="5,2" d="M363.98,-353.63C366.68,-353.14 369.36,-352.65 372,-352.17 396.45,-347.74 422.66,-343.09 447.66,-338.7"/>
<polygon fill="orange" stroke="orange" points="363.3,-350.2 354.1,-355.45 364.57,-357.08 363.3,-350.2"/>
<text text-anchor="middle" x="397.5" y="-355.17" font-family="Helvetica,sans-Serif" font-size="10.00"> TData</text>
</g>
<!-- Node5 -->
<g id="node6" class="node">
<title>Node5</title>
<g id="a_node6"><a xlink:href="interfacefiftyone_1_1pipeline_1_1core_1_1data_1_1_data.html" target="_top" xlink:title="Represents a collection of property values.">
<polygon fill="none" stroke="black" points="0,-359.67 0,-378.67 170,-378.67 170,-359.67 0,-359.67"/>
<text text-anchor="middle" x="85" y="-366.67" font-family="Helvetica,sans-Serif" font-size="10.00">fiftyone.pipeline.core.data.Data</text>
</a>
</g>
</g>
<!-- Node5&#45;&gt;Node4 -->
<g id="edge5" class="edge">
<title>Node5&#45;&gt;Node4</title>
<path fill="none" stroke="midnightblue" d="M180.11,-369.17C189.07,-369.17 198.06,-369.17 206.77,-369.17"/>
<polygon fill="midnightblue" stroke="midnightblue" points="180.03,-365.67 170.03,-369.17 180.03,-372.67 180.03,-365.67"/>
</g>
<!-- Node6 -->
<g id="node7" class="node">
<title>Node6</title>
<g id="a_node7"><a xlink:href="interfacefiftyone_1_1pipeline_1_1core_1_1data_1_1_element_property_meta_data.html" target="_top" xlink:title="Defines details of a property that can be returned by a FlowElement.">
<polygon fill="none" stroke="black" points="207,-252.17 207,-282.17 354,-282.17 354,-252.17 207,-252.17"/>
<text text-anchor="start" x="215" y="-270.17" font-family="Helvetica,sans-Serif" font-size="10.00">fiftyone.pipeline.core.data.</text>
<text text-anchor="middle" x="280.5" y="-259.17" font-family="Helvetica,sans-Serif" font-size="10.00">ElementPropertyMetaData</text>
</a>
</g>
</g>
<!-- Node6&#45;&gt;Node0 -->
<g id="edge8" class="edge">
<title>Node6&#45;&gt;Node0</title>
<path fill="none" stroke="orange" stroke-dasharray="5,2" d="M364.1,-266.26C502.34,-265.62 789.12,-267.99 1030,-294.17 1042,-295.48 1054.55,-297.24 1066.93,-299.23"/>
<polygon fill="orange" stroke="orange" points="363.99,-262.77 354.01,-266.32 364.03,-269.77 363.99,-262.77"/>
<text text-anchor="middle" x="766.5" y="-280.17" font-family="Helvetica,sans-Serif" font-size="10.00"> TProperty</text>
</g>
<!-- Node6&#45;&gt;Node2 -->
<g id="edge6" class="edge">
<title>Node6&#45;&gt;Node2</title>
<path fill="none" stroke="orange" stroke-dasharray="5,2" d="M364.08,-281.95C391.48,-286.85 422.51,-292.41 451.88,-297.66"/>
<polygon fill="orange" stroke="orange" points="364.62,-278.49 354.15,-280.17 363.38,-285.38 364.62,-278.49"/>
<text text-anchor="middle" x="397.5" y="-294.17" font-family="Helvetica,sans-Serif" font-size="10.00"> TProperty</text>
</g>
<!-- Node10 -->
<g id="node11" class="node">
<title>Node10</title>
<g id="a_node11"><a xlink:href="classfiftyone_1_1pipeline_1_1engines_1_1fiftyone_1_1flowelements_1_1_share_usage_element.html" target="_top" xlink:title="Flow element that sends usage data to 51Degrees for analysis.">
<polygon fill="none" stroke="black" points="1899,-608.17 1899,-638.17 2147,-638.17 2147,-608.17 1899,-608.17"/>
<text text-anchor="start" x="1907" y="-626.17" font-family="Helvetica,sans-Serif" font-size="10.00">fiftyone.pipeline.engines.fiftyone.flowelements.</text>
<text text-anchor="middle" x="2023" y="-615.17" font-family="Helvetica,sans-Serif" font-size="10.00">ShareUsageElement</text>
</a>
</g>
</g>
<!-- Node9&#45;&gt;Node10 -->
<g id="edge12" class="edge">
<title>Node9&#45;&gt;Node10</title>
<path fill="none" stroke="midnightblue" d="M1701.78,-573.22C1705.96,-575.1 1710.05,-577.08 1714,-579.17 1723.21,-584.04 1722.4,-590.14 1732,-594.17 1784.02,-616 1845.74,-624.31 1898.84,-626.74"/>
<polygon fill="midnightblue" stroke="midnightblue" points="1703.07,-569.97 1692.5,-569.28 1700.33,-576.41 1703.07,-569.97"/>
</g>
<!-- Node12 -->
<g id="node13" class="node">
<title>Node12</title>
<g id="a_node13"><a xlink:href="classfiftyone_1_1pipeline_1_1cloudrequestengine_1_1flowelements_1_1_cloud_aspect_engine_base.html" target="_top" xlink:title="Base class for 51Degrees Cloud Aspect Engines.">
<polygon fill="none" stroke="black" points="1926,-415.67 1926,-478.67 2120,-478.67 2120,-415.67 1926,-415.67"/>
<text text-anchor="start" x="1934" y="-466.67" font-family="Helvetica,sans-Serif" font-size="10.00">fiftyone::pipeline</text>
<text text-anchor="start" x="1934" y="-455.67" font-family="Helvetica,sans-Serif" font-size="10.00">::cloudrequestengine</text>
<text text-anchor="start" x="1934" y="-444.67" font-family="Helvetica,sans-Serif" font-size="10.00">::flowelements::CloudAspect</text>
<text text-anchor="start" x="1934" y="-433.67" font-family="Helvetica,sans-Serif" font-size="10.00">EngineBase&lt; TData, AspectProperty</text>
<text text-anchor="middle" x="2023" y="-422.67" font-family="Helvetica,sans-Serif" font-size="10.00">MetaData &gt;</text>
</a>
</g>
</g>
<!-- Node11&#45;&gt;Node12 -->
<g id="edge14" class="edge">
<title>Node11&#45;&gt;Node12</title>
<path fill="none" stroke="midnightblue" d="M1675.12,-467.15C1747.7,-462.97 1850.93,-457.03 1925.9,-452.71"/>
<polygon fill="midnightblue" stroke="midnightblue" points="1674.87,-463.66 1665.09,-467.73 1675.28,-470.65 1674.87,-463.66"/>
</g>
<!-- Node15 -->
<g id="node16" class="node">
<title>Node15</title>
<g id="a_node16"><a xlink:href="classfiftyone_1_1pipeline_1_1cloudrequestengine_1_1flowelements_1_1_cloud_request_engine_default.html" target="_top" xlink:title="Engine that makes requests to the 51Degrees cloud service.">
<polygon fill="none" stroke="black" points="1927.5,-333.67 1927.5,-396.67 2118.5,-396.67 2118.5,-333.67 1927.5,-333.67"/>
<text text-anchor="start" x="1935.5" y="-384.67" font-family="Helvetica,sans-Serif" font-size="10.00">fiftyone::pipeline</text>
<text text-anchor="start" x="1935.5" y="-373.67" font-family="Helvetica,sans-Serif" font-size="10.00">::cloudrequestengine</text>
<text text-anchor="start" x="1935.5" y="-362.67" font-family="Helvetica,sans-Serif" font-size="10.00">::flowelements::CloudRequest</text>
<text text-anchor="start" x="1935.5" y="-351.67" font-family="Helvetica,sans-Serif" font-size="10.00">EngineDefault&lt; CloudRequestData,</text>
<text text-anchor="middle" x="2023" y="-340.67" font-family="Helvetica,sans-Serif" font-size="10.00"> AspectPropertyMetaData &gt;</text>
</a>
</g>
</g>
<!-- Node11&#45;&gt;Node15 -->
<g id="edge17" class="edge">
<title>Node11&#45;&gt;Node15</title>
<path fill="none" stroke="midnightblue" d="M1675.19,-450.68C1748.27,-432.66 1852.4,-406.99 1927.47,-388.48"/>
<polygon fill="midnightblue" stroke="midnightblue" points="1673.96,-447.37 1665.09,-453.17 1675.64,-454.17 1673.96,-447.37"/>
</g>
<!-- Node16 -->
<g id="node17" class="node">
<title>Node16</title>
<g id="a_node17"><a xlink:href="classfiftyone_1_1pipeline_1_1engines_1_1flowelements_1_1_aspect_engine_base.html" target="_top" xlink:title=" ">
<polygon fill="none" stroke="black" points="1917,-273.67 1917,-314.67 2129,-314.67 2129,-273.67 1917,-273.67"/>
<text text-anchor="start" x="1925" y="-302.67" font-family="Helvetica,sans-Serif" font-size="10.00">fiftyone.pipeline.engines.flowelements.</text>
<text text-anchor="start" x="1925" y="-291.67" font-family="Helvetica,sans-Serif" font-size="10.00">AspectEngineBase&lt; CloudRequestData,</text>
<text text-anchor="middle" x="2023" y="-280.67" font-family="Helvetica,sans-Serif" font-size="10.00"> AspectPropertyMetaData &gt;</text>
</a>
</g>
</g>
<!-- Node11&#45;&gt;Node16 -->
<g id="edge18" class="edge">
<title>Node11&#45;&gt;Node16</title>
<path fill="none" stroke="orange" stroke-dasharray="5,2" d="M1674.71,-459.85C1689.24,-454.51 1703.11,-446.92 1714,-436.17 1733.82,-416.62 1712.42,-395.96 1732,-376.17 1786.68,-320.92 1824.09,-344.95 1899,-324.17 1910.54,-320.97 1922.75,-317.77 1934.81,-314.72"/>
<polygon fill="orange" stroke="orange" points="1673.48,-456.57 1665.1,-463.05 1675.69,-463.21 1673.48,-456.57"/>
<text text-anchor="start" x="1738" y="-390.17" font-family="Helvetica,sans-Serif" font-size="10.00"> &lt; CloudRequestData,</text>
<text text-anchor="middle" x="1806.5" y="-379.17" font-family="Helvetica,sans-Serif" font-size="10.00"> AspectPropertyMetaData &gt;</text>
</g>
<!-- Node17 -->
<g id="node18" class="node">
<title>Node17</title>
<g id="a_node18"><a xlink:href="classfiftyone_1_1pipeline_1_1engines_1_1flowelements_1_1_aspect_engine_base.html" target="_top" xlink:title=" ">
<polygon fill="none" stroke="black" points="1909.5,-547.67 1909.5,-588.67 2136.5,-588.67 2136.5,-547.67 1909.5,-547.67"/>
<text text-anchor="start" x="1917.5" y="-576.67" font-family="Helvetica,sans-Serif" font-size="10.00">fiftyone.pipeline.engines.flowelements.</text>
<text text-anchor="start" x="1917.5" y="-565.67" font-family="Helvetica,sans-Serif" font-size="10.00">AspectEngineBase&lt; TData, AspectProperty</text>
<text text-anchor="middle" x="2023" y="-554.67" font-family="Helvetica,sans-Serif" font-size="10.00">MetaData &gt;</text>
</a>
</g>
</g>
<!-- Node11&#45;&gt;Node17 -->
<g id="edge19" class="edge">
<title>Node11&#45;&gt;Node17</title>
<path fill="none" stroke="orange" stroke-dasharray="5,2" d="M1674.8,-496.97C1704.26,-505.37 1730.29,-512.77 1732,-513.17 1790.1,-526.92 1855.37,-539.55 1909.26,-549.23"/>
<polygon fill="orange" stroke="orange" points="1675.71,-493.59 1665.13,-494.21 1673.79,-500.32 1675.71,-493.59"/>
<text text-anchor="start" x="1732" y="-556.17" font-family="Helvetica,sans-Serif" font-size="10.00"> &lt; TData, AspectPropertyMeta</text>
<text text-anchor="middle" x="1806.5" y="-545.17" font-family="Helvetica,sans-Serif" font-size="10.00">Data &gt;</text>
</g>
<!-- Node18 -->
<g id="node19" class="node">
<title>Node18</title>
<g id="a_node19"><a xlink:href="classfiftyone_1_1pipeline_1_1engines_1_1flowelements_1_1_aspect_engine_base.html" target="_top" xlink:title=" ">
<polygon fill="none" stroke="black" points="1917,-498.17 1917,-528.17 2129,-528.17 2129,-498.17 1917,-498.17"/>
<text text-anchor="start" x="1925" y="-516.17" font-family="Helvetica,sans-Serif" font-size="10.00">fiftyone.pipeline.engines.flowelements.</text>
<text text-anchor="middle" x="2023" y="-505.17" font-family="Helvetica,sans-Serif" font-size="10.00">AspectEngineBase&lt; TData, TProperty &gt;</text>
</a>
</g>
</g>
<!-- Node11&#45;&gt;Node18 -->
<g id="edge20" class="edge">
<title>Node11&#45;&gt;Node18</title>
<path fill="none" stroke="orange" stroke-dasharray="5,2" d="M1675.16,-480.41C1744.81,-486.99 1842.68,-496.23 1916.71,-503.23"/>
<polygon fill="orange" stroke="orange" points="1675.38,-476.91 1665.09,-479.46 1674.72,-483.88 1675.38,-476.91"/>
<text text-anchor="middle" x="1806.5" y="-501.17" font-family="Helvetica,sans-Serif" font-size="10.00"> &lt; TData, TProperty &gt;</text>
</g>
<!-- Node13 -->
<g id="node14" class="node">
<title>Node13</title>
<g id="a_node14"><a xlink:href="classfiftyone_1_1pipeline_1_1cloudrequestengine_1_1flowelements_1_1_cloud_aspect_engine_base.html" target="_top" xlink:title=" ">
<polygon fill="none" stroke="black" points="2238,-430.17 2238,-460.17 2504,-460.17 2504,-430.17 2238,-430.17"/>
<text text-anchor="start" x="2246" y="-448.17" font-family="Helvetica,sans-Serif" font-size="10.00">fiftyone.pipeline.cloudrequestengine.flowelements.</text>
<text text-anchor="middle" x="2371" y="-437.17" font-family="Helvetica,sans-Serif" font-size="10.00">CloudAspectEngineBase&lt; TData &gt;</text>
</a>
</g>
</g>
<!-- Node12&#45;&gt;Node13 -->
<g id="edge15" class="edge">
<title>Node12&#45;&gt;Node13</title>
<path fill="none" stroke="orange" stroke-dasharray="5,2" d="M2130.76,-446.56C2164.63,-446.36 2202.5,-446.14 2237.94,-445.94"/>
<polygon fill="orange" stroke="orange" points="2130.36,-443.06 2120.38,-446.62 2130.4,-450.06 2130.36,-443.06"/>
<text text-anchor="middle" x="2192.5" y="-449.17" font-family="Helvetica,sans-Serif" font-size="10.00"> &lt; TData &gt;</text>
</g>
<!-- Node14 -->
<g id="node15" class="node">
<title>Node14</title>
<g id="a_node15"><a xlink:href="classfiftyone_1_1pipeline_1_1cloudrequestengine_1_1flowelements_1_1_property_keyed_cloud_engine_base.html" target="_top" xlink:title="A specialised type of CloudAspectEngineBase that has the functionality to support returning a list of...">
<polygon fill="none" stroke="black" points="2649,-418.17 2649,-470.17 2915,-470.17 2915,-418.17 2649,-418.17"/>
<text text-anchor="start" x="2657" y="-458.17" font-family="Helvetica,sans-Serif" font-size="10.00">fiftyone.pipeline.cloudrequestengine.flowelements.</text>
<text text-anchor="start" x="2657" y="-447.17" font-family="Helvetica,sans-Serif" font-size="10.00">PropertyKeyedCloudEngineBase&lt; TData</text>
<text text-anchor="start" x="2657" y="-436.17" font-family="Helvetica,sans-Serif" font-size="10.00"> extends MultiProfileData&lt; TProfile,</text>
<text text-anchor="middle" x="2782" y="-425.17" font-family="Helvetica,sans-Serif" font-size="10.00"> TProfile extends AspectData &gt;</text>
</a>
</g>
</g>
<!-- Node13&#45;&gt;Node14 -->
<g id="edge16" class="edge">
<title>Node13&#45;&gt;Node14</title>
<path fill="none" stroke="midnightblue" d="M2514.35,-444.82C2558.04,-444.72 2605.91,-444.6 2648.88,-444.5"/>
<polygon fill="midnightblue" stroke="midnightblue" points="2514.22,-441.32 2504.23,-444.85 2514.23,-448.32 2514.22,-441.32"/>
</g>
<!-- Node19 -->
<g id="node20" class="node">
<title>Node19</title>
<g id="a_node20"><a xlink:href="classfiftyone_1_1pipeline_1_1engines_1_1flowelements_1_1_on_premise_aspect_engine_base.html" target="_top" xlink:title="Base class for on&#45;premise aspect engines.">
<polygon fill="none" stroke="black" points="2264.5,-489.17 2264.5,-541.17 2477.5,-541.17 2477.5,-489.17 2264.5,-489.17"/>
<text text-anchor="start" x="2272.5" y="-529.17" font-family="Helvetica,sans-Serif" font-size="10.00">fiftyone.pipeline.engines.flowelements.</text>
<text text-anchor="start" x="2272.5" y="-518.17" font-family="Helvetica,sans-Serif" font-size="10.00">OnPremiseAspectEngineBase&lt; TData</text>
<text text-anchor="start" x="2272.5" y="-507.17" font-family="Helvetica,sans-Serif" font-size="10.00"> extends AspectData, TProperty extends</text>
<text text-anchor="middle" x="2371" y="-496.17" font-family="Helvetica,sans-Serif" font-size="10.00"> AspectPropertyMetaData &gt;</text>
</a>
</g>
</g>
<!-- Node18&#45;&gt;Node19 -->
<g id="edge21" class="edge">
<title>Node18&#45;&gt;Node19</title>
<path fill="none" stroke="midnightblue" d="M2139.38,-513.84C2179.75,-514.07 2224.85,-514.33 2264.39,-514.56"/>
<polygon fill="midnightblue" stroke="midnightblue" points="2139.24,-510.34 2129.22,-513.78 2139.2,-517.34 2139.24,-510.34"/>
</g>
<!-- Node20 -->
<g id="node21" class="node">
<title>Node20</title>
<g id="a_node21"><a xlink:href="classfiftyone_1_1pipeline_1_1engines_1_1fiftyone_1_1flowelements_1_1_fifty_one_on_premise_aspect_engine_base.html" target="_top" xlink:title="51Degrees specific engine base class.">
<polygon fill="none" stroke="black" points="2676,-489.17 2676,-541.17 2888,-541.17 2888,-489.17 2676,-489.17"/>
<text text-anchor="start" x="2684" y="-529.17" font-family="Helvetica,sans-Serif" font-size="10.00">fiftyone::pipeline</text>
<text text-anchor="start" x="2684" y="-518.17" font-family="Helvetica,sans-Serif" font-size="10.00">::engines::fiftyone</text>
<text text-anchor="start" x="2684" y="-507.17" font-family="Helvetica,sans-Serif" font-size="10.00">::flowelements::FiftyOneOnPremise</text>
<text text-anchor="middle" x="2782" y="-496.17" font-family="Helvetica,sans-Serif" font-size="10.00">AspectEngineBase&lt; TData, TProperty &gt;</text>
</a>
</g>
</g>
<!-- Node19&#45;&gt;Node20 -->
<g id="edge22" class="edge">
<title>Node19&#45;&gt;Node20</title>
<path fill="none" stroke="midnightblue" d="M2487.73,-515.17C2546.85,-515.17 2618.26,-515.17 2675.81,-515.17"/>
<polygon fill="midnightblue" stroke="midnightblue" points="2487.59,-511.67 2477.59,-515.17 2487.59,-518.67 2487.59,-511.67"/>
</g>
<!-- Node21 -->
<g id="node22" class="node">
<title>Node21</title>
<g id="a_node22"><a xlink:href="classfiftyone_1_1pipeline_1_1engines_1_1flowelements_1_1_on_premise_aspect_engine_base.html" target="_top" xlink:title=" ">
<polygon fill="none" stroke="black" points="2677.5,-560.67 2677.5,-601.67 2886.5,-601.67 2886.5,-560.67 2677.5,-560.67"/>
<text text-anchor="start" x="2685.5" y="-589.67" font-family="Helvetica,sans-Serif" font-size="10.00">fiftyone.pipeline.engines.flowelements.</text>
<text text-anchor="start" x="2685.5" y="-578.67" font-family="Helvetica,sans-Serif" font-size="10.00">OnPremiseAspectEngineBase&lt; TData,</text>
<text text-anchor="middle" x="2782" y="-567.67" font-family="Helvetica,sans-Serif" font-size="10.00"> TProperty &gt;</text>
</a>
</g>
</g>
<!-- Node19&#45;&gt;Node21 -->
<g id="edge23" class="edge">
<title>Node19&#45;&gt;Node21</title>
<path fill="none" stroke="orange" stroke-dasharray="5,2" d="M2487.81,-533.86C2547.4,-543.48 2619.46,-555.1 2677.22,-564.43"/>
<polygon fill="orange" stroke="orange" points="2488.02,-530.35 2477.59,-532.21 2486.91,-537.26 2488.02,-530.35"/>
<text text-anchor="middle" x="2576.5" y="-558.17" font-family="Helvetica,sans-Serif" font-size="10.00"> &lt; TData, TProperty &gt;</text>
</g>
<!-- Node28 -->
<g id="node29" class="node">
<title>Node28</title>
<g id="a_node29"><a xlink:title="ParallelElements executes it&#39;s child FlowElement objects in parallel.">
<polygon fill="none" stroke="#bfbfbf" points="1927.5,-57.17 1927.5,-87.17 2118.5,-87.17 2118.5,-57.17 1927.5,-57.17"/>
<text text-anchor="start" x="1935.5" y="-75.17" font-family="Helvetica,sans-Serif" font-size="10.00">fiftyone.pipeline.core.flowelements.</text>
<text text-anchor="middle" x="2023" y="-64.17" font-family="Helvetica,sans-Serif" font-size="10.00">ParallelElements</text>
</a>
</g>
</g>
<!-- Node27&#45;&gt;Node28 -->
<g id="edge30" class="edge">
<title>Node27&#45;&gt;Node28</title>
<path fill="none" stroke="midnightblue" d="M1693.09,-72.17C1764.57,-72.17 1858.37,-72.17 1927.5,-72.17"/>
<polygon fill="midnightblue" stroke="midnightblue" points="1692.71,-68.67 1682.71,-72.17 1692.71,-75.67 1692.71,-68.67"/>
</g>
</g>
</svg>
