<?xml version="1.0" encoding="UTF-8" standalone="no"?>
<!DOCTYPE svg PUBLIC "-//W3C//DTD SVG 1.1//EN"
 "http://www.w3.org/Graphics/SVG/1.1/DTD/svg11.dtd">
<!-- Generated by graphviz version 2.43.0 (0)
 -->
<!-- Title: fiftyone.pipeline.engines.fiftyone.flowelements.FiftyOneOnPremiseAspectEngineBase&lt; TData extends AspectData, TProperty extends FiftyOneAspectPropertyMetaData &gt; Pages: 1 -->
<svg width="2893pt" height="631pt"
 viewBox="0.00 0.00 2893.00 631.00" xmlns="http://www.w3.org/2000/svg" xmlns:xlink="http://www.w3.org/1999/xlink">
<g id="graph0" class="graph" transform="scale(1 1) rotate(0) translate(4 627)">
<title>fiftyone.pipeline.engines.fiftyone.flowelements.FiftyOneOnPremiseAspectEngineBase&lt; TData extends AspectData, TProperty extends FiftyOneAspectPropertyMetaData &gt;</title>
<!-- Node0 -->
<g id="node1" class="node">
<title>Node0</title>
<g id="a_node1"><a xlink:title="51Degrees specific engine base class.">
<polygon fill="#bfbfbf" stroke="black" points="2637,-435 2637,-487 2885,-487 2885,-435 2637,-435"/>
<text text-anchor="start" x="2645" y="-475" font-family="Helvetica,sans-Serif" font-size="10.00">fiftyone.pipeline.engines.fiftyone.flowelements.</text>
<text text-anchor="start" x="2645" y="-464" font-family="Helvetica,sans-Serif" font-size="10.00">FiftyOneOnPremiseAspectEngineBase</text>
<text text-anchor="start" x="2645" y="-453" font-family="Helvetica,sans-Serif" font-size="10.00">&lt; TData extends AspectData, TProperty</text>
<text text-anchor="middle" x="2761" y="-442" font-family="Helvetica,sans-Serif" font-size="10.00"> extends FiftyOneAspectPropertyMetaData &gt;</text>
</a>
</g>
</g>
<!-- Node1 -->
<g id="node2" class="node">
<title>Node1</title>
<g id="a_node2"><a xlink:href="classfiftyone_1_1pipeline_1_1engines_1_1flowelements_1_1_on_premise_aspect_engine_base.html" target="_top" xlink:title="Base class for on&#45;premise aspect engines.">
<polygon fill="none" stroke="black" points="2393,-366 2393,-418 2559,-418 2559,-366 2393,-366"/>
<text text-anchor="start" x="2401" y="-406" font-family="Helvetica,sans-Serif" font-size="10.00">fiftyone::pipeline</text>
<text text-anchor="start" x="2401" y="-395" font-family="Helvetica,sans-Serif" font-size="10.00">::engines::flowelements</text>
<text text-anchor="start" x="2401" y="-384" font-family="Helvetica,sans-Serif" font-size="10.00">::OnPremiseAspectEngineBase</text>
<text text-anchor="middle" x="2476" y="-373" font-family="Helvetica,sans-Serif" font-size="10.00">&lt; TData, TProperty &gt;</text>
</a>
</g>
</g>
<!-- Node1&#45;&gt;Node0 -->
<g id="edge1" class="edge">
<title>Node1&#45;&gt;Node0</title>
<path fill="none" stroke="midnightblue" d="M2569.01,-414.43C2595.92,-420.99 2625.55,-428.22 2653.28,-434.98"/>
<polygon fill="midnightblue" stroke="midnightblue" points="2569.78,-411.02 2559.24,-412.05 2568.12,-417.82 2569.78,-411.02"/>
</g>
<!-- Node2 -->
<g id="node3" class="node">
<title>Node2</title>
<g id="a_node3"><a xlink:href="classfiftyone_1_1pipeline_1_1engines_1_1flowelements_1_1_aspect_engine_base.html" target="_top" xlink:title=" ">
<polygon fill="none" stroke="black" points="1956.5,-241 1956.5,-271 2168.5,-271 2168.5,-241 1956.5,-241"/>
<text text-anchor="start" x="1964.5" y="-259" font-family="Helvetica,sans-Serif" font-size="10.00">fiftyone.pipeline.engines.flowelements.</text>
<text text-anchor="middle" x="2062.5" y="-248" font-family="Helvetica,sans-Serif" font-size="10.00">AspectEngineBase&lt; TData, TProperty &gt;</text>
</a>
</g>
</g>
<!-- Node2&#45;&gt;Node1 -->
<g id="edge2" class="edge">
<title>Node2&#45;&gt;Node1</title>
<path fill="none" stroke="midnightblue" d="M2118.82,-274.28C2190.19,-297.87 2314.83,-339.06 2396.12,-365.93"/>
<polygon fill="midnightblue" stroke="midnightblue" points="2119.7,-270.89 2109.11,-271.07 2117.51,-277.54 2119.7,-270.89"/>
</g>
<!-- Node3 -->
<g id="node4" class="node">
<title>Node3</title>
<g id="a_node4"><a xlink:href="classfiftyone_1_1pipeline_1_1engines_1_1flowelements_1_1_aspect_engine_base.html" target="_top" xlink:title="Base class for AspectEngines to extend.">
<polygon fill="none" stroke="black" points="1525,-149 1525,-201 1773,-201 1773,-149 1525,-149"/>
<text text-anchor="start" x="1533" y="-189" font-family="Helvetica,sans-Serif" font-size="10.00">fiftyone.pipeline.engines.flowelements.</text>
<text text-anchor="start" x="1533" y="-178" font-family="Helvetica,sans-Serif" font-size="10.00">AspectEngineBase&lt; TData extends</text>
<text text-anchor="start" x="1533" y="-167" font-family="Helvetica,sans-Serif" font-size="10.00"> AspectData, TProperty extends AspectProperty</text>
<text text-anchor="middle" x="1649" y="-156" font-family="Helvetica,sans-Serif" font-size="10.00">MetaData &gt;</text>
</a>
</g>
</g>
<!-- Node3&#45;&gt;Node2 -->
<g id="edge3" class="edge">
<title>Node3&#45;&gt;Node2</title>
<path fill="none" stroke="orange" stroke-dasharray="5,2" d="M1783.38,-201.25C1850.21,-214.41 1928.71,-229.86 1985.23,-240.99"/>
<polygon fill="orange" stroke="orange" points="1783.67,-197.75 1773.18,-199.25 1782.32,-204.61 1783.67,-197.75"/>
<text text-anchor="middle" x="1845.5" y="-226" font-family="Helvetica,sans-Serif" font-size="10.00"> &lt; TData, TProperty &gt;</text>
</g>
<!-- Node4 -->
<g id="node5" class="node">
<title>Node4</title>
<g id="a_node5"><a xlink:href="classfiftyone_1_1pipeline_1_1core_1_1flowelements_1_1_flow_element_base.html" target="_top" xlink:title="Provides a base class from which authors may create new FlowElements.">
<polygon fill="none" stroke="black" points="1256.5,-249 1256.5,-301 1410.5,-301 1410.5,-249 1256.5,-249"/>
<text text-anchor="start" x="1264.5" y="-289" font-family="Helvetica,sans-Serif" font-size="10.00">fiftyone::pipeline</text>
<text text-anchor="start" x="1264.5" y="-278" font-family="Helvetica,sans-Serif" font-size="10.00">::core::flowelements</text>
<text text-anchor="start" x="1264.5" y="-267" font-family="Helvetica,sans-Serif" font-size="10.00">::FlowElementBase&lt; TData,</text>
<text text-anchor="middle" x="1333.5" y="-256" font-family="Helvetica,sans-Serif" font-size="10.00"> TProperty &gt;</text>
</a>
</g>
</g>
<!-- Node4&#45;&gt;Node3 -->
<g id="edge4" class="edge">
<title>Node4&#45;&gt;Node3</title>
<path fill="none" stroke="midnightblue" d="M1359.8,-240.91C1381.84,-214.3 1416.41,-179.36 1456,-164 1477.56,-155.64 1501.5,-152.6 1524.96,-152.63"/>
<polygon fill="midnightblue" stroke="midnightblue" points="1356.93,-238.89 1353.37,-248.86 1362.38,-243.28 1356.93,-238.89"/>
</g>
<!-- Node5 -->
<g id="node6" class="node">
<title>Node5</title>
<g id="a_node6"><a xlink:href="interfacefiftyone_1_1pipeline_1_1core_1_1flowelements_1_1_flow_element.html" target="_top" xlink:title=" ">
<polygon fill="none" stroke="black" points="866,-266 866,-296 1057,-296 1057,-266 866,-266"/>
<text text-anchor="start" x="874" y="-284" font-family="Helvetica,sans-Serif" font-size="10.00">fiftyone.pipeline.core.flowelements.</text>
<text text-anchor="middle" x="961.5" y="-273" font-family="Helvetica,sans-Serif" font-size="10.00">FlowElement&lt; TData, TProperty &gt;</text>
</a>
</g>
</g>
<!-- Node5&#45;&gt;Node4 -->
<g id="edge5" class="edge">
<title>Node5&#45;&gt;Node4</title>
<path fill="none" stroke="midnightblue" d="M1067.59,-279.3C1127.71,-278.32 1201.76,-277.12 1256.28,-276.24"/>
<polygon fill="midnightblue" stroke="midnightblue" points="1067.25,-275.8 1057.3,-279.46 1067.36,-282.8 1067.25,-275.8"/>
</g>
<!-- Node6 -->
<g id="node7" class="node">
<title>Node6</title>
<g id="a_node7"><a xlink:href="interfacefiftyone_1_1pipeline_1_1core_1_1flowelements_1_1_flow_element.html" target="_top" xlink:title="A component that processes a FlowData (by examining its evidence, or by examining data processed by o...">
<polygon fill="none" stroke="black" points="441,-269.5 441,-310.5 694,-310.5 694,-269.5 441,-269.5"/>
<text text-anchor="start" x="449" y="-298.5" font-family="Helvetica,sans-Serif" font-size="10.00">fiftyone.pipeline.core.flowelements.</text>
<text text-anchor="start" x="449" y="-287.5" font-family="Helvetica,sans-Serif" font-size="10.00">FlowElement&lt; TData extends ElementData,</text>
<text text-anchor="middle" x="567.5" y="-276.5" font-family="Helvetica,sans-Serif" font-size="10.00"> TProperty extends ElementPropertyMetaData &gt;</text>
</a>
</g>
</g>
<!-- Node6&#45;&gt;Node5 -->
<g id="edge6" class="edge">
<title>Node6&#45;&gt;Node5</title>
<path fill="none" stroke="orange" stroke-dasharray="5,2" d="M704.35,-286.88C757.55,-285.66 817.29,-284.29 865.69,-283.18"/>
<polygon fill="orange" stroke="orange" points="704.07,-283.39 694.15,-287.12 704.23,-290.38 704.07,-283.39"/>
<text text-anchor="middle" x="766.5" y="-290" font-family="Helvetica,sans-Serif" font-size="10.00"> &lt; TData, TProperty &gt;</text>
</g>
<!-- Node7 -->
<g id="node8" class="node">
<title>Node7</title>
<g id="a_node8"><a xlink:title=" ">
<polygon fill="none" stroke="#bfbfbf" points="237,-306.5 237,-325.5 324,-325.5 324,-306.5 237,-306.5"/>
<text text-anchor="middle" x="280.5" y="-313.5" font-family="Helvetica,sans-Serif" font-size="10.00">AutoCloseable</text>
</a>
</g>
</g>
<!-- Node7&#45;&gt;Node6 -->
<g id="edge7" class="edge">
<title>Node7&#45;&gt;Node6</title>
<path fill="none" stroke="midnightblue" d="M316.24,-303.06C332.86,-297.54 353.19,-291.75 372,-289 394.14,-285.77 417.84,-284.28 440.82,-283.84"/>
<polygon fill="midnightblue" stroke="midnightblue" points="314.74,-299.88 306.41,-306.44 317.01,-306.5 314.74,-299.88"/>
</g>
<!-- Node13 -->
<g id="node14" class="node">
<title>Node13</title>
<g id="a_node14"><a xlink:href="interfacefiftyone_1_1pipeline_1_1core_1_1flowelements_1_1_flow_element.html" target="_top" xlink:title="A component that processes a FlowData (by examining its evidence, or by examining data processed by o...">
<polygon fill="none" stroke="black" points="502.5,-338 502.5,-390 632.5,-390 632.5,-338 502.5,-338"/>
<text text-anchor="start" x="510.5" y="-378" font-family="Helvetica,sans-Serif" font-size="10.00">fiftyone::pipeline</text>
<text text-anchor="start" x="510.5" y="-367" font-family="Helvetica,sans-Serif" font-size="10.00">::core::flowelements</text>
<text text-anchor="start" x="510.5" y="-356" font-family="Helvetica,sans-Serif" font-size="10.00">::FlowElement&lt; TData,</text>
<text text-anchor="middle" x="567.5" y="-345" font-family="Helvetica,sans-Serif" font-size="10.00"> TProperty &gt;</text>
</a>
</g>
</g>
<!-- Node7&#45;&gt;Node13 -->
<g id="edge16" class="edge">
<title>Node7&#45;&gt;Node13</title>
<path fill="none" stroke="midnightblue" d="M308.34,-330.17C325.93,-338.72 349.71,-348.91 372,-354 414.69,-363.75 463.96,-366.19 502.23,-366.23"/>
<polygon fill="midnightblue" stroke="midnightblue" points="309.77,-326.97 299.26,-325.64 306.64,-333.23 309.77,-326.97"/>
</g>
<!-- Node8 -->
<g id="node9" class="node">
<title>Node8</title>
<g id="a_node9"><a xlink:href="interfacefiftyone_1_1pipeline_1_1core_1_1data_1_1_element_data.html" target="_top" xlink:title="Represents property values that have be determined by a specific FlowElement based on the supplied ev...">
<polygon fill="none" stroke="black" points="207,-208 207,-238 354,-238 354,-208 207,-208"/>
<text text-anchor="start" x="215" y="-226" font-family="Helvetica,sans-Serif" font-size="10.00">fiftyone.pipeline.core.data.</text>
<text text-anchor="middle" x="280.5" y="-215" font-family="Helvetica,sans-Serif" font-size="10.00">ElementData</text>
</a>
</g>
</g>
<!-- Node8&#45;&gt;Node4 -->
<g id="edge11" class="edge">
<title>Node8&#45;&gt;Node4</title>
<path fill="none" stroke="orange" stroke-dasharray="5,2" d="M364.73,-222.4C470.75,-222.07 659.61,-222.87 821,-231 975.89,-238.8 1156.53,-256.32 1256.36,-266.75"/>
<polygon fill="orange" stroke="orange" points="364.4,-218.91 354.42,-222.44 364.43,-225.91 364.4,-218.91"/>
<text text-anchor="middle" x="766.5" y="-234" font-family="Helvetica,sans-Serif" font-size="10.00"> TData</text>
</g>
<!-- Node8&#45;&gt;Node6 -->
<g id="edge8" class="edge">
<title>Node8&#45;&gt;Node6</title>
<path fill="none" stroke="orange" stroke-dasharray="5,2" d="M355.4,-240.37C393.27,-249.28 439.63,-260.17 479.25,-269.49"/>
<polygon fill="orange" stroke="orange" points="356,-236.92 345.46,-238.04 354.39,-243.73 356,-236.92"/>
<text text-anchor="middle" x="397.5" y="-258" font-family="Helvetica,sans-Serif" font-size="10.00"> TData</text>
</g>
<!-- Node8&#45;&gt;Node13 -->
<g id="edge17" class="edge">
<title>Node8&#45;&gt;Node13</title>
<path fill="none" stroke="orange" stroke-dasharray="5,2" d="M311.15,-243.63C342.41,-264.76 393.6,-297.58 441,-320 460.41,-329.18 482.28,-337.5 502.26,-344.37"/>
<polygon fill="orange" stroke="orange" points="313.11,-240.74 302.88,-238 309.17,-246.52 313.11,-240.74"/>
<text text-anchor="middle" x="397.5" y="-315" font-family="Helvetica,sans-Serif" font-size="10.00"> TData</text>
</g>
<!-- Node14 -->
<g id="node15" class="node">
<title>Node14</title>
<g id="a_node15"><a xlink:href="interfacefiftyone_1_1pipeline_1_1engines_1_1data_1_1_aspect_data.html" target="_top" xlink:title="Represents a specialized ElementData instance that is generated by an AspectEngine.">
<polygon fill="none" stroke="black" points="485.5,-127 485.5,-157 649.5,-157 649.5,-127 485.5,-127"/>
<text text-anchor="start" x="493.5" y="-145" font-family="Helvetica,sans-Serif" font-size="10.00">fiftyone.pipeline.engines.data.</text>
<text text-anchor="middle" x="567.5" y="-134" font-family="Helvetica,sans-Serif" font-size="10.00">AspectData</text>
</a>
</g>
</g>
<!-- Node8&#45;&gt;Node14 -->
<g id="edge20" class="edge">
<title>Node8&#45;&gt;Node14</title>
<path fill="none" stroke="midnightblue" d="M344.3,-205.15C394.97,-190.75 465.46,-170.72 513.36,-157.1"/>
<polygon fill="midnightblue" stroke="midnightblue" points="343.1,-201.85 334.44,-207.95 345.01,-208.59 343.1,-201.85"/>
</g>
<!-- Node9 -->
<g id="node10" class="node">
<title>Node9</title>
<g id="a_node10"><a xlink:href="interfacefiftyone_1_1pipeline_1_1core_1_1data_1_1_data.html" target="_top" xlink:title="Represents a collection of property values.">
<polygon fill="none" stroke="black" points="0,-213.5 0,-232.5 170,-232.5 170,-213.5 0,-213.5"/>
<text text-anchor="middle" x="85" y="-220.5" font-family="Helvetica,sans-Serif" font-size="10.00">fiftyone.pipeline.core.data.Data</text>
</a>
</g>
</g>
<!-- Node9&#45;&gt;Node8 -->
<g id="edge9" class="edge">
<title>Node9&#45;&gt;Node8</title>
<path fill="none" stroke="midnightblue" d="M180.11,-223C189.07,-223 198.06,-223 206.77,-223"/>
<polygon fill="midnightblue" stroke="midnightblue" points="180.03,-219.5 170.03,-223 180.03,-226.5 180.03,-219.5"/>
</g>
<!-- Node10 -->
<g id="node11" class="node">
<title>Node10</title>
<g id="a_node11"><a xlink:href="interfacefiftyone_1_1pipeline_1_1core_1_1data_1_1_element_property_meta_data.html" target="_top" xlink:title="Defines details of a property that can be returned by a FlowElement.">
<polygon fill="none" stroke="black" points="207,-399 207,-429 354,-429 354,-399 207,-399"/>
<text text-anchor="start" x="215" y="-417" font-family="Helvetica,sans-Serif" font-size="10.00">fiftyone.pipeline.core.data.</text>
<text text-anchor="middle" x="280.5" y="-406" font-family="Helvetica,sans-Serif" font-size="10.00">ElementPropertyMetaData</text>
</a>
</g>
</g>
<!-- Node10&#45;&gt;Node4 -->
<g id="edge12" class="edge">
<title>Node10&#45;&gt;Node4</title>
<path fill="none" stroke="orange" stroke-dasharray="5,2" d="M364.46,-413.25C383.68,-412.95 404.06,-412.55 423,-412 543.51,-408.48 593.91,-467.21 694,-400 709.85,-389.36 696.66,-372.37 712,-361 734.48,-344.33 1183.28,-295.86 1211,-292 1225.66,-289.96 1241.32,-287.78 1256.35,-285.67"/>
<polygon fill="orange" stroke="orange" points="364.17,-409.75 354.22,-413.39 364.27,-416.75 364.17,-409.75"/>
<text text-anchor="middle" x="766.5" y="-364" font-family="Helvetica,sans-Serif" font-size="10.00"> TProperty</text>
</g>
<!-- Node10&#45;&gt;Node6 -->
<g id="edge10" class="edge">
<title>Node10&#45;&gt;Node6</title>
<path fill="none" stroke="orange" stroke-dasharray="5,2" d="M315.04,-393.73C346.71,-375.17 395.93,-347.81 441,-329 457.32,-322.19 475.26,-315.93 492.34,-310.51"/>
<polygon fill="orange" stroke="orange" points="313.03,-390.85 306.2,-398.95 316.59,-396.88 313.03,-390.85"/>
<text text-anchor="middle" x="397.5" y="-364" font-family="Helvetica,sans-Serif" font-size="10.00"> TProperty</text>
</g>
<!-- Node10&#45;&gt;Node13 -->
<g id="edge18" class="edge">
<title>Node10&#45;&gt;Node13</title>
<path fill="none" stroke="orange" stroke-dasharray="5,2" d="M364.25,-399.48C408.2,-391.77 461.42,-382.43 502.23,-375.27"/>
<polygon fill="orange" stroke="orange" points="363.4,-396.08 354.15,-401.25 364.61,-402.97 363.4,-396.08"/>
<text text-anchor="middle" x="397.5" y="-400" font-family="Helvetica,sans-Serif" font-size="10.00"> TProperty</text>
</g>
<!-- Node15 -->
<g id="node16" class="node">
<title>Node15</title>
<g id="a_node16"><a xlink:href="interfacefiftyone_1_1pipeline_1_1engines_1_1data_1_1_aspect_property_meta_data.html" target="_top" xlink:title="Holds details about a property that can be returned by an AspectEngine.">
<polygon fill="none" stroke="black" points="485.5,-448 485.5,-478 649.5,-478 649.5,-448 485.5,-448"/>
<text text-anchor="start" x="493.5" y="-466" font-family="Helvetica,sans-Serif" font-size="10.00">fiftyone.pipeline.engines.data.</text>
<text text-anchor="middle" x="567.5" y="-455" font-family="Helvetica,sans-Serif" font-size="10.00">AspectPropertyMetaData</text>
</a>
</g>
</g>
<!-- Node10&#45;&gt;Node15 -->
<g id="edge22" class="edge">
<title>Node10&#45;&gt;Node15</title>
<path fill="none" stroke="midnightblue" d="M335.93,-431.94C347.73,-435.34 360.2,-438.59 372,-441 408.79,-448.51 450.06,-453.63 485.09,-457.03"/>
<polygon fill="midnightblue" stroke="midnightblue" points="336.8,-428.54 326.21,-429.05 334.8,-435.25 336.8,-428.54"/>
</g>
<!-- Node11 -->
<g id="node12" class="node">
<title>Node11</title>
<g id="a_node12"><a xlink:href="interfacefiftyone_1_1pipeline_1_1engines_1_1flowelements_1_1_aspect_engine.html" target="_top" xlink:title=" ">
<polygon fill="none" stroke="black" points="1229,-377 1229,-407 1438,-407 1438,-377 1229,-377"/>
<text text-anchor="start" x="1237" y="-395" font-family="Helvetica,sans-Serif" font-size="10.00">fiftyone.pipeline.engines.flowelements.</text>
<text text-anchor="middle" x="1333.5" y="-384" font-family="Helvetica,sans-Serif" font-size="10.00">AspectEngine&lt; TData, TProperty &gt;</text>
</a>
</g>
</g>
<!-- Node11&#45;&gt;Node3 -->
<g id="edge13" class="edge">
<title>Node11&#45;&gt;Node3</title>
<path fill="none" stroke="midnightblue" d="M1399.64,-373.55C1412.75,-368.69 1426.13,-362.84 1438,-356 1513.47,-312.48 1587.2,-240.02 1623.92,-201.3"/>
<polygon fill="midnightblue" stroke="midnightblue" points="1398.42,-370.27 1390.18,-376.92 1400.77,-376.86 1398.42,-370.27"/>
</g>
<!-- Node17 -->
<g id="node18" class="node">
<title>Node17</title>
<g id="a_node18"><a xlink:href="interfacefiftyone_1_1pipeline_1_1engines_1_1flowelements_1_1_on_premise_aspect_engine.html" target="_top" xlink:title="Aspect engine interface which processes data internally using a data file and populates the results.">
<polygon fill="none" stroke="black" points="1525,-366 1525,-418 1773,-418 1773,-366 1525,-366"/>
<text text-anchor="start" x="1533" y="-406" font-family="Helvetica,sans-Serif" font-size="10.00">fiftyone.pipeline.engines.flowelements.</text>
<text text-anchor="start" x="1533" y="-395" font-family="Helvetica,sans-Serif" font-size="10.00">OnPremiseAspectEngine&lt; TData extends</text>
<text text-anchor="start" x="1533" y="-384" font-family="Helvetica,sans-Serif" font-size="10.00"> AspectData, TProperty extends AspectProperty</text>
<text text-anchor="middle" x="1649" y="-373" font-family="Helvetica,sans-Serif" font-size="10.00">MetaData &gt;</text>
</a>
</g>
</g>
<!-- Node11&#45;&gt;Node17 -->
<g id="edge27" class="edge">
<title>Node11&#45;&gt;Node17</title>
<path fill="none" stroke="midnightblue" d="M1448.23,-392C1473.17,-392 1499.69,-392 1524.98,-392"/>
<polygon fill="midnightblue" stroke="midnightblue" points="1448.02,-388.5 1438.02,-392 1448.02,-395.5 1448.02,-388.5"/>
</g>
<!-- Node20 -->
<g id="node21" class="node">
<title>Node20</title>
<g id="a_node21"><a xlink:href="interfacefiftyone_1_1pipeline_1_1engines_1_1flowelements_1_1_on_premise_aspect_engine.html" target="_top" xlink:title="Aspect engine interface which processes data internally using a data file and populates the results.">
<polygon fill="none" stroke="black" points="1578,-449 1578,-501 1720,-501 1720,-449 1578,-449"/>
<text text-anchor="start" x="1586" y="-489" font-family="Helvetica,sans-Serif" font-size="10.00">fiftyone::pipeline</text>
<text text-anchor="start" x="1586" y="-478" font-family="Helvetica,sans-Serif" font-size="10.00">::engines::flowelements</text>
<text text-anchor="start" x="1586" y="-467" font-family="Helvetica,sans-Serif" font-size="10.00">::OnPremiseAspectEngine</text>
<text text-anchor="middle" x="1649" y="-456" font-family="Helvetica,sans-Serif" font-size="10.00">&lt; TData, TProperty &gt;</text>
</a>
</g>
</g>
<!-- Node11&#45;&gt;Node20 -->
<g id="edge35" class="edge">
<title>Node11&#45;&gt;Node20</title>
<path fill="none" stroke="midnightblue" d="M1401.06,-409.62C1453.04,-423.38 1525.08,-442.46 1577.93,-456.45"/>
<polygon fill="midnightblue" stroke="midnightblue" points="1401.84,-406.21 1391.27,-407.03 1400.04,-412.97 1401.84,-406.21"/>
</g>
<!-- Node12 -->
<g id="node13" class="node">
<title>Node12</title>
<g id="a_node13"><a xlink:href="interfacefiftyone_1_1pipeline_1_1engines_1_1flowelements_1_1_aspect_engine.html" target="_top" xlink:title="AspectEngines are a subset of FlowElements.">
<polygon fill="none" stroke="black" points="839,-353.5 839,-394.5 1084,-394.5 1084,-353.5 839,-353.5"/>
<text text-anchor="start" x="847" y="-382.5" font-family="Helvetica,sans-Serif" font-size="10.00">fiftyone.pipeline.engines.flowelements.</text>
<text text-anchor="start" x="847" y="-371.5" font-family="Helvetica,sans-Serif" font-size="10.00">AspectEngine&lt; TData extends AspectData,</text>
<text text-anchor="middle" x="961.5" y="-360.5" font-family="Helvetica,sans-Serif" font-size="10.00"> TProperty extends AspectPropertyMetaData &gt;</text>
</a>
</g>
</g>
<!-- Node12&#45;&gt;Node11 -->
<g id="edge14" class="edge">
<title>Node12&#45;&gt;Node11</title>
<path fill="none" stroke="orange" stroke-dasharray="5,2" d="M1094.39,-380.42C1138.53,-382.56 1187.07,-384.92 1228.74,-386.95"/>
<polygon fill="orange" stroke="orange" points="1094.32,-376.91 1084.16,-379.92 1093.98,-383.9 1094.32,-376.91"/>
<text text-anchor="middle" x="1156.5" y="-388" font-family="Helvetica,sans-Serif" font-size="10.00"> &lt; TData, TProperty &gt;</text>
</g>
<!-- Node13&#45;&gt;Node12 -->
<g id="edge15" class="edge">
<title>Node13&#45;&gt;Node12</title>
<path fill="none" stroke="midnightblue" d="M642.85,-365.9C698.08,-367.31 774.63,-369.26 838.75,-370.89"/>
<polygon fill="midnightblue" stroke="midnightblue" points="642.88,-362.4 632.79,-365.64 642.7,-369.39 642.88,-362.4"/>
</g>
<!-- Node14&#45;&gt;Node0 -->
<g id="edge42" class="edge">
<title>Node14&#45;&gt;Node0</title>
<path fill="none" stroke="orange" stroke-dasharray="5,2" d="M596.28,-120.69C624.1,-100.37 668.87,-70.36 712,-53 816.76,-10.84 847.57,0 960.5,0 960.5,0 960.5,0 2477,0 2682.67,0 2743.56,-337.37 2756.86,-434.89"/>
<polygon fill="orange" stroke="orange" points="594.17,-117.9 588.21,-126.66 598.33,-123.53 594.17,-117.9"/>
<text text-anchor="middle" x="1649" y="-3" font-family="Helvetica,sans-Serif" font-size="10.00"> TData</text>
</g>
<!-- Node14&#45;&gt;Node1 -->
<g id="edge30" class="edge">
<title>Node14&#45;&gt;Node1</title>
<path fill="none" stroke="orange" stroke-dasharray="5,2" d="M611.59,-122.88C682.75,-93.1 829.95,-39 960.5,-39 960.5,-39 960.5,-39 2063.5,-39 2264.22,-39 2416.08,-283.95 2461.2,-365.76"/>
<polygon fill="orange" stroke="orange" points="609.91,-119.79 602.06,-126.91 612.64,-126.24 609.91,-119.79"/>
<text text-anchor="middle" x="1481.5" y="-42" font-family="Helvetica,sans-Serif" font-size="10.00"> TData</text>
</g>
<!-- Node14&#45;&gt;Node3 -->
<g id="edge23" class="edge">
<title>Node14&#45;&gt;Node3</title>
<path fill="none" stroke="orange" stroke-dasharray="5,2" d="M659.56,-136.39C827.68,-127.45 1197.87,-114.37 1507,-150 1512.8,-150.67 1518.73,-151.43 1524.71,-152.25"/>
<polygon fill="orange" stroke="orange" points="659.31,-132.9 649.51,-136.93 659.69,-139.89 659.31,-132.9"/>
<text text-anchor="middle" x="1156.5" y="-133" font-family="Helvetica,sans-Serif" font-size="10.00"> TData</text>
</g>
<!-- Node14&#45;&gt;Node12 -->
<g id="edge19" class="edge">
<title>Node14&#45;&gt;Node12</title>
<path fill="none" stroke="orange" stroke-dasharray="5,2" d="M593.08,-164.01C620.28,-187.24 666.34,-223.28 712,-244 757.35,-264.58 781.81,-239.27 821,-270 834.77,-280.79 826.89,-292.38 839,-305 858.82,-325.66 886.18,-341.93 909.92,-353.47"/>
<polygon fill="orange" stroke="orange" points="595.11,-161.14 585.26,-157.25 590.53,-166.44 595.11,-161.14"/>
<text text-anchor="middle" x="766.5" y="-273" font-family="Helvetica,sans-Serif" font-size="10.00"> TData</text>
</g>
<!-- Node14&#45;&gt;Node17 -->
<g id="edge28" class="edge">
<title>Node14&#45;&gt;Node17</title>
<path fill="none" stroke="orange" stroke-dasharray="5,2" d="M659.94,-144.81C811.14,-149.65 1106.9,-160.02 1211,-170 1343.39,-182.69 1391.86,-147.43 1507,-214 1569.63,-250.21 1614.92,-325.97 1635.55,-365.97"/>
<polygon fill="orange" stroke="orange" points="659.86,-141.31 649.75,-144.48 659.63,-148.3 659.86,-141.31"/>
<text text-anchor="middle" x="1156.5" y="-173" font-family="Helvetica,sans-Serif" font-size="10.00"> TData</text>
</g>
<!-- Node19 -->
<g id="node20" class="node">
<title>Node19</title>
<g id="a_node20"><a xlink:href="interfacefiftyone_1_1pipeline_1_1engines_1_1fiftyone_1_1flowelements_1_1_fifty_one_aspect_engine.html" target="_top" xlink:title="51Degrees specific Engine interface.">
<polygon fill="none" stroke="black" points="1918,-494 1918,-546 2207,-546 2207,-494 1918,-494"/>
<text text-anchor="start" x="1926" y="-534" font-family="Helvetica,sans-Serif" font-size="10.00">fiftyone.pipeline.engines.fiftyone.flowelements.</text>
<text text-anchor="start" x="1926" y="-523" font-family="Helvetica,sans-Serif" font-size="10.00">FiftyOneAspectEngine&lt; TData extends</text>
<text text-anchor="start" x="1926" y="-512" font-family="Helvetica,sans-Serif" font-size="10.00"> AspectData, TProperty extends FiftyOneAspectProperty</text>
<text text-anchor="middle" x="2062.5" y="-501" font-family="Helvetica,sans-Serif" font-size="10.00">MetaData &gt;</text>
</a>
</g>
</g>
<!-- Node14&#45;&gt;Node19 -->
<g id="edge38" class="edge">
<title>Node14&#45;&gt;Node19</title>
<path fill="none" stroke="orange" stroke-dasharray="5,2" d="M642.04,-124.83C720.47,-108.05 848.55,-85 960.5,-85 960.5,-85 960.5,-85 1650,-85 1772.3,-85 1830.74,-99.19 1900,-200 1928.03,-240.8 1893.14,-379.2 1918,-422 1936.56,-453.96 1970.22,-477.77 2000.27,-493.91"/>
<polygon fill="orange" stroke="orange" points="641.29,-121.41 632.25,-126.95 642.77,-128.26 641.29,-121.41"/>
<text text-anchor="middle" x="1333.5" y="-88" font-family="Helvetica,sans-Serif" font-size="10.00"> TData</text>
</g>
<!-- Node14&#45;&gt;Node20 -->
<g id="edge36" class="edge">
<title>Node14&#45;&gt;Node20</title>
<path fill="none" stroke="orange" stroke-dasharray="5,2" d="M659.74,-155.93C677.08,-158.41 695.08,-160.88 712,-163 792.48,-173.1 1372.08,-191.75 1438,-239 1513.16,-292.87 1457.48,-364.82 1525,-428 1539.77,-441.82 1559.03,-451.71 1577.91,-458.72"/>
<polygon fill="orange" stroke="orange" points="660.02,-152.43 649.62,-154.46 659.02,-159.36 660.02,-152.43"/>
<text text-anchor="middle" x="1156.5" y="-201" font-family="Helvetica,sans-Serif" font-size="10.00"> TData</text>
</g>
<!-- Node15&#45;&gt;Node1 -->
<g id="edge31" class="edge">
<title>Node15&#45;&gt;Node1</title>
<path fill="none" stroke="orange" stroke-dasharray="5,2" d="M646.35,-479.91C667.55,-483.9 690.57,-487.66 712,-490 768.14,-496.13 782.55,-492.41 839,-494 1254.02,-505.68 1359.45,-547.78 1773,-511 1838.21,-505.2 1853.49,-496.17 1918,-485 2086.57,-455.81 2284.13,-423.21 2392.84,-405.4"/>
<polygon fill="orange" stroke="orange" points="646.91,-476.46 636.43,-478.01 645.59,-483.33 646.91,-476.46"/>
<text text-anchor="middle" x="1481.5" y="-528" font-family="Helvetica,sans-Serif" font-size="10.00"> TProperty</text>
</g>
<!-- Node15&#45;&gt;Node3 -->
<g id="edge24" class="edge">
<title>Node15&#45;&gt;Node3</title>
<path fill="none" stroke="orange" stroke-dasharray="5,2" d="M659.92,-453.68C805.72,-438.66 1075.49,-410.15 1084,-404 1099.47,-392.81 1086.81,-376.56 1102,-365 1222.43,-273.38 1296.74,-364.27 1438,-310 1506.98,-283.5 1577.23,-232.41 1616.46,-201.25"/>
<polygon fill="orange" stroke="orange" points="659.23,-450.23 649.64,-454.74 659.94,-457.2 659.23,-450.23"/>
<text text-anchor="middle" x="1156.5" y="-368" font-family="Helvetica,sans-Serif" font-size="10.00"> TProperty</text>
</g>
<!-- Node15&#45;&gt;Node12 -->
<g id="edge21" class="edge">
<title>Node15&#45;&gt;Node12</title>
<path fill="none" stroke="orange" stroke-dasharray="5,2" d="M659.39,-451.26C671.84,-446.9 683.82,-440.99 694,-433 707.76,-422.2 697.52,-407.82 712,-398 732.98,-383.77 786.69,-377.53 838.83,-374.95"/>
<polygon fill="orange" stroke="orange" points="658.28,-447.94 649.81,-454.31 660.4,-454.62 658.28,-447.94"/>
<text text-anchor="middle" x="766.5" y="-401" font-family="Helvetica,sans-Serif" font-size="10.00"> TProperty</text>
</g>
<!-- Node15&#45;&gt;Node17 -->
<g id="edge29" class="edge">
<title>Node15&#45;&gt;Node17</title>
<path fill="none" stroke="orange" stroke-dasharray="5,2" d="M659.73,-460.25C818.25,-455.01 1154.71,-441.84 1438,-417 1466.16,-414.53 1496.38,-411.28 1524.87,-407.95"/>
<polygon fill="orange" stroke="orange" points="659.43,-456.76 649.55,-460.59 659.66,-463.76 659.43,-456.76"/>
<text text-anchor="middle" x="1156.5" y="-443" font-family="Helvetica,sans-Serif" font-size="10.00"> TProperty</text>
</g>
<!-- Node15&#45;&gt;Node20 -->
<g id="edge37" class="edge">
<title>Node15&#45;&gt;Node20</title>
<path fill="none" stroke="orange" stroke-dasharray="5,2" d="M659.75,-471.78C677.08,-473.12 695.09,-474.29 712,-475 1035.3,-488.49 1421.95,-481 1577.8,-477"/>
<polygon fill="orange" stroke="orange" points="659.88,-468.28 649.63,-470.97 659.32,-475.26 659.88,-468.28"/>
<text text-anchor="middle" x="1156.5" y="-485" font-family="Helvetica,sans-Serif" font-size="10.00"> TProperty</text>
</g>
<!-- Node21 -->
<g id="node22" class="node">
<title>Node21</title>
<g id="a_node22"><a xlink:href="interfacefiftyone_1_1pipeline_1_1engines_1_1fiftyone_1_1data_1_1_fifty_one_aspect_property_meta_data.html" target="_top" xlink:title="51Degrees specific meta data.">
<polygon fill="none" stroke="black" points="1547,-560 1547,-590 1751,-590 1751,-560 1547,-560"/>
<text text-anchor="start" x="1555" y="-578" font-family="Helvetica,sans-Serif" font-size="10.00">fiftyone.pipeline.engines.fiftyone.data.</text>
<text text-anchor="middle" x="1649" y="-567" font-family="Helvetica,sans-Serif" font-size="10.00">FiftyOneAspectPropertyMetaData</text>
</a>
</g>
</g>
<!-- Node15&#45;&gt;Node21 -->
<g id="edge40" class="edge">
<title>Node15&#45;&gt;Node21</title>
<path fill="none" stroke="midnightblue" d="M593.86,-484.36C621.08,-505.8 666.54,-537.54 712,-551 865.62,-596.49 1337.64,-586.15 1546.63,-578.99"/>
<polygon fill="midnightblue" stroke="midnightblue" points="596.01,-481.6 586.02,-478.06 591.63,-487.05 596.01,-481.6"/>
</g>
<!-- Node16 -->
<g id="node17" class="node">
<title>Node16</title>
<g id="a_node17"><a xlink:href="interfacefiftyone_1_1pipeline_1_1engines_1_1flowelements_1_1_on_premise_aspect_engine.html" target="_top" xlink:title=" ">
<polygon fill="none" stroke="black" points="1958,-371.5 1958,-412.5 2167,-412.5 2167,-371.5 1958,-371.5"/>
<text text-anchor="start" x="1966" y="-400.5" font-family="Helvetica,sans-Serif" font-size="10.00">fiftyone.pipeline.engines.flowelements.</text>
<text text-anchor="start" x="1966" y="-389.5" font-family="Helvetica,sans-Serif" font-size="10.00">OnPremiseAspectEngine&lt; TData,</text>
<text text-anchor="middle" x="2062.5" y="-378.5" font-family="Helvetica,sans-Serif" font-size="10.00"> TProperty &gt;</text>
</a>
</g>
</g>
<!-- Node16&#45;&gt;Node1 -->
<g id="edge25" class="edge">
<title>Node16&#45;&gt;Node1</title>
<path fill="none" stroke="midnightblue" d="M2177.45,-392C2245.77,-392 2331.07,-392 2392.8,-392"/>
<polygon fill="midnightblue" stroke="midnightblue" points="2177.07,-388.5 2167.07,-392 2177.07,-395.5 2177.07,-388.5"/>
</g>
<!-- Node17&#45;&gt;Node16 -->
<g id="edge26" class="edge">
<title>Node17&#45;&gt;Node16</title>
<path fill="none" stroke="orange" stroke-dasharray="5,2" d="M1783.28,-392C1839.87,-392 1904.84,-392 1957.76,-392"/>
<polygon fill="orange" stroke="orange" points="1783.18,-388.5 1773.18,-392 1783.18,-395.5 1783.18,-388.5"/>
<text text-anchor="middle" x="1845.5" y="-395" font-family="Helvetica,sans-Serif" font-size="10.00"> &lt; TData, TProperty &gt;</text>
</g>
<!-- Node18 -->
<g id="node19" class="node">
<title>Node18</title>
<g id="a_node19"><a xlink:href="interfacefiftyone_1_1pipeline_1_1engines_1_1fiftyone_1_1flowelements_1_1_fifty_one_aspect_engine.html" target="_top" xlink:title=" ">
<polygon fill="none" stroke="black" points="2352,-484 2352,-514 2600,-514 2600,-484 2352,-484"/>
<text text-anchor="start" x="2360" y="-502" font-family="Helvetica,sans-Serif" font-size="10.00">fiftyone.pipeline.engines.fiftyone.flowelements.</text>
<text text-anchor="middle" x="2476" y="-491" font-family="Helvetica,sans-Serif" font-size="10.00">FiftyOneAspectEngine&lt; TData, TProperty &gt;</text>
</a>
</g>
</g>
<!-- Node18&#45;&gt;Node0 -->
<g id="edge32" class="edge">
<title>Node18&#45;&gt;Node0</title>
<path fill="none" stroke="midnightblue" d="M2598.88,-482.63C2611.46,-480.95 2624.25,-479.23 2636.84,-477.54"/>
<polygon fill="midnightblue" stroke="midnightblue" points="2598.29,-479.18 2588.85,-483.98 2599.23,-486.12 2598.29,-479.18"/>
</g>
<!-- Node19&#45;&gt;Node18 -->
<g id="edge33" class="edge">
<title>Node19&#45;&gt;Node18</title>
<path fill="none" stroke="orange" stroke-dasharray="5,2" d="M2217.15,-512.16C2261.6,-509.89 2309.51,-507.45 2351.83,-505.29"/>
<polygon fill="orange" stroke="orange" points="2216.94,-508.66 2207.13,-512.67 2217.3,-515.66 2216.94,-508.66"/>
<text text-anchor="middle" x="2279.5" y="-514" font-family="Helvetica,sans-Serif" font-size="10.00"> &lt; TData, TProperty &gt;</text>
</g>
<!-- Node20&#45;&gt;Node19 -->
<g id="edge34" class="edge">
<title>Node20&#45;&gt;Node19</title>
<path fill="none" stroke="midnightblue" d="M1730.33,-483.78C1783.56,-489.61 1854.9,-497.41 1917.73,-504.28"/>
<polygon fill="midnightblue" stroke="midnightblue" points="1730.59,-480.29 1720.27,-482.68 1729.83,-487.25 1730.59,-480.29"/>
</g>
<!-- Node21&#45;&gt;Node0 -->
<g id="edge43" class="edge">
<title>Node21&#45;&gt;Node0</title>
<path fill="none" stroke="orange" stroke-dasharray="5,2" d="M1761.33,-581.41C1940.58,-588.99 2303.1,-592.95 2600,-524 2636.2,-515.59 2675.04,-500.46 2705.38,-487.14"/>
<polygon fill="orange" stroke="orange" points="1761.25,-577.91 1751.1,-580.97 1760.94,-584.9 1761.25,-577.91"/>
<text text-anchor="middle" x="2279.5" y="-579" font-family="Helvetica,sans-Serif" font-size="10.00"> TProperty</text>
</g>
<!-- Node21&#45;&gt;Node19 -->
<g id="edge39" class="edge">
<title>Node21&#45;&gt;Node19</title>
<path fill="none" stroke="orange" stroke-dasharray="5,2" d="M1739.59,-558.21C1756.63,-555.28 1774.34,-552.4 1791,-550 1832.04,-544.09 1876.73,-538.71 1917.74,-534.19"/>
<polygon fill="orange" stroke="orange" points="1738.89,-554.78 1729.64,-559.95 1740.09,-561.68 1738.89,-554.78"/>
<text text-anchor="middle" x="1845.5" y="-553" font-family="Helvetica,sans-Serif" font-size="10.00"> TProperty</text>
</g>
<!-- Node22 -->
<g id="node23" class="node">
<title>Node22</title>
<g id="a_node23"><a xlink:title=" ">
<polygon fill="none" stroke="#bfbfbf" points="1301,-603.5 1301,-622.5 1366,-622.5 1366,-603.5 1301,-603.5"/>
<text text-anchor="middle" x="1333.5" y="-610.5" font-family="Helvetica,sans-Serif" font-size="10.00">Closeable</text>
</a>
</g>
</g>
<!-- Node22&#45;&gt;Node21 -->
<g id="edge41" class="edge">
<title>Node22&#45;&gt;Node21</title>
<path fill="none" stroke="midnightblue" d="M1376.46,-607.91C1419.82,-602.66 1489.12,-594.26 1546.85,-587.26"/>
<polygon fill="midnightblue" stroke="midnightblue" points="1375.79,-604.47 1366.29,-609.15 1376.63,-611.42 1375.79,-604.47"/>
</g>
</g>
</svg>
