<?xml version="1.0" encoding="UTF-8" standalone="no"?>
<!DOCTYPE svg PUBLIC "-//W3C//DTD SVG 1.1//EN"
 "http://www.w3.org/Graphics/SVG/1.1/DTD/svg11.dtd">
<!-- Generated by graphviz version 2.43.0 (0)
 -->
<!-- Title: fiftyone.pipeline.engines.fiftyone.data.SetHeadersData Pages: 1 -->
<svg width="320pt" height="242pt"
 viewBox="0.00 0.00 320.00 242.00" xmlns="http://www.w3.org/2000/svg" xmlns:xlink="http://www.w3.org/1999/xlink">
<g id="graph0" class="graph" transform="scale(1 1) rotate(0) translate(4 238)">
<title>fiftyone.pipeline.engines.fiftyone.data.SetHeadersData</title>
<!-- Node5 -->
<g id="node1" class="node">
<title>Node5</title>
<g id="a_node1"><a xlink:title="[class] [constructor]">
<polygon fill="#bfbfbf" stroke="black" points="53.5,-0.5 53.5,-30.5 257.5,-30.5 257.5,-0.5 53.5,-0.5"/>
<text text-anchor="start" x="61.5" y="-18.5" font-family="Helvetica,sans-Serif" font-size="10.00">fiftyone.pipeline.engines.fiftyone.data.</text>
<text text-anchor="middle" x="155.5" y="-7.5" font-family="Helvetica,sans-Serif" font-size="10.00">SetHeadersData</text>
</a>
</g>
</g>
<!-- Node6 -->
<g id="node2" class="node">
<title>Node6</title>
<g id="a_node2"><a xlink:href="classfiftyone_1_1pipeline_1_1core_1_1data_1_1_element_data_base.html" target="_top" xlink:title="Base implementation of ElementData.">
<polygon fill="none" stroke="black" points="82,-68.5 82,-98.5 229,-98.5 229,-68.5 82,-68.5"/>
<text text-anchor="start" x="90" y="-86.5" font-family="Helvetica,sans-Serif" font-size="10.00">fiftyone.pipeline.core.data.</text>
<text text-anchor="middle" x="155.5" y="-75.5" font-family="Helvetica,sans-Serif" font-size="10.00">ElementDataBase</text>
</a>
</g>
</g>
<!-- Node6&#45;&gt;Node5 -->
<g id="edge1" class="edge">
<title>Node6&#45;&gt;Node5</title>
<path fill="none" stroke="midnightblue" d="M155.5,-58.03C155.5,-48.86 155.5,-38.74 155.5,-30.79"/>
<polygon fill="midnightblue" stroke="midnightblue" points="152,-58.18 155.5,-68.18 159,-58.18 152,-58.18"/>
</g>
<!-- Node7 -->
<g id="node3" class="node">
<title>Node7</title>
<g id="a_node3"><a xlink:href="classfiftyone_1_1pipeline_1_1core_1_1data_1_1_data_base.html" target="_top" xlink:title="This implementation of Data stores data values as key/value pairs in a Map where the key is a string ...">
<polygon fill="none" stroke="black" points="165,-136.5 165,-166.5 312,-166.5 312,-136.5 165,-136.5"/>
<text text-anchor="start" x="173" y="-154.5" font-family="Helvetica,sans-Serif" font-size="10.00">fiftyone.pipeline.core.data.</text>
<text text-anchor="middle" x="238.5" y="-143.5" font-family="Helvetica,sans-Serif" font-size="10.00">DataBase</text>
</a>
</g>
</g>
<!-- Node7&#45;&gt;Node6 -->
<g id="edge2" class="edge">
<title>Node7&#45;&gt;Node6</title>
<path fill="none" stroke="midnightblue" d="M212.48,-129.81C199.69,-119.64 184.62,-107.66 173.19,-98.57"/>
<polygon fill="midnightblue" stroke="midnightblue" points="210.48,-132.69 220.49,-136.18 214.84,-127.22 210.48,-132.69"/>
</g>
<!-- Node8 -->
<g id="node4" class="node">
<title>Node8</title>
<g id="a_node4"><a xlink:href="interfacefiftyone_1_1pipeline_1_1core_1_1data_1_1_data.html" target="_top" xlink:title="Represents a collection of property values.">
<polygon fill="none" stroke="black" points="7.5,-214.5 7.5,-233.5 177.5,-233.5 177.5,-214.5 7.5,-214.5"/>
<text text-anchor="middle" x="92.5" y="-221.5" font-family="Helvetica,sans-Serif" font-size="10.00">fiftyone.pipeline.core.data.Data</text>
</a>
</g>
</g>
<!-- Node8&#45;&gt;Node7 -->
<g id="edge3" class="edge">
<title>Node8&#45;&gt;Node7</title>
<path fill="none" stroke="midnightblue" d="M119.22,-210.1C144.78,-197.76 183.21,-179.2 209.49,-166.51"/>
<polygon fill="midnightblue" stroke="midnightblue" points="117.59,-207 110.11,-214.5 120.64,-213.3 117.59,-207"/>
</g>
<!-- Node10 -->
<g id="node6" class="node">
<title>Node10</title>
<g id="a_node6"><a xlink:href="interfacefiftyone_1_1pipeline_1_1core_1_1data_1_1_element_data.html" target="_top" xlink:title="Represents property values that have be determined by a specific FlowElement based on the supplied ev...">
<polygon fill="none" stroke="black" points="0,-136.5 0,-166.5 147,-166.5 147,-136.5 0,-136.5"/>
<text text-anchor="start" x="8" y="-154.5" font-family="Helvetica,sans-Serif" font-size="10.00">fiftyone.pipeline.core.data.</text>
<text text-anchor="middle" x="73.5" y="-143.5" font-family="Helvetica,sans-Serif" font-size="10.00">ElementData</text>
</a>
</g>
</g>
<!-- Node8&#45;&gt;Node10 -->
<g id="edge6" class="edge">
<title>Node8&#45;&gt;Node10</title>
<path fill="none" stroke="midnightblue" d="M87.54,-204.6C84.34,-192.72 80.24,-177.49 77.29,-166.58"/>
<polygon fill="midnightblue" stroke="midnightblue" points="84.19,-205.61 90.17,-214.36 90.95,-203.79 84.19,-205.61"/>
</g>
<!-- Node9 -->
<g id="node5" class="node">
<title>Node9</title>
<g id="a_node5"><a xlink:title=" ">
<polygon fill="none" stroke="#bfbfbf" points="213.5,-214.5 213.5,-233.5 263.5,-233.5 263.5,-214.5 213.5,-214.5"/>
<text text-anchor="middle" x="238.5" y="-221.5" font-family="Helvetica,sans-Serif" font-size="10.00">Logger</text>
</a>
</g>
</g>
<!-- Node9&#45;&gt;Node7 -->
<g id="edge4" class="edge">
<title>Node9&#45;&gt;Node7</title>
<path fill="none" stroke="#9a32cd" stroke-dasharray="5,2" d="M238.5,-204.24C238.5,-192.41 238.5,-177.38 238.5,-166.58"/>
<polygon fill="#9a32cd" stroke="#9a32cd" points="235,-204.36 238.5,-214.36 242,-204.36 235,-204.36"/>
<text text-anchor="middle" x="255.5" y="-188" font-family="Helvetica,sans-Serif" font-size="10.00"> logger</text>
</g>
<!-- Node10&#45;&gt;Node6 -->
<g id="edge5" class="edge">
<title>Node10&#45;&gt;Node6</title>
<path fill="none" stroke="midnightblue" d="M99.21,-129.81C111.84,-119.64 126.73,-107.66 138.02,-98.57"/>
<polygon fill="midnightblue" stroke="midnightblue" points="96.89,-127.18 91.29,-136.18 101.28,-132.64 96.89,-127.18"/>
</g>
</g>
</svg>
