<?xml version="1.0" encoding="UTF-8" standalone="no"?>
<!DOCTYPE svg PUBLIC "-//W3C//DTD SVG 1.1//EN"
 "http://www.w3.org/Graphics/SVG/1.1/DTD/svg11.dtd">
<!-- Generated by graphviz version 2.43.0 (0)
 -->
<!-- Title: fiftyone.pipeline.engines.fiftyone.flowelements.SetHeadersElement Pages: 1 -->
<svg width="1547pt" height="141pt"
 viewBox="0.00 0.00 1547.00 141.00" xmlns="http://www.w3.org/2000/svg" xmlns:xlink="http://www.w3.org/1999/xlink">
<g id="graph0" class="graph" transform="scale(1 1) rotate(0) translate(4 137)">
<title>fiftyone.pipeline.engines.fiftyone.flowelements.SetHeadersElement</title>
<!-- Node0 -->
<g id="node1" class="node">
<title>Node0</title>
<g id="a_node1"><a xlink:title="[class] [constructor]">
<polygon fill="#bfbfbf" stroke="black" points="1291,-51.5 1291,-81.5 1539,-81.5 1539,-51.5 1291,-51.5"/>
<text text-anchor="start" x="1299" y="-69.5" font-family="Helvetica,sans-Serif" font-size="10.00">fiftyone.pipeline.engines.fiftyone.flowelements.</text>
<text text-anchor="middle" x="1415" y="-58.5" font-family="Helvetica,sans-Serif" font-size="10.00">SetHeadersElement</text>
</a>
</g>
</g>
<!-- Node1 -->
<g id="node2" class="node">
<title>Node1</title>
<g id="a_node2"><a xlink:href="classfiftyone_1_1pipeline_1_1core_1_1flowelements_1_1_flow_element_base.html" target="_top" xlink:title="Provides a base class from which authors may create new FlowElements.">
<polygon fill="none" stroke="black" points="1067,-40.5 1067,-92.5 1254,-92.5 1254,-40.5 1067,-40.5"/>
<text text-anchor="start" x="1075" y="-80.5" font-family="Helvetica,sans-Serif" font-size="10.00">fiftyone::pipeline</text>
<text text-anchor="start" x="1075" y="-69.5" font-family="Helvetica,sans-Serif" font-size="10.00">::core::flowelements</text>
<text text-anchor="start" x="1075" y="-58.5" font-family="Helvetica,sans-Serif" font-size="10.00">::FlowElementBase&lt; SetHeaders</text>
<text text-anchor="middle" x="1160.5" y="-47.5" font-family="Helvetica,sans-Serif" font-size="10.00">Data, ElementPropertyMetaData &gt;</text>
</a>
</g>
</g>
<!-- Node1&#45;&gt;Node0 -->
<g id="edge1" class="edge">
<title>Node1&#45;&gt;Node0</title>
<path fill="none" stroke="midnightblue" d="M1264.27,-66.5C1273.02,-66.5 1281.93,-66.5 1290.81,-66.5"/>
<polygon fill="midnightblue" stroke="midnightblue" points="1264.09,-63 1254.09,-66.5 1264.09,-70 1264.09,-63"/>
</g>
<!-- Node2 -->
<g id="node3" class="node">
<title>Node2</title>
<g id="a_node3"><a xlink:href="interfacefiftyone_1_1pipeline_1_1core_1_1flowelements_1_1_flow_element.html" target="_top" xlink:title=" ">
<polygon fill="none" stroke="black" points="839,-51.5 839,-81.5 1030,-81.5 1030,-51.5 839,-51.5"/>
<text text-anchor="start" x="847" y="-69.5" font-family="Helvetica,sans-Serif" font-size="10.00">fiftyone.pipeline.core.flowelements.</text>
<text text-anchor="middle" x="934.5" y="-58.5" font-family="Helvetica,sans-Serif" font-size="10.00">FlowElement&lt; TData, TProperty &gt;</text>
</a>
</g>
</g>
<!-- Node2&#45;&gt;Node1 -->
<g id="edge2" class="edge">
<title>Node2&#45;&gt;Node1</title>
<path fill="none" stroke="midnightblue" d="M1040.21,-66.5C1049.14,-66.5 1058.13,-66.5 1066.95,-66.5"/>
<polygon fill="midnightblue" stroke="midnightblue" points="1040.17,-63 1030.17,-66.5 1040.17,-70 1040.17,-63"/>
</g>
<!-- Node3 -->
<g id="node4" class="node">
<title>Node3</title>
<g id="a_node4"><a xlink:href="interfacefiftyone_1_1pipeline_1_1core_1_1flowelements_1_1_flow_element.html" target="_top" xlink:title="A component that processes a FlowData (by examining its evidence, or by examining data processed by o...">
<polygon fill="none" stroke="black" points="441,-46 441,-87 694,-87 694,-46 441,-46"/>
<text text-anchor="start" x="449" y="-75" font-family="Helvetica,sans-Serif" font-size="10.00">fiftyone.pipeline.core.flowelements.</text>
<text text-anchor="start" x="449" y="-64" font-family="Helvetica,sans-Serif" font-size="10.00">FlowElement&lt; TData extends ElementData,</text>
<text text-anchor="middle" x="567.5" y="-53" font-family="Helvetica,sans-Serif" font-size="10.00"> TProperty extends ElementPropertyMetaData &gt;</text>
</a>
</g>
</g>
<!-- Node3&#45;&gt;Node2 -->
<g id="edge3" class="edge">
<title>Node3&#45;&gt;Node2</title>
<path fill="none" stroke="orange" stroke-dasharray="5,2" d="M704.2,-66.5C748.97,-66.5 797.77,-66.5 838.8,-66.5"/>
<polygon fill="orange" stroke="orange" points="704.11,-63 694.11,-66.5 704.11,-70 704.11,-63"/>
<text text-anchor="middle" x="766.5" y="-69.5" font-family="Helvetica,sans-Serif" font-size="10.00"> &lt; TData, TProperty &gt;</text>
</g>
<!-- Node4 -->
<g id="node5" class="node">
<title>Node4</title>
<g id="a_node5"><a xlink:title=" ">
<polygon fill="none" stroke="#bfbfbf" points="237,-57 237,-76 324,-76 324,-57 237,-57"/>
<text text-anchor="middle" x="280.5" y="-64" font-family="Helvetica,sans-Serif" font-size="10.00">AutoCloseable</text>
</a>
</g>
</g>
<!-- Node4&#45;&gt;Node3 -->
<g id="edge4" class="edge">
<title>Node4&#45;&gt;Node3</title>
<path fill="none" stroke="midnightblue" d="M334.4,-66.5C364.44,-66.5 403.4,-66.5 440.81,-66.5"/>
<polygon fill="midnightblue" stroke="midnightblue" points="334.17,-63 324.17,-66.5 334.17,-70 334.17,-63"/>
</g>
<!-- Node5 -->
<g id="node6" class="node">
<title>Node5</title>
<g id="a_node6"><a xlink:href="interfacefiftyone_1_1pipeline_1_1core_1_1data_1_1_element_data.html" target="_top" xlink:title="Represents property values that have be determined by a specific FlowElement based on the supplied ev...">
<polygon fill="none" stroke="black" points="207,-102.5 207,-132.5 354,-132.5 354,-102.5 207,-102.5"/>
<text text-anchor="start" x="215" y="-120.5" font-family="Helvetica,sans-Serif" font-size="10.00">fiftyone.pipeline.core.data.</text>
<text text-anchor="middle" x="280.5" y="-109.5" font-family="Helvetica,sans-Serif" font-size="10.00">ElementData</text>
</a>
</g>
</g>
<!-- Node5&#45;&gt;Node1 -->
<g id="edge8" class="edge">
<title>Node5&#45;&gt;Node1</title>
<path fill="none" stroke="orange" stroke-dasharray="5,2" d="M364.13,-118.83C502.41,-120.11 789.25,-118.75 1030,-91.5 1041.95,-90.15 1054.44,-88.3 1066.75,-86.21"/>
<polygon fill="orange" stroke="orange" points="364.07,-115.33 354.03,-118.73 364,-122.32 364.07,-115.33"/>
<text text-anchor="middle" x="766.5" y="-116.5" font-family="Helvetica,sans-Serif" font-size="10.00"> TData</text>
</g>
<!-- Node5&#45;&gt;Node3 -->
<g id="edge5" class="edge">
<title>Node5&#45;&gt;Node3</title>
<path fill="none" stroke="orange" stroke-dasharray="5,2" d="M363.98,-101.96C366.68,-101.47 369.36,-100.98 372,-100.5 396.45,-96.07 422.66,-91.42 447.66,-87.03"/>
<polygon fill="orange" stroke="orange" points="363.3,-98.53 354.1,-103.78 364.57,-105.41 363.3,-98.53"/>
<text text-anchor="middle" x="397.5" y="-103.5" font-family="Helvetica,sans-Serif" font-size="10.00"> TData</text>
</g>
<!-- Node6 -->
<g id="node7" class="node">
<title>Node6</title>
<g id="a_node7"><a xlink:href="interfacefiftyone_1_1pipeline_1_1core_1_1data_1_1_data.html" target="_top" xlink:title="Represents a collection of property values.">
<polygon fill="none" stroke="black" points="0,-108 0,-127 170,-127 170,-108 0,-108"/>
<text text-anchor="middle" x="85" y="-115" font-family="Helvetica,sans-Serif" font-size="10.00">fiftyone.pipeline.core.data.Data</text>
</a>
</g>
</g>
<!-- Node6&#45;&gt;Node5 -->
<g id="edge6" class="edge">
<title>Node6&#45;&gt;Node5</title>
<path fill="none" stroke="midnightblue" d="M180.11,-117.5C189.07,-117.5 198.06,-117.5 206.77,-117.5"/>
<polygon fill="midnightblue" stroke="midnightblue" points="180.03,-114 170.03,-117.5 180.03,-121 180.03,-114"/>
</g>
<!-- Node7 -->
<g id="node8" class="node">
<title>Node7</title>
<g id="a_node8"><a xlink:href="interfacefiftyone_1_1pipeline_1_1core_1_1data_1_1_element_property_meta_data.html" target="_top" xlink:title="Defines details of a property that can be returned by a FlowElement.">
<polygon fill="none" stroke="black" points="207,-0.5 207,-30.5 354,-30.5 354,-0.5 207,-0.5"/>
<text text-anchor="start" x="215" y="-18.5" font-family="Helvetica,sans-Serif" font-size="10.00">fiftyone.pipeline.core.data.</text>
<text text-anchor="middle" x="280.5" y="-7.5" font-family="Helvetica,sans-Serif" font-size="10.00">ElementPropertyMetaData</text>
</a>
</g>
</g>
<!-- Node7&#45;&gt;Node1 -->
<g id="edge9" class="edge">
<title>Node7&#45;&gt;Node1</title>
<path fill="none" stroke="orange" stroke-dasharray="5,2" d="M364.11,-14.52C502.36,-13.76 789.16,-15.98 1030,-42.5 1041.93,-43.81 1054.42,-45.6 1066.73,-47.6"/>
<polygon fill="orange" stroke="orange" points="363.99,-11.02 354.01,-14.58 364.03,-18.02 363.99,-11.02"/>
<text text-anchor="middle" x="766.5" y="-28.5" font-family="Helvetica,sans-Serif" font-size="10.00"> TProperty</text>
</g>
<!-- Node7&#45;&gt;Node3 -->
<g id="edge7" class="edge">
<title>Node7&#45;&gt;Node3</title>
<path fill="none" stroke="orange" stroke-dasharray="5,2" d="M364.08,-30.28C391.48,-35.18 422.51,-40.73 451.88,-45.99"/>
<polygon fill="orange" stroke="orange" points="364.62,-26.82 354.15,-28.5 363.38,-33.71 364.62,-26.82"/>
<text text-anchor="middle" x="397.5" y="-42.5" font-family="Helvetica,sans-Serif" font-size="10.00"> TProperty</text>
</g>
</g>
</svg>
