<?xml version="1.0" encoding="UTF-8" standalone="no"?>
<!DOCTYPE svg PUBLIC "-//W3C//DTD SVG 1.1//EN"
 "http://www.w3.org/Graphics/SVG/1.1/DTD/svg11.dtd">
<!-- Generated by graphviz version 2.43.0 (0)
 -->
<!-- Title: fiftyone.pipeline.engines.caching.DataKeyedCacheBase&lt; V &gt; Pages: 1 -->
<svg width="1380pt" height="186pt"
 viewBox="0.00 0.00 1380.00 186.00" xmlns="http://www.w3.org/2000/svg" xmlns:xlink="http://www.w3.org/1999/xlink">
<g id="graph0" class="graph" transform="scale(1 1) rotate(0) translate(4 182)">
<title>fiftyone.pipeline.engines.caching.DataKeyedCacheBase&lt; V &gt;</title>
<!-- Node0 -->
<g id="node1" class="node">
<title>Node0</title>
<g id="a_node1"><a xlink:title="Abstract base class for caches that use FlowData as the key.">
<polygon fill="#bfbfbf" stroke="black" points="589,-49.5 589,-79.5 769,-79.5 769,-49.5 589,-49.5"/>
<text text-anchor="start" x="597" y="-67.5" font-family="Helvetica,sans-Serif" font-size="10.00">fiftyone.pipeline.engines.caching.</text>
<text text-anchor="middle" x="679" y="-56.5" font-family="Helvetica,sans-Serif" font-size="10.00">DataKeyedCacheBase&lt; V &gt;</text>
</a>
</g>
</g>
<!-- Node5 -->
<g id="node6" class="node">
<title>Node5</title>
<g id="a_node6"><a xlink:href="classfiftyone_1_1pipeline_1_1engines_1_1trackers_1_1_tracker_base.html" target="_top" xlink:title="The abstract base class for trackers.">
<polygon fill="none" stroke="black" points="945,-99 945,-140 1055,-140 1055,-99 945,-99"/>
<text text-anchor="start" x="953" y="-128" font-family="Helvetica,sans-Serif" font-size="10.00">fiftyone::pipeline</text>
<text text-anchor="start" x="953" y="-117" font-family="Helvetica,sans-Serif" font-size="10.00">::engines::trackers</text>
<text text-anchor="middle" x="1000" y="-106" font-family="Helvetica,sans-Serif" font-size="10.00">::TrackerBase&lt; T &gt;</text>
</a>
</g>
</g>
<!-- Node0&#45;&gt;Node5 -->
<g id="edge5" class="edge">
<title>Node0&#45;&gt;Node5</title>
<path fill="none" stroke="midnightblue" d="M777.31,-81.28C832.38,-90.77 899.19,-102.29 944.98,-110.19"/>
<polygon fill="midnightblue" stroke="midnightblue" points="777.62,-77.78 767.17,-79.53 776.43,-84.68 777.62,-77.78"/>
</g>
<!-- Node8 -->
<g id="node9" class="node">
<title>Node8</title>
<g id="a_node9"><a xlink:href="classfiftyone_1_1pipeline_1_1engines_1_1caching_1_1_data_keyed_cache_base.html" target="_top" xlink:title=" ">
<polygon fill="none" stroke="black" points="910,-49.5 910,-79.5 1090,-79.5 1090,-49.5 910,-49.5"/>
<text text-anchor="start" x="918" y="-67.5" font-family="Helvetica,sans-Serif" font-size="10.00">fiftyone.pipeline.engines.caching.</text>
<text text-anchor="middle" x="1000" y="-56.5" font-family="Helvetica,sans-Serif" font-size="10.00">DataKeyedCacheBase&lt; T &gt;</text>
</a>
</g>
</g>
<!-- Node0&#45;&gt;Node8 -->
<g id="edge8" class="edge">
<title>Node0&#45;&gt;Node8</title>
<path fill="none" stroke="orange" stroke-dasharray="5,2" d="M779.45,-64.5C821.13,-64.5 869.21,-64.5 909.74,-64.5"/>
<polygon fill="orange" stroke="orange" points="779.28,-61 769.28,-64.5 779.28,-68 779.28,-61"/>
<text text-anchor="middle" x="832" y="-67.5" font-family="Helvetica,sans-Serif" font-size="10.00"> &lt; T &gt;</text>
</g>
<!-- Node9 -->
<g id="node10" class="node">
<title>Node9</title>
<g id="a_node10"><a xlink:href="classfiftyone_1_1pipeline_1_1engines_1_1caching_1_1_data_keyed_cache_base.html" target="_top" xlink:title=" ">
<polygon fill="none" stroke="black" points="895,-0.5 895,-30.5 1105,-30.5 1105,-0.5 895,-0.5"/>
<text text-anchor="start" x="903" y="-18.5" font-family="Helvetica,sans-Serif" font-size="10.00">fiftyone.pipeline.engines.caching.</text>
<text text-anchor="middle" x="1000" y="-7.5" font-family="Helvetica,sans-Serif" font-size="10.00">DataKeyedCacheBase&lt; ElementData &gt;</text>
</a>
</g>
</g>
<!-- Node0&#45;&gt;Node9 -->
<g id="edge9" class="edge">
<title>Node0&#45;&gt;Node9</title>
<path fill="none" stroke="orange" stroke-dasharray="5,2" d="M779.55,-49.21C818.36,-43.25 862.71,-36.43 901.34,-30.5"/>
<polygon fill="orange" stroke="orange" points="778.64,-45.81 769.28,-50.79 779.7,-52.73 778.64,-45.81"/>
<text text-anchor="middle" x="832" y="-50.5" font-family="Helvetica,sans-Serif" font-size="10.00"> &lt; ElementData &gt;</text>
</g>
<!-- Node1 -->
<g id="node2" class="node">
<title>Node1</title>
<g id="a_node2"><a xlink:href="interfacefiftyone_1_1pipeline_1_1engines_1_1caching_1_1_data_keyed_cache.html" target="_top" xlink:title="Represents a put cache where the key is a FlowData instance.">
<polygon fill="none" stroke="black" points="423,-44 423,-85 552,-85 552,-44 423,-44"/>
<text text-anchor="start" x="431" y="-73" font-family="Helvetica,sans-Serif" font-size="10.00">fiftyone::pipeline</text>
<text text-anchor="start" x="431" y="-62" font-family="Helvetica,sans-Serif" font-size="10.00">::engines::caching::</text>
<text text-anchor="middle" x="487.5" y="-51" font-family="Helvetica,sans-Serif" font-size="10.00">DataKeyedCache&lt; V &gt;</text>
</a>
</g>
</g>
<!-- Node1&#45;&gt;Node0 -->
<g id="edge1" class="edge">
<title>Node1&#45;&gt;Node0</title>
<path fill="none" stroke="midnightblue" d="M562.26,-64.5C571.01,-64.5 580.01,-64.5 588.94,-64.5"/>
<polygon fill="midnightblue" stroke="midnightblue" points="562.13,-61 552.13,-64.5 562.13,-68 562.13,-61"/>
</g>
<!-- Node2 -->
<g id="node3" class="node">
<title>Node2</title>
<g id="a_node3"><a xlink:href="interfacefiftyone_1_1caching_1_1_put_cache.html" target="_top" xlink:title="A cache that supports a thread safe put method for inserting to cache.">
<polygon fill="none" stroke="black" points="242,-49.5 242,-79.5 386,-79.5 386,-49.5 242,-49.5"/>
<text text-anchor="start" x="250" y="-67.5" font-family="Helvetica,sans-Serif" font-size="10.00">fiftyone::caching::</text>
<text text-anchor="middle" x="314" y="-56.5" font-family="Helvetica,sans-Serif" font-size="10.00">PutCache&lt; FlowData, V &gt;</text>
</a>
</g>
</g>
<!-- Node2&#45;&gt;Node1 -->
<g id="edge2" class="edge">
<title>Node2&#45;&gt;Node1</title>
<path fill="none" stroke="midnightblue" d="M396.28,-64.5C405.21,-64.5 414.2,-64.5 422.87,-64.5"/>
<polygon fill="midnightblue" stroke="midnightblue" points="396.24,-61 386.24,-64.5 396.24,-68 396.24,-61"/>
</g>
<!-- Node3 -->
<g id="node4" class="node">
<title>Node3</title>
<g id="a_node4"><a xlink:href="interfacefiftyone_1_1caching_1_1_cache.html" target="_top" xlink:title="Base cache interface which declares only the get method and the types of key and value stored in the ...">
<polygon fill="none" stroke="black" points="102,-49.5 102,-79.5 205,-79.5 205,-49.5 102,-49.5"/>
<text text-anchor="start" x="110" y="-67.5" font-family="Helvetica,sans-Serif" font-size="10.00">fiftyone::caching::</text>
<text text-anchor="middle" x="153.5" y="-56.5" font-family="Helvetica,sans-Serif" font-size="10.00">Cache&lt; K, V &gt;</text>
</a>
</g>
</g>
<!-- Node3&#45;&gt;Node2 -->
<g id="edge3" class="edge">
<title>Node3&#45;&gt;Node2</title>
<path fill="none" stroke="midnightblue" d="M215.15,-64.5C223.87,-64.5 232.9,-64.5 241.8,-64.5"/>
<polygon fill="midnightblue" stroke="midnightblue" points="215.09,-61 205.09,-64.5 215.09,-68 215.09,-61"/>
</g>
<!-- Node4 -->
<g id="node5" class="node">
<title>Node4</title>
<g id="a_node5"><a xlink:title=" ">
<polygon fill="none" stroke="#bfbfbf" points="0,-55 0,-74 65,-74 65,-55 0,-55"/>
<text text-anchor="middle" x="32.5" y="-62" font-family="Helvetica,sans-Serif" font-size="10.00">Closeable</text>
</a>
</g>
</g>
<!-- Node4&#45;&gt;Node3 -->
<g id="edge4" class="edge">
<title>Node4&#45;&gt;Node3</title>
<path fill="none" stroke="midnightblue" d="M75.25,-64.5C83.86,-64.5 93.01,-64.5 101.89,-64.5"/>
<polygon fill="midnightblue" stroke="midnightblue" points="75.08,-61 65.08,-64.5 75.08,-68 75.08,-61"/>
</g>
<!-- Node6 -->
<g id="node7" class="node">
<title>Node6</title>
<g id="a_node7"><a xlink:href="classfiftyone_1_1pipeline_1_1engines_1_1fiftyone_1_1trackers_1_1_share_usage_tracker.html" target="_top" xlink:title="A tracker used by share usage to attempt to avoid repeatedly sending data relating to the same user s...">
<polygon fill="none" stroke="black" points="1200.5,-125.5 1200.5,-177.5 1361.5,-177.5 1361.5,-125.5 1200.5,-125.5"/>
<text text-anchor="start" x="1208.5" y="-165.5" font-family="Helvetica,sans-Serif" font-size="10.00">fiftyone::pipeline</text>
<text text-anchor="start" x="1208.5" y="-154.5" font-family="Helvetica,sans-Serif" font-size="10.00">::engines::fiftyone</text>
<text text-anchor="start" x="1208.5" y="-143.5" font-family="Helvetica,sans-Serif" font-size="10.00">::trackers::ShareUsageTracker</text>
<text text-anchor="middle" x="1281" y="-132.5" font-family="Helvetica,sans-Serif" font-size="10.00">&lt; Date &gt;</text>
</a>
</g>
</g>
<!-- Node5&#45;&gt;Node6 -->
<g id="edge6" class="edge">
<title>Node5&#45;&gt;Node6</title>
<path fill="none" stroke="midnightblue" d="M1065.08,-126.85C1105.32,-131.47 1157.53,-137.45 1200.41,-142.37"/>
<polygon fill="midnightblue" stroke="midnightblue" points="1065.46,-123.37 1055.12,-125.71 1064.66,-130.32 1065.46,-123.37"/>
</g>
<!-- Node7 -->
<g id="node8" class="node">
<title>Node7</title>
<g id="a_node8"><a xlink:href="classfiftyone_1_1pipeline_1_1engines_1_1trackers_1_1_tracker_base.html" target="_top" xlink:title=" ">
<polygon fill="none" stroke="black" points="1190,-76.5 1190,-106.5 1372,-106.5 1372,-76.5 1190,-76.5"/>
<text text-anchor="start" x="1198" y="-94.5" font-family="Helvetica,sans-Serif" font-size="10.00">fiftyone.pipeline.engines.trackers.</text>
<text text-anchor="middle" x="1281" y="-83.5" font-family="Helvetica,sans-Serif" font-size="10.00">TrackerBase&lt; Date &gt;</text>
</a>
</g>
</g>
<!-- Node5&#45;&gt;Node7 -->
<g id="edge7" class="edge">
<title>Node5&#45;&gt;Node7</title>
<path fill="none" stroke="orange" stroke-dasharray="5,2" d="M1065.26,-113.05C1102.21,-109.34 1149.19,-104.63 1189.79,-100.55"/>
<polygon fill="orange" stroke="orange" points="1064.73,-109.59 1055.12,-114.07 1065.42,-116.55 1064.73,-109.59"/>
<text text-anchor="middle" x="1147.5" y="-109.5" font-family="Helvetica,sans-Serif" font-size="10.00"> &lt; Date &gt;</text>
</g>
<!-- Node10 -->
<g id="node11" class="node">
<title>Node10</title>
<g id="a_node11"><a xlink:href="classfiftyone_1_1pipeline_1_1engines_1_1caching_1_1_flow_cache_default.html" target="_top" xlink:title="Default implementation of FlowCache using the DataKeyedCacheBase.">
<polygon fill="none" stroke="black" points="1191,-0.5 1191,-30.5 1371,-30.5 1371,-0.5 1191,-0.5"/>
<text text-anchor="start" x="1199" y="-18.5" font-family="Helvetica,sans-Serif" font-size="10.00">fiftyone.pipeline.engines.caching.</text>
<text text-anchor="middle" x="1281" y="-7.5" font-family="Helvetica,sans-Serif" font-size="10.00">FlowCacheDefault</text>
</a>
</g>
</g>
<!-- Node9&#45;&gt;Node10 -->
<g id="edge10" class="edge">
<title>Node9&#45;&gt;Node10</title>
<path fill="none" stroke="midnightblue" d="M1115.6,-15.5C1140.73,-15.5 1166.97,-15.5 1190.93,-15.5"/>
<polygon fill="midnightblue" stroke="midnightblue" points="1115.29,-12 1105.29,-15.5 1115.29,-19 1115.29,-12"/>
</g>
</g>
</svg>
