<?xml version="1.0" encoding="UTF-8" standalone="no"?>
<!DOCTYPE svg PUBLIC "-//W3C//DTD SVG 1.1//EN"
 "http://www.w3.org/Graphics/SVG/1.1/DTD/svg11.dtd">
<!-- Generated by graphviz version 2.43.0 (0)
 -->
<!-- Title: fiftyone.pipeline.core.exceptions.PipelineDataException Pages: 1 -->
<svg width="205pt" height="162pt"
 viewBox="0.00 0.00 205.00 162.00" xmlns="http://www.w3.org/2000/svg" xmlns:xlink="http://www.w3.org/1999/xlink">
<g id="graph0" class="graph" transform="scale(1 1) rotate(0) translate(4 158)">
<title>fiftyone.pipeline.core.exceptions.PipelineDataException</title>
<!-- Node0 -->
<g id="node1" class="node">
<title>Node0</title>
<g id="a_node1"><a xlink:title="Exception that can be thrown when the available data does not match that which is expected.">
<polygon fill="#bfbfbf" stroke="black" points="9,-67.5 9,-97.5 188,-97.5 188,-67.5 9,-67.5"/>
<text text-anchor="start" x="17" y="-85.5" font-family="Helvetica,sans-Serif" font-size="10.00">fiftyone.pipeline.core.exceptions.</text>
<text text-anchor="middle" x="98.5" y="-74.5" font-family="Helvetica,sans-Serif" font-size="10.00">PipelineDataException</text>
</a>
</g>
</g>
<!-- Node2 -->
<g id="node3" class="node">
<title>Node2</title>
<g id="a_node3"><a xlink:href="classfiftyone_1_1pipeline_1_1cloudrequestengine_1_1_cloud_request_exception.html" target="_top" xlink:title="Exception that can be thrown by the Cloud Engines.">
<polygon fill="none" stroke="black" points="0,-0.5 0,-30.5 197,-30.5 197,-0.5 0,-0.5"/>
<text text-anchor="start" x="8" y="-18.5" font-family="Helvetica,sans-Serif" font-size="10.00">fiftyone.pipeline.cloudrequestengine.</text>
<text text-anchor="middle" x="98.5" y="-7.5" font-family="Helvetica,sans-Serif" font-size="10.00">CloudRequestException</text>
</a>
</g>
</g>
<!-- Node0&#45;&gt;Node2 -->
<g id="edge2" class="edge">
<title>Node0&#45;&gt;Node2</title>
<path fill="none" stroke="midnightblue" d="M98.5,-57.11C98.5,-48.15 98.5,-38.32 98.5,-30.58"/>
<polygon fill="midnightblue" stroke="midnightblue" points="95,-57.4 98.5,-67.4 102,-57.4 95,-57.4"/>
</g>
<!-- Node1 -->
<g id="node2" class="node">
<title>Node1</title>
<g id="a_node2"><a xlink:title=" ">
<polygon fill="none" stroke="#bfbfbf" points="45.5,-134.5 45.5,-153.5 151.5,-153.5 151.5,-134.5 45.5,-134.5"/>
<text text-anchor="middle" x="98.5" y="-141.5" font-family="Helvetica,sans-Serif" font-size="10.00">RuntimeException</text>
</a>
</g>
</g>
<!-- Node1&#45;&gt;Node0 -->
<g id="edge1" class="edge">
<title>Node1&#45;&gt;Node0</title>
<path fill="none" stroke="midnightblue" d="M98.5,-124.23C98.5,-115.59 98.5,-105.5 98.5,-97.52"/>
<polygon fill="midnightblue" stroke="midnightblue" points="95,-124.48 98.5,-134.48 102,-124.48 95,-124.48"/>
</g>
</g>
</svg>
