<?xml version="1.0" encoding="UTF-8" standalone="no"?>
<!DOCTYPE svg PUBLIC "-//W3C//DTD SVG 1.1//EN"
 "http://www.w3.org/Graphics/SVG/1.1/DTD/svg11.dtd">
<!-- Generated by graphviz version 2.43.0 (0)
 -->
<!-- Title: fiftyone.common.wrappers.io.FileWrapperMemory Pages: 1 -->
<svg width="322pt" height="117pt"
 viewBox="0.00 0.00 322.00 117.00" xmlns="http://www.w3.org/2000/svg" xmlns:xlink="http://www.w3.org/1999/xlink">
<g id="graph0" class="graph" transform="scale(1 1) rotate(0) translate(4 113)">
<title>fiftyone.common.wrappers.io.FileWrapperMemory</title>
<!-- Node2 -->
<g id="node1" class="node">
<title>Node2</title>
<g id="a_node1"><a xlink:title="In memory implementation of the FileWrapperFactory.">
<polygon fill="#bfbfbf" stroke="black" points="83,-0.5 83,-30.5 245,-30.5 245,-0.5 83,-0.5"/>
<text text-anchor="start" x="91" y="-18.5" font-family="Helvetica,sans-Serif" font-size="10.00">fiftyone.common.wrappers.io.</text>
<text text-anchor="middle" x="164" y="-7.5" font-family="Helvetica,sans-Serif" font-size="10.00">FileWrapperMemory</text>
</a>
</g>
</g>
<!-- Node3 -->
<g id="node2" class="node">
<title>Node3</title>
<g id="a_node2"><a xlink:href="interfacefiftyone_1_1common_1_1wrappers_1_1io_1_1_file_wrapper.html" target="_top" xlink:title="Interface for a data file.">
<polygon fill="none" stroke="black" points="0,-78.5 0,-108.5 162,-108.5 162,-78.5 0,-78.5"/>
<text text-anchor="start" x="8" y="-96.5" font-family="Helvetica,sans-Serif" font-size="10.00">fiftyone.common.wrappers.io.</text>
<text text-anchor="middle" x="81" y="-85.5" font-family="Helvetica,sans-Serif" font-size="10.00">FileWrapper</text>
</a>
</g>
</g>
<!-- Node3&#45;&gt;Node2 -->
<g id="edge1" class="edge">
<title>Node3&#45;&gt;Node2</title>
<path fill="none" stroke="midnightblue" d="M104.05,-71.39C118.21,-58.43 135.96,-42.18 148.46,-30.73"/>
<polygon fill="midnightblue" stroke="midnightblue" points="101.62,-68.87 96.61,-78.2 106.35,-74.03 101.62,-68.87"/>
</g>
<!-- Node4 -->
<g id="node3" class="node">
<title>Node4</title>
<g id="a_node3"><a xlink:title=" ">
<polygon fill="none" stroke="#bfbfbf" points="180,-84 180,-103 314,-103 314,-84 180,-84"/>
<text text-anchor="middle" x="247" y="-91" font-family="Helvetica,sans-Serif" font-size="10.00">ByteArrayOutputStream</text>
</a>
</g>
</g>
<!-- Node4&#45;&gt;Node2 -->
<g id="edge2" class="edge">
<title>Node4&#45;&gt;Node2</title>
<path fill="none" stroke="#9a32cd" stroke-dasharray="5,2" d="M229.97,-76.9C215.08,-63.27 193.66,-43.66 179.31,-30.52"/>
<polygon fill="#9a32cd" stroke="#9a32cd" points="227.74,-79.61 237.48,-83.78 232.47,-74.45 227.74,-79.61"/>
<text text-anchor="middle" x="246" y="-52" font-family="Helvetica,sans-Serif" font-size="10.00"> outputStream</text>
</g>
</g>
</svg>
