<?xml version="1.0" encoding="UTF-8" standalone="no"?>
<!DOCTYPE svg PUBLIC "-//W3C//DTD SVG 1.1//EN"
 "http://www.w3.org/Graphics/SVG/1.1/DTD/svg11.dtd">
<!-- Generated by graphviz version 2.43.0 (0)
 -->
<!-- Title: fiftyone.pipeline.cloudrequestengine.flowelements.CloudRequestEngineDefault Pages: 1 -->
<svg width="2242pt" height="388pt"
 viewBox="0.00 0.00 2242.00 387.89" xmlns="http://www.w3.org/2000/svg" xmlns:xlink="http://www.w3.org/1999/xlink">
<g id="graph0" class="graph" transform="scale(1 1) rotate(0) translate(4 383.89)">
<title>fiftyone.pipeline.cloudrequestengine.flowelements.CloudRequestEngineDefault</title>
<!-- Node0 -->
<g id="node1" class="node">
<title>Node0</title>
<g id="a_node1"><a xlink:title="Engine that makes requests to the 51Degrees cloud service.">
<polygon fill="#bfbfbf" stroke="black" points="1968,-152.89 1968,-182.89 2234,-182.89 2234,-152.89 1968,-152.89"/>
<text text-anchor="start" x="1976" y="-170.89" font-family="Helvetica,sans-Serif" font-size="10.00">fiftyone.pipeline.cloudrequestengine.flowelements.</text>
<text text-anchor="middle" x="2101" y="-159.89" font-family="Helvetica,sans-Serif" font-size="10.00">CloudRequestEngineDefault</text>
</a>
</g>
</g>
<!-- Node1 -->
<g id="node2" class="node">
<title>Node1</title>
<g id="a_node2"><a xlink:href="classfiftyone_1_1pipeline_1_1engines_1_1flowelements_1_1_aspect_engine_base.html" target="_top" xlink:title="Base class for AspectEngines to extend.">
<polygon fill="none" stroke="black" points="1740,-228.89 1740,-280.89 1931,-280.89 1931,-228.89 1740,-228.89"/>
<text text-anchor="start" x="1748" y="-268.89" font-family="Helvetica,sans-Serif" font-size="10.00">fiftyone::pipeline</text>
<text text-anchor="start" x="1748" y="-257.89" font-family="Helvetica,sans-Serif" font-size="10.00">::engines::flowelements</text>
<text text-anchor="start" x="1748" y="-246.89" font-family="Helvetica,sans-Serif" font-size="10.00">::AspectEngineBase&lt; CloudRequest</text>
<text text-anchor="middle" x="1835.5" y="-235.89" font-family="Helvetica,sans-Serif" font-size="10.00">Data, AspectPropertyMetaData &gt;</text>
</a>
</g>
</g>
<!-- Node1&#45;&gt;Node0 -->
<g id="edge1" class="edge">
<title>Node1&#45;&gt;Node0</title>
<path fill="none" stroke="midnightblue" d="M1925.26,-225.58C1968.58,-211.28 2018.86,-194.68 2054.33,-182.97"/>
<polygon fill="midnightblue" stroke="midnightblue" points="1923.96,-222.33 1915.56,-228.79 1926.15,-228.98 1923.96,-222.33"/>
</g>
<!-- Node2 -->
<g id="node3" class="node">
<title>Node2</title>
<g id="a_node3"><a xlink:href="classfiftyone_1_1pipeline_1_1core_1_1flowelements_1_1_flow_element_base.html" target="_top" xlink:title="Provides a base class from which authors may create new FlowElements.">
<polygon fill="none" stroke="black" points="1256.5,-288.89 1256.5,-340.89 1410.5,-340.89 1410.5,-288.89 1256.5,-288.89"/>
<text text-anchor="start" x="1264.5" y="-328.89" font-family="Helvetica,sans-Serif" font-size="10.00">fiftyone::pipeline</text>
<text text-anchor="start" x="1264.5" y="-317.89" font-family="Helvetica,sans-Serif" font-size="10.00">::core::flowelements</text>
<text text-anchor="start" x="1264.5" y="-306.89" font-family="Helvetica,sans-Serif" font-size="10.00">::FlowElementBase&lt; TData,</text>
<text text-anchor="middle" x="1333.5" y="-295.89" font-family="Helvetica,sans-Serif" font-size="10.00"> TProperty &gt;</text>
</a>
</g>
</g>
<!-- Node2&#45;&gt;Node1 -->
<g id="edge2" class="edge">
<title>Node2&#45;&gt;Node1</title>
<path fill="none" stroke="midnightblue" d="M1420.94,-304.77C1499.49,-295.54 1618.54,-281.47 1722,-268.89 1727.86,-268.18 1733.89,-267.44 1739.98,-266.69"/>
<polygon fill="midnightblue" stroke="midnightblue" points="1420.14,-301.34 1410.62,-305.98 1420.96,-308.29 1420.14,-301.34"/>
</g>
<!-- Node3 -->
<g id="node4" class="node">
<title>Node3</title>
<g id="a_node4"><a xlink:href="interfacefiftyone_1_1pipeline_1_1core_1_1flowelements_1_1_flow_element.html" target="_top" xlink:title=" ">
<polygon fill="none" stroke="black" points="866,-299.89 866,-329.89 1057,-329.89 1057,-299.89 866,-299.89"/>
<text text-anchor="start" x="874" y="-317.89" font-family="Helvetica,sans-Serif" font-size="10.00">fiftyone.pipeline.core.flowelements.</text>
<text text-anchor="middle" x="961.5" y="-306.89" font-family="Helvetica,sans-Serif" font-size="10.00">FlowElement&lt; TData, TProperty &gt;</text>
</a>
</g>
</g>
<!-- Node3&#45;&gt;Node2 -->
<g id="edge3" class="edge">
<title>Node3&#45;&gt;Node2</title>
<path fill="none" stroke="midnightblue" d="M1067.59,-314.89C1127.71,-314.89 1201.76,-314.89 1256.28,-314.89"/>
<polygon fill="midnightblue" stroke="midnightblue" points="1067.3,-311.39 1057.3,-314.89 1067.3,-318.39 1067.3,-311.39"/>
</g>
<!-- Node4 -->
<g id="node5" class="node">
<title>Node4</title>
<g id="a_node5"><a xlink:href="interfacefiftyone_1_1pipeline_1_1core_1_1flowelements_1_1_flow_element.html" target="_top" xlink:title="A component that processes a FlowData (by examining its evidence, or by examining data processed by o...">
<polygon fill="none" stroke="black" points="441,-239.39 441,-280.39 694,-280.39 694,-239.39 441,-239.39"/>
<text text-anchor="start" x="449" y="-268.39" font-family="Helvetica,sans-Serif" font-size="10.00">fiftyone.pipeline.core.flowelements.</text>
<text text-anchor="start" x="449" y="-257.39" font-family="Helvetica,sans-Serif" font-size="10.00">FlowElement&lt; TData extends ElementData,</text>
<text text-anchor="middle" x="567.5" y="-246.39" font-family="Helvetica,sans-Serif" font-size="10.00"> TProperty extends ElementPropertyMetaData &gt;</text>
</a>
</g>
</g>
<!-- Node4&#45;&gt;Node3 -->
<g id="edge4" class="edge">
<title>Node4&#45;&gt;Node3</title>
<path fill="none" stroke="orange" stroke-dasharray="5,2" d="M679.6,-283.9C684.52,-285.76 689.35,-287.76 694,-289.89 702.97,-294 702.69,-299.63 712,-302.89 760.82,-319.99 818.34,-323.71 865.74,-322.84"/>
<polygon fill="orange" stroke="orange" points="680.62,-280.55 670.02,-280.49 678.27,-287.15 680.62,-280.55"/>
<text text-anchor="middle" x="766.5" y="-324.89" font-family="Helvetica,sans-Serif" font-size="10.00"> &lt; TData, TProperty &gt;</text>
</g>
<!-- Node5 -->
<g id="node6" class="node">
<title>Node5</title>
<g id="a_node6"><a xlink:title=" ">
<polygon fill="none" stroke="#bfbfbf" points="237,-170.39 237,-189.39 324,-189.39 324,-170.39 237,-170.39"/>
<text text-anchor="middle" x="280.5" y="-177.39" font-family="Helvetica,sans-Serif" font-size="10.00">AutoCloseable</text>
</a>
</g>
</g>
<!-- Node5&#45;&gt;Node4 -->
<g id="edge5" class="edge">
<title>Node5&#45;&gt;Node4</title>
<path fill="none" stroke="midnightblue" d="M298.35,-197.11C315.28,-213.18 342.98,-236.23 372,-246.89 393.6,-254.82 417.45,-259.46 440.83,-261.99"/>
<polygon fill="midnightblue" stroke="midnightblue" points="300.53,-194.35 290.94,-189.87 295.64,-199.36 300.53,-194.35"/>
</g>
<!-- Node11 -->
<g id="node12" class="node">
<title>Node11</title>
<g id="a_node12"><a xlink:href="interfacefiftyone_1_1pipeline_1_1core_1_1flowelements_1_1_flow_element.html" target="_top" xlink:title="A component that processes a FlowData (by examining its evidence, or by examining data processed by o...">
<polygon fill="none" stroke="black" points="502.5,-146.89 502.5,-198.89 632.5,-198.89 632.5,-146.89 502.5,-146.89"/>
<text text-anchor="start" x="510.5" y="-186.89" font-family="Helvetica,sans-Serif" font-size="10.00">fiftyone::pipeline</text>
<text text-anchor="start" x="510.5" y="-175.89" font-family="Helvetica,sans-Serif" font-size="10.00">::core::flowelements</text>
<text text-anchor="start" x="510.5" y="-164.89" font-family="Helvetica,sans-Serif" font-size="10.00">::FlowElement&lt; TData,</text>
<text text-anchor="middle" x="567.5" y="-153.89" font-family="Helvetica,sans-Serif" font-size="10.00"> TProperty &gt;</text>
</a>
</g>
</g>
<!-- Node5&#45;&gt;Node11 -->
<g id="edge14" class="edge">
<title>Node5&#45;&gt;Node11</title>
<path fill="none" stroke="midnightblue" d="M334.24,-178.59C381.74,-177.43 451.68,-175.71 502.39,-174.46"/>
<polygon fill="midnightblue" stroke="midnightblue" points="334.08,-175.1 324.17,-178.84 334.25,-182.1 334.08,-175.1"/>
</g>
<!-- Node6 -->
<g id="node7" class="node">
<title>Node6</title>
<g id="a_node7"><a xlink:href="interfacefiftyone_1_1pipeline_1_1core_1_1data_1_1_element_data.html" target="_top" xlink:title="Represents property values that have be determined by a specific FlowElement based on the supplied ev...">
<polygon fill="none" stroke="black" points="207,-291.89 207,-321.89 354,-321.89 354,-291.89 207,-291.89"/>
<text text-anchor="start" x="215" y="-309.89" font-family="Helvetica,sans-Serif" font-size="10.00">fiftyone.pipeline.core.data.</text>
<text text-anchor="middle" x="280.5" y="-298.89" font-family="Helvetica,sans-Serif" font-size="10.00">ElementData</text>
</a>
</g>
</g>
<!-- Node6&#45;&gt;Node2 -->
<g id="edge9" class="edge">
<title>Node6&#45;&gt;Node2</title>
<path fill="none" stroke="orange" stroke-dasharray="5,2" d="M349.86,-324.23C377.9,-330.5 410.81,-336.8 441,-339.89 725.29,-368.99 798.49,-352.23 1084,-339.89 1141.94,-337.39 1207.17,-330.67 1256.26,-324.83"/>
<polygon fill="orange" stroke="orange" points="350.29,-320.73 339.76,-321.92 348.73,-327.56 350.29,-320.73"/>
<text text-anchor="middle" x="766.5" y="-358.89" font-family="Helvetica,sans-Serif" font-size="10.00"> TData</text>
</g>
<!-- Node6&#45;&gt;Node4 -->
<g id="edge6" class="edge">
<title>Node6&#45;&gt;Node4</title>
<path fill="none" stroke="orange" stroke-dasharray="5,2" d="M364.04,-293.28C388.38,-289.26 415.57,-284.78 441.93,-280.43"/>
<polygon fill="orange" stroke="orange" points="363.45,-289.83 354.15,-294.91 364.59,-296.73 363.45,-289.83"/>
<text text-anchor="middle" x="397.5" y="-294.89" font-family="Helvetica,sans-Serif" font-size="10.00"> TData</text>
</g>
<!-- Node6&#45;&gt;Node11 -->
<g id="edge15" class="edge">
<title>Node6&#45;&gt;Node11</title>
<path fill="none" stroke="orange" stroke-dasharray="5,2" d="M321.37,-287.32C353.56,-271.6 400.07,-249.06 441,-229.89 462.89,-219.64 487.04,-208.6 508.26,-199"/>
<polygon fill="orange" stroke="orange" points="319.72,-284.23 312.27,-291.77 322.79,-290.52 319.72,-284.23"/>
<text text-anchor="middle" x="397.5" y="-264.89" font-family="Helvetica,sans-Serif" font-size="10.00"> TData</text>
</g>
<!-- Node12 -->
<g id="node13" class="node">
<title>Node12</title>
<g id="a_node13"><a xlink:href="interfacefiftyone_1_1pipeline_1_1engines_1_1data_1_1_aspect_data.html" target="_top" xlink:title="Represents a specialized ElementData instance that is generated by an AspectEngine.">
<polygon fill="none" stroke="black" points="485.5,-299.89 485.5,-329.89 649.5,-329.89 649.5,-299.89 485.5,-299.89"/>
<text text-anchor="start" x="493.5" y="-317.89" font-family="Helvetica,sans-Serif" font-size="10.00">fiftyone.pipeline.engines.data.</text>
<text text-anchor="middle" x="567.5" y="-306.89" font-family="Helvetica,sans-Serif" font-size="10.00">AspectData</text>
</a>
</g>
</g>
<!-- Node6&#45;&gt;Node12 -->
<g id="edge18" class="edge">
<title>Node6&#45;&gt;Node12</title>
<path fill="none" stroke="midnightblue" d="M364.2,-309.21C402.35,-310.28 447.49,-311.55 485.43,-312.61"/>
<polygon fill="midnightblue" stroke="midnightblue" points="364.25,-305.71 354.15,-308.93 364.05,-312.71 364.25,-305.71"/>
</g>
<!-- Node7 -->
<g id="node8" class="node">
<title>Node7</title>
<g id="a_node8"><a xlink:href="interfacefiftyone_1_1pipeline_1_1core_1_1data_1_1_data.html" target="_top" xlink:title="Represents a collection of property values.">
<polygon fill="none" stroke="black" points="0,-297.39 0,-316.39 170,-316.39 170,-297.39 0,-297.39"/>
<text text-anchor="middle" x="85" y="-304.39" font-family="Helvetica,sans-Serif" font-size="10.00">fiftyone.pipeline.core.data.Data</text>
</a>
</g>
</g>
<!-- Node7&#45;&gt;Node6 -->
<g id="edge7" class="edge">
<title>Node7&#45;&gt;Node6</title>
<path fill="none" stroke="midnightblue" d="M180.11,-306.89C189.07,-306.89 198.06,-306.89 206.77,-306.89"/>
<polygon fill="midnightblue" stroke="midnightblue" points="180.03,-303.39 170.03,-306.89 180.03,-310.39 180.03,-303.39"/>
</g>
<!-- Node8 -->
<g id="node9" class="node">
<title>Node8</title>
<g id="a_node9"><a xlink:href="interfacefiftyone_1_1pipeline_1_1core_1_1data_1_1_element_property_meta_data.html" target="_top" xlink:title="Defines details of a property that can be returned by a FlowElement.">
<polygon fill="none" stroke="black" points="207,-113.89 207,-143.89 354,-143.89 354,-113.89 207,-113.89"/>
<text text-anchor="start" x="215" y="-131.89" font-family="Helvetica,sans-Serif" font-size="10.00">fiftyone.pipeline.core.data.</text>
<text text-anchor="middle" x="280.5" y="-120.89" font-family="Helvetica,sans-Serif" font-size="10.00">ElementPropertyMetaData</text>
</a>
</g>
</g>
<!-- Node8&#45;&gt;Node2 -->
<g id="edge10" class="edge">
<title>Node8&#45;&gt;Node2</title>
<path fill="none" stroke="orange" stroke-dasharray="5,2" d="M326.58,-110.09C476.18,-51.02 960.93,113.11 1211,-126.89 1260.08,-173.99 1186.39,-225.86 1229,-278.89 1236.27,-287.94 1245.95,-294.71 1256.48,-299.79"/>
<polygon fill="orange" stroke="orange" points="325.21,-106.87 317.21,-113.82 327.8,-113.37 325.21,-106.87"/>
<text text-anchor="middle" x="766.5" y="-11.89" font-family="Helvetica,sans-Serif" font-size="10.00"> TProperty</text>
</g>
<!-- Node8&#45;&gt;Node4 -->
<g id="edge8" class="edge">
<title>Node8&#45;&gt;Node4</title>
<path fill="none" stroke="orange" stroke-dasharray="5,2" d="M326.52,-148.1C335.68,-152.19 345.2,-156.58 354,-160.89 393.47,-180.22 401.31,-189.01 441,-207.89 464.43,-219.04 490.89,-230.2 513.46,-239.32"/>
<polygon fill="orange" stroke="orange" points="327.72,-144.8 317.16,-143.96 324.89,-151.2 327.72,-144.8"/>
<text text-anchor="middle" x="397.5" y="-201.89" font-family="Helvetica,sans-Serif" font-size="10.00"> TProperty</text>
</g>
<!-- Node8&#45;&gt;Node11 -->
<g id="edge16" class="edge">
<title>Node8&#45;&gt;Node11</title>
<path fill="none" stroke="orange" stroke-dasharray="5,2" d="M364.25,-141.66C408.2,-148.45 461.42,-156.67 502.23,-162.97"/>
<polygon fill="orange" stroke="orange" points="364.57,-138.17 354.15,-140.11 363.5,-145.09 364.57,-138.17"/>
<text text-anchor="middle" x="397.5" y="-152.89" font-family="Helvetica,sans-Serif" font-size="10.00"> TProperty</text>
</g>
<!-- Node13 -->
<g id="node14" class="node">
<title>Node13</title>
<g id="a_node14"><a xlink:href="interfacefiftyone_1_1pipeline_1_1engines_1_1data_1_1_aspect_property_meta_data.html" target="_top" xlink:title="Holds details about a property that can be returned by an AspectEngine.">
<polygon fill="none" stroke="black" points="485.5,-97.89 485.5,-127.89 649.5,-127.89 649.5,-97.89 485.5,-97.89"/>
<text text-anchor="start" x="493.5" y="-115.89" font-family="Helvetica,sans-Serif" font-size="10.00">fiftyone.pipeline.engines.data.</text>
<text text-anchor="middle" x="567.5" y="-104.89" font-family="Helvetica,sans-Serif" font-size="10.00">AspectPropertyMetaData</text>
</a>
</g>
</g>
<!-- Node8&#45;&gt;Node13 -->
<g id="edge20" class="edge">
<title>Node8&#45;&gt;Node13</title>
<path fill="none" stroke="midnightblue" d="M364.26,-123.35C366.87,-123.19 369.46,-123.04 372,-122.89 409.13,-120.7 450.26,-118.55 485.1,-116.81"/>
<polygon fill="midnightblue" stroke="midnightblue" points="363.87,-119.87 354.11,-123.98 364.3,-126.86 363.87,-119.87"/>
</g>
<!-- Node9 -->
<g id="node10" class="node">
<title>Node9</title>
<g id="a_node10"><a xlink:href="interfacefiftyone_1_1pipeline_1_1engines_1_1flowelements_1_1_aspect_engine.html" target="_top" xlink:title=" ">
<polygon fill="none" stroke="black" points="1229,-239.89 1229,-269.89 1438,-269.89 1438,-239.89 1229,-239.89"/>
<text text-anchor="start" x="1237" y="-257.89" font-family="Helvetica,sans-Serif" font-size="10.00">fiftyone.pipeline.engines.flowelements.</text>
<text text-anchor="middle" x="1333.5" y="-246.89" font-family="Helvetica,sans-Serif" font-size="10.00">AspectEngine&lt; TData, TProperty &gt;</text>
</a>
</g>
</g>
<!-- Node9&#45;&gt;Node1 -->
<g id="edge11" class="edge">
<title>Node9&#45;&gt;Node1</title>
<path fill="none" stroke="midnightblue" d="M1448.14,-254.89C1536.28,-254.89 1656.99,-254.89 1739.91,-254.89"/>
<polygon fill="midnightblue" stroke="midnightblue" points="1448.1,-251.39 1438.1,-254.89 1448.1,-258.39 1448.1,-251.39"/>
</g>
<!-- Node10 -->
<g id="node11" class="node">
<title>Node10</title>
<g id="a_node11"><a xlink:href="interfacefiftyone_1_1pipeline_1_1engines_1_1flowelements_1_1_aspect_engine.html" target="_top" xlink:title="AspectEngines are a subset of FlowElements.">
<polygon fill="none" stroke="black" points="839,-236.39 839,-277.39 1084,-277.39 1084,-236.39 839,-236.39"/>
<text text-anchor="start" x="847" y="-265.39" font-family="Helvetica,sans-Serif" font-size="10.00">fiftyone.pipeline.engines.flowelements.</text>
<text text-anchor="start" x="847" y="-254.39" font-family="Helvetica,sans-Serif" font-size="10.00">AspectEngine&lt; TData extends AspectData,</text>
<text text-anchor="middle" x="961.5" y="-243.39" font-family="Helvetica,sans-Serif" font-size="10.00"> TProperty extends AspectPropertyMetaData &gt;</text>
</a>
</g>
</g>
<!-- Node10&#45;&gt;Node9 -->
<g id="edge12" class="edge">
<title>Node10&#45;&gt;Node9</title>
<path fill="none" stroke="orange" stroke-dasharray="5,2" d="M1094.39,-256.18C1138.53,-255.94 1187.07,-255.68 1228.74,-255.45"/>
<polygon fill="orange" stroke="orange" points="1094.15,-252.68 1084.16,-256.23 1094.18,-259.68 1094.15,-252.68"/>
<text text-anchor="middle" x="1156.5" y="-259.89" font-family="Helvetica,sans-Serif" font-size="10.00"> &lt; TData, TProperty &gt;</text>
</g>
<!-- Node11&#45;&gt;Node10 -->
<g id="edge13" class="edge">
<title>Node11&#45;&gt;Node10</title>
<path fill="none" stroke="midnightblue" d="M642.11,-202.84C659.53,-210.87 677.76,-220.07 694,-229.89 702.67,-235.13 702.5,-240.35 712,-243.89 751.67,-258.67 797.39,-264.04 838.71,-265.04"/>
<polygon fill="midnightblue" stroke="midnightblue" points="643.09,-199.44 632.54,-198.5 640.2,-205.81 643.09,-199.44"/>
</g>
<!-- Node15 -->
<g id="node16" class="node">
<title>Node15</title>
<g id="a_node16"><a xlink:href="interfacefiftyone_1_1pipeline_1_1engines_1_1flowelements_1_1_aspect_engine.html" target="_top" xlink:title="AspectEngines are a subset of FlowElements.">
<polygon fill="none" stroke="black" points="864.5,-137.89 864.5,-189.89 1058.5,-189.89 1058.5,-137.89 864.5,-137.89"/>
<text text-anchor="start" x="872.5" y="-177.89" font-family="Helvetica,sans-Serif" font-size="10.00">fiftyone::pipeline</text>
<text text-anchor="start" x="872.5" y="-166.89" font-family="Helvetica,sans-Serif" font-size="10.00">::engines::flowelements</text>
<text text-anchor="start" x="872.5" y="-155.89" font-family="Helvetica,sans-Serif" font-size="10.00">::AspectEngine&lt; CloudRequestData,</text>
<text text-anchor="middle" x="961.5" y="-144.89" font-family="Helvetica,sans-Serif" font-size="10.00"> AspectPropertyMetaData &gt;</text>
</a>
</g>
</g>
<!-- Node11&#45;&gt;Node15 -->
<g id="edge25" class="edge">
<title>Node11&#45;&gt;Node15</title>
<path fill="none" stroke="midnightblue" d="M643.01,-171.18C705.79,-169.74 796.01,-167.67 864.25,-166.1"/>
<polygon fill="midnightblue" stroke="midnightblue" points="642.71,-167.69 632.79,-171.41 642.87,-174.68 642.71,-167.69"/>
</g>
<!-- Node12&#45;&gt;Node1 -->
<g id="edge21" class="edge">
<title>Node12&#45;&gt;Node1</title>
<path fill="none" stroke="orange" stroke-dasharray="5,2" d="M606.62,-334.27C634.89,-347.52 674.81,-363.89 712,-370.89 759.61,-379.85 772.56,-371.71 821,-370.89 1095.34,-366.22 1165.15,-378.88 1438,-349.89 1565.52,-336.34 1598.59,-333.74 1722,-298.89 1739.26,-294.02 1757.53,-287.49 1774.23,-280.96"/>
<polygon fill="orange" stroke="orange" points="608.03,-331.07 597.5,-329.92 605.02,-337.39 608.03,-331.07"/>
<text text-anchor="middle" x="1156.5" y="-371.89" font-family="Helvetica,sans-Serif" font-size="10.00"> TData</text>
</g>
<!-- Node12&#45;&gt;Node10 -->
<g id="edge17" class="edge">
<title>Node12&#45;&gt;Node10</title>
<path fill="none" stroke="orange" stroke-dasharray="5,2" d="M659.73,-298.43C677.06,-295.46 695.08,-292.49 712,-289.89 753.19,-283.57 798.33,-277.36 838.71,-272.06"/>
<polygon fill="orange" stroke="orange" points="658.87,-295.02 649.61,-300.17 660.06,-301.92 658.87,-295.02"/>
<text text-anchor="middle" x="766.5" y="-292.89" font-family="Helvetica,sans-Serif" font-size="10.00"> TData</text>
</g>
<!-- Node12&#45;&gt;Node15 -->
<g id="edge26" class="edge">
<title>Node12&#45;&gt;Node15</title>
<path fill="none" stroke="orange" stroke-dasharray="5,2" d="M659.66,-310.11C672.49,-305.85 684.51,-299.43 694,-289.89 723.69,-260.04 681.36,-225.77 712,-196.89 717.75,-191.47 796.97,-181.58 864.44,-174.03"/>
<polygon fill="orange" stroke="orange" points="658.38,-306.83 649.73,-312.95 660.3,-313.56 658.38,-306.83"/>
<text text-anchor="middle" x="766.5" y="-199.89" font-family="Helvetica,sans-Serif" font-size="10.00"> TData</text>
</g>
<!-- Node13&#45;&gt;Node1 -->
<g id="edge22" class="edge">
<title>Node13&#45;&gt;Node1</title>
<path fill="none" stroke="orange" stroke-dasharray="5,2" d="M659.6,-111.74C762.8,-111.32 935.9,-113.28 1084,-127.89 1321.87,-151.36 1598.26,-205.06 1739.99,-234.56"/>
<polygon fill="orange" stroke="orange" points="659.51,-108.24 649.53,-111.79 659.54,-115.24 659.51,-108.24"/>
<text text-anchor="middle" x="1156.5" y="-145.89" font-family="Helvetica,sans-Serif" font-size="10.00"> TProperty</text>
</g>
<!-- Node13&#45;&gt;Node10 -->
<g id="edge19" class="edge">
<title>Node13&#45;&gt;Node10</title>
<path fill="none" stroke="orange" stroke-dasharray="5,2" d="M659.46,-117.41C672.25,-121.51 684.32,-127.71 694,-136.89 718.24,-159.89 687.73,-186.92 712,-209.89 712.68,-210.54 784.06,-224 850.14,-236.35"/>
<polygon fill="orange" stroke="orange" points="660.14,-113.97 649.57,-114.67 658.27,-120.71 660.14,-113.97"/>
<text text-anchor="middle" x="766.5" y="-232.89" font-family="Helvetica,sans-Serif" font-size="10.00"> TProperty</text>
</g>
<!-- Node13&#45;&gt;Node15 -->
<g id="edge27" class="edge">
<title>Node13&#45;&gt;Node15</title>
<path fill="none" stroke="orange" stroke-dasharray="5,2" d="M659.78,-124.77C721.11,-132.74 801.8,-143.24 864.16,-151.36"/>
<polygon fill="orange" stroke="orange" points="660.09,-121.28 649.72,-123.46 659.19,-128.22 660.09,-121.28"/>
<text text-anchor="middle" x="766.5" y="-147.89" font-family="Helvetica,sans-Serif" font-size="10.00"> TProperty</text>
</g>
<!-- Node14 -->
<g id="node15" class="node">
<title>Node14</title>
<g id="a_node15"><a xlink:href="interfacefiftyone_1_1pipeline_1_1cloudrequestengine_1_1flowelements_1_1_cloud_request_engine.html" target="_top" xlink:title="Engine that makes requests to the 51Degrees cloud service based on the details passed at creation and...">
<polygon fill="none" stroke="black" points="1456,-44.89 1456,-74.89 1722,-74.89 1722,-44.89 1456,-44.89"/>
<text text-anchor="start" x="1464" y="-62.89" font-family="Helvetica,sans-Serif" font-size="10.00">fiftyone.pipeline.cloudrequestengine.flowelements.</text>
<text text-anchor="middle" x="1589" y="-51.89" font-family="Helvetica,sans-Serif" font-size="10.00">CloudRequestEngine</text>
</a>
</g>
</g>
<!-- Node14&#45;&gt;Node0 -->
<g id="edge23" class="edge">
<title>Node14&#45;&gt;Node0</title>
<path fill="none" stroke="midnightblue" d="M1670.84,-77.01C1769.51,-97.9 1934.82,-132.91 2028.87,-152.83"/>
<polygon fill="midnightblue" stroke="midnightblue" points="1671.42,-73.55 1660.91,-74.91 1669.97,-80.4 1671.42,-73.55"/>
</g>
<!-- Node15&#45;&gt;Node14 -->
<g id="edge24" class="edge">
<title>Node15&#45;&gt;Node14</title>
<path fill="none" stroke="midnightblue" d="M1006.3,-132.05C1032.66,-114.75 1067.67,-94.89 1102,-84.89 1218.2,-51.06 1356.53,-47.26 1455.84,-50.48"/>
<polygon fill="midnightblue" stroke="midnightblue" points="1004.07,-129.33 997.71,-137.81 1007.97,-135.15 1004.07,-129.33"/>
</g>
</g>
</svg>
