<?xml version="1.0" encoding="UTF-8" standalone="no"?>
<!DOCTYPE svg PUBLIC "-//W3C//DTD SVG 1.1//EN"
 "http://www.w3.org/Graphics/SVG/1.1/DTD/svg11.dtd">
<!-- Generated by graphviz version 2.43.0 (0)
 -->
<!-- Title: fiftyone.common.wrappers.data.BinaryWriter.WritableSeekable.File Pages: 1 -->
<svg width="194pt" height="162pt"
 viewBox="0.00 0.00 194.00 162.00" xmlns="http://www.w3.org/2000/svg" xmlns:xlink="http://www.w3.org/1999/xlink">
<g id="graph0" class="graph" transform="scale(1 1) rotate(0) translate(4 158)">
<title>fiftyone.common.wrappers.data.BinaryWriter.WritableSeekable.File</title>
<!-- Node4 -->
<g id="node1" class="node">
<title>Node4</title>
<g id="a_node1"><a xlink:title=" ">
<polygon fill="#bfbfbf" stroke="black" points="0,-0.5 0,-30.5 186,-30.5 186,-0.5 0,-0.5"/>
<text text-anchor="start" x="8" y="-18.5" font-family="Helvetica,sans-Serif" font-size="10.00">fiftyone.common.wrappers.data.</text>
<text text-anchor="middle" x="93" y="-7.5" font-family="Helvetica,sans-Serif" font-size="10.00">BinaryWriter.WritableSeekable.File</text>
</a>
</g>
</g>
<!-- Node5 -->
<g id="node2" class="node">
<title>Node5</title>
<g id="a_node2"><a xlink:title=" ">
<polygon fill="none" stroke="#bfbfbf" points="5.5,-67.5 5.5,-97.5 180.5,-97.5 180.5,-67.5 5.5,-67.5"/>
<text text-anchor="start" x="13.5" y="-85.5" font-family="Helvetica,sans-Serif" font-size="10.00">fiftyone.common.wrappers.data.</text>
<text text-anchor="middle" x="93" y="-74.5" font-family="Helvetica,sans-Serif" font-size="10.00">BinaryWriter.WritableSeekable</text>
</a>
</g>
</g>
<!-- Node5&#45;&gt;Node4 -->
<g id="edge1" class="edge">
<title>Node5&#45;&gt;Node4</title>
<path fill="none" stroke="midnightblue" d="M93,-57.11C93,-48.15 93,-38.32 93,-30.58"/>
<polygon fill="midnightblue" stroke="midnightblue" points="89.5,-57.4 93,-67.4 96.5,-57.4 89.5,-57.4"/>
</g>
<!-- Node6 -->
<g id="node3" class="node">
<title>Node6</title>
<g id="a_node3"><a xlink:title=" ">
<polygon fill="none" stroke="#bfbfbf" points="19.5,-134.5 19.5,-153.5 84.5,-153.5 84.5,-134.5 19.5,-134.5"/>
<text text-anchor="middle" x="52" y="-141.5" font-family="Helvetica,sans-Serif" font-size="10.00">Closeable</text>
</a>
</g>
</g>
<!-- Node6&#45;&gt;Node5 -->
<g id="edge2" class="edge">
<title>Node6&#45;&gt;Node5</title>
<path fill="none" stroke="midnightblue" d="M63.74,-125.96C69.95,-116.96 77.47,-106.03 83.34,-97.52"/>
<polygon fill="midnightblue" stroke="midnightblue" points="60.67,-124.25 57.87,-134.48 66.43,-128.23 60.67,-124.25"/>
</g>
<!-- Node7 -->
<g id="node4" class="node">
<title>Node7</title>
<g id="a_node4"><a xlink:title=" ">
<polygon fill="none" stroke="#bfbfbf" points="103,-134.5 103,-153.5 167,-153.5 167,-134.5 103,-134.5"/>
<text text-anchor="middle" x="135" y="-141.5" font-family="Helvetica,sans-Serif" font-size="10.00">Flushable</text>
</a>
</g>
</g>
<!-- Node7&#45;&gt;Node5 -->
<g id="edge3" class="edge">
<title>Node7&#45;&gt;Node5</title>
<path fill="none" stroke="midnightblue" d="M123.17,-126.25C116.78,-117.19 108.97,-106.12 102.9,-97.52"/>
<polygon fill="midnightblue" stroke="midnightblue" points="120.36,-128.32 128.98,-134.48 126.07,-124.29 120.36,-128.32"/>
</g>
</g>
</svg>
