<?xml version="1.0" encoding="UTF-8" standalone="no"?>
<!DOCTYPE svg PUBLIC "-//W3C//DTD SVG 1.1//EN"
 "http://www.w3.org/Graphics/SVG/1.1/DTD/svg11.dtd">
<!-- Generated by graphviz version 2.43.0 (0)
 -->
<!-- Title: fiftyone.pipeline.engines.fiftyone.flowelements.FiftyOneOnPremiseAspectEngineBase&lt; TData extends AspectData, TProperty extends FiftyOneAspectPropertyMetaData &gt; Pages: 1 -->
<svg width="3158pt" height="819pt"
 viewBox="0.00 0.00 3158.00 818.50" xmlns="http://www.w3.org/2000/svg" xmlns:xlink="http://www.w3.org/1999/xlink">
<g id="graph0" class="graph" transform="scale(1 1) rotate(0) translate(4 814.5)">
<title>fiftyone.pipeline.engines.fiftyone.flowelements.FiftyOneOnPremiseAspectEngineBase&lt; TData extends AspectData, TProperty extends FiftyOneAspectPropertyMetaData &gt;</title>
<!-- Node23 -->
<g id="node1" class="node">
<title>Node23</title>
<g id="a_node1"><a xlink:title="51Degrees specific engine base class.">
<polygon fill="#bfbfbf" stroke="black" points="2902,-713.5 2902,-765.5 3150,-765.5 3150,-713.5 2902,-713.5"/>
<text text-anchor="start" x="2910" y="-753.5" font-family="Helvetica,sans-Serif" font-size="10.00">fiftyone.pipeline.engines.fiftyone.flowelements.</text>
<text text-anchor="start" x="2910" y="-742.5" font-family="Helvetica,sans-Serif" font-size="10.00">FiftyOneOnPremiseAspectEngineBase</text>
<text text-anchor="start" x="2910" y="-731.5" font-family="Helvetica,sans-Serif" font-size="10.00">&lt; TData extends AspectData, TProperty</text>
<text text-anchor="middle" x="3026" y="-720.5" font-family="Helvetica,sans-Serif" font-size="10.00"> extends FiftyOneAspectPropertyMetaData &gt;</text>
</a>
</g>
</g>
<!-- Node24 -->
<g id="node2" class="node">
<title>Node24</title>
<g id="a_node2"><a xlink:href="classfiftyone_1_1pipeline_1_1engines_1_1flowelements_1_1_on_premise_aspect_engine_base.html" target="_top" xlink:title="Base class for on&#45;premise aspect engines.">
<polygon fill="none" stroke="black" points="2658,-437.5 2658,-489.5 2824,-489.5 2824,-437.5 2658,-437.5"/>
<text text-anchor="start" x="2666" y="-477.5" font-family="Helvetica,sans-Serif" font-size="10.00">fiftyone::pipeline</text>
<text text-anchor="start" x="2666" y="-466.5" font-family="Helvetica,sans-Serif" font-size="10.00">::engines::flowelements</text>
<text text-anchor="start" x="2666" y="-455.5" font-family="Helvetica,sans-Serif" font-size="10.00">::OnPremiseAspectEngineBase</text>
<text text-anchor="middle" x="2741" y="-444.5" font-family="Helvetica,sans-Serif" font-size="10.00">&lt; TData, TProperty &gt;</text>
</a>
</g>
</g>
<!-- Node24&#45;&gt;Node23 -->
<g id="edge1" class="edge">
<title>Node24&#45;&gt;Node23</title>
<path fill="none" stroke="midnightblue" d="M2776.21,-496.87C2833.27,-552.51 2946.68,-663.12 2998.3,-713.46"/>
<polygon fill="midnightblue" stroke="midnightblue" points="2778.48,-494.19 2768.88,-489.71 2773.59,-499.2 2778.48,-494.19"/>
</g>
<!-- Node25 -->
<g id="node3" class="node">
<title>Node25</title>
<g id="a_node3"><a xlink:href="classfiftyone_1_1pipeline_1_1engines_1_1flowelements_1_1_aspect_engine_base.html" target="_top" xlink:title=" ">
<polygon fill="none" stroke="black" points="2221.5,-288.5 2221.5,-318.5 2433.5,-318.5 2433.5,-288.5 2221.5,-288.5"/>
<text text-anchor="start" x="2229.5" y="-306.5" font-family="Helvetica,sans-Serif" font-size="10.00">fiftyone.pipeline.engines.flowelements.</text>
<text text-anchor="middle" x="2327.5" y="-295.5" font-family="Helvetica,sans-Serif" font-size="10.00">AspectEngineBase&lt; TData, TProperty &gt;</text>
</a>
</g>
</g>
<!-- Node25&#45;&gt;Node24 -->
<g id="edge2" class="edge">
<title>Node25&#45;&gt;Node24</title>
<path fill="none" stroke="midnightblue" d="M2443.62,-316.14C2492.98,-324.37 2550.35,-337.78 2599,-359.5 2642.47,-378.9 2685.49,-413.45 2712.36,-437.37"/>
<polygon fill="midnightblue" stroke="midnightblue" points="2443.97,-312.65 2433.54,-314.51 2442.86,-319.56 2443.97,-312.65"/>
</g>
<!-- Node26 -->
<g id="node4" class="node">
<title>Node26</title>
<g id="a_node4"><a xlink:href="classfiftyone_1_1pipeline_1_1engines_1_1flowelements_1_1_aspect_engine_base.html" target="_top" xlink:title="Base class for AspectEngines to extend.">
<polygon fill="none" stroke="black" points="1790,-256.5 1790,-308.5 2038,-308.5 2038,-256.5 1790,-256.5"/>
<text text-anchor="start" x="1798" y="-296.5" font-family="Helvetica,sans-Serif" font-size="10.00">fiftyone.pipeline.engines.flowelements.</text>
<text text-anchor="start" x="1798" y="-285.5" font-family="Helvetica,sans-Serif" font-size="10.00">AspectEngineBase&lt; TData extends</text>
<text text-anchor="start" x="1798" y="-274.5" font-family="Helvetica,sans-Serif" font-size="10.00"> AspectData, TProperty extends AspectProperty</text>
<text text-anchor="middle" x="1914" y="-263.5" font-family="Helvetica,sans-Serif" font-size="10.00">MetaData &gt;</text>
</a>
</g>
</g>
<!-- Node26&#45;&gt;Node25 -->
<g id="edge3" class="edge">
<title>Node26&#45;&gt;Node25</title>
<path fill="none" stroke="orange" stroke-dasharray="5,2" d="M2048.2,-289.3C2104.33,-292.16 2168.71,-295.45 2221.41,-298.14"/>
<polygon fill="orange" stroke="orange" points="2048.35,-285.8 2038.18,-288.79 2047.99,-292.79 2048.35,-285.8"/>
<text text-anchor="middle" x="2110.5" y="-297.5" font-family="Helvetica,sans-Serif" font-size="10.00"> &lt; TData, TProperty &gt;</text>
</g>
<!-- Node27 -->
<g id="node5" class="node">
<title>Node27</title>
<g id="a_node5"><a xlink:href="classfiftyone_1_1pipeline_1_1core_1_1flowelements_1_1_flow_element_base.html" target="_top" xlink:title="Provides a base class from which authors may create new FlowElements.">
<polygon fill="none" stroke="black" points="1453.5,-191.5 1453.5,-243.5 1607.5,-243.5 1607.5,-191.5 1453.5,-191.5"/>
<text text-anchor="start" x="1461.5" y="-231.5" font-family="Helvetica,sans-Serif" font-size="10.00">fiftyone::pipeline</text>
<text text-anchor="start" x="1461.5" y="-220.5" font-family="Helvetica,sans-Serif" font-size="10.00">::core::flowelements</text>
<text text-anchor="start" x="1461.5" y="-209.5" font-family="Helvetica,sans-Serif" font-size="10.00">::FlowElementBase&lt; TData,</text>
<text text-anchor="middle" x="1530.5" y="-198.5" font-family="Helvetica,sans-Serif" font-size="10.00"> TProperty &gt;</text>
</a>
</g>
</g>
<!-- Node27&#45;&gt;Node26 -->
<g id="edge4" class="edge">
<title>Node27&#45;&gt;Node26</title>
<path fill="none" stroke="midnightblue" d="M1617.75,-232.2C1668.59,-240.86 1733.75,-251.96 1789.91,-261.53"/>
<polygon fill="midnightblue" stroke="midnightblue" points="1618.23,-228.73 1607.79,-230.5 1617.06,-235.63 1618.23,-228.73"/>
</g>
<!-- Node28 -->
<g id="node6" class="node">
<title>Node28</title>
<g id="a_node6"><a xlink:href="interfacefiftyone_1_1pipeline_1_1core_1_1flowelements_1_1_flow_element.html" target="_top" xlink:title=" ">
<polygon fill="none" stroke="black" points="968,-147.5 968,-177.5 1159,-177.5 1159,-147.5 968,-147.5"/>
<text text-anchor="start" x="976" y="-165.5" font-family="Helvetica,sans-Serif" font-size="10.00">fiftyone.pipeline.core.flowelements.</text>
<text text-anchor="middle" x="1063.5" y="-154.5" font-family="Helvetica,sans-Serif" font-size="10.00">FlowElement&lt; TData, TProperty &gt;</text>
</a>
</g>
</g>
<!-- Node28&#45;&gt;Node27 -->
<g id="edge5" class="edge">
<title>Node28&#45;&gt;Node27</title>
<path fill="none" stroke="midnightblue" d="M1169.56,-168.51C1237.76,-173.19 1328.42,-180.88 1408,-192.5 1422.7,-194.65 1438.31,-197.45 1453.26,-200.41"/>
<polygon fill="midnightblue" stroke="midnightblue" points="1169.46,-165 1159.25,-167.81 1168.99,-171.98 1169.46,-165"/>
</g>
<!-- Node29 -->
<g id="node7" class="node">
<title>Node29</title>
<g id="a_node7"><a xlink:href="interfacefiftyone_1_1pipeline_1_1core_1_1flowelements_1_1_flow_element.html" target="_top" xlink:title="A component that processes a FlowData (by examining its evidence, or by examining data processed by o...">
<polygon fill="none" stroke="black" points="543,-145 543,-186 796,-186 796,-145 543,-145"/>
<text text-anchor="start" x="551" y="-174" font-family="Helvetica,sans-Serif" font-size="10.00">fiftyone.pipeline.core.flowelements.</text>
<text text-anchor="start" x="551" y="-163" font-family="Helvetica,sans-Serif" font-size="10.00">FlowElement&lt; TData extends ElementData,</text>
<text text-anchor="middle" x="669.5" y="-152" font-family="Helvetica,sans-Serif" font-size="10.00"> TProperty extends ElementPropertyMetaData &gt;</text>
</a>
</g>
</g>
<!-- Node29&#45;&gt;Node28 -->
<g id="edge6" class="edge">
<title>Node29&#45;&gt;Node28</title>
<path fill="none" stroke="orange" stroke-dasharray="5,2" d="M806.35,-164.46C859.55,-164.05 919.29,-163.6 967.69,-163.23"/>
<polygon fill="orange" stroke="orange" points="806.12,-160.96 796.15,-164.54 806.18,-167.96 806.12,-160.96"/>
<text text-anchor="middle" x="868.5" y="-166.5" font-family="Helvetica,sans-Serif" font-size="10.00"> &lt; TData, TProperty &gt;</text>
</g>
<!-- Node30 -->
<g id="node8" class="node">
<title>Node30</title>
<g id="a_node8"><a xlink:title=" ">
<polygon fill="none" stroke="#bfbfbf" points="339,-143 339,-162 426,-162 426,-143 339,-143"/>
<text text-anchor="middle" x="382.5" y="-150" font-family="Helvetica,sans-Serif" font-size="10.00">AutoCloseable</text>
</a>
</g>
</g>
<!-- Node30&#45;&gt;Node29 -->
<g id="edge7" class="edge">
<title>Node30&#45;&gt;Node29</title>
<path fill="none" stroke="midnightblue" d="M436.4,-147.03C448.73,-145.98 461.81,-145.04 474,-144.5 496.64,-143.5 502.39,-142.85 525,-144.5 530.78,-144.92 536.67,-145.43 542.62,-146.02"/>
<polygon fill="midnightblue" stroke="midnightblue" points="435.91,-143.56 426.26,-147.94 436.53,-150.54 435.91,-143.56"/>
</g>
<!-- Node39 -->
<g id="node17" class="node">
<title>Node39</title>
<g id="a_node17"><a xlink:href="interfacefiftyone_1_1pipeline_1_1core_1_1flowelements_1_1_flow_element.html" target="_top" xlink:title="A component that processes a FlowData (by examining its evidence, or by examining data processed by o...">
<polygon fill="none" stroke="black" points="604.5,-439.5 604.5,-491.5 734.5,-491.5 734.5,-439.5 604.5,-439.5"/>
<text text-anchor="start" x="612.5" y="-479.5" font-family="Helvetica,sans-Serif" font-size="10.00">fiftyone::pipeline</text>
<text text-anchor="start" x="612.5" y="-468.5" font-family="Helvetica,sans-Serif" font-size="10.00">::core::flowelements</text>
<text text-anchor="start" x="612.5" y="-457.5" font-family="Helvetica,sans-Serif" font-size="10.00">::FlowElement&lt; TData,</text>
<text text-anchor="middle" x="669.5" y="-446.5" font-family="Helvetica,sans-Serif" font-size="10.00"> TProperty &gt;</text>
</a>
</g>
</g>
<!-- Node30&#45;&gt;Node39 -->
<g id="edge19" class="edge">
<title>Node30&#45;&gt;Node39</title>
<path fill="none" stroke="midnightblue" d="M436.13,-145.57C466.49,-144.73 502.92,-149.7 525,-173.5 562.58,-214.01 509.43,-377.61 543,-421.5 557.73,-440.75 581.49,-451.62 604.39,-457.73"/>
<polygon fill="midnightblue" stroke="midnightblue" points="435.91,-142.07 426.09,-146.05 436.25,-149.06 435.91,-142.07"/>
</g>
<!-- Node31 -->
<g id="node9" class="node">
<title>Node31</title>
<g id="a_node9"><a xlink:href="interfacefiftyone_1_1pipeline_1_1core_1_1data_1_1_element_data.html" target="_top" xlink:title="Represents property values that have be determined by a specific FlowElement based on the supplied ev...">
<polygon fill="none" stroke="black" points="309,-487.5 309,-517.5 456,-517.5 456,-487.5 309,-487.5"/>
<text text-anchor="start" x="317" y="-505.5" font-family="Helvetica,sans-Serif" font-size="10.00">fiftyone.pipeline.core.data.</text>
<text text-anchor="middle" x="382.5" y="-494.5" font-family="Helvetica,sans-Serif" font-size="10.00">ElementData</text>
</a>
</g>
</g>
<!-- Node31&#45;&gt;Node27 -->
<g id="edge14" class="edge">
<title>Node31&#45;&gt;Node27</title>
<path fill="none" stroke="orange" stroke-dasharray="5,2" d="M466.26,-505.35C468.87,-505.41 471.46,-505.46 474,-505.5 574.7,-507.17 713.64,-504.7 796,-501.5 852.51,-499.3 868.92,-510.05 923,-493.5 1061.49,-451.13 1067.16,-375.93 1204,-328.5 1290.47,-298.53 1322.61,-333.41 1408,-300.5 1442.32,-287.27 1476.48,-262.66 1499.79,-243.66"/>
<polygon fill="orange" stroke="orange" points="466.19,-501.85 456.11,-505.12 466.02,-508.85 466.19,-501.85"/>
<text text-anchor="middle" x="868.5" y="-505.5" font-family="Helvetica,sans-Serif" font-size="10.00"> TData</text>
</g>
<!-- Node31&#45;&gt;Node29 -->
<g id="edge8" class="edge">
<title>Node31&#45;&gt;Node29</title>
<path fill="none" stroke="orange" stroke-dasharray="5,2" d="M426.9,-482.84C457.58,-467.15 497.9,-442.66 525,-411.5 537.53,-397.1 534.04,-389.36 543,-372.5 580.29,-302.37 630.92,-222.96 654.87,-186.2"/>
<polygon fill="orange" stroke="orange" points="425.1,-479.83 417.72,-487.43 428.23,-486.1 425.1,-479.83"/>
<text text-anchor="middle" x="499.5" y="-455.5" font-family="Helvetica,sans-Serif" font-size="10.00"> TData</text>
</g>
<!-- Node31&#45;&gt;Node39 -->
<g id="edge20" class="edge">
<title>Node31&#45;&gt;Node39</title>
<path fill="none" stroke="orange" stroke-dasharray="5,2" d="M466.25,-491.76C510.2,-486.05 563.42,-479.14 604.23,-473.84"/>
<polygon fill="orange" stroke="orange" points="465.62,-488.31 456.15,-493.07 466.52,-495.25 465.62,-488.31"/>
<text text-anchor="middle" x="499.5" y="-493.5" font-family="Helvetica,sans-Serif" font-size="10.00"> TData</text>
</g>
<!-- Node40 -->
<g id="node18" class="node">
<title>Node40</title>
<g id="a_node18"><a xlink:href="interfacefiftyone_1_1pipeline_1_1engines_1_1data_1_1_aspect_data.html" target="_top" xlink:title="Represents a specialized ElementData instance that is generated by an AspectEngine.">
<polygon fill="none" stroke="black" points="587.5,-656.5 587.5,-686.5 751.5,-686.5 751.5,-656.5 587.5,-656.5"/>
<text text-anchor="start" x="595.5" y="-674.5" font-family="Helvetica,sans-Serif" font-size="10.00">fiftyone.pipeline.engines.data.</text>
<text text-anchor="middle" x="669.5" y="-663.5" font-family="Helvetica,sans-Serif" font-size="10.00">AspectData</text>
</a>
</g>
</g>
<!-- Node31&#45;&gt;Node40 -->
<g id="edge23" class="edge">
<title>Node31&#45;&gt;Node40</title>
<path fill="none" stroke="midnightblue" d="M417.82,-522.85C475.72,-557.19 591.52,-625.85 642.91,-656.33"/>
<polygon fill="midnightblue" stroke="midnightblue" points="419.43,-519.74 409.04,-517.65 415.86,-525.76 419.43,-519.74"/>
</g>
<!-- Node32 -->
<g id="node10" class="node">
<title>Node32</title>
<g id="a_node10"><a xlink:href="interfacefiftyone_1_1pipeline_1_1core_1_1data_1_1_data.html" target="_top" xlink:title="Represents a collection of property values.">
<polygon fill="none" stroke="black" points="102,-493 102,-512 272,-512 272,-493 102,-493"/>
<text text-anchor="middle" x="187" y="-500" font-family="Helvetica,sans-Serif" font-size="10.00">fiftyone.pipeline.core.data.Data</text>
</a>
</g>
</g>
<!-- Node32&#45;&gt;Node31 -->
<g id="edge9" class="edge">
<title>Node32&#45;&gt;Node31</title>
<path fill="none" stroke="midnightblue" d="M282.11,-502.5C291.07,-502.5 300.06,-502.5 308.77,-502.5"/>
<polygon fill="midnightblue" stroke="midnightblue" points="282.03,-499 272.03,-502.5 282.03,-506 282.03,-499"/>
</g>
<!-- Node33 -->
<g id="node11" class="node">
<title>Node33</title>
<g id="a_node11"><a xlink:href="interfacefiftyone_1_1pipeline_1_1core_1_1data_1_1_element_property_meta_data.html" target="_top" xlink:title="Defines details of a property that can be returned by a FlowElement.">
<polygon fill="none" stroke="black" points="309,-222.5 309,-252.5 456,-252.5 456,-222.5 309,-222.5"/>
<text text-anchor="start" x="317" y="-240.5" font-family="Helvetica,sans-Serif" font-size="10.00">fiftyone.pipeline.core.data.</text>
<text text-anchor="middle" x="382.5" y="-229.5" font-family="Helvetica,sans-Serif" font-size="10.00">ElementPropertyMetaData</text>
</a>
</g>
</g>
<!-- Node33&#45;&gt;Node27 -->
<g id="edge15" class="edge">
<title>Node33&#45;&gt;Node27</title>
<path fill="none" stroke="orange" stroke-dasharray="5,2" d="M466.58,-235.42C614.72,-231.78 934.27,-224.31 1204,-220.5 1289.33,-219.3 1387.24,-218.47 1453.21,-217.99"/>
<polygon fill="orange" stroke="orange" points="466.12,-231.93 456.21,-235.67 466.29,-238.92 466.12,-231.93"/>
<text text-anchor="middle" x="868.5" y="-229.5" font-family="Helvetica,sans-Serif" font-size="10.00"> TProperty</text>
</g>
<!-- Node33&#45;&gt;Node29 -->
<g id="edge10" class="edge">
<title>Node33&#45;&gt;Node29</title>
<path fill="none" stroke="orange" stroke-dasharray="5,2" d="M415.13,-217.05C431.96,-207.14 453.39,-195.99 474,-189.5 495.82,-182.62 519.6,-177.7 542.81,-174.19"/>
<polygon fill="orange" stroke="orange" points="413.03,-214.23 406.28,-222.4 416.65,-220.22 413.03,-214.23"/>
<text text-anchor="middle" x="499.5" y="-192.5" font-family="Helvetica,sans-Serif" font-size="10.00"> TProperty</text>
</g>
<!-- Node33&#45;&gt;Node39 -->
<g id="edge21" class="edge">
<title>Node33&#45;&gt;Node39</title>
<path fill="none" stroke="orange" stroke-dasharray="5,2" d="M403.58,-260.54C431.05,-292.08 481.86,-350.49 525,-400.5 533.03,-409.81 532.85,-414.56 543,-421.5 561.39,-434.07 583.75,-443.42 604.47,-450.19"/>
<polygon fill="orange" stroke="orange" points="406.01,-257.99 396.8,-252.75 400.73,-262.59 406.01,-257.99"/>
<text text-anchor="middle" x="499.5" y="-403.5" font-family="Helvetica,sans-Serif" font-size="10.00"> TProperty</text>
</g>
<!-- Node41 -->
<g id="node19" class="node">
<title>Node41</title>
<g id="a_node19"><a xlink:href="interfacefiftyone_1_1pipeline_1_1engines_1_1data_1_1_aspect_property_meta_data.html" target="_top" xlink:title="Holds details about a property that can be returned by an AspectEngine.">
<polygon fill="none" stroke="black" points="587.5,-381.5 587.5,-411.5 751.5,-411.5 751.5,-381.5 587.5,-381.5"/>
<text text-anchor="start" x="595.5" y="-399.5" font-family="Helvetica,sans-Serif" font-size="10.00">fiftyone.pipeline.engines.data.</text>
<text text-anchor="middle" x="669.5" y="-388.5" font-family="Helvetica,sans-Serif" font-size="10.00">AspectPropertyMetaData</text>
</a>
</g>
</g>
<!-- Node33&#45;&gt;Node41 -->
<g id="edge25" class="edge">
<title>Node33&#45;&gt;Node41</title>
<path fill="none" stroke="midnightblue" d="M419.37,-257.51C477.28,-289.82 590.05,-352.73 641.61,-381.5"/>
<polygon fill="midnightblue" stroke="midnightblue" points="421.01,-254.42 410.57,-252.6 417.6,-260.53 421.01,-254.42"/>
</g>
<!-- Node34 -->
<g id="node12" class="node">
<title>Node34</title>
<g id="a_node12"><a xlink:href="interfacefiftyone_1_1pipeline_1_1core_1_1typed_1_1_typed_key.html" target="_top" xlink:title=" ">
<polygon fill="none" stroke="black" points="987,-98.5 987,-128.5 1140,-128.5 1140,-98.5 987,-98.5"/>
<text text-anchor="start" x="995" y="-116.5" font-family="Helvetica,sans-Serif" font-size="10.00">fiftyone.pipeline.core.typed.</text>
<text text-anchor="middle" x="1063.5" y="-105.5" font-family="Helvetica,sans-Serif" font-size="10.00">TypedKey&lt; TData &gt;</text>
</a>
</g>
</g>
<!-- Node34&#45;&gt;Node27 -->
<g id="edge11" class="edge">
<title>Node34&#45;&gt;Node27</title>
<path fill="none" stroke="#9a32cd" stroke-dasharray="5,2" d="M1150.28,-115.7C1220.83,-119.46 1322.71,-129.42 1408,-155.5 1435.74,-163.98 1464.75,-178.54 1487.47,-191.42"/>
<polygon fill="#9a32cd" stroke="#9a32cd" points="1150.27,-112.2 1140.11,-115.19 1149.92,-119.19 1150.27,-112.2"/>
<text text-anchor="middle" x="1306" y="-158.5" font-family="Helvetica,sans-Serif" font-size="10.00"> typedKey</text>
</g>
<!-- Node35 -->
<g id="node13" class="node">
<title>Node35</title>
<g id="a_node13"><a xlink:href="interfacefiftyone_1_1pipeline_1_1core_1_1typed_1_1_typed_key.html" target="_top" xlink:title="Holds a name and a type to allow for type safe operations on named values.">
<polygon fill="none" stroke="black" points="593,-95.5 593,-125.5 746,-125.5 746,-95.5 593,-95.5"/>
<text text-anchor="start" x="601" y="-113.5" font-family="Helvetica,sans-Serif" font-size="10.00">fiftyone.pipeline.core.typed.</text>
<text text-anchor="middle" x="669.5" y="-102.5" font-family="Helvetica,sans-Serif" font-size="10.00">TypedKey&lt; T &gt;</text>
</a>
</g>
</g>
<!-- Node35&#45;&gt;Node34 -->
<g id="edge12" class="edge">
<title>Node35&#45;&gt;Node34</title>
<path fill="none" stroke="orange" stroke-dasharray="5,2" d="M756.46,-111.16C825.28,-111.68 920.87,-112.42 986.82,-112.92"/>
<polygon fill="orange" stroke="orange" points="756.11,-107.66 746.08,-111.08 756.05,-114.65 756.11,-107.66"/>
<text text-anchor="middle" x="868.5" y="-114.5" font-family="Helvetica,sans-Serif" font-size="10.00"> &lt; TData &gt;</text>
</g>
<!-- Node36 -->
<g id="node14" class="node">
<title>Node36</title>
<g id="a_node14"><a xlink:title=" ">
<polygon fill="none" stroke="#bfbfbf" points="1038.5,-235 1038.5,-254 1088.5,-254 1088.5,-235 1038.5,-235"/>
<text text-anchor="middle" x="1063.5" y="-242" font-family="Helvetica,sans-Serif" font-size="10.00">Logger</text>
</a>
</g>
</g>
<!-- Node36&#45;&gt;Node27 -->
<g id="edge13" class="edge">
<title>Node36&#45;&gt;Node27</title>
<path fill="none" stroke="#9a32cd" stroke-dasharray="5,2" d="M1098.72,-242.51C1173.04,-238.2 1350.79,-227.88 1453.23,-221.93"/>
<polygon fill="#9a32cd" stroke="#9a32cd" points="1098.3,-239.03 1088.52,-243.11 1098.71,-246.02 1098.3,-239.03"/>
<text text-anchor="middle" x="1306" y="-238.5" font-family="Helvetica,sans-Serif" font-size="10.00"> logger</text>
</g>
<!-- Node37 -->
<g id="node15" class="node">
<title>Node37</title>
<g id="a_node15"><a xlink:href="interfacefiftyone_1_1pipeline_1_1engines_1_1flowelements_1_1_aspect_engine.html" target="_top" xlink:title=" ">
<polygon fill="none" stroke="black" points="1426,-448.5 1426,-478.5 1635,-478.5 1635,-448.5 1426,-448.5"/>
<text text-anchor="start" x="1434" y="-466.5" font-family="Helvetica,sans-Serif" font-size="10.00">fiftyone.pipeline.engines.flowelements.</text>
<text text-anchor="middle" x="1530.5" y="-455.5" font-family="Helvetica,sans-Serif" font-size="10.00">AspectEngine&lt; TData, TProperty &gt;</text>
</a>
</g>
</g>
<!-- Node37&#45;&gt;Node26 -->
<g id="edge16" class="edge">
<title>Node37&#45;&gt;Node26</title>
<path fill="none" stroke="midnightblue" d="M1606.07,-445.88C1654.83,-432.8 1719.06,-412.54 1772,-385.5 1813.44,-364.33 1855.88,-331.52 1883.22,-308.63"/>
<polygon fill="midnightblue" stroke="midnightblue" points="1605,-442.55 1596.22,-448.49 1606.79,-449.32 1605,-442.55"/>
</g>
<!-- Node51 -->
<g id="node29" class="node">
<title>Node51</title>
<g id="a_node29"><a xlink:href="interfacefiftyone_1_1pipeline_1_1engines_1_1flowelements_1_1_on_premise_aspect_engine.html" target="_top" xlink:title="Aspect engine interface which processes data internally using a data file and populates the results.">
<polygon fill="none" stroke="black" points="1790,-437.5 1790,-489.5 2038,-489.5 2038,-437.5 1790,-437.5"/>
<text text-anchor="start" x="1798" y="-477.5" font-family="Helvetica,sans-Serif" font-size="10.00">fiftyone.pipeline.engines.flowelements.</text>
<text text-anchor="start" x="1798" y="-466.5" font-family="Helvetica,sans-Serif" font-size="10.00">OnPremiseAspectEngine&lt; TData extends</text>
<text text-anchor="start" x="1798" y="-455.5" font-family="Helvetica,sans-Serif" font-size="10.00"> AspectData, TProperty extends AspectProperty</text>
<text text-anchor="middle" x="1914" y="-444.5" font-family="Helvetica,sans-Serif" font-size="10.00">MetaData &gt;</text>
</a>
</g>
</g>
<!-- Node37&#45;&gt;Node51 -->
<g id="edge38" class="edge">
<title>Node37&#45;&gt;Node51</title>
<path fill="none" stroke="midnightblue" d="M1645.45,-463.5C1691,-463.5 1743.56,-463.5 1789.97,-463.5"/>
<polygon fill="midnightblue" stroke="midnightblue" points="1645.24,-460 1635.24,-463.5 1645.24,-467 1645.24,-460"/>
</g>
<!-- Node54 -->
<g id="node32" class="node">
<title>Node54</title>
<g id="a_node32"><a xlink:href="interfacefiftyone_1_1pipeline_1_1engines_1_1flowelements_1_1_on_premise_aspect_engine.html" target="_top" xlink:title="Aspect engine interface which processes data internally using a data file and populates the results.">
<polygon fill="none" stroke="black" points="1843,-519.5 1843,-571.5 1985,-571.5 1985,-519.5 1843,-519.5"/>
<text text-anchor="start" x="1851" y="-559.5" font-family="Helvetica,sans-Serif" font-size="10.00">fiftyone::pipeline</text>
<text text-anchor="start" x="1851" y="-548.5" font-family="Helvetica,sans-Serif" font-size="10.00">::engines::flowelements</text>
<text text-anchor="start" x="1851" y="-537.5" font-family="Helvetica,sans-Serif" font-size="10.00">::OnPremiseAspectEngine</text>
<text text-anchor="middle" x="1914" y="-526.5" font-family="Helvetica,sans-Serif" font-size="10.00">&lt; TData, TProperty &gt;</text>
</a>
</g>
</g>
<!-- Node37&#45;&gt;Node54 -->
<g id="edge46" class="edge">
<title>Node37&#45;&gt;Node54</title>
<path fill="none" stroke="midnightblue" d="M1611.35,-480.66C1679.77,-495.37 1777.36,-516.34 1842.83,-530.42"/>
<polygon fill="midnightblue" stroke="midnightblue" points="1611.99,-477.22 1601.47,-478.54 1610.51,-484.06 1611.99,-477.22"/>
</g>
<!-- Node38 -->
<g id="node16" class="node">
<title>Node38</title>
<g id="a_node16"><a xlink:href="interfacefiftyone_1_1pipeline_1_1engines_1_1flowelements_1_1_aspect_engine.html" target="_top" xlink:title="AspectEngines are a subset of FlowElements.">
<polygon fill="none" stroke="black" points="941,-501 941,-542 1186,-542 1186,-501 941,-501"/>
<text text-anchor="start" x="949" y="-530" font-family="Helvetica,sans-Serif" font-size="10.00">fiftyone.pipeline.engines.flowelements.</text>
<text text-anchor="start" x="949" y="-519" font-family="Helvetica,sans-Serif" font-size="10.00">AspectEngine&lt; TData extends AspectData,</text>
<text text-anchor="middle" x="1063.5" y="-508" font-family="Helvetica,sans-Serif" font-size="10.00"> TProperty extends AspectPropertyMetaData &gt;</text>
</a>
</g>
</g>
<!-- Node38&#45;&gt;Node37 -->
<g id="edge17" class="edge">
<title>Node38&#45;&gt;Node37</title>
<path fill="none" stroke="orange" stroke-dasharray="5,2" d="M1196.23,-505.07C1269.04,-495.99 1358.2,-484.87 1425.97,-476.41"/>
<polygon fill="orange" stroke="orange" points="1195.56,-501.63 1186.07,-506.34 1196.42,-508.57 1195.56,-501.63"/>
<text text-anchor="middle" x="1306" y="-505.5" font-family="Helvetica,sans-Serif" font-size="10.00"> &lt; TData, TProperty &gt;</text>
</g>
<!-- Node39&#45;&gt;Node38 -->
<g id="edge18" class="edge">
<title>Node39&#45;&gt;Node38</title>
<path fill="none" stroke="midnightblue" d="M744.7,-479.81C766.94,-483.86 791.42,-488.09 814,-491.5 855.25,-497.72 900.51,-503.5 940.97,-508.28"/>
<polygon fill="midnightblue" stroke="midnightblue" points="745.12,-476.33 734.66,-477.96 743.86,-483.21 745.12,-476.33"/>
</g>
<!-- Node40&#45;&gt;Node23 -->
<g id="edge53" class="edge">
<title>Node40&#45;&gt;Node23</title>
<path fill="none" stroke="orange" stroke-dasharray="5,2" d="M706.01,-691.52C773.32,-727.52 925.06,-799.5 1062.5,-799.5 1062.5,-799.5 1062.5,-799.5 2742,-799.5 2811.94,-799.5 2889.52,-781.75 2945.74,-765.56"/>
<polygon fill="orange" stroke="orange" points="707.54,-688.37 697.08,-686.69 704.21,-694.52 707.54,-688.37"/>
<text text-anchor="middle" x="1914" y="-802.5" font-family="Helvetica,sans-Serif" font-size="10.00"> TData</text>
</g>
<!-- Node40&#45;&gt;Node24 -->
<g id="edge41" class="edge">
<title>Node40&#45;&gt;Node24</title>
<path fill="none" stroke="orange" stroke-dasharray="5,2" d="M750.95,-688.44C771.43,-692.25 793.46,-695.93 814,-698.5 986.1,-720.03 1030.57,-710.52 1204,-712.5 1485.95,-715.72 2207.22,-762.45 2472,-665.5 2575.68,-627.54 2672.71,-535.09 2716.13,-489.63"/>
<polygon fill="orange" stroke="orange" points="751.5,-684.98 741.03,-686.56 750.2,-691.86 751.5,-684.98"/>
<text text-anchor="middle" x="1712.5" y="-728.5" font-family="Helvetica,sans-Serif" font-size="10.00"> TData</text>
</g>
<!-- Node40&#45;&gt;Node26 -->
<g id="edge34" class="edge">
<title>Node40&#45;&gt;Node26</title>
<path fill="none" stroke="orange" stroke-dasharray="5,2" d="M753.5,-654.39C824.35,-639.53 915.92,-619.62 923,-614.5 935.6,-605.39 928.01,-593.05 941,-584.5 1032.78,-524.09 1108.9,-629.78 1186,-551.5 1233.43,-503.35 1157.33,-449.38 1204,-400.5 1243.91,-358.7 1597.32,-315.61 1789.62,-294.98"/>
<polygon fill="orange" stroke="orange" points="752.72,-650.98 743.65,-656.45 754.16,-657.83 752.72,-650.98"/>
<text text-anchor="middle" x="1306" y="-403.5" font-family="Helvetica,sans-Serif" font-size="10.00"> TData</text>
</g>
<!-- Node40&#45;&gt;Node38 -->
<g id="edge22" class="edge">
<title>Node40&#45;&gt;Node38</title>
<path fill="none" stroke="orange" stroke-dasharray="5,2" d="M709.63,-651.81C738.25,-637.69 778.16,-618.59 814,-603.5 869.47,-580.15 883.82,-575.29 941,-556.5 956.12,-551.53 972.42,-546.57 988.02,-542.01"/>
<polygon fill="orange" stroke="orange" points="707.79,-648.82 700.39,-656.39 710.9,-655.09 707.79,-648.82"/>
<text text-anchor="middle" x="868.5" y="-606.5" font-family="Helvetica,sans-Serif" font-size="10.00"> TData</text>
</g>
<!-- Node40&#45;&gt;Node51 -->
<g id="edge39" class="edge">
<title>Node40&#45;&gt;Node51</title>
<path fill="none" stroke="orange" stroke-dasharray="5,2" d="M761.84,-661.71C809.93,-656.11 869.8,-648.42 923,-639.5 1040.77,-619.75 1072.35,-621.18 1186,-584.5 1194.33,-581.81 1195.61,-578.99 1204,-576.5 1311.33,-544.69 1617.1,-501.89 1790,-479.18"/>
<polygon fill="orange" stroke="orange" points="761.3,-658.25 751.76,-662.88 762.1,-665.2 761.3,-658.25"/>
<text text-anchor="middle" x="1306" y="-579.5" font-family="Helvetica,sans-Serif" font-size="10.00"> TData</text>
</g>
<!-- Node53 -->
<g id="node31" class="node">
<title>Node53</title>
<g id="a_node31"><a xlink:href="interfacefiftyone_1_1pipeline_1_1engines_1_1fiftyone_1_1flowelements_1_1_fifty_one_aspect_engine.html" target="_top" xlink:title="51Degrees specific Engine interface.">
<polygon fill="none" stroke="black" points="2183,-603.5 2183,-655.5 2472,-655.5 2472,-603.5 2183,-603.5"/>
<text text-anchor="start" x="2191" y="-643.5" font-family="Helvetica,sans-Serif" font-size="10.00">fiftyone.pipeline.engines.fiftyone.flowelements.</text>
<text text-anchor="start" x="2191" y="-632.5" font-family="Helvetica,sans-Serif" font-size="10.00">FiftyOneAspectEngine&lt; TData extends</text>
<text text-anchor="start" x="2191" y="-621.5" font-family="Helvetica,sans-Serif" font-size="10.00"> AspectData, TProperty extends FiftyOneAspectProperty</text>
<text text-anchor="middle" x="2327.5" y="-610.5" font-family="Helvetica,sans-Serif" font-size="10.00">MetaData &gt;</text>
</a>
</g>
</g>
<!-- Node40&#45;&gt;Node53 -->
<g id="edge49" class="edge">
<title>Node40&#45;&gt;Node53</title>
<path fill="none" stroke="orange" stroke-dasharray="5,2" d="M761.79,-678.22C779.13,-679.39 797.12,-680.54 814,-681.5 987.22,-691.31 1030.54,-694.72 1204,-698.5 1294.65,-700.47 1317.35,-700.1 1408,-698.5 1508.94,-696.72 1534.24,-696.72 1635,-690.5 1824.76,-678.79 2043.23,-658.35 2182.97,-644.39"/>
<polygon fill="orange" stroke="orange" points="761.9,-674.72 751.68,-677.53 761.42,-681.7 761.9,-674.72"/>
<text text-anchor="middle" x="1530.5" y="-700.5" font-family="Helvetica,sans-Serif" font-size="10.00"> TData</text>
</g>
<!-- Node40&#45;&gt;Node54 -->
<g id="edge47" class="edge">
<title>Node40&#45;&gt;Node54</title>
<path fill="none" stroke="orange" stroke-dasharray="5,2" d="M761.59,-670.29C809.61,-669.6 869.49,-668.64 923,-667.5 1300.73,-659.48 1409.53,-731.1 1772,-624.5 1810.36,-613.22 1849.7,-590.02 1877.05,-571.66"/>
<polygon fill="orange" stroke="orange" points="761.47,-666.79 751.53,-670.44 761.58,-673.79 761.47,-666.79"/>
<text text-anchor="middle" x="1306" y="-686.5" font-family="Helvetica,sans-Serif" font-size="10.00"> TData</text>
</g>
<!-- Node41&#45;&gt;Node24 -->
<g id="edge42" class="edge">
<title>Node41&#45;&gt;Node24</title>
<path fill="none" stroke="orange" stroke-dasharray="5,2" d="M761.68,-392.45C918.54,-385.86 1249.58,-373.5 1529.5,-373.5 1529.5,-373.5 1529.5,-373.5 2328.5,-373.5 2449.16,-373.5 2585.23,-410.89 2666.72,-437.47"/>
<polygon fill="orange" stroke="orange" points="761.45,-388.96 751.61,-392.88 761.75,-395.96 761.45,-388.96"/>
<text text-anchor="middle" x="1712.5" y="-376.5" font-family="Helvetica,sans-Serif" font-size="10.00"> TProperty</text>
</g>
<!-- Node41&#45;&gt;Node26 -->
<g id="edge35" class="edge">
<title>Node41&#45;&gt;Node26</title>
<path fill="none" stroke="orange" stroke-dasharray="5,2" d="M713.45,-377.47C741.5,-365.91 779.24,-351.99 814,-344.5 1161.71,-269.58 1584.75,-270.83 1789.78,-277.09"/>
<polygon fill="orange" stroke="orange" points="711.82,-374.35 703.95,-381.44 714.52,-380.81 711.82,-374.35"/>
<text text-anchor="middle" x="1306" y="-292.5" font-family="Helvetica,sans-Serif" font-size="10.00"> TProperty</text>
</g>
<!-- Node41&#45;&gt;Node38 -->
<g id="edge24" class="edge">
<title>Node41&#45;&gt;Node38</title>
<path fill="none" stroke="orange" stroke-dasharray="5,2" d="M761.19,-412.58C773.55,-417.14 785.56,-422.99 796,-430.5 807.71,-438.92 801.99,-449.52 814,-457.5 855.09,-484.81 875.93,-463.72 923,-478.5 931.35,-481.12 932.77,-483.5 941,-486.5 955.13,-491.65 970.4,-496.55 985.18,-500.96"/>
<polygon fill="orange" stroke="orange" points="762.28,-409.25 751.68,-409.34 760.02,-415.88 762.28,-409.25"/>
<text text-anchor="middle" x="868.5" y="-481.5" font-family="Helvetica,sans-Serif" font-size="10.00"> TProperty</text>
</g>
<!-- Node41&#45;&gt;Node51 -->
<g id="edge40" class="edge">
<title>Node41&#45;&gt;Node51</title>
<path fill="none" stroke="orange" stroke-dasharray="5,2" d="M761.77,-399.3C933.06,-404.85 1314.35,-418.52 1635,-439.5 1685.76,-442.82 1741.64,-447.46 1789.92,-451.77"/>
<polygon fill="orange" stroke="orange" points="761.65,-395.8 751.54,-398.97 761.42,-402.79 761.65,-395.8"/>
<text text-anchor="middle" x="1306" y="-428.5" font-family="Helvetica,sans-Serif" font-size="10.00"> TProperty</text>
</g>
<!-- Node41&#45;&gt;Node54 -->
<g id="edge48" class="edge">
<title>Node41&#45;&gt;Node54</title>
<path fill="none" stroke="orange" stroke-dasharray="5,2" d="M761.7,-404.66C958.66,-422.31 1406.26,-462.51 1408,-463.5 1419.89,-470.29 1414.2,-481.55 1426,-488.5 1513.53,-540.09 1552.09,-503.68 1653,-515.5 1717.31,-523.03 1790.59,-531.48 1842.92,-537.48"/>
<polygon fill="orange" stroke="orange" points="761.93,-401.17 751.66,-403.76 761.31,-408.14 761.93,-401.17"/>
<text text-anchor="middle" x="1306" y="-466.5" font-family="Helvetica,sans-Serif" font-size="10.00"> TProperty</text>
</g>
<!-- Node55 -->
<g id="node33" class="node">
<title>Node55</title>
<g id="a_node33"><a xlink:href="interfacefiftyone_1_1pipeline_1_1engines_1_1fiftyone_1_1data_1_1_fifty_one_aspect_property_meta_data.html" target="_top" xlink:title="51Degrees specific meta data.">
<polygon fill="none" stroke="black" points="1204,-596.5 1204,-626.5 1408,-626.5 1408,-596.5 1204,-596.5"/>
<text text-anchor="start" x="1212" y="-614.5" font-family="Helvetica,sans-Serif" font-size="10.00">fiftyone.pipeline.engines.fiftyone.data.</text>
<text text-anchor="middle" x="1306" y="-603.5" font-family="Helvetica,sans-Serif" font-size="10.00">FiftyOneAspectPropertyMetaData</text>
</a>
</g>
</g>
<!-- Node41&#45;&gt;Node55 -->
<g id="edge51" class="edge">
<title>Node41&#45;&gt;Node55</title>
<path fill="none" stroke="midnightblue" d="M735.66,-414.14C760.12,-420.42 788.23,-427.24 814,-432.5 834.5,-436.69 1171.01,-476.9 1186,-491.5 1217.41,-522.1 1173.63,-556.88 1204,-588.5 1206.87,-591.48 1210.03,-594.12 1213.42,-596.44"/>
<polygon fill="midnightblue" stroke="midnightblue" points="736.33,-410.7 725.78,-411.58 734.58,-417.48 736.33,-410.7"/>
</g>
<!-- Node42 -->
<g id="node20" class="node">
<title>Node42</title>
<g id="a_node20"><a xlink:href="interfacefiftyone_1_1pipeline_1_1engines_1_1caching_1_1_flow_cache.html" target="_top" xlink:title="Used to cache results from individual flow elements in the pipeline.">
<polygon fill="none" stroke="black" points="1440.5,-51.5 1440.5,-81.5 1620.5,-81.5 1620.5,-51.5 1440.5,-51.5"/>
<text text-anchor="start" x="1448.5" y="-69.5" font-family="Helvetica,sans-Serif" font-size="10.00">fiftyone.pipeline.engines.caching.</text>
<text text-anchor="middle" x="1530.5" y="-58.5" font-family="Helvetica,sans-Serif" font-size="10.00">FlowCache</text>
</a>
</g>
</g>
<!-- Node42&#45;&gt;Node26 -->
<g id="edge26" class="edge">
<title>Node42&#45;&gt;Node26</title>
<path fill="none" stroke="#9a32cd" stroke-dasharray="5,2" d="M1593.29,-84.6C1643.49,-100.75 1715.06,-127.16 1772,-161.5 1816.75,-188.49 1861.33,-229.77 1888.03,-256.45"/>
<polygon fill="#9a32cd" stroke="#9a32cd" points="1594.14,-81.19 1583.55,-81.5 1592.02,-87.86 1594.14,-81.19"/>
<text text-anchor="middle" x="1712.5" y="-164.5" font-family="Helvetica,sans-Serif" font-size="10.00"> cache</text>
</g>
<!-- Node43 -->
<g id="node21" class="node">
<title>Node43</title>
<g id="a_node21"><a xlink:href="interfacefiftyone_1_1pipeline_1_1engines_1_1caching_1_1_data_keyed_cache.html" target="_top" xlink:title=" ">
<polygon fill="none" stroke="black" points="970.5,-0.5 970.5,-30.5 1156.5,-30.5 1156.5,-0.5 970.5,-0.5"/>
<text text-anchor="start" x="978.5" y="-18.5" font-family="Helvetica,sans-Serif" font-size="10.00">fiftyone.pipeline.engines.caching.</text>
<text text-anchor="middle" x="1063.5" y="-7.5" font-family="Helvetica,sans-Serif" font-size="10.00">DataKeyedCache&lt; ElementData &gt;</text>
</a>
</g>
</g>
<!-- Node43&#45;&gt;Node42 -->
<g id="edge27" class="edge">
<title>Node43&#45;&gt;Node42</title>
<path fill="none" stroke="midnightblue" d="M1167.13,-25.16C1235.44,-31.79 1327.16,-41.06 1408,-50.5 1418.46,-51.72 1429.42,-53.07 1440.29,-54.45"/>
<polygon fill="midnightblue" stroke="midnightblue" points="1167.08,-21.64 1156.79,-24.16 1166.41,-28.61 1167.08,-21.64"/>
</g>
<!-- Node44 -->
<g id="node22" class="node">
<title>Node44</title>
<g id="a_node22"><a xlink:href="interfacefiftyone_1_1pipeline_1_1engines_1_1caching_1_1_data_keyed_cache.html" target="_top" xlink:title="Represents a put cache where the key is a FlowData instance.">
<polygon fill="none" stroke="black" points="579.5,-35.5 579.5,-65.5 759.5,-65.5 759.5,-35.5 579.5,-35.5"/>
<text text-anchor="start" x="587.5" y="-53.5" font-family="Helvetica,sans-Serif" font-size="10.00">fiftyone.pipeline.engines.caching.</text>
<text text-anchor="middle" x="669.5" y="-42.5" font-family="Helvetica,sans-Serif" font-size="10.00">DataKeyedCache&lt; V &gt;</text>
</a>
</g>
</g>
<!-- Node44&#45;&gt;Node43 -->
<g id="edge28" class="edge">
<title>Node44&#45;&gt;Node43</title>
<path fill="none" stroke="orange" stroke-dasharray="5,2" d="M770.07,-41.61C831.67,-36.11 910.21,-29.1 970.38,-23.72"/>
<polygon fill="orange" stroke="orange" points="769.59,-38.14 759.94,-42.51 770.21,-45.11 769.59,-38.14"/>
<text text-anchor="middle" x="868.5" y="-40.5" font-family="Helvetica,sans-Serif" font-size="10.00"> &lt; ElementData &gt;</text>
</g>
<!-- Node45 -->
<g id="node23" class="node">
<title>Node45</title>
<g id="a_node23"><a xlink:href="interfacefiftyone_1_1caching_1_1_put_cache.html" target="_top" xlink:title="A cache that supports a thread safe put method for inserting to cache.">
<polygon fill="none" stroke="black" points="310.5,-92.5 310.5,-122.5 454.5,-122.5 454.5,-92.5 310.5,-92.5"/>
<text text-anchor="start" x="318.5" y="-110.5" font-family="Helvetica,sans-Serif" font-size="10.00">fiftyone::caching::</text>
<text text-anchor="middle" x="382.5" y="-99.5" font-family="Helvetica,sans-Serif" font-size="10.00">PutCache&lt; FlowData, V &gt;</text>
</a>
</g>
</g>
<!-- Node45&#45;&gt;Node44 -->
<g id="edge29" class="edge">
<title>Node45&#45;&gt;Node44</title>
<path fill="none" stroke="midnightblue" d="M464.53,-91.29C505.07,-83.19 553.82,-73.44 593.5,-65.5"/>
<polygon fill="midnightblue" stroke="midnightblue" points="463.8,-87.87 454.68,-93.26 465.17,-94.73 463.8,-87.87"/>
</g>
<!-- Node46 -->
<g id="node24" class="node">
<title>Node46</title>
<g id="a_node24"><a xlink:href="interfacefiftyone_1_1caching_1_1_cache.html" target="_top" xlink:title="Base cache interface which declares only the get method and the types of key and value stored in the ...">
<polygon fill="none" stroke="black" points="135.5,-359.5 135.5,-389.5 238.5,-389.5 238.5,-359.5 135.5,-359.5"/>
<text text-anchor="start" x="143.5" y="-377.5" font-family="Helvetica,sans-Serif" font-size="10.00">fiftyone::caching::</text>
<text text-anchor="middle" x="187" y="-366.5" font-family="Helvetica,sans-Serif" font-size="10.00">Cache&lt; K, V &gt;</text>
</a>
</g>
</g>
<!-- Node46&#45;&gt;Node45 -->
<g id="edge30" class="edge">
<title>Node46&#45;&gt;Node45</title>
<path fill="none" stroke="midnightblue" d="M193.92,-349.42C206.64,-300.9 241.07,-193.67 309,-133.5 313.8,-129.24 319.36,-125.67 325.21,-122.67"/>
<polygon fill="midnightblue" stroke="midnightblue" points="190.46,-348.82 191.4,-359.37 197.25,-350.54 190.46,-348.82"/>
</g>
<!-- Node47 -->
<g id="node25" class="node">
<title>Node47</title>
<g id="a_node25"><a xlink:title=" ">
<polygon fill="none" stroke="#bfbfbf" points="0,-500 0,-519 65,-519 65,-500 0,-500"/>
<text text-anchor="middle" x="32.5" y="-507" font-family="Helvetica,sans-Serif" font-size="10.00">Closeable</text>
</a>
</g>
</g>
<!-- Node47&#45;&gt;Node46 -->
<g id="edge31" class="edge">
<title>Node47&#45;&gt;Node46</title>
<path fill="none" stroke="midnightblue" d="M52.07,-493.06C81.86,-466.69 139.91,-415.3 168.8,-389.72"/>
<polygon fill="midnightblue" stroke="midnightblue" points="49.64,-490.54 44.47,-499.79 54.28,-495.78 49.64,-490.54"/>
</g>
<!-- Node47&#45;&gt;Node55 -->
<g id="edge52" class="edge">
<title>Node47&#45;&gt;Node55</title>
<path fill="none" stroke="midnightblue" d="M56,-524.53C84.83,-542.31 136.97,-569.5 186,-569.5 186,-569.5 186,-569.5 670.5,-569.5 859.14,-569.5 1078.64,-588.21 1203.76,-600.66"/>
<polygon fill="midnightblue" stroke="midnightblue" points="57.81,-521.54 47.49,-519.14 54.06,-527.45 57.81,-521.54"/>
</g>
<!-- Node48 -->
<g id="node26" class="node">
<title>Node48</title>
<g id="a_node26"><a xlink:href="interfacefiftyone_1_1pipeline_1_1engines_1_1services_1_1_missing_property_service.html" target="_top" xlink:title="Service used by AspectEngines to report the reason for a property not being present in the results.">
<polygon fill="none" stroke="black" points="1439,-116.5 1439,-146.5 1622,-146.5 1622,-116.5 1439,-116.5"/>
<text text-anchor="start" x="1447" y="-134.5" font-family="Helvetica,sans-Serif" font-size="10.00">fiftyone.pipeline.engines.services.</text>
<text text-anchor="middle" x="1530.5" y="-123.5" font-family="Helvetica,sans-Serif" font-size="10.00">MissingPropertyService</text>
</a>
</g>
</g>
<!-- Node48&#45;&gt;Node26 -->
<g id="edge32" class="edge">
<title>Node48&#45;&gt;Node26</title>
<path fill="none" stroke="#9a32cd" stroke-dasharray="5,2" d="M1581.45,-150.09C1630.22,-168.37 1706.44,-197.25 1772,-223.5 1798.24,-234 1827.05,-245.98 1851.75,-256.38"/>
<polygon fill="#9a32cd" stroke="#9a32cd" points="1582.67,-146.81 1572.07,-146.58 1580.21,-153.37 1582.67,-146.81"/>
<text text-anchor="middle" x="1712.5" y="-226.5" font-family="Helvetica,sans-Serif" font-size="10.00"> missingPropertyService</text>
</g>
<!-- Node49 -->
<g id="node27" class="node">
<title>Node49</title>
<g id="a_node27"><a xlink:href="interfacefiftyone_1_1pipeline_1_1core_1_1services_1_1_pipeline_service.html" target="_top" xlink:title="Service interface used by PipelineBuilder to hand out services to elements which required them.">
<polygon fill="none" stroke="black" points="980.5,-49.5 980.5,-79.5 1146.5,-79.5 1146.5,-49.5 980.5,-49.5"/>
<text text-anchor="start" x="988.5" y="-67.5" font-family="Helvetica,sans-Serif" font-size="10.00">fiftyone.pipeline.core.services.</text>
<text text-anchor="middle" x="1063.5" y="-56.5" font-family="Helvetica,sans-Serif" font-size="10.00">PipelineService</text>
</a>
</g>
</g>
<!-- Node49&#45;&gt;Node48 -->
<g id="edge33" class="edge">
<title>Node49&#45;&gt;Node48</title>
<path fill="none" stroke="midnightblue" d="M1156.65,-74.25C1225.96,-82.02 1323.17,-93.83 1408,-107.5 1424.13,-110.1 1441.4,-113.27 1457.69,-116.45"/>
<polygon fill="midnightblue" stroke="midnightblue" points="1156.95,-70.76 1146.63,-73.13 1156.18,-77.72 1156.95,-70.76"/>
</g>
<!-- Node50 -->
<g id="node28" class="node">
<title>Node50</title>
<g id="a_node28"><a xlink:href="interfacefiftyone_1_1pipeline_1_1engines_1_1flowelements_1_1_on_premise_aspect_engine.html" target="_top" xlink:title=" ">
<polygon fill="none" stroke="black" points="2223,-443 2223,-484 2432,-484 2432,-443 2223,-443"/>
<text text-anchor="start" x="2231" y="-472" font-family="Helvetica,sans-Serif" font-size="10.00">fiftyone.pipeline.engines.flowelements.</text>
<text text-anchor="start" x="2231" y="-461" font-family="Helvetica,sans-Serif" font-size="10.00">OnPremiseAspectEngine&lt; TData,</text>
<text text-anchor="middle" x="2327.5" y="-450" font-family="Helvetica,sans-Serif" font-size="10.00"> TProperty &gt;</text>
</a>
</g>
</g>
<!-- Node50&#45;&gt;Node24 -->
<g id="edge36" class="edge">
<title>Node50&#45;&gt;Node24</title>
<path fill="none" stroke="midnightblue" d="M2442.45,-463.5C2510.77,-463.5 2596.07,-463.5 2657.8,-463.5"/>
<polygon fill="midnightblue" stroke="midnightblue" points="2442.07,-460 2432.07,-463.5 2442.07,-467 2442.07,-460"/>
</g>
<!-- Node51&#45;&gt;Node50 -->
<g id="edge37" class="edge">
<title>Node51&#45;&gt;Node50</title>
<path fill="none" stroke="orange" stroke-dasharray="5,2" d="M2048.28,-463.5C2104.87,-463.5 2169.84,-463.5 2222.76,-463.5"/>
<polygon fill="orange" stroke="orange" points="2048.18,-460 2038.18,-463.5 2048.18,-467 2048.18,-460"/>
<text text-anchor="middle" x="2110.5" y="-466.5" font-family="Helvetica,sans-Serif" font-size="10.00"> &lt; TData, TProperty &gt;</text>
</g>
<!-- Node52 -->
<g id="node30" class="node">
<title>Node52</title>
<g id="a_node30"><a xlink:href="interfacefiftyone_1_1pipeline_1_1engines_1_1fiftyone_1_1flowelements_1_1_fifty_one_aspect_engine.html" target="_top" xlink:title=" ">
<polygon fill="none" stroke="black" points="2617,-702.5 2617,-732.5 2865,-732.5 2865,-702.5 2617,-702.5"/>
<text text-anchor="start" x="2625" y="-720.5" font-family="Helvetica,sans-Serif" font-size="10.00">fiftyone.pipeline.engines.fiftyone.flowelements.</text>
<text text-anchor="middle" x="2741" y="-709.5" font-family="Helvetica,sans-Serif" font-size="10.00">FiftyOneAspectEngine&lt; TData, TProperty &gt;</text>
</a>
</g>
</g>
<!-- Node52&#45;&gt;Node23 -->
<g id="edge43" class="edge">
<title>Node52&#45;&gt;Node23</title>
<path fill="none" stroke="midnightblue" d="M2875.52,-727.88C2884.24,-728.56 2893.01,-729.24 2901.68,-729.91"/>
<polygon fill="midnightblue" stroke="midnightblue" points="2875.55,-724.37 2865.3,-727.09 2875,-731.35 2875.55,-724.37"/>
</g>
<!-- Node53&#45;&gt;Node52 -->
<g id="edge44" class="edge">
<title>Node53&#45;&gt;Node52</title>
<path fill="none" stroke="orange" stroke-dasharray="5,2" d="M2460.44,-657.72C2529.91,-672.57 2612.32,-690.2 2669.59,-702.44"/>
<polygon fill="orange" stroke="orange" points="2460.8,-654.21 2450.29,-655.55 2459.34,-661.06 2460.8,-654.21"/>
<text text-anchor="middle" x="2544.5" y="-689.5" font-family="Helvetica,sans-Serif" font-size="10.00"> &lt; TData, TProperty &gt;</text>
</g>
<!-- Node54&#45;&gt;Node53 -->
<g id="edge45" class="edge">
<title>Node54&#45;&gt;Node53</title>
<path fill="none" stroke="midnightblue" d="M1995.08,-556.6C2044.32,-563.92 2108.57,-574.39 2165,-586.5 2187.84,-591.4 2212.28,-597.47 2235.06,-603.49"/>
<polygon fill="midnightblue" stroke="midnightblue" points="1995.52,-553.13 1985.12,-555.13 1994.5,-560.05 1995.52,-553.13"/>
</g>
<!-- Node55&#45;&gt;Node23 -->
<g id="edge54" class="edge">
<title>Node55&#45;&gt;Node23</title>
<path fill="none" stroke="orange" stroke-dasharray="5,2" d="M1418.3,-627.56C1420.89,-627.88 1423.46,-628.2 1426,-628.5 1954.01,-691.45 2085.85,-717.14 2617,-742.5 2712.52,-747.06 2820.76,-745.98 2901.74,-743.93"/>
<polygon fill="orange" stroke="orange" points="1418.59,-624.07 1408.23,-626.29 1417.71,-631.02 1418.59,-624.07"/>
<text text-anchor="middle" x="2110.5" y="-715.5" font-family="Helvetica,sans-Serif" font-size="10.00"> TProperty</text>
</g>
<!-- Node55&#45;&gt;Node53 -->
<g id="edge50" class="edge">
<title>Node55&#45;&gt;Node53</title>
<path fill="none" stroke="orange" stroke-dasharray="5,2" d="M1418.07,-613.46C1603.77,-616.74 1977.1,-623.33 2182.64,-626.96"/>
<polygon fill="orange" stroke="orange" points="1418.07,-609.96 1408.01,-613.28 1417.95,-616.96 1418.07,-609.96"/>
<text text-anchor="middle" x="1712.5" y="-622.5" font-family="Helvetica,sans-Serif" font-size="10.00"> TProperty</text>
</g>
</g>
</svg>
