<?xml version="1.0" encoding="UTF-8" standalone="no"?>
<!DOCTYPE svg PUBLIC "-//W3C//DTD SVG 1.1//EN"
 "http://www.w3.org/Graphics/SVG/1.1/DTD/svg11.dtd">
<!-- Generated by graphviz version 2.43.0 (0)
 -->
<!-- Title: fiftyone.pipeline.web.mvc.services.PipelineResultService.Default Pages: 1 -->
<svg width="817pt" height="90pt"
 viewBox="0.00 0.00 817.00 90.00" xmlns="http://www.w3.org/2000/svg" xmlns:xlink="http://www.w3.org/1999/xlink">
<g id="graph0" class="graph" transform="scale(1 1) rotate(0) translate(4 86)">
<title>fiftyone.pipeline.web.mvc.services.PipelineResultService.Default</title>
<!-- Node4 -->
<g id="node1" class="node">
<title>Node4</title>
<g id="a_node1"><a xlink:title=" ">
<polygon fill="#bfbfbf" stroke="black" points="620,-26.5 620,-56.5 809,-56.5 809,-26.5 620,-26.5"/>
<text text-anchor="start" x="628" y="-44.5" font-family="Helvetica,sans-Serif" font-size="10.00">fiftyone.pipeline.web.mvc.services.</text>
<text text-anchor="middle" x="714.5" y="-33.5" font-family="Helvetica,sans-Serif" font-size="10.00">PipelineResultService.Default</text>
</a>
</g>
</g>
<!-- Node5 -->
<g id="node2" class="node">
<title>Node5</title>
<g id="a_node2"><a xlink:href="classfiftyone_1_1pipeline_1_1web_1_1services_1_1_pipeline_result_service_core_1_1_default.html" target="_top" xlink:title="Default implementation of the PipelineResultServiceCore service.">
<polygon fill="none" stroke="black" points="396.5,-2.5 396.5,-32.5 580.5,-32.5 580.5,-2.5 396.5,-2.5"/>
<text text-anchor="start" x="404.5" y="-20.5" font-family="Helvetica,sans-Serif" font-size="10.00">fiftyone.pipeline.web.services.</text>
<text text-anchor="middle" x="488.5" y="-9.5" font-family="Helvetica,sans-Serif" font-size="10.00">PipelineResultServiceCore.Default</text>
</a>
</g>
</g>
<!-- Node5&#45;&gt;Node4 -->
<g id="edge1" class="edge">
<title>Node5&#45;&gt;Node4</title>
<path fill="none" stroke="midnightblue" d="M590.7,-28.34C600.43,-29.39 610.27,-30.44 619.92,-31.47"/>
<polygon fill="midnightblue" stroke="midnightblue" points="590.93,-24.85 580.61,-27.26 590.18,-31.81 590.93,-24.85"/>
</g>
<!-- Node6 -->
<g id="node3" class="node">
<title>Node6</title>
<g id="a_node3"><a xlink:href="interfacefiftyone_1_1pipeline_1_1web_1_1services_1_1_pipeline_result_service_core.html" target="_top" xlink:title="Service used to process web requests through the Pipeline.">
<polygon fill="none" stroke="black" points="137,-50.5 137,-80.5 302,-80.5 302,-50.5 137,-50.5"/>
<text text-anchor="start" x="145" y="-68.5" font-family="Helvetica,sans-Serif" font-size="10.00">fiftyone.pipeline.web.services.</text>
<text text-anchor="middle" x="219.5" y="-57.5" font-family="Helvetica,sans-Serif" font-size="10.00">PipelineResultServiceCore</text>
</a>
</g>
</g>
<!-- Node6&#45;&gt;Node5 -->
<g id="edge2" class="edge">
<title>Node6&#45;&gt;Node5</title>
<path fill="none" stroke="midnightblue" d="M312.01,-49.05C341.73,-43.71 374.54,-37.81 403.67,-32.57"/>
<polygon fill="midnightblue" stroke="midnightblue" points="311.28,-45.62 302.06,-50.84 312.52,-52.51 311.28,-45.62"/>
</g>
<!-- Node9 -->
<g id="node6" class="node">
<title>Node9</title>
<g id="a_node6"><a xlink:href="interfacefiftyone_1_1pipeline_1_1web_1_1mvc_1_1services_1_1_pipeline_result_service.html" target="_top" xlink:title="Spring framework service for the PipelineResultServiceCore.">
<polygon fill="none" stroke="black" points="394,-51.5 394,-81.5 583,-81.5 583,-51.5 394,-51.5"/>
<text text-anchor="start" x="402" y="-69.5" font-family="Helvetica,sans-Serif" font-size="10.00">fiftyone.pipeline.web.mvc.services.</text>
<text text-anchor="middle" x="488.5" y="-58.5" font-family="Helvetica,sans-Serif" font-size="10.00">PipelineResultService</text>
</a>
</g>
</g>
<!-- Node6&#45;&gt;Node9 -->
<g id="edge6" class="edge">
<title>Node6&#45;&gt;Node9</title>
<path fill="none" stroke="midnightblue" d="M312.4,-65.84C338.7,-65.94 367.41,-66.05 393.82,-66.15"/>
<polygon fill="midnightblue" stroke="midnightblue" points="312.07,-62.34 302.06,-65.81 312.05,-69.34 312.07,-62.34"/>
</g>
<!-- Node7 -->
<g id="node4" class="node">
<title>Node7</title>
<g id="a_node4"><a xlink:href="interfacefiftyone_1_1pipeline_1_1core_1_1flowelements_1_1_pipeline.html" target="_top" xlink:title="The Pipeline groups together FlowElements and is a factory for FlowData which serves as the evidence,...">
<polygon fill="none" stroke="black" points="124,-0.5 124,-30.5 315,-30.5 315,-0.5 124,-0.5"/>
<text text-anchor="start" x="132" y="-18.5" font-family="Helvetica,sans-Serif" font-size="10.00">fiftyone.pipeline.core.flowelements.</text>
<text text-anchor="middle" x="219.5" y="-7.5" font-family="Helvetica,sans-Serif" font-size="10.00">Pipeline</text>
</a>
</g>
</g>
<!-- Node7&#45;&gt;Node5 -->
<g id="edge3" class="edge">
<title>Node7&#45;&gt;Node5</title>
<path fill="none" stroke="#9a32cd" stroke-dasharray="5,2" d="M325.51,-16.14C342.4,-16.25 359.68,-16.37 376,-16.5 382.58,-16.55 389.38,-16.61 396.23,-16.66"/>
<polygon fill="#9a32cd" stroke="#9a32cd" points="325.09,-12.64 315.07,-16.07 325.04,-19.64 325.09,-12.64"/>
<text text-anchor="middle" x="354.5" y="-19.5" font-family="Helvetica,sans-Serif" font-size="10.00"> pipeline</text>
</g>
<!-- Node8 -->
<g id="node5" class="node">
<title>Node8</title>
<g id="a_node5"><a xlink:title=" ">
<polygon fill="none" stroke="#bfbfbf" points="0,-6 0,-25 87,-25 87,-6 0,-6"/>
<text text-anchor="middle" x="43.5" y="-13" font-family="Helvetica,sans-Serif" font-size="10.00">AutoCloseable</text>
</a>
</g>
</g>
<!-- Node8&#45;&gt;Node7 -->
<g id="edge4" class="edge">
<title>Node8&#45;&gt;Node7</title>
<path fill="none" stroke="midnightblue" d="M97.15,-15.5C105.65,-15.5 114.68,-15.5 123.81,-15.5"/>
<polygon fill="midnightblue" stroke="midnightblue" points="97.07,-12 87.07,-15.5 97.07,-19 97.07,-12"/>
</g>
<!-- Node9&#45;&gt;Node4 -->
<g id="edge5" class="edge">
<title>Node9&#45;&gt;Node4</title>
<path fill="none" stroke="midnightblue" d="M593.18,-54.93C602.07,-53.94 611.02,-52.94 619.82,-51.96"/>
<polygon fill="midnightblue" stroke="midnightblue" points="592.75,-51.45 583.2,-56.04 593.52,-58.41 592.75,-51.45"/>
</g>
</g>
</svg>
