<?xml version="1.0" encoding="UTF-8" standalone="no"?>
<!DOCTYPE svg PUBLIC "-//W3C//DTD SVG 1.1//EN"
 "http://www.w3.org/Graphics/SVG/1.1/DTD/svg11.dtd">
<!-- Generated by graphviz version 2.43.0 (0)
 -->
<!-- Title: fiftyone.caching.LruPutCache&lt; K, V &gt; Pages: 1 -->
<svg width="258pt" height="229pt"
 viewBox="0.00 0.00 258.00 229.00" xmlns="http://www.w3.org/2000/svg" xmlns:xlink="http://www.w3.org/1999/xlink">
<g id="graph0" class="graph" transform="scale(1 1) rotate(0) translate(4 225)">
<title>fiftyone.caching.LruPutCache&lt; K, V &gt;</title>
<!-- Node0 -->
<g id="node1" class="node">
<title>Node0</title>
<g id="a_node1"><a xlink:title="Uses the LruCacheBase to implement the PutCache interface.">
<polygon fill="#bfbfbf" stroke="black" points="52,-0.5 52,-30.5 210,-30.5 210,-0.5 52,-0.5"/>
<text text-anchor="start" x="60" y="-18.5" font-family="Helvetica,sans-Serif" font-size="10.00">fiftyone.caching.LruPutCache</text>
<text text-anchor="middle" x="131" y="-7.5" font-family="Helvetica,sans-Serif" font-size="10.00">&lt; K, V &gt;</text>
</a>
</g>
</g>
<!-- Node1 -->
<g id="node2" class="node">
<title>Node1</title>
<g id="a_node2"><a xlink:href="classfiftyone_1_1caching_1_1_lru_cache_base.html" target="_top" xlink:title="This is a Least Recently Used (LRU) cache with multiple linked lists in place of the usual single lin...">
<polygon fill="none" stroke="black" points="0,-67.5 0,-97.5 128,-97.5 128,-67.5 0,-67.5"/>
<text text-anchor="start" x="8" y="-85.5" font-family="Helvetica,sans-Serif" font-size="10.00">fiftyone::caching::</text>
<text text-anchor="middle" x="64" y="-74.5" font-family="Helvetica,sans-Serif" font-size="10.00">LruCacheBase&lt; K, V &gt;</text>
</a>
</g>
</g>
<!-- Node1&#45;&gt;Node0 -->
<g id="edge1" class="edge">
<title>Node1&#45;&gt;Node0</title>
<path fill="none" stroke="midnightblue" d="M85.84,-60.31C95.89,-50.56 107.54,-39.26 116.49,-30.58"/>
<polygon fill="midnightblue" stroke="midnightblue" points="83.28,-57.92 78.54,-67.4 88.15,-62.94 83.28,-57.92"/>
</g>
<!-- Node2 -->
<g id="node3" class="node">
<title>Node2</title>
<g id="a_node3"><a xlink:href="interfacefiftyone_1_1caching_1_1_cache.html" target="_top" xlink:title="Base cache interface which declares only the get method and the types of key and value stored in the ...">
<polygon fill="none" stroke="black" points="92.5,-134.5 92.5,-164.5 195.5,-164.5 195.5,-134.5 92.5,-134.5"/>
<text text-anchor="start" x="100.5" y="-152.5" font-family="Helvetica,sans-Serif" font-size="10.00">fiftyone::caching::</text>
<text text-anchor="middle" x="144" y="-141.5" font-family="Helvetica,sans-Serif" font-size="10.00">Cache&lt; K, V &gt;</text>
</a>
</g>
</g>
<!-- Node2&#45;&gt;Node1 -->
<g id="edge2" class="edge">
<title>Node2&#45;&gt;Node1</title>
<path fill="none" stroke="midnightblue" d="M118.63,-127.88C106.47,-118.01 92.22,-106.43 81.32,-97.58"/>
<polygon fill="midnightblue" stroke="midnightblue" points="116.67,-130.81 126.64,-134.4 121.09,-125.37 116.67,-130.81"/>
</g>
<!-- Node4 -->
<g id="node5" class="node">
<title>Node4</title>
<g id="a_node5"><a xlink:href="interfacefiftyone_1_1caching_1_1_put_cache.html" target="_top" xlink:title="A cache that supports a thread safe put method for inserting to cache.">
<polygon fill="none" stroke="black" points="146,-67.5 146,-97.5 250,-97.5 250,-67.5 146,-67.5"/>
<text text-anchor="start" x="154" y="-85.5" font-family="Helvetica,sans-Serif" font-size="10.00">fiftyone::caching::</text>
<text text-anchor="middle" x="198" y="-74.5" font-family="Helvetica,sans-Serif" font-size="10.00">PutCache&lt; K, V &gt;</text>
</a>
</g>
</g>
<!-- Node2&#45;&gt;Node4 -->
<g id="edge6" class="edge">
<title>Node2&#45;&gt;Node4</title>
<path fill="none" stroke="midnightblue" d="M162.32,-126.45C170.25,-116.9 179.3,-106 186.31,-97.58"/>
<polygon fill="midnightblue" stroke="midnightblue" points="159.42,-124.47 155.72,-134.4 164.8,-128.94 159.42,-124.47"/>
</g>
<!-- Node3 -->
<g id="node4" class="node">
<title>Node3</title>
<g id="a_node4"><a xlink:title=" ">
<polygon fill="none" stroke="#bfbfbf" points="71.5,-201.5 71.5,-220.5 136.5,-220.5 136.5,-201.5 71.5,-201.5"/>
<text text-anchor="middle" x="104" y="-208.5" font-family="Helvetica,sans-Serif" font-size="10.00">Closeable</text>
</a>
</g>
</g>
<!-- Node3&#45;&gt;Node1 -->
<g id="edge4" class="edge">
<title>Node3&#45;&gt;Node1</title>
<path fill="none" stroke="midnightblue" d="M94.72,-192.34C90.71,-184.18 86.2,-174.27 83,-165 75.03,-141.93 69.33,-114.04 66.36,-97.59"/>
<polygon fill="midnightblue" stroke="midnightblue" points="91.6,-193.93 99.26,-201.26 97.84,-190.76 91.6,-193.93"/>
</g>
<!-- Node3&#45;&gt;Node2 -->
<g id="edge3" class="edge">
<title>Node3&#45;&gt;Node2</title>
<path fill="none" stroke="midnightblue" d="M115.45,-192.96C121.51,-183.96 128.85,-173.03 134.57,-164.52"/>
<polygon fill="midnightblue" stroke="midnightblue" points="112.41,-191.22 109.73,-201.48 118.21,-195.13 112.41,-191.22"/>
</g>
<!-- Node4&#45;&gt;Node0 -->
<g id="edge5" class="edge">
<title>Node4&#45;&gt;Node0</title>
<path fill="none" stroke="midnightblue" d="M176.16,-60.31C166.11,-50.56 154.46,-39.26 145.51,-30.58"/>
<polygon fill="midnightblue" stroke="midnightblue" points="173.85,-62.94 183.46,-67.4 178.72,-57.92 173.85,-62.94"/>
</g>
</g>
</svg>
