<?xml version="1.0" encoding="UTF-8" standalone="no"?>
<!DOCTYPE svg PUBLIC "-//W3C//DTD SVG 1.1//EN"
 "http://www.w3.org/Graphics/SVG/1.1/DTD/svg11.dtd">
<!-- Generated by graphviz version 2.43.0 (0)
 -->
<!-- Title: fiftyone.pipeline.engines.data.AspectEngineDataFileDefault Pages: 1 -->
<svg width="212pt" height="229pt"
 viewBox="0.00 0.00 212.00 229.00" xmlns="http://www.w3.org/2000/svg" xmlns:xlink="http://www.w3.org/1999/xlink">
<g id="graph0" class="graph" transform="scale(1 1) rotate(0) translate(4 225)">
<title>fiftyone.pipeline.engines.data.AspectEngineDataFileDefault</title>
<!-- Node0 -->
<g id="node1" class="node">
<title>Node0</title>
<g id="a_node1"><a xlink:title="Default implementation of the AspectEngineDataFile interface.">
<polygon fill="#bfbfbf" stroke="black" points="20,-67.5 20,-97.5 184,-97.5 184,-67.5 20,-67.5"/>
<text text-anchor="start" x="28" y="-85.5" font-family="Helvetica,sans-Serif" font-size="10.00">fiftyone.pipeline.engines.data.</text>
<text text-anchor="middle" x="102" y="-74.5" font-family="Helvetica,sans-Serif" font-size="10.00">AspectEngineDataFileDefault</text>
</a>
</g>
</g>
<!-- Node3 -->
<g id="node4" class="node">
<title>Node3</title>
<g id="a_node4"><a xlink:href="classfiftyone_1_1pipeline_1_1engines_1_1fiftyone_1_1data_1_1_fifty_one_data_file_default.html" target="_top" xlink:title="Default implementation of the FiftyOneDataFile interface.">
<polygon fill="none" stroke="black" points="0,-0.5 0,-30.5 204,-30.5 204,-0.5 0,-0.5"/>
<text text-anchor="start" x="8" y="-18.5" font-family="Helvetica,sans-Serif" font-size="10.00">fiftyone.pipeline.engines.fiftyone.data.</text>
<text text-anchor="middle" x="102" y="-7.5" font-family="Helvetica,sans-Serif" font-size="10.00">FiftyOneDataFileDefault</text>
</a>
</g>
</g>
<!-- Node0&#45;&gt;Node3 -->
<g id="edge3" class="edge">
<title>Node0&#45;&gt;Node3</title>
<path fill="none" stroke="midnightblue" d="M102,-57.11C102,-48.15 102,-38.32 102,-30.58"/>
<polygon fill="midnightblue" stroke="midnightblue" points="98.5,-57.4 102,-67.4 105.5,-57.4 98.5,-57.4"/>
</g>
<!-- Node1 -->
<g id="node2" class="node">
<title>Node1</title>
<g id="a_node2"><a xlink:href="interfacefiftyone_1_1pipeline_1_1engines_1_1data_1_1_aspect_engine_data_file.html" target="_top" xlink:title="Interface for the details of a data file used by an Aspect engine.">
<polygon fill="none" stroke="black" points="20,-134.5 20,-164.5 184,-164.5 184,-134.5 20,-134.5"/>
<text text-anchor="start" x="28" y="-152.5" font-family="Helvetica,sans-Serif" font-size="10.00">fiftyone.pipeline.engines.data.</text>
<text text-anchor="middle" x="102" y="-141.5" font-family="Helvetica,sans-Serif" font-size="10.00">AspectEngineDataFile</text>
</a>
</g>
</g>
<!-- Node1&#45;&gt;Node0 -->
<g id="edge1" class="edge">
<title>Node1&#45;&gt;Node0</title>
<path fill="none" stroke="midnightblue" d="M102,-124.11C102,-115.15 102,-105.32 102,-97.58"/>
<polygon fill="midnightblue" stroke="midnightblue" points="98.5,-124.4 102,-134.4 105.5,-124.4 98.5,-124.4"/>
</g>
<!-- Node2 -->
<g id="node3" class="node">
<title>Node2</title>
<g id="a_node3"><a xlink:title=" ">
<polygon fill="none" stroke="#bfbfbf" points="69.5,-201.5 69.5,-220.5 134.5,-220.5 134.5,-201.5 69.5,-201.5"/>
<text text-anchor="middle" x="102" y="-208.5" font-family="Helvetica,sans-Serif" font-size="10.00">Closeable</text>
</a>
</g>
</g>
<!-- Node2&#45;&gt;Node1 -->
<g id="edge2" class="edge">
<title>Node2&#45;&gt;Node1</title>
<path fill="none" stroke="midnightblue" d="M102,-191.23C102,-182.59 102,-172.5 102,-164.52"/>
<polygon fill="midnightblue" stroke="midnightblue" points="98.5,-191.48 102,-201.48 105.5,-191.48 98.5,-191.48"/>
</g>
</g>
</svg>
