<?xml version="1.0" encoding="UTF-8" standalone="no"?>
<!DOCTYPE svg PUBLIC "-//W3C//DTD SVG 1.1//EN"
 "http://www.w3.org/Graphics/SVG/1.1/DTD/svg11.dtd">
<!-- Generated by graphviz version 2.43.0 (0)
 -->
<!-- Title: fiftyone.pipeline.engines.data.ProcessCallable Pages: 1 -->
<svg width="1740pt" height="159pt"
 viewBox="0.00 0.00 1740.00 159.00" xmlns="http://www.w3.org/2000/svg" xmlns:xlink="http://www.w3.org/1999/xlink">
<g id="graph0" class="graph" transform="scale(1 1) rotate(0) translate(4 155)">
<title>fiftyone.pipeline.engines.data.ProcessCallable</title>
<!-- Node2 -->
<g id="node1" class="node">
<title>Node2</title>
<g id="a_node1"><a xlink:title="A Callable implementation which stores an AspectEngine to be used by the Callable#call() method.">
<polygon fill="#bfbfbf" stroke="black" points="1568,-90.5 1568,-120.5 1732,-120.5 1732,-90.5 1568,-90.5"/>
<text text-anchor="start" x="1576" y="-108.5" font-family="Helvetica,sans-Serif" font-size="10.00">fiftyone.pipeline.engines.data.</text>
<text text-anchor="middle" x="1650" y="-97.5" font-family="Helvetica,sans-Serif" font-size="10.00">ProcessCallable</text>
</a>
</g>
</g>
<!-- Node3 -->
<g id="node2" class="node">
<title>Node3</title>
<g id="a_node2"><a xlink:title=" ">
<polygon fill="none" stroke="#bfbfbf" points="1281.5,-120.5 1281.5,-150.5 1398.5,-150.5 1398.5,-120.5 1281.5,-120.5"/>
<text text-anchor="start" x="1289.5" y="-138.5" font-family="Helvetica,sans-Serif" font-size="10.00">java::util::concurrent</text>
<text text-anchor="middle" x="1340" y="-127.5" font-family="Helvetica,sans-Serif" font-size="10.00">::Callable&lt; Void &gt;</text>
</a>
</g>
</g>
<!-- Node3&#45;&gt;Node2 -->
<g id="edge1" class="edge">
<title>Node3&#45;&gt;Node2</title>
<path fill="none" stroke="midnightblue" d="M1408.63,-128.91C1455.55,-124.34 1518.29,-118.23 1567.9,-113.4"/>
<polygon fill="midnightblue" stroke="midnightblue" points="1408.18,-125.44 1398.57,-129.89 1408.86,-132.41 1408.18,-125.44"/>
</g>
<!-- Node4 -->
<g id="node3" class="node">
<title>Node4</title>
<g id="a_node3"><a xlink:href="interfacefiftyone_1_1pipeline_1_1engines_1_1flowelements_1_1_aspect_engine.html" target="_top" xlink:title=" ">
<polygon fill="none" stroke="black" points="1185,-49.5 1185,-101.5 1495,-101.5 1495,-49.5 1185,-49.5"/>
<text text-anchor="start" x="1193" y="-89.5" font-family="Helvetica,sans-Serif" font-size="10.00">fiftyone.pipeline.engines.flowelements.</text>
<text text-anchor="start" x="1193" y="-78.5" font-family="Helvetica,sans-Serif" font-size="10.00">AspectEngine&lt;? extends fiftyone.pipeline.engines.data.</text>
<text text-anchor="start" x="1193" y="-67.5" font-family="Helvetica,sans-Serif" font-size="10.00">AspectData, ? extends fiftyone.pipeline.engines.data.Aspect</text>
<text text-anchor="middle" x="1340" y="-56.5" font-family="Helvetica,sans-Serif" font-size="10.00">PropertyMetaData &gt;</text>
</a>
</g>
</g>
<!-- Node4&#45;&gt;Node2 -->
<g id="edge2" class="edge">
<title>Node4&#45;&gt;Node2</title>
<path fill="none" stroke="#9a32cd" stroke-dasharray="5,2" d="M1505.43,-91.52C1527.12,-93.63 1548.54,-95.71 1567.95,-97.61"/>
<polygon fill="#9a32cd" stroke="#9a32cd" points="1505.74,-88.03 1495.45,-90.54 1505.06,-95 1505.74,-88.03"/>
<text text-anchor="middle" x="1531.5" y="-98.5" font-family="Helvetica,sans-Serif" font-size="10.00"> engine</text>
</g>
<!-- Node5 -->
<g id="node4" class="node">
<title>Node5</title>
<g id="a_node4"><a xlink:href="interfacefiftyone_1_1pipeline_1_1engines_1_1flowelements_1_1_aspect_engine.html" target="_top" xlink:title="AspectEngines are a subset of FlowElements.">
<polygon fill="none" stroke="black" points="692,-55 692,-96 937,-96 937,-55 692,-55"/>
<text text-anchor="start" x="700" y="-84" font-family="Helvetica,sans-Serif" font-size="10.00">fiftyone.pipeline.engines.flowelements.</text>
<text text-anchor="start" x="700" y="-73" font-family="Helvetica,sans-Serif" font-size="10.00">AspectEngine&lt; TData extends AspectData,</text>
<text text-anchor="middle" x="814.5" y="-62" font-family="Helvetica,sans-Serif" font-size="10.00"> TProperty extends AspectPropertyMetaData &gt;</text>
</a>
</g>
</g>
<!-- Node5&#45;&gt;Node4 -->
<g id="edge3" class="edge">
<title>Node5&#45;&gt;Node4</title>
<path fill="none" stroke="orange" stroke-dasharray="5,2" d="M947.3,-75.5C1019.43,-75.5 1109.2,-75.5 1184.6,-75.5"/>
<polygon fill="orange" stroke="orange" points="947.25,-72 937.25,-75.5 947.25,-79 947.25,-72"/>
<text text-anchor="start" x="955" y="-122.5" font-family="Helvetica,sans-Serif" font-size="10.00"> &lt;? extends fiftyone</text>
<text text-anchor="start" x="955" y="-111.5" font-family="Helvetica,sans-Serif" font-size="10.00">::pipeline::engines</text>
<text text-anchor="start" x="955" y="-100.5" font-family="Helvetica,sans-Serif" font-size="10.00">::data::AspectData, </text>
<text text-anchor="start" x="955" y="-89.5" font-family="Helvetica,sans-Serif" font-size="10.00">? extends fiftyone::pipeline</text>
<text text-anchor="middle" x="1061" y="-78.5" font-family="Helvetica,sans-Serif" font-size="10.00">::engines::data::AspectPropertyMetaData &gt;</text>
</g>
<!-- Node6 -->
<g id="node5" class="node">
<title>Node6</title>
<g id="a_node5"><a xlink:href="interfacefiftyone_1_1pipeline_1_1core_1_1flowelements_1_1_flow_element.html" target="_top" xlink:title="A component that processes a FlowData (by examining its evidence, or by examining data processed by o...">
<polygon fill="none" stroke="black" points="458,-49.5 458,-101.5 588,-101.5 588,-49.5 458,-49.5"/>
<text text-anchor="start" x="466" y="-89.5" font-family="Helvetica,sans-Serif" font-size="10.00">fiftyone::pipeline</text>
<text text-anchor="start" x="466" y="-78.5" font-family="Helvetica,sans-Serif" font-size="10.00">::core::flowelements</text>
<text text-anchor="start" x="466" y="-67.5" font-family="Helvetica,sans-Serif" font-size="10.00">::FlowElement&lt; TData,</text>
<text text-anchor="middle" x="523" y="-56.5" font-family="Helvetica,sans-Serif" font-size="10.00"> TProperty &gt;</text>
</a>
</g>
</g>
<!-- Node6&#45;&gt;Node5 -->
<g id="edge4" class="edge">
<title>Node6&#45;&gt;Node5</title>
<path fill="none" stroke="midnightblue" d="M598.49,-75.5C626.91,-75.5 660.09,-75.5 691.77,-75.5"/>
<polygon fill="midnightblue" stroke="midnightblue" points="598.25,-72 588.25,-75.5 598.25,-79 598.25,-72"/>
</g>
<!-- Node7 -->
<g id="node6" class="node">
<title>Node7</title>
<g id="a_node6"><a xlink:title=" ">
<polygon fill="none" stroke="#bfbfbf" points="237,-66 237,-85 324,-85 324,-66 237,-66"/>
<text text-anchor="middle" x="280.5" y="-73" font-family="Helvetica,sans-Serif" font-size="10.00">AutoCloseable</text>
</a>
</g>
</g>
<!-- Node7&#45;&gt;Node6 -->
<g id="edge5" class="edge">
<title>Node7&#45;&gt;Node6</title>
<path fill="none" stroke="midnightblue" d="M334.62,-75.5C371,-75.5 419.44,-75.5 457.96,-75.5"/>
<polygon fill="midnightblue" stroke="midnightblue" points="334.22,-72 324.22,-75.5 334.22,-79 334.22,-72"/>
</g>
<!-- Node8 -->
<g id="node7" class="node">
<title>Node8</title>
<g id="a_node7"><a xlink:href="interfacefiftyone_1_1pipeline_1_1core_1_1data_1_1_element_data.html" target="_top" xlink:title="Represents property values that have be determined by a specific FlowElement based on the supplied ev...">
<polygon fill="none" stroke="black" points="207,-112.5 207,-142.5 354,-142.5 354,-112.5 207,-112.5"/>
<text text-anchor="start" x="215" y="-130.5" font-family="Helvetica,sans-Serif" font-size="10.00">fiftyone.pipeline.core.data.</text>
<text text-anchor="middle" x="280.5" y="-119.5" font-family="Helvetica,sans-Serif" font-size="10.00">ElementData</text>
</a>
</g>
</g>
<!-- Node8&#45;&gt;Node6 -->
<g id="edge6" class="edge">
<title>Node8&#45;&gt;Node6</title>
<path fill="none" stroke="orange" stroke-dasharray="5,2" d="M361.11,-110.29C392.56,-103.49 428.21,-95.78 457.94,-89.35"/>
<polygon fill="orange" stroke="orange" points="360.1,-106.93 351.06,-112.46 361.58,-113.77 360.1,-106.93"/>
<text text-anchor="middle" x="397.5" y="-110.5" font-family="Helvetica,sans-Serif" font-size="10.00"> TData</text>
</g>
<!-- Node11 -->
<g id="node10" class="node">
<title>Node11</title>
<g id="a_node10"><a xlink:href="interfacefiftyone_1_1pipeline_1_1engines_1_1data_1_1_aspect_data.html" target="_top" xlink:title="Represents a specialized ElementData instance that is generated by an AspectEngine.">
<polygon fill="none" stroke="black" points="441,-120.5 441,-150.5 605,-150.5 605,-120.5 441,-120.5"/>
<text text-anchor="start" x="449" y="-138.5" font-family="Helvetica,sans-Serif" font-size="10.00">fiftyone.pipeline.engines.data.</text>
<text text-anchor="middle" x="523" y="-127.5" font-family="Helvetica,sans-Serif" font-size="10.00">AspectData</text>
</a>
</g>
</g>
<!-- Node8&#45;&gt;Node11 -->
<g id="edge10" class="edge">
<title>Node8&#45;&gt;Node11</title>
<path fill="none" stroke="midnightblue" d="M364.36,-130.26C389.03,-131.08 416.03,-131.98 440.61,-132.79"/>
<polygon fill="midnightblue" stroke="midnightblue" points="364.42,-126.76 354.31,-129.92 364.19,-133.75 364.42,-126.76"/>
</g>
<!-- Node9 -->
<g id="node8" class="node">
<title>Node9</title>
<g id="a_node8"><a xlink:href="interfacefiftyone_1_1pipeline_1_1core_1_1data_1_1_data.html" target="_top" xlink:title="Represents a collection of property values.">
<polygon fill="none" stroke="black" points="0,-118 0,-137 170,-137 170,-118 0,-118"/>
<text text-anchor="middle" x="85" y="-125" font-family="Helvetica,sans-Serif" font-size="10.00">fiftyone.pipeline.core.data.Data</text>
</a>
</g>
</g>
<!-- Node9&#45;&gt;Node8 -->
<g id="edge7" class="edge">
<title>Node9&#45;&gt;Node8</title>
<path fill="none" stroke="midnightblue" d="M180.11,-127.5C189.07,-127.5 198.06,-127.5 206.77,-127.5"/>
<polygon fill="midnightblue" stroke="midnightblue" points="180.03,-124 170.03,-127.5 180.03,-131 180.03,-124"/>
</g>
<!-- Node10 -->
<g id="node9" class="node">
<title>Node10</title>
<g id="a_node9"><a xlink:href="interfacefiftyone_1_1pipeline_1_1core_1_1data_1_1_element_property_meta_data.html" target="_top" xlink:title="Defines details of a property that can be returned by a FlowElement.">
<polygon fill="none" stroke="black" points="207,-9.5 207,-39.5 354,-39.5 354,-9.5 207,-9.5"/>
<text text-anchor="start" x="215" y="-27.5" font-family="Helvetica,sans-Serif" font-size="10.00">fiftyone.pipeline.core.data.</text>
<text text-anchor="middle" x="280.5" y="-16.5" font-family="Helvetica,sans-Serif" font-size="10.00">ElementPropertyMetaData</text>
</a>
</g>
</g>
<!-- Node10&#45;&gt;Node6 -->
<g id="edge8" class="edge">
<title>Node10&#45;&gt;Node6</title>
<path fill="none" stroke="orange" stroke-dasharray="5,2" d="M362.3,-41.64C393.41,-48.23 428.47,-55.67 457.8,-61.89"/>
<polygon fill="orange" stroke="orange" points="362.87,-38.18 352.36,-39.53 361.41,-45.02 362.87,-38.18"/>
<text text-anchor="middle" x="397.5" y="-56.5" font-family="Helvetica,sans-Serif" font-size="10.00"> TProperty</text>
</g>
<!-- Node12 -->
<g id="node11" class="node">
<title>Node12</title>
<g id="a_node11"><a xlink:href="interfacefiftyone_1_1pipeline_1_1engines_1_1data_1_1_aspect_property_meta_data.html" target="_top" xlink:title="Holds details about a property that can be returned by an AspectEngine.">
<polygon fill="none" stroke="black" points="441,-0.5 441,-30.5 605,-30.5 605,-0.5 441,-0.5"/>
<text text-anchor="start" x="449" y="-18.5" font-family="Helvetica,sans-Serif" font-size="10.00">fiftyone.pipeline.engines.data.</text>
<text text-anchor="middle" x="523" y="-7.5" font-family="Helvetica,sans-Serif" font-size="10.00">AspectPropertyMetaData</text>
</a>
</g>
</g>
<!-- Node10&#45;&gt;Node12 -->
<g id="edge12" class="edge">
<title>Node10&#45;&gt;Node12</title>
<path fill="none" stroke="midnightblue" d="M364.36,-21.4C389.03,-20.48 416.03,-19.47 440.61,-18.55"/>
<polygon fill="midnightblue" stroke="midnightblue" points="364.17,-17.9 354.31,-21.78 364.43,-24.9 364.17,-17.9"/>
</g>
<!-- Node11&#45;&gt;Node5 -->
<g id="edge9" class="edge">
<title>Node11&#45;&gt;Node5</title>
<path fill="none" stroke="orange" stroke-dasharray="5,2" d="M606.48,-118.41C640.14,-111.43 679.35,-103.3 714.53,-96.01"/>
<polygon fill="orange" stroke="orange" points="605.76,-114.98 596.68,-120.44 607.18,-121.83 605.76,-114.98"/>
<text text-anchor="middle" x="648.5" y="-116.5" font-family="Helvetica,sans-Serif" font-size="10.00"> TData</text>
</g>
<!-- Node12&#45;&gt;Node5 -->
<g id="edge11" class="edge">
<title>Node12&#45;&gt;Node5</title>
<path fill="none" stroke="orange" stroke-dasharray="5,2" d="M606.48,-32.59C640.14,-39.57 679.35,-47.7 714.53,-54.99"/>
<polygon fill="orange" stroke="orange" points="607.18,-29.17 596.68,-30.56 605.76,-36.02 607.18,-29.17"/>
<text text-anchor="middle" x="648.5" y="-48.5" font-family="Helvetica,sans-Serif" font-size="10.00"> TProperty</text>
</g>
</g>
</svg>
