<?xml version="1.0" encoding="UTF-8" standalone="no"?>
<!DOCTYPE svg PUBLIC "-//W3C//DTD SVG 1.1//EN"
 "http://www.w3.org/Graphics/SVG/1.1/DTD/svg11.dtd">
<!-- Generated by graphviz version 2.43.0 (0)
 -->
<!-- Title: fiftyone.pipeline.web.mvc.services.PipelineResultService.Default Pages: 1 -->
<svg width="623pt" height="88pt"
 viewBox="0.00 0.00 623.00 88.00" xmlns="http://www.w3.org/2000/svg" xmlns:xlink="http://www.w3.org/1999/xlink">
<g id="graph0" class="graph" transform="scale(1 1) rotate(0) translate(4 84)">
<title>fiftyone.pipeline.web.mvc.services.PipelineResultService.Default</title>
<!-- Node0 -->
<g id="node1" class="node">
<title>Node0</title>
<g id="a_node1"><a xlink:title=" ">
<polygon fill="#bfbfbf" stroke="black" points="426,-24.5 426,-54.5 615,-54.5 615,-24.5 426,-24.5"/>
<text text-anchor="start" x="434" y="-42.5" font-family="Helvetica,sans-Serif" font-size="10.00">fiftyone.pipeline.web.mvc.services.</text>
<text text-anchor="middle" x="520.5" y="-31.5" font-family="Helvetica,sans-Serif" font-size="10.00">PipelineResultService.Default</text>
</a>
</g>
</g>
<!-- Node1 -->
<g id="node2" class="node">
<title>Node1</title>
<g id="a_node2"><a xlink:href="classfiftyone_1_1pipeline_1_1web_1_1services_1_1_pipeline_result_service_core_1_1_default.html" target="_top" xlink:title="Default implementation of the PipelineResultServiceCore service.">
<polygon fill="none" stroke="black" points="203.5,-49.5 203.5,-79.5 387.5,-79.5 387.5,-49.5 203.5,-49.5"/>
<text text-anchor="start" x="211.5" y="-67.5" font-family="Helvetica,sans-Serif" font-size="10.00">fiftyone.pipeline.web.services.</text>
<text text-anchor="middle" x="295.5" y="-56.5" font-family="Helvetica,sans-Serif" font-size="10.00">PipelineResultServiceCore.Default</text>
</a>
</g>
</g>
<!-- Node1&#45;&gt;Node0 -->
<g id="edge1" class="edge">
<title>Node1&#45;&gt;Node0</title>
<path fill="none" stroke="midnightblue" d="M397.67,-53.16C407.06,-52.11 416.55,-51.04 425.87,-50"/>
<polygon fill="midnightblue" stroke="midnightblue" points="397.07,-49.7 387.52,-54.3 397.85,-56.66 397.07,-49.7"/>
</g>
<!-- Node2 -->
<g id="node3" class="node">
<title>Node2</title>
<g id="a_node3"><a xlink:href="interfacefiftyone_1_1pipeline_1_1web_1_1services_1_1_pipeline_result_service_core.html" target="_top" xlink:title="Service used to process web requests through the Pipeline.">
<polygon fill="none" stroke="black" points="0,-24.5 0,-54.5 165,-54.5 165,-24.5 0,-24.5"/>
<text text-anchor="start" x="8" y="-42.5" font-family="Helvetica,sans-Serif" font-size="10.00">fiftyone.pipeline.web.services.</text>
<text text-anchor="middle" x="82.5" y="-31.5" font-family="Helvetica,sans-Serif" font-size="10.00">PipelineResultServiceCore</text>
</a>
</g>
</g>
<!-- Node2&#45;&gt;Node1 -->
<g id="edge2" class="edge">
<title>Node2&#45;&gt;Node1</title>
<path fill="none" stroke="midnightblue" d="M175.14,-50.36C184.49,-51.47 193.98,-52.59 203.32,-53.7"/>
<polygon fill="midnightblue" stroke="midnightblue" points="175.42,-46.87 165.08,-49.17 174.6,-53.82 175.42,-46.87"/>
</g>
<!-- Node3 -->
<g id="node4" class="node">
<title>Node3</title>
<g id="a_node4"><a xlink:href="interfacefiftyone_1_1pipeline_1_1web_1_1mvc_1_1services_1_1_pipeline_result_service.html" target="_top" xlink:title="Spring framework service for the PipelineResultServiceCore.">
<polygon fill="none" stroke="black" points="201,-0.5 201,-30.5 390,-30.5 390,-0.5 201,-0.5"/>
<text text-anchor="start" x="209" y="-18.5" font-family="Helvetica,sans-Serif" font-size="10.00">fiftyone.pipeline.web.mvc.services.</text>
<text text-anchor="middle" x="295.5" y="-7.5" font-family="Helvetica,sans-Serif" font-size="10.00">PipelineResultService</text>
</a>
</g>
</g>
<!-- Node2&#45;&gt;Node3 -->
<g id="edge4" class="edge">
<title>Node2&#45;&gt;Node3</title>
<path fill="none" stroke="midnightblue" d="M175.05,-29.09C183.6,-28.11 192.27,-27.13 200.84,-26.15"/>
<polygon fill="midnightblue" stroke="midnightblue" points="174.62,-25.61 165.08,-30.22 175.41,-32.57 174.62,-25.61"/>
</g>
<!-- Node3&#45;&gt;Node0 -->
<g id="edge3" class="edge">
<title>Node3&#45;&gt;Node0</title>
<path fill="none" stroke="midnightblue" d="M400.11,-26.65C408.67,-27.57 417.3,-28.5 425.78,-29.41"/>
<polygon fill="midnightblue" stroke="midnightblue" points="400.42,-23.16 390.1,-25.57 399.67,-30.12 400.42,-23.16"/>
</g>
</g>
</svg>
