<?xml version="1.0" encoding="UTF-8" standalone="no"?>
<!DOCTYPE svg PUBLIC "-//W3C//DTD SVG 1.1//EN"
 "http://www.w3.org/Graphics/SVG/1.1/DTD/svg11.dtd">
<!-- Generated by graphviz version 2.43.0 (0)
 -->
<!-- Title: fiftyone.pipeline.core.flowelements.PipelineBuilderBase&lt; T extends PipelineBuilderBase &gt; Pages: 1 -->
<svg width="1142pt" height="159pt"
 viewBox="0.00 0.00 1142.00 159.00" xmlns="http://www.w3.org/2000/svg" xmlns:xlink="http://www.w3.org/1999/xlink">
<g id="graph0" class="graph" transform="scale(1 1) rotate(0) translate(4 155)">
<title>fiftyone.pipeline.core.flowelements.PipelineBuilderBase&lt; T extends PipelineBuilderBase &gt;</title>
<!-- Node0 -->
<g id="node1" class="node">
<title>Node0</title>
<g id="a_node1"><a xlink:title="Abstract base class for all Pipeline builders.">
<polygon fill="#bfbfbf" stroke="black" points="0,-44 0,-85 191,-85 191,-44 0,-44"/>
<text text-anchor="start" x="8" y="-73" font-family="Helvetica,sans-Serif" font-size="10.00">fiftyone.pipeline.core.flowelements.</text>
<text text-anchor="start" x="8" y="-62" font-family="Helvetica,sans-Serif" font-size="10.00">PipelineBuilderBase&lt; T extends</text>
<text text-anchor="middle" x="95.5" y="-51" font-family="Helvetica,sans-Serif" font-size="10.00"> PipelineBuilderBase &gt;</text>
</a>
</g>
</g>
<!-- Node0&#45;&gt;Node0 -->
<g id="edge1" class="edge">
<title>Node0&#45;&gt;Node0</title>
<path fill="none" stroke="orange" stroke-dasharray="5,2" d="M81.56,-95.36C83.64,-100.2 88.28,-103.5 95.5,-103.5 107.05,-103.5 112.01,-95.04 110.39,-85.36"/>
<polygon fill="orange" stroke="orange" points="85.05,-94.99 80.61,-85.36 78.08,-95.65 85.05,-94.99"/>
<text text-anchor="middle" x="95.5" y="-106.5" font-family="Helvetica,sans-Serif" font-size="10.00"> T</text>
</g>
<!-- Node0&#45;&gt;Node0 -->
<g id="edge2" class="edge">
<title>Node0&#45;&gt;Node0</title>
<path fill="none" stroke="orange" stroke-dasharray="5,2" d="M65.78,-94.75C62.36,-109 72.27,-121.5 95.5,-121.5 123.82,-121.5 132.34,-102.92 121.05,-85.25"/>
<polygon fill="orange" stroke="orange" points="69.14,-95.81 69.95,-85.25 62.73,-93 69.14,-95.81"/>
<text text-anchor="middle" x="95.5" y="-124.5" font-family="Helvetica,sans-Serif" font-size="10.00"> T</text>
</g>
<!-- Node1 -->
<g id="node2" class="node">
<title>Node1</title>
<g id="a_node2"><a xlink:href="classfiftyone_1_1pipeline_1_1engines_1_1flowelements_1_1_pre_packaged_pipeline_builder_base.html" target="_top" xlink:title="Base class for pipeline builders that will produce a pipeline with specific flow elements.">
<polygon fill="none" stroke="black" points="341,-98.5 341,-150.5 523,-150.5 523,-98.5 341,-98.5"/>
<text text-anchor="start" x="349" y="-138.5" font-family="Helvetica,sans-Serif" font-size="10.00">fiftyone::pipeline</text>
<text text-anchor="start" x="349" y="-127.5" font-family="Helvetica,sans-Serif" font-size="10.00">::engines::flowelements</text>
<text text-anchor="start" x="349" y="-116.5" font-family="Helvetica,sans-Serif" font-size="10.00">::PrePackagedPipelineBuilderBase</text>
<text text-anchor="middle" x="432" y="-105.5" font-family="Helvetica,sans-Serif" font-size="10.00">&lt; TBuilder &gt;</text>
</a>
</g>
</g>
<!-- Node0&#45;&gt;Node1 -->
<g id="edge3" class="edge">
<title>Node0&#45;&gt;Node1</title>
<path fill="none" stroke="midnightblue" d="M201.05,-83.25C245.85,-91.29 297.66,-100.58 340.75,-108.31"/>
<polygon fill="midnightblue" stroke="midnightblue" points="201.47,-79.77 191.01,-81.45 200.24,-86.66 201.47,-79.77"/>
</g>
<!-- Node4 -->
<g id="node5" class="node">
<title>Node4</title>
<g id="a_node5"><a xlink:href="classfiftyone_1_1pipeline_1_1core_1_1flowelements_1_1_pipeline_builder_base.html" target="_top" xlink:title=" ">
<polygon fill="none" stroke="black" points="327,-49.5 327,-79.5 537,-79.5 537,-49.5 327,-49.5"/>
<text text-anchor="start" x="335" y="-67.5" font-family="Helvetica,sans-Serif" font-size="10.00">fiftyone.pipeline.core.flowelements.</text>
<text text-anchor="middle" x="432" y="-56.5" font-family="Helvetica,sans-Serif" font-size="10.00">PipelineBuilderBase&lt; PipelineBuilder &gt;</text>
</a>
</g>
</g>
<!-- Node0&#45;&gt;Node4 -->
<g id="edge6" class="edge">
<title>Node0&#45;&gt;Node4</title>
<path fill="none" stroke="orange" stroke-dasharray="5,2" d="M201.06,-64.5C241.1,-64.5 286.74,-64.5 326.74,-64.5"/>
<polygon fill="orange" stroke="orange" points="201.01,-61 191.01,-64.5 201.01,-68 201.01,-61"/>
<text text-anchor="middle" x="259" y="-67.5" font-family="Helvetica,sans-Serif" font-size="10.00"> &lt; PipelineBuilder &gt;</text>
</g>
<!-- Node7 -->
<g id="node8" class="node">
<title>Node7</title>
<g id="a_node8"><a xlink:href="classfiftyone_1_1pipeline_1_1core_1_1flowelements_1_1_pipeline_builder_base.html" target="_top" xlink:title=" ">
<polygon fill="none" stroke="black" points="336.5,-0.5 336.5,-30.5 527.5,-30.5 527.5,-0.5 336.5,-0.5"/>
<text text-anchor="start" x="344.5" y="-18.5" font-family="Helvetica,sans-Serif" font-size="10.00">fiftyone.pipeline.core.flowelements.</text>
<text text-anchor="middle" x="432" y="-7.5" font-family="Helvetica,sans-Serif" font-size="10.00">PipelineBuilderBase&lt; TBuilder &gt;</text>
</a>
</g>
</g>
<!-- Node0&#45;&gt;Node7 -->
<g id="edge9" class="edge">
<title>Node0&#45;&gt;Node7</title>
<path fill="none" stroke="orange" stroke-dasharray="5,2" d="M201.01,-49.19C244.33,-42.85 294.21,-35.54 336.43,-29.35"/>
<polygon fill="orange" stroke="orange" points="200.4,-45.74 191.01,-50.66 201.41,-52.67 200.4,-45.74"/>
<text text-anchor="middle" x="259" y="-50.5" font-family="Helvetica,sans-Serif" font-size="10.00"> &lt; TBuilder &gt;</text>
</g>
<!-- Node2 -->
<g id="node3" class="node">
<title>Node2</title>
<g id="a_node3"><a xlink:href="classfiftyone_1_1pipeline_1_1engines_1_1flowelements_1_1_pre_packaged_pipeline_builder_base.html" target="_top" xlink:title=" ">
<polygon fill="none" stroke="black" points="640,-104 640,-145 849,-145 849,-104 640,-104"/>
<text text-anchor="start" x="648" y="-133" font-family="Helvetica,sans-Serif" font-size="10.00">fiftyone.pipeline.engines.flowelements.</text>
<text text-anchor="start" x="648" y="-122" font-family="Helvetica,sans-Serif" font-size="10.00">PrePackagedPipelineBuilderBase</text>
<text text-anchor="middle" x="744.5" y="-111" font-family="Helvetica,sans-Serif" font-size="10.00">&lt; TBuilder &gt;</text>
</a>
</g>
</g>
<!-- Node1&#45;&gt;Node2 -->
<g id="edge4" class="edge">
<title>Node1&#45;&gt;Node2</title>
<path fill="none" stroke="orange" stroke-dasharray="5,2" d="M533.65,-124.5C567.66,-124.5 605.68,-124.5 639.92,-124.5"/>
<polygon fill="orange" stroke="orange" points="533.23,-121 523.23,-124.5 533.23,-128 533.23,-121"/>
<text text-anchor="middle" x="588.5" y="-127.5" font-family="Helvetica,sans-Serif" font-size="10.00"> &lt; TBuilder &gt;</text>
</g>
<!-- Node3 -->
<g id="node4" class="node">
<title>Node3</title>
<g id="a_node4"><a xlink:href="classfiftyone_1_1pipeline_1_1engines_1_1flowelements_1_1_cloud_pipeline_builder_base.html" target="_top" xlink:title="Base class for pipeline builders that will produce a pipeline with specific flow elements.">
<polygon fill="none" stroke="black" points="905.5,-98.5 905.5,-150.5 1114.5,-150.5 1114.5,-98.5 905.5,-98.5"/>
<text text-anchor="start" x="913.5" y="-138.5" font-family="Helvetica,sans-Serif" font-size="10.00">fiftyone.pipeline.engines.flowelements.</text>
<text text-anchor="start" x="913.5" y="-127.5" font-family="Helvetica,sans-Serif" font-size="10.00">CloudPipelineBuilderBase&lt; TBuilder</text>
<text text-anchor="start" x="913.5" y="-116.5" font-family="Helvetica,sans-Serif" font-size="10.00"> extends CloudPipelineBuilderBase</text>
<text text-anchor="middle" x="1010" y="-105.5" font-family="Helvetica,sans-Serif" font-size="10.00">&lt; TBuilder &gt;</text>
</a>
</g>
</g>
<!-- Node2&#45;&gt;Node3 -->
<g id="edge5" class="edge">
<title>Node2&#45;&gt;Node3</title>
<path fill="none" stroke="midnightblue" d="M859.27,-124.5C874.57,-124.5 890.21,-124.5 905.33,-124.5"/>
<polygon fill="midnightblue" stroke="midnightblue" points="859.26,-121 849.26,-124.5 859.26,-128 859.26,-121"/>
</g>
<!-- Node5 -->
<g id="node6" class="node">
<title>Node5</title>
<g id="a_node6"><a xlink:href="classfiftyone_1_1pipeline_1_1core_1_1flowelements_1_1_pipeline_builder.html" target="_top" xlink:title="The PipelineBuilder follows the fluent builder pattern.">
<polygon fill="none" stroke="black" points="649,-49.5 649,-79.5 840,-79.5 840,-49.5 649,-49.5"/>
<text text-anchor="start" x="657" y="-67.5" font-family="Helvetica,sans-Serif" font-size="10.00">fiftyone.pipeline.core.flowelements.</text>
<text text-anchor="middle" x="744.5" y="-56.5" font-family="Helvetica,sans-Serif" font-size="10.00">PipelineBuilder</text>
</a>
</g>
</g>
<!-- Node4&#45;&gt;Node5 -->
<g id="edge7" class="edge">
<title>Node4&#45;&gt;Node5</title>
<path fill="none" stroke="midnightblue" d="M547.52,-64.5C580.88,-64.5 616.94,-64.5 648.92,-64.5"/>
<polygon fill="midnightblue" stroke="midnightblue" points="547.26,-61 537.26,-64.5 547.26,-68 547.26,-61"/>
</g>
<!-- Node6 -->
<g id="node7" class="node">
<title>Node6</title>
<g id="a_node7"><a xlink:href="classfiftyone_1_1pipeline_1_1engines_1_1fiftyone_1_1flowelements_1_1_fifty_one_pipeline_builder.html" target="_top" xlink:title="Pipeline builder class that allows the 51Degrees share usage element to be enabled/disabled.">
<polygon fill="none" stroke="black" points="886,-49.5 886,-79.5 1134,-79.5 1134,-49.5 886,-49.5"/>
<text text-anchor="start" x="894" y="-67.5" font-family="Helvetica,sans-Serif" font-size="10.00">fiftyone.pipeline.engines.fiftyone.flowelements.</text>
<text text-anchor="middle" x="1010" y="-56.5" font-family="Helvetica,sans-Serif" font-size="10.00">FiftyOnePipelineBuilder</text>
</a>
</g>
</g>
<!-- Node5&#45;&gt;Node6 -->
<g id="edge8" class="edge">
<title>Node5&#45;&gt;Node6</title>
<path fill="none" stroke="midnightblue" d="M850.38,-64.5C861.99,-64.5 873.9,-64.5 885.72,-64.5"/>
<polygon fill="midnightblue" stroke="midnightblue" points="850.26,-61 840.26,-64.5 850.26,-68 850.26,-61"/>
</g>
</g>
</svg>
