<?xml version="1.0" encoding="UTF-8" standalone="no"?>
<!DOCTYPE svg PUBLIC "-//W3C//DTD SVG 1.1//EN"
 "http://www.w3.org/Graphics/SVG/1.1/DTD/svg11.dtd">
<!-- Generated by graphviz version 2.43.0 (0)
 -->
<!-- Title: fiftyone.pipeline.engines.data.AspectPropertyMetaDataDefault Pages: 1 -->
<svg width="835pt" height="88pt"
 viewBox="0.00 0.00 835.00 88.00" xmlns="http://www.w3.org/2000/svg" xmlns:xlink="http://www.w3.org/1999/xlink">
<g id="graph0" class="graph" transform="scale(1 1) rotate(0) translate(4 84)">
<title>fiftyone.pipeline.engines.data.AspectPropertyMetaDataDefault</title>
<!-- Node0 -->
<g id="node1" class="node">
<title>Node0</title>
<g id="a_node1"><a xlink:title="Basic implementation of the AspectPropertyMetaData interface.">
<polygon fill="#bfbfbf" stroke="black" points="401,-24.5 401,-54.5 576,-54.5 576,-24.5 401,-24.5"/>
<text text-anchor="start" x="409" y="-42.5" font-family="Helvetica,sans-Serif" font-size="10.00">fiftyone.pipeline.engines.data.</text>
<text text-anchor="middle" x="488.5" y="-31.5" font-family="Helvetica,sans-Serif" font-size="10.00">AspectPropertyMetaDataDefault</text>
</a>
</g>
</g>
<!-- Node4 -->
<g id="node5" class="node">
<title>Node4</title>
<g id="a_node5"><a xlink:href="classfiftyone_1_1pipeline_1_1engines_1_1fiftyone_1_1data_1_1_fifty_one_aspect_property_meta_data_default.html" target="_top" xlink:title=" ">
<polygon fill="none" stroke="black" points="612,-24.5 612,-54.5 827,-54.5 827,-24.5 612,-24.5"/>
<text text-anchor="start" x="620" y="-42.5" font-family="Helvetica,sans-Serif" font-size="10.00">fiftyone.pipeline.engines.fiftyone.data.</text>
<text text-anchor="middle" x="719.5" y="-31.5" font-family="Helvetica,sans-Serif" font-size="10.00">FiftyOneAspectPropertyMetaDataDefault</text>
</a>
</g>
</g>
<!-- Node0&#45;&gt;Node4 -->
<g id="edge5" class="edge">
<title>Node0&#45;&gt;Node4</title>
<path fill="none" stroke="midnightblue" d="M586.27,-39.5C594.69,-39.5 603.25,-39.5 611.74,-39.5"/>
<polygon fill="midnightblue" stroke="midnightblue" points="586.08,-36 576.08,-39.5 586.08,-43 586.08,-36"/>
</g>
<!-- Node1 -->
<g id="node2" class="node">
<title>Node1</title>
<g id="a_node2"><a xlink:href="classfiftyone_1_1pipeline_1_1core_1_1data_1_1_element_property_meta_data_default.html" target="_top" xlink:title="Default implementation of the ElementPropertyMetaData interface.">
<polygon fill="none" stroke="black" points="183,-49.5 183,-79.5 365,-79.5 365,-49.5 183,-49.5"/>
<text text-anchor="start" x="191" y="-67.5" font-family="Helvetica,sans-Serif" font-size="10.00">fiftyone.pipeline.core.data.</text>
<text text-anchor="middle" x="274" y="-56.5" font-family="Helvetica,sans-Serif" font-size="10.00">ElementPropertyMetaDataDefault</text>
</a>
</g>
</g>
<!-- Node1&#45;&gt;Node0 -->
<g id="edge1" class="edge">
<title>Node1&#45;&gt;Node0</title>
<path fill="none" stroke="midnightblue" d="M375.19,-52.71C383.81,-51.7 392.47,-50.68 400.97,-49.68"/>
<polygon fill="midnightblue" stroke="midnightblue" points="374.64,-49.25 365.12,-53.9 375.46,-56.21 374.64,-49.25"/>
</g>
<!-- Node2 -->
<g id="node3" class="node">
<title>Node2</title>
<g id="a_node3"><a xlink:href="interfacefiftyone_1_1pipeline_1_1core_1_1data_1_1_element_property_meta_data.html" target="_top" xlink:title="Defines details of a property that can be returned by a FlowElement.">
<polygon fill="none" stroke="black" points="0,-24.5 0,-54.5 147,-54.5 147,-24.5 0,-24.5"/>
<text text-anchor="start" x="8" y="-42.5" font-family="Helvetica,sans-Serif" font-size="10.00">fiftyone.pipeline.core.data.</text>
<text text-anchor="middle" x="73.5" y="-31.5" font-family="Helvetica,sans-Serif" font-size="10.00">ElementPropertyMetaData</text>
</a>
</g>
</g>
<!-- Node2&#45;&gt;Node1 -->
<g id="edge2" class="edge">
<title>Node2&#45;&gt;Node1</title>
<path fill="none" stroke="midnightblue" d="M156.93,-49.88C165.46,-50.96 174.16,-52.05 182.77,-53.14"/>
<polygon fill="midnightblue" stroke="midnightblue" points="157.36,-46.41 147.01,-48.63 156.49,-53.35 157.36,-46.41"/>
</g>
<!-- Node3 -->
<g id="node4" class="node">
<title>Node3</title>
<g id="a_node4"><a xlink:href="interfacefiftyone_1_1pipeline_1_1engines_1_1data_1_1_aspect_property_meta_data.html" target="_top" xlink:title="Holds details about a property that can be returned by an AspectEngine.">
<polygon fill="none" stroke="black" points="192,-0.5 192,-30.5 356,-30.5 356,-0.5 192,-0.5"/>
<text text-anchor="start" x="200" y="-18.5" font-family="Helvetica,sans-Serif" font-size="10.00">fiftyone.pipeline.engines.data.</text>
<text text-anchor="middle" x="274" y="-7.5" font-family="Helvetica,sans-Serif" font-size="10.00">AspectPropertyMetaData</text>
</a>
</g>
</g>
<!-- Node2&#45;&gt;Node3 -->
<g id="edge4" class="edge">
<title>Node2&#45;&gt;Node3</title>
<path fill="none" stroke="midnightblue" d="M157.05,-29.52C168.6,-28.12 180.45,-26.69 191.97,-25.3"/>
<polygon fill="midnightblue" stroke="midnightblue" points="156.51,-26.06 147.01,-30.73 157.35,-33.01 156.51,-26.06"/>
</g>
<!-- Node3&#45;&gt;Node0 -->
<g id="edge3" class="edge">
<title>Node3&#45;&gt;Node0</title>
<path fill="none" stroke="midnightblue" d="M366.29,-25.81C377.81,-27.11 389.56,-28.44 401,-29.73"/>
<polygon fill="midnightblue" stroke="midnightblue" points="366.58,-22.32 356.25,-24.68 365.79,-29.28 366.58,-22.32"/>
</g>
</g>
</svg>
