<?xml version="1.0" encoding="UTF-8" standalone="no"?>
<!DOCTYPE svg PUBLIC "-//W3C//DTD SVG 1.1//EN"
 "http://www.w3.org/Graphics/SVG/1.1/DTD/svg11.dtd">
<!-- Generated by graphviz version 2.43.0 (0)
 -->
<!-- Title: fiftyone.pipeline.engines.fiftyone.data.EvidenceKeyFilterShareUsageTracker Pages: 1 -->
<svg width="212pt" height="173pt"
 viewBox="0.00 0.00 212.00 173.00" xmlns="http://www.w3.org/2000/svg" xmlns:xlink="http://www.w3.org/1999/xlink">
<g id="graph0" class="graph" transform="scale(1 1) rotate(0) translate(4 169)">
<title>fiftyone.pipeline.engines.fiftyone.data.EvidenceKeyFilterShareUsageTracker</title>
<!-- Node3 -->
<g id="node1" class="node">
<title>Node3</title>
<g id="a_node1"><a xlink:title="Wrapper for EvidenceKeyFilter for Share Usage, to be used with the ShareUsageTracker to excluded spec...">
<polygon fill="#bfbfbf" stroke="black" points="0,-0.5 0,-30.5 204,-30.5 204,-0.5 0,-0.5"/>
<text text-anchor="start" x="8" y="-18.5" font-family="Helvetica,sans-Serif" font-size="10.00">fiftyone.pipeline.engines.fiftyone.data.</text>
<text text-anchor="middle" x="102" y="-7.5" font-family="Helvetica,sans-Serif" font-size="10.00">EvidenceKeyFilterShareUsageTracker</text>
</a>
</g>
</g>
<!-- Node4 -->
<g id="node2" class="node">
<title>Node4</title>
<g id="a_node2"><a xlink:href="classfiftyone_1_1pipeline_1_1engines_1_1fiftyone_1_1data_1_1_evidence_key_filter_share_usage.html" target="_top" xlink:title="This filter is used by the ShareUsageElement.">
<polygon fill="none" stroke="black" points="0,-67.5 0,-97.5 204,-97.5 204,-67.5 0,-67.5"/>
<text text-anchor="start" x="8" y="-85.5" font-family="Helvetica,sans-Serif" font-size="10.00">fiftyone.pipeline.engines.fiftyone.data.</text>
<text text-anchor="middle" x="102" y="-74.5" font-family="Helvetica,sans-Serif" font-size="10.00">EvidenceKeyFilterShareUsage</text>
</a>
</g>
</g>
<!-- Node4&#45;&gt;Node3 -->
<g id="edge1" class="edge">
<title>Node4&#45;&gt;Node3</title>
<path fill="none" stroke="midnightblue" d="M102,-57.11C102,-48.15 102,-38.32 102,-30.58"/>
<polygon fill="midnightblue" stroke="midnightblue" points="98.5,-57.4 102,-67.4 105.5,-57.4 98.5,-57.4"/>
</g>
<!-- Node5 -->
<g id="node3" class="node">
<title>Node5</title>
<g id="a_node3"><a xlink:href="interfacefiftyone_1_1pipeline_1_1core_1_1data_1_1_evidence_key_filter.html" target="_top" xlink:title="Represents an object that filters evidence key names based on some criteria.">
<polygon fill="none" stroke="black" points="28.5,-134.5 28.5,-164.5 175.5,-164.5 175.5,-134.5 28.5,-134.5"/>
<text text-anchor="start" x="36.5" y="-152.5" font-family="Helvetica,sans-Serif" font-size="10.00">fiftyone.pipeline.core.data.</text>
<text text-anchor="middle" x="102" y="-141.5" font-family="Helvetica,sans-Serif" font-size="10.00">EvidenceKeyFilter</text>
</a>
</g>
</g>
<!-- Node5&#45;&gt;Node4 -->
<g id="edge2" class="edge">
<title>Node5&#45;&gt;Node4</title>
<path fill="none" stroke="midnightblue" d="M102,-124.11C102,-115.15 102,-105.32 102,-97.58"/>
<polygon fill="midnightblue" stroke="midnightblue" points="98.5,-124.4 102,-134.4 105.5,-124.4 98.5,-124.4"/>
</g>
</g>
</svg>
