<?xml version="1.0" encoding="UTF-8" standalone="no"?>
<!DOCTYPE svg PUBLIC "-//W3C//DTD SVG 1.1//EN"
 "http://www.w3.org/Graphics/SVG/1.1/DTD/svg11.dtd">
<!-- Generated by graphviz version 2.43.0 (0)
 -->
<!-- Title: fiftyone.pipeline.core.flowelements.FlowElementBase&lt; TData extends ElementData, TProperty extends ElementPropertyMetaData &gt; Pages: 1 -->
<svg width="1314pt" height="232pt"
 viewBox="0.00 0.00 1314.00 231.50" xmlns="http://www.w3.org/2000/svg" xmlns:xlink="http://www.w3.org/1999/xlink">
<g id="graph0" class="graph" transform="scale(1 1) rotate(0) translate(4 227.5)">
<title>fiftyone.pipeline.core.flowelements.FlowElementBase&lt; TData extends ElementData, TProperty extends ElementPropertyMetaData &gt;</title>
<!-- Node30 -->
<g id="node1" class="node">
<title>Node30</title>
<g id="a_node1"><a xlink:title="Provides a base class from which authors may create new FlowElements.">
<polygon fill="#bfbfbf" stroke="black" points="1115,-72 1115,-124 1306,-124 1306,-72 1115,-72"/>
<text text-anchor="start" x="1123" y="-112" font-family="Helvetica,sans-Serif" font-size="10.00">fiftyone.pipeline.core.flowelements.</text>
<text text-anchor="start" x="1123" y="-101" font-family="Helvetica,sans-Serif" font-size="10.00">FlowElementBase&lt; TData extends</text>
<text text-anchor="start" x="1123" y="-90" font-family="Helvetica,sans-Serif" font-size="10.00"> ElementData, TProperty extends</text>
<text text-anchor="middle" x="1210.5" y="-79" font-family="Helvetica,sans-Serif" font-size="10.00"> ElementPropertyMetaData &gt;</text>
</a>
</g>
</g>
<!-- Node31 -->
<g id="node2" class="node">
<title>Node31</title>
<g id="a_node2"><a xlink:href="interfacefiftyone_1_1pipeline_1_1core_1_1flowelements_1_1_flow_element.html" target="_top" xlink:title=" ">
<polygon fill="none" stroke="black" points="839,-129 839,-159 1030,-159 1030,-129 839,-129"/>
<text text-anchor="start" x="847" y="-147" font-family="Helvetica,sans-Serif" font-size="10.00">fiftyone.pipeline.core.flowelements.</text>
<text text-anchor="middle" x="934.5" y="-136" font-family="Helvetica,sans-Serif" font-size="10.00">FlowElement&lt; TData, TProperty &gt;</text>
</a>
</g>
</g>
<!-- Node31&#45;&gt;Node30 -->
<g id="edge1" class="edge">
<title>Node31&#45;&gt;Node30</title>
<path fill="none" stroke="midnightblue" d="M1035.09,-127.28C1061.12,-122.91 1089.1,-118.21 1114.87,-113.89"/>
<polygon fill="midnightblue" stroke="midnightblue" points="1034.5,-123.83 1025.22,-128.94 1035.66,-130.73 1034.5,-123.83"/>
</g>
<!-- Node32 -->
<g id="node3" class="node">
<title>Node32</title>
<g id="a_node3"><a xlink:href="interfacefiftyone_1_1pipeline_1_1core_1_1flowelements_1_1_flow_element.html" target="_top" xlink:title="A component that processes a FlowData (by examining its evidence, or by examining data processed by o...">
<polygon fill="none" stroke="black" points="441,-134.5 441,-175.5 694,-175.5 694,-134.5 441,-134.5"/>
<text text-anchor="start" x="449" y="-163.5" font-family="Helvetica,sans-Serif" font-size="10.00">fiftyone.pipeline.core.flowelements.</text>
<text text-anchor="start" x="449" y="-152.5" font-family="Helvetica,sans-Serif" font-size="10.00">FlowElement&lt; TData extends ElementData,</text>
<text text-anchor="middle" x="567.5" y="-141.5" font-family="Helvetica,sans-Serif" font-size="10.00"> TProperty extends ElementPropertyMetaData &gt;</text>
</a>
</g>
</g>
<!-- Node32&#45;&gt;Node31 -->
<g id="edge2" class="edge">
<title>Node32&#45;&gt;Node31</title>
<path fill="none" stroke="orange" stroke-dasharray="5,2" d="M704.2,-150.91C748.97,-149.56 797.77,-148.09 838.8,-146.85"/>
<polygon fill="orange" stroke="orange" points="704,-147.41 694.11,-151.21 704.21,-154.41 704,-147.41"/>
<text text-anchor="middle" x="766.5" y="-153" font-family="Helvetica,sans-Serif" font-size="10.00"> &lt; TData, TProperty &gt;</text>
</g>
<!-- Node33 -->
<g id="node4" class="node">
<title>Node33</title>
<g id="a_node4"><a xlink:title=" ">
<polygon fill="none" stroke="#bfbfbf" points="237,-147.5 237,-166.5 324,-166.5 324,-147.5 237,-147.5"/>
<text text-anchor="middle" x="280.5" y="-154.5" font-family="Helvetica,sans-Serif" font-size="10.00">AutoCloseable</text>
</a>
</g>
</g>
<!-- Node33&#45;&gt;Node32 -->
<g id="edge3" class="edge">
<title>Node33&#45;&gt;Node32</title>
<path fill="none" stroke="midnightblue" d="M334.4,-156.63C364.44,-156.42 403.4,-156.14 440.81,-155.88"/>
<polygon fill="midnightblue" stroke="midnightblue" points="334.14,-153.13 324.17,-156.7 334.19,-160.13 334.14,-153.13"/>
</g>
<!-- Node34 -->
<g id="node5" class="node">
<title>Node34</title>
<g id="a_node5"><a xlink:href="interfacefiftyone_1_1pipeline_1_1core_1_1data_1_1_element_data.html" target="_top" xlink:title="Represents property values that have be determined by a specific FlowElement based on the supplied ev...">
<polygon fill="none" stroke="black" points="207,-193 207,-223 354,-223 354,-193 207,-193"/>
<text text-anchor="start" x="215" y="-211" font-family="Helvetica,sans-Serif" font-size="10.00">fiftyone.pipeline.core.data.</text>
<text text-anchor="middle" x="280.5" y="-200" font-family="Helvetica,sans-Serif" font-size="10.00">ElementData</text>
</a>
</g>
</g>
<!-- Node34&#45;&gt;Node30 -->
<g id="edge10" class="edge">
<title>Node34&#45;&gt;Node30</title>
<path fill="none" stroke="orange" stroke-dasharray="5,2" d="M364.17,-212.39C503.4,-217.87 792.67,-220.95 1030,-169 1074.2,-159.33 1121.7,-140.11 1156.73,-124.11"/>
<polygon fill="orange" stroke="orange" points="364.14,-208.89 354.01,-211.98 363.86,-215.88 364.14,-208.89"/>
<text text-anchor="middle" x="766.5" y="-212" font-family="Helvetica,sans-Serif" font-size="10.00"> TData</text>
</g>
<!-- Node34&#45;&gt;Node32 -->
<g id="edge4" class="edge">
<title>Node34&#45;&gt;Node32</title>
<path fill="none" stroke="orange" stroke-dasharray="5,2" d="M363.98,-192.5C366.69,-191.99 369.37,-191.49 372,-191 399.01,-185.96 428.13,-180.56 455.41,-175.51"/>
<polygon fill="orange" stroke="orange" points="363.29,-189.06 354.11,-194.34 364.58,-195.95 363.29,-189.06"/>
<text text-anchor="middle" x="397.5" y="-194" font-family="Helvetica,sans-Serif" font-size="10.00"> TData</text>
</g>
<!-- Node35 -->
<g id="node6" class="node">
<title>Node35</title>
<g id="a_node6"><a xlink:href="interfacefiftyone_1_1pipeline_1_1core_1_1data_1_1_data.html" target="_top" xlink:title="Represents a collection of property values.">
<polygon fill="none" stroke="black" points="0,-198.5 0,-217.5 170,-217.5 170,-198.5 0,-198.5"/>
<text text-anchor="middle" x="85" y="-205.5" font-family="Helvetica,sans-Serif" font-size="10.00">fiftyone.pipeline.core.data.Data</text>
</a>
</g>
</g>
<!-- Node35&#45;&gt;Node34 -->
<g id="edge5" class="edge">
<title>Node35&#45;&gt;Node34</title>
<path fill="none" stroke="midnightblue" d="M180.11,-208C189.07,-208 198.06,-208 206.77,-208"/>
<polygon fill="midnightblue" stroke="midnightblue" points="180.03,-204.5 170.03,-208 180.03,-211.5 180.03,-204.5"/>
</g>
<!-- Node36 -->
<g id="node7" class="node">
<title>Node36</title>
<g id="a_node7"><a xlink:href="interfacefiftyone_1_1pipeline_1_1core_1_1data_1_1_element_property_meta_data.html" target="_top" xlink:title="Defines details of a property that can be returned by a FlowElement.">
<polygon fill="none" stroke="black" points="207,-91 207,-121 354,-121 354,-91 207,-91"/>
<text text-anchor="start" x="215" y="-109" font-family="Helvetica,sans-Serif" font-size="10.00">fiftyone.pipeline.core.data.</text>
<text text-anchor="middle" x="280.5" y="-98" font-family="Helvetica,sans-Serif" font-size="10.00">ElementPropertyMetaData</text>
</a>
</g>
</g>
<!-- Node36&#45;&gt;Node30 -->
<g id="edge11" class="edge">
<title>Node36&#45;&gt;Node30</title>
<path fill="none" stroke="orange" stroke-dasharray="5,2" d="M364.34,-105.29C536.6,-103.8 932.5,-100.39 1114.64,-98.82"/>
<polygon fill="orange" stroke="orange" points="364.29,-101.79 354.32,-105.37 364.35,-108.79 364.29,-101.79"/>
<text text-anchor="middle" x="766.5" y="-105" font-family="Helvetica,sans-Serif" font-size="10.00"> TProperty</text>
</g>
<!-- Node36&#45;&gt;Node32 -->
<g id="edge6" class="edge">
<title>Node36&#45;&gt;Node32</title>
<path fill="none" stroke="orange" stroke-dasharray="5,2" d="M364.29,-120.23C390.19,-124.69 419.3,-129.69 447.2,-134.49"/>
<polygon fill="orange" stroke="orange" points="364.6,-116.74 354.15,-118.49 363.42,-123.64 364.6,-116.74"/>
<text text-anchor="middle" x="397.5" y="-132" font-family="Helvetica,sans-Serif" font-size="10.00"> TProperty</text>
</g>
<!-- Node37 -->
<g id="node8" class="node">
<title>Node37</title>
<g id="a_node8"><a xlink:href="interfacefiftyone_1_1pipeline_1_1core_1_1typed_1_1_typed_key.html" target="_top" xlink:title=" ">
<polygon fill="none" stroke="black" points="858,-39 858,-69 1011,-69 1011,-39 858,-39"/>
<text text-anchor="start" x="866" y="-57" font-family="Helvetica,sans-Serif" font-size="10.00">fiftyone.pipeline.core.typed.</text>
<text text-anchor="middle" x="934.5" y="-46" font-family="Helvetica,sans-Serif" font-size="10.00">TypedKey&lt; TData &gt;</text>
</a>
</g>
</g>
<!-- Node37&#45;&gt;Node30 -->
<g id="edge7" class="edge">
<title>Node37&#45;&gt;Node30</title>
<path fill="none" stroke="#9a32cd" stroke-dasharray="5,2" d="M1021.31,-62.46C1045.83,-65.31 1072.54,-68.85 1097,-73 1102.82,-73.99 1108.79,-75.08 1114.8,-76.24"/>
<polygon fill="#9a32cd" stroke="#9a32cd" points="1021.65,-58.97 1011.32,-61.31 1020.85,-65.93 1021.65,-58.97"/>
<text text-anchor="middle" x="1072.5" y="-76" font-family="Helvetica,sans-Serif" font-size="10.00"> typedKey</text>
</g>
<!-- Node38 -->
<g id="node9" class="node">
<title>Node38</title>
<g id="a_node9"><a xlink:href="interfacefiftyone_1_1pipeline_1_1core_1_1typed_1_1_typed_key.html" target="_top" xlink:title="Holds a name and a type to allow for type safe operations on named values.">
<polygon fill="none" stroke="black" points="491,-39 491,-69 644,-69 644,-39 491,-39"/>
<text text-anchor="start" x="499" y="-57" font-family="Helvetica,sans-Serif" font-size="10.00">fiftyone.pipeline.core.typed.</text>
<text text-anchor="middle" x="567.5" y="-46" font-family="Helvetica,sans-Serif" font-size="10.00">TypedKey&lt; T &gt;</text>
</a>
</g>
</g>
<!-- Node38&#45;&gt;Node37 -->
<g id="edge8" class="edge">
<title>Node38&#45;&gt;Node37</title>
<path fill="none" stroke="orange" stroke-dasharray="5,2" d="M654.25,-54C716.04,-54 798.65,-54 857.97,-54"/>
<polygon fill="orange" stroke="orange" points="654.13,-50.5 644.13,-54 654.13,-57.5 654.13,-50.5"/>
<text text-anchor="middle" x="766.5" y="-57" font-family="Helvetica,sans-Serif" font-size="10.00"> &lt; TData &gt;</text>
</g>
<!-- Node39 -->
<g id="node10" class="node">
<title>Node39</title>
<g id="a_node10"><a xlink:title=" ">
<polygon fill="none" stroke="#bfbfbf" points="909.5,-0.5 909.5,-19.5 959.5,-19.5 959.5,-0.5 909.5,-0.5"/>
<text text-anchor="middle" x="934.5" y="-7.5" font-family="Helvetica,sans-Serif" font-size="10.00">Logger</text>
</a>
</g>
</g>
<!-- Node39&#45;&gt;Node30 -->
<g id="edge9" class="edge">
<title>Node39&#45;&gt;Node30</title>
<path fill="none" stroke="#9a32cd" stroke-dasharray="5,2" d="M969.79,-15.99C987.82,-19.37 1010.22,-23.93 1030,-29 1060.23,-36.75 1067.72,-39.2 1097,-50 1114.93,-56.62 1134.16,-64.51 1151.55,-71.97"/>
<polygon fill="#9a32cd" stroke="#9a32cd" points="970.21,-12.51 959.74,-14.15 968.94,-19.4 970.21,-12.51"/>
<text text-anchor="middle" x="1072.5" y="-53" font-family="Helvetica,sans-Serif" font-size="10.00"> logger</text>
</g>
</g>
</svg>
