<?xml version="1.0" encoding="UTF-8" standalone="no"?>
<!DOCTYPE svg PUBLIC "-//W3C//DTD SVG 1.1//EN"
 "http://www.w3.org/Graphics/SVG/1.1/DTD/svg11.dtd">
<!-- Generated by graphviz version 2.43.0 (0)
 -->
<!-- Title: fiftyone.pipeline.engines.fiftyone.data.FiftyOneAspectPropertyMetaDataDefault Pages: 1 -->
<svg width="864pt" height="127pt"
 viewBox="0.00 0.00 864.00 126.50" xmlns="http://www.w3.org/2000/svg" xmlns:xlink="http://www.w3.org/1999/xlink">
<g id="graph0" class="graph" transform="scale(1 1) rotate(0) translate(4 122.5)">
<title>fiftyone.pipeline.engines.fiftyone.data.FiftyOneAspectPropertyMetaDataDefault</title>
<!-- Node0 -->
<g id="node1" class="node">
<title>Node0</title>
<g id="a_node1"><a xlink:title=" ">
<polygon fill="#bfbfbf" stroke="black" points="641,-41 641,-71 856,-71 856,-41 641,-41"/>
<text text-anchor="start" x="649" y="-59" font-family="Helvetica,sans-Serif" font-size="10.00">fiftyone.pipeline.engines.fiftyone.data.</text>
<text text-anchor="middle" x="748.5" y="-48" font-family="Helvetica,sans-Serif" font-size="10.00">FiftyOneAspectPropertyMetaDataDefault</text>
</a>
</g>
</g>
<!-- Node1 -->
<g id="node2" class="node">
<title>Node1</title>
<g id="a_node2"><a xlink:href="classfiftyone_1_1pipeline_1_1engines_1_1data_1_1_aspect_property_meta_data_default.html" target="_top" xlink:title="Basic implementation of the AspectPropertyMetaData interface.">
<polygon fill="none" stroke="black" points="415.5,-66 415.5,-96 590.5,-96 590.5,-66 415.5,-66"/>
<text text-anchor="start" x="423.5" y="-84" font-family="Helvetica,sans-Serif" font-size="10.00">fiftyone.pipeline.engines.data.</text>
<text text-anchor="middle" x="503" y="-73" font-family="Helvetica,sans-Serif" font-size="10.00">AspectPropertyMetaDataDefault</text>
</a>
</g>
</g>
<!-- Node1&#45;&gt;Node0 -->
<g id="edge1" class="edge">
<title>Node1&#45;&gt;Node0</title>
<path fill="none" stroke="midnightblue" d="M600.55,-71.09C613.77,-69.73 627.4,-68.33 640.78,-66.96"/>
<polygon fill="midnightblue" stroke="midnightblue" points="600.12,-67.61 590.53,-72.12 600.84,-74.58 600.12,-67.61"/>
</g>
<!-- Node2 -->
<g id="node3" class="node">
<title>Node2</title>
<g id="a_node3"><a xlink:href="classfiftyone_1_1pipeline_1_1core_1_1data_1_1_element_property_meta_data_default.html" target="_top" xlink:title="Default implementation of the ElementPropertyMetaData interface.">
<polygon fill="none" stroke="black" points="183,-88 183,-118 365,-118 365,-88 183,-88"/>
<text text-anchor="start" x="191" y="-106" font-family="Helvetica,sans-Serif" font-size="10.00">fiftyone.pipeline.core.data.</text>
<text text-anchor="middle" x="274" y="-95" font-family="Helvetica,sans-Serif" font-size="10.00">ElementPropertyMetaDataDefault</text>
</a>
</g>
</g>
<!-- Node2&#45;&gt;Node1 -->
<g id="edge2" class="edge">
<title>Node2&#45;&gt;Node1</title>
<path fill="none" stroke="midnightblue" d="M375.22,-93.29C388.62,-91.99 402.26,-90.67 415.4,-89.39"/>
<polygon fill="midnightblue" stroke="midnightblue" points="374.66,-89.83 365.04,-94.27 375.33,-96.79 374.66,-89.83"/>
</g>
<!-- Node3 -->
<g id="node4" class="node">
<title>Node3</title>
<g id="a_node4"><a xlink:href="interfacefiftyone_1_1pipeline_1_1core_1_1data_1_1_element_property_meta_data.html" target="_top" xlink:title="Defines details of a property that can be returned by a FlowElement.">
<polygon fill="none" stroke="black" points="0,-63 0,-93 147,-93 147,-63 0,-63"/>
<text text-anchor="start" x="8" y="-81" font-family="Helvetica,sans-Serif" font-size="10.00">fiftyone.pipeline.core.data.</text>
<text text-anchor="middle" x="73.5" y="-70" font-family="Helvetica,sans-Serif" font-size="10.00">ElementPropertyMetaData</text>
</a>
</g>
</g>
<!-- Node3&#45;&gt;Node2 -->
<g id="edge3" class="edge">
<title>Node3&#45;&gt;Node2</title>
<path fill="none" stroke="midnightblue" d="M156.93,-88.38C165.46,-89.46 174.16,-90.55 182.77,-91.64"/>
<polygon fill="midnightblue" stroke="midnightblue" points="157.36,-84.91 147.01,-87.13 156.49,-91.85 157.36,-84.91"/>
</g>
<!-- Node4 -->
<g id="node5" class="node">
<title>Node4</title>
<g id="a_node5"><a xlink:href="interfacefiftyone_1_1pipeline_1_1engines_1_1data_1_1_aspect_property_meta_data.html" target="_top" xlink:title="Holds details about a property that can be returned by an AspectEngine.">
<polygon fill="none" stroke="black" points="192,-39 192,-69 356,-69 356,-39 192,-39"/>
<text text-anchor="start" x="200" y="-57" font-family="Helvetica,sans-Serif" font-size="10.00">fiftyone.pipeline.engines.data.</text>
<text text-anchor="middle" x="274" y="-46" font-family="Helvetica,sans-Serif" font-size="10.00">AspectPropertyMetaData</text>
</a>
</g>
</g>
<!-- Node3&#45;&gt;Node4 -->
<g id="edge5" class="edge">
<title>Node3&#45;&gt;Node4</title>
<path fill="none" stroke="midnightblue" d="M157.05,-68.02C168.6,-66.62 180.45,-65.19 191.97,-63.8"/>
<polygon fill="midnightblue" stroke="midnightblue" points="156.51,-64.56 147.01,-69.23 157.35,-71.51 156.51,-64.56"/>
</g>
<!-- Node4&#45;&gt;Node1 -->
<g id="edge4" class="edge">
<title>Node4&#45;&gt;Node1</title>
<path fill="none" stroke="midnightblue" d="M366.26,-64.85C382.38,-66.77 399.12,-68.76 415.12,-70.67"/>
<polygon fill="midnightblue" stroke="midnightblue" points="366.65,-61.38 356.31,-63.67 365.83,-68.33 366.65,-61.38"/>
</g>
<!-- Node5 -->
<g id="node6" class="node">
<title>Node5</title>
<g id="a_node6"><a xlink:href="interfacefiftyone_1_1pipeline_1_1engines_1_1fiftyone_1_1data_1_1_fifty_one_aspect_property_meta_data.html" target="_top" xlink:title="51Degrees specific meta data.">
<polygon fill="none" stroke="black" points="401,-17 401,-47 605,-47 605,-17 401,-17"/>
<text text-anchor="start" x="409" y="-35" font-family="Helvetica,sans-Serif" font-size="10.00">fiftyone.pipeline.engines.fiftyone.data.</text>
<text text-anchor="middle" x="503" y="-24" font-family="Helvetica,sans-Serif" font-size="10.00">FiftyOneAspectPropertyMetaData</text>
</a>
</g>
</g>
<!-- Node4&#45;&gt;Node5 -->
<g id="edge7" class="edge">
<title>Node4&#45;&gt;Node5</title>
<path fill="none" stroke="midnightblue" d="M366.53,-45.13C377.76,-44.04 389.29,-42.92 400.66,-41.82"/>
<polygon fill="midnightblue" stroke="midnightblue" points="365.93,-41.67 356.31,-46.12 366.6,-48.64 365.93,-41.67"/>
</g>
<!-- Node5&#45;&gt;Node0 -->
<g id="edge6" class="edge">
<title>Node5&#45;&gt;Node0</title>
<path fill="none" stroke="midnightblue" d="M615.13,-42.95C623.66,-43.79 632.26,-44.64 640.77,-45.48"/>
<polygon fill="midnightblue" stroke="midnightblue" points="615.45,-39.47 605.15,-41.97 614.76,-46.43 615.45,-39.47"/>
</g>
<!-- Node6 -->
<g id="node7" class="node">
<title>Node6</title>
<g id="a_node7"><a xlink:title=" ">
<polygon fill="none" stroke="#bfbfbf" points="241.5,-0.5 241.5,-19.5 306.5,-19.5 306.5,-0.5 241.5,-0.5"/>
<text text-anchor="middle" x="274" y="-7.5" font-family="Helvetica,sans-Serif" font-size="10.00">Closeable</text>
</a>
</g>
</g>
<!-- Node6&#45;&gt;Node5 -->
<g id="edge8" class="edge">
<title>Node6&#45;&gt;Node5</title>
<path fill="none" stroke="midnightblue" d="M316.6,-14.03C340.33,-16.33 371.18,-19.32 400.89,-22.2"/>
<polygon fill="midnightblue" stroke="midnightblue" points="316.85,-10.54 306.56,-13.06 316.18,-17.51 316.85,-10.54"/>
</g>
</g>
</svg>
