<?xml version="1.0" encoding="UTF-8" standalone="no"?>
<!DOCTYPE svg PUBLIC "-//W3C//DTD SVG 1.1//EN"
 "http://www.w3.org/Graphics/SVG/1.1/DTD/svg11.dtd">
<!-- Generated by graphviz version 2.43.0 (0)
 -->
<!-- Title: fiftyone.pipeline.core.configuration.PipelineOptions Pages: 1 -->
<svg width="399pt" height="206pt"
 viewBox="0.00 0.00 399.00 206.00" xmlns="http://www.w3.org/2000/svg" xmlns:xlink="http://www.w3.org/1999/xlink">
<g id="graph0" class="graph" transform="scale(1 1) rotate(0) translate(4 202)">
<title>fiftyone.pipeline.core.configuration.PipelineOptions</title>
<!-- Node1 -->
<g id="node1" class="node">
<title>Node1</title>
<g id="a_node1"><a xlink:title="Configuration object that describes how to build a Pipeline using a PipelineBuilder.">
<polygon fill="#bfbfbf" stroke="black" points="109.5,-0.5 109.5,-30.5 298.5,-30.5 298.5,-0.5 109.5,-0.5"/>
<text text-anchor="start" x="117.5" y="-18.5" font-family="Helvetica,sans-Serif" font-size="10.00">fiftyone.pipeline.core.configuration.</text>
<text text-anchor="middle" x="204" y="-7.5" font-family="Helvetica,sans-Serif" font-size="10.00">PipelineOptions</text>
</a>
</g>
</g>
<!-- Node2 -->
<g id="node2" class="node">
<title>Node2</title>
<g id="a_node2"><a xlink:title=" ">
<polygon fill="none" stroke="#bfbfbf" points="0,-78.5 0,-108.5 218,-108.5 218,-78.5 0,-78.5"/>
<text text-anchor="start" x="8" y="-96.5" font-family="Helvetica,sans-Serif" font-size="10.00">List&lt; fiftyone.pipeline.core.configuration.</text>
<text text-anchor="middle" x="109" y="-85.5" font-family="Helvetica,sans-Serif" font-size="10.00">ElementOptions &gt;</text>
</a>
</g>
</g>
<!-- Node2&#45;&gt;Node1 -->
<g id="edge1" class="edge">
<title>Node2&#45;&gt;Node1</title>
<path fill="none" stroke="#9a32cd" stroke-dasharray="5,2" d="M134.93,-71.75C151.21,-58.73 171.77,-42.28 186.21,-30.73"/>
<polygon fill="#9a32cd" stroke="#9a32cd" points="132.49,-69.22 126.87,-78.2 136.86,-74.69 132.49,-69.22"/>
<text text-anchor="middle" x="187.5" y="-52" font-family="Helvetica,sans-Serif" font-size="10.00"> elements</text>
</g>
<!-- Node3 -->
<g id="node3" class="node">
<title>Node3</title>
<g id="a_node3"><a xlink:title=" ">
<polygon fill="none" stroke="#bfbfbf" points="92,-178.5 92,-197.5 126,-197.5 126,-178.5 92,-178.5"/>
<text text-anchor="middle" x="109" y="-185.5" font-family="Helvetica,sans-Serif" font-size="10.00">List</text>
</a>
</g>
</g>
<!-- Node3&#45;&gt;Node2 -->
<g id="edge2" class="edge">
<title>Node3&#45;&gt;Node2</title>
<path fill="none" stroke="orange" stroke-dasharray="5,2" d="M109,-168.29C109,-150.67 109,-124.67 109,-108.7"/>
<polygon fill="orange" stroke="orange" points="105.5,-168.46 109,-178.46 112.5,-168.46 105.5,-168.46"/>
<text text-anchor="start" x="109" y="-152" font-family="Helvetica,sans-Serif" font-size="10.00"> &lt; fiftyone::pipeline</text>
<text text-anchor="start" x="109" y="-141" font-family="Helvetica,sans-Serif" font-size="10.00">::core::configuration</text>
<text text-anchor="middle" x="157.5" y="-130" font-family="Helvetica,sans-Serif" font-size="10.00">::ElementOptions &gt;</text>
</g>
<!-- Node4 -->
<g id="node4" class="node">
<title>Node4</title>
<g id="a_node4"><a xlink:title=" ">
<polygon fill="none" stroke="#bfbfbf" points="236,-84 236,-103 362,-103 362,-84 236,-84"/>
<text text-anchor="middle" x="299" y="-91" font-family="Helvetica,sans-Serif" font-size="10.00">Map&lt; String, Object &gt;</text>
</a>
</g>
</g>
<!-- Node4&#45;&gt;Node1 -->
<g id="edge3" class="edge">
<title>Node4&#45;&gt;Node1</title>
<path fill="none" stroke="#9a32cd" stroke-dasharray="5,2" d="M279.98,-77.28C262.92,-63.64 238.1,-43.78 221.52,-30.52"/>
<polygon fill="#9a32cd" stroke="#9a32cd" points="278.11,-80.27 288.1,-83.78 282.48,-74.8 278.11,-80.27"/>
<text text-anchor="middle" x="323.5" y="-52" font-family="Helvetica,sans-Serif" font-size="10.00"> pipelineBuilderParameters</text>
</g>
<!-- Node5 -->
<g id="node5" class="node">
<title>Node5</title>
<g id="a_node5"><a xlink:title=" ">
<polygon fill="none" stroke="#bfbfbf" points="280,-178.5 280,-197.5 318,-197.5 318,-178.5 280,-178.5"/>
<text text-anchor="middle" x="299" y="-185.5" font-family="Helvetica,sans-Serif" font-size="10.00">Map</text>
</a>
</g>
</g>
<!-- Node5&#45;&gt;Node4 -->
<g id="edge4" class="edge">
<title>Node5&#45;&gt;Node4</title>
<path fill="none" stroke="orange" stroke-dasharray="5,2" d="M299,-168.44C299,-148.54 299,-117.8 299,-103.02"/>
<polygon fill="orange" stroke="orange" points="295.5,-168.46 299,-178.46 302.5,-168.46 295.5,-168.46"/>
<text text-anchor="middle" x="345" y="-141" font-family="Helvetica,sans-Serif" font-size="10.00"> &lt; String, Object &gt;</text>
</g>
</g>
</svg>
