<?xml version="1.0" encoding="UTF-8" standalone="no"?>
<!DOCTYPE svg PUBLIC "-//W3C//DTD SVG 1.1//EN"
 "http://www.w3.org/Graphics/SVG/1.1/DTD/svg11.dtd">
<!-- Generated by graphviz version 2.43.0 (0)
 -->
<!-- Title: fiftyone.pipeline.engines.services.DataUpdateServiceDefault Pages: 1 -->
<svg width="840pt" height="126pt"
 viewBox="0.00 0.00 840.00 125.50" xmlns="http://www.w3.org/2000/svg" xmlns:xlink="http://www.w3.org/1999/xlink">
<g id="graph0" class="graph" transform="scale(1 1) rotate(0) translate(4 121.5)">
<title>fiftyone.pipeline.engines.services.DataUpdateServiceDefault</title>
<!-- Node4 -->
<g id="node1" class="node">
<title>Node4</title>
<g id="a_node1"><a xlink:title="Default singleton implementation of the DataUpdateService.">
<polygon fill="#bfbfbf" stroke="black" points="649,-24.5 649,-54.5 832,-54.5 832,-24.5 649,-24.5"/>
<text text-anchor="start" x="657" y="-42.5" font-family="Helvetica,sans-Serif" font-size="10.00">fiftyone.pipeline.engines.services.</text>
<text text-anchor="middle" x="740.5" y="-31.5" font-family="Helvetica,sans-Serif" font-size="10.00">DataUpdateServiceDefault</text>
</a>
</g>
</g>
<!-- Node5 -->
<g id="node2" class="node">
<title>Node5</title>
<g id="a_node2"><a xlink:href="interfacefiftyone_1_1pipeline_1_1engines_1_1services_1_1_data_update_service.html" target="_top" xlink:title="The data update service keeps AspectEngine’s data files up to date.">
<polygon fill="none" stroke="black" points="352,-49.5 352,-79.5 535,-79.5 535,-49.5 352,-49.5"/>
<text text-anchor="start" x="360" y="-67.5" font-family="Helvetica,sans-Serif" font-size="10.00">fiftyone.pipeline.engines.services.</text>
<text text-anchor="middle" x="443.5" y="-56.5" font-family="Helvetica,sans-Serif" font-size="10.00">DataUpdateService</text>
</a>
</g>
</g>
<!-- Node5&#45;&gt;Node4 -->
<g id="edge1" class="edge">
<title>Node5&#45;&gt;Node4</title>
<path fill="none" stroke="midnightblue" d="M545.32,-55.96C578.92,-53.11 616.13,-49.96 648.9,-47.18"/>
<polygon fill="midnightblue" stroke="midnightblue" points="544.68,-52.5 535.01,-56.83 545.27,-59.47 544.68,-52.5"/>
</g>
<!-- Node6 -->
<g id="node3" class="node">
<title>Node6</title>
<g id="a_node3"><a xlink:title=" ">
<polygon fill="none" stroke="#bfbfbf" points="50.5,-98 50.5,-117 115.5,-117 115.5,-98 50.5,-98"/>
<text text-anchor="middle" x="83" y="-105" font-family="Helvetica,sans-Serif" font-size="10.00">Closeable</text>
</a>
</g>
</g>
<!-- Node6&#45;&gt;Node5 -->
<g id="edge2" class="edge">
<title>Node6&#45;&gt;Node5</title>
<path fill="none" stroke="midnightblue" d="M125.58,-102.51C180.58,-95.92 279.05,-84.1 351.68,-75.39"/>
<polygon fill="midnightblue" stroke="midnightblue" points="125.01,-99.06 115.5,-103.72 125.85,-106.01 125.01,-99.06"/>
</g>
<!-- Node7 -->
<g id="node4" class="node">
<title>Node7</title>
<g id="a_node4"><a xlink:href="interfacefiftyone_1_1pipeline_1_1core_1_1services_1_1_pipeline_service.html" target="_top" xlink:title="Service interface used by PipelineBuilder to hand out services to elements which required them.">
<polygon fill="none" stroke="black" points="0,-48.5 0,-78.5 166,-78.5 166,-48.5 0,-48.5"/>
<text text-anchor="start" x="8" y="-66.5" font-family="Helvetica,sans-Serif" font-size="10.00">fiftyone.pipeline.core.services.</text>
<text text-anchor="middle" x="83" y="-55.5" font-family="Helvetica,sans-Serif" font-size="10.00">PipelineService</text>
</a>
</g>
</g>
<!-- Node7&#45;&gt;Node5 -->
<g id="edge3" class="edge">
<title>Node7&#45;&gt;Node5</title>
<path fill="none" stroke="midnightblue" d="M176.5,-63.76C230.44,-63.91 298.2,-64.1 351.83,-64.25"/>
<polygon fill="midnightblue" stroke="midnightblue" points="176.26,-60.26 166.25,-63.73 176.24,-67.26 176.26,-60.26"/>
</g>
<!-- Node8 -->
<g id="node5" class="node">
<title>Node8</title>
<g id="a_node5"><a xlink:title=" ">
<polygon fill="none" stroke="#bfbfbf" points="347,-0.5 347,-30.5 540,-30.5 540,-0.5 347,-0.5"/>
<text text-anchor="start" x="355" y="-18.5" font-family="Helvetica,sans-Serif" font-size="10.00">List&lt; fiftyone.pipeline.engines.data.</text>
<text text-anchor="middle" x="443.5" y="-7.5" font-family="Helvetica,sans-Serif" font-size="10.00">AspectEngineDataFile &gt;</text>
</a>
</g>
</g>
<!-- Node8&#45;&gt;Node4 -->
<g id="edge4" class="edge">
<title>Node8&#45;&gt;Node4</title>
<path fill="none" stroke="#9a32cd" stroke-dasharray="5,2" d="M550.6,-24.13C582.72,-26.74 617.69,-29.59 648.71,-32.11"/>
<polygon fill="#9a32cd" stroke="#9a32cd" points="550.53,-20.61 540.28,-23.29 549.96,-27.59 550.53,-20.61"/>
<text text-anchor="middle" x="594.5" y="-33.5" font-family="Helvetica,sans-Serif" font-size="10.00"> configurations</text>
</g>
<!-- Node9 -->
<g id="node6" class="node">
<title>Node9</title>
<g id="a_node6"><a xlink:title=" ">
<polygon fill="none" stroke="#bfbfbf" points="66,-6 66,-25 100,-25 100,-6 66,-6"/>
<text text-anchor="middle" x="83" y="-13" font-family="Helvetica,sans-Serif" font-size="10.00">List</text>
</a>
</g>
</g>
<!-- Node9&#45;&gt;Node8 -->
<g id="edge5" class="edge">
<title>Node9&#45;&gt;Node8</title>
<path fill="none" stroke="orange" stroke-dasharray="5,2" d="M110.44,-15.5C159.58,-15.5 267.17,-15.5 346.63,-15.5"/>
<polygon fill="orange" stroke="orange" points="110.34,-12 100.34,-15.5 110.34,-19 110.34,-12"/>
<text text-anchor="start" x="184" y="-40.5" font-family="Helvetica,sans-Serif" font-size="10.00"> &lt; fiftyone::pipeline</text>
<text text-anchor="start" x="184" y="-29.5" font-family="Helvetica,sans-Serif" font-size="10.00">::engines::data::AspectEngine</text>
<text text-anchor="middle" x="256.5" y="-18.5" font-family="Helvetica,sans-Serif" font-size="10.00">DataFile &gt;</text>
</g>
</g>
</svg>
