<?xml version="1.0" encoding="UTF-8" standalone="no"?>
<!DOCTYPE svg PUBLIC "-//W3C//DTD SVG 1.1//EN"
 "http://www.w3.org/Graphics/SVG/1.1/DTD/svg11.dtd">
<!-- Generated by graphviz version 2.43.0 (0)
 -->
<!-- Title: fiftyone.pipeline.engines.caching.FlowCacheDefault Pages: 1 -->
<svg width="1476pt" height="100pt"
 viewBox="0.00 0.00 1476.00 99.50" xmlns="http://www.w3.org/2000/svg" xmlns:xlink="http://www.w3.org/1999/xlink">
<g id="graph0" class="graph" transform="scale(1 1) rotate(0) translate(4 95.5)">
<title>fiftyone.pipeline.engines.caching.FlowCacheDefault</title>
<!-- Node10 -->
<g id="node1" class="node">
<title>Node10</title>
<g id="a_node1"><a xlink:title="Default implementation of FlowCache using the DataKeyedCacheBase.">
<polygon fill="#bfbfbf" stroke="black" points="1288,-28.5 1288,-58.5 1468,-58.5 1468,-28.5 1288,-28.5"/>
<text text-anchor="start" x="1296" y="-46.5" font-family="Helvetica,sans-Serif" font-size="10.00">fiftyone.pipeline.engines.caching.</text>
<text text-anchor="middle" x="1378" y="-35.5" font-family="Helvetica,sans-Serif" font-size="10.00">FlowCacheDefault</text>
</a>
</g>
</g>
<!-- Node11 -->
<g id="node2" class="node">
<title>Node11</title>
<g id="a_node2"><a xlink:href="classfiftyone_1_1pipeline_1_1engines_1_1caching_1_1_data_keyed_cache_base.html" target="_top" xlink:title=" ">
<polygon fill="none" stroke="black" points="1041,-53.5 1041,-83.5 1251,-83.5 1251,-53.5 1041,-53.5"/>
<text text-anchor="start" x="1049" y="-71.5" font-family="Helvetica,sans-Serif" font-size="10.00">fiftyone.pipeline.engines.caching.</text>
<text text-anchor="middle" x="1146" y="-60.5" font-family="Helvetica,sans-Serif" font-size="10.00">DataKeyedCacheBase&lt; ElementData &gt;</text>
</a>
</g>
</g>
<!-- Node11&#45;&gt;Node10 -->
<g id="edge1" class="edge">
<title>Node11&#45;&gt;Node10</title>
<path fill="none" stroke="midnightblue" d="M1261.3,-56.08C1270.23,-55.11 1279.17,-54.13 1287.89,-53.19"/>
<polygon fill="midnightblue" stroke="midnightblue" points="1260.8,-52.61 1251.23,-57.17 1261.55,-59.57 1260.8,-52.61"/>
</g>
<!-- Node12 -->
<g id="node3" class="node">
<title>Node12</title>
<g id="a_node3"><a xlink:href="classfiftyone_1_1pipeline_1_1engines_1_1caching_1_1_data_keyed_cache_base.html" target="_top" xlink:title="Abstract base class for caches that use FlowData as the key.">
<polygon fill="none" stroke="black" points="732,-54.5 732,-84.5 912,-84.5 912,-54.5 732,-54.5"/>
<text text-anchor="start" x="740" y="-72.5" font-family="Helvetica,sans-Serif" font-size="10.00">fiftyone.pipeline.engines.caching.</text>
<text text-anchor="middle" x="822" y="-61.5" font-family="Helvetica,sans-Serif" font-size="10.00">DataKeyedCacheBase&lt; V &gt;</text>
</a>
</g>
</g>
<!-- Node12&#45;&gt;Node11 -->
<g id="edge2" class="edge">
<title>Node12&#45;&gt;Node11</title>
<path fill="none" stroke="orange" stroke-dasharray="5,2" d="M922.69,-69.19C960.17,-69.07 1002.85,-68.94 1040.73,-68.82"/>
<polygon fill="orange" stroke="orange" points="922.26,-65.69 912.27,-69.22 922.28,-72.69 922.26,-65.69"/>
<text text-anchor="middle" x="978" y="-71.5" font-family="Helvetica,sans-Serif" font-size="10.00"> &lt; ElementData &gt;</text>
</g>
<!-- Node13 -->
<g id="node4" class="node">
<title>Node13</title>
<g id="a_node4"><a xlink:href="interfacefiftyone_1_1pipeline_1_1engines_1_1caching_1_1_data_keyed_cache.html" target="_top" xlink:title="Represents a put cache where the key is a FlowData instance.">
<polygon fill="none" stroke="black" points="448.5,-50 448.5,-91 577.5,-91 577.5,-50 448.5,-50"/>
<text text-anchor="start" x="456.5" y="-79" font-family="Helvetica,sans-Serif" font-size="10.00">fiftyone::pipeline</text>
<text text-anchor="start" x="456.5" y="-68" font-family="Helvetica,sans-Serif" font-size="10.00">::engines::caching::</text>
<text text-anchor="middle" x="513" y="-57" font-family="Helvetica,sans-Serif" font-size="10.00">DataKeyedCache&lt; V &gt;</text>
</a>
</g>
</g>
<!-- Node13&#45;&gt;Node12 -->
<g id="edge3" class="edge">
<title>Node13&#45;&gt;Node12</title>
<path fill="none" stroke="midnightblue" d="M587.79,-70.26C631.1,-70.12 686.14,-69.94 731.86,-69.79"/>
<polygon fill="midnightblue" stroke="midnightblue" points="587.6,-66.76 577.61,-70.29 587.62,-73.76 587.6,-66.76"/>
</g>
<!-- Node14 -->
<g id="node5" class="node">
<title>Node14</title>
<g id="a_node5"><a xlink:href="interfacefiftyone_1_1caching_1_1_put_cache.html" target="_top" xlink:title="A cache that supports a thread safe put method for inserting to cache.">
<polygon fill="none" stroke="black" points="242,-27.5 242,-57.5 386,-57.5 386,-27.5 242,-27.5"/>
<text text-anchor="start" x="250" y="-45.5" font-family="Helvetica,sans-Serif" font-size="10.00">fiftyone::caching::</text>
<text text-anchor="middle" x="314" y="-34.5" font-family="Helvetica,sans-Serif" font-size="10.00">PutCache&lt; FlowData, V &gt;</text>
</a>
</g>
</g>
<!-- Node14&#45;&gt;Node13 -->
<g id="edge4" class="edge">
<title>Node14&#45;&gt;Node13</title>
<path fill="none" stroke="midnightblue" d="M396.28,-54.05C413.7,-56.53 431.86,-59.11 448.5,-61.47"/>
<polygon fill="midnightblue" stroke="midnightblue" points="396.51,-50.55 386.12,-52.61 395.53,-57.48 396.51,-50.55"/>
</g>
<!-- Node19 -->
<g id="node10" class="node">
<title>Node19</title>
<g id="a_node10"><a xlink:href="interfacefiftyone_1_1pipeline_1_1engines_1_1caching_1_1_data_keyed_cache.html" target="_top" xlink:title="Represents a put cache where the key is a FlowData instance.">
<polygon fill="none" stroke="black" points="423,-0.5 423,-30.5 603,-30.5 603,-0.5 423,-0.5"/>
<text text-anchor="start" x="431" y="-18.5" font-family="Helvetica,sans-Serif" font-size="10.00">fiftyone.pipeline.engines.caching.</text>
<text text-anchor="middle" x="513" y="-7.5" font-family="Helvetica,sans-Serif" font-size="10.00">DataKeyedCache&lt; V &gt;</text>
</a>
</g>
</g>
<!-- Node14&#45;&gt;Node19 -->
<g id="edge10" class="edge">
<title>Node14&#45;&gt;Node19</title>
<path fill="none" stroke="midnightblue" d="M396.28,-31.36C405.03,-30.16 413.96,-28.94 422.79,-27.73"/>
<polygon fill="midnightblue" stroke="midnightblue" points="395.55,-27.93 386.12,-32.75 396.5,-34.86 395.55,-27.93"/>
</g>
<!-- Node15 -->
<g id="node6" class="node">
<title>Node15</title>
<g id="a_node6"><a xlink:href="interfacefiftyone_1_1caching_1_1_cache.html" target="_top" xlink:title="Base cache interface which declares only the get method and the types of key and value stored in the ...">
<polygon fill="none" stroke="black" points="102,-27.5 102,-57.5 205,-57.5 205,-27.5 102,-27.5"/>
<text text-anchor="start" x="110" y="-45.5" font-family="Helvetica,sans-Serif" font-size="10.00">fiftyone::caching::</text>
<text text-anchor="middle" x="153.5" y="-34.5" font-family="Helvetica,sans-Serif" font-size="10.00">Cache&lt; K, V &gt;</text>
</a>
</g>
</g>
<!-- Node15&#45;&gt;Node14 -->
<g id="edge5" class="edge">
<title>Node15&#45;&gt;Node14</title>
<path fill="none" stroke="midnightblue" d="M215.15,-42.5C223.87,-42.5 232.9,-42.5 241.8,-42.5"/>
<polygon fill="midnightblue" stroke="midnightblue" points="215.09,-39 205.09,-42.5 215.09,-46 215.09,-39"/>
</g>
<!-- Node16 -->
<g id="node7" class="node">
<title>Node16</title>
<g id="a_node7"><a xlink:title=" ">
<polygon fill="none" stroke="#bfbfbf" points="0,-33 0,-52 65,-52 65,-33 0,-33"/>
<text text-anchor="middle" x="32.5" y="-40" font-family="Helvetica,sans-Serif" font-size="10.00">Closeable</text>
</a>
</g>
</g>
<!-- Node16&#45;&gt;Node15 -->
<g id="edge6" class="edge">
<title>Node16&#45;&gt;Node15</title>
<path fill="none" stroke="midnightblue" d="M75.25,-42.5C83.86,-42.5 93.01,-42.5 101.89,-42.5"/>
<polygon fill="midnightblue" stroke="midnightblue" points="75.08,-39 65.08,-42.5 75.08,-46 75.08,-39"/>
</g>
<!-- Node17 -->
<g id="node8" class="node">
<title>Node17</title>
<g id="a_node8"><a xlink:href="interfacefiftyone_1_1pipeline_1_1engines_1_1caching_1_1_flow_cache.html" target="_top" xlink:title="Used to cache results from individual flow elements in the pipeline.">
<polygon fill="none" stroke="black" points="1056,-4.5 1056,-34.5 1236,-34.5 1236,-4.5 1056,-4.5"/>
<text text-anchor="start" x="1064" y="-22.5" font-family="Helvetica,sans-Serif" font-size="10.00">fiftyone.pipeline.engines.caching.</text>
<text text-anchor="middle" x="1146" y="-11.5" font-family="Helvetica,sans-Serif" font-size="10.00">FlowCache</text>
</a>
</g>
</g>
<!-- Node17&#45;&gt;Node10 -->
<g id="edge7" class="edge">
<title>Node17&#45;&gt;Node10</title>
<path fill="none" stroke="midnightblue" d="M1246.25,-29.86C1260.06,-31.3 1274.18,-32.77 1287.8,-34.19"/>
<polygon fill="midnightblue" stroke="midnightblue" points="1246.56,-26.37 1236.25,-28.81 1245.84,-33.33 1246.56,-26.37"/>
</g>
<!-- Node18 -->
<g id="node9" class="node">
<title>Node18</title>
<g id="a_node9"><a xlink:href="interfacefiftyone_1_1pipeline_1_1engines_1_1caching_1_1_data_keyed_cache.html" target="_top" xlink:title=" ">
<polygon fill="none" stroke="black" points="729,-4.5 729,-34.5 915,-34.5 915,-4.5 729,-4.5"/>
<text text-anchor="start" x="737" y="-22.5" font-family="Helvetica,sans-Serif" font-size="10.00">fiftyone.pipeline.engines.caching.</text>
<text text-anchor="middle" x="822" y="-11.5" font-family="Helvetica,sans-Serif" font-size="10.00">DataKeyedCache&lt; ElementData &gt;</text>
</a>
</g>
</g>
<!-- Node18&#45;&gt;Node17 -->
<g id="edge8" class="edge">
<title>Node18&#45;&gt;Node17</title>
<path fill="none" stroke="midnightblue" d="M925.5,-19.5C967.37,-19.5 1015.36,-19.5 1055.77,-19.5"/>
<polygon fill="midnightblue" stroke="midnightblue" points="925.27,-16 915.27,-19.5 925.27,-23 925.27,-16"/>
</g>
<!-- Node19&#45;&gt;Node18 -->
<g id="edge9" class="edge">
<title>Node19&#45;&gt;Node18</title>
<path fill="none" stroke="orange" stroke-dasharray="5,2" d="M613.53,-16.8C650.62,-17.28 692.51,-17.83 728.9,-18.3"/>
<polygon fill="orange" stroke="orange" points="613.25,-13.29 603.21,-16.66 613.16,-20.29 613.25,-13.29"/>
<text text-anchor="middle" x="666" y="-21.5" font-family="Helvetica,sans-Serif" font-size="10.00"> &lt; ElementData &gt;</text>
</g>
</g>
</svg>
