<?xml version="1.0" encoding="UTF-8" standalone="no"?>
<!DOCTYPE svg PUBLIC "-//W3C//DTD SVG 1.1//EN"
 "http://www.w3.org/Graphics/SVG/1.1/DTD/svg11.dtd">
<!-- Generated by graphviz version 2.43.0 (0)
 -->
<!-- Title: fiftyone.pipeline.engines.flowelements.AspectEngineBase&lt; TData extends AspectData, TProperty extends AspectPropertyMetaData &gt; Pages: 1 -->
<svg width="1951pt" height="460pt"
 viewBox="0.00 0.00 1951.00 460.00" xmlns="http://www.w3.org/2000/svg" xmlns:xlink="http://www.w3.org/1999/xlink">
<g id="graph0" class="graph" transform="scale(1 1) rotate(0) translate(4 456)">
<title>fiftyone.pipeline.engines.flowelements.AspectEngineBase&lt; TData extends AspectData, TProperty extends AspectPropertyMetaData &gt;</title>
<!-- Node23 -->
<g id="node1" class="node">
<title>Node23</title>
<g id="a_node1"><a xlink:title="Base class for AspectEngines to extend.">
<polygon fill="#bfbfbf" stroke="black" points="1695,-196.5 1695,-248.5 1943,-248.5 1943,-196.5 1695,-196.5"/>
<text text-anchor="start" x="1703" y="-236.5" font-family="Helvetica,sans-Serif" font-size="10.00">fiftyone.pipeline.engines.flowelements.</text>
<text text-anchor="start" x="1703" y="-225.5" font-family="Helvetica,sans-Serif" font-size="10.00">AspectEngineBase&lt; TData extends</text>
<text text-anchor="start" x="1703" y="-214.5" font-family="Helvetica,sans-Serif" font-size="10.00"> AspectData, TProperty extends AspectProperty</text>
<text text-anchor="middle" x="1819" y="-203.5" font-family="Helvetica,sans-Serif" font-size="10.00">MetaData &gt;</text>
</a>
</g>
</g>
<!-- Node24 -->
<g id="node2" class="node">
<title>Node24</title>
<g id="a_node2"><a xlink:href="classfiftyone_1_1pipeline_1_1core_1_1flowelements_1_1_flow_element_base.html" target="_top" xlink:title="Provides a base class from which authors may create new FlowElements.">
<polygon fill="none" stroke="black" points="1358.5,-224.5 1358.5,-276.5 1512.5,-276.5 1512.5,-224.5 1358.5,-224.5"/>
<text text-anchor="start" x="1366.5" y="-264.5" font-family="Helvetica,sans-Serif" font-size="10.00">fiftyone::pipeline</text>
<text text-anchor="start" x="1366.5" y="-253.5" font-family="Helvetica,sans-Serif" font-size="10.00">::core::flowelements</text>
<text text-anchor="start" x="1366.5" y="-242.5" font-family="Helvetica,sans-Serif" font-size="10.00">::FlowElementBase&lt; TData,</text>
<text text-anchor="middle" x="1435.5" y="-231.5" font-family="Helvetica,sans-Serif" font-size="10.00"> TProperty &gt;</text>
</a>
</g>
</g>
<!-- Node24&#45;&gt;Node23 -->
<g id="edge1" class="edge">
<title>Node24&#45;&gt;Node23</title>
<path fill="none" stroke="midnightblue" d="M1523.07,-244.15C1573.86,-240.42 1638.87,-235.65 1694.91,-231.53"/>
<polygon fill="midnightblue" stroke="midnightblue" points="1522.5,-240.68 1512.79,-244.9 1523.01,-247.66 1522.5,-240.68"/>
</g>
<!-- Node25 -->
<g id="node3" class="node">
<title>Node25</title>
<g id="a_node3"><a xlink:href="interfacefiftyone_1_1pipeline_1_1core_1_1flowelements_1_1_flow_element.html" target="_top" xlink:title=" ">
<polygon fill="none" stroke="black" points="968,-262.5 968,-292.5 1159,-292.5 1159,-262.5 968,-262.5"/>
<text text-anchor="start" x="976" y="-280.5" font-family="Helvetica,sans-Serif" font-size="10.00">fiftyone.pipeline.core.flowelements.</text>
<text text-anchor="middle" x="1063.5" y="-269.5" font-family="Helvetica,sans-Serif" font-size="10.00">FlowElement&lt; TData, TProperty &gt;</text>
</a>
</g>
</g>
<!-- Node25&#45;&gt;Node24 -->
<g id="edge2" class="edge">
<title>Node25&#45;&gt;Node24</title>
<path fill="none" stroke="midnightblue" d="M1169.59,-269.83C1229.71,-265.44 1303.76,-260.04 1358.28,-256.06"/>
<polygon fill="midnightblue" stroke="midnightblue" points="1169.02,-266.36 1159.3,-270.58 1169.53,-273.34 1169.02,-266.36"/>
</g>
<!-- Node26 -->
<g id="node4" class="node">
<title>Node26</title>
<g id="a_node4"><a xlink:href="interfacefiftyone_1_1pipeline_1_1core_1_1flowelements_1_1_flow_element.html" target="_top" xlink:title="A component that processes a FlowData (by examining its evidence, or by examining data processed by o...">
<polygon fill="none" stroke="black" points="543,-250 543,-291 796,-291 796,-250 543,-250"/>
<text text-anchor="start" x="551" y="-279" font-family="Helvetica,sans-Serif" font-size="10.00">fiftyone.pipeline.core.flowelements.</text>
<text text-anchor="start" x="551" y="-268" font-family="Helvetica,sans-Serif" font-size="10.00">FlowElement&lt; TData extends ElementData,</text>
<text text-anchor="middle" x="669.5" y="-257" font-family="Helvetica,sans-Serif" font-size="10.00"> TProperty extends ElementPropertyMetaData &gt;</text>
</a>
</g>
</g>
<!-- Node26&#45;&gt;Node25 -->
<g id="edge3" class="edge">
<title>Node26&#45;&gt;Node25</title>
<path fill="none" stroke="orange" stroke-dasharray="5,2" d="M806.35,-272.93C859.55,-273.88 919.29,-274.94 967.69,-275.81"/>
<polygon fill="orange" stroke="orange" points="806.21,-269.42 796.15,-272.74 806.08,-276.42 806.21,-269.42"/>
<text text-anchor="middle" x="868.5" y="-277.5" font-family="Helvetica,sans-Serif" font-size="10.00"> &lt; TData, TProperty &gt;</text>
</g>
<!-- Node27 -->
<g id="node5" class="node">
<title>Node27</title>
<g id="a_node5"><a xlink:title=" ">
<polygon fill="none" stroke="#bfbfbf" points="339,-278 339,-297 426,-297 426,-278 339,-278"/>
<text text-anchor="middle" x="382.5" y="-285" font-family="Helvetica,sans-Serif" font-size="10.00">AutoCloseable</text>
</a>
</g>
</g>
<!-- Node27&#45;&gt;Node26 -->
<g id="edge4" class="edge">
<title>Node27&#45;&gt;Node26</title>
<path fill="none" stroke="midnightblue" d="M436.4,-284.34C466.44,-282.55 505.4,-280.23 542.81,-278"/>
<polygon fill="midnightblue" stroke="midnightblue" points="435.94,-280.87 426.17,-284.95 436.36,-287.85 435.94,-280.87"/>
</g>
<!-- Node36 -->
<g id="node14" class="node">
<title>Node36</title>
<g id="a_node14"><a xlink:href="interfacefiftyone_1_1pipeline_1_1core_1_1flowelements_1_1_flow_element.html" target="_top" xlink:title="A component that processes a FlowData (by examining its evidence, or by examining data processed by o...">
<polygon fill="none" stroke="black" points="604.5,-310.5 604.5,-362.5 734.5,-362.5 734.5,-310.5 604.5,-310.5"/>
<text text-anchor="start" x="612.5" y="-350.5" font-family="Helvetica,sans-Serif" font-size="10.00">fiftyone::pipeline</text>
<text text-anchor="start" x="612.5" y="-339.5" font-family="Helvetica,sans-Serif" font-size="10.00">::core::flowelements</text>
<text text-anchor="start" x="612.5" y="-328.5" font-family="Helvetica,sans-Serif" font-size="10.00">::FlowElement&lt; TData,</text>
<text text-anchor="middle" x="669.5" y="-317.5" font-family="Helvetica,sans-Serif" font-size="10.00"> TProperty &gt;</text>
</a>
</g>
</g>
<!-- Node27&#45;&gt;Node36 -->
<g id="edge16" class="edge">
<title>Node27&#45;&gt;Node36</title>
<path fill="none" stroke="midnightblue" d="M436.24,-296.57C483.74,-304.73 553.68,-316.76 604.39,-325.48"/>
<polygon fill="midnightblue" stroke="midnightblue" points="436.62,-293.08 426.17,-294.84 435.43,-299.98 436.62,-293.08"/>
</g>
<!-- Node28 -->
<g id="node6" class="node">
<title>Node28</title>
<g id="a_node6"><a xlink:href="interfacefiftyone_1_1pipeline_1_1core_1_1data_1_1_element_data.html" target="_top" xlink:title="Represents property values that have be determined by a specific FlowElement based on the supplied ev...">
<polygon fill="none" stroke="black" points="309,-183.5 309,-213.5 456,-213.5 456,-183.5 309,-183.5"/>
<text text-anchor="start" x="317" y="-201.5" font-family="Helvetica,sans-Serif" font-size="10.00">fiftyone.pipeline.core.data.</text>
<text text-anchor="middle" x="382.5" y="-190.5" font-family="Helvetica,sans-Serif" font-size="10.00">ElementData</text>
</a>
</g>
</g>
<!-- Node28&#45;&gt;Node24 -->
<g id="edge11" class="edge">
<title>Node28&#45;&gt;Node24</title>
<path fill="none" stroke="orange" stroke-dasharray="5,2" d="M466.37,-185.5C490.97,-182.2 518.01,-179.14 543,-177.5 884.7,-155.1 977.88,-134.1 1313,-204.5 1334.3,-208.97 1356.81,-216.61 1376.58,-224.39"/>
<polygon fill="orange" stroke="orange" points="465.79,-182.04 456.35,-186.87 466.74,-188.98 465.79,-182.04"/>
<text text-anchor="middle" x="868.5" y="-161.5" font-family="Helvetica,sans-Serif" font-size="10.00"> TData</text>
</g>
<!-- Node28&#45;&gt;Node26 -->
<g id="edge5" class="edge">
<title>Node28&#45;&gt;Node26</title>
<path fill="none" stroke="orange" stroke-dasharray="5,2" d="M466.4,-203.7C485.94,-206.38 506.46,-210.42 525,-216.5 533.7,-219.35 534.65,-222.75 543,-226.5 562.17,-235.11 583.56,-243.16 603.19,-249.96"/>
<polygon fill="orange" stroke="orange" points="466.65,-200.2 456.29,-202.42 465.77,-207.15 466.65,-200.2"/>
<text text-anchor="middle" x="499.5" y="-219.5" font-family="Helvetica,sans-Serif" font-size="10.00"> TData</text>
</g>
<!-- Node28&#45;&gt;Node36 -->
<g id="edge17" class="edge">
<title>Node28&#45;&gt;Node36</title>
<path fill="none" stroke="orange" stroke-dasharray="5,2" d="M417.49,-219.03C446.4,-236.7 488.85,-263.12 525,-287.5 533.18,-293.02 534.12,-296.19 543,-300.5 562.16,-309.81 584.17,-317.14 604.36,-322.69"/>
<polygon fill="orange" stroke="orange" points="418.96,-215.83 408.6,-213.62 415.32,-221.81 418.96,-215.83"/>
<text text-anchor="middle" x="499.5" y="-290.5" font-family="Helvetica,sans-Serif" font-size="10.00"> TData</text>
</g>
<!-- Node37 -->
<g id="node15" class="node">
<title>Node37</title>
<g id="a_node15"><a xlink:href="interfacefiftyone_1_1pipeline_1_1engines_1_1data_1_1_aspect_data.html" target="_top" xlink:title="Represents a specialized ElementData instance that is generated by an AspectEngine.">
<polygon fill="none" stroke="black" points="587.5,-186.5 587.5,-216.5 751.5,-216.5 751.5,-186.5 587.5,-186.5"/>
<text text-anchor="start" x="595.5" y="-204.5" font-family="Helvetica,sans-Serif" font-size="10.00">fiftyone.pipeline.engines.data.</text>
<text text-anchor="middle" x="669.5" y="-193.5" font-family="Helvetica,sans-Serif" font-size="10.00">AspectData</text>
</a>
</g>
</g>
<!-- Node28&#45;&gt;Node37 -->
<g id="edge20" class="edge">
<title>Node28&#45;&gt;Node37</title>
<path fill="none" stroke="midnightblue" d="M466.26,-196.6C468.87,-196.56 471.46,-196.53 474,-196.5 496.67,-196.25 502.34,-196.11 525,-196.5 545.19,-196.85 566.97,-197.48 587.31,-198.18"/>
<polygon fill="midnightblue" stroke="midnightblue" points="466.05,-193.1 456.11,-196.75 466.16,-200.1 466.05,-193.1"/>
</g>
<!-- Node29 -->
<g id="node7" class="node">
<title>Node29</title>
<g id="a_node7"><a xlink:href="interfacefiftyone_1_1pipeline_1_1core_1_1data_1_1_data.html" target="_top" xlink:title="Represents a collection of property values.">
<polygon fill="none" stroke="black" points="102,-189 102,-208 272,-208 272,-189 102,-189"/>
<text text-anchor="middle" x="187" y="-196" font-family="Helvetica,sans-Serif" font-size="10.00">fiftyone.pipeline.core.data.Data</text>
</a>
</g>
</g>
<!-- Node29&#45;&gt;Node28 -->
<g id="edge6" class="edge">
<title>Node29&#45;&gt;Node28</title>
<path fill="none" stroke="midnightblue" d="M282.11,-198.5C291.07,-198.5 300.06,-198.5 308.77,-198.5"/>
<polygon fill="midnightblue" stroke="midnightblue" points="282.03,-195 272.03,-198.5 282.03,-202 282.03,-195"/>
</g>
<!-- Node30 -->
<g id="node8" class="node">
<title>Node30</title>
<g id="a_node8"><a xlink:href="interfacefiftyone_1_1pipeline_1_1core_1_1data_1_1_element_property_meta_data.html" target="_top" xlink:title="Defines details of a property that can be returned by a FlowElement.">
<polygon fill="none" stroke="black" points="309,-365.5 309,-395.5 456,-395.5 456,-365.5 309,-365.5"/>
<text text-anchor="start" x="317" y="-383.5" font-family="Helvetica,sans-Serif" font-size="10.00">fiftyone.pipeline.core.data.</text>
<text text-anchor="middle" x="382.5" y="-372.5" font-family="Helvetica,sans-Serif" font-size="10.00">ElementPropertyMetaData</text>
</a>
</g>
</g>
<!-- Node30&#45;&gt;Node24 -->
<g id="edge12" class="edge">
<title>Node30&#45;&gt;Node24</title>
<path fill="none" stroke="orange" stroke-dasharray="5,2" d="M466.41,-383.18C612.3,-386.95 924.24,-390.8 1186,-365.5 1243.02,-359.99 1269.13,-380.33 1313,-343.5 1331.09,-328.31 1314.71,-310.6 1331,-293.5 1338.72,-285.4 1348.19,-278.77 1358.24,-273.36"/>
<polygon fill="orange" stroke="orange" points="466.29,-379.67 456.2,-382.91 466.1,-386.67 466.29,-379.67"/>
<text text-anchor="middle" x="868.5" y="-387.5" font-family="Helvetica,sans-Serif" font-size="10.00"> TProperty</text>
</g>
<!-- Node30&#45;&gt;Node26 -->
<g id="edge7" class="edge">
<title>Node30&#45;&gt;Node26</title>
<path fill="none" stroke="orange" stroke-dasharray="5,2" d="M418.4,-360.44C450.07,-342.92 498.5,-317.8 543,-301.5 553.43,-297.68 564.52,-294.18 575.63,-291.01"/>
<polygon fill="orange" stroke="orange" points="416.55,-357.47 409.53,-365.4 419.96,-363.58 416.55,-357.47"/>
<text text-anchor="middle" x="499.5" y="-333.5" font-family="Helvetica,sans-Serif" font-size="10.00"> TProperty</text>
</g>
<!-- Node30&#45;&gt;Node36 -->
<g id="edge18" class="edge">
<title>Node30&#45;&gt;Node36</title>
<path fill="none" stroke="orange" stroke-dasharray="5,2" d="M466.25,-367.72C510.2,-360.94 563.42,-352.72 604.23,-346.42"/>
<polygon fill="orange" stroke="orange" points="465.5,-364.3 456.15,-369.28 466.57,-371.22 465.5,-364.3"/>
<text text-anchor="middle" x="499.5" y="-368.5" font-family="Helvetica,sans-Serif" font-size="10.00"> TProperty</text>
</g>
<!-- Node38 -->
<g id="node16" class="node">
<title>Node38</title>
<g id="a_node16"><a xlink:href="interfacefiftyone_1_1pipeline_1_1engines_1_1data_1_1_aspect_property_meta_data.html" target="_top" xlink:title="Holds details about a property that can be returned by an AspectEngine.">
<polygon fill="none" stroke="black" points="587.5,-421.5 587.5,-451.5 751.5,-451.5 751.5,-421.5 587.5,-421.5"/>
<text text-anchor="start" x="595.5" y="-439.5" font-family="Helvetica,sans-Serif" font-size="10.00">fiftyone.pipeline.engines.data.</text>
<text text-anchor="middle" x="669.5" y="-428.5" font-family="Helvetica,sans-Serif" font-size="10.00">AspectPropertyMetaData</text>
</a>
</g>
</g>
<!-- Node30&#45;&gt;Node38 -->
<g id="edge22" class="edge">
<title>Node30&#45;&gt;Node38</title>
<path fill="none" stroke="midnightblue" d="M439.1,-398.44C450.56,-401.75 462.61,-404.97 474,-407.5 510.82,-415.69 552.1,-422.22 587.12,-426.99"/>
<polygon fill="midnightblue" stroke="midnightblue" points="439.79,-394.99 429.21,-395.51 437.8,-401.7 439.79,-394.99"/>
</g>
<!-- Node31 -->
<g id="node9" class="node">
<title>Node31</title>
<g id="a_node9"><a xlink:href="interfacefiftyone_1_1pipeline_1_1core_1_1typed_1_1_typed_key.html" target="_top" xlink:title=" ">
<polygon fill="none" stroke="black" points="987,-98.5 987,-128.5 1140,-128.5 1140,-98.5 987,-98.5"/>
<text text-anchor="start" x="995" y="-116.5" font-family="Helvetica,sans-Serif" font-size="10.00">fiftyone.pipeline.core.typed.</text>
<text text-anchor="middle" x="1063.5" y="-105.5" font-family="Helvetica,sans-Serif" font-size="10.00">TypedKey&lt; TData &gt;</text>
</a>
</g>
</g>
<!-- Node31&#45;&gt;Node24 -->
<g id="edge8" class="edge">
<title>Node31&#45;&gt;Node24</title>
<path fill="none" stroke="#9a32cd" stroke-dasharray="5,2" d="M1150.36,-103.85C1200.47,-102.04 1263.38,-106.62 1313,-132.5 1324.2,-138.34 1322.35,-145.29 1331,-154.5 1354.33,-179.32 1382.84,-205.49 1404.02,-224.23"/>
<polygon fill="#9a32cd" stroke="#9a32cd" points="1150.03,-100.36 1140.19,-104.31 1150.34,-107.35 1150.03,-100.36"/>
<text text-anchor="middle" x="1258.5" y="-135.5" font-family="Helvetica,sans-Serif" font-size="10.00"> typedKey</text>
</g>
<!-- Node32 -->
<g id="node10" class="node">
<title>Node32</title>
<g id="a_node10"><a xlink:href="interfacefiftyone_1_1pipeline_1_1core_1_1typed_1_1_typed_key.html" target="_top" xlink:title="Holds a name and a type to allow for type safe operations on named values.">
<polygon fill="none" stroke="black" points="593,-98.5 593,-128.5 746,-128.5 746,-98.5 593,-98.5"/>
<text text-anchor="start" x="601" y="-116.5" font-family="Helvetica,sans-Serif" font-size="10.00">fiftyone.pipeline.core.typed.</text>
<text text-anchor="middle" x="669.5" y="-105.5" font-family="Helvetica,sans-Serif" font-size="10.00">TypedKey&lt; T &gt;</text>
</a>
</g>
</g>
<!-- Node32&#45;&gt;Node31 -->
<g id="edge9" class="edge">
<title>Node32&#45;&gt;Node31</title>
<path fill="none" stroke="orange" stroke-dasharray="5,2" d="M756.46,-113.5C825.28,-113.5 920.87,-113.5 986.82,-113.5"/>
<polygon fill="orange" stroke="orange" points="756.08,-110 746.08,-113.5 756.08,-117 756.08,-110"/>
<text text-anchor="middle" x="868.5" y="-116.5" font-family="Helvetica,sans-Serif" font-size="10.00"> &lt; TData &gt;</text>
</g>
<!-- Node33 -->
<g id="node11" class="node">
<title>Node33</title>
<g id="a_node11"><a xlink:title=" ">
<polygon fill="none" stroke="#bfbfbf" points="1038.5,-224 1038.5,-243 1088.5,-243 1088.5,-224 1038.5,-224"/>
<text text-anchor="middle" x="1063.5" y="-231" font-family="Helvetica,sans-Serif" font-size="10.00">Logger</text>
</a>
</g>
</g>
<!-- Node33&#45;&gt;Node24 -->
<g id="edge10" class="edge">
<title>Node33&#45;&gt;Node24</title>
<path fill="none" stroke="#9a32cd" stroke-dasharray="5,2" d="M1099,-234.7C1146.99,-236.41 1236.62,-239.76 1313,-243.5 1327.67,-244.22 1343.33,-245.06 1358.36,-245.91"/>
<polygon fill="#9a32cd" stroke="#9a32cd" points="1098.96,-231.2 1088.84,-234.34 1098.71,-238.19 1098.96,-231.2"/>
<text text-anchor="middle" x="1258.5" y="-246.5" font-family="Helvetica,sans-Serif" font-size="10.00"> logger</text>
</g>
<!-- Node34 -->
<g id="node12" class="node">
<title>Node34</title>
<g id="a_node12"><a xlink:href="interfacefiftyone_1_1pipeline_1_1engines_1_1flowelements_1_1_aspect_engine.html" target="_top" xlink:title=" ">
<polygon fill="none" stroke="black" points="1331,-302.5 1331,-332.5 1540,-332.5 1540,-302.5 1331,-302.5"/>
<text text-anchor="start" x="1339" y="-320.5" font-family="Helvetica,sans-Serif" font-size="10.00">fiftyone.pipeline.engines.flowelements.</text>
<text text-anchor="middle" x="1435.5" y="-309.5" font-family="Helvetica,sans-Serif" font-size="10.00">AspectEngine&lt; TData, TProperty &gt;</text>
</a>
</g>
</g>
<!-- Node34&#45;&gt;Node23 -->
<g id="edge13" class="edge">
<title>Node34&#45;&gt;Node23</title>
<path fill="none" stroke="midnightblue" d="M1506.75,-300.01C1564.72,-285.57 1647.83,-264.88 1713.59,-248.5"/>
<polygon fill="midnightblue" stroke="midnightblue" points="1505.81,-296.63 1496.95,-302.45 1507.5,-303.43 1505.81,-296.63"/>
</g>
<!-- Node35 -->
<g id="node13" class="node">
<title>Node35</title>
<g id="a_node13"><a xlink:href="interfacefiftyone_1_1pipeline_1_1engines_1_1flowelements_1_1_aspect_engine.html" target="_top" xlink:title="AspectEngines are a subset of FlowElements.">
<polygon fill="none" stroke="black" points="941,-315 941,-356 1186,-356 1186,-315 941,-315"/>
<text text-anchor="start" x="949" y="-344" font-family="Helvetica,sans-Serif" font-size="10.00">fiftyone.pipeline.engines.flowelements.</text>
<text text-anchor="start" x="949" y="-333" font-family="Helvetica,sans-Serif" font-size="10.00">AspectEngine&lt; TData extends AspectData,</text>
<text text-anchor="middle" x="1063.5" y="-322" font-family="Helvetica,sans-Serif" font-size="10.00"> TProperty extends AspectPropertyMetaData &gt;</text>
</a>
</g>
</g>
<!-- Node35&#45;&gt;Node34 -->
<g id="edge14" class="edge">
<title>Node35&#45;&gt;Node34</title>
<path fill="none" stroke="orange" stroke-dasharray="5,2" d="M1196.39,-329.08C1240.53,-326.94 1289.07,-324.58 1330.74,-322.55"/>
<polygon fill="orange" stroke="orange" points="1195.98,-325.6 1186.16,-329.58 1196.32,-332.59 1195.98,-325.6"/>
<text text-anchor="middle" x="1258.5" y="-331.5" font-family="Helvetica,sans-Serif" font-size="10.00"> &lt; TData, TProperty &gt;</text>
</g>
<!-- Node36&#45;&gt;Node35 -->
<g id="edge15" class="edge">
<title>Node36&#45;&gt;Node35</title>
<path fill="none" stroke="midnightblue" d="M744.85,-336.31C800.08,-336.17 876.63,-335.97 940.75,-335.81"/>
<polygon fill="midnightblue" stroke="midnightblue" points="744.78,-332.81 734.79,-336.34 744.8,-339.81 744.78,-332.81"/>
</g>
<!-- Node37&#45;&gt;Node23 -->
<g id="edge31" class="edge">
<title>Node37&#45;&gt;Node23</title>
<path fill="none" stroke="orange" stroke-dasharray="5,2" d="M761.9,-202.7C920.33,-204.84 1256.23,-209.64 1540,-215.5 1590.68,-216.55 1646.56,-217.91 1694.84,-219.16"/>
<polygon fill="orange" stroke="orange" points="761.77,-199.2 751.72,-202.56 761.67,-206.2 761.77,-199.2"/>
<text text-anchor="middle" x="1258.5" y="-213.5" font-family="Helvetica,sans-Serif" font-size="10.00"> TData</text>
</g>
<!-- Node37&#45;&gt;Node35 -->
<g id="edge19" class="edge">
<title>Node37&#45;&gt;Node35</title>
<path fill="none" stroke="orange" stroke-dasharray="5,2" d="M761.86,-212.67C823.83,-221.92 898.73,-236.88 923,-257.5 939.42,-271.45 924.92,-288.17 941,-302.5 946.39,-307.3 952.4,-311.41 958.8,-314.93"/>
<polygon fill="orange" stroke="orange" points="762.04,-209.16 751.64,-211.18 761.03,-216.09 762.04,-209.16"/>
<text text-anchor="middle" x="868.5" y="-260.5" font-family="Helvetica,sans-Serif" font-size="10.00"> TData</text>
</g>
<!-- Node38&#45;&gt;Node23 -->
<g id="edge32" class="edge">
<title>Node38&#45;&gt;Node23</title>
<path fill="none" stroke="orange" stroke-dasharray="5,2" d="M761.71,-440.96C809.77,-442.36 869.65,-442.63 923,-438.5 1199.7,-417.1 1272.62,-416.84 1540,-342.5 1623.31,-319.33 1714.34,-276.39 1768.77,-248.65"/>
<polygon fill="orange" stroke="orange" points="761.75,-437.46 751.64,-440.64 761.53,-444.45 761.75,-437.46"/>
<text text-anchor="middle" x="1258.5" y="-416.5" font-family="Helvetica,sans-Serif" font-size="10.00"> TProperty</text>
</g>
<!-- Node38&#45;&gt;Node35 -->
<g id="edge21" class="edge">
<title>Node38&#45;&gt;Node35</title>
<path fill="none" stroke="orange" stroke-dasharray="5,2" d="M761.73,-432.28C810.41,-428.21 870.86,-420.21 923,-404.5 961.03,-393.04 1001.38,-371.99 1028.85,-356.14"/>
<polygon fill="orange" stroke="orange" points="761.22,-428.81 751.53,-433.1 761.77,-435.79 761.22,-428.81"/>
<text text-anchor="middle" x="868.5" y="-428.5" font-family="Helvetica,sans-Serif" font-size="10.00"> TProperty</text>
</g>
<!-- Node39 -->
<g id="node17" class="node">
<title>Node39</title>
<g id="a_node17"><a xlink:href="interfacefiftyone_1_1pipeline_1_1engines_1_1caching_1_1_flow_cache.html" target="_top" xlink:title="Used to cache results from individual flow elements in the pipeline.">
<polygon fill="none" stroke="black" points="1345.5,-114.5 1345.5,-144.5 1525.5,-144.5 1525.5,-114.5 1345.5,-114.5"/>
<text text-anchor="start" x="1353.5" y="-132.5" font-family="Helvetica,sans-Serif" font-size="10.00">fiftyone.pipeline.engines.caching.</text>
<text text-anchor="middle" x="1435.5" y="-121.5" font-family="Helvetica,sans-Serif" font-size="10.00">FlowCache</text>
</a>
</g>
</g>
<!-- Node39&#45;&gt;Node23 -->
<g id="edge23" class="edge">
<title>Node39&#45;&gt;Node23</title>
<path fill="none" stroke="#9a32cd" stroke-dasharray="5,2" d="M1535.65,-142.2C1579.38,-148.87 1631.16,-158.25 1677,-170.5 1702.96,-177.44 1730.86,-187.21 1754.93,-196.41"/>
<polygon fill="#9a32cd" stroke="#9a32cd" points="1535.99,-138.71 1525.58,-140.68 1534.95,-145.63 1535.99,-138.71"/>
<text text-anchor="middle" x="1617.5" y="-173.5" font-family="Helvetica,sans-Serif" font-size="10.00"> cache</text>
</g>
<!-- Node40 -->
<g id="node18" class="node">
<title>Node40</title>
<g id="a_node18"><a xlink:href="interfacefiftyone_1_1pipeline_1_1engines_1_1caching_1_1_data_keyed_cache.html" target="_top" xlink:title=" ">
<polygon fill="none" stroke="black" points="970.5,-49.5 970.5,-79.5 1156.5,-79.5 1156.5,-49.5 970.5,-49.5"/>
<text text-anchor="start" x="978.5" y="-67.5" font-family="Helvetica,sans-Serif" font-size="10.00">fiftyone.pipeline.engines.caching.</text>
<text text-anchor="middle" x="1063.5" y="-56.5" font-family="Helvetica,sans-Serif" font-size="10.00">DataKeyedCache&lt; ElementData &gt;</text>
</a>
</g>
</g>
<!-- Node40&#45;&gt;Node39 -->
<g id="edge24" class="edge">
<title>Node40&#45;&gt;Node39</title>
<path fill="none" stroke="midnightblue" d="M1166.61,-77.86C1211.63,-84.22 1265.09,-92.43 1313,-101.5 1332.78,-105.25 1354.22,-109.97 1373.51,-114.46"/>
<polygon fill="midnightblue" stroke="midnightblue" points="1166.94,-74.37 1156.55,-76.45 1165.96,-81.3 1166.94,-74.37"/>
</g>
<!-- Node41 -->
<g id="node19" class="node">
<title>Node41</title>
<g id="a_node19"><a xlink:href="interfacefiftyone_1_1pipeline_1_1engines_1_1caching_1_1_data_keyed_cache.html" target="_top" xlink:title="Represents a put cache where the key is a FlowData instance.">
<polygon fill="none" stroke="black" points="579.5,-49.5 579.5,-79.5 759.5,-79.5 759.5,-49.5 579.5,-49.5"/>
<text text-anchor="start" x="587.5" y="-67.5" font-family="Helvetica,sans-Serif" font-size="10.00">fiftyone.pipeline.engines.caching.</text>
<text text-anchor="middle" x="669.5" y="-56.5" font-family="Helvetica,sans-Serif" font-size="10.00">DataKeyedCache&lt; V &gt;</text>
</a>
</g>
</g>
<!-- Node41&#45;&gt;Node40 -->
<g id="edge25" class="edge">
<title>Node41&#45;&gt;Node40</title>
<path fill="none" stroke="orange" stroke-dasharray="5,2" d="M770.07,-64.5C831.67,-64.5 910.21,-64.5 970.38,-64.5"/>
<polygon fill="orange" stroke="orange" points="769.94,-61 759.94,-64.5 769.94,-68 769.94,-61"/>
<text text-anchor="middle" x="868.5" y="-67.5" font-family="Helvetica,sans-Serif" font-size="10.00"> &lt; ElementData &gt;</text>
</g>
<!-- Node42 -->
<g id="node20" class="node">
<title>Node42</title>
<g id="a_node20"><a xlink:href="interfacefiftyone_1_1caching_1_1_put_cache.html" target="_top" xlink:title="A cache that supports a thread safe put method for inserting to cache.">
<polygon fill="none" stroke="black" points="310.5,-49.5 310.5,-79.5 454.5,-79.5 454.5,-49.5 310.5,-49.5"/>
<text text-anchor="start" x="318.5" y="-67.5" font-family="Helvetica,sans-Serif" font-size="10.00">fiftyone::caching::</text>
<text text-anchor="middle" x="382.5" y="-56.5" font-family="Helvetica,sans-Serif" font-size="10.00">PutCache&lt; FlowData, V &gt;</text>
</a>
</g>
</g>
<!-- Node42&#45;&gt;Node41 -->
<g id="edge26" class="edge">
<title>Node42&#45;&gt;Node41</title>
<path fill="none" stroke="midnightblue" d="M465.07,-64.5C500.79,-64.5 542.8,-64.5 579.35,-64.5"/>
<polygon fill="midnightblue" stroke="midnightblue" points="464.68,-61 454.68,-64.5 464.68,-68 464.68,-61"/>
</g>
<!-- Node43 -->
<g id="node21" class="node">
<title>Node43</title>
<g id="a_node21"><a xlink:href="interfacefiftyone_1_1caching_1_1_cache.html" target="_top" xlink:title="Base cache interface which declares only the get method and the types of key and value stored in the ...">
<polygon fill="none" stroke="black" points="135.5,-49.5 135.5,-79.5 238.5,-79.5 238.5,-49.5 135.5,-49.5"/>
<text text-anchor="start" x="143.5" y="-67.5" font-family="Helvetica,sans-Serif" font-size="10.00">fiftyone::caching::</text>
<text text-anchor="middle" x="187" y="-56.5" font-family="Helvetica,sans-Serif" font-size="10.00">Cache&lt; K, V &gt;</text>
</a>
</g>
</g>
<!-- Node43&#45;&gt;Node42 -->
<g id="edge27" class="edge">
<title>Node43&#45;&gt;Node42</title>
<path fill="none" stroke="midnightblue" d="M248.61,-64.5C268.23,-64.5 290.16,-64.5 310.46,-64.5"/>
<polygon fill="midnightblue" stroke="midnightblue" points="248.59,-61 238.59,-64.5 248.59,-68 248.59,-61"/>
</g>
<!-- Node44 -->
<g id="node22" class="node">
<title>Node44</title>
<g id="a_node22"><a xlink:title=" ">
<polygon fill="none" stroke="#bfbfbf" points="0,-55 0,-74 65,-74 65,-55 0,-55"/>
<text text-anchor="middle" x="32.5" y="-62" font-family="Helvetica,sans-Serif" font-size="10.00">Closeable</text>
</a>
</g>
</g>
<!-- Node44&#45;&gt;Node43 -->
<g id="edge28" class="edge">
<title>Node44&#45;&gt;Node43</title>
<path fill="none" stroke="midnightblue" d="M75.28,-64.5C93.81,-64.5 115.77,-64.5 135.23,-64.5"/>
<polygon fill="midnightblue" stroke="midnightblue" points="75.1,-61 65.1,-64.5 75.1,-68 75.1,-61"/>
</g>
<!-- Node45 -->
<g id="node23" class="node">
<title>Node45</title>
<g id="a_node23"><a xlink:href="interfacefiftyone_1_1pipeline_1_1engines_1_1services_1_1_missing_property_service.html" target="_top" xlink:title="Service used by AspectEngines to report the reason for a property not being present in the results.">
<polygon fill="none" stroke="black" points="1344,-22.5 1344,-52.5 1527,-52.5 1527,-22.5 1344,-22.5"/>
<text text-anchor="start" x="1352" y="-40.5" font-family="Helvetica,sans-Serif" font-size="10.00">fiftyone.pipeline.engines.services.</text>
<text text-anchor="middle" x="1435.5" y="-29.5" font-family="Helvetica,sans-Serif" font-size="10.00">MissingPropertyService</text>
</a>
</g>
</g>
<!-- Node45&#45;&gt;Node23 -->
<g id="edge29" class="edge">
<title>Node45&#45;&gt;Node23</title>
<path fill="none" stroke="#9a32cd" stroke-dasharray="5,2" d="M1493.47,-55.75C1543.13,-72.54 1616.49,-99.49 1677,-130.5 1714.59,-149.76 1754.67,-176.59 1782.45,-196.31"/>
<polygon fill="#9a32cd" stroke="#9a32cd" points="1494.45,-52.39 1483.86,-52.53 1492.23,-59.03 1494.45,-52.39"/>
<text text-anchor="middle" x="1617.5" y="-133.5" font-family="Helvetica,sans-Serif" font-size="10.00"> missingPropertyService</text>
</g>
<!-- Node46 -->
<g id="node24" class="node">
<title>Node46</title>
<g id="a_node24"><a xlink:href="interfacefiftyone_1_1pipeline_1_1core_1_1services_1_1_pipeline_service.html" target="_top" xlink:title="Service interface used by PipelineBuilder to hand out services to elements which required them.">
<polygon fill="none" stroke="black" points="980.5,-0.5 980.5,-30.5 1146.5,-30.5 1146.5,-0.5 980.5,-0.5"/>
<text text-anchor="start" x="988.5" y="-18.5" font-family="Helvetica,sans-Serif" font-size="10.00">fiftyone.pipeline.core.services.</text>
<text text-anchor="middle" x="1063.5" y="-7.5" font-family="Helvetica,sans-Serif" font-size="10.00">PipelineService</text>
</a>
</g>
</g>
<!-- Node46&#45;&gt;Node45 -->
<g id="edge30" class="edge">
<title>Node46&#45;&gt;Node45</title>
<path fill="none" stroke="midnightblue" d="M1156.73,-20.98C1213.89,-24.38 1287,-28.73 1343.86,-32.11"/>
<polygon fill="midnightblue" stroke="midnightblue" points="1156.81,-17.48 1146.61,-20.38 1156.39,-24.47 1156.81,-17.48"/>
</g>
</g>
</svg>
