<?xml version="1.0" encoding="UTF-8" standalone="no"?>
<!DOCTYPE svg PUBLIC "-//W3C//DTD SVG 1.1//EN"
 "http://www.w3.org/Graphics/SVG/1.1/DTD/svg11.dtd">
<!-- Generated by graphviz version 2.43.0 (0)
 -->
<!-- Title: fiftyone.pipeline.engines.flowelements.OnPremiseAspectEngineBuilderBase&lt; TBuilder extends OnPremiseAspectEngineBuilderBase&lt; TBuilder, TEngine, TEngine extends OnPremiseAspectEngine &gt; Pages: 1 -->
<svg width="2110pt" height="331pt"
 viewBox="0.00 0.00 2110.00 330.50" xmlns="http://www.w3.org/2000/svg" xmlns:xlink="http://www.w3.org/1999/xlink">
<g id="graph0" class="graph" transform="scale(1 1) rotate(0) translate(4 326.5)">
<title>fiftyone.pipeline.engines.flowelements.OnPremiseAspectEngineBuilderBase&lt; TBuilder extends OnPremiseAspectEngineBuilderBase&lt; TBuilder, TEngine, TEngine extends OnPremiseAspectEngine &gt;</title>
<!-- Node17 -->
<g id="node1" class="node">
<title>Node17</title>
<g id="a_node1"><a xlink:title="Abstract base class that exposes the common options that all 51Degrees on&#45;premise engine builders sho...">
<polygon fill="#bfbfbf" stroke="black" points="1835,-177 1835,-240 2102,-240 2102,-177 1835,-177"/>
<text text-anchor="start" x="1843" y="-228" font-family="Helvetica,sans-Serif" font-size="10.00">fiftyone.pipeline.engines.flowelements.</text>
<text text-anchor="start" x="1843" y="-217" font-family="Helvetica,sans-Serif" font-size="10.00">OnPremiseAspectEngineBuilderBase</text>
<text text-anchor="start" x="1843" y="-206" font-family="Helvetica,sans-Serif" font-size="10.00">&lt; TBuilder extends OnPremiseAspectEngineBuilder</text>
<text text-anchor="start" x="1843" y="-195" font-family="Helvetica,sans-Serif" font-size="10.00">Base&lt; TBuilder, TEngine, TEngine extends</text>
<text text-anchor="middle" x="1968.5" y="-184" font-family="Helvetica,sans-Serif" font-size="10.00"> OnPremiseAspectEngine &gt;</text>
</a>
</g>
</g>
<!-- Node18 -->
<g id="node2" class="node">
<title>Node18</title>
<g id="a_node2"><a xlink:href="classfiftyone_1_1pipeline_1_1engines_1_1flowelements_1_1_aspect_engine_builder_base.html" target="_top" xlink:title=" ">
<polygon fill="none" stroke="black" points="1491.5,-281 1491.5,-322 1700.5,-322 1700.5,-281 1491.5,-281"/>
<text text-anchor="start" x="1499.5" y="-310" font-family="Helvetica,sans-Serif" font-size="10.00">fiftyone.pipeline.engines.flowelements.</text>
<text text-anchor="start" x="1499.5" y="-299" font-family="Helvetica,sans-Serif" font-size="10.00">AspectEngineBuilderBase&lt; TBuilder,</text>
<text text-anchor="middle" x="1596" y="-288" font-family="Helvetica,sans-Serif" font-size="10.00"> TEngine &gt;</text>
</a>
</g>
</g>
<!-- Node18&#45;&gt;Node17 -->
<g id="edge1" class="edge">
<title>Node18&#45;&gt;Node17</title>
<path fill="none" stroke="midnightblue" d="M1699.62,-278.7C1736.7,-270.21 1778.81,-260.25 1817,-250.5 1829.88,-247.21 1843.34,-243.64 1856.69,-240.02"/>
<polygon fill="midnightblue" stroke="midnightblue" points="1698.78,-275.3 1689.81,-280.94 1700.34,-282.13 1698.78,-275.3"/>
</g>
<!-- Node19 -->
<g id="node3" class="node">
<title>Node19</title>
<g id="a_node3"><a xlink:href="classfiftyone_1_1pipeline_1_1engines_1_1flowelements_1_1_aspect_engine_builder_base.html" target="_top" xlink:title="Abstract base class that exposes the common options that all 51Degrees engine builders should make us...">
<polygon fill="none" stroke="black" points="1082,-236 1082,-299 1291,-299 1291,-236 1082,-236"/>
<text text-anchor="start" x="1090" y="-287" font-family="Helvetica,sans-Serif" font-size="10.00">fiftyone.pipeline.engines.flowelements.</text>
<text text-anchor="start" x="1090" y="-276" font-family="Helvetica,sans-Serif" font-size="10.00">AspectEngineBuilderBase&lt; TBuilder</text>
<text text-anchor="start" x="1090" y="-265" font-family="Helvetica,sans-Serif" font-size="10.00"> extends AspectEngineBuilderBase</text>
<text text-anchor="start" x="1090" y="-254" font-family="Helvetica,sans-Serif" font-size="10.00">&lt; TBuilder, TEngine, TEngine extends</text>
<text text-anchor="middle" x="1186.5" y="-243" font-family="Helvetica,sans-Serif" font-size="10.00"> AspectEngine &gt;</text>
</a>
</g>
</g>
<!-- Node19&#45;&gt;Node18 -->
<g id="edge2" class="edge">
<title>Node19&#45;&gt;Node18</title>
<path fill="none" stroke="orange" stroke-dasharray="5,2" d="M1301.32,-277C1360.85,-281.96 1433.19,-288 1491.18,-292.84"/>
<polygon fill="orange" stroke="orange" points="1301.38,-273.49 1291.12,-276.15 1300.79,-280.47 1301.38,-273.49"/>
<text text-anchor="middle" x="1381.5" y="-292.5" font-family="Helvetica,sans-Serif" font-size="10.00"> &lt; TBuilder, TEngine &gt;</text>
</g>
<!-- Node20 -->
<g id="node4" class="node">
<title>Node20</title>
<g id="a_node4"><a xlink:href="classfiftyone_1_1pipeline_1_1engines_1_1configuration_1_1_cache_configuration.html" target="_top" xlink:title="Contains everything needed to build a cache.">
<polygon fill="none" stroke="black" points="711.5,-274.5 711.5,-304.5 917.5,-304.5 917.5,-274.5 711.5,-274.5"/>
<text text-anchor="start" x="719.5" y="-292.5" font-family="Helvetica,sans-Serif" font-size="10.00">fiftyone.pipeline.engines.configuration.</text>
<text text-anchor="middle" x="814.5" y="-281.5" font-family="Helvetica,sans-Serif" font-size="10.00">CacheConfiguration</text>
</a>
</g>
</g>
<!-- Node20&#45;&gt;Node19 -->
<g id="edge3" class="edge">
<title>Node20&#45;&gt;Node19</title>
<path fill="none" stroke="#9a32cd" stroke-dasharray="5,2" d="M927.6,-282.83C976.63,-279.92 1033.79,-276.52 1081.82,-273.66"/>
<polygon fill="#9a32cd" stroke="#9a32cd" points="927.36,-279.34 917.58,-283.43 927.77,-286.33 927.36,-279.34"/>
<text text-anchor="middle" x="1009.5" y="-283.5" font-family="Helvetica,sans-Serif" font-size="10.00"> cacheConfig</text>
</g>
<!-- Node21 -->
<g id="node5" class="node">
<title>Node21</title>
<g id="a_node5"><a xlink:title=" ">
<polygon fill="none" stroke="#bfbfbf" points="770.5,-236 770.5,-255 858.5,-255 858.5,-236 770.5,-236"/>
<text text-anchor="middle" x="814.5" y="-243" font-family="Helvetica,sans-Serif" font-size="10.00">ILoggerFactory</text>
</a>
</g>
</g>
<!-- Node21&#45;&gt;Node19 -->
<g id="edge4" class="edge">
<title>Node21&#45;&gt;Node19</title>
<path fill="none" stroke="#9a32cd" stroke-dasharray="5,2" d="M868.6,-248.35C918.92,-251.08 996.61,-255.38 1064,-259.5 1069.8,-259.85 1075.76,-260.23 1081.77,-260.6"/>
<polygon fill="#9a32cd" stroke="#9a32cd" points="868.78,-244.85 858.6,-247.8 868.4,-251.84 868.78,-244.85"/>
<text text-anchor="middle" x="1009.5" y="-262.5" font-family="Helvetica,sans-Serif" font-size="10.00"> loggerFactory</text>
</g>
<!-- Node22 -->
<g id="node6" class="node">
<title>Node22</title>
<g id="a_node6"><a xlink:href="interfacefiftyone_1_1pipeline_1_1engines_1_1flowelements_1_1_aspect_engine.html" target="_top" xlink:title="AspectEngines are a subset of FlowElements.">
<polygon fill="none" stroke="black" points="692,-55 692,-96 937,-96 937,-55 692,-55"/>
<text text-anchor="start" x="700" y="-84" font-family="Helvetica,sans-Serif" font-size="10.00">fiftyone.pipeline.engines.flowelements.</text>
<text text-anchor="start" x="700" y="-73" font-family="Helvetica,sans-Serif" font-size="10.00">AspectEngine&lt; TData extends AspectData,</text>
<text text-anchor="middle" x="814.5" y="-62" font-family="Helvetica,sans-Serif" font-size="10.00"> TProperty extends AspectPropertyMetaData &gt;</text>
</a>
</g>
</g>
<!-- Node22&#45;&gt;Node19 -->
<g id="edge5" class="edge">
<title>Node22&#45;&gt;Node19</title>
<path fill="none" stroke="orange" stroke-dasharray="5,2" d="M947.3,-82.43C1001.91,-86.57 1054.77,-92.76 1064,-101.5 1100.91,-136.48 1052.13,-173.34 1082,-214.5 1087.99,-222.75 1095.64,-229.81 1104.07,-235.82"/>
<polygon fill="orange" stroke="orange" points="947.32,-78.92 937.09,-81.68 946.8,-85.9 947.32,-78.92"/>
<text text-anchor="middle" x="1009.5" y="-104.5" font-family="Helvetica,sans-Serif" font-size="10.00"> TEngine</text>
</g>
<!-- Node35 -->
<g id="node19" class="node">
<title>Node35</title>
<g id="a_node19"><a xlink:href="interfacefiftyone_1_1pipeline_1_1engines_1_1flowelements_1_1_aspect_engine.html" target="_top" xlink:title=" ">
<polygon fill="none" stroke="black" points="1082,-63.5 1082,-93.5 1291,-93.5 1291,-63.5 1082,-63.5"/>
<text text-anchor="start" x="1090" y="-81.5" font-family="Helvetica,sans-Serif" font-size="10.00">fiftyone.pipeline.engines.flowelements.</text>
<text text-anchor="middle" x="1186.5" y="-70.5" font-family="Helvetica,sans-Serif" font-size="10.00">AspectEngine&lt; TData, TProperty &gt;</text>
</a>
</g>
</g>
<!-- Node22&#45;&gt;Node35 -->
<g id="edge22" class="edge">
<title>Node22&#45;&gt;Node35</title>
<path fill="none" stroke="orange" stroke-dasharray="5,2" d="M947.2,-67.47C984.93,-66.19 1026.1,-65.79 1064,-67.5 1069.82,-67.76 1075.79,-68.1 1081.81,-68.48"/>
<polygon fill="orange" stroke="orange" points="947.05,-63.97 937.18,-67.83 947.3,-70.97 947.05,-63.97"/>
<text text-anchor="middle" x="1009.5" y="-70.5" font-family="Helvetica,sans-Serif" font-size="10.00"> &lt; TData, TProperty &gt;</text>
</g>
<!-- Node23 -->
<g id="node7" class="node">
<title>Node23</title>
<g id="a_node7"><a xlink:href="interfacefiftyone_1_1pipeline_1_1core_1_1flowelements_1_1_flow_element.html" target="_top" xlink:title="A component that processes a FlowData (by examining its evidence, or by examining data processed by o...">
<polygon fill="none" stroke="black" points="458,-49.5 458,-101.5 588,-101.5 588,-49.5 458,-49.5"/>
<text text-anchor="start" x="466" y="-89.5" font-family="Helvetica,sans-Serif" font-size="10.00">fiftyone::pipeline</text>
<text text-anchor="start" x="466" y="-78.5" font-family="Helvetica,sans-Serif" font-size="10.00">::core::flowelements</text>
<text text-anchor="start" x="466" y="-67.5" font-family="Helvetica,sans-Serif" font-size="10.00">::FlowElement&lt; TData,</text>
<text text-anchor="middle" x="523" y="-56.5" font-family="Helvetica,sans-Serif" font-size="10.00"> TProperty &gt;</text>
</a>
</g>
</g>
<!-- Node23&#45;&gt;Node22 -->
<g id="edge6" class="edge">
<title>Node23&#45;&gt;Node22</title>
<path fill="none" stroke="midnightblue" d="M598.49,-75.5C626.91,-75.5 660.09,-75.5 691.77,-75.5"/>
<polygon fill="midnightblue" stroke="midnightblue" points="598.25,-72 588.25,-75.5 598.25,-79 598.25,-72"/>
</g>
<!-- Node24 -->
<g id="node8" class="node">
<title>Node24</title>
<g id="a_node8"><a xlink:title=" ">
<polygon fill="none" stroke="#bfbfbf" points="237,-66 237,-85 324,-85 324,-66 237,-66"/>
<text text-anchor="middle" x="280.5" y="-73" font-family="Helvetica,sans-Serif" font-size="10.00">AutoCloseable</text>
</a>
</g>
</g>
<!-- Node24&#45;&gt;Node23 -->
<g id="edge7" class="edge">
<title>Node24&#45;&gt;Node23</title>
<path fill="none" stroke="midnightblue" d="M334.62,-75.5C371,-75.5 419.44,-75.5 457.96,-75.5"/>
<polygon fill="midnightblue" stroke="midnightblue" points="334.22,-72 324.22,-75.5 334.22,-79 334.22,-72"/>
</g>
<!-- Node25 -->
<g id="node9" class="node">
<title>Node25</title>
<g id="a_node9"><a xlink:href="interfacefiftyone_1_1pipeline_1_1core_1_1data_1_1_element_data.html" target="_top" xlink:title="Represents property values that have be determined by a specific FlowElement based on the supplied ev...">
<polygon fill="none" stroke="black" points="207,-112.5 207,-142.5 354,-142.5 354,-112.5 207,-112.5"/>
<text text-anchor="start" x="215" y="-130.5" font-family="Helvetica,sans-Serif" font-size="10.00">fiftyone.pipeline.core.data.</text>
<text text-anchor="middle" x="280.5" y="-119.5" font-family="Helvetica,sans-Serif" font-size="10.00">ElementData</text>
</a>
</g>
</g>
<!-- Node25&#45;&gt;Node23 -->
<g id="edge8" class="edge">
<title>Node25&#45;&gt;Node23</title>
<path fill="none" stroke="orange" stroke-dasharray="5,2" d="M361.11,-110.29C392.56,-103.49 428.21,-95.78 457.94,-89.35"/>
<polygon fill="orange" stroke="orange" points="360.1,-106.93 351.06,-112.46 361.58,-113.77 360.1,-106.93"/>
<text text-anchor="middle" x="397.5" y="-111.5" font-family="Helvetica,sans-Serif" font-size="10.00"> TData</text>
</g>
<!-- Node28 -->
<g id="node12" class="node">
<title>Node28</title>
<g id="a_node12"><a xlink:href="interfacefiftyone_1_1pipeline_1_1engines_1_1data_1_1_aspect_data.html" target="_top" xlink:title="Represents a specialized ElementData instance that is generated by an AspectEngine.">
<polygon fill="none" stroke="black" points="441,-120.5 441,-150.5 605,-150.5 605,-120.5 441,-120.5"/>
<text text-anchor="start" x="449" y="-138.5" font-family="Helvetica,sans-Serif" font-size="10.00">fiftyone.pipeline.engines.data.</text>
<text text-anchor="middle" x="523" y="-127.5" font-family="Helvetica,sans-Serif" font-size="10.00">AspectData</text>
</a>
</g>
</g>
<!-- Node25&#45;&gt;Node28 -->
<g id="edge12" class="edge">
<title>Node25&#45;&gt;Node28</title>
<path fill="none" stroke="midnightblue" d="M364.36,-130.26C389.03,-131.08 416.03,-131.98 440.61,-132.79"/>
<polygon fill="midnightblue" stroke="midnightblue" points="364.42,-126.76 354.31,-129.92 364.19,-133.75 364.42,-126.76"/>
</g>
<!-- Node26 -->
<g id="node10" class="node">
<title>Node26</title>
<g id="a_node10"><a xlink:href="interfacefiftyone_1_1pipeline_1_1core_1_1data_1_1_data.html" target="_top" xlink:title="Represents a collection of property values.">
<polygon fill="none" stroke="black" points="0,-118 0,-137 170,-137 170,-118 0,-118"/>
<text text-anchor="middle" x="85" y="-125" font-family="Helvetica,sans-Serif" font-size="10.00">fiftyone.pipeline.core.data.Data</text>
</a>
</g>
</g>
<!-- Node26&#45;&gt;Node25 -->
<g id="edge9" class="edge">
<title>Node26&#45;&gt;Node25</title>
<path fill="none" stroke="midnightblue" d="M180.11,-127.5C189.07,-127.5 198.06,-127.5 206.77,-127.5"/>
<polygon fill="midnightblue" stroke="midnightblue" points="180.03,-124 170.03,-127.5 180.03,-131 180.03,-124"/>
</g>
<!-- Node27 -->
<g id="node11" class="node">
<title>Node27</title>
<g id="a_node11"><a xlink:href="interfacefiftyone_1_1pipeline_1_1core_1_1data_1_1_element_property_meta_data.html" target="_top" xlink:title="Defines details of a property that can be returned by a FlowElement.">
<polygon fill="none" stroke="black" points="207,-9.5 207,-39.5 354,-39.5 354,-9.5 207,-9.5"/>
<text text-anchor="start" x="215" y="-27.5" font-family="Helvetica,sans-Serif" font-size="10.00">fiftyone.pipeline.core.data.</text>
<text text-anchor="middle" x="280.5" y="-16.5" font-family="Helvetica,sans-Serif" font-size="10.00">ElementPropertyMetaData</text>
</a>
</g>
</g>
<!-- Node27&#45;&gt;Node23 -->
<g id="edge10" class="edge">
<title>Node27&#45;&gt;Node23</title>
<path fill="none" stroke="orange" stroke-dasharray="5,2" d="M362.3,-41.64C393.41,-48.23 428.47,-55.67 457.8,-61.89"/>
<polygon fill="orange" stroke="orange" points="362.87,-38.18 352.36,-39.53 361.41,-45.02 362.87,-38.18"/>
<text text-anchor="middle" x="397.5" y="-56.5" font-family="Helvetica,sans-Serif" font-size="10.00"> TProperty</text>
</g>
<!-- Node29 -->
<g id="node13" class="node">
<title>Node29</title>
<g id="a_node13"><a xlink:href="interfacefiftyone_1_1pipeline_1_1engines_1_1data_1_1_aspect_property_meta_data.html" target="_top" xlink:title="Holds details about a property that can be returned by an AspectEngine.">
<polygon fill="none" stroke="black" points="441,-0.5 441,-30.5 605,-30.5 605,-0.5 441,-0.5"/>
<text text-anchor="start" x="449" y="-18.5" font-family="Helvetica,sans-Serif" font-size="10.00">fiftyone.pipeline.engines.data.</text>
<text text-anchor="middle" x="523" y="-7.5" font-family="Helvetica,sans-Serif" font-size="10.00">AspectPropertyMetaData</text>
</a>
</g>
</g>
<!-- Node27&#45;&gt;Node29 -->
<g id="edge14" class="edge">
<title>Node27&#45;&gt;Node29</title>
<path fill="none" stroke="midnightblue" d="M364.36,-21.4C389.03,-20.48 416.03,-19.47 440.61,-18.55"/>
<polygon fill="midnightblue" stroke="midnightblue" points="364.17,-17.9 354.31,-21.78 364.43,-24.9 364.17,-17.9"/>
</g>
<!-- Node28&#45;&gt;Node22 -->
<g id="edge11" class="edge">
<title>Node28&#45;&gt;Node22</title>
<path fill="none" stroke="orange" stroke-dasharray="5,2" d="M587.72,-117.96C599.41,-114.97 611.54,-112.02 623,-109.5 645.15,-104.62 668.86,-99.96 691.77,-95.72"/>
<polygon fill="orange" stroke="orange" points="586.82,-114.58 578.02,-120.48 588.58,-121.36 586.82,-114.58"/>
<text text-anchor="middle" x="648.5" y="-112.5" font-family="Helvetica,sans-Serif" font-size="10.00"> TData</text>
</g>
<!-- Node34 -->
<g id="node18" class="node">
<title>Node34</title>
<g id="a_node18"><a xlink:href="interfacefiftyone_1_1pipeline_1_1engines_1_1flowelements_1_1_on_premise_aspect_engine.html" target="_top" xlink:title="Aspect engine interface which processes data internally using a data file and populates the results.">
<polygon fill="none" stroke="black" points="1472,-63.5 1472,-115.5 1720,-115.5 1720,-63.5 1472,-63.5"/>
<text text-anchor="start" x="1480" y="-103.5" font-family="Helvetica,sans-Serif" font-size="10.00">fiftyone.pipeline.engines.flowelements.</text>
<text text-anchor="start" x="1480" y="-92.5" font-family="Helvetica,sans-Serif" font-size="10.00">OnPremiseAspectEngine&lt; TData extends</text>
<text text-anchor="start" x="1480" y="-81.5" font-family="Helvetica,sans-Serif" font-size="10.00"> AspectData, TProperty extends AspectProperty</text>
<text text-anchor="middle" x="1596" y="-70.5" font-family="Helvetica,sans-Serif" font-size="10.00">MetaData &gt;</text>
</a>
</g>
</g>
<!-- Node28&#45;&gt;Node34 -->
<g id="edge23" class="edge">
<title>Node28&#45;&gt;Node34</title>
<path fill="none" stroke="orange" stroke-dasharray="5,2" d="M615.41,-132.59C782.14,-127.12 1146.77,-114.41 1454,-98.5 1459.88,-98.2 1465.9,-97.87 1471.97,-97.53"/>
<polygon fill="orange" stroke="orange" points="615.08,-129.1 605.2,-132.92 615.31,-136.1 615.08,-129.1"/>
<text text-anchor="middle" x="1009.5" y="-123.5" font-family="Helvetica,sans-Serif" font-size="10.00"> TData</text>
</g>
<!-- Node29&#45;&gt;Node22 -->
<g id="edge13" class="edge">
<title>Node29&#45;&gt;Node22</title>
<path fill="none" stroke="orange" stroke-dasharray="5,2" d="M606.48,-32.59C640.14,-39.57 679.35,-47.7 714.53,-54.99"/>
<polygon fill="orange" stroke="orange" points="607.18,-29.17 596.68,-30.56 605.76,-36.02 607.18,-29.17"/>
<text text-anchor="middle" x="648.5" y="-48.5" font-family="Helvetica,sans-Serif" font-size="10.00"> TProperty</text>
</g>
<!-- Node29&#45;&gt;Node34 -->
<g id="edge24" class="edge">
<title>Node29&#45;&gt;Node34</title>
<path fill="none" stroke="orange" stroke-dasharray="5,2" d="M615.11,-18C758.92,-22.4 1047.25,-33.05 1291,-53.5 1350.58,-58.5 1416.5,-66.06 1471.69,-72.96"/>
<polygon fill="orange" stroke="orange" points="615.11,-14.5 605.01,-17.69 614.9,-21.49 615.11,-14.5"/>
<text text-anchor="middle" x="1009.5" y="-40.5" font-family="Helvetica,sans-Serif" font-size="10.00"> TProperty</text>
</g>
<!-- Node30 -->
<g id="node14" class="node">
<title>Node30</title>
<g id="a_node14"><a xlink:title=" ">
<polygon fill="none" stroke="#bfbfbf" points="1571,-243 1571,-262 1621,-262 1621,-243 1571,-243"/>
<text text-anchor="middle" x="1596" y="-250" font-family="Helvetica,sans-Serif" font-size="10.00">Logger</text>
</a>
</g>
</g>
<!-- Node30&#45;&gt;Node17 -->
<g id="edge15" class="edge">
<title>Node30&#45;&gt;Node17</title>
<path fill="none" stroke="#9a32cd" stroke-dasharray="5,2" d="M1631.06,-248.46C1677.12,-242.99 1761.9,-232.92 1834.83,-224.26"/>
<polygon fill="#9a32cd" stroke="#9a32cd" points="1630.54,-244.99 1621.02,-249.65 1631.37,-251.94 1630.54,-244.99"/>
<text text-anchor="middle" x="1777.5" y="-238.5" font-family="Helvetica,sans-Serif" font-size="10.00"> logger</text>
</g>
<!-- Node31 -->
<g id="node15" class="node">
<title>Node31</title>
<g id="a_node15"><a xlink:title=" ">
<polygon fill="none" stroke="#bfbfbf" points="1499.5,-193.5 1499.5,-223.5 1692.5,-223.5 1692.5,-193.5 1499.5,-193.5"/>
<text text-anchor="start" x="1507.5" y="-211.5" font-family="Helvetica,sans-Serif" font-size="10.00">List&lt; fiftyone.pipeline.engines.data.</text>
<text text-anchor="middle" x="1596" y="-200.5" font-family="Helvetica,sans-Serif" font-size="10.00">AspectEngineDataFile &gt;</text>
</a>
</g>
</g>
<!-- Node31&#45;&gt;Node17 -->
<g id="edge16" class="edge">
<title>Node31&#45;&gt;Node17</title>
<path fill="none" stroke="#9a32cd" stroke-dasharray="5,2" d="M1702.91,-208.5C1743.95,-208.5 1791.4,-208.5 1834.68,-208.5"/>
<polygon fill="#9a32cd" stroke="#9a32cd" points="1702.89,-205 1692.89,-208.5 1702.89,-212 1702.89,-205"/>
<text text-anchor="middle" x="1777.5" y="-211.5" font-family="Helvetica,sans-Serif" font-size="10.00"> dataFiles</text>
</g>
<!-- Node32 -->
<g id="node16" class="node">
<title>Node32</title>
<g id="a_node16"><a xlink:title=" ">
<polygon fill="none" stroke="#bfbfbf" points="1169.5,-186 1169.5,-205 1203.5,-205 1203.5,-186 1169.5,-186"/>
<text text-anchor="middle" x="1186.5" y="-193" font-family="Helvetica,sans-Serif" font-size="10.00">List</text>
</a>
</g>
</g>
<!-- Node32&#45;&gt;Node31 -->
<g id="edge17" class="edge">
<title>Node32&#45;&gt;Node31</title>
<path fill="none" stroke="orange" stroke-dasharray="5,2" d="M1213.6,-196.98C1238.2,-198.32 1276.09,-200.28 1309,-201.5 1372.41,-203.84 1443.75,-205.59 1499.32,-206.75"/>
<polygon fill="orange" stroke="orange" points="1213.79,-193.48 1203.61,-196.42 1213.4,-200.47 1213.79,-193.48"/>
<text text-anchor="start" x="1309" y="-230.5" font-family="Helvetica,sans-Serif" font-size="10.00"> &lt; fiftyone::pipeline</text>
<text text-anchor="start" x="1309" y="-219.5" font-family="Helvetica,sans-Serif" font-size="10.00">::engines::data::AspectEngine</text>
<text text-anchor="middle" x="1381.5" y="-208.5" font-family="Helvetica,sans-Serif" font-size="10.00">DataFile &gt;</text>
</g>
<!-- Node33 -->
<g id="node17" class="node">
<title>Node33</title>
<g id="a_node17"><a xlink:title=" ">
<polygon fill="none" stroke="#bfbfbf" points="1478.5,-144.5 1478.5,-174.5 1713.5,-174.5 1713.5,-144.5 1478.5,-144.5"/>
<text text-anchor="start" x="1486.5" y="-162.5" font-family="Helvetica,sans-Serif" font-size="10.00">List&lt; fiftyone.pipeline.engines.configuration.</text>
<text text-anchor="middle" x="1596" y="-151.5" font-family="Helvetica,sans-Serif" font-size="10.00">DataFileConfiguration &gt;</text>
</a>
</g>
</g>
<!-- Node32&#45;&gt;Node33 -->
<g id="edge19" class="edge">
<title>Node32&#45;&gt;Node33</title>
<path fill="none" stroke="orange" stroke-dasharray="5,2" d="M1213.34,-187.04C1237.71,-179.51 1275.4,-169.02 1309,-164.5 1364.37,-157.06 1426.31,-155.19 1478.35,-155.43"/>
<polygon fill="orange" stroke="orange" points="1212.25,-183.71 1203.77,-190.06 1214.36,-190.39 1212.25,-183.71"/>
<text text-anchor="start" x="1319.5" y="-189.5" font-family="Helvetica,sans-Serif" font-size="10.00"> &lt; fiftyone::pipeline</text>
<text text-anchor="start" x="1319.5" y="-178.5" font-family="Helvetica,sans-Serif" font-size="10.00">::engines::configuration</text>
<text text-anchor="middle" x="1381.5" y="-167.5" font-family="Helvetica,sans-Serif" font-size="10.00">::DataFileConfiguration &gt;</text>
</g>
<!-- Node33&#45;&gt;Node17 -->
<g id="edge18" class="edge">
<title>Node33&#45;&gt;Node17</title>
<path fill="none" stroke="#9a32cd" stroke-dasharray="5,2" d="M1720.66,-175.85C1757.28,-180.7 1797.52,-186.02 1834.7,-190.94"/>
<polygon fill="#9a32cd" stroke="#9a32cd" points="1720.8,-172.34 1710.43,-174.5 1719.88,-179.28 1720.8,-172.34"/>
<text text-anchor="middle" x="1777.5" y="-191.5" font-family="Helvetica,sans-Serif" font-size="10.00"> dataFileConfigs</text>
</g>
<!-- Node34&#45;&gt;Node17 -->
<g id="edge20" class="edge">
<title>Node34&#45;&gt;Node17</title>
<path fill="none" stroke="orange" stroke-dasharray="5,2" d="M1688.04,-118.74C1743,-136.39 1813.05,-158.89 1869.26,-176.95"/>
<polygon fill="orange" stroke="orange" points="1688.9,-115.34 1678.31,-115.62 1686.76,-122.01 1688.9,-115.34"/>
<text text-anchor="middle" x="1777.5" y="-163.5" font-family="Helvetica,sans-Serif" font-size="10.00"> TEngine</text>
</g>
<!-- Node35&#45;&gt;Node34 -->
<g id="edge21" class="edge">
<title>Node35&#45;&gt;Node34</title>
<path fill="none" stroke="midnightblue" d="M1301.26,-81.57C1354.38,-83 1417.72,-84.71 1471.95,-86.18"/>
<polygon fill="midnightblue" stroke="midnightblue" points="1301.21,-78.07 1291.12,-81.3 1301.02,-85.07 1301.21,-78.07"/>
</g>
</g>
</svg>
