<?xml version="1.0" encoding="UTF-8" standalone="no"?>
<!DOCTYPE svg PUBLIC "-//W3C//DTD SVG 1.1//EN"
 "http://www.w3.org/Graphics/SVG/1.1/DTD/svg11.dtd">
<!-- Generated by graphviz version 2.43.0 (0)
 -->
<!-- Title: fiftyone.pipeline.jsonbuilder.flowelements.JsonBuilderElement.PipelineConfig Pages: 1 -->
<svg width="353pt" height="184pt"
 viewBox="0.00 0.00 353.00 184.00" xmlns="http://www.w3.org/2000/svg" xmlns:xlink="http://www.w3.org/1999/xlink">
<g id="graph0" class="graph" transform="scale(1 1) rotate(0) translate(4 180)">
<title>fiftyone.pipeline.jsonbuilder.flowelements.JsonBuilderElement.PipelineConfig</title>
<!-- Node1 -->
<g id="node1" class="node">
<title>Node1</title>
<g id="a_node1"><a xlink:title="[constructor]">
<polygon fill="#bfbfbf" stroke="black" points="23,-0.5 23,-30.5 247,-30.5 247,-0.5 23,-0.5"/>
<text text-anchor="start" x="31" y="-18.5" font-family="Helvetica,sans-Serif" font-size="10.00">fiftyone.pipeline.jsonbuilder.flowelements.</text>
<text text-anchor="middle" x="135" y="-7.5" font-family="Helvetica,sans-Serif" font-size="10.00">JsonBuilderElement.PipelineConfig</text>
</a>
</g>
</g>
<!-- Node2 -->
<g id="node2" class="node">
<title>Node2</title>
<g id="a_node2"><a xlink:title=" ">
<polygon fill="none" stroke="#bfbfbf" points="0,-84 0,-103 108,-103 108,-84 0,-84"/>
<text text-anchor="middle" x="54" y="-91" font-family="Helvetica,sans-Serif" font-size="10.00">HashSet&lt; String &gt;</text>
</a>
</g>
</g>
<!-- Node2&#45;&gt;Node1 -->
<g id="edge1" class="edge">
<title>Node2&#45;&gt;Node1</title>
<path fill="none" stroke="#9a32cd" stroke-dasharray="5,2" d="M50.09,-74.05C49.36,-65.72 50.05,-56.18 55,-49 60.45,-41.1 68.17,-35.12 76.69,-30.6"/>
<polygon fill="#9a32cd" stroke="#9a32cd" points="46.64,-74.64 51.64,-83.98 53.56,-73.56 46.64,-74.64"/>
<text text-anchor="middle" x="124.5" y="-52" font-family="Helvetica,sans-Serif" font-size="10.00"> delayedExecutionProperties</text>
</g>
<!-- Node3 -->
<g id="node3" class="node">
<title>Node3</title>
<g id="a_node3"><a xlink:title=" ">
<polygon fill="none" stroke="#bfbfbf" points="25.5,-156.5 25.5,-175.5 82.5,-175.5 82.5,-156.5 25.5,-156.5"/>
<text text-anchor="middle" x="54" y="-163.5" font-family="Helvetica,sans-Serif" font-size="10.00">HashSet</text>
</a>
</g>
</g>
<!-- Node3&#45;&gt;Node2 -->
<g id="edge2" class="edge">
<title>Node3&#45;&gt;Node2</title>
<path fill="none" stroke="orange" stroke-dasharray="5,2" d="M54,-145.94C54,-132.03 54,-113.82 54,-103.22"/>
<polygon fill="orange" stroke="orange" points="50.5,-146.36 54,-156.36 57.5,-146.36 50.5,-146.36"/>
<text text-anchor="middle" x="81.5" y="-130" font-family="Helvetica,sans-Serif" font-size="10.00"> &lt; String &gt;</text>
</g>
<!-- Node4 -->
<g id="node4" class="node">
<title>Node4</title>
<g id="a_node4"><a xlink:title=" ">
<polygon fill="none" stroke="#bfbfbf" points="161.5,-78.5 161.5,-108.5 270.5,-108.5 270.5,-78.5 161.5,-78.5"/>
<text text-anchor="start" x="169.5" y="-96.5" font-family="Helvetica,sans-Serif" font-size="10.00">Map&lt; String, List&lt;</text>
<text text-anchor="middle" x="216" y="-85.5" font-family="Helvetica,sans-Serif" font-size="10.00"> String &gt; &gt;</text>
</a>
</g>
</g>
<!-- Node4&#45;&gt;Node1 -->
<g id="edge3" class="edge">
<title>Node4&#45;&gt;Node1</title>
<path fill="none" stroke="#9a32cd" stroke-dasharray="5,2" d="M207.3,-69.05C203.91,-62.03 199.5,-54.69 194,-49 186.85,-41.6 177.65,-35.44 168.64,-30.55"/>
<polygon fill="#9a32cd" stroke="#9a32cd" points="204.1,-70.47 211.3,-78.24 210.52,-67.68 204.1,-70.47"/>
<text text-anchor="middle" x="271" y="-52" font-family="Helvetica,sans-Serif" font-size="10.00"> delayedEvidenceProperties</text>
</g>
<!-- Node5 -->
<g id="node5" class="node">
<title>Node5</title>
<g id="a_node5"><a xlink:title=" ">
<polygon fill="none" stroke="#bfbfbf" points="197,-156.5 197,-175.5 235,-175.5 235,-156.5 197,-156.5"/>
<text text-anchor="middle" x="216" y="-163.5" font-family="Helvetica,sans-Serif" font-size="10.00">Map</text>
</a>
</g>
</g>
<!-- Node5&#45;&gt;Node4 -->
<g id="edge4" class="edge">
<title>Node5&#45;&gt;Node4</title>
<path fill="none" stroke="orange" stroke-dasharray="5,2" d="M216,-146.24C216,-134.41 216,-119.38 216,-108.58"/>
<polygon fill="orange" stroke="orange" points="212.5,-146.36 216,-156.36 219.5,-146.36 212.5,-146.36"/>
<text text-anchor="middle" x="280.5" y="-130" font-family="Helvetica,sans-Serif" font-size="10.00"> &lt; String, List&lt; String &gt; &gt;</text>
</g>
</g>
</svg>
