<?xml version="1.0" encoding="UTF-8" standalone="no"?>
<!DOCTYPE svg PUBLIC "-//W3C//DTD SVG 1.1//EN"
 "http://www.w3.org/Graphics/SVG/1.1/DTD/svg11.dtd">
<!-- Generated by graphviz version 2.43.0 (0)
 -->
<!-- Title: fiftyone.caching.LruPutCache&lt; K, V &gt; Pages: 1 -->
<svg width="704pt" height="216pt"
 viewBox="0.00 0.00 704.00 216.00" xmlns="http://www.w3.org/2000/svg" xmlns:xlink="http://www.w3.org/1999/xlink">
<g id="graph0" class="graph" transform="scale(1 1) rotate(0) translate(4 212)">
<title>fiftyone.caching.LruPutCache&lt; K, V &gt;</title>
<!-- Node5 -->
<g id="node1" class="node">
<title>Node5</title>
<g id="a_node1"><a xlink:title="Uses the LruCacheBase to implement the PutCache interface.">
<polygon fill="#bfbfbf" stroke="black" points="538,-152.5 538,-182.5 696,-182.5 696,-152.5 538,-152.5"/>
<text text-anchor="start" x="546" y="-170.5" font-family="Helvetica,sans-Serif" font-size="10.00">fiftyone.caching.LruPutCache</text>
<text text-anchor="middle" x="617" y="-159.5" font-family="Helvetica,sans-Serif" font-size="10.00">&lt; K, V &gt;</text>
</a>
</g>
</g>
<!-- Node6 -->
<g id="node2" class="node">
<title>Node6</title>
<g id="a_node2"><a xlink:href="classfiftyone_1_1caching_1_1_lru_cache_base.html" target="_top" xlink:title="This is a Least Recently Used (LRU) cache with multiple linked lists in place of the usual single lin...">
<polygon fill="none" stroke="black" points="365,-128.5 365,-158.5 493,-158.5 493,-128.5 365,-128.5"/>
<text text-anchor="start" x="373" y="-146.5" font-family="Helvetica,sans-Serif" font-size="10.00">fiftyone::caching::</text>
<text text-anchor="middle" x="429" y="-135.5" font-family="Helvetica,sans-Serif" font-size="10.00">LruCacheBase&lt; K, V &gt;</text>
</a>
</g>
</g>
<!-- Node6&#45;&gt;Node5 -->
<g id="edge1" class="edge">
<title>Node6&#45;&gt;Node5</title>
<path fill="none" stroke="midnightblue" d="M503.45,-152.98C514.73,-154.43 526.41,-155.94 537.79,-157.41"/>
<polygon fill="midnightblue" stroke="midnightblue" points="503.6,-149.47 493.23,-151.66 502.7,-156.41 503.6,-149.47"/>
</g>
<!-- Node7 -->
<g id="node3" class="node">
<title>Node7</title>
<g id="a_node3"><a xlink:href="interfacefiftyone_1_1caching_1_1_cache.html" target="_top" xlink:title="Base cache interface which declares only the get method and the types of key and value stored in the ...">
<polygon fill="none" stroke="black" points="132.5,-172.5 132.5,-202.5 235.5,-202.5 235.5,-172.5 132.5,-172.5"/>
<text text-anchor="start" x="140.5" y="-190.5" font-family="Helvetica,sans-Serif" font-size="10.00">fiftyone::caching::</text>
<text text-anchor="middle" x="184" y="-179.5" font-family="Helvetica,sans-Serif" font-size="10.00">Cache&lt; K, V &gt;</text>
</a>
</g>
</g>
<!-- Node7&#45;&gt;Node6 -->
<g id="edge2" class="edge">
<title>Node7&#45;&gt;Node6</title>
<path fill="none" stroke="midnightblue" d="M245.62,-176.52C281.96,-169.94 328.1,-161.59 364.87,-154.93"/>
<polygon fill="midnightblue" stroke="midnightblue" points="244.86,-173.1 235.64,-178.33 246.11,-179.99 244.86,-173.1"/>
</g>
<!-- Node12 -->
<g id="node8" class="node">
<title>Node12</title>
<g id="a_node8"><a xlink:href="interfacefiftyone_1_1caching_1_1_put_cache.html" target="_top" xlink:title="A cache that supports a thread safe put method for inserting to cache.">
<polygon fill="none" stroke="black" points="377,-177.5 377,-207.5 481,-207.5 481,-177.5 377,-177.5"/>
<text text-anchor="start" x="385" y="-195.5" font-family="Helvetica,sans-Serif" font-size="10.00">fiftyone::caching::</text>
<text text-anchor="middle" x="429" y="-184.5" font-family="Helvetica,sans-Serif" font-size="10.00">PutCache&lt; K, V &gt;</text>
</a>
</g>
</g>
<!-- Node7&#45;&gt;Node12 -->
<g id="edge11" class="edge">
<title>Node7&#45;&gt;Node12</title>
<path fill="none" stroke="midnightblue" d="M245.88,-188.75C286.16,-189.58 338.39,-190.66 376.58,-191.44"/>
<polygon fill="midnightblue" stroke="midnightblue" points="245.71,-185.25 235.64,-188.54 245.57,-192.25 245.71,-185.25"/>
</g>
<!-- Node8 -->
<g id="node4" class="node">
<title>Node8</title>
<g id="a_node4"><a xlink:title=" ">
<polygon fill="none" stroke="#bfbfbf" points="0,-146 0,-165 65,-165 65,-146 0,-146"/>
<text text-anchor="middle" x="32.5" y="-153" font-family="Helvetica,sans-Serif" font-size="10.00">Closeable</text>
</a>
</g>
</g>
<!-- Node8&#45;&gt;Node6 -->
<g id="edge4" class="edge">
<title>Node8&#45;&gt;Node6</title>
<path fill="none" stroke="midnightblue" d="M75.21,-154.23C144.46,-152.12 283.55,-147.89 364.87,-145.42"/>
<polygon fill="midnightblue" stroke="midnightblue" points="75.01,-150.74 65.12,-154.54 75.22,-157.73 75.01,-150.74"/>
</g>
<!-- Node8&#45;&gt;Node7 -->
<g id="edge3" class="edge">
<title>Node8&#45;&gt;Node7</title>
<path fill="none" stroke="midnightblue" d="M75.22,-164.43C92.9,-168.21 113.66,-172.66 132.22,-176.63"/>
<polygon fill="midnightblue" stroke="midnightblue" points="75.72,-160.96 65.21,-162.29 74.25,-167.8 75.72,-160.96"/>
</g>
<!-- Node9 -->
<g id="node5" class="node">
<title>Node9</title>
<g id="a_node5"><a xlink:title="A linked list used in the LruCache implementation.">
<polygon fill="none" stroke="#bfbfbf" points="102,-17.5 102,-47.5 266,-47.5 266,-17.5 102,-17.5"/>
<text text-anchor="start" x="110" y="-35.5" font-family="Helvetica,sans-Serif" font-size="10.00">fiftyone.caching.LruCache</text>
<text text-anchor="middle" x="184" y="-24.5" font-family="Helvetica,sans-Serif" font-size="10.00">Base&lt; K, V &gt;.CacheLinkedList</text>
</a>
</g>
</g>
<!-- Node9&#45;&gt;Node6 -->
<g id="edge5" class="edge">
<title>Node9&#45;&gt;Node6</title>
<path fill="none" stroke="#9a32cd" stroke-dasharray="5,2" d="M233.61,-51.37C264.17,-63.56 304.25,-80.15 339,-96.5 360.19,-106.47 383.58,-118.88 401.06,-128.44"/>
<polygon fill="#9a32cd" stroke="#9a32cd" points="234.62,-48.01 224.04,-47.57 232.04,-54.51 234.62,-48.01"/>
<text text-anchor="middle" x="311.5" y="-99.5" font-family="Helvetica,sans-Serif" font-size="10.00"> linkedLists</text>
</g>
<!-- Node10 -->
<g id="node6" class="node">
<title>Node10</title>
<g id="a_node6"><a xlink:title="An item stored in the cache along with references to the next and previous items.">
<polygon fill="none" stroke="#bfbfbf" points="357,-0.5 357,-30.5 501,-30.5 501,-0.5 357,-0.5"/>
<text text-anchor="start" x="365" y="-18.5" font-family="Helvetica,sans-Serif" font-size="10.00">fiftyone.caching.LruCache</text>
<text text-anchor="middle" x="429" y="-7.5" font-family="Helvetica,sans-Serif" font-size="10.00">Base&lt; K, V &gt;.CachedItem</text>
</a>
</g>
</g>
<!-- Node9&#45;&gt;Node10 -->
<g id="edge7" class="edge">
<title>Node9&#45;&gt;Node10</title>
<path fill="none" stroke="#9a32cd" stroke-dasharray="5,2" d="M244.17,-15.03C257.18,-11.9 270.96,-9.12 284,-7.5 308.26,-4.48 314.58,-6.4 339,-7.5 344.73,-7.76 350.67,-8.11 356.63,-8.52"/>
<polygon fill="#9a32cd" stroke="#9a32cd" points="243.25,-11.65 234.4,-17.47 244.95,-18.44 243.25,-11.65"/>
<text text-anchor="middle" x="311.5" y="-10.5" font-family="Helvetica,sans-Serif" font-size="10.00"> list</text>
</g>
<!-- Node10&#45;&gt;Node9 -->
<g id="edge6" class="edge">
<title>Node10&#45;&gt;Node9</title>
<path fill="none" stroke="#9a32cd" stroke-dasharray="5,2" d="M346.47,-21.2C320.63,-23.01 292.08,-25.01 266.25,-26.82"/>
<polygon fill="#9a32cd" stroke="#9a32cd" points="346.88,-24.68 356.61,-20.49 346.39,-17.7 346.88,-24.68"/>
<text text-anchor="middle" x="311.5" y="-40.5" font-family="Helvetica,sans-Serif" font-size="10.00"> last</text>
<text text-anchor="middle" x="311.5" y="-29.5" font-family="Helvetica,sans-Serif" font-size="10.00">first</text>
</g>
<!-- Node10&#45;&gt;Node10 -->
<g id="edge8" class="edge">
<title>Node10&#45;&gt;Node10</title>
<path fill="none" stroke="#9a32cd" stroke-dasharray="5,2" d="M413.01,-40.96C414.99,-45.68 420.32,-49 429,-49 443.24,-49 448.47,-40.06 444.68,-30.66"/>
<polygon fill="#9a32cd" stroke="#9a32cd" points="416.52,-40.76 413.32,-30.66 409.52,-40.55 416.52,-40.76"/>
<text text-anchor="middle" x="429" y="-63" font-family="Helvetica,sans-Serif" font-size="10.00"> previous</text>
<text text-anchor="middle" x="429" y="-52" font-family="Helvetica,sans-Serif" font-size="10.00">next</text>
</g>
<!-- Node11 -->
<g id="node7" class="node">
<title>Node11</title>
<g id="a_node7"><a xlink:title=" ">
<polygon fill="none" stroke="#bfbfbf" points="155.5,-96 155.5,-115 212.5,-115 212.5,-96 155.5,-96"/>
<text text-anchor="middle" x="184" y="-103" font-family="Helvetica,sans-Serif" font-size="10.00">Random</text>
</a>
</g>
</g>
<!-- Node11&#45;&gt;Node6 -->
<g id="edge9" class="edge">
<title>Node11&#45;&gt;Node6</title>
<path fill="none" stroke="#9a32cd" stroke-dasharray="5,2" d="M222.8,-106.69C254.13,-108.16 299.74,-111.4 339,-118.5 352.74,-120.99 367.42,-124.67 380.81,-128.45"/>
<polygon fill="#9a32cd" stroke="#9a32cd" points="222.89,-103.19 212.75,-106.26 222.59,-110.19 222.89,-103.19"/>
<text text-anchor="middle" x="311.5" y="-121.5" font-family="Helvetica,sans-Serif" font-size="10.00"> random</text>
</g>
<!-- Node12&#45;&gt;Node5 -->
<g id="edge10" class="edge">
<title>Node12&#45;&gt;Node5</title>
<path fill="none" stroke="midnightblue" d="M491.35,-184.25C506.16,-182.26 522.19,-180.11 537.66,-178.03"/>
<polygon fill="midnightblue" stroke="midnightblue" points="490.76,-180.8 481.32,-185.6 491.69,-187.74 490.76,-180.8"/>
</g>
</g>
</svg>
