<?xml version="1.0" encoding="UTF-8" standalone="no"?>
<!DOCTYPE svg PUBLIC "-//W3C//DTD SVG 1.1//EN"
 "http://www.w3.org/Graphics/SVG/1.1/DTD/svg11.dtd">
<!-- Generated by graphviz version 2.43.0 (0)
 -->
<!-- Title: fiftyone.pipeline.engines.flowelements.OnPremiseAspectEngineBase&lt; TData extends AspectData, TProperty extends AspectPropertyMetaData &gt; Pages: 1 -->
<svg width="2558pt" height="601pt"
 viewBox="0.00 0.00 2558.00 600.50" xmlns="http://www.w3.org/2000/svg" xmlns:xlink="http://www.w3.org/1999/xlink">
<g id="graph0" class="graph" transform="scale(1 1) rotate(0) translate(4 596.5)">
<title>fiftyone.pipeline.engines.flowelements.OnPremiseAspectEngineBase&lt; TData extends AspectData, TProperty extends AspectPropertyMetaData &gt;</title>
<!-- Node19 -->
<g id="node1" class="node">
<title>Node19</title>
<g id="a_node1"><a xlink:title="Base class for on&#45;premise aspect engines.">
<polygon fill="#bfbfbf" stroke="black" points="2337,-363.5 2337,-415.5 2550,-415.5 2550,-363.5 2337,-363.5"/>
<text text-anchor="start" x="2345" y="-403.5" font-family="Helvetica,sans-Serif" font-size="10.00">fiftyone.pipeline.engines.flowelements.</text>
<text text-anchor="start" x="2345" y="-392.5" font-family="Helvetica,sans-Serif" font-size="10.00">OnPremiseAspectEngineBase&lt; TData</text>
<text text-anchor="start" x="2345" y="-381.5" font-family="Helvetica,sans-Serif" font-size="10.00"> extends AspectData, TProperty extends</text>
<text text-anchor="middle" x="2443.5" y="-370.5" font-family="Helvetica,sans-Serif" font-size="10.00"> AspectPropertyMetaData &gt;</text>
</a>
</g>
</g>
<!-- Node20 -->
<g id="node2" class="node">
<title>Node20</title>
<g id="a_node2"><a xlink:href="classfiftyone_1_1pipeline_1_1engines_1_1flowelements_1_1_aspect_engine_base.html" target="_top" xlink:title=" ">
<polygon fill="none" stroke="black" points="2088,-333.5 2088,-363.5 2300,-363.5 2300,-333.5 2088,-333.5"/>
<text text-anchor="start" x="2096" y="-351.5" font-family="Helvetica,sans-Serif" font-size="10.00">fiftyone.pipeline.engines.flowelements.</text>
<text text-anchor="middle" x="2194" y="-340.5" font-family="Helvetica,sans-Serif" font-size="10.00">AspectEngineBase&lt; TData, TProperty &gt;</text>
</a>
</g>
</g>
<!-- Node20&#45;&gt;Node19 -->
<g id="edge1" class="edge">
<title>Node20&#45;&gt;Node19</title>
<path fill="none" stroke="midnightblue" d="M2295.94,-365.22C2309.36,-367.44 2323.16,-369.73 2336.66,-371.97"/>
<polygon fill="midnightblue" stroke="midnightblue" points="2296.19,-361.72 2285.75,-363.53 2295.05,-368.62 2296.19,-361.72"/>
</g>
<!-- Node21 -->
<g id="node3" class="node">
<title>Node21</title>
<g id="a_node3"><a xlink:href="classfiftyone_1_1pipeline_1_1engines_1_1flowelements_1_1_aspect_engine_base.html" target="_top" xlink:title="Base class for AspectEngines to extend.">
<polygon fill="none" stroke="black" points="1695,-312.5 1695,-364.5 1943,-364.5 1943,-312.5 1695,-312.5"/>
<text text-anchor="start" x="1703" y="-352.5" font-family="Helvetica,sans-Serif" font-size="10.00">fiftyone.pipeline.engines.flowelements.</text>
<text text-anchor="start" x="1703" y="-341.5" font-family="Helvetica,sans-Serif" font-size="10.00">AspectEngineBase&lt; TData extends</text>
<text text-anchor="start" x="1703" y="-330.5" font-family="Helvetica,sans-Serif" font-size="10.00"> AspectData, TProperty extends AspectProperty</text>
<text text-anchor="middle" x="1819" y="-319.5" font-family="Helvetica,sans-Serif" font-size="10.00">MetaData &gt;</text>
</a>
</g>
</g>
<!-- Node21&#45;&gt;Node20 -->
<g id="edge2" class="edge">
<title>Node21&#45;&gt;Node20</title>
<path fill="none" stroke="orange" stroke-dasharray="5,2" d="M1953.4,-342.08C1997.55,-343.26 2046.03,-344.56 2087.77,-345.68"/>
<polygon fill="orange" stroke="orange" points="1953.26,-338.57 1943.17,-341.8 1953.07,-345.57 1953.26,-338.57"/>
<text text-anchor="middle" x="2015.5" y="-347.5" font-family="Helvetica,sans-Serif" font-size="10.00"> &lt; TData, TProperty &gt;</text>
</g>
<!-- Node22 -->
<g id="node4" class="node">
<title>Node22</title>
<g id="a_node4"><a xlink:href="classfiftyone_1_1pipeline_1_1core_1_1flowelements_1_1_flow_element_base.html" target="_top" xlink:title="Provides a base class from which authors may create new FlowElements.">
<polygon fill="none" stroke="black" points="1358.5,-236.5 1358.5,-288.5 1512.5,-288.5 1512.5,-236.5 1358.5,-236.5"/>
<text text-anchor="start" x="1366.5" y="-276.5" font-family="Helvetica,sans-Serif" font-size="10.00">fiftyone::pipeline</text>
<text text-anchor="start" x="1366.5" y="-265.5" font-family="Helvetica,sans-Serif" font-size="10.00">::core::flowelements</text>
<text text-anchor="start" x="1366.5" y="-254.5" font-family="Helvetica,sans-Serif" font-size="10.00">::FlowElementBase&lt; TData,</text>
<text text-anchor="middle" x="1435.5" y="-243.5" font-family="Helvetica,sans-Serif" font-size="10.00"> TProperty &gt;</text>
</a>
</g>
</g>
<!-- Node22&#45;&gt;Node21 -->
<g id="edge3" class="edge">
<title>Node22&#45;&gt;Node21</title>
<path fill="none" stroke="midnightblue" d="M1522.75,-279.68C1573.59,-289.81 1638.75,-302.79 1694.91,-313.98"/>
<polygon fill="midnightblue" stroke="midnightblue" points="1523.28,-276.22 1512.79,-277.7 1521.91,-283.08 1523.28,-276.22"/>
</g>
<!-- Node23 -->
<g id="node5" class="node">
<title>Node23</title>
<g id="a_node5"><a xlink:href="interfacefiftyone_1_1pipeline_1_1core_1_1flowelements_1_1_flow_element.html" target="_top" xlink:title=" ">
<polygon fill="none" stroke="black" points="968,-260.5 968,-290.5 1159,-290.5 1159,-260.5 968,-260.5"/>
<text text-anchor="start" x="976" y="-278.5" font-family="Helvetica,sans-Serif" font-size="10.00">fiftyone.pipeline.core.flowelements.</text>
<text text-anchor="middle" x="1063.5" y="-267.5" font-family="Helvetica,sans-Serif" font-size="10.00">FlowElement&lt; TData, TProperty &gt;</text>
</a>
</g>
</g>
<!-- Node23&#45;&gt;Node22 -->
<g id="edge4" class="edge">
<title>Node23&#45;&gt;Node22</title>
<path fill="none" stroke="midnightblue" d="M1169.59,-271.81C1229.71,-269.7 1303.76,-267.09 1358.28,-265.18"/>
<polygon fill="midnightblue" stroke="midnightblue" points="1169.17,-268.32 1159.3,-272.17 1169.42,-275.32 1169.17,-268.32"/>
</g>
<!-- Node24 -->
<g id="node6" class="node">
<title>Node24</title>
<g id="a_node6"><a xlink:href="interfacefiftyone_1_1pipeline_1_1core_1_1flowelements_1_1_flow_element.html" target="_top" xlink:title="A component that processes a FlowData (by examining its evidence, or by examining data processed by o...">
<polygon fill="none" stroke="black" points="543,-187 543,-228 796,-228 796,-187 543,-187"/>
<text text-anchor="start" x="551" y="-216" font-family="Helvetica,sans-Serif" font-size="10.00">fiftyone.pipeline.core.flowelements.</text>
<text text-anchor="start" x="551" y="-205" font-family="Helvetica,sans-Serif" font-size="10.00">FlowElement&lt; TData extends ElementData,</text>
<text text-anchor="middle" x="669.5" y="-194" font-family="Helvetica,sans-Serif" font-size="10.00"> TProperty extends ElementPropertyMetaData &gt;</text>
</a>
</g>
</g>
<!-- Node24&#45;&gt;Node23 -->
<g id="edge5" class="edge">
<title>Node24&#45;&gt;Node23</title>
<path fill="none" stroke="orange" stroke-dasharray="5,2" d="M798.88,-229.77C856.89,-239.83 923.91,-251.46 975.86,-260.47"/>
<polygon fill="orange" stroke="orange" points="799.36,-226.3 788.91,-228.04 798.17,-233.2 799.36,-226.3"/>
<text text-anchor="middle" x="868.5" y="-253.5" font-family="Helvetica,sans-Serif" font-size="10.00"> &lt; TData, TProperty &gt;</text>
</g>
<!-- Node25 -->
<g id="node7" class="node">
<title>Node25</title>
<g id="a_node7"><a xlink:title=" ">
<polygon fill="none" stroke="#bfbfbf" points="339,-225 339,-244 426,-244 426,-225 339,-225"/>
<text text-anchor="middle" x="382.5" y="-232" font-family="Helvetica,sans-Serif" font-size="10.00">AutoCloseable</text>
</a>
</g>
</g>
<!-- Node25&#45;&gt;Node24 -->
<g id="edge6" class="edge">
<title>Node25&#45;&gt;Node24</title>
<path fill="none" stroke="midnightblue" d="M436.43,-228.45C448.76,-227.09 461.83,-225.7 474,-224.5 496.26,-222.3 519.97,-220.1 542.91,-218.05"/>
<polygon fill="midnightblue" stroke="midnightblue" points="435.85,-224.99 426.29,-229.57 436.62,-231.95 435.85,-224.99"/>
</g>
<!-- Node34 -->
<g id="node16" class="node">
<title>Node34</title>
<g id="a_node16"><a xlink:href="interfacefiftyone_1_1pipeline_1_1core_1_1flowelements_1_1_flow_element.html" target="_top" xlink:title="A component that processes a FlowData (by examining its evidence, or by examining data processed by o...">
<polygon fill="none" stroke="black" points="604.5,-247.5 604.5,-299.5 734.5,-299.5 734.5,-247.5 604.5,-247.5"/>
<text text-anchor="start" x="612.5" y="-287.5" font-family="Helvetica,sans-Serif" font-size="10.00">fiftyone::pipeline</text>
<text text-anchor="start" x="612.5" y="-276.5" font-family="Helvetica,sans-Serif" font-size="10.00">::core::flowelements</text>
<text text-anchor="start" x="612.5" y="-265.5" font-family="Helvetica,sans-Serif" font-size="10.00">::FlowElement&lt; TData,</text>
<text text-anchor="middle" x="669.5" y="-254.5" font-family="Helvetica,sans-Serif" font-size="10.00"> TProperty &gt;</text>
</a>
</g>
</g>
<!-- Node25&#45;&gt;Node34 -->
<g id="edge18" class="edge">
<title>Node25&#45;&gt;Node34</title>
<path fill="none" stroke="midnightblue" d="M429.42,-246.43C443.63,-249.78 459.39,-253.14 474,-255.5 517.19,-262.48 566.24,-266.99 604.28,-269.76"/>
<polygon fill="midnightblue" stroke="midnightblue" points="429.93,-242.95 419.39,-244.01 428.29,-249.76 429.93,-242.95"/>
</g>
<!-- Node26 -->
<g id="node8" class="node">
<title>Node26</title>
<g id="a_node8"><a xlink:href="interfacefiftyone_1_1pipeline_1_1core_1_1data_1_1_element_data.html" target="_top" xlink:title="Represents property values that have be determined by a specific FlowElement based on the supplied ev...">
<polygon fill="none" stroke="black" points="309,-118.5 309,-148.5 456,-148.5 456,-118.5 309,-118.5"/>
<text text-anchor="start" x="317" y="-136.5" font-family="Helvetica,sans-Serif" font-size="10.00">fiftyone.pipeline.core.data.</text>
<text text-anchor="middle" x="382.5" y="-125.5" font-family="Helvetica,sans-Serif" font-size="10.00">ElementData</text>
</a>
</g>
</g>
<!-- Node26&#45;&gt;Node22 -->
<g id="edge13" class="edge">
<title>Node26&#45;&gt;Node22</title>
<path fill="none" stroke="orange" stroke-dasharray="5,2" d="M425.93,-114.54C457.5,-101.51 502.03,-85.37 543,-78.5 827.3,-30.86 906.89,-91.44 1186,-163.5 1243.05,-178.23 1258.24,-179.76 1313,-201.5 1338.23,-211.52 1365.31,-224.85 1387.49,-236.49"/>
<polygon fill="orange" stroke="orange" points="424.43,-111.37 416.57,-118.47 427.14,-117.82 424.43,-111.37"/>
<text text-anchor="middle" x="868.5" y="-92.5" font-family="Helvetica,sans-Serif" font-size="10.00"> TData</text>
</g>
<!-- Node26&#45;&gt;Node24 -->
<g id="edge7" class="edge">
<title>Node26&#45;&gt;Node24</title>
<path fill="none" stroke="orange" stroke-dasharray="5,2" d="M466.47,-132.74C486.7,-135.52 507.52,-141.1 525,-151.5 536.77,-158.5 531.66,-168.83 543,-176.5 548.86,-180.46 555.17,-183.91 561.75,-186.93"/>
<polygon fill="orange" stroke="orange" points="466.62,-129.24 456.29,-131.56 465.82,-136.19 466.62,-129.24"/>
<text text-anchor="middle" x="499.5" y="-154.5" font-family="Helvetica,sans-Serif" font-size="10.00"> TData</text>
</g>
<!-- Node26&#45;&gt;Node34 -->
<g id="edge19" class="edge">
<title>Node26&#45;&gt;Node34</title>
<path fill="none" stroke="orange" stroke-dasharray="5,2" d="M410.58,-154.8C441.19,-177.98 493.25,-214.77 543,-237.5 562.28,-246.31 584.21,-253.48 604.3,-259.05"/>
<polygon fill="orange" stroke="orange" points="412.6,-151.94 402.54,-148.65 408.35,-157.5 412.6,-151.94"/>
<text text-anchor="middle" x="499.5" y="-231.5" font-family="Helvetica,sans-Serif" font-size="10.00"> TData</text>
</g>
<!-- Node35 -->
<g id="node17" class="node">
<title>Node35</title>
<g id="a_node17"><a xlink:href="interfacefiftyone_1_1pipeline_1_1engines_1_1data_1_1_aspect_data.html" target="_top" xlink:title="Represents a specialized ElementData instance that is generated by an AspectEngine.">
<polygon fill="none" stroke="black" points="587.5,-137.5 587.5,-167.5 751.5,-167.5 751.5,-137.5 587.5,-137.5"/>
<text text-anchor="start" x="595.5" y="-155.5" font-family="Helvetica,sans-Serif" font-size="10.00">fiftyone.pipeline.engines.data.</text>
<text text-anchor="middle" x="669.5" y="-144.5" font-family="Helvetica,sans-Serif" font-size="10.00">AspectData</text>
</a>
</g>
</g>
<!-- Node26&#45;&gt;Node35 -->
<g id="edge22" class="edge">
<title>Node26&#45;&gt;Node35</title>
<path fill="none" stroke="midnightblue" d="M466.26,-131.6C468.87,-131.56 471.46,-131.53 474,-131.5 496.67,-131.25 502.39,-129.85 525,-131.5 545.22,-132.97 566.91,-135.59 587.15,-138.5"/>
<polygon fill="midnightblue" stroke="midnightblue" points="466.05,-128.1 456.11,-131.75 466.16,-135.1 466.05,-128.1"/>
</g>
<!-- Node27 -->
<g id="node9" class="node">
<title>Node27</title>
<g id="a_node9"><a xlink:href="interfacefiftyone_1_1pipeline_1_1core_1_1data_1_1_data.html" target="_top" xlink:title="Represents a collection of property values.">
<polygon fill="none" stroke="black" points="102,-124 102,-143 272,-143 272,-124 102,-124"/>
<text text-anchor="middle" x="187" y="-131" font-family="Helvetica,sans-Serif" font-size="10.00">fiftyone.pipeline.core.data.Data</text>
</a>
</g>
</g>
<!-- Node27&#45;&gt;Node26 -->
<g id="edge8" class="edge">
<title>Node27&#45;&gt;Node26</title>
<path fill="none" stroke="midnightblue" d="M282.11,-133.5C291.07,-133.5 300.06,-133.5 308.77,-133.5"/>
<polygon fill="midnightblue" stroke="midnightblue" points="282.03,-130 272.03,-133.5 282.03,-137 282.03,-130"/>
</g>
<!-- Node28 -->
<g id="node10" class="node">
<title>Node28</title>
<g id="a_node10"><a xlink:href="interfacefiftyone_1_1pipeline_1_1core_1_1data_1_1_element_property_meta_data.html" target="_top" xlink:title="Defines details of a property that can be returned by a FlowElement.">
<polygon fill="none" stroke="black" points="309,-300.5 309,-330.5 456,-330.5 456,-300.5 309,-300.5"/>
<text text-anchor="start" x="317" y="-318.5" font-family="Helvetica,sans-Serif" font-size="10.00">fiftyone.pipeline.core.data.</text>
<text text-anchor="middle" x="382.5" y="-307.5" font-family="Helvetica,sans-Serif" font-size="10.00">ElementPropertyMetaData</text>
</a>
</g>
</g>
<!-- Node28&#45;&gt;Node22 -->
<g id="edge14" class="edge">
<title>Node28&#45;&gt;Node22</title>
<path fill="none" stroke="orange" stroke-dasharray="5,2" d="M466.31,-316.81C612.03,-318.44 923.74,-319 1186,-299.5 1244.18,-295.18 1309.4,-285.27 1358.42,-276.8"/>
<polygon fill="orange" stroke="orange" points="466.15,-313.3 456.11,-316.69 466.06,-320.3 466.15,-313.3"/>
<text text-anchor="middle" x="868.5" y="-319.5" font-family="Helvetica,sans-Serif" font-size="10.00"> TProperty</text>
</g>
<!-- Node28&#45;&gt;Node24 -->
<g id="edge9" class="edge">
<title>Node28&#45;&gt;Node24</title>
<path fill="none" stroke="orange" stroke-dasharray="5,2" d="M418.68,-295.49C450.37,-278.16 498.64,-253.43 543,-237.5 552.59,-234.06 562.74,-230.89 572.94,-228.01"/>
<polygon fill="orange" stroke="orange" points="416.87,-292.49 409.81,-300.39 420.25,-298.62 416.87,-292.49"/>
<text text-anchor="middle" x="499.5" y="-269.5" font-family="Helvetica,sans-Serif" font-size="10.00"> TProperty</text>
</g>
<!-- Node28&#45;&gt;Node34 -->
<g id="edge20" class="edge">
<title>Node28&#45;&gt;Node34</title>
<path fill="none" stroke="orange" stroke-dasharray="5,2" d="M466.25,-303.31C510.2,-296.83 563.42,-288.99 604.23,-282.97"/>
<polygon fill="orange" stroke="orange" points="465.54,-299.87 456.15,-304.79 466.56,-306.8 465.54,-299.87"/>
<text text-anchor="middle" x="499.5" y="-305.5" font-family="Helvetica,sans-Serif" font-size="10.00"> TProperty</text>
</g>
<!-- Node36 -->
<g id="node18" class="node">
<title>Node36</title>
<g id="a_node18"><a xlink:href="interfacefiftyone_1_1pipeline_1_1engines_1_1data_1_1_aspect_property_meta_data.html" target="_top" xlink:title="Holds details about a property that can be returned by an AspectEngine.">
<polygon fill="none" stroke="black" points="587.5,-490.5 587.5,-520.5 751.5,-520.5 751.5,-490.5 587.5,-490.5"/>
<text text-anchor="start" x="595.5" y="-508.5" font-family="Helvetica,sans-Serif" font-size="10.00">fiftyone.pipeline.engines.data.</text>
<text text-anchor="middle" x="669.5" y="-497.5" font-family="Helvetica,sans-Serif" font-size="10.00">AspectPropertyMetaData</text>
</a>
</g>
</g>
<!-- Node28&#45;&gt;Node36 -->
<g id="edge24" class="edge">
<title>Node28&#45;&gt;Node36</title>
<path fill="none" stroke="midnightblue" d="M414.73,-336.32C472.63,-374.92 595.33,-456.72 645.95,-490.46"/>
<polygon fill="midnightblue" stroke="midnightblue" points="416.6,-333.36 406.34,-330.73 412.72,-339.19 416.6,-333.36"/>
</g>
<!-- Node29 -->
<g id="node11" class="node">
<title>Node29</title>
<g id="a_node11"><a xlink:href="interfacefiftyone_1_1pipeline_1_1core_1_1typed_1_1_typed_key.html" target="_top" xlink:title=" ">
<polygon fill="none" stroke="black" points="987,-211.5 987,-241.5 1140,-241.5 1140,-211.5 987,-211.5"/>
<text text-anchor="start" x="995" y="-229.5" font-family="Helvetica,sans-Serif" font-size="10.00">fiftyone.pipeline.core.typed.</text>
<text text-anchor="middle" x="1063.5" y="-218.5" font-family="Helvetica,sans-Serif" font-size="10.00">TypedKey&lt; TData &gt;</text>
</a>
</g>
</g>
<!-- Node29&#45;&gt;Node22 -->
<g id="edge10" class="edge">
<title>Node29&#45;&gt;Node22</title>
<path fill="none" stroke="#9a32cd" stroke-dasharray="5,2" d="M1150.55,-234.87C1213.38,-240.99 1297.77,-249.2 1358.2,-255.08"/>
<polygon fill="#9a32cd" stroke="#9a32cd" points="1150.56,-231.36 1140.27,-233.87 1149.88,-238.32 1150.56,-231.36"/>
<text text-anchor="middle" x="1258.5" y="-253.5" font-family="Helvetica,sans-Serif" font-size="10.00"> typedKey</text>
</g>
<!-- Node30 -->
<g id="node12" class="node">
<title>Node30</title>
<g id="a_node12"><a xlink:href="interfacefiftyone_1_1pipeline_1_1core_1_1typed_1_1_typed_key.html" target="_top" xlink:title="Holds a name and a type to allow for type safe operations on named values.">
<polygon fill="none" stroke="black" points="593,-88.5 593,-118.5 746,-118.5 746,-88.5 593,-88.5"/>
<text text-anchor="start" x="601" y="-106.5" font-family="Helvetica,sans-Serif" font-size="10.00">fiftyone.pipeline.core.typed.</text>
<text text-anchor="middle" x="669.5" y="-95.5" font-family="Helvetica,sans-Serif" font-size="10.00">TypedKey&lt; T &gt;</text>
</a>
</g>
</g>
<!-- Node30&#45;&gt;Node29 -->
<g id="edge11" class="edge">
<title>Node30&#45;&gt;Node29</title>
<path fill="none" stroke="orange" stroke-dasharray="5,2" d="M755.81,-117.68C769.35,-120.54 783.13,-123.82 796,-127.5 854.17,-144.14 875.11,-139.53 923,-176.5 933.84,-184.87 929.51,-194.06 941,-201.5 954.65,-210.34 970.81,-216.14 986.82,-219.93"/>
<polygon fill="orange" stroke="orange" points="756.51,-114.25 746.01,-115.67 755.1,-121.1 756.51,-114.25"/>
<text text-anchor="middle" x="868.5" y="-179.5" font-family="Helvetica,sans-Serif" font-size="10.00"> &lt; TData &gt;</text>
</g>
<!-- Node31 -->
<g id="node13" class="node">
<title>Node31</title>
<g id="a_node13"><a xlink:title=" ">
<polygon fill="none" stroke="#bfbfbf" points="1038.5,-173 1038.5,-192 1088.5,-192 1088.5,-173 1038.5,-173"/>
<text text-anchor="middle" x="1063.5" y="-180" font-family="Helvetica,sans-Serif" font-size="10.00">Logger</text>
</a>
</g>
</g>
<!-- Node31&#45;&gt;Node22 -->
<g id="edge12" class="edge">
<title>Node31&#45;&gt;Node22</title>
<path fill="none" stroke="#9a32cd" stroke-dasharray="5,2" d="M1098.92,-187.59C1123.27,-191.26 1156.68,-196.44 1186,-201.5 1242.61,-211.27 1257.22,-211.78 1313,-225.5 1327.77,-229.13 1343.41,-233.5 1358.37,-237.93"/>
<polygon fill="#9a32cd" stroke="#9a32cd" points="1099.15,-184.08 1088.74,-186.06 1098.11,-191 1099.15,-184.08"/>
<text text-anchor="middle" x="1258.5" y="-228.5" font-family="Helvetica,sans-Serif" font-size="10.00"> logger</text>
</g>
<!-- Node32 -->
<g id="node14" class="node">
<title>Node32</title>
<g id="a_node14"><a xlink:href="interfacefiftyone_1_1pipeline_1_1engines_1_1flowelements_1_1_aspect_engine.html" target="_top" xlink:title=" ">
<polygon fill="none" stroke="black" points="1331,-374.5 1331,-404.5 1540,-404.5 1540,-374.5 1331,-374.5"/>
<text text-anchor="start" x="1339" y="-392.5" font-family="Helvetica,sans-Serif" font-size="10.00">fiftyone.pipeline.engines.flowelements.</text>
<text text-anchor="middle" x="1435.5" y="-381.5" font-family="Helvetica,sans-Serif" font-size="10.00">AspectEngine&lt; TData, TProperty &gt;</text>
</a>
</g>
</g>
<!-- Node32&#45;&gt;Node21 -->
<g id="edge15" class="edge">
<title>Node32&#45;&gt;Node21</title>
<path fill="none" stroke="midnightblue" d="M1550.16,-374.31C1595.78,-368.21 1648.46,-361.16 1694.97,-354.95"/>
<polygon fill="midnightblue" stroke="midnightblue" points="1549.69,-370.84 1540.24,-375.63 1550.62,-377.78 1549.69,-370.84"/>
</g>
<!-- Node46 -->
<g id="node28" class="node">
<title>Node46</title>
<g id="a_node28"><a xlink:href="interfacefiftyone_1_1pipeline_1_1engines_1_1flowelements_1_1_on_premise_aspect_engine.html" target="_top" xlink:title="Aspect engine interface which processes data internally using a data file and populates the results.">
<polygon fill="none" stroke="black" points="1695,-398.5 1695,-450.5 1943,-450.5 1943,-398.5 1695,-398.5"/>
<text text-anchor="start" x="1703" y="-438.5" font-family="Helvetica,sans-Serif" font-size="10.00">fiftyone.pipeline.engines.flowelements.</text>
<text text-anchor="start" x="1703" y="-427.5" font-family="Helvetica,sans-Serif" font-size="10.00">OnPremiseAspectEngine&lt; TData extends</text>
<text text-anchor="start" x="1703" y="-416.5" font-family="Helvetica,sans-Serif" font-size="10.00"> AspectData, TProperty extends AspectProperty</text>
<text text-anchor="middle" x="1819" y="-405.5" font-family="Helvetica,sans-Serif" font-size="10.00">MetaData &gt;</text>
</a>
</g>
</g>
<!-- Node32&#45;&gt;Node46 -->
<g id="edge37" class="edge">
<title>Node32&#45;&gt;Node46</title>
<path fill="none" stroke="midnightblue" d="M1550.45,-399.95C1596,-404.13 1648.56,-408.95 1694.97,-413.21"/>
<polygon fill="midnightblue" stroke="midnightblue" points="1550.52,-396.45 1540.24,-399.02 1549.88,-403.42 1550.52,-396.45"/>
</g>
<!-- Node33 -->
<g id="node15" class="node">
<title>Node33</title>
<g id="a_node15"><a xlink:href="interfacefiftyone_1_1pipeline_1_1engines_1_1flowelements_1_1_aspect_engine.html" target="_top" xlink:title="AspectEngines are a subset of FlowElements.">
<polygon fill="none" stroke="black" points="941,-436 941,-477 1186,-477 1186,-436 941,-436"/>
<text text-anchor="start" x="949" y="-465" font-family="Helvetica,sans-Serif" font-size="10.00">fiftyone.pipeline.engines.flowelements.</text>
<text text-anchor="start" x="949" y="-454" font-family="Helvetica,sans-Serif" font-size="10.00">AspectEngine&lt; TData extends AspectData,</text>
<text text-anchor="middle" x="1063.5" y="-443" font-family="Helvetica,sans-Serif" font-size="10.00"> TProperty extends AspectPropertyMetaData &gt;</text>
</a>
</g>
</g>
<!-- Node33&#45;&gt;Node32 -->
<g id="edge16" class="edge">
<title>Node33&#45;&gt;Node32</title>
<path fill="none" stroke="orange" stroke-dasharray="5,2" d="M1196.3,-444.95C1234.19,-440.45 1275.43,-434.42 1313,-426.5 1339.54,-420.9 1368.62,-412.14 1391.68,-404.55"/>
<polygon fill="orange" stroke="orange" points="1195.75,-441.49 1186.22,-446.12 1196.56,-448.44 1195.75,-441.49"/>
<text text-anchor="middle" x="1258.5" y="-446.5" font-family="Helvetica,sans-Serif" font-size="10.00"> &lt; TData, TProperty &gt;</text>
</g>
<!-- Node34&#45;&gt;Node33 -->
<g id="edge17" class="edge">
<title>Node34&#45;&gt;Node33</title>
<path fill="none" stroke="midnightblue" d="M693.53,-308.22C718.7,-343.07 762.39,-395.26 814,-421.5 852.64,-441.15 898.79,-450.81 940.76,-455.28"/>
<polygon fill="midnightblue" stroke="midnightblue" points="696.17,-305.89 687.54,-299.75 690.46,-309.94 696.17,-305.89"/>
</g>
<!-- Node35&#45;&gt;Node19 -->
<g id="edge40" class="edge">
<title>Node35&#45;&gt;Node19</title>
<path fill="none" stroke="orange" stroke-dasharray="5,2" d="M761.72,-140.91C877,-127.28 1081.62,-106.5 1257.5,-106.5 1257.5,-106.5 1257.5,-106.5 2195,-106.5 2330.76,-106.5 2409.3,-293.32 2433.98,-363.38"/>
<polygon fill="orange" stroke="orange" points="761.05,-137.46 751.53,-142.12 761.87,-144.41 761.05,-137.46"/>
<text text-anchor="middle" x="1617.5" y="-109.5" font-family="Helvetica,sans-Serif" font-size="10.00"> TData</text>
</g>
<!-- Node35&#45;&gt;Node21 -->
<g id="edge33" class="edge">
<title>Node35&#45;&gt;Node21</title>
<path fill="none" stroke="orange" stroke-dasharray="5,2" d="M762.13,-148.8C922.99,-144.82 1265.17,-147.6 1540,-226.5 1619.65,-249.36 1707.78,-287.12 1763.02,-312.4"/>
<polygon fill="orange" stroke="orange" points="761.7,-145.31 751.8,-149.07 761.89,-152.31 761.7,-145.31"/>
<text text-anchor="middle" x="1258.5" y="-181.5" font-family="Helvetica,sans-Serif" font-size="10.00"> TData</text>
</g>
<!-- Node35&#45;&gt;Node33 -->
<g id="edge21" class="edge">
<title>Node35&#45;&gt;Node33</title>
<path fill="none" stroke="orange" stroke-dasharray="5,2" d="M761.91,-151.08C817.43,-155.51 884.75,-171.4 923,-218.5 970.89,-277.48 899.17,-325.07 941,-388.5 955.11,-409.89 978.36,-425.23 1000.77,-435.85"/>
<polygon fill="orange" stroke="orange" points="761.91,-147.57 751.69,-150.38 761.43,-154.55 761.91,-147.57"/>
<text text-anchor="middle" x="868.5" y="-221.5" font-family="Helvetica,sans-Serif" font-size="10.00"> TData</text>
</g>
<!-- Node35&#45;&gt;Node46 -->
<g id="edge38" class="edge">
<title>Node35&#45;&gt;Node46</title>
<path fill="none" stroke="orange" stroke-dasharray="5,2" d="M761.41,-156.38C774.5,-160.7 786.66,-167.38 796,-177.5 842.73,-228.14 773.25,-275.93 814,-331.5 850.58,-381.4 880.93,-373.68 941,-388.5 1101.83,-428.17 1148.42,-392.75 1313,-411.5 1321.06,-412.42 1322.93,-413.74 1331,-414.5 1431.47,-423.93 1457.11,-417.42 1558,-419.5 1602.69,-420.42 1651.69,-421.38 1695,-422.21"/>
<polygon fill="orange" stroke="orange" points="762.33,-153 751.75,-153.64 760.42,-159.73 762.33,-153"/>
<text text-anchor="middle" x="1258.5" y="-414.5" font-family="Helvetica,sans-Serif" font-size="10.00"> TData</text>
</g>
<!-- Node36&#45;&gt;Node19 -->
<g id="edge41" class="edge">
<title>Node36&#45;&gt;Node19</title>
<path fill="none" stroke="orange" stroke-dasharray="5,2" d="M726.79,-523.46C802.33,-545.93 941.09,-581.5 1062.5,-581.5 1062.5,-581.5 1062.5,-581.5 2195,-581.5 2301.86,-581.5 2390.49,-468.38 2425.92,-415.79"/>
<polygon fill="orange" stroke="orange" points="727.58,-520.04 717,-520.52 725.57,-526.75 727.58,-520.04"/>
<text text-anchor="middle" x="1617.5" y="-584.5" font-family="Helvetica,sans-Serif" font-size="10.00"> TProperty</text>
</g>
<!-- Node36&#45;&gt;Node21 -->
<g id="edge34" class="edge">
<title>Node36&#45;&gt;Node21</title>
<path fill="none" stroke="orange" stroke-dasharray="5,2" d="M761.71,-506.64C865,-506.88 1038.19,-504.13 1186,-486.5 1345.42,-467.48 1383.63,-450.92 1540,-414.5 1603.84,-399.63 1675.14,-380.08 1729.55,-364.53"/>
<polygon fill="orange" stroke="orange" points="761.63,-503.14 751.62,-506.6 761.61,-510.14 761.63,-503.14"/>
<text text-anchor="middle" x="1258.5" y="-486.5" font-family="Helvetica,sans-Serif" font-size="10.00"> TProperty</text>
</g>
<!-- Node36&#45;&gt;Node33 -->
<g id="edge23" class="edge">
<title>Node36&#45;&gt;Node33</title>
<path fill="none" stroke="orange" stroke-dasharray="5,2" d="M760.69,-488.71C778.33,-485.73 796.72,-482.84 814,-480.5 855.23,-474.93 900.49,-470.16 940.95,-466.37"/>
<polygon fill="orange" stroke="orange" points="759.67,-485.33 750.41,-490.47 760.85,-492.23 759.67,-485.33"/>
<text text-anchor="middle" x="868.5" y="-483.5" font-family="Helvetica,sans-Serif" font-size="10.00"> TProperty</text>
</g>
<!-- Node36&#45;&gt;Node46 -->
<g id="edge39" class="edge">
<title>Node36&#45;&gt;Node46</title>
<path fill="none" stroke="orange" stroke-dasharray="5,2" d="M761.72,-515.74C779.06,-517.31 797.07,-518.68 814,-519.5 1136.42,-535.19 1221.31,-549.83 1540,-498.5 1607.55,-487.62 1682.42,-467.19 1737.43,-450.55"/>
<polygon fill="orange" stroke="orange" points="761.88,-512.24 751.6,-514.8 761.23,-519.21 761.88,-512.24"/>
<text text-anchor="middle" x="1258.5" y="-536.5" font-family="Helvetica,sans-Serif" font-size="10.00"> TProperty</text>
</g>
<!-- Node37 -->
<g id="node19" class="node">
<title>Node37</title>
<g id="a_node19"><a xlink:href="interfacefiftyone_1_1pipeline_1_1engines_1_1caching_1_1_flow_cache.html" target="_top" xlink:title="Used to cache results from individual flow elements in the pipeline.">
<polygon fill="none" stroke="black" points="1345.5,-135.5 1345.5,-165.5 1525.5,-165.5 1525.5,-135.5 1345.5,-135.5"/>
<text text-anchor="start" x="1353.5" y="-153.5" font-family="Helvetica,sans-Serif" font-size="10.00">fiftyone.pipeline.engines.caching.</text>
<text text-anchor="middle" x="1435.5" y="-142.5" font-family="Helvetica,sans-Serif" font-size="10.00">FlowCache</text>
</a>
</g>
</g>
<!-- Node37&#45;&gt;Node21 -->
<g id="edge25" class="edge">
<title>Node37&#45;&gt;Node21</title>
<path fill="none" stroke="#9a32cd" stroke-dasharray="5,2" d="M1535.74,-141.31C1581.08,-141.27 1634.11,-147.33 1677,-169.5 1738.78,-201.44 1783.98,-273.38 1804.95,-312.31"/>
<polygon fill="#9a32cd" stroke="#9a32cd" points="1535.55,-137.81 1525.59,-141.42 1535.62,-144.81 1535.55,-137.81"/>
<text text-anchor="middle" x="1617.5" y="-172.5" font-family="Helvetica,sans-Serif" font-size="10.00"> cache</text>
</g>
<!-- Node38 -->
<g id="node20" class="node">
<title>Node38</title>
<g id="a_node20"><a xlink:href="interfacefiftyone_1_1pipeline_1_1engines_1_1caching_1_1_data_keyed_cache.html" target="_top" xlink:title=" ">
<polygon fill="none" stroke="black" points="970.5,-4.5 970.5,-34.5 1156.5,-34.5 1156.5,-4.5 970.5,-4.5"/>
<text text-anchor="start" x="978.5" y="-22.5" font-family="Helvetica,sans-Serif" font-size="10.00">fiftyone.pipeline.engines.caching.</text>
<text text-anchor="middle" x="1063.5" y="-11.5" font-family="Helvetica,sans-Serif" font-size="10.00">DataKeyedCache&lt; ElementData &gt;</text>
</a>
</g>
</g>
<!-- Node38&#45;&gt;Node37 -->
<g id="edge26" class="edge">
<title>Node38&#45;&gt;Node37</title>
<path fill="none" stroke="midnightblue" d="M1142.73,-37.05C1157.22,-40.8 1172.15,-45 1186,-49.5 1265.06,-75.18 1354.68,-114.15 1401.7,-135.4"/>
<polygon fill="midnightblue" stroke="midnightblue" points="1143.34,-33.6 1132.79,-34.53 1141.62,-40.38 1143.34,-33.6"/>
</g>
<!-- Node39 -->
<g id="node21" class="node">
<title>Node39</title>
<g id="a_node21"><a xlink:href="interfacefiftyone_1_1pipeline_1_1engines_1_1caching_1_1_data_keyed_cache.html" target="_top" xlink:title="Represents a put cache where the key is a FlowData instance.">
<polygon fill="none" stroke="black" points="579.5,-0.5 579.5,-30.5 759.5,-30.5 759.5,-0.5 579.5,-0.5"/>
<text text-anchor="start" x="587.5" y="-18.5" font-family="Helvetica,sans-Serif" font-size="10.00">fiftyone.pipeline.engines.caching.</text>
<text text-anchor="middle" x="669.5" y="-7.5" font-family="Helvetica,sans-Serif" font-size="10.00">DataKeyedCache&lt; V &gt;</text>
</a>
</g>
</g>
<!-- Node39&#45;&gt;Node38 -->
<g id="edge27" class="edge">
<title>Node39&#45;&gt;Node38</title>
<path fill="none" stroke="orange" stroke-dasharray="5,2" d="M770.07,-16.52C831.67,-17.14 910.21,-17.95 970.38,-18.56"/>
<polygon fill="orange" stroke="orange" points="769.98,-13.01 759.94,-16.41 769.91,-20.01 769.98,-13.01"/>
<text text-anchor="middle" x="868.5" y="-21.5" font-family="Helvetica,sans-Serif" font-size="10.00"> &lt; ElementData &gt;</text>
</g>
<!-- Node40 -->
<g id="node22" class="node">
<title>Node40</title>
<g id="a_node22"><a xlink:href="interfacefiftyone_1_1caching_1_1_put_cache.html" target="_top" xlink:title="A cache that supports a thread safe put method for inserting to cache.">
<polygon fill="none" stroke="black" points="310.5,-0.5 310.5,-30.5 454.5,-30.5 454.5,-0.5 310.5,-0.5"/>
<text text-anchor="start" x="318.5" y="-18.5" font-family="Helvetica,sans-Serif" font-size="10.00">fiftyone::caching::</text>
<text text-anchor="middle" x="382.5" y="-7.5" font-family="Helvetica,sans-Serif" font-size="10.00">PutCache&lt; FlowData, V &gt;</text>
</a>
</g>
</g>
<!-- Node40&#45;&gt;Node39 -->
<g id="edge28" class="edge">
<title>Node40&#45;&gt;Node39</title>
<path fill="none" stroke="midnightblue" d="M465.07,-15.5C500.79,-15.5 542.8,-15.5 579.35,-15.5"/>
<polygon fill="midnightblue" stroke="midnightblue" points="464.68,-12 454.68,-15.5 464.68,-19 464.68,-12"/>
</g>
<!-- Node41 -->
<g id="node23" class="node">
<title>Node41</title>
<g id="a_node23"><a xlink:href="interfacefiftyone_1_1caching_1_1_cache.html" target="_top" xlink:title="Base cache interface which declares only the get method and the types of key and value stored in the ...">
<polygon fill="none" stroke="black" points="135.5,-0.5 135.5,-30.5 238.5,-30.5 238.5,-0.5 135.5,-0.5"/>
<text text-anchor="start" x="143.5" y="-18.5" font-family="Helvetica,sans-Serif" font-size="10.00">fiftyone::caching::</text>
<text text-anchor="middle" x="187" y="-7.5" font-family="Helvetica,sans-Serif" font-size="10.00">Cache&lt; K, V &gt;</text>
</a>
</g>
</g>
<!-- Node41&#45;&gt;Node40 -->
<g id="edge29" class="edge">
<title>Node41&#45;&gt;Node40</title>
<path fill="none" stroke="midnightblue" d="M248.61,-15.5C268.23,-15.5 290.16,-15.5 310.46,-15.5"/>
<polygon fill="midnightblue" stroke="midnightblue" points="248.59,-12 238.59,-15.5 248.59,-19 248.59,-12"/>
</g>
<!-- Node42 -->
<g id="node24" class="node">
<title>Node42</title>
<g id="a_node24"><a xlink:title=" ">
<polygon fill="none" stroke="#bfbfbf" points="0,-6 0,-25 65,-25 65,-6 0,-6"/>
<text text-anchor="middle" x="32.5" y="-13" font-family="Helvetica,sans-Serif" font-size="10.00">Closeable</text>
</a>
</g>
</g>
<!-- Node42&#45;&gt;Node41 -->
<g id="edge30" class="edge">
<title>Node42&#45;&gt;Node41</title>
<path fill="none" stroke="midnightblue" d="M75.28,-15.5C93.81,-15.5 115.77,-15.5 135.23,-15.5"/>
<polygon fill="midnightblue" stroke="midnightblue" points="75.1,-12 65.1,-15.5 75.1,-19 75.1,-12"/>
</g>
<!-- Node43 -->
<g id="node25" class="node">
<title>Node43</title>
<g id="a_node25"><a xlink:href="interfacefiftyone_1_1pipeline_1_1engines_1_1services_1_1_missing_property_service.html" target="_top" xlink:title="Service used by AspectEngines to report the reason for a property not being present in the results.">
<polygon fill="none" stroke="black" points="1344,-324.5 1344,-354.5 1527,-354.5 1527,-324.5 1344,-324.5"/>
<text text-anchor="start" x="1352" y="-342.5" font-family="Helvetica,sans-Serif" font-size="10.00">fiftyone.pipeline.engines.services.</text>
<text text-anchor="middle" x="1435.5" y="-331.5" font-family="Helvetica,sans-Serif" font-size="10.00">MissingPropertyService</text>
</a>
</g>
</g>
<!-- Node43&#45;&gt;Node21 -->
<g id="edge31" class="edge">
<title>Node43&#45;&gt;Node21</title>
<path fill="none" stroke="#9a32cd" stroke-dasharray="5,2" d="M1537.55,-339.24C1585.86,-339.11 1644.11,-338.96 1694.98,-338.82"/>
<polygon fill="#9a32cd" stroke="#9a32cd" points="1537.38,-335.74 1527.39,-339.26 1537.4,-342.74 1537.38,-335.74"/>
<text text-anchor="middle" x="1617.5" y="-341.5" font-family="Helvetica,sans-Serif" font-size="10.00"> missingPropertyService</text>
</g>
<!-- Node44 -->
<g id="node26" class="node">
<title>Node44</title>
<g id="a_node26"><a xlink:href="interfacefiftyone_1_1pipeline_1_1core_1_1services_1_1_pipeline_service.html" target="_top" xlink:title="Service interface used by PipelineBuilder to hand out services to elements which required them.">
<polygon fill="none" stroke="black" points="980.5,-348.5 980.5,-378.5 1146.5,-378.5 1146.5,-348.5 980.5,-348.5"/>
<text text-anchor="start" x="988.5" y="-366.5" font-family="Helvetica,sans-Serif" font-size="10.00">fiftyone.pipeline.core.services.</text>
<text text-anchor="middle" x="1063.5" y="-355.5" font-family="Helvetica,sans-Serif" font-size="10.00">PipelineService</text>
</a>
</g>
</g>
<!-- Node44&#45;&gt;Node43 -->
<g id="edge32" class="edge">
<title>Node44&#45;&gt;Node43</title>
<path fill="none" stroke="midnightblue" d="M1156.73,-357.52C1213.89,-353.81 1287,-349.07 1343.86,-345.38"/>
<polygon fill="midnightblue" stroke="midnightblue" points="1156.37,-354.03 1146.61,-358.17 1156.82,-361.02 1156.37,-354.03"/>
</g>
<!-- Node45 -->
<g id="node27" class="node">
<title>Node45</title>
<g id="a_node27"><a xlink:href="interfacefiftyone_1_1pipeline_1_1engines_1_1flowelements_1_1_on_premise_aspect_engine.html" target="_top" xlink:title=" ">
<polygon fill="none" stroke="black" points="2089.5,-392 2089.5,-433 2298.5,-433 2298.5,-392 2089.5,-392"/>
<text text-anchor="start" x="2097.5" y="-421" font-family="Helvetica,sans-Serif" font-size="10.00">fiftyone.pipeline.engines.flowelements.</text>
<text text-anchor="start" x="2097.5" y="-410" font-family="Helvetica,sans-Serif" font-size="10.00">OnPremiseAspectEngine&lt; TData,</text>
<text text-anchor="middle" x="2194" y="-399" font-family="Helvetica,sans-Serif" font-size="10.00"> TProperty &gt;</text>
</a>
</g>
</g>
<!-- Node45&#45;&gt;Node19 -->
<g id="edge35" class="edge">
<title>Node45&#45;&gt;Node19</title>
<path fill="none" stroke="midnightblue" d="M2308.71,-401.93C2318.14,-401.06 2327.64,-400.17 2337,-399.3"/>
<polygon fill="midnightblue" stroke="midnightblue" points="2308.16,-398.47 2298.53,-402.88 2308.81,-405.44 2308.16,-398.47"/>
</g>
<!-- Node46&#45;&gt;Node45 -->
<g id="edge36" class="edge">
<title>Node46&#45;&gt;Node45</title>
<path fill="none" stroke="orange" stroke-dasharray="5,2" d="M1953.24,-420.21C1997.97,-418.77 2047.17,-417.19 2089.29,-415.84"/>
<polygon fill="orange" stroke="orange" points="1953.05,-416.72 1943.17,-420.54 1953.28,-423.71 1953.05,-416.72"/>
<text text-anchor="middle" x="2015.5" y="-422.5" font-family="Helvetica,sans-Serif" font-size="10.00"> &lt; TData, TProperty &gt;</text>
</g>
</g>
</svg>
