<?xml version="1.0" encoding="UTF-8" standalone="no"?>
<!DOCTYPE svg PUBLIC "-//W3C//DTD SVG 1.1//EN"
 "http://www.w3.org/Graphics/SVG/1.1/DTD/svg11.dtd">
<!-- Generated by graphviz version 2.43.0 (0)
 -->
<!-- Title: fiftyone.pipeline.engines.fiftyone.data.FiftyOneDataFileDefault Pages: 1 -->
<svg width="753pt" height="88pt"
 viewBox="0.00 0.00 753.00 88.00" xmlns="http://www.w3.org/2000/svg" xmlns:xlink="http://www.w3.org/1999/xlink">
<g id="graph0" class="graph" transform="scale(1 1) rotate(0) translate(4 84)">
<title>fiftyone.pipeline.engines.fiftyone.data.FiftyOneDataFileDefault</title>
<!-- Node5 -->
<g id="node1" class="node">
<title>Node5</title>
<g id="a_node1"><a xlink:title="Default implementation of the FiftyOneDataFile interface.">
<polygon fill="#bfbfbf" stroke="black" points="541,-24.5 541,-54.5 745,-54.5 745,-24.5 541,-24.5"/>
<text text-anchor="start" x="549" y="-42.5" font-family="Helvetica,sans-Serif" font-size="10.00">fiftyone.pipeline.engines.fiftyone.data.</text>
<text text-anchor="middle" x="643" y="-31.5" font-family="Helvetica,sans-Serif" font-size="10.00">FiftyOneDataFileDefault</text>
</a>
</g>
</g>
<!-- Node6 -->
<g id="node2" class="node">
<title>Node6</title>
<g id="a_node2"><a xlink:href="classfiftyone_1_1pipeline_1_1engines_1_1data_1_1_aspect_engine_data_file_default.html" target="_top" xlink:title="Default implementation of the AspectEngineDataFile interface.">
<polygon fill="none" stroke="black" points="321,-49.5 321,-79.5 485,-79.5 485,-49.5 321,-49.5"/>
<text text-anchor="start" x="329" y="-67.5" font-family="Helvetica,sans-Serif" font-size="10.00">fiftyone.pipeline.engines.data.</text>
<text text-anchor="middle" x="403" y="-56.5" font-family="Helvetica,sans-Serif" font-size="10.00">AspectEngineDataFileDefault</text>
</a>
</g>
</g>
<!-- Node6&#45;&gt;Node5 -->
<g id="edge1" class="edge">
<title>Node6&#45;&gt;Node5</title>
<path fill="none" stroke="midnightblue" d="M495.44,-54.9C510.32,-53.33 525.82,-51.7 540.92,-50.12"/>
<polygon fill="midnightblue" stroke="midnightblue" points="494.82,-51.44 485.24,-55.97 495.55,-58.4 494.82,-51.44"/>
</g>
<!-- Node7 -->
<g id="node3" class="node">
<title>Node7</title>
<g id="a_node3"><a xlink:href="interfacefiftyone_1_1pipeline_1_1engines_1_1data_1_1_aspect_engine_data_file.html" target="_top" xlink:title="Interface for the details of a data file used by an Aspect engine.">
<polygon fill="none" stroke="black" points="101,-24.5 101,-54.5 265,-54.5 265,-24.5 101,-24.5"/>
<text text-anchor="start" x="109" y="-42.5" font-family="Helvetica,sans-Serif" font-size="10.00">fiftyone.pipeline.engines.data.</text>
<text text-anchor="middle" x="183" y="-31.5" font-family="Helvetica,sans-Serif" font-size="10.00">AspectEngineDataFile</text>
</a>
</g>
</g>
<!-- Node7&#45;&gt;Node6 -->
<g id="edge2" class="edge">
<title>Node7&#45;&gt;Node6</title>
<path fill="none" stroke="midnightblue" d="M275.49,-49.99C290.52,-51.72 306,-53.49 320.76,-55.18"/>
<polygon fill="midnightblue" stroke="midnightblue" points="275.51,-46.47 265.18,-48.81 274.71,-53.43 275.51,-46.47"/>
</g>
<!-- Node9 -->
<g id="node5" class="node">
<title>Node9</title>
<g id="a_node5"><a xlink:href="interfacefiftyone_1_1pipeline_1_1engines_1_1fiftyone_1_1data_1_1_fifty_one_data_file.html" target="_top" xlink:title="51Degrees specific data file.">
<polygon fill="none" stroke="black" points="301,-0.5 301,-30.5 505,-30.5 505,-0.5 301,-0.5"/>
<text text-anchor="start" x="309" y="-18.5" font-family="Helvetica,sans-Serif" font-size="10.00">fiftyone.pipeline.engines.fiftyone.data.</text>
<text text-anchor="middle" x="403" y="-7.5" font-family="Helvetica,sans-Serif" font-size="10.00">FiftyOneDataFile</text>
</a>
</g>
</g>
<!-- Node7&#45;&gt;Node9 -->
<g id="edge5" class="edge">
<title>Node7&#45;&gt;Node9</title>
<path fill="none" stroke="midnightblue" d="M275.35,-29.44C283.77,-28.52 292.32,-27.57 300.82,-26.64"/>
<polygon fill="midnightblue" stroke="midnightblue" points="274.73,-25.99 265.18,-30.56 275.5,-32.95 274.73,-25.99"/>
</g>
<!-- Node8 -->
<g id="node4" class="node">
<title>Node8</title>
<g id="a_node4"><a xlink:title=" ">
<polygon fill="none" stroke="#bfbfbf" points="0,-30 0,-49 65,-49 65,-30 0,-30"/>
<text text-anchor="middle" x="32.5" y="-37" font-family="Helvetica,sans-Serif" font-size="10.00">Closeable</text>
</a>
</g>
</g>
<!-- Node8&#45;&gt;Node7 -->
<g id="edge3" class="edge">
<title>Node8&#45;&gt;Node7</title>
<path fill="none" stroke="midnightblue" d="M75.46,-39.5C83.44,-39.5 92.04,-39.5 100.77,-39.5"/>
<polygon fill="midnightblue" stroke="midnightblue" points="75.36,-36 65.36,-39.5 75.36,-43 75.36,-36"/>
</g>
<!-- Node9&#45;&gt;Node5 -->
<g id="edge4" class="edge">
<title>Node9&#45;&gt;Node5</title>
<path fill="none" stroke="midnightblue" d="M515.25,-26.72C523.78,-27.58 532.36,-28.44 540.81,-29.3"/>
<polygon fill="midnightblue" stroke="midnightblue" points="515.58,-23.23 505.28,-25.71 514.88,-30.2 515.58,-23.23"/>
</g>
</g>
</svg>
