<?xml version="1.0" encoding="UTF-8" standalone="no"?>
<!DOCTYPE svg PUBLIC "-//W3C//DTD SVG 1.1//EN"
 "http://www.w3.org/Graphics/SVG/1.1/DTD/svg11.dtd">
<!-- Generated by graphviz version 2.43.0 (0)
 -->
<!-- Title: fiftyone.pipeline.javascriptbuilder.data.JavaScriptBuilderData Pages: 1 -->
<svg width="259pt" height="229pt"
 viewBox="0.00 0.00 259.00 229.00" xmlns="http://www.w3.org/2000/svg" xmlns:xlink="http://www.w3.org/1999/xlink">
<g id="graph0" class="graph" transform="scale(1 1) rotate(0) translate(4 225)">
<title>fiftyone.pipeline.javascriptbuilder.data.JavaScriptBuilderData</title>
<!-- Node0 -->
<g id="node1" class="node">
<title>Node0</title>
<g id="a_node1"><a xlink:title="Data containing the result of a JavaScriptBuilderElements processing.">
<polygon fill="#bfbfbf" stroke="black" points="22,-67.5 22,-97.5 229,-97.5 229,-67.5 22,-67.5"/>
<text text-anchor="start" x="30" y="-85.5" font-family="Helvetica,sans-Serif" font-size="10.00">fiftyone.pipeline.javascriptbuilder.data.</text>
<text text-anchor="middle" x="125.5" y="-74.5" font-family="Helvetica,sans-Serif" font-size="10.00">JavaScriptBuilderData</text>
</a>
</g>
</g>
<!-- Node3 -->
<g id="node4" class="node">
<title>Node3</title>
<g id="a_node4"><a xlink:href="classfiftyone_1_1pipeline_1_1javascriptbuilder_1_1flowelements_1_1_java_script_builder_data_internal.html" target="_top" xlink:title="[class]">
<polygon fill="none" stroke="black" points="0,-0.5 0,-30.5 251,-30.5 251,-0.5 0,-0.5"/>
<text text-anchor="start" x="8" y="-18.5" font-family="Helvetica,sans-Serif" font-size="10.00">fiftyone.pipeline.javascriptbuilder.flowelements.</text>
<text text-anchor="middle" x="125.5" y="-7.5" font-family="Helvetica,sans-Serif" font-size="10.00">JavaScriptBuilderDataInternal</text>
</a>
</g>
</g>
<!-- Node0&#45;&gt;Node3 -->
<g id="edge3" class="edge">
<title>Node0&#45;&gt;Node3</title>
<path fill="none" stroke="midnightblue" d="M125.5,-57.11C125.5,-48.15 125.5,-38.32 125.5,-30.58"/>
<polygon fill="midnightblue" stroke="midnightblue" points="122,-57.4 125.5,-67.4 129,-57.4 122,-57.4"/>
</g>
<!-- Node1 -->
<g id="node2" class="node">
<title>Node1</title>
<g id="a_node2"><a xlink:href="interfacefiftyone_1_1pipeline_1_1core_1_1data_1_1_element_data.html" target="_top" xlink:title="Represents property values that have be determined by a specific FlowElement based on the supplied ev...">
<polygon fill="none" stroke="black" points="52,-134.5 52,-164.5 199,-164.5 199,-134.5 52,-134.5"/>
<text text-anchor="start" x="60" y="-152.5" font-family="Helvetica,sans-Serif" font-size="10.00">fiftyone.pipeline.core.data.</text>
<text text-anchor="middle" x="125.5" y="-141.5" font-family="Helvetica,sans-Serif" font-size="10.00">ElementData</text>
</a>
</g>
</g>
<!-- Node1&#45;&gt;Node0 -->
<g id="edge1" class="edge">
<title>Node1&#45;&gt;Node0</title>
<path fill="none" stroke="midnightblue" d="M125.5,-124.11C125.5,-115.15 125.5,-105.32 125.5,-97.58"/>
<polygon fill="midnightblue" stroke="midnightblue" points="122,-124.4 125.5,-134.4 129,-124.4 122,-124.4"/>
</g>
<!-- Node2 -->
<g id="node3" class="node">
<title>Node2</title>
<g id="a_node3"><a xlink:href="interfacefiftyone_1_1pipeline_1_1core_1_1data_1_1_data.html" target="_top" xlink:title="Represents a collection of property values.">
<polygon fill="none" stroke="black" points="40.5,-201.5 40.5,-220.5 210.5,-220.5 210.5,-201.5 40.5,-201.5"/>
<text text-anchor="middle" x="125.5" y="-208.5" font-family="Helvetica,sans-Serif" font-size="10.00">fiftyone.pipeline.core.data.Data</text>
</a>
</g>
</g>
<!-- Node2&#45;&gt;Node1 -->
<g id="edge2" class="edge">
<title>Node2&#45;&gt;Node1</title>
<path fill="none" stroke="midnightblue" d="M125.5,-191.23C125.5,-182.59 125.5,-172.5 125.5,-164.52"/>
<polygon fill="midnightblue" stroke="midnightblue" points="122,-191.48 125.5,-201.48 129,-191.48 122,-191.48"/>
</g>
</g>
</svg>
