<?xml version="1.0" encoding="UTF-8" standalone="no"?>
<!DOCTYPE svg PUBLIC "-//W3C//DTD SVG 1.1//EN"
 "http://www.w3.org/Graphics/SVG/1.1/DTD/svg11.dtd">
<!-- Generated by graphviz version 2.43.0 (0)
 -->
<!-- Title: fiftyone.pipeline.engines.flowelements.AspectEngine&lt; TData extends AspectData, TProperty extends AspectPropertyMetaData &gt; Pages: 1 -->
<svg width="945pt" height="159pt"
 viewBox="0.00 0.00 945.00 159.00" xmlns="http://www.w3.org/2000/svg" xmlns:xlink="http://www.w3.org/1999/xlink">
<g id="graph0" class="graph" transform="scale(1 1) rotate(0) translate(4 155)">
<title>fiftyone.pipeline.engines.flowelements.AspectEngine&lt; TData extends AspectData, TProperty extends AspectPropertyMetaData &gt;</title>
<!-- Node32 -->
<g id="node1" class="node">
<title>Node32</title>
<g id="a_node1"><a xlink:title="AspectEngines are a subset of FlowElements.">
<polygon fill="#bfbfbf" stroke="black" points="692,-55 692,-96 937,-96 937,-55 692,-55"/>
<text text-anchor="start" x="700" y="-84" font-family="Helvetica,sans-Serif" font-size="10.00">fiftyone.pipeline.engines.flowelements.</text>
<text text-anchor="start" x="700" y="-73" font-family="Helvetica,sans-Serif" font-size="10.00">AspectEngine&lt; TData extends AspectData,</text>
<text text-anchor="middle" x="814.5" y="-62" font-family="Helvetica,sans-Serif" font-size="10.00"> TProperty extends AspectPropertyMetaData &gt;</text>
</a>
</g>
</g>
<!-- Node33 -->
<g id="node2" class="node">
<title>Node33</title>
<g id="a_node2"><a xlink:href="interfacefiftyone_1_1pipeline_1_1core_1_1flowelements_1_1_flow_element.html" target="_top" xlink:title="A component that processes a FlowData (by examining its evidence, or by examining data processed by o...">
<polygon fill="none" stroke="black" points="458,-49.5 458,-101.5 588,-101.5 588,-49.5 458,-49.5"/>
<text text-anchor="start" x="466" y="-89.5" font-family="Helvetica,sans-Serif" font-size="10.00">fiftyone::pipeline</text>
<text text-anchor="start" x="466" y="-78.5" font-family="Helvetica,sans-Serif" font-size="10.00">::core::flowelements</text>
<text text-anchor="start" x="466" y="-67.5" font-family="Helvetica,sans-Serif" font-size="10.00">::FlowElement&lt; TData,</text>
<text text-anchor="middle" x="523" y="-56.5" font-family="Helvetica,sans-Serif" font-size="10.00"> TProperty &gt;</text>
</a>
</g>
</g>
<!-- Node33&#45;&gt;Node32 -->
<g id="edge1" class="edge">
<title>Node33&#45;&gt;Node32</title>
<path fill="none" stroke="midnightblue" d="M598.49,-75.5C626.91,-75.5 660.09,-75.5 691.77,-75.5"/>
<polygon fill="midnightblue" stroke="midnightblue" points="598.25,-72 588.25,-75.5 598.25,-79 598.25,-72"/>
</g>
<!-- Node34 -->
<g id="node3" class="node">
<title>Node34</title>
<g id="a_node3"><a xlink:title=" ">
<polygon fill="none" stroke="#bfbfbf" points="237,-66 237,-85 324,-85 324,-66 237,-66"/>
<text text-anchor="middle" x="280.5" y="-73" font-family="Helvetica,sans-Serif" font-size="10.00">AutoCloseable</text>
</a>
</g>
</g>
<!-- Node34&#45;&gt;Node33 -->
<g id="edge2" class="edge">
<title>Node34&#45;&gt;Node33</title>
<path fill="none" stroke="midnightblue" d="M334.62,-75.5C371,-75.5 419.44,-75.5 457.96,-75.5"/>
<polygon fill="midnightblue" stroke="midnightblue" points="334.22,-72 324.22,-75.5 334.22,-79 334.22,-72"/>
</g>
<!-- Node35 -->
<g id="node4" class="node">
<title>Node35</title>
<g id="a_node4"><a xlink:href="interfacefiftyone_1_1pipeline_1_1core_1_1data_1_1_element_data.html" target="_top" xlink:title="Represents property values that have be determined by a specific FlowElement based on the supplied ev...">
<polygon fill="none" stroke="black" points="207,-112.5 207,-142.5 354,-142.5 354,-112.5 207,-112.5"/>
<text text-anchor="start" x="215" y="-130.5" font-family="Helvetica,sans-Serif" font-size="10.00">fiftyone.pipeline.core.data.</text>
<text text-anchor="middle" x="280.5" y="-119.5" font-family="Helvetica,sans-Serif" font-size="10.00">ElementData</text>
</a>
</g>
</g>
<!-- Node35&#45;&gt;Node33 -->
<g id="edge3" class="edge">
<title>Node35&#45;&gt;Node33</title>
<path fill="none" stroke="orange" stroke-dasharray="5,2" d="M361.11,-110.29C392.56,-103.49 428.21,-95.78 457.94,-89.35"/>
<polygon fill="orange" stroke="orange" points="360.1,-106.93 351.06,-112.46 361.58,-113.77 360.1,-106.93"/>
<text text-anchor="middle" x="397.5" y="-110.5" font-family="Helvetica,sans-Serif" font-size="10.00"> TData</text>
</g>
<!-- Node38 -->
<g id="node7" class="node">
<title>Node38</title>
<g id="a_node7"><a xlink:href="interfacefiftyone_1_1pipeline_1_1engines_1_1data_1_1_aspect_data.html" target="_top" xlink:title="Represents a specialized ElementData instance that is generated by an AspectEngine.">
<polygon fill="none" stroke="black" points="441,-120.5 441,-150.5 605,-150.5 605,-120.5 441,-120.5"/>
<text text-anchor="start" x="449" y="-138.5" font-family="Helvetica,sans-Serif" font-size="10.00">fiftyone.pipeline.engines.data.</text>
<text text-anchor="middle" x="523" y="-127.5" font-family="Helvetica,sans-Serif" font-size="10.00">AspectData</text>
</a>
</g>
</g>
<!-- Node35&#45;&gt;Node38 -->
<g id="edge7" class="edge">
<title>Node35&#45;&gt;Node38</title>
<path fill="none" stroke="midnightblue" d="M364.36,-130.26C389.03,-131.08 416.03,-131.98 440.61,-132.79"/>
<polygon fill="midnightblue" stroke="midnightblue" points="364.42,-126.76 354.31,-129.92 364.19,-133.75 364.42,-126.76"/>
</g>
<!-- Node36 -->
<g id="node5" class="node">
<title>Node36</title>
<g id="a_node5"><a xlink:href="interfacefiftyone_1_1pipeline_1_1core_1_1data_1_1_data.html" target="_top" xlink:title="Represents a collection of property values.">
<polygon fill="none" stroke="black" points="0,-118 0,-137 170,-137 170,-118 0,-118"/>
<text text-anchor="middle" x="85" y="-125" font-family="Helvetica,sans-Serif" font-size="10.00">fiftyone.pipeline.core.data.Data</text>
</a>
</g>
</g>
<!-- Node36&#45;&gt;Node35 -->
<g id="edge4" class="edge">
<title>Node36&#45;&gt;Node35</title>
<path fill="none" stroke="midnightblue" d="M180.11,-127.5C189.07,-127.5 198.06,-127.5 206.77,-127.5"/>
<polygon fill="midnightblue" stroke="midnightblue" points="180.03,-124 170.03,-127.5 180.03,-131 180.03,-124"/>
</g>
<!-- Node37 -->
<g id="node6" class="node">
<title>Node37</title>
<g id="a_node6"><a xlink:href="interfacefiftyone_1_1pipeline_1_1core_1_1data_1_1_element_property_meta_data.html" target="_top" xlink:title="Defines details of a property that can be returned by a FlowElement.">
<polygon fill="none" stroke="black" points="207,-9.5 207,-39.5 354,-39.5 354,-9.5 207,-9.5"/>
<text text-anchor="start" x="215" y="-27.5" font-family="Helvetica,sans-Serif" font-size="10.00">fiftyone.pipeline.core.data.</text>
<text text-anchor="middle" x="280.5" y="-16.5" font-family="Helvetica,sans-Serif" font-size="10.00">ElementPropertyMetaData</text>
</a>
</g>
</g>
<!-- Node37&#45;&gt;Node33 -->
<g id="edge5" class="edge">
<title>Node37&#45;&gt;Node33</title>
<path fill="none" stroke="orange" stroke-dasharray="5,2" d="M362.3,-41.64C393.41,-48.23 428.47,-55.67 457.8,-61.89"/>
<polygon fill="orange" stroke="orange" points="362.87,-38.18 352.36,-39.53 361.41,-45.02 362.87,-38.18"/>
<text text-anchor="middle" x="397.5" y="-56.5" font-family="Helvetica,sans-Serif" font-size="10.00"> TProperty</text>
</g>
<!-- Node39 -->
<g id="node8" class="node">
<title>Node39</title>
<g id="a_node8"><a xlink:href="interfacefiftyone_1_1pipeline_1_1engines_1_1data_1_1_aspect_property_meta_data.html" target="_top" xlink:title="Holds details about a property that can be returned by an AspectEngine.">
<polygon fill="none" stroke="black" points="441,-0.5 441,-30.5 605,-30.5 605,-0.5 441,-0.5"/>
<text text-anchor="start" x="449" y="-18.5" font-family="Helvetica,sans-Serif" font-size="10.00">fiftyone.pipeline.engines.data.</text>
<text text-anchor="middle" x="523" y="-7.5" font-family="Helvetica,sans-Serif" font-size="10.00">AspectPropertyMetaData</text>
</a>
</g>
</g>
<!-- Node37&#45;&gt;Node39 -->
<g id="edge9" class="edge">
<title>Node37&#45;&gt;Node39</title>
<path fill="none" stroke="midnightblue" d="M364.36,-21.4C389.03,-20.48 416.03,-19.47 440.61,-18.55"/>
<polygon fill="midnightblue" stroke="midnightblue" points="364.17,-17.9 354.31,-21.78 364.43,-24.9 364.17,-17.9"/>
</g>
<!-- Node38&#45;&gt;Node32 -->
<g id="edge6" class="edge">
<title>Node38&#45;&gt;Node32</title>
<path fill="none" stroke="orange" stroke-dasharray="5,2" d="M606.48,-118.41C640.14,-111.43 679.35,-103.3 714.53,-96.01"/>
<polygon fill="orange" stroke="orange" points="605.76,-114.98 596.68,-120.44 607.18,-121.83 605.76,-114.98"/>
<text text-anchor="middle" x="648.5" y="-116.5" font-family="Helvetica,sans-Serif" font-size="10.00"> TData</text>
</g>
<!-- Node39&#45;&gt;Node32 -->
<g id="edge8" class="edge">
<title>Node39&#45;&gt;Node32</title>
<path fill="none" stroke="orange" stroke-dasharray="5,2" d="M606.48,-32.59C640.14,-39.57 679.35,-47.7 714.53,-54.99"/>
<polygon fill="orange" stroke="orange" points="607.18,-29.17 596.68,-30.56 605.76,-36.02 607.18,-29.17"/>
<text text-anchor="middle" x="648.5" y="-48.5" font-family="Helvetica,sans-Serif" font-size="10.00"> TProperty</text>
</g>
</g>
</svg>
