<?xml version="1.0" encoding="UTF-8" standalone="no"?>
<!DOCTYPE svg PUBLIC "-//W3C//DTD SVG 1.1//EN"
 "http://www.w3.org/Graphics/SVG/1.1/DTD/svg11.dtd">
<!-- Generated by graphviz version 2.43.0 (0)
 -->
<!-- Title: fiftyone.pipeline.engines.fiftyone.data.FiftyOneAspectPropertyMetaData Pages: 1 -->
<svg width="264pt" height="240pt"
 viewBox="0.00 0.00 263.50 240.00" xmlns="http://www.w3.org/2000/svg" xmlns:xlink="http://www.w3.org/1999/xlink">
<g id="graph0" class="graph" transform="scale(1 1) rotate(0) translate(4 236)">
<title>fiftyone.pipeline.engines.fiftyone.data.FiftyOneAspectPropertyMetaData</title>
<!-- Node0 -->
<g id="node1" class="node">
<title>Node0</title>
<g id="a_node1"><a xlink:title="51Degrees specific meta data.">
<polygon fill="#bfbfbf" stroke="black" points="46,-67.5 46,-97.5 250,-97.5 250,-67.5 46,-67.5"/>
<text text-anchor="start" x="54" y="-85.5" font-family="Helvetica,sans-Serif" font-size="10.00">fiftyone.pipeline.engines.fiftyone.data.</text>
<text text-anchor="middle" x="148" y="-74.5" font-family="Helvetica,sans-Serif" font-size="10.00">FiftyOneAspectPropertyMetaData</text>
</a>
</g>
</g>
<!-- Node4 -->
<g id="node5" class="node">
<title>Node4</title>
<g id="a_node5"><a xlink:href="classfiftyone_1_1pipeline_1_1engines_1_1fiftyone_1_1data_1_1_fifty_one_aspect_property_meta_data_default.html" target="_top" xlink:title=" ">
<polygon fill="none" stroke="black" points="40.5,-0.5 40.5,-30.5 255.5,-30.5 255.5,-0.5 40.5,-0.5"/>
<text text-anchor="start" x="48.5" y="-18.5" font-family="Helvetica,sans-Serif" font-size="10.00">fiftyone.pipeline.engines.fiftyone.data.</text>
<text text-anchor="middle" x="148" y="-7.5" font-family="Helvetica,sans-Serif" font-size="10.00">FiftyOneAspectPropertyMetaDataDefault</text>
</a>
</g>
</g>
<!-- Node0&#45;&gt;Node4 -->
<g id="edge4" class="edge">
<title>Node0&#45;&gt;Node4</title>
<path fill="none" stroke="midnightblue" d="M148,-57.11C148,-48.15 148,-38.32 148,-30.58"/>
<polygon fill="midnightblue" stroke="midnightblue" points="144.5,-57.4 148,-67.4 151.5,-57.4 144.5,-57.4"/>
</g>
<!-- Node1 -->
<g id="node2" class="node">
<title>Node1</title>
<g id="a_node2"><a xlink:href="interfacefiftyone_1_1pipeline_1_1engines_1_1data_1_1_aspect_property_meta_data.html" target="_top" xlink:title="Holds details about a property that can be returned by an AspectEngine.">
<polygon fill="none" stroke="black" points="0,-134.5 0,-164.5 164,-164.5 164,-134.5 0,-134.5"/>
<text text-anchor="start" x="8" y="-152.5" font-family="Helvetica,sans-Serif" font-size="10.00">fiftyone.pipeline.engines.data.</text>
<text text-anchor="middle" x="82" y="-141.5" font-family="Helvetica,sans-Serif" font-size="10.00">AspectPropertyMetaData</text>
</a>
</g>
</g>
<!-- Node1&#45;&gt;Node0 -->
<g id="edge1" class="edge">
<title>Node1&#45;&gt;Node0</title>
<path fill="none" stroke="midnightblue" d="M103.51,-127.31C113.41,-117.56 124.89,-106.26 133.71,-97.58"/>
<polygon fill="midnightblue" stroke="midnightblue" points="100.99,-124.89 96.32,-134.4 105.9,-129.87 100.99,-124.89"/>
</g>
<!-- Node2 -->
<g id="node3" class="node">
<title>Node2</title>
<g id="a_node3"><a xlink:href="interfacefiftyone_1_1pipeline_1_1core_1_1data_1_1_element_property_meta_data.html" target="_top" xlink:title="Defines details of a property that can be returned by a FlowElement.">
<polygon fill="none" stroke="black" points="8.5,-201.5 8.5,-231.5 155.5,-231.5 155.5,-201.5 8.5,-201.5"/>
<text text-anchor="start" x="16.5" y="-219.5" font-family="Helvetica,sans-Serif" font-size="10.00">fiftyone.pipeline.core.data.</text>
<text text-anchor="middle" x="82" y="-208.5" font-family="Helvetica,sans-Serif" font-size="10.00">ElementPropertyMetaData</text>
</a>
</g>
</g>
<!-- Node2&#45;&gt;Node1 -->
<g id="edge2" class="edge">
<title>Node2&#45;&gt;Node1</title>
<path fill="none" stroke="midnightblue" d="M82,-191.11C82,-182.15 82,-172.32 82,-164.58"/>
<polygon fill="midnightblue" stroke="midnightblue" points="78.5,-191.4 82,-201.4 85.5,-191.4 78.5,-191.4"/>
</g>
<!-- Node3 -->
<g id="node4" class="node">
<title>Node3</title>
<g id="a_node4"><a xlink:title=" ">
<polygon fill="none" stroke="#bfbfbf" points="182.5,-140 182.5,-159 247.5,-159 247.5,-140 182.5,-140"/>
<text text-anchor="middle" x="215" y="-147" font-family="Helvetica,sans-Serif" font-size="10.00">Closeable</text>
</a>
</g>
</g>
<!-- Node3&#45;&gt;Node0 -->
<g id="edge3" class="edge">
<title>Node3&#45;&gt;Node0</title>
<path fill="none" stroke="midnightblue" d="M198.63,-132.62C187.59,-121.91 173.15,-107.9 162.52,-97.59"/>
<polygon fill="midnightblue" stroke="midnightblue" points="196.35,-135.28 205.96,-139.73 201.22,-130.26 196.35,-135.28"/>
</g>
</g>
</svg>
