<?xml version="1.0" encoding="UTF-8" standalone="no"?>
<!DOCTYPE svg PUBLIC "-//W3C//DTD SVG 1.1//EN"
 "http://www.w3.org/Graphics/SVG/1.1/DTD/svg11.dtd">
<!-- Generated by graphviz version 2.43.0 (0)
 -->
<!-- Title: fiftyone.common.wrappers.data.Source Pages: 1 -->
<svg width="434pt" height="88pt"
 viewBox="0.00 0.00 434.00 88.00" xmlns="http://www.w3.org/2000/svg" xmlns:xlink="http://www.w3.org/1999/xlink">
<g id="graph0" class="graph" transform="scale(1 1) rotate(0) translate(4 84)">
<title>fiftyone.common.wrappers.data.Source</title>
<!-- Node0 -->
<g id="node1" class="node">
<title>Node0</title>
<g id="a_node1"><a xlink:title=" ">
<polygon fill="#bfbfbf" stroke="black" points="0,-24.5 0,-54.5 175,-54.5 175,-24.5 0,-24.5"/>
<text text-anchor="start" x="8" y="-42.5" font-family="Helvetica,sans-Serif" font-size="10.00">fiftyone.common.wrappers.data.</text>
<text text-anchor="middle" x="87.5" y="-31.5" font-family="Helvetica,sans-Serif" font-size="10.00">Source</text>
</a>
</g>
</g>
<!-- Node1 -->
<g id="node2" class="node">
<title>Node1</title>
<g id="a_node2"><a xlink:href="classfiftyone_1_1common_1_1wrappers_1_1data_1_1direct_1_1_source_memory.html" target="_top" xlink:title=" ">
<polygon fill="none" stroke="black" points="215.5,-49.5 215.5,-79.5 421.5,-79.5 421.5,-49.5 215.5,-49.5"/>
<text text-anchor="start" x="223.5" y="-67.5" font-family="Helvetica,sans-Serif" font-size="10.00">fiftyone.common.wrappers.data.direct.</text>
<text text-anchor="middle" x="318.5" y="-56.5" font-family="Helvetica,sans-Serif" font-size="10.00">SourceMemory</text>
</a>
</g>
</g>
<!-- Node0&#45;&gt;Node1 -->
<g id="edge1" class="edge">
<title>Node0&#45;&gt;Node1</title>
<path fill="none" stroke="midnightblue" d="M185.04,-50.04C195.08,-51.14 205.31,-52.25 215.41,-53.35"/>
<polygon fill="midnightblue" stroke="midnightblue" points="185.4,-46.56 175.08,-48.95 184.64,-53.52 185.4,-46.56"/>
</g>
<!-- Node2 -->
<g id="node3" class="node">
<title>Node2</title>
<g id="a_node3"><a xlink:href="classfiftyone_1_1common_1_1wrappers_1_1data_1_1indirect_1_1_source_file.html" target="_top" xlink:title=" ">
<polygon fill="none" stroke="black" points="211,-0.5 211,-30.5 426,-30.5 426,-0.5 211,-0.5"/>
<text text-anchor="start" x="219" y="-18.5" font-family="Helvetica,sans-Serif" font-size="10.00">fiftyone.common.wrappers.data.indirect.</text>
<text text-anchor="middle" x="318.5" y="-7.5" font-family="Helvetica,sans-Serif" font-size="10.00">SourceFile</text>
</a>
</g>
</g>
<!-- Node0&#45;&gt;Node2 -->
<g id="edge2" class="edge">
<title>Node0&#45;&gt;Node2</title>
<path fill="none" stroke="midnightblue" d="M185.27,-29.36C193.69,-28.48 202.25,-27.58 210.74,-26.69"/>
<polygon fill="midnightblue" stroke="midnightblue" points="184.66,-25.9 175.08,-30.43 185.39,-32.87 184.66,-25.9"/>
</g>
</g>
</svg>
