<?xml version="1.0" encoding="UTF-8" standalone="no"?>
<!DOCTYPE svg PUBLIC "-//W3C//DTD SVG 1.1//EN"
 "http://www.w3.org/Graphics/SVG/1.1/DTD/svg11.dtd">
<!-- Generated by graphviz version 2.43.0 (0)
 -->
<!-- Title: fiftyone.caching.CacheBuilder Pages: 1 -->
<svg width="542pt" height="88pt"
 viewBox="0.00 0.00 542.00 88.00" xmlns="http://www.w3.org/2000/svg" xmlns:xlink="http://www.w3.org/1999/xlink">
<g id="graph0" class="graph" transform="scale(1 1) rotate(0) translate(4 84)">
<title>fiftyone.caching.CacheBuilder</title>
<!-- Node0 -->
<g id="node1" class="node">
<title>Node0</title>
<g id="a_node1"><a xlink:title="Builder interface used to build caches.">
<polygon fill="#bfbfbf" stroke="black" points="0,-30 0,-49 161,-49 161,-30 0,-30"/>
<text text-anchor="middle" x="80.5" y="-37" font-family="Helvetica,sans-Serif" font-size="10.00">fiftyone.caching.CacheBuilder</text>
</a>
</g>
</g>
<!-- Node1 -->
<g id="node2" class="node">
<title>Node1</title>
<g id="a_node2"><a xlink:href="interfacefiftyone_1_1caching_1_1_loading_cache_builder.html" target="_top" xlink:title="Provides a method to build caches that implement LoadingCache.">
<polygon fill="none" stroke="black" points="201,-49.5 201,-79.5 336,-79.5 336,-49.5 201,-49.5"/>
<text text-anchor="start" x="209" y="-67.5" font-family="Helvetica,sans-Serif" font-size="10.00">fiftyone.caching.Loading</text>
<text text-anchor="middle" x="268.5" y="-56.5" font-family="Helvetica,sans-Serif" font-size="10.00">CacheBuilder</text>
</a>
</g>
</g>
<!-- Node0&#45;&gt;Node1 -->
<g id="edge1" class="edge">
<title>Node0&#45;&gt;Node1</title>
<path fill="none" stroke="midnightblue" d="M162.52,-50.39C175.31,-52.11 188.41,-53.87 200.83,-55.54"/>
<polygon fill="midnightblue" stroke="midnightblue" points="162.73,-46.89 152.35,-49.02 161.79,-53.82 162.73,-46.89"/>
</g>
<!-- Node3 -->
<g id="node4" class="node">
<title>Node3</title>
<g id="a_node4"><a xlink:href="interfacefiftyone_1_1caching_1_1_put_cache_builder.html" target="_top" xlink:title=" ">
<polygon fill="none" stroke="black" points="197,-0.5 197,-30.5 340,-30.5 340,-0.5 197,-0.5"/>
<text text-anchor="start" x="205" y="-18.5" font-family="Helvetica,sans-Serif" font-size="10.00">fiftyone.caching.PutCache</text>
<text text-anchor="middle" x="268.5" y="-7.5" font-family="Helvetica,sans-Serif" font-size="10.00">Builder</text>
</a>
</g>
</g>
<!-- Node0&#45;&gt;Node3 -->
<g id="edge3" class="edge">
<title>Node0&#45;&gt;Node3</title>
<path fill="none" stroke="midnightblue" d="M165.31,-28.69C175.85,-27.33 186.54,-25.95 196.84,-24.62"/>
<polygon fill="midnightblue" stroke="midnightblue" points="164.75,-25.23 155.28,-29.98 165.64,-32.17 164.75,-25.23"/>
</g>
<!-- Node2 -->
<g id="node3" class="node">
<title>Node2</title>
<g id="a_node3"><a xlink:href="classfiftyone_1_1caching_1_1_lru_loading_cache_1_1_builder.html" target="_top" xlink:title="Implementation of CacheBuilder for LruLoadingCache caches.">
<polygon fill="none" stroke="black" points="380,-49.5 380,-79.5 530,-79.5 530,-49.5 380,-49.5"/>
<text text-anchor="start" x="388" y="-67.5" font-family="Helvetica,sans-Serif" font-size="10.00">fiftyone.caching.LruLoading</text>
<text text-anchor="middle" x="455" y="-56.5" font-family="Helvetica,sans-Serif" font-size="10.00">Cache&lt; K, V &gt;.Builder</text>
</a>
</g>
</g>
<!-- Node1&#45;&gt;Node2 -->
<g id="edge2" class="edge">
<title>Node1&#45;&gt;Node2</title>
<path fill="none" stroke="midnightblue" d="M346.25,-64.5C357.41,-64.5 368.88,-64.5 379.99,-64.5"/>
<polygon fill="midnightblue" stroke="midnightblue" points="346.11,-61 336.11,-64.5 346.11,-68 346.11,-61"/>
</g>
<!-- Node4 -->
<g id="node5" class="node">
<title>Node4</title>
<g id="a_node5"><a xlink:href="classfiftyone_1_1caching_1_1_lru_put_cache_1_1_builder.html" target="_top" xlink:title="Implementation of CacheBuilder for LruPutCache caches.">
<polygon fill="none" stroke="black" points="376,-0.5 376,-30.5 534,-30.5 534,-0.5 376,-0.5"/>
<text text-anchor="start" x="384" y="-18.5" font-family="Helvetica,sans-Serif" font-size="10.00">fiftyone.caching.LruPutCache</text>
<text text-anchor="middle" x="455" y="-7.5" font-family="Helvetica,sans-Serif" font-size="10.00">&lt; K, V &gt;.Builder</text>
</a>
</g>
</g>
<!-- Node3&#45;&gt;Node4 -->
<g id="edge4" class="edge">
<title>Node3&#45;&gt;Node4</title>
<path fill="none" stroke="midnightblue" d="M350.29,-15.5C358.76,-15.5 367.37,-15.5 375.81,-15.5"/>
<polygon fill="midnightblue" stroke="midnightblue" points="350.04,-12 340.04,-15.5 350.04,-19 350.04,-12"/>
</g>
</g>
</svg>
