<?xml version="1.0" encoding="UTF-8" standalone="no"?>
<!DOCTYPE svg PUBLIC "-//W3C//DTD SVG 1.1//EN"
 "http://www.w3.org/Graphics/SVG/1.1/DTD/svg11.dtd">
<!-- Generated by graphviz version 2.43.0 (0)
 -->
<!-- Title: fiftyone.pipeline.engines.configuration.DataFileConfiguration Pages: 1 -->
<svg width="254pt" height="173pt"
 viewBox="0.00 0.00 254.00 173.00" xmlns="http://www.w3.org/2000/svg" xmlns:xlink="http://www.w3.org/1999/xlink">
<g id="graph0" class="graph" transform="scale(1 1) rotate(0) translate(4 169)">
<title>fiftyone.pipeline.engines.configuration.DataFileConfiguration</title>
<!-- Node0 -->
<g id="node1" class="node">
<title>Node0</title>
<g id="a_node1"><a xlink:title="Interface representing the configuration parameters controlling the automatic update checks for a spe...">
<polygon fill="#bfbfbf" stroke="black" points="20,-134.5 20,-164.5 226,-164.5 226,-134.5 20,-134.5"/>
<text text-anchor="start" x="28" y="-152.5" font-family="Helvetica,sans-Serif" font-size="10.00">fiftyone.pipeline.engines.configuration.</text>
<text text-anchor="middle" x="123" y="-141.5" font-family="Helvetica,sans-Serif" font-size="10.00">DataFileConfiguration</text>
</a>
</g>
</g>
<!-- Node1 -->
<g id="node2" class="node">
<title>Node1</title>
<g id="a_node2"><a xlink:href="classfiftyone_1_1pipeline_1_1engines_1_1configuration_1_1_data_file_configuration_default.html" target="_top" xlink:title="This class contains the automatic update configuration parameters that can be supplied to an engine f...">
<polygon fill="none" stroke="black" points="20,-67.5 20,-97.5 226,-97.5 226,-67.5 20,-67.5"/>
<text text-anchor="start" x="28" y="-85.5" font-family="Helvetica,sans-Serif" font-size="10.00">fiftyone.pipeline.engines.configuration.</text>
<text text-anchor="middle" x="123" y="-74.5" font-family="Helvetica,sans-Serif" font-size="10.00">DataFileConfigurationDefault</text>
</a>
</g>
</g>
<!-- Node0&#45;&gt;Node1 -->
<g id="edge1" class="edge">
<title>Node0&#45;&gt;Node1</title>
<path fill="none" stroke="midnightblue" d="M123,-124.11C123,-115.15 123,-105.32 123,-97.58"/>
<polygon fill="midnightblue" stroke="midnightblue" points="119.5,-124.4 123,-134.4 126.5,-124.4 119.5,-124.4"/>
</g>
<!-- Node2 -->
<g id="node3" class="node">
<title>Node2</title>
<g id="a_node3"><a xlink:href="classfiftyone_1_1pipeline_1_1engines_1_1fiftyone_1_1configuration_1_1_fifty_one_data_file_configuration.html" target="_top" xlink:title="Data file configuration class for 51Degrees data files.">
<polygon fill="none" stroke="black" points="0,-0.5 0,-30.5 246,-30.5 246,-0.5 0,-0.5"/>
<text text-anchor="start" x="8" y="-18.5" font-family="Helvetica,sans-Serif" font-size="10.00">fiftyone.pipeline.engines.fiftyone.configuration.</text>
<text text-anchor="middle" x="123" y="-7.5" font-family="Helvetica,sans-Serif" font-size="10.00">FiftyOneDataFileConfiguration</text>
</a>
</g>
</g>
<!-- Node1&#45;&gt;Node2 -->
<g id="edge2" class="edge">
<title>Node1&#45;&gt;Node2</title>
<path fill="none" stroke="midnightblue" d="M123,-57.11C123,-48.15 123,-38.32 123,-30.58"/>
<polygon fill="midnightblue" stroke="midnightblue" points="119.5,-57.4 123,-67.4 126.5,-57.4 119.5,-57.4"/>
</g>
</g>
</svg>
