<?xml version="1.0" encoding="UTF-8" standalone="no"?>
<!DOCTYPE svg PUBLIC "-//W3C//DTD SVG 1.1//EN"
 "http://www.w3.org/Graphics/SVG/1.1/DTD/svg11.dtd">
<!-- Generated by graphviz version 2.43.0 (0)
 -->
<!-- Title: fiftyone.pipeline.engines.fiftyone.flowelements.FiftyOneAspectEngine&lt; TData extends AspectData, TProperty extends FiftyOneAspectPropertyMetaData &gt; Pages: 1 -->
<svg width="2532pt" height="243pt"
 viewBox="0.00 0.00 2532.00 243.00" xmlns="http://www.w3.org/2000/svg" xmlns:xlink="http://www.w3.org/1999/xlink">
<g id="graph0" class="graph" transform="scale(1 1) rotate(0) translate(4 239)">
<title>fiftyone.pipeline.engines.fiftyone.flowelements.FiftyOneAspectEngine&lt; TData extends AspectData, TProperty extends FiftyOneAspectPropertyMetaData &gt;</title>
<!-- Node0 -->
<g id="node1" class="node">
<title>Node0</title>
<g id="a_node1"><a xlink:title="51Degrees specific Engine interface.">
<polygon fill="#bfbfbf" stroke="black" points="1557,-93 1557,-145 1846,-145 1846,-93 1557,-93"/>
<text text-anchor="start" x="1565" y="-133" font-family="Helvetica,sans-Serif" font-size="10.00">fiftyone.pipeline.engines.fiftyone.flowelements.</text>
<text text-anchor="start" x="1565" y="-122" font-family="Helvetica,sans-Serif" font-size="10.00">FiftyOneAspectEngine&lt; TData extends</text>
<text text-anchor="start" x="1565" y="-111" font-family="Helvetica,sans-Serif" font-size="10.00"> AspectData, TProperty extends FiftyOneAspectProperty</text>
<text text-anchor="middle" x="1701.5" y="-100" font-family="Helvetica,sans-Serif" font-size="10.00">MetaData &gt;</text>
</a>
</g>
</g>
<!-- Node13 -->
<g id="node14" class="node">
<title>Node13</title>
<g id="a_node14"><a xlink:href="interfacefiftyone_1_1pipeline_1_1engines_1_1fiftyone_1_1flowelements_1_1_fifty_one_aspect_engine.html" target="_top" xlink:title=" ">
<polygon fill="none" stroke="black" points="1991,-104 1991,-134 2239,-134 2239,-104 1991,-104"/>
<text text-anchor="start" x="1999" y="-122" font-family="Helvetica,sans-Serif" font-size="10.00">fiftyone.pipeline.engines.fiftyone.flowelements.</text>
<text text-anchor="middle" x="2115" y="-111" font-family="Helvetica,sans-Serif" font-size="10.00">FiftyOneAspectEngine&lt; TData, TProperty &gt;</text>
</a>
</g>
</g>
<!-- Node0&#45;&gt;Node13 -->
<g id="edge19" class="edge">
<title>Node0&#45;&gt;Node13</title>
<path fill="none" stroke="orange" stroke-dasharray="5,2" d="M1856.15,-119C1900.6,-119 1948.51,-119 1990.83,-119"/>
<polygon fill="orange" stroke="orange" points="1856.13,-115.5 1846.13,-119 1856.13,-122.5 1856.13,-115.5"/>
<text text-anchor="middle" x="1918.5" y="-122" font-family="Helvetica,sans-Serif" font-size="10.00"> &lt; TData, TProperty &gt;</text>
</g>
<!-- Node1 -->
<g id="node2" class="node">
<title>Node1</title>
<g id="a_node2"><a xlink:href="interfacefiftyone_1_1pipeline_1_1engines_1_1flowelements_1_1_on_premise_aspect_engine.html" target="_top" xlink:title="Aspect engine interface which processes data internally using a data file and populates the results.">
<polygon fill="none" stroke="black" points="1378,-93 1378,-145 1520,-145 1520,-93 1378,-93"/>
<text text-anchor="start" x="1386" y="-133" font-family="Helvetica,sans-Serif" font-size="10.00">fiftyone::pipeline</text>
<text text-anchor="start" x="1386" y="-122" font-family="Helvetica,sans-Serif" font-size="10.00">::engines::flowelements</text>
<text text-anchor="start" x="1386" y="-111" font-family="Helvetica,sans-Serif" font-size="10.00">::OnPremiseAspectEngine</text>
<text text-anchor="middle" x="1449" y="-100" font-family="Helvetica,sans-Serif" font-size="10.00">&lt; TData, TProperty &gt;</text>
</a>
</g>
</g>
<!-- Node1&#45;&gt;Node0 -->
<g id="edge1" class="edge">
<title>Node1&#45;&gt;Node0</title>
<path fill="none" stroke="midnightblue" d="M1530.34,-119C1538.86,-119 1547.7,-119 1556.68,-119"/>
<polygon fill="midnightblue" stroke="midnightblue" points="1530.11,-115.5 1520.11,-119 1530.11,-122.5 1530.11,-115.5"/>
</g>
<!-- Node2 -->
<g id="node3" class="node">
<title>Node2</title>
<g id="a_node3"><a xlink:href="interfacefiftyone_1_1pipeline_1_1engines_1_1flowelements_1_1_aspect_engine.html" target="_top" xlink:title=" ">
<polygon fill="none" stroke="black" points="1082,-104 1082,-134 1291,-134 1291,-104 1082,-104"/>
<text text-anchor="start" x="1090" y="-122" font-family="Helvetica,sans-Serif" font-size="10.00">fiftyone.pipeline.engines.flowelements.</text>
<text text-anchor="middle" x="1186.5" y="-111" font-family="Helvetica,sans-Serif" font-size="10.00">AspectEngine&lt; TData, TProperty &gt;</text>
</a>
</g>
</g>
<!-- Node2&#45;&gt;Node1 -->
<g id="edge2" class="edge">
<title>Node2&#45;&gt;Node1</title>
<path fill="none" stroke="midnightblue" d="M1301.5,-119C1327.48,-119 1354.34,-119 1377.86,-119"/>
<polygon fill="midnightblue" stroke="midnightblue" points="1301.21,-115.5 1291.21,-119 1301.2,-122.5 1301.21,-115.5"/>
</g>
<!-- Node3 -->
<g id="node4" class="node">
<title>Node3</title>
<g id="a_node4"><a xlink:href="interfacefiftyone_1_1pipeline_1_1engines_1_1flowelements_1_1_aspect_engine.html" target="_top" xlink:title="AspectEngines are a subset of FlowElements.">
<polygon fill="none" stroke="black" points="692,-98.5 692,-139.5 937,-139.5 937,-98.5 692,-98.5"/>
<text text-anchor="start" x="700" y="-127.5" font-family="Helvetica,sans-Serif" font-size="10.00">fiftyone.pipeline.engines.flowelements.</text>
<text text-anchor="start" x="700" y="-116.5" font-family="Helvetica,sans-Serif" font-size="10.00">AspectEngine&lt; TData extends AspectData,</text>
<text text-anchor="middle" x="814.5" y="-105.5" font-family="Helvetica,sans-Serif" font-size="10.00"> TProperty extends AspectPropertyMetaData &gt;</text>
</a>
</g>
</g>
<!-- Node3&#45;&gt;Node2 -->
<g id="edge3" class="edge">
<title>Node3&#45;&gt;Node2</title>
<path fill="none" stroke="orange" stroke-dasharray="5,2" d="M947.39,-119C991.53,-119 1040.07,-119 1081.74,-119"/>
<polygon fill="orange" stroke="orange" points="947.16,-115.5 937.16,-119 947.16,-122.5 947.16,-115.5"/>
<text text-anchor="middle" x="1009.5" y="-122" font-family="Helvetica,sans-Serif" font-size="10.00"> &lt; TData, TProperty &gt;</text>
</g>
<!-- Node4 -->
<g id="node5" class="node">
<title>Node4</title>
<g id="a_node5"><a xlink:href="interfacefiftyone_1_1pipeline_1_1core_1_1flowelements_1_1_flow_element.html" target="_top" xlink:title="A component that processes a FlowData (by examining its evidence, or by examining data processed by o...">
<polygon fill="none" stroke="black" points="458,-93 458,-145 588,-145 588,-93 458,-93"/>
<text text-anchor="start" x="466" y="-133" font-family="Helvetica,sans-Serif" font-size="10.00">fiftyone::pipeline</text>
<text text-anchor="start" x="466" y="-122" font-family="Helvetica,sans-Serif" font-size="10.00">::core::flowelements</text>
<text text-anchor="start" x="466" y="-111" font-family="Helvetica,sans-Serif" font-size="10.00">::FlowElement&lt; TData,</text>
<text text-anchor="middle" x="523" y="-100" font-family="Helvetica,sans-Serif" font-size="10.00"> TProperty &gt;</text>
</a>
</g>
</g>
<!-- Node4&#45;&gt;Node3 -->
<g id="edge4" class="edge">
<title>Node4&#45;&gt;Node3</title>
<path fill="none" stroke="midnightblue" d="M598.49,-119C626.91,-119 660.09,-119 691.77,-119"/>
<polygon fill="midnightblue" stroke="midnightblue" points="598.25,-115.5 588.25,-119 598.25,-122.5 598.25,-115.5"/>
</g>
<!-- Node5 -->
<g id="node6" class="node">
<title>Node5</title>
<g id="a_node6"><a xlink:title=" ">
<polygon fill="none" stroke="#bfbfbf" points="237,-109.5 237,-128.5 324,-128.5 324,-109.5 237,-109.5"/>
<text text-anchor="middle" x="280.5" y="-116.5" font-family="Helvetica,sans-Serif" font-size="10.00">AutoCloseable</text>
</a>
</g>
</g>
<!-- Node5&#45;&gt;Node4 -->
<g id="edge5" class="edge">
<title>Node5&#45;&gt;Node4</title>
<path fill="none" stroke="midnightblue" d="M334.62,-119C371,-119 419.44,-119 457.96,-119"/>
<polygon fill="midnightblue" stroke="midnightblue" points="334.22,-115.5 324.22,-119 334.22,-122.5 334.22,-115.5"/>
</g>
<!-- Node6 -->
<g id="node7" class="node">
<title>Node6</title>
<g id="a_node7"><a xlink:href="interfacefiftyone_1_1pipeline_1_1core_1_1data_1_1_element_data.html" target="_top" xlink:title="Represents property values that have be determined by a specific FlowElement based on the supplied ev...">
<polygon fill="none" stroke="black" points="207,-156 207,-186 354,-186 354,-156 207,-156"/>
<text text-anchor="start" x="215" y="-174" font-family="Helvetica,sans-Serif" font-size="10.00">fiftyone.pipeline.core.data.</text>
<text text-anchor="middle" x="280.5" y="-163" font-family="Helvetica,sans-Serif" font-size="10.00">ElementData</text>
</a>
</g>
</g>
<!-- Node6&#45;&gt;Node4 -->
<g id="edge6" class="edge">
<title>Node6&#45;&gt;Node4</title>
<path fill="none" stroke="orange" stroke-dasharray="5,2" d="M361.11,-153.79C392.56,-146.99 428.21,-139.28 457.94,-132.85"/>
<polygon fill="orange" stroke="orange" points="360.1,-150.43 351.06,-155.96 361.58,-157.27 360.1,-150.43"/>
<text text-anchor="middle" x="397.5" y="-154" font-family="Helvetica,sans-Serif" font-size="10.00"> TData</text>
</g>
<!-- Node9 -->
<g id="node10" class="node">
<title>Node9</title>
<g id="a_node10"><a xlink:href="interfacefiftyone_1_1pipeline_1_1engines_1_1data_1_1_aspect_data.html" target="_top" xlink:title="Represents a specialized ElementData instance that is generated by an AspectEngine.">
<polygon fill="none" stroke="black" points="441,-164 441,-194 605,-194 605,-164 441,-164"/>
<text text-anchor="start" x="449" y="-182" font-family="Helvetica,sans-Serif" font-size="10.00">fiftyone.pipeline.engines.data.</text>
<text text-anchor="middle" x="523" y="-171" font-family="Helvetica,sans-Serif" font-size="10.00">AspectData</text>
</a>
</g>
</g>
<!-- Node6&#45;&gt;Node9 -->
<g id="edge10" class="edge">
<title>Node6&#45;&gt;Node9</title>
<path fill="none" stroke="midnightblue" d="M364.36,-173.76C389.03,-174.58 416.03,-175.48 440.61,-176.29"/>
<polygon fill="midnightblue" stroke="midnightblue" points="364.42,-170.26 354.31,-173.42 364.19,-177.25 364.42,-170.26"/>
</g>
<!-- Node7 -->
<g id="node8" class="node">
<title>Node7</title>
<g id="a_node8"><a xlink:href="interfacefiftyone_1_1pipeline_1_1core_1_1data_1_1_data.html" target="_top" xlink:title="Represents a collection of property values.">
<polygon fill="none" stroke="black" points="0,-161.5 0,-180.5 170,-180.5 170,-161.5 0,-161.5"/>
<text text-anchor="middle" x="85" y="-168.5" font-family="Helvetica,sans-Serif" font-size="10.00">fiftyone.pipeline.core.data.Data</text>
</a>
</g>
</g>
<!-- Node7&#45;&gt;Node6 -->
<g id="edge7" class="edge">
<title>Node7&#45;&gt;Node6</title>
<path fill="none" stroke="midnightblue" d="M180.11,-171C189.07,-171 198.06,-171 206.77,-171"/>
<polygon fill="midnightblue" stroke="midnightblue" points="180.03,-167.5 170.03,-171 180.03,-174.5 180.03,-167.5"/>
</g>
<!-- Node8 -->
<g id="node9" class="node">
<title>Node8</title>
<g id="a_node9"><a xlink:href="interfacefiftyone_1_1pipeline_1_1core_1_1data_1_1_element_property_meta_data.html" target="_top" xlink:title="Defines details of a property that can be returned by a FlowElement.">
<polygon fill="none" stroke="black" points="207,-53 207,-83 354,-83 354,-53 207,-53"/>
<text text-anchor="start" x="215" y="-71" font-family="Helvetica,sans-Serif" font-size="10.00">fiftyone.pipeline.core.data.</text>
<text text-anchor="middle" x="280.5" y="-60" font-family="Helvetica,sans-Serif" font-size="10.00">ElementPropertyMetaData</text>
</a>
</g>
</g>
<!-- Node8&#45;&gt;Node4 -->
<g id="edge8" class="edge">
<title>Node8&#45;&gt;Node4</title>
<path fill="none" stroke="orange" stroke-dasharray="5,2" d="M362.3,-85.14C393.41,-91.73 428.47,-99.17 457.8,-105.39"/>
<polygon fill="orange" stroke="orange" points="362.87,-81.68 352.36,-83.03 361.41,-88.52 362.87,-81.68"/>
<text text-anchor="middle" x="397.5" y="-99" font-family="Helvetica,sans-Serif" font-size="10.00"> TProperty</text>
</g>
<!-- Node10 -->
<g id="node11" class="node">
<title>Node10</title>
<g id="a_node11"><a xlink:href="interfacefiftyone_1_1pipeline_1_1engines_1_1data_1_1_aspect_property_meta_data.html" target="_top" xlink:title="Holds details about a property that can be returned by an AspectEngine.">
<polygon fill="none" stroke="black" points="441,-44 441,-74 605,-74 605,-44 441,-44"/>
<text text-anchor="start" x="449" y="-62" font-family="Helvetica,sans-Serif" font-size="10.00">fiftyone.pipeline.engines.data.</text>
<text text-anchor="middle" x="523" y="-51" font-family="Helvetica,sans-Serif" font-size="10.00">AspectPropertyMetaData</text>
</a>
</g>
</g>
<!-- Node8&#45;&gt;Node10 -->
<g id="edge12" class="edge">
<title>Node8&#45;&gt;Node10</title>
<path fill="none" stroke="midnightblue" d="M364.36,-64.9C389.03,-63.98 416.03,-62.97 440.61,-62.05"/>
<polygon fill="midnightblue" stroke="midnightblue" points="364.17,-61.4 354.31,-65.28 364.43,-68.4 364.17,-61.4"/>
</g>
<!-- Node9&#45;&gt;Node0 -->
<g id="edge15" class="edge">
<title>Node9&#45;&gt;Node0</title>
<path fill="none" stroke="orange" stroke-dasharray="5,2" d="M594.7,-196.22C653.02,-208.92 738.13,-224 813.5,-224 813.5,-224 813.5,-224 1450,-224 1531.34,-224 1616.8,-176.33 1663.9,-145.23"/>
<polygon fill="orange" stroke="orange" points="595.37,-192.79 584.85,-194.05 593.86,-199.62 595.37,-192.79"/>
<text text-anchor="middle" x="1186.5" y="-227" font-family="Helvetica,sans-Serif" font-size="10.00"> TData</text>
</g>
<!-- Node9&#45;&gt;Node1 -->
<g id="edge13" class="edge">
<title>Node9&#45;&gt;Node1</title>
<path fill="none" stroke="orange" stroke-dasharray="5,2" d="M615.22,-178.15C759.18,-176.05 1047.7,-168.84 1291,-144 1319.56,-141.08 1350.82,-136.41 1377.88,-131.89"/>
<polygon fill="orange" stroke="orange" points="615.06,-174.65 605.11,-178.29 615.16,-181.65 615.06,-174.65"/>
<text text-anchor="middle" x="1009.5" y="-170" font-family="Helvetica,sans-Serif" font-size="10.00"> TData</text>
</g>
<!-- Node9&#45;&gt;Node3 -->
<g id="edge9" class="edge">
<title>Node9&#45;&gt;Node3</title>
<path fill="none" stroke="orange" stroke-dasharray="5,2" d="M587.72,-161.46C599.41,-158.47 611.54,-155.52 623,-153 645.15,-148.12 668.86,-143.46 691.77,-139.22"/>
<polygon fill="orange" stroke="orange" points="586.82,-158.08 578.02,-163.98 588.58,-164.86 586.82,-158.08"/>
<text text-anchor="middle" x="648.5" y="-156" font-family="Helvetica,sans-Serif" font-size="10.00"> TData</text>
</g>
<!-- Node10&#45;&gt;Node1 -->
<g id="edge14" class="edge">
<title>Node10&#45;&gt;Node1</title>
<path fill="none" stroke="orange" stroke-dasharray="5,2" d="M615.2,-60.19C759.14,-62.77 1047.63,-70.75 1291,-95 1319.54,-97.84 1350.8,-102.34 1377.86,-106.67"/>
<polygon fill="orange" stroke="orange" points="615.15,-56.69 605.09,-60.02 615.03,-63.69 615.15,-56.69"/>
<text text-anchor="middle" x="1009.5" y="-80" font-family="Helvetica,sans-Serif" font-size="10.00"> TProperty</text>
</g>
<!-- Node10&#45;&gt;Node3 -->
<g id="edge11" class="edge">
<title>Node10&#45;&gt;Node3</title>
<path fill="none" stroke="orange" stroke-dasharray="5,2" d="M606.48,-76.09C640.14,-83.07 679.35,-91.2 714.53,-98.49"/>
<polygon fill="orange" stroke="orange" points="607.18,-72.67 596.68,-74.06 605.76,-79.52 607.18,-72.67"/>
<text text-anchor="middle" x="648.5" y="-92" font-family="Helvetica,sans-Serif" font-size="10.00"> TProperty</text>
</g>
<!-- Node11 -->
<g id="node12" class="node">
<title>Node11</title>
<g id="a_node12"><a xlink:href="interfacefiftyone_1_1pipeline_1_1engines_1_1fiftyone_1_1data_1_1_fifty_one_aspect_property_meta_data.html" target="_top" xlink:title="51Degrees specific meta data.">
<polygon fill="none" stroke="black" points="712.5,-1 712.5,-31 916.5,-31 916.5,-1 712.5,-1"/>
<text text-anchor="start" x="720.5" y="-19" font-family="Helvetica,sans-Serif" font-size="10.00">fiftyone.pipeline.engines.fiftyone.data.</text>
<text text-anchor="middle" x="814.5" y="-8" font-family="Helvetica,sans-Serif" font-size="10.00">FiftyOneAspectPropertyMetaData</text>
</a>
</g>
</g>
<!-- Node10&#45;&gt;Node11 -->
<g id="edge17" class="edge">
<title>Node10&#45;&gt;Node11</title>
<path fill="none" stroke="midnightblue" d="M614.93,-45.49C645.88,-40.9 680.65,-35.73 712.35,-31.02"/>
<polygon fill="midnightblue" stroke="midnightblue" points="614.4,-42.03 605.03,-46.96 615.43,-48.96 614.4,-42.03"/>
</g>
<!-- Node11&#45;&gt;Node0 -->
<g id="edge16" class="edge">
<title>Node11&#45;&gt;Node0</title>
<path fill="none" stroke="orange" stroke-dasharray="5,2" d="M927.03,-23.47C1066.26,-33.54 1311.49,-53.79 1520,-84 1537.69,-86.56 1556.28,-89.68 1574.53,-92.98"/>
<polygon fill="orange" stroke="orange" points="927,-19.96 916.78,-22.73 926.5,-26.94 927,-19.96"/>
<text text-anchor="middle" x="1334.5" y="-67" font-family="Helvetica,sans-Serif" font-size="10.00"> TProperty</text>
</g>
<!-- Node12 -->
<g id="node13" class="node">
<title>Node12</title>
<g id="a_node13"><a xlink:title=" ">
<polygon fill="none" stroke="#bfbfbf" points="490.5,-0.5 490.5,-19.5 555.5,-19.5 555.5,-0.5 490.5,-0.5"/>
<text text-anchor="middle" x="523" y="-7.5" font-family="Helvetica,sans-Serif" font-size="10.00">Closeable</text>
</a>
</g>
</g>
<!-- Node12&#45;&gt;Node11 -->
<g id="edge18" class="edge">
<title>Node12&#45;&gt;Node11</title>
<path fill="none" stroke="midnightblue" d="M565.76,-10.87C603.96,-11.66 662.02,-12.86 712.33,-13.9"/>
<polygon fill="midnightblue" stroke="midnightblue" points="565.6,-7.36 555.53,-10.65 565.46,-14.36 565.6,-7.36"/>
</g>
<!-- Node14 -->
<g id="node15" class="node">
<title>Node14</title>
<g id="a_node15"><a xlink:href="classfiftyone_1_1pipeline_1_1engines_1_1fiftyone_1_1flowelements_1_1_fifty_one_on_premise_aspect_engine_base.html" target="_top" xlink:title="51Degrees specific engine base class.">
<polygon fill="none" stroke="black" points="2276,-93 2276,-145 2524,-145 2524,-93 2276,-93"/>
<text text-anchor="start" x="2284" y="-133" font-family="Helvetica,sans-Serif" font-size="10.00">fiftyone.pipeline.engines.fiftyone.flowelements.</text>
<text text-anchor="start" x="2284" y="-122" font-family="Helvetica,sans-Serif" font-size="10.00">FiftyOneOnPremiseAspectEngineBase</text>
<text text-anchor="start" x="2284" y="-111" font-family="Helvetica,sans-Serif" font-size="10.00">&lt; TData extends AspectData, TProperty</text>
<text text-anchor="middle" x="2400" y="-100" font-family="Helvetica,sans-Serif" font-size="10.00"> extends FiftyOneAspectPropertyMetaData &gt;</text>
</a>
</g>
</g>
<!-- Node13&#45;&gt;Node14 -->
<g id="edge20" class="edge">
<title>Node13&#45;&gt;Node14</title>
<path fill="none" stroke="midnightblue" d="M2249.52,-119C2258.24,-119 2267.01,-119 2275.68,-119"/>
<polygon fill="midnightblue" stroke="midnightblue" points="2249.3,-115.5 2239.3,-119 2249.3,-122.5 2249.3,-115.5"/>
</g>
</g>
</svg>
