<?xml version="1.0" encoding="UTF-8" standalone="no"?>
<!DOCTYPE svg PUBLIC "-//W3C//DTD SVG 1.1//EN"
 "http://www.w3.org/Graphics/SVG/1.1/DTD/svg11.dtd">
<!-- Generated by graphviz version 2.43.0 (0)
 -->
<!-- Title: fiftyone.pipeline.engines.flowelements.AspectEngine&lt; TData extends AspectData, TProperty extends AspectPropertyMetaData &gt; Pages: 1 -->
<svg width="3168pt" height="598pt"
 viewBox="0.00 0.00 3168.00 597.50" xmlns="http://www.w3.org/2000/svg" xmlns:xlink="http://www.w3.org/1999/xlink">
<g id="graph0" class="graph" transform="scale(1 1) rotate(0) translate(4 593.5)">
<title>fiftyone.pipeline.engines.flowelements.AspectEngine&lt; TData extends AspectData, TProperty extends AspectPropertyMetaData &gt;</title>
<!-- Node0 -->
<g id="node1" class="node">
<title>Node0</title>
<g id="a_node1"><a xlink:title="AspectEngines are a subset of FlowElements.">
<polygon fill="#bfbfbf" stroke="black" points="692,-338.5 692,-379.5 937,-379.5 937,-338.5 692,-338.5"/>
<text text-anchor="start" x="700" y="-367.5" font-family="Helvetica,sans-Serif" font-size="10.00">fiftyone.pipeline.engines.flowelements.</text>
<text text-anchor="start" x="700" y="-356.5" font-family="Helvetica,sans-Serif" font-size="10.00">AspectEngine&lt; TData extends AspectData,</text>
<text text-anchor="middle" x="814.5" y="-345.5" font-family="Helvetica,sans-Serif" font-size="10.00"> TProperty extends AspectPropertyMetaData &gt;</text>
</a>
</g>
</g>
<!-- Node8 -->
<g id="node9" class="node">
<title>Node8</title>
<g id="a_node9"><a xlink:href="interfacefiftyone_1_1pipeline_1_1cloudrequestengine_1_1flowelements_1_1_cloud_request_engine.html" target="_top" xlink:title="Engine that makes requests to the 51Degrees cloud service based on the details passed at creation and...">
<polygon fill="none" stroke="black" points="1259,-441.5 1259,-504.5 1421,-504.5 1421,-441.5 1259,-441.5"/>
<text text-anchor="start" x="1267" y="-492.5" font-family="Helvetica,sans-Serif" font-size="10.00">fiftyone::pipeline</text>
<text text-anchor="start" x="1267" y="-481.5" font-family="Helvetica,sans-Serif" font-size="10.00">::cloudrequestengine</text>
<text text-anchor="start" x="1267" y="-470.5" font-family="Helvetica,sans-Serif" font-size="10.00">::flowelements::CloudRequest</text>
<text text-anchor="start" x="1267" y="-459.5" font-family="Helvetica,sans-Serif" font-size="10.00">Engine&lt; CloudRequestData,</text>
<text text-anchor="middle" x="1340" y="-448.5" font-family="Helvetica,sans-Serif" font-size="10.00"> AspectPropertyMetaData &gt;</text>
</a>
</g>
</g>
<!-- Node0&#45;&gt;Node8 -->
<g id="edge10" class="edge">
<title>Node0&#45;&gt;Node8</title>
<path fill="none" stroke="midnightblue" d="M867.45,-383.71C893.26,-395.09 925.23,-407.84 955,-416 1057.86,-444.2 1180.29,-459.32 1258.79,-466.75"/>
<polygon fill="midnightblue" stroke="midnightblue" points="868.79,-380.48 858.23,-379.6 865.93,-386.87 868.79,-380.48"/>
</g>
<!-- Node10 -->
<g id="node11" class="node">
<title>Node10</title>
<g id="a_node11"><a xlink:href="interfacefiftyone_1_1pipeline_1_1engines_1_1flowelements_1_1_aspect_engine.html" target="_top" xlink:title=" ">
<polygon fill="none" stroke="black" points="1235.5,-377.5 1235.5,-418.5 1444.5,-418.5 1444.5,-377.5 1235.5,-377.5"/>
<text text-anchor="start" x="1243.5" y="-406.5" font-family="Helvetica,sans-Serif" font-size="10.00">fiftyone.pipeline.engines.flowelements.</text>
<text text-anchor="start" x="1243.5" y="-395.5" font-family="Helvetica,sans-Serif" font-size="10.00">AspectEngine&lt; CloudRequestData,</text>
<text text-anchor="middle" x="1340" y="-384.5" font-family="Helvetica,sans-Serif" font-size="10.00"> AspectPropertyMetaData &gt;</text>
</a>
</g>
</g>
<!-- Node0&#45;&gt;Node10 -->
<g id="edge12" class="edge">
<title>Node0&#45;&gt;Node10</title>
<path fill="none" stroke="orange" stroke-dasharray="5,2" d="M947.28,-375.29C949.87,-375.53 952.45,-375.77 955,-376 1049.78,-384.48 1158.02,-390.34 1235.38,-393.86"/>
<polygon fill="orange" stroke="orange" points="947.48,-371.79 937.18,-374.29 946.79,-378.76 947.48,-371.79"/>
<text text-anchor="start" x="992.5" y="-404" font-family="Helvetica,sans-Serif" font-size="10.00"> &lt; CloudRequestData,</text>
<text text-anchor="middle" x="1061" y="-393" font-family="Helvetica,sans-Serif" font-size="10.00"> AspectPropertyMetaData &gt;</text>
</g>
<!-- Node11 -->
<g id="node12" class="node">
<title>Node11</title>
<g id="a_node12"><a xlink:href="interfacefiftyone_1_1pipeline_1_1engines_1_1flowelements_1_1_aspect_engine.html" target="_top" xlink:title=" ">
<polygon fill="none" stroke="black" points="1185,-294 1185,-346 1495,-346 1495,-294 1185,-294"/>
<text text-anchor="start" x="1193" y="-334" font-family="Helvetica,sans-Serif" font-size="10.00">fiftyone.pipeline.engines.flowelements.</text>
<text text-anchor="start" x="1193" y="-323" font-family="Helvetica,sans-Serif" font-size="10.00">AspectEngine&lt;? extends fiftyone.pipeline.engines.data.</text>
<text text-anchor="start" x="1193" y="-312" font-family="Helvetica,sans-Serif" font-size="10.00">AspectData, ? extends fiftyone.pipeline.engines.data.Aspect</text>
<text text-anchor="middle" x="1340" y="-301" font-family="Helvetica,sans-Serif" font-size="10.00">PropertyMetaData &gt;</text>
</a>
</g>
</g>
<!-- Node0&#45;&gt;Node11 -->
<g id="edge13" class="edge">
<title>Node0&#45;&gt;Node11</title>
<path fill="none" stroke="orange" stroke-dasharray="5,2" d="M880.07,-335.27C903.35,-327.86 930.04,-320.68 955,-317 1030.03,-305.95 1114.19,-305.31 1184.57,-308.02"/>
<polygon fill="orange" stroke="orange" points="878.74,-332.02 870.32,-338.45 880.91,-338.68 878.74,-332.02"/>
<text text-anchor="start" x="955" y="-364" font-family="Helvetica,sans-Serif" font-size="10.00"> &lt;? extends fiftyone</text>
<text text-anchor="start" x="955" y="-353" font-family="Helvetica,sans-Serif" font-size="10.00">::pipeline::engines</text>
<text text-anchor="start" x="955" y="-342" font-family="Helvetica,sans-Serif" font-size="10.00">::data::AspectData, </text>
<text text-anchor="start" x="955" y="-331" font-family="Helvetica,sans-Serif" font-size="10.00">? extends fiftyone::pipeline</text>
<text text-anchor="middle" x="1061" y="-320" font-family="Helvetica,sans-Serif" font-size="10.00">::engines::data::AspectPropertyMetaData &gt;</text>
</g>
<!-- Node12 -->
<g id="node13" class="node">
<title>Node12</title>
<g id="a_node13"><a xlink:href="interfacefiftyone_1_1pipeline_1_1engines_1_1flowelements_1_1_aspect_engine.html" target="_top" xlink:title=" ">
<polygon fill="none" stroke="black" points="1235.5,-237 1235.5,-267 1444.5,-267 1444.5,-237 1235.5,-237"/>
<text text-anchor="start" x="1243.5" y="-255" font-family="Helvetica,sans-Serif" font-size="10.00">fiftyone.pipeline.engines.flowelements.</text>
<text text-anchor="middle" x="1340" y="-244" font-family="Helvetica,sans-Serif" font-size="10.00">AspectEngine&lt; TData, TProperty &gt;</text>
</a>
</g>
</g>
<!-- Node0&#45;&gt;Node12 -->
<g id="edge14" class="edge">
<title>Node0&#45;&gt;Node12</title>
<path fill="none" stroke="orange" stroke-dasharray="5,2" d="M858.82,-333.4C885.62,-318.8 921.24,-301.55 955,-292 1047.55,-265.81 1157,-256.41 1235.32,-253.21"/>
<polygon fill="orange" stroke="orange" points="856.78,-330.53 849.73,-338.44 860.17,-336.65 856.78,-330.53"/>
<text text-anchor="middle" x="1061" y="-295" font-family="Helvetica,sans-Serif" font-size="10.00"> &lt; TData, TProperty &gt;</text>
</g>
<!-- Node1 -->
<g id="node2" class="node">
<title>Node1</title>
<g id="a_node2"><a xlink:href="interfacefiftyone_1_1pipeline_1_1core_1_1flowelements_1_1_flow_element.html" target="_top" xlink:title="A component that processes a FlowData (by examining its evidence, or by examining data processed by o...">
<polygon fill="none" stroke="black" points="458,-333 458,-385 588,-385 588,-333 458,-333"/>
<text text-anchor="start" x="466" y="-373" font-family="Helvetica,sans-Serif" font-size="10.00">fiftyone::pipeline</text>
<text text-anchor="start" x="466" y="-362" font-family="Helvetica,sans-Serif" font-size="10.00">::core::flowelements</text>
<text text-anchor="start" x="466" y="-351" font-family="Helvetica,sans-Serif" font-size="10.00">::FlowElement&lt; TData,</text>
<text text-anchor="middle" x="523" y="-340" font-family="Helvetica,sans-Serif" font-size="10.00"> TProperty &gt;</text>
</a>
</g>
</g>
<!-- Node1&#45;&gt;Node0 -->
<g id="edge1" class="edge">
<title>Node1&#45;&gt;Node0</title>
<path fill="none" stroke="midnightblue" d="M598.49,-359C626.91,-359 660.09,-359 691.77,-359"/>
<polygon fill="midnightblue" stroke="midnightblue" points="598.25,-355.5 588.25,-359 598.25,-362.5 598.25,-355.5"/>
</g>
<!-- Node2 -->
<g id="node3" class="node">
<title>Node2</title>
<g id="a_node3"><a xlink:title=" ">
<polygon fill="none" stroke="#bfbfbf" points="237,-349.5 237,-368.5 324,-368.5 324,-349.5 237,-349.5"/>
<text text-anchor="middle" x="280.5" y="-356.5" font-family="Helvetica,sans-Serif" font-size="10.00">AutoCloseable</text>
</a>
</g>
</g>
<!-- Node2&#45;&gt;Node1 -->
<g id="edge2" class="edge">
<title>Node2&#45;&gt;Node1</title>
<path fill="none" stroke="midnightblue" d="M334.62,-359C371,-359 419.44,-359 457.96,-359"/>
<polygon fill="midnightblue" stroke="midnightblue" points="334.22,-355.5 324.22,-359 334.22,-362.5 334.22,-355.5"/>
</g>
<!-- Node3 -->
<g id="node4" class="node">
<title>Node3</title>
<g id="a_node4"><a xlink:href="interfacefiftyone_1_1pipeline_1_1core_1_1data_1_1_element_data.html" target="_top" xlink:title="Represents property values that have be determined by a specific FlowElement based on the supplied ev...">
<polygon fill="none" stroke="black" points="207,-395 207,-425 354,-425 354,-395 207,-395"/>
<text text-anchor="start" x="215" y="-413" font-family="Helvetica,sans-Serif" font-size="10.00">fiftyone.pipeline.core.data.</text>
<text text-anchor="middle" x="280.5" y="-402" font-family="Helvetica,sans-Serif" font-size="10.00">ElementData</text>
</a>
</g>
</g>
<!-- Node3&#45;&gt;Node1 -->
<g id="edge3" class="edge">
<title>Node3&#45;&gt;Node1</title>
<path fill="none" stroke="orange" stroke-dasharray="5,2" d="M362.3,-392.86C393.41,-386.27 428.47,-378.83 457.8,-372.61"/>
<polygon fill="orange" stroke="orange" points="361.41,-389.48 352.36,-394.97 362.87,-396.32 361.41,-389.48"/>
<text text-anchor="middle" x="397.5" y="-393" font-family="Helvetica,sans-Serif" font-size="10.00"> TData</text>
</g>
<!-- Node6 -->
<g id="node7" class="node">
<title>Node6</title>
<g id="a_node7"><a xlink:href="interfacefiftyone_1_1pipeline_1_1engines_1_1data_1_1_aspect_data.html" target="_top" xlink:title="Represents a specialized ElementData instance that is generated by an AspectEngine.">
<polygon fill="none" stroke="black" points="441,-404 441,-434 605,-434 605,-404 441,-404"/>
<text text-anchor="start" x="449" y="-422" font-family="Helvetica,sans-Serif" font-size="10.00">fiftyone.pipeline.engines.data.</text>
<text text-anchor="middle" x="523" y="-411" font-family="Helvetica,sans-Serif" font-size="10.00">AspectData</text>
</a>
</g>
</g>
<!-- Node3&#45;&gt;Node6 -->
<g id="edge7" class="edge">
<title>Node3&#45;&gt;Node6</title>
<path fill="none" stroke="midnightblue" d="M364.36,-413.1C389.03,-414.02 416.03,-415.03 440.61,-415.95"/>
<polygon fill="midnightblue" stroke="midnightblue" points="364.43,-409.6 354.31,-412.72 364.17,-416.6 364.43,-409.6"/>
</g>
<!-- Node4 -->
<g id="node5" class="node">
<title>Node4</title>
<g id="a_node5"><a xlink:href="interfacefiftyone_1_1pipeline_1_1core_1_1data_1_1_data.html" target="_top" xlink:title="Represents a collection of property values.">
<polygon fill="none" stroke="black" points="0,-400.5 0,-419.5 170,-419.5 170,-400.5 0,-400.5"/>
<text text-anchor="middle" x="85" y="-407.5" font-family="Helvetica,sans-Serif" font-size="10.00">fiftyone.pipeline.core.data.Data</text>
</a>
</g>
</g>
<!-- Node4&#45;&gt;Node3 -->
<g id="edge4" class="edge">
<title>Node4&#45;&gt;Node3</title>
<path fill="none" stroke="midnightblue" d="M180.11,-410C189.07,-410 198.06,-410 206.77,-410"/>
<polygon fill="midnightblue" stroke="midnightblue" points="180.03,-406.5 170.03,-410 180.03,-413.5 180.03,-406.5"/>
</g>
<!-- Node5 -->
<g id="node6" class="node">
<title>Node5</title>
<g id="a_node6"><a xlink:href="interfacefiftyone_1_1pipeline_1_1core_1_1data_1_1_element_property_meta_data.html" target="_top" xlink:title="Defines details of a property that can be returned by a FlowElement.">
<polygon fill="none" stroke="black" points="207,-293 207,-323 354,-323 354,-293 207,-293"/>
<text text-anchor="start" x="215" y="-311" font-family="Helvetica,sans-Serif" font-size="10.00">fiftyone.pipeline.core.data.</text>
<text text-anchor="middle" x="280.5" y="-300" font-family="Helvetica,sans-Serif" font-size="10.00">ElementPropertyMetaData</text>
</a>
</g>
</g>
<!-- Node5&#45;&gt;Node1 -->
<g id="edge5" class="edge">
<title>Node5&#45;&gt;Node1</title>
<path fill="none" stroke="orange" stroke-dasharray="5,2" d="M362.3,-325.14C393.41,-331.73 428.47,-339.17 457.8,-345.39"/>
<polygon fill="orange" stroke="orange" points="362.87,-321.68 352.36,-323.03 361.41,-328.52 362.87,-321.68"/>
<text text-anchor="middle" x="397.5" y="-340" font-family="Helvetica,sans-Serif" font-size="10.00"> TProperty</text>
</g>
<!-- Node7 -->
<g id="node8" class="node">
<title>Node7</title>
<g id="a_node8"><a xlink:href="interfacefiftyone_1_1pipeline_1_1engines_1_1data_1_1_aspect_property_meta_data.html" target="_top" xlink:title="Holds details about a property that can be returned by an AspectEngine.">
<polygon fill="none" stroke="black" points="441,-284 441,-314 605,-314 605,-284 441,-284"/>
<text text-anchor="start" x="449" y="-302" font-family="Helvetica,sans-Serif" font-size="10.00">fiftyone.pipeline.engines.data.</text>
<text text-anchor="middle" x="523" y="-291" font-family="Helvetica,sans-Serif" font-size="10.00">AspectPropertyMetaData</text>
</a>
</g>
</g>
<!-- Node5&#45;&gt;Node7 -->
<g id="edge9" class="edge">
<title>Node5&#45;&gt;Node7</title>
<path fill="none" stroke="midnightblue" d="M364.36,-304.9C389.03,-303.98 416.03,-302.97 440.61,-302.05"/>
<polygon fill="midnightblue" stroke="midnightblue" points="364.17,-301.4 354.31,-305.28 364.43,-308.4 364.17,-301.4"/>
</g>
<!-- Node6&#45;&gt;Node0 -->
<g id="edge6" class="edge">
<title>Node6&#45;&gt;Node0</title>
<path fill="none" stroke="orange" stroke-dasharray="5,2" d="M606.48,-401.91C640.14,-394.93 679.35,-386.8 714.53,-379.51"/>
<polygon fill="orange" stroke="orange" points="605.76,-398.48 596.68,-403.94 607.18,-405.33 605.76,-398.48"/>
<text text-anchor="middle" x="648.5" y="-400" font-family="Helvetica,sans-Serif" font-size="10.00"> TData</text>
</g>
<!-- Node7&#45;&gt;Node0 -->
<g id="edge8" class="edge">
<title>Node7&#45;&gt;Node0</title>
<path fill="none" stroke="orange" stroke-dasharray="5,2" d="M606.48,-316.09C640.14,-323.07 679.35,-331.2 714.53,-338.49"/>
<polygon fill="orange" stroke="orange" points="607.18,-312.67 596.68,-314.06 605.76,-319.52 607.18,-312.67"/>
<text text-anchor="middle" x="648.5" y="-332" font-family="Helvetica,sans-Serif" font-size="10.00"> TProperty</text>
</g>
<!-- Node9 -->
<g id="node10" class="node">
<title>Node9</title>
<g id="a_node10"><a xlink:href="classfiftyone_1_1pipeline_1_1cloudrequestengine_1_1flowelements_1_1_cloud_request_engine_default.html" target="_top" xlink:title="Engine that makes requests to the 51Degrees cloud service.">
<polygon fill="none" stroke="black" points="1532,-460 1532,-490 1798,-490 1798,-460 1532,-460"/>
<text text-anchor="start" x="1540" y="-478" font-family="Helvetica,sans-Serif" font-size="10.00">fiftyone.pipeline.cloudrequestengine.flowelements.</text>
<text text-anchor="middle" x="1665" y="-467" font-family="Helvetica,sans-Serif" font-size="10.00">CloudRequestEngineDefault</text>
</a>
</g>
</g>
<!-- Node8&#45;&gt;Node9 -->
<g id="edge11" class="edge">
<title>Node8&#45;&gt;Node9</title>
<path fill="none" stroke="midnightblue" d="M1431.63,-473.56C1462.75,-473.75 1498.24,-473.97 1531.96,-474.18"/>
<polygon fill="midnightblue" stroke="midnightblue" points="1431.28,-470.06 1421.26,-473.5 1431.24,-477.06 1431.28,-470.06"/>
</g>
<!-- Node13 -->
<g id="node14" class="node">
<title>Node13</title>
<g id="a_node14"><a xlink:href="classfiftyone_1_1pipeline_1_1engines_1_1flowelements_1_1_aspect_engine_base.html" target="_top" xlink:title="Base class for AspectEngines to extend.">
<polygon fill="none" stroke="black" points="1541,-209 1541,-261 1789,-261 1789,-209 1541,-209"/>
<text text-anchor="start" x="1549" y="-249" font-family="Helvetica,sans-Serif" font-size="10.00">fiftyone.pipeline.engines.flowelements.</text>
<text text-anchor="start" x="1549" y="-238" font-family="Helvetica,sans-Serif" font-size="10.00">AspectEngineBase&lt; TData extends</text>
<text text-anchor="start" x="1549" y="-227" font-family="Helvetica,sans-Serif" font-size="10.00"> AspectData, TProperty extends AspectProperty</text>
<text text-anchor="middle" x="1665" y="-216" font-family="Helvetica,sans-Serif" font-size="10.00">MetaData &gt;</text>
</a>
</g>
</g>
<!-- Node12&#45;&gt;Node13 -->
<g id="edge15" class="edge">
<title>Node12&#45;&gt;Node13</title>
<path fill="none" stroke="midnightblue" d="M1454.69,-246.02C1482.54,-244.55 1512.47,-242.98 1540.75,-241.49"/>
<polygon fill="midnightblue" stroke="midnightblue" points="1454.33,-242.53 1444.53,-246.55 1454.7,-249.52 1454.33,-242.53"/>
</g>
<!-- Node24 -->
<g id="node25" class="node">
<title>Node24</title>
<g id="a_node25"><a xlink:href="interfacefiftyone_1_1pipeline_1_1engines_1_1flowelements_1_1_cloud_aspect_engine.html" target="_top" xlink:title="Aspect engine interface which is specific to a cloud engine.">
<polygon fill="none" stroke="black" points="1541,-66 1541,-118 1789,-118 1789,-66 1541,-66"/>
<text text-anchor="start" x="1549" y="-106" font-family="Helvetica,sans-Serif" font-size="10.00">fiftyone.pipeline.engines.flowelements.</text>
<text text-anchor="start" x="1549" y="-95" font-family="Helvetica,sans-Serif" font-size="10.00">CloudAspectEngine&lt; TData extends</text>
<text text-anchor="start" x="1549" y="-84" font-family="Helvetica,sans-Serif" font-size="10.00"> AspectData, TProperty extends AspectProperty</text>
<text text-anchor="middle" x="1665" y="-73" font-family="Helvetica,sans-Serif" font-size="10.00">MetaData &gt;</text>
</a>
</g>
</g>
<!-- Node12&#45;&gt;Node24 -->
<g id="edge26" class="edge">
<title>Node12&#45;&gt;Node24</title>
<path fill="none" stroke="midnightblue" d="M1380.59,-232.39C1438.62,-203.65 1546.84,-150.04 1611.46,-118.03"/>
<polygon fill="midnightblue" stroke="midnightblue" points="1378.79,-229.37 1371.39,-236.95 1381.9,-235.65 1378.79,-229.37"/>
</g>
<!-- Node26 -->
<g id="node27" class="node">
<title>Node26</title>
<g id="a_node27"><a xlink:href="interfacefiftyone_1_1pipeline_1_1engines_1_1flowelements_1_1_on_premise_aspect_engine.html" target="_top" xlink:title="Aspect engine interface which processes data internally using a data file and populates the results.">
<polygon fill="none" stroke="black" points="1541,-389 1541,-441 1789,-441 1789,-389 1541,-389"/>
<text text-anchor="start" x="1549" y="-429" font-family="Helvetica,sans-Serif" font-size="10.00">fiftyone.pipeline.engines.flowelements.</text>
<text text-anchor="start" x="1549" y="-418" font-family="Helvetica,sans-Serif" font-size="10.00">OnPremiseAspectEngine&lt; TData extends</text>
<text text-anchor="start" x="1549" y="-407" font-family="Helvetica,sans-Serif" font-size="10.00"> AspectData, TProperty extends AspectProperty</text>
<text text-anchor="middle" x="1665" y="-396" font-family="Helvetica,sans-Serif" font-size="10.00">MetaData &gt;</text>
</a>
</g>
</g>
<!-- Node12&#45;&gt;Node26 -->
<g id="edge29" class="edge">
<title>Node12&#45;&gt;Node26</title>
<path fill="none" stroke="midnightblue" d="M1454.29,-269.34C1468.31,-273.28 1482.21,-278.1 1495,-284 1551.97,-310.28 1607.37,-358.95 1638.45,-389"/>
<polygon fill="midnightblue" stroke="midnightblue" points="1455.13,-265.94 1444.56,-266.75 1453.33,-272.71 1455.13,-265.94"/>
</g>
<!-- Node14 -->
<g id="node15" class="node">
<title>Node14</title>
<g id="a_node15"><a xlink:href="classfiftyone_1_1pipeline_1_1cloudrequestengine_1_1flowelements_1_1_cloud_aspect_engine_base.html" target="_top" xlink:title="Base class for 51Degrees Cloud Aspect Engines.">
<polygon fill="none" stroke="black" points="2095,-60.5 2095,-123.5 2289,-123.5 2289,-60.5 2095,-60.5"/>
<text text-anchor="start" x="2103" y="-111.5" font-family="Helvetica,sans-Serif" font-size="10.00">fiftyone::pipeline</text>
<text text-anchor="start" x="2103" y="-100.5" font-family="Helvetica,sans-Serif" font-size="10.00">::cloudrequestengine</text>
<text text-anchor="start" x="2103" y="-89.5" font-family="Helvetica,sans-Serif" font-size="10.00">::flowelements::CloudAspect</text>
<text text-anchor="start" x="2103" y="-78.5" font-family="Helvetica,sans-Serif" font-size="10.00">EngineBase&lt; TData, AspectProperty</text>
<text text-anchor="middle" x="2192" y="-67.5" font-family="Helvetica,sans-Serif" font-size="10.00">MetaData &gt;</text>
</a>
</g>
</g>
<!-- Node13&#45;&gt;Node14 -->
<g id="edge16" class="edge">
<title>Node13&#45;&gt;Node14</title>
<path fill="none" stroke="midnightblue" d="M1739.77,-205.3C1763.85,-196.18 1790.86,-186.57 1816,-179 1909.59,-150.8 2018.63,-126.43 2094.93,-110.71"/>
<polygon fill="midnightblue" stroke="midnightblue" points="1738.44,-202.06 1730.35,-208.89 1740.94,-208.6 1738.44,-202.06"/>
</g>
<!-- Node17 -->
<g id="node18" class="node">
<title>Node17</title>
<g id="a_node18"><a xlink:href="classfiftyone_1_1pipeline_1_1cloudrequestengine_1_1flowelements_1_1_cloud_request_engine_default.html" target="_top" xlink:title="Engine that makes requests to the 51Degrees cloud service.">
<polygon fill="none" stroke="black" points="2096.5,-202.5 2096.5,-265.5 2287.5,-265.5 2287.5,-202.5 2096.5,-202.5"/>
<text text-anchor="start" x="2104.5" y="-253.5" font-family="Helvetica,sans-Serif" font-size="10.00">fiftyone::pipeline</text>
<text text-anchor="start" x="2104.5" y="-242.5" font-family="Helvetica,sans-Serif" font-size="10.00">::cloudrequestengine</text>
<text text-anchor="start" x="2104.5" y="-231.5" font-family="Helvetica,sans-Serif" font-size="10.00">::flowelements::CloudRequest</text>
<text text-anchor="start" x="2104.5" y="-220.5" font-family="Helvetica,sans-Serif" font-size="10.00">EngineDefault&lt; CloudRequestData,</text>
<text text-anchor="middle" x="2192" y="-209.5" font-family="Helvetica,sans-Serif" font-size="10.00"> AspectPropertyMetaData &gt;</text>
</a>
</g>
</g>
<!-- Node13&#45;&gt;Node17 -->
<g id="edge19" class="edge">
<title>Node13&#45;&gt;Node17</title>
<path fill="none" stroke="midnightblue" d="M1799.1,-234.75C1891.79,-234.57 2013.17,-234.34 2096.14,-234.18"/>
<polygon fill="midnightblue" stroke="midnightblue" points="1799.08,-231.25 1789.09,-234.77 1799.1,-238.25 1799.08,-231.25"/>
</g>
<!-- Node18 -->
<g id="node19" class="node">
<title>Node18</title>
<g id="a_node19"><a xlink:href="classfiftyone_1_1pipeline_1_1engines_1_1flowelements_1_1_aspect_engine_base.html" target="_top" xlink:title=" ">
<polygon fill="none" stroke="black" points="2086,-142.5 2086,-183.5 2298,-183.5 2298,-142.5 2086,-142.5"/>
<text text-anchor="start" x="2094" y="-171.5" font-family="Helvetica,sans-Serif" font-size="10.00">fiftyone.pipeline.engines.flowelements.</text>
<text text-anchor="start" x="2094" y="-160.5" font-family="Helvetica,sans-Serif" font-size="10.00">AspectEngineBase&lt; CloudRequestData,</text>
<text text-anchor="middle" x="2192" y="-149.5" font-family="Helvetica,sans-Serif" font-size="10.00"> AspectPropertyMetaData &gt;</text>
</a>
</g>
</g>
<!-- Node13&#45;&gt;Node18 -->
<g id="edge20" class="edge">
<title>Node13&#45;&gt;Node18</title>
<path fill="none" stroke="orange" stroke-dasharray="5,2" d="M1799.31,-211.54C1804.94,-210.66 1810.53,-209.81 1816,-209 1906.84,-195.56 2010.48,-183.07 2085.74,-174.5"/>
<polygon fill="orange" stroke="orange" points="1798.45,-208.13 1789.12,-213.16 1799.54,-215.05 1798.45,-208.13"/>
<text text-anchor="start" x="1853.5" y="-223" font-family="Helvetica,sans-Serif" font-size="10.00"> &lt; CloudRequestData,</text>
<text text-anchor="middle" x="1922" y="-212" font-family="Helvetica,sans-Serif" font-size="10.00"> AspectPropertyMetaData &gt;</text>
</g>
<!-- Node19 -->
<g id="node20" class="node">
<title>Node19</title>
<g id="a_node20"><a xlink:href="classfiftyone_1_1pipeline_1_1engines_1_1flowelements_1_1_aspect_engine_base.html" target="_top" xlink:title=" ">
<polygon fill="none" stroke="black" points="2078.5,-284.5 2078.5,-325.5 2305.5,-325.5 2305.5,-284.5 2078.5,-284.5"/>
<text text-anchor="start" x="2086.5" y="-313.5" font-family="Helvetica,sans-Serif" font-size="10.00">fiftyone.pipeline.engines.flowelements.</text>
<text text-anchor="start" x="2086.5" y="-302.5" font-family="Helvetica,sans-Serif" font-size="10.00">AspectEngineBase&lt; TData, AspectProperty</text>
<text text-anchor="middle" x="2192" y="-291.5" font-family="Helvetica,sans-Serif" font-size="10.00">MetaData &gt;</text>
</a>
</g>
</g>
<!-- Node13&#45;&gt;Node19 -->
<g id="edge21" class="edge">
<title>Node13&#45;&gt;Node19</title>
<path fill="none" stroke="orange" stroke-dasharray="5,2" d="M1799.2,-252.76C1885.36,-264.25 1996.27,-279.04 2078.09,-289.95"/>
<polygon fill="orange" stroke="orange" points="1799.46,-249.26 1789.09,-251.41 1798.54,-256.2 1799.46,-249.26"/>
<text text-anchor="start" x="1847.5" y="-297" font-family="Helvetica,sans-Serif" font-size="10.00"> &lt; TData, AspectPropertyMeta</text>
<text text-anchor="middle" x="1922" y="-286" font-family="Helvetica,sans-Serif" font-size="10.00">Data &gt;</text>
</g>
<!-- Node20 -->
<g id="node21" class="node">
<title>Node20</title>
<g id="a_node21"><a xlink:href="classfiftyone_1_1pipeline_1_1engines_1_1flowelements_1_1_aspect_engine_base.html" target="_top" xlink:title=" ">
<polygon fill="none" stroke="black" points="2086,-345 2086,-375 2298,-375 2298,-345 2086,-345"/>
<text text-anchor="start" x="2094" y="-363" font-family="Helvetica,sans-Serif" font-size="10.00">fiftyone.pipeline.engines.flowelements.</text>
<text text-anchor="middle" x="2192" y="-352" font-family="Helvetica,sans-Serif" font-size="10.00">AspectEngineBase&lt; TData, TProperty &gt;</text>
</a>
</g>
</g>
<!-- Node13&#45;&gt;Node20 -->
<g id="edge22" class="edge">
<title>Node13&#45;&gt;Node20</title>
<path fill="none" stroke="orange" stroke-dasharray="5,2" d="M1718.24,-265.98C1746.31,-281.27 1782.05,-298.62 1816,-309 1904.59,-336.09 2009.36,-348.81 2085.6,-354.77"/>
<polygon fill="orange" stroke="orange" points="1719.85,-262.88 1709.41,-261.1 1716.47,-269 1719.85,-262.88"/>
<text text-anchor="middle" x="1922" y="-352" font-family="Helvetica,sans-Serif" font-size="10.00"> &lt; TData, TProperty &gt;</text>
</g>
<!-- Node15 -->
<g id="node16" class="node">
<title>Node15</title>
<g id="a_node16"><a xlink:href="classfiftyone_1_1pipeline_1_1cloudrequestengine_1_1flowelements_1_1_cloud_aspect_engine_base.html" target="_top" xlink:title=" ">
<polygon fill="none" stroke="black" points="2483,-77 2483,-107 2749,-107 2749,-77 2483,-77"/>
<text text-anchor="start" x="2491" y="-95" font-family="Helvetica,sans-Serif" font-size="10.00">fiftyone.pipeline.cloudrequestengine.flowelements.</text>
<text text-anchor="middle" x="2616" y="-84" font-family="Helvetica,sans-Serif" font-size="10.00">CloudAspectEngineBase&lt; TData &gt;</text>
</a>
</g>
</g>
<!-- Node14&#45;&gt;Node15 -->
<g id="edge17" class="edge">
<title>Node14&#45;&gt;Node15</title>
<path fill="none" stroke="orange" stroke-dasharray="5,2" d="M2299.27,-92C2355.03,-92 2423.85,-92 2482.99,-92"/>
<polygon fill="orange" stroke="orange" points="2299.02,-88.5 2289.02,-92 2299.02,-95.5 2299.02,-88.5"/>
<text text-anchor="middle" x="2410.5" y="-95" font-family="Helvetica,sans-Serif" font-size="10.00"> &lt; TData &gt;</text>
</g>
<!-- Node16 -->
<g id="node17" class="node">
<title>Node16</title>
<g id="a_node17"><a xlink:href="classfiftyone_1_1pipeline_1_1cloudrequestengine_1_1flowelements_1_1_property_keyed_cloud_engine_base.html" target="_top" xlink:title="A specialised type of CloudAspectEngineBase that has the functionality to support returning a list of...">
<polygon fill="none" stroke="black" points="2894,-66 2894,-118 3160,-118 3160,-66 2894,-66"/>
<text text-anchor="start" x="2902" y="-106" font-family="Helvetica,sans-Serif" font-size="10.00">fiftyone.pipeline.cloudrequestengine.flowelements.</text>
<text text-anchor="start" x="2902" y="-95" font-family="Helvetica,sans-Serif" font-size="10.00">PropertyKeyedCloudEngineBase&lt; TData</text>
<text text-anchor="start" x="2902" y="-84" font-family="Helvetica,sans-Serif" font-size="10.00"> extends MultiProfileData&lt; TProfile,</text>
<text text-anchor="middle" x="3027" y="-73" font-family="Helvetica,sans-Serif" font-size="10.00"> TProfile extends AspectData &gt;</text>
</a>
</g>
</g>
<!-- Node15&#45;&gt;Node16 -->
<g id="edge18" class="edge">
<title>Node15&#45;&gt;Node16</title>
<path fill="none" stroke="midnightblue" d="M2759.35,-92C2803.04,-92 2850.91,-92 2893.88,-92"/>
<polygon fill="midnightblue" stroke="midnightblue" points="2759.23,-88.5 2749.23,-92 2759.23,-95.5 2759.23,-88.5"/>
</g>
<!-- Node21 -->
<g id="node22" class="node">
<title>Node21</title>
<g id="a_node22"><a xlink:href="classfiftyone_1_1pipeline_1_1engines_1_1flowelements_1_1_on_premise_aspect_engine_base.html" target="_top" xlink:title="Base class for on&#45;premise aspect engines.">
<polygon fill="none" stroke="black" points="2509.5,-361 2509.5,-413 2722.5,-413 2722.5,-361 2509.5,-361"/>
<text text-anchor="start" x="2517.5" y="-401" font-family="Helvetica,sans-Serif" font-size="10.00">fiftyone.pipeline.engines.flowelements.</text>
<text text-anchor="start" x="2517.5" y="-390" font-family="Helvetica,sans-Serif" font-size="10.00">OnPremiseAspectEngineBase&lt; TData</text>
<text text-anchor="start" x="2517.5" y="-379" font-family="Helvetica,sans-Serif" font-size="10.00"> extends AspectData, TProperty extends</text>
<text text-anchor="middle" x="2616" y="-368" font-family="Helvetica,sans-Serif" font-size="10.00"> AspectPropertyMetaData &gt;</text>
</a>
</g>
</g>
<!-- Node20&#45;&gt;Node21 -->
<g id="edge23" class="edge">
<title>Node20&#45;&gt;Node21</title>
<path fill="none" stroke="midnightblue" d="M2308.47,-367.39C2371.2,-371.4 2448.21,-376.33 2509.35,-380.24"/>
<polygon fill="midnightblue" stroke="midnightblue" points="2308.33,-363.87 2298.13,-366.73 2307.88,-370.86 2308.33,-363.87"/>
</g>
<!-- Node22 -->
<g id="node23" class="node">
<title>Node22</title>
<g id="a_node23"><a xlink:href="classfiftyone_1_1pipeline_1_1engines_1_1fiftyone_1_1flowelements_1_1_fifty_one_on_premise_aspect_engine_base.html" target="_top" xlink:title="51Degrees specific engine base class.">
<polygon fill="none" stroke="black" points="2921,-328 2921,-380 3133,-380 3133,-328 2921,-328"/>
<text text-anchor="start" x="2929" y="-368" font-family="Helvetica,sans-Serif" font-size="10.00">fiftyone::pipeline</text>
<text text-anchor="start" x="2929" y="-357" font-family="Helvetica,sans-Serif" font-size="10.00">::engines::fiftyone</text>
<text text-anchor="start" x="2929" y="-346" font-family="Helvetica,sans-Serif" font-size="10.00">::flowelements::FiftyOneOnPremise</text>
<text text-anchor="middle" x="3027" y="-335" font-family="Helvetica,sans-Serif" font-size="10.00">AspectEngineBase&lt; TData, TProperty &gt;</text>
</a>
</g>
</g>
<!-- Node21&#45;&gt;Node22 -->
<g id="edge24" class="edge">
<title>Node21&#45;&gt;Node22</title>
<path fill="none" stroke="midnightblue" d="M2732.73,-377.66C2791.85,-372.89 2863.26,-367.13 2920.81,-362.49"/>
<polygon fill="midnightblue" stroke="midnightblue" points="2732.28,-374.19 2722.59,-378.48 2732.84,-381.16 2732.28,-374.19"/>
</g>
<!-- Node23 -->
<g id="node24" class="node">
<title>Node23</title>
<g id="a_node24"><a xlink:href="classfiftyone_1_1pipeline_1_1engines_1_1flowelements_1_1_on_premise_aspect_engine_base.html" target="_top" xlink:title=" ">
<polygon fill="none" stroke="black" points="2922.5,-399.5 2922.5,-440.5 3131.5,-440.5 3131.5,-399.5 2922.5,-399.5"/>
<text text-anchor="start" x="2930.5" y="-428.5" font-family="Helvetica,sans-Serif" font-size="10.00">fiftyone.pipeline.engines.flowelements.</text>
<text text-anchor="start" x="2930.5" y="-417.5" font-family="Helvetica,sans-Serif" font-size="10.00">OnPremiseAspectEngineBase&lt; TData,</text>
<text text-anchor="middle" x="3027" y="-406.5" font-family="Helvetica,sans-Serif" font-size="10.00"> TProperty &gt;</text>
</a>
</g>
</g>
<!-- Node21&#45;&gt;Node23 -->
<g id="edge25" class="edge">
<title>Node21&#45;&gt;Node23</title>
<path fill="none" stroke="orange" stroke-dasharray="5,2" d="M2732.81,-396.34C2792.4,-401.15 2864.46,-406.97 2922.22,-411.63"/>
<polygon fill="orange" stroke="orange" points="2732.84,-392.84 2722.59,-395.52 2732.28,-399.81 2732.84,-392.84"/>
<text text-anchor="middle" x="2821.5" y="-410" font-family="Helvetica,sans-Serif" font-size="10.00"> &lt; TData, TProperty &gt;</text>
</g>
<!-- Node24&#45;&gt;Node14 -->
<g id="edge27" class="edge">
<title>Node24&#45;&gt;Node14</title>
<path fill="none" stroke="midnightblue" d="M1799.33,-92C1891.52,-92 2012.02,-92 2094.89,-92"/>
<polygon fill="midnightblue" stroke="midnightblue" points="1799.09,-88.5 1789.09,-92 1799.09,-95.5 1799.09,-88.5"/>
</g>
<!-- Node25 -->
<g id="node26" class="node">
<title>Node25</title>
<g id="a_node26"><a xlink:href="interfacefiftyone_1_1pipeline_1_1engines_1_1flowelements_1_1_cloud_aspect_engine.html" target="_top" xlink:title=" ">
<polygon fill="none" stroke="black" points="2076.5,-0.5 2076.5,-41.5 2307.5,-41.5 2307.5,-0.5 2076.5,-0.5"/>
<text text-anchor="start" x="2084.5" y="-29.5" font-family="Helvetica,sans-Serif" font-size="10.00">fiftyone.pipeline.engines.flowelements.</text>
<text text-anchor="start" x="2084.5" y="-18.5" font-family="Helvetica,sans-Serif" font-size="10.00">CloudAspectEngine&lt; TData, AspectProperty</text>
<text text-anchor="middle" x="2192" y="-7.5" font-family="Helvetica,sans-Serif" font-size="10.00">MetaData &gt;</text>
</a>
</g>
</g>
<!-- Node24&#45;&gt;Node25 -->
<g id="edge28" class="edge">
<title>Node24&#45;&gt;Node25</title>
<path fill="none" stroke="orange" stroke-dasharray="5,2" d="M1799.31,-68.52C1804.94,-67.65 1810.52,-66.8 1816,-66 1903.1,-53.23 2001.97,-41.48 2076.32,-33.19"/>
<polygon fill="orange" stroke="orange" points="1798.45,-65.12 1789.11,-70.13 1799.54,-72.03 1798.45,-65.12"/>
<text text-anchor="start" x="1847.5" y="-80" font-family="Helvetica,sans-Serif" font-size="10.00"> &lt; TData, AspectPropertyMeta</text>
<text text-anchor="middle" x="1922" y="-69" font-family="Helvetica,sans-Serif" font-size="10.00">Data &gt;</text>
</g>
<!-- Node27 -->
<g id="node28" class="node">
<title>Node27</title>
<g id="a_node28"><a xlink:href="interfacefiftyone_1_1pipeline_1_1engines_1_1fiftyone_1_1flowelements_1_1_fifty_one_aspect_engine.html" target="_top" xlink:title="51Degrees specific Engine interface.">
<polygon fill="none" stroke="black" points="2108,-537 2108,-589 2276,-589 2276,-537 2108,-537"/>
<text text-anchor="start" x="2116" y="-577" font-family="Helvetica,sans-Serif" font-size="10.00">fiftyone::pipeline</text>
<text text-anchor="start" x="2116" y="-566" font-family="Helvetica,sans-Serif" font-size="10.00">::engines::fiftyone</text>
<text text-anchor="start" x="2116" y="-555" font-family="Helvetica,sans-Serif" font-size="10.00">::flowelements::FiftyOneAspect</text>
<text text-anchor="middle" x="2192" y="-544" font-family="Helvetica,sans-Serif" font-size="10.00">Engine&lt; TData, TProperty &gt;</text>
</a>
</g>
</g>
<!-- Node26&#45;&gt;Node27 -->
<g id="edge30" class="edge">
<title>Node26&#45;&gt;Node27</title>
<path fill="none" stroke="midnightblue" d="M1794.2,-447.37C1795.5,-448.54 1796.77,-449.75 1798,-451 1820.81,-474.22 1791.43,-500.64 1816,-522 1895.69,-591.29 2023.77,-589.56 2107.67,-578.78"/>
<polygon fill="midnightblue" stroke="midnightblue" points="1796.35,-444.61 1786.35,-441.11 1791.99,-450.08 1796.35,-444.61"/>
</g>
<!-- Node30 -->
<g id="node31" class="node">
<title>Node30</title>
<g id="a_node31"><a xlink:href="interfacefiftyone_1_1pipeline_1_1engines_1_1flowelements_1_1_on_premise_aspect_engine.html" target="_top" xlink:title=" ">
<polygon fill="none" stroke="black" points="2046,-454.5 2046,-517.5 2338,-517.5 2338,-454.5 2046,-454.5"/>
<text text-anchor="start" x="2054" y="-505.5" font-family="Helvetica,sans-Serif" font-size="10.00">fiftyone.pipeline.engines.flowelements.</text>
<text text-anchor="start" x="2054" y="-494.5" font-family="Helvetica,sans-Serif" font-size="10.00">OnPremiseAspectEngine&lt;? extends</text>
<text text-anchor="start" x="2054" y="-483.5" font-family="Helvetica,sans-Serif" font-size="10.00"> fiftyone.pipeline.engines.data.AspectData,</text>
<text text-anchor="start" x="2054" y="-472.5" font-family="Helvetica,sans-Serif" font-size="10.00"> ? extends fiftyone.pipeline.engines.data.AspectProperty</text>
<text text-anchor="middle" x="2192" y="-461.5" font-family="Helvetica,sans-Serif" font-size="10.00">MetaData &gt;</text>
</a>
</g>
</g>
<!-- Node26&#45;&gt;Node30 -->
<g id="edge33" class="edge">
<title>Node26&#45;&gt;Node30</title>
<path fill="none" stroke="orange" stroke-dasharray="5,2" d="M1799.11,-433C1874.42,-443.19 1968.66,-455.93 2045.85,-466.37"/>
<polygon fill="orange" stroke="orange" points="1799.47,-429.52 1789.09,-431.65 1798.53,-436.46 1799.47,-429.52"/>
<text text-anchor="start" x="1816" y="-510" font-family="Helvetica,sans-Serif" font-size="10.00"> &lt;? extends fiftyone</text>
<text text-anchor="start" x="1816" y="-499" font-family="Helvetica,sans-Serif" font-size="10.00">::pipeline::engines</text>
<text text-anchor="start" x="1816" y="-488" font-family="Helvetica,sans-Serif" font-size="10.00">::data::AspectData, </text>
<text text-anchor="start" x="1816" y="-477" font-family="Helvetica,sans-Serif" font-size="10.00">? extends fiftyone::pipeline</text>
<text text-anchor="middle" x="1922" y="-466" font-family="Helvetica,sans-Serif" font-size="10.00">::engines::data::AspectPropertyMetaData &gt;</text>
</g>
<!-- Node31 -->
<g id="node32" class="node">
<title>Node31</title>
<g id="a_node32"><a xlink:href="interfacefiftyone_1_1pipeline_1_1engines_1_1flowelements_1_1_on_premise_aspect_engine.html" target="_top" xlink:title=" ">
<polygon fill="none" stroke="black" points="2087.5,-394.5 2087.5,-435.5 2296.5,-435.5 2296.5,-394.5 2087.5,-394.5"/>
<text text-anchor="start" x="2095.5" y="-423.5" font-family="Helvetica,sans-Serif" font-size="10.00">fiftyone.pipeline.engines.flowelements.</text>
<text text-anchor="start" x="2095.5" y="-412.5" font-family="Helvetica,sans-Serif" font-size="10.00">OnPremiseAspectEngine&lt; TData,</text>
<text text-anchor="middle" x="2192" y="-401.5" font-family="Helvetica,sans-Serif" font-size="10.00"> TProperty &gt;</text>
</a>
</g>
</g>
<!-- Node26&#45;&gt;Node31 -->
<g id="edge34" class="edge">
<title>Node26&#45;&gt;Node31</title>
<path fill="none" stroke="orange" stroke-dasharray="5,2" d="M1799.3,-415C1888.7,-415 2004.73,-415 2087.25,-415"/>
<polygon fill="orange" stroke="orange" points="1799.09,-411.5 1789.09,-415 1799.09,-418.5 1799.09,-411.5"/>
<text text-anchor="middle" x="1922" y="-418" font-family="Helvetica,sans-Serif" font-size="10.00"> &lt; TData, TProperty &gt;</text>
</g>
<!-- Node28 -->
<g id="node29" class="node">
<title>Node28</title>
<g id="a_node29"><a xlink:href="interfacefiftyone_1_1pipeline_1_1engines_1_1fiftyone_1_1flowelements_1_1_fifty_one_aspect_engine.html" target="_top" xlink:title=" ">
<polygon fill="none" stroke="black" points="2492,-548 2492,-578 2740,-578 2740,-548 2492,-548"/>
<text text-anchor="start" x="2500" y="-566" font-family="Helvetica,sans-Serif" font-size="10.00">fiftyone.pipeline.engines.fiftyone.flowelements.</text>
<text text-anchor="middle" x="2616" y="-555" font-family="Helvetica,sans-Serif" font-size="10.00">FiftyOneAspectEngine&lt; TData, TProperty &gt;</text>
</a>
</g>
</g>
<!-- Node27&#45;&gt;Node28 -->
<g id="edge31" class="edge">
<title>Node27&#45;&gt;Node28</title>
<path fill="none" stroke="orange" stroke-dasharray="5,2" d="M2286.41,-563C2346.81,-563 2426.1,-563 2491.66,-563"/>
<polygon fill="orange" stroke="orange" points="2286.12,-559.5 2276.12,-563 2286.12,-566.5 2286.12,-559.5"/>
<text text-anchor="middle" x="2410.5" y="-566" font-family="Helvetica,sans-Serif" font-size="10.00"> &lt; TData, TProperty &gt;</text>
</g>
<!-- Node29 -->
<g id="node30" class="node">
<title>Node29</title>
<g id="a_node30"><a xlink:href="classfiftyone_1_1pipeline_1_1engines_1_1fiftyone_1_1flowelements_1_1_fifty_one_on_premise_aspect_engine_base.html" target="_top" xlink:title="51Degrees specific engine base class.">
<polygon fill="none" stroke="black" points="2903,-537 2903,-589 3151,-589 3151,-537 2903,-537"/>
<text text-anchor="start" x="2911" y="-577" font-family="Helvetica,sans-Serif" font-size="10.00">fiftyone.pipeline.engines.fiftyone.flowelements.</text>
<text text-anchor="start" x="2911" y="-566" font-family="Helvetica,sans-Serif" font-size="10.00">FiftyOneOnPremiseAspectEngineBase</text>
<text text-anchor="start" x="2911" y="-555" font-family="Helvetica,sans-Serif" font-size="10.00">&lt; TData extends AspectData, TProperty</text>
<text text-anchor="middle" x="3027" y="-544" font-family="Helvetica,sans-Serif" font-size="10.00"> extends FiftyOneAspectPropertyMetaData &gt;</text>
</a>
</g>
</g>
<!-- Node28&#45;&gt;Node29 -->
<g id="edge32" class="edge">
<title>Node28&#45;&gt;Node29</title>
<path fill="none" stroke="midnightblue" d="M2750.33,-563C2799.44,-563 2854.82,-563 2902.98,-563"/>
<polygon fill="midnightblue" stroke="midnightblue" points="2750.27,-559.5 2740.27,-563 2750.27,-566.5 2750.27,-559.5"/>
</g>
<!-- Node31&#45;&gt;Node21 -->
<g id="edge35" class="edge">
<title>Node31&#45;&gt;Node21</title>
<path fill="none" stroke="midnightblue" d="M2306.49,-407.47C2369.56,-403.29 2447.52,-398.11 2509.3,-394.01"/>
<polygon fill="midnightblue" stroke="midnightblue" points="2306.25,-403.98 2296.5,-408.13 2306.71,-410.96 2306.25,-403.98"/>
</g>
</g>
</svg>
