<?xml version="1.0" encoding="UTF-8" standalone="no"?>
<!DOCTYPE svg PUBLIC "-//W3C//DTD SVG 1.1//EN"
 "http://www.w3.org/Graphics/SVG/1.1/DTD/svg11.dtd">
<!-- Generated by graphviz version 2.43.0 (0)
 -->
<!-- Title: fiftyone.pipeline.core.data.ElementData Pages: 1 -->
<svg width="1451pt" height="247pt"
 viewBox="0.00 0.00 1451.00 246.50" xmlns="http://www.w3.org/2000/svg" xmlns:xlink="http://www.w3.org/1999/xlink">
<g id="graph0" class="graph" transform="scale(1 1) rotate(0) translate(4 242.5)">
<title>fiftyone.pipeline.core.data.ElementData</title>
<!-- Node0 -->
<g id="node1" class="node">
<title>Node0</title>
<g id="a_node1"><a xlink:title="Represents property values that have be determined by a specific FlowElement based on the supplied ev...">
<polygon fill="#bfbfbf" stroke="black" points="206,-73.5 206,-103.5 353,-103.5 353,-73.5 206,-73.5"/>
<text text-anchor="start" x="214" y="-91.5" font-family="Helvetica,sans-Serif" font-size="10.00">fiftyone.pipeline.core.data.</text>
<text text-anchor="middle" x="279.5" y="-80.5" font-family="Helvetica,sans-Serif" font-size="10.00">ElementData</text>
</a>
</g>
</g>
<!-- Node2 -->
<g id="node3" class="node">
<title>Node2</title>
<g id="a_node3"><a xlink:href="classfiftyone_1_1pipeline_1_1core_1_1data_1_1_element_data_base.html" target="_top" xlink:title="Base implementation of ElementData.">
<polygon fill="none" stroke="black" points="419,-98.5 419,-128.5 566,-128.5 566,-98.5 419,-98.5"/>
<text text-anchor="start" x="427" y="-116.5" font-family="Helvetica,sans-Serif" font-size="10.00">fiftyone.pipeline.core.data.</text>
<text text-anchor="middle" x="492.5" y="-105.5" font-family="Helvetica,sans-Serif" font-size="10.00">ElementDataBase</text>
</a>
</g>
</g>
<!-- Node0&#45;&gt;Node2 -->
<g id="edge2" class="edge">
<title>Node0&#45;&gt;Node2</title>
<path fill="none" stroke="midnightblue" d="M363.19,-98.3C381.53,-100.47 400.84,-102.76 418.75,-104.88"/>
<polygon fill="midnightblue" stroke="midnightblue" points="363.46,-94.8 353.11,-97.1 362.63,-101.76 363.46,-94.8"/>
</g>
<!-- Node9 -->
<g id="node10" class="node">
<title>Node9</title>
<g id="a_node10"><a xlink:href="interfacefiftyone_1_1pipeline_1_1engines_1_1data_1_1_aspect_data.html" target="_top" xlink:title="Represents a specialized ElementData instance that is generated by an AspectEngine.">
<polygon fill="none" stroke="black" points="410.5,-147.5 410.5,-177.5 574.5,-177.5 574.5,-147.5 410.5,-147.5"/>
<text text-anchor="start" x="418.5" y="-165.5" font-family="Helvetica,sans-Serif" font-size="10.00">fiftyone.pipeline.engines.data.</text>
<text text-anchor="middle" x="492.5" y="-154.5" font-family="Helvetica,sans-Serif" font-size="10.00">AspectData</text>
</a>
</g>
</g>
<!-- Node0&#45;&gt;Node9 -->
<g id="edge9" class="edge">
<title>Node0&#45;&gt;Node9</title>
<path fill="none" stroke="midnightblue" d="M318.83,-107.91C339.28,-117.72 365.11,-129.27 389,-137.5 399.65,-141.17 411.1,-144.52 422.35,-147.49"/>
<polygon fill="midnightblue" stroke="midnightblue" points="320.36,-104.76 309.83,-103.53 317.3,-111.05 320.36,-104.76"/>
</g>
<!-- Node11 -->
<g id="node12" class="node">
<title>Node11</title>
<g id="a_node12"><a xlink:href="interfacefiftyone_1_1pipeline_1_1javascriptbuilder_1_1data_1_1_java_script_builder_data.html" target="_top" xlink:title="Data containing the result of a JavaScriptBuilderElements processing.">
<polygon fill="none" stroke="black" points="389,-49.5 389,-79.5 596,-79.5 596,-49.5 389,-49.5"/>
<text text-anchor="start" x="397" y="-67.5" font-family="Helvetica,sans-Serif" font-size="10.00">fiftyone.pipeline.javascriptbuilder.data.</text>
<text text-anchor="middle" x="492.5" y="-56.5" font-family="Helvetica,sans-Serif" font-size="10.00">JavaScriptBuilderData</text>
</a>
</g>
</g>
<!-- Node0&#45;&gt;Node11 -->
<g id="edge12" class="edge">
<title>Node0&#45;&gt;Node11</title>
<path fill="none" stroke="midnightblue" d="M363.27,-79.09C371.7,-78.13 380.32,-77.15 388.92,-76.17"/>
<polygon fill="midnightblue" stroke="midnightblue" points="362.65,-75.63 353.11,-80.24 363.45,-82.59 362.65,-75.63"/>
</g>
<!-- Node12 -->
<g id="node13" class="node">
<title>Node12</title>
<g id="a_node13"><a xlink:href="interfacefiftyone_1_1pipeline_1_1jsonbuilder_1_1data_1_1_json_builder_data.html" target="_top" xlink:title="Data containing the result of a JsonBuilderElements processing.">
<polygon fill="none" stroke="black" points="403,-0.5 403,-30.5 582,-30.5 582,-0.5 403,-0.5"/>
<text text-anchor="start" x="411" y="-18.5" font-family="Helvetica,sans-Serif" font-size="10.00">fiftyone.pipeline.jsonbuilder.data.</text>
<text text-anchor="middle" x="492.5" y="-7.5" font-family="Helvetica,sans-Serif" font-size="10.00">JsonBuilderData</text>
</a>
</g>
</g>
<!-- Node0&#45;&gt;Node12 -->
<g id="edge14" class="edge">
<title>Node0&#45;&gt;Node12</title>
<path fill="none" stroke="midnightblue" d="M318.8,-69C339.24,-59.16 365.07,-47.62 389,-39.5 398.69,-36.21 409.05,-33.21 419.32,-30.54"/>
<polygon fill="midnightblue" stroke="midnightblue" points="317.26,-65.86 309.81,-73.39 320.33,-72.15 317.26,-65.86"/>
</g>
<!-- Node1 -->
<g id="node2" class="node">
<title>Node1</title>
<g id="a_node2"><a xlink:href="interfacefiftyone_1_1pipeline_1_1core_1_1data_1_1_data.html" target="_top" xlink:title="Represents a collection of property values.">
<polygon fill="none" stroke="black" points="0,-79 0,-98 170,-98 170,-79 0,-79"/>
<text text-anchor="middle" x="85" y="-86" font-family="Helvetica,sans-Serif" font-size="10.00">fiftyone.pipeline.core.data.Data</text>
</a>
</g>
</g>
<!-- Node1&#45;&gt;Node0 -->
<g id="edge1" class="edge">
<title>Node1&#45;&gt;Node0</title>
<path fill="none" stroke="midnightblue" d="M180.27,-88.5C188.91,-88.5 197.57,-88.5 205.97,-88.5"/>
<polygon fill="midnightblue" stroke="midnightblue" points="180.15,-85 170.15,-88.5 180.15,-92 180.15,-85"/>
</g>
<!-- Node3 -->
<g id="node4" class="node">
<title>Node3</title>
<g id="a_node4"><a xlink:href="classfiftyone_1_1pipeline_1_1engines_1_1data_1_1_aspect_data_base.html" target="_top" xlink:title="Abstract base class for AspectData which overrides the.">
<polygon fill="none" stroke="black" points="675.5,-147.5 675.5,-177.5 839.5,-177.5 839.5,-147.5 675.5,-147.5"/>
<text text-anchor="start" x="683.5" y="-165.5" font-family="Helvetica,sans-Serif" font-size="10.00">fiftyone.pipeline.engines.data.</text>
<text text-anchor="middle" x="757.5" y="-154.5" font-family="Helvetica,sans-Serif" font-size="10.00">AspectDataBase</text>
</a>
</g>
</g>
<!-- Node2&#45;&gt;Node3 -->
<g id="edge3" class="edge">
<title>Node2&#45;&gt;Node3</title>
<path fill="none" stroke="midnightblue" d="M576.22,-128.91C608.02,-134.84 644.25,-141.59 675.85,-147.47"/>
<polygon fill="midnightblue" stroke="midnightblue" points="576.53,-125.41 566.06,-127.02 575.25,-132.29 576.53,-125.41"/>
</g>
<!-- Node6 -->
<g id="node7" class="node">
<title>Node6</title>
<g id="a_node7"><a xlink:href="classfiftyone_1_1pipeline_1_1engines_1_1fiftyone_1_1data_1_1_set_headers_data.html" target="_top" xlink:title="[class] [constructor]">
<polygon fill="none" stroke="black" points="655.5,-98.5 655.5,-128.5 859.5,-128.5 859.5,-98.5 655.5,-98.5"/>
<text text-anchor="start" x="663.5" y="-116.5" font-family="Helvetica,sans-Serif" font-size="10.00">fiftyone.pipeline.engines.fiftyone.data.</text>
<text text-anchor="middle" x="757.5" y="-105.5" font-family="Helvetica,sans-Serif" font-size="10.00">SetHeadersData</text>
</a>
</g>
</g>
<!-- Node2&#45;&gt;Node6 -->
<g id="edge6" class="edge">
<title>Node2&#45;&gt;Node6</title>
<path fill="none" stroke="midnightblue" d="M576.24,-113.5C601.27,-113.5 629.04,-113.5 655.14,-113.5"/>
<polygon fill="midnightblue" stroke="midnightblue" points="576.06,-110 566.06,-113.5 576.06,-117 576.06,-110"/>
</g>
<!-- Node7 -->
<g id="node8" class="node">
<title>Node7</title>
<g id="a_node8"><a xlink:href="classfiftyone_1_1pipeline_1_1javascriptbuilder_1_1flowelements_1_1_java_script_builder_data_internal.html" target="_top" xlink:title="[class]">
<polygon fill="none" stroke="black" points="632,-49.5 632,-79.5 883,-79.5 883,-49.5 632,-49.5"/>
<text text-anchor="start" x="640" y="-67.5" font-family="Helvetica,sans-Serif" font-size="10.00">fiftyone.pipeline.javascriptbuilder.flowelements.</text>
<text text-anchor="middle" x="757.5" y="-56.5" font-family="Helvetica,sans-Serif" font-size="10.00">JavaScriptBuilderDataInternal</text>
</a>
</g>
</g>
<!-- Node2&#45;&gt;Node7 -->
<g id="edge7" class="edge">
<title>Node2&#45;&gt;Node7</title>
<path fill="none" stroke="midnightblue" d="M576.22,-98.09C608.02,-92.16 644.25,-85.41 675.85,-79.53"/>
<polygon fill="midnightblue" stroke="midnightblue" points="575.25,-94.71 566.06,-99.98 576.53,-101.59 575.25,-94.71"/>
</g>
<!-- Node8 -->
<g id="node9" class="node">
<title>Node8</title>
<g id="a_node9"><a xlink:href="classfiftyone_1_1pipeline_1_1jsonbuilder_1_1flowelements_1_1_json_builder_data_internal.html" target="_top" xlink:title="[class]">
<polygon fill="none" stroke="black" points="645.5,-0.5 645.5,-30.5 869.5,-30.5 869.5,-0.5 645.5,-0.5"/>
<text text-anchor="start" x="653.5" y="-18.5" font-family="Helvetica,sans-Serif" font-size="10.00">fiftyone.pipeline.jsonbuilder.flowelements.</text>
<text text-anchor="middle" x="757.5" y="-7.5" font-family="Helvetica,sans-Serif" font-size="10.00">JsonBuilderDataInternal</text>
</a>
</g>
</g>
<!-- Node2&#45;&gt;Node8 -->
<g id="edge8" class="edge">
<title>Node2&#45;&gt;Node8</title>
<path fill="none" stroke="midnightblue" d="M575.96,-98.94C583.02,-96.07 589.82,-92.62 596,-88.5 618.48,-73.51 609.16,-53.94 632,-39.5 637.4,-36.09 643.17,-33.14 649.16,-30.6"/>
<polygon fill="midnightblue" stroke="midnightblue" points="574.39,-95.79 566.2,-102.52 576.8,-102.36 574.39,-95.79"/>
</g>
<!-- Node4 -->
<g id="node5" class="node">
<title>Node4</title>
<g id="a_node5"><a xlink:href="classfiftyone_1_1pipeline_1_1cloudrequestengine_1_1flowelements_1_1_cloud_request_data_internal.html" target="_top" xlink:title=" ">
<polygon fill="none" stroke="black" points="919,-147.5 919,-177.5 1185,-177.5 1185,-147.5 919,-147.5"/>
<text text-anchor="start" x="927" y="-165.5" font-family="Helvetica,sans-Serif" font-size="10.00">fiftyone.pipeline.cloudrequestengine.flowelements.</text>
<text text-anchor="middle" x="1052" y="-154.5" font-family="Helvetica,sans-Serif" font-size="10.00">CloudRequestDataInternal</text>
</a>
</g>
</g>
<!-- Node3&#45;&gt;Node4 -->
<g id="edge4" class="edge">
<title>Node3&#45;&gt;Node4</title>
<path fill="none" stroke="midnightblue" d="M849.84,-162.5C871.75,-162.5 895.58,-162.5 918.92,-162.5"/>
<polygon fill="midnightblue" stroke="midnightblue" points="849.59,-159 839.59,-162.5 849.59,-166 849.59,-159"/>
</g>
<!-- Node5 -->
<g id="node6" class="node">
<title>Node5</title>
<g id="a_node6"><a xlink:href="classfiftyone_1_1pipeline_1_1cloudrequestengine_1_1data_1_1_cloud_request_data.html" target="_top" xlink:title=" ">
<polygon fill="none" stroke="black" points="1221,-147.5 1221,-177.5 1443,-177.5 1443,-147.5 1221,-147.5"/>
<text text-anchor="start" x="1229" y="-165.5" font-family="Helvetica,sans-Serif" font-size="10.00">fiftyone.pipeline.cloudrequestengine.data.</text>
<text text-anchor="middle" x="1332" y="-154.5" font-family="Helvetica,sans-Serif" font-size="10.00">CloudRequestData</text>
</a>
</g>
</g>
<!-- Node4&#45;&gt;Node5 -->
<g id="edge5" class="edge">
<title>Node4&#45;&gt;Node5</title>
<path fill="none" stroke="midnightblue" d="M1195.14,-162.5C1203.7,-162.5 1212.25,-162.5 1220.66,-162.5"/>
<polygon fill="midnightblue" stroke="midnightblue" points="1195.08,-159 1185.08,-162.5 1195.08,-166 1195.08,-159"/>
</g>
<!-- Node9&#45;&gt;Node3 -->
<g id="edge10" class="edge">
<title>Node9&#45;&gt;Node3</title>
<path fill="none" stroke="midnightblue" d="M584.82,-162.5C614.24,-162.5 646.62,-162.5 675.26,-162.5"/>
<polygon fill="midnightblue" stroke="midnightblue" points="584.55,-159 574.55,-162.5 584.55,-166 584.55,-159"/>
</g>
<!-- Node10 -->
<g id="node11" class="node">
<title>Node10</title>
<g id="a_node11"><a xlink:href="interfacefiftyone_1_1pipeline_1_1engines_1_1data_1_1_multi_profile_data.html" target="_top" xlink:title="Specialised implementation of AspectData where the instance contains a list of profiles.">
<polygon fill="none" stroke="black" points="675.5,-197 675.5,-238 839.5,-238 839.5,-197 675.5,-197"/>
<text text-anchor="start" x="683.5" y="-226" font-family="Helvetica,sans-Serif" font-size="10.00">fiftyone.pipeline.engines.data.</text>
<text text-anchor="start" x="683.5" y="-215" font-family="Helvetica,sans-Serif" font-size="10.00">MultiProfileData&lt; T extends</text>
<text text-anchor="middle" x="757.5" y="-204" font-family="Helvetica,sans-Serif" font-size="10.00"> AspectData &gt;</text>
</a>
</g>
</g>
<!-- Node9&#45;&gt;Node10 -->
<g id="edge11" class="edge">
<title>Node9&#45;&gt;Node10</title>
<path fill="none" stroke="midnightblue" d="M575.53,-179.65C607.36,-186.31 643.71,-193.91 675.45,-200.55"/>
<polygon fill="midnightblue" stroke="midnightblue" points="575.87,-176.15 565.37,-177.53 574.44,-183 575.87,-176.15"/>
</g>
<!-- Node11&#45;&gt;Node7 -->
<g id="edge13" class="edge">
<title>Node11&#45;&gt;Node7</title>
<path fill="none" stroke="midnightblue" d="M606.5,-64.5C614.91,-64.5 623.41,-64.5 631.88,-64.5"/>
<polygon fill="midnightblue" stroke="midnightblue" points="606.31,-61 596.31,-64.5 606.31,-68 606.31,-61"/>
</g>
<!-- Node12&#45;&gt;Node8 -->
<g id="edge15" class="edge">
<title>Node12&#45;&gt;Node8</title>
<path fill="none" stroke="midnightblue" d="M592.27,-15.5C609.59,-15.5 627.72,-15.5 645.35,-15.5"/>
<polygon fill="midnightblue" stroke="midnightblue" points="592.17,-12 582.17,-15.5 592.17,-19 592.17,-12"/>
</g>
</g>
</svg>
