<?xml version="1.0" encoding="UTF-8" standalone="no"?>
<!DOCTYPE svg PUBLIC "-//W3C//DTD SVG 1.1//EN"
 "http://www.w3.org/Graphics/SVG/1.1/DTD/svg11.dtd">
<!-- Generated by graphviz version 2.43.0 (0)
 -->
<!-- Title: fiftyone.pipeline.core.services.PipelineService Pages: 1 -->
<svg width="612pt" height="137pt"
 viewBox="0.00 0.00 612.00 137.00" xmlns="http://www.w3.org/2000/svg" xmlns:xlink="http://www.w3.org/1999/xlink">
<g id="graph0" class="graph" transform="scale(1 1) rotate(0) translate(4 133)">
<title>fiftyone.pipeline.core.services.PipelineService</title>
<!-- Node0 -->
<g id="node1" class="node">
<title>Node0</title>
<g id="a_node1"><a xlink:title="Service interface used by PipelineBuilder to hand out services to elements which required them.">
<polygon fill="#bfbfbf" stroke="black" points="0,-49.5 0,-79.5 166,-79.5 166,-49.5 0,-49.5"/>
<text text-anchor="start" x="8" y="-67.5" font-family="Helvetica,sans-Serif" font-size="10.00">fiftyone.pipeline.core.services.</text>
<text text-anchor="middle" x="83" y="-56.5" font-family="Helvetica,sans-Serif" font-size="10.00">PipelineService</text>
</a>
</g>
</g>
<!-- Node1 -->
<g id="node2" class="node">
<title>Node1</title>
<g id="a_node2"><a xlink:href="interfacefiftyone_1_1pipeline_1_1engines_1_1services_1_1_data_update_service.html" target="_top" xlink:title="The data update service keeps AspectEngine’s data files up to date.">
<polygon fill="none" stroke="black" points="202,-98.5 202,-128.5 385,-128.5 385,-98.5 202,-98.5"/>
<text text-anchor="start" x="210" y="-116.5" font-family="Helvetica,sans-Serif" font-size="10.00">fiftyone.pipeline.engines.services.</text>
<text text-anchor="middle" x="293.5" y="-105.5" font-family="Helvetica,sans-Serif" font-size="10.00">DataUpdateService</text>
</a>
</g>
</g>
<!-- Node0&#45;&gt;Node1 -->
<g id="edge1" class="edge">
<title>Node0&#45;&gt;Node1</title>
<path fill="none" stroke="midnightblue" d="M157.74,-81.83C180.89,-87.27 206.24,-93.23 228.65,-98.49"/>
<polygon fill="midnightblue" stroke="midnightblue" points="158.51,-78.42 147.97,-79.53 156.91,-85.23 158.51,-78.42"/>
</g>
<!-- Node3 -->
<g id="node4" class="node">
<title>Node3</title>
<g id="a_node4"><a xlink:href="interfacefiftyone_1_1pipeline_1_1engines_1_1services_1_1_http_client.html" target="_top" xlink:title="Interface used by the DataUpdateService to process HTTP requests.">
<polygon fill="none" stroke="black" points="202,-49.5 202,-79.5 385,-79.5 385,-49.5 202,-49.5"/>
<text text-anchor="start" x="210" y="-67.5" font-family="Helvetica,sans-Serif" font-size="10.00">fiftyone.pipeline.engines.services.</text>
<text text-anchor="middle" x="293.5" y="-56.5" font-family="Helvetica,sans-Serif" font-size="10.00">HttpClient</text>
</a>
</g>
</g>
<!-- Node0&#45;&gt;Node3 -->
<g id="edge3" class="edge">
<title>Node0&#45;&gt;Node3</title>
<path fill="none" stroke="midnightblue" d="M176.37,-64.5C184.84,-64.5 193.41,-64.5 201.86,-64.5"/>
<polygon fill="midnightblue" stroke="midnightblue" points="176.11,-61 166.11,-64.5 176.11,-68 176.11,-61"/>
</g>
<!-- Node5 -->
<g id="node6" class="node">
<title>Node5</title>
<g id="a_node6"><a xlink:href="interfacefiftyone_1_1pipeline_1_1engines_1_1services_1_1_missing_property_service.html" target="_top" xlink:title="Service used by AspectEngines to report the reason for a property not being present in the results.">
<polygon fill="none" stroke="black" points="202,-0.5 202,-30.5 385,-30.5 385,-0.5 202,-0.5"/>
<text text-anchor="start" x="210" y="-18.5" font-family="Helvetica,sans-Serif" font-size="10.00">fiftyone.pipeline.engines.services.</text>
<text text-anchor="middle" x="293.5" y="-7.5" font-family="Helvetica,sans-Serif" font-size="10.00">MissingPropertyService</text>
</a>
</g>
</g>
<!-- Node0&#45;&gt;Node5 -->
<g id="edge5" class="edge">
<title>Node0&#45;&gt;Node5</title>
<path fill="none" stroke="midnightblue" d="M157.74,-47.17C180.89,-41.73 206.24,-35.77 228.65,-30.51"/>
<polygon fill="midnightblue" stroke="midnightblue" points="156.91,-43.77 147.97,-49.47 158.51,-50.58 156.91,-43.77"/>
</g>
<!-- Node2 -->
<g id="node3" class="node">
<title>Node2</title>
<g id="a_node3"><a xlink:href="classfiftyone_1_1pipeline_1_1engines_1_1services_1_1_data_update_service_default.html" target="_top" xlink:title="Default singleton implementation of the DataUpdateService.">
<polygon fill="none" stroke="black" points="421,-98.5 421,-128.5 604,-128.5 604,-98.5 421,-98.5"/>
<text text-anchor="start" x="429" y="-116.5" font-family="Helvetica,sans-Serif" font-size="10.00">fiftyone.pipeline.engines.services.</text>
<text text-anchor="middle" x="512.5" y="-105.5" font-family="Helvetica,sans-Serif" font-size="10.00">DataUpdateServiceDefault</text>
</a>
</g>
</g>
<!-- Node1&#45;&gt;Node2 -->
<g id="edge2" class="edge">
<title>Node1&#45;&gt;Node2</title>
<path fill="none" stroke="midnightblue" d="M395.5,-113.5C403.92,-113.5 412.41,-113.5 420.74,-113.5"/>
<polygon fill="midnightblue" stroke="midnightblue" points="395.27,-110 385.27,-113.5 395.27,-117 395.27,-110"/>
</g>
<!-- Node4 -->
<g id="node5" class="node">
<title>Node4</title>
<g id="a_node5"><a xlink:href="classfiftyone_1_1pipeline_1_1engines_1_1services_1_1_http_client_default.html" target="_top" xlink:title=" ">
<polygon fill="none" stroke="black" points="421,-49.5 421,-79.5 604,-79.5 604,-49.5 421,-49.5"/>
<text text-anchor="start" x="429" y="-67.5" font-family="Helvetica,sans-Serif" font-size="10.00">fiftyone.pipeline.engines.services.</text>
<text text-anchor="middle" x="512.5" y="-56.5" font-family="Helvetica,sans-Serif" font-size="10.00">HttpClientDefault</text>
</a>
</g>
</g>
<!-- Node3&#45;&gt;Node4 -->
<g id="edge4" class="edge">
<title>Node3&#45;&gt;Node4</title>
<path fill="none" stroke="midnightblue" d="M395.5,-64.5C403.92,-64.5 412.41,-64.5 420.74,-64.5"/>
<polygon fill="midnightblue" stroke="midnightblue" points="395.27,-61 385.27,-64.5 395.27,-68 395.27,-61"/>
</g>
<!-- Node6 -->
<g id="node7" class="node">
<title>Node6</title>
<g id="a_node7"><a xlink:href="classfiftyone_1_1pipeline_1_1engines_1_1services_1_1_missing_property_service_default.html" target="_top" xlink:title="Default implementation of the MissingPropertyService interface.">
<polygon fill="none" stroke="black" points="421,-0.5 421,-30.5 604,-30.5 604,-0.5 421,-0.5"/>
<text text-anchor="start" x="429" y="-18.5" font-family="Helvetica,sans-Serif" font-size="10.00">fiftyone.pipeline.engines.services.</text>
<text text-anchor="middle" x="512.5" y="-7.5" font-family="Helvetica,sans-Serif" font-size="10.00">MissingPropertyServiceDefault</text>
</a>
</g>
</g>
<!-- Node5&#45;&gt;Node6 -->
<g id="edge6" class="edge">
<title>Node5&#45;&gt;Node6</title>
<path fill="none" stroke="midnightblue" d="M395.5,-15.5C403.92,-15.5 412.41,-15.5 420.74,-15.5"/>
<polygon fill="midnightblue" stroke="midnightblue" points="395.27,-12 385.27,-15.5 395.27,-19 395.27,-12"/>
</g>
</g>
</svg>
