<?xml version="1.0" encoding="UTF-8" standalone="no"?>
<!DOCTYPE svg PUBLIC "-//W3C//DTD SVG 1.1//EN"
 "http://www.w3.org/Graphics/SVG/1.1/DTD/svg11.dtd">
<!-- Generated by graphviz version 2.43.0 (0)
 -->
<!-- Title: fiftyone.pipeline.web.services.FlowDataProviderCore Pages: 1 -->
<svg width="663pt" height="88pt"
 viewBox="0.00 0.00 663.00 88.00" xmlns="http://www.w3.org/2000/svg" xmlns:xlink="http://www.w3.org/1999/xlink">
<g id="graph0" class="graph" transform="scale(1 1) rotate(0) translate(4 84)">
<title>fiftyone.pipeline.web.services.FlowDataProviderCore</title>
<!-- Node0 -->
<g id="node1" class="node">
<title>Node0</title>
<g id="a_node1"><a xlink:title="Provider to be injected into controllers to get the pre&#45;processed FlowData for the request being serv...">
<polygon fill="#bfbfbf" stroke="black" points="0,-24.5 0,-54.5 165,-54.5 165,-24.5 0,-24.5"/>
<text text-anchor="start" x="8" y="-42.5" font-family="Helvetica,sans-Serif" font-size="10.00">fiftyone.pipeline.web.services.</text>
<text text-anchor="middle" x="82.5" y="-31.5" font-family="Helvetica,sans-Serif" font-size="10.00">FlowDataProviderCore</text>
</a>
</g>
</g>
<!-- Node1 -->
<g id="node2" class="node">
<title>Node1</title>
<g id="a_node2"><a xlink:href="interfacefiftyone_1_1pipeline_1_1web_1_1mvc_1_1components_1_1_flow_data_provider.html" target="_top" xlink:title="Spring framework component for the FlowDataProviderCore.">
<polygon fill="none" stroke="black" points="201,-49.5 201,-79.5 410,-79.5 410,-49.5 201,-49.5"/>
<text text-anchor="start" x="209" y="-67.5" font-family="Helvetica,sans-Serif" font-size="10.00">fiftyone.pipeline.web.mvc.components.</text>
<text text-anchor="middle" x="305.5" y="-56.5" font-family="Helvetica,sans-Serif" font-size="10.00">FlowDataProvider</text>
</a>
</g>
</g>
<!-- Node0&#45;&gt;Node1 -->
<g id="edge1" class="edge">
<title>Node0&#45;&gt;Node1</title>
<path fill="none" stroke="midnightblue" d="M175.29,-49.88C183.66,-50.83 192.18,-51.79 200.64,-52.75"/>
<polygon fill="midnightblue" stroke="midnightblue" points="175.49,-46.38 165.16,-48.74 174.71,-53.34 175.49,-46.38"/>
</g>
<!-- Node3 -->
<g id="node4" class="node">
<title>Node3</title>
<g id="a_node4"><a xlink:href="classfiftyone_1_1pipeline_1_1web_1_1services_1_1_flow_data_provider_core_1_1_default.html" target="_top" xlink:title="Default implementation of the FlowDataProviderCore service.">
<polygon fill="none" stroke="black" points="223,-0.5 223,-30.5 388,-30.5 388,-0.5 223,-0.5"/>
<text text-anchor="start" x="231" y="-18.5" font-family="Helvetica,sans-Serif" font-size="10.00">fiftyone.pipeline.web.services.</text>
<text text-anchor="middle" x="305.5" y="-7.5" font-family="Helvetica,sans-Serif" font-size="10.00">FlowDataProviderCore.Default</text>
</a>
</g>
</g>
<!-- Node0&#45;&gt;Node3 -->
<g id="edge3" class="edge">
<title>Node0&#45;&gt;Node3</title>
<path fill="none" stroke="midnightblue" d="M175.41,-29.52C191.13,-27.81 207.37,-26.05 222.8,-24.37"/>
<polygon fill="midnightblue" stroke="midnightblue" points="174.73,-26.07 165.16,-30.63 175.48,-33.03 174.73,-26.07"/>
</g>
<!-- Node2 -->
<g id="node3" class="node">
<title>Node2</title>
<g id="a_node3"><a xlink:href="classfiftyone_1_1pipeline_1_1web_1_1mvc_1_1components_1_1_flow_data_provider_1_1_default.html" target="_top" xlink:title=" ">
<polygon fill="none" stroke="black" points="446,-24.5 446,-54.5 655,-54.5 655,-24.5 446,-24.5"/>
<text text-anchor="start" x="454" y="-42.5" font-family="Helvetica,sans-Serif" font-size="10.00">fiftyone.pipeline.web.mvc.components.</text>
<text text-anchor="middle" x="550.5" y="-31.5" font-family="Helvetica,sans-Serif" font-size="10.00">FlowDataProvider.Default</text>
</a>
</g>
</g>
<!-- Node1&#45;&gt;Node2 -->
<g id="edge2" class="edge">
<title>Node1&#45;&gt;Node2</title>
<path fill="none" stroke="midnightblue" d="M420.21,-52.8C428.71,-51.93 437.26,-51.05 445.7,-50.18"/>
<polygon fill="midnightblue" stroke="midnightblue" points="419.85,-49.32 410.26,-53.83 420.56,-56.28 419.85,-49.32"/>
</g>
<!-- Node3&#45;&gt;Node2 -->
<g id="edge4" class="edge">
<title>Node3&#45;&gt;Node2</title>
<path fill="none" stroke="midnightblue" d="M398.17,-24.55C413.69,-26.09 429.89,-27.69 445.68,-29.25"/>
<polygon fill="midnightblue" stroke="midnightblue" points="398.39,-21.06 388.09,-23.56 397.7,-28.02 398.39,-21.06"/>
</g>
</g>
</svg>
