<?xml version="1.0" encoding="UTF-8" standalone="no"?>
<!DOCTYPE svg PUBLIC "-//W3C//DTD SVG 1.1//EN"
 "http://www.w3.org/Graphics/SVG/1.1/DTD/svg11.dtd">
<!-- Generated by graphviz version 2.43.0 (0)
 -->
<!-- Title: fiftyone.pipeline.engines.flowelements.OnPremiseAspectEngine&lt; TData extends AspectData, TProperty extends AspectPropertyMetaData &gt; Pages: 1 -->
<svg width="2910pt" height="242pt"
 viewBox="0.00 0.00 2910.00 242.00" xmlns="http://www.w3.org/2000/svg" xmlns:xlink="http://www.w3.org/1999/xlink">
<g id="graph0" class="graph" transform="scale(1 1) rotate(0) translate(4 238)">
<title>fiftyone.pipeline.engines.flowelements.OnPremiseAspectEngine&lt; TData extends AspectData, TProperty extends AspectPropertyMetaData &gt;</title>
<!-- Node0 -->
<g id="node1" class="node">
<title>Node0</title>
<g id="a_node1"><a xlink:title="Aspect engine interface which processes data internally using a data file and populates the results.">
<polygon fill="#bfbfbf" stroke="black" points="1328,-104.5 1328,-156.5 1576,-156.5 1576,-104.5 1328,-104.5"/>
<text text-anchor="start" x="1336" y="-144.5" font-family="Helvetica,sans-Serif" font-size="10.00">fiftyone.pipeline.engines.flowelements.</text>
<text text-anchor="start" x="1336" y="-133.5" font-family="Helvetica,sans-Serif" font-size="10.00">OnPremiseAspectEngine&lt; TData extends</text>
<text text-anchor="start" x="1336" y="-122.5" font-family="Helvetica,sans-Serif" font-size="10.00"> AspectData, TProperty extends AspectProperty</text>
<text text-anchor="middle" x="1452" y="-111.5" font-family="Helvetica,sans-Serif" font-size="10.00">MetaData &gt;</text>
</a>
</g>
</g>
<!-- Node10 -->
<g id="node11" class="node">
<title>Node10</title>
<g id="a_node11"><a xlink:href="interfacefiftyone_1_1pipeline_1_1engines_1_1fiftyone_1_1flowelements_1_1_fifty_one_aspect_engine.html" target="_top" xlink:title="51Degrees specific Engine interface.">
<polygon fill="none" stroke="black" points="1886,-181.5 1886,-233.5 2054,-233.5 2054,-181.5 1886,-181.5"/>
<text text-anchor="start" x="1894" y="-221.5" font-family="Helvetica,sans-Serif" font-size="10.00">fiftyone::pipeline</text>
<text text-anchor="start" x="1894" y="-210.5" font-family="Helvetica,sans-Serif" font-size="10.00">::engines::fiftyone</text>
<text text-anchor="start" x="1894" y="-199.5" font-family="Helvetica,sans-Serif" font-size="10.00">::flowelements::FiftyOneAspect</text>
<text text-anchor="middle" x="1970" y="-188.5" font-family="Helvetica,sans-Serif" font-size="10.00">Engine&lt; TData, TProperty &gt;</text>
</a>
</g>
</g>
<!-- Node0&#45;&gt;Node10 -->
<g id="edge14" class="edge">
<title>Node0&#45;&gt;Node10</title>
<path fill="none" stroke="midnightblue" d="M1512.35,-160.75C1536.97,-171.85 1566.23,-183.23 1594,-189.5 1692.55,-211.76 1809.23,-213.66 1885.96,-211.7"/>
<polygon fill="midnightblue" stroke="midnightblue" points="1513.7,-157.52 1503.15,-156.52 1510.77,-163.87 1513.7,-157.52"/>
</g>
<!-- Node13 -->
<g id="node14" class="node">
<title>Node13</title>
<g id="a_node14"><a xlink:href="interfacefiftyone_1_1pipeline_1_1engines_1_1flowelements_1_1_on_premise_aspect_engine.html" target="_top" xlink:title=" ">
<polygon fill="none" stroke="black" points="1824,-99 1824,-162 2116,-162 2116,-99 1824,-99"/>
<text text-anchor="start" x="1832" y="-150" font-family="Helvetica,sans-Serif" font-size="10.00">fiftyone.pipeline.engines.flowelements.</text>
<text text-anchor="start" x="1832" y="-139" font-family="Helvetica,sans-Serif" font-size="10.00">OnPremiseAspectEngine&lt;? extends</text>
<text text-anchor="start" x="1832" y="-128" font-family="Helvetica,sans-Serif" font-size="10.00"> fiftyone.pipeline.engines.data.AspectData,</text>
<text text-anchor="start" x="1832" y="-117" font-family="Helvetica,sans-Serif" font-size="10.00"> ? extends fiftyone.pipeline.engines.data.AspectProperty</text>
<text text-anchor="middle" x="1970" y="-106" font-family="Helvetica,sans-Serif" font-size="10.00">MetaData &gt;</text>
</a>
</g>
</g>
<!-- Node0&#45;&gt;Node13 -->
<g id="edge17" class="edge">
<title>Node0&#45;&gt;Node13</title>
<path fill="none" stroke="orange" stroke-dasharray="5,2" d="M1586.41,-130.5C1659.16,-130.5 1749.3,-130.5 1823.81,-130.5"/>
<polygon fill="orange" stroke="orange" points="1586.27,-127 1576.27,-130.5 1586.27,-134 1586.27,-127"/>
<text text-anchor="start" x="1594" y="-177.5" font-family="Helvetica,sans-Serif" font-size="10.00"> &lt;? extends fiftyone</text>
<text text-anchor="start" x="1594" y="-166.5" font-family="Helvetica,sans-Serif" font-size="10.00">::pipeline::engines</text>
<text text-anchor="start" x="1594" y="-155.5" font-family="Helvetica,sans-Serif" font-size="10.00">::data::AspectData, </text>
<text text-anchor="start" x="1594" y="-144.5" font-family="Helvetica,sans-Serif" font-size="10.00">? extends fiftyone::pipeline</text>
<text text-anchor="middle" x="1700" y="-133.5" font-family="Helvetica,sans-Serif" font-size="10.00">::engines::data::AspectPropertyMetaData &gt;</text>
</g>
<!-- Node14 -->
<g id="node15" class="node">
<title>Node14</title>
<g id="a_node15"><a xlink:href="interfacefiftyone_1_1pipeline_1_1engines_1_1flowelements_1_1_on_premise_aspect_engine.html" target="_top" xlink:title=" ">
<polygon fill="none" stroke="black" points="1865.5,-39 1865.5,-80 2074.5,-80 2074.5,-39 1865.5,-39"/>
<text text-anchor="start" x="1873.5" y="-68" font-family="Helvetica,sans-Serif" font-size="10.00">fiftyone.pipeline.engines.flowelements.</text>
<text text-anchor="start" x="1873.5" y="-57" font-family="Helvetica,sans-Serif" font-size="10.00">OnPremiseAspectEngine&lt; TData,</text>
<text text-anchor="middle" x="1970" y="-46" font-family="Helvetica,sans-Serif" font-size="10.00"> TProperty &gt;</text>
</a>
</g>
</g>
<!-- Node0&#45;&gt;Node14 -->
<g id="edge18" class="edge">
<title>Node0&#45;&gt;Node14</title>
<path fill="none" stroke="orange" stroke-dasharray="5,2" d="M1586.21,-112.17C1673.18,-100.2 1785.08,-84.81 1865.4,-73.76"/>
<polygon fill="orange" stroke="orange" points="1585.7,-108.71 1576.27,-113.54 1586.65,-115.64 1585.7,-108.71"/>
<text text-anchor="middle" x="1700" y="-113.5" font-family="Helvetica,sans-Serif" font-size="10.00"> &lt; TData, TProperty &gt;</text>
</g>
<!-- Node1 -->
<g id="node2" class="node">
<title>Node1</title>
<g id="a_node2"><a xlink:href="interfacefiftyone_1_1pipeline_1_1engines_1_1flowelements_1_1_aspect_engine.html" target="_top" xlink:title=" ">
<polygon fill="none" stroke="black" points="1082,-115.5 1082,-145.5 1291,-145.5 1291,-115.5 1082,-115.5"/>
<text text-anchor="start" x="1090" y="-133.5" font-family="Helvetica,sans-Serif" font-size="10.00">fiftyone.pipeline.engines.flowelements.</text>
<text text-anchor="middle" x="1186.5" y="-122.5" font-family="Helvetica,sans-Serif" font-size="10.00">AspectEngine&lt; TData, TProperty &gt;</text>
</a>
</g>
</g>
<!-- Node1&#45;&gt;Node0 -->
<g id="edge1" class="edge">
<title>Node1&#45;&gt;Node0</title>
<path fill="none" stroke="midnightblue" d="M1301.42,-130.5C1310.11,-130.5 1318.92,-130.5 1327.67,-130.5"/>
<polygon fill="midnightblue" stroke="midnightblue" points="1301.26,-127 1291.26,-130.5 1301.26,-134 1301.26,-127"/>
</g>
<!-- Node2 -->
<g id="node3" class="node">
<title>Node2</title>
<g id="a_node3"><a xlink:href="interfacefiftyone_1_1pipeline_1_1engines_1_1flowelements_1_1_aspect_engine.html" target="_top" xlink:title="AspectEngines are a subset of FlowElements.">
<polygon fill="none" stroke="black" points="692,-110 692,-151 937,-151 937,-110 692,-110"/>
<text text-anchor="start" x="700" y="-139" font-family="Helvetica,sans-Serif" font-size="10.00">fiftyone.pipeline.engines.flowelements.</text>
<text text-anchor="start" x="700" y="-128" font-family="Helvetica,sans-Serif" font-size="10.00">AspectEngine&lt; TData extends AspectData,</text>
<text text-anchor="middle" x="814.5" y="-117" font-family="Helvetica,sans-Serif" font-size="10.00"> TProperty extends AspectPropertyMetaData &gt;</text>
</a>
</g>
</g>
<!-- Node2&#45;&gt;Node1 -->
<g id="edge2" class="edge">
<title>Node2&#45;&gt;Node1</title>
<path fill="none" stroke="orange" stroke-dasharray="5,2" d="M947.39,-130.5C991.53,-130.5 1040.07,-130.5 1081.74,-130.5"/>
<polygon fill="orange" stroke="orange" points="947.16,-127 937.16,-130.5 947.16,-134 947.16,-127"/>
<text text-anchor="middle" x="1009.5" y="-133.5" font-family="Helvetica,sans-Serif" font-size="10.00"> &lt; TData, TProperty &gt;</text>
</g>
<!-- Node3 -->
<g id="node4" class="node">
<title>Node3</title>
<g id="a_node4"><a xlink:href="interfacefiftyone_1_1pipeline_1_1core_1_1flowelements_1_1_flow_element.html" target="_top" xlink:title="A component that processes a FlowData (by examining its evidence, or by examining data processed by o...">
<polygon fill="none" stroke="black" points="458,-104.5 458,-156.5 588,-156.5 588,-104.5 458,-104.5"/>
<text text-anchor="start" x="466" y="-144.5" font-family="Helvetica,sans-Serif" font-size="10.00">fiftyone::pipeline</text>
<text text-anchor="start" x="466" y="-133.5" font-family="Helvetica,sans-Serif" font-size="10.00">::core::flowelements</text>
<text text-anchor="start" x="466" y="-122.5" font-family="Helvetica,sans-Serif" font-size="10.00">::FlowElement&lt; TData,</text>
<text text-anchor="middle" x="523" y="-111.5" font-family="Helvetica,sans-Serif" font-size="10.00"> TProperty &gt;</text>
</a>
</g>
</g>
<!-- Node3&#45;&gt;Node2 -->
<g id="edge3" class="edge">
<title>Node3&#45;&gt;Node2</title>
<path fill="none" stroke="midnightblue" d="M598.49,-130.5C626.91,-130.5 660.09,-130.5 691.77,-130.5"/>
<polygon fill="midnightblue" stroke="midnightblue" points="598.25,-127 588.25,-130.5 598.25,-134 598.25,-127"/>
</g>
<!-- Node4 -->
<g id="node5" class="node">
<title>Node4</title>
<g id="a_node5"><a xlink:title=" ">
<polygon fill="none" stroke="#bfbfbf" points="237,-121 237,-140 324,-140 324,-121 237,-121"/>
<text text-anchor="middle" x="280.5" y="-128" font-family="Helvetica,sans-Serif" font-size="10.00">AutoCloseable</text>
</a>
</g>
</g>
<!-- Node4&#45;&gt;Node3 -->
<g id="edge4" class="edge">
<title>Node4&#45;&gt;Node3</title>
<path fill="none" stroke="midnightblue" d="M334.62,-130.5C371,-130.5 419.44,-130.5 457.96,-130.5"/>
<polygon fill="midnightblue" stroke="midnightblue" points="334.22,-127 324.22,-130.5 334.22,-134 334.22,-127"/>
</g>
<!-- Node5 -->
<g id="node6" class="node">
<title>Node5</title>
<g id="a_node6"><a xlink:href="interfacefiftyone_1_1pipeline_1_1core_1_1data_1_1_element_data.html" target="_top" xlink:title="Represents property values that have be determined by a specific FlowElement based on the supplied ev...">
<polygon fill="none" stroke="black" points="207,-167.5 207,-197.5 354,-197.5 354,-167.5 207,-167.5"/>
<text text-anchor="start" x="215" y="-185.5" font-family="Helvetica,sans-Serif" font-size="10.00">fiftyone.pipeline.core.data.</text>
<text text-anchor="middle" x="280.5" y="-174.5" font-family="Helvetica,sans-Serif" font-size="10.00">ElementData</text>
</a>
</g>
</g>
<!-- Node5&#45;&gt;Node3 -->
<g id="edge5" class="edge">
<title>Node5&#45;&gt;Node3</title>
<path fill="none" stroke="orange" stroke-dasharray="5,2" d="M361.11,-165.29C392.56,-158.49 428.21,-150.78 457.94,-144.35"/>
<polygon fill="orange" stroke="orange" points="360.1,-161.93 351.06,-167.46 361.58,-168.77 360.1,-161.93"/>
<text text-anchor="middle" x="397.5" y="-165.5" font-family="Helvetica,sans-Serif" font-size="10.00"> TData</text>
</g>
<!-- Node8 -->
<g id="node9" class="node">
<title>Node8</title>
<g id="a_node9"><a xlink:href="interfacefiftyone_1_1pipeline_1_1engines_1_1data_1_1_aspect_data.html" target="_top" xlink:title="Represents a specialized ElementData instance that is generated by an AspectEngine.">
<polygon fill="none" stroke="black" points="441,-175.5 441,-205.5 605,-205.5 605,-175.5 441,-175.5"/>
<text text-anchor="start" x="449" y="-193.5" font-family="Helvetica,sans-Serif" font-size="10.00">fiftyone.pipeline.engines.data.</text>
<text text-anchor="middle" x="523" y="-182.5" font-family="Helvetica,sans-Serif" font-size="10.00">AspectData</text>
</a>
</g>
</g>
<!-- Node5&#45;&gt;Node8 -->
<g id="edge9" class="edge">
<title>Node5&#45;&gt;Node8</title>
<path fill="none" stroke="midnightblue" d="M364.36,-185.26C389.03,-186.08 416.03,-186.98 440.61,-187.79"/>
<polygon fill="midnightblue" stroke="midnightblue" points="364.42,-181.76 354.31,-184.92 364.19,-188.75 364.42,-181.76"/>
</g>
<!-- Node6 -->
<g id="node7" class="node">
<title>Node6</title>
<g id="a_node7"><a xlink:href="interfacefiftyone_1_1pipeline_1_1core_1_1data_1_1_data.html" target="_top" xlink:title="Represents a collection of property values.">
<polygon fill="none" stroke="black" points="0,-173 0,-192 170,-192 170,-173 0,-173"/>
<text text-anchor="middle" x="85" y="-180" font-family="Helvetica,sans-Serif" font-size="10.00">fiftyone.pipeline.core.data.Data</text>
</a>
</g>
</g>
<!-- Node6&#45;&gt;Node5 -->
<g id="edge6" class="edge">
<title>Node6&#45;&gt;Node5</title>
<path fill="none" stroke="midnightblue" d="M180.11,-182.5C189.07,-182.5 198.06,-182.5 206.77,-182.5"/>
<polygon fill="midnightblue" stroke="midnightblue" points="180.03,-179 170.03,-182.5 180.03,-186 180.03,-179"/>
</g>
<!-- Node7 -->
<g id="node8" class="node">
<title>Node7</title>
<g id="a_node8"><a xlink:href="interfacefiftyone_1_1pipeline_1_1core_1_1data_1_1_element_property_meta_data.html" target="_top" xlink:title="Defines details of a property that can be returned by a FlowElement.">
<polygon fill="none" stroke="black" points="207,-64.5 207,-94.5 354,-94.5 354,-64.5 207,-64.5"/>
<text text-anchor="start" x="215" y="-82.5" font-family="Helvetica,sans-Serif" font-size="10.00">fiftyone.pipeline.core.data.</text>
<text text-anchor="middle" x="280.5" y="-71.5" font-family="Helvetica,sans-Serif" font-size="10.00">ElementPropertyMetaData</text>
</a>
</g>
</g>
<!-- Node7&#45;&gt;Node3 -->
<g id="edge7" class="edge">
<title>Node7&#45;&gt;Node3</title>
<path fill="none" stroke="orange" stroke-dasharray="5,2" d="M362.3,-96.64C393.41,-103.23 428.47,-110.67 457.8,-116.89"/>
<polygon fill="orange" stroke="orange" points="362.87,-93.18 352.36,-94.53 361.41,-100.02 362.87,-93.18"/>
<text text-anchor="middle" x="397.5" y="-111.5" font-family="Helvetica,sans-Serif" font-size="10.00"> TProperty</text>
</g>
<!-- Node9 -->
<g id="node10" class="node">
<title>Node9</title>
<g id="a_node10"><a xlink:href="interfacefiftyone_1_1pipeline_1_1engines_1_1data_1_1_aspect_property_meta_data.html" target="_top" xlink:title="Holds details about a property that can be returned by an AspectEngine.">
<polygon fill="none" stroke="black" points="441,-55.5 441,-85.5 605,-85.5 605,-55.5 441,-55.5"/>
<text text-anchor="start" x="449" y="-73.5" font-family="Helvetica,sans-Serif" font-size="10.00">fiftyone.pipeline.engines.data.</text>
<text text-anchor="middle" x="523" y="-62.5" font-family="Helvetica,sans-Serif" font-size="10.00">AspectPropertyMetaData</text>
</a>
</g>
</g>
<!-- Node7&#45;&gt;Node9 -->
<g id="edge11" class="edge">
<title>Node7&#45;&gt;Node9</title>
<path fill="none" stroke="midnightblue" d="M364.36,-76.4C389.03,-75.48 416.03,-74.47 440.61,-73.55"/>
<polygon fill="midnightblue" stroke="midnightblue" points="364.17,-72.9 354.31,-76.78 364.43,-79.9 364.17,-72.9"/>
</g>
<!-- Node8&#45;&gt;Node0 -->
<g id="edge12" class="edge">
<title>Node8&#45;&gt;Node0</title>
<path fill="none" stroke="orange" stroke-dasharray="5,2" d="M615.21,-189.56C759.16,-187.35 1047.66,-179.99 1291,-155.5 1302.89,-154.3 1315.24,-152.82 1327.57,-151.17"/>
<polygon fill="orange" stroke="orange" points="615.05,-186.06 605.1,-189.71 615.15,-193.06 615.05,-186.06"/>
<text text-anchor="middle" x="1009.5" y="-181.5" font-family="Helvetica,sans-Serif" font-size="10.00"> TData</text>
</g>
<!-- Node8&#45;&gt;Node2 -->
<g id="edge8" class="edge">
<title>Node8&#45;&gt;Node2</title>
<path fill="none" stroke="orange" stroke-dasharray="5,2" d="M587.72,-172.96C599.41,-169.97 611.54,-167.02 623,-164.5 645.15,-159.62 668.86,-154.96 691.77,-150.72"/>
<polygon fill="orange" stroke="orange" points="586.82,-169.58 578.02,-175.48 588.58,-176.36 586.82,-169.58"/>
<text text-anchor="middle" x="648.5" y="-167.5" font-family="Helvetica,sans-Serif" font-size="10.00"> TData</text>
</g>
<!-- Node9&#45;&gt;Node0 -->
<g id="edge13" class="edge">
<title>Node9&#45;&gt;Node0</title>
<path fill="none" stroke="orange" stroke-dasharray="5,2" d="M615.2,-71.78C759.12,-74.46 1047.59,-82.59 1291,-106.5 1303.02,-107.68 1315.52,-109.14 1327.99,-110.76"/>
<polygon fill="orange" stroke="orange" points="615.15,-68.27 605.09,-71.59 615.02,-75.27 615.15,-68.27"/>
<text text-anchor="middle" x="1009.5" y="-91.5" font-family="Helvetica,sans-Serif" font-size="10.00"> TProperty</text>
</g>
<!-- Node9&#45;&gt;Node2 -->
<g id="edge10" class="edge">
<title>Node9&#45;&gt;Node2</title>
<path fill="none" stroke="orange" stroke-dasharray="5,2" d="M606.48,-87.59C640.14,-94.57 679.35,-102.7 714.53,-109.99"/>
<polygon fill="orange" stroke="orange" points="607.18,-84.17 596.68,-85.56 605.76,-91.02 607.18,-84.17"/>
<text text-anchor="middle" x="648.5" y="-103.5" font-family="Helvetica,sans-Serif" font-size="10.00"> TProperty</text>
</g>
<!-- Node11 -->
<g id="node12" class="node">
<title>Node11</title>
<g id="a_node12"><a xlink:href="interfacefiftyone_1_1pipeline_1_1engines_1_1fiftyone_1_1flowelements_1_1_fifty_one_aspect_engine.html" target="_top" xlink:title=" ">
<polygon fill="none" stroke="black" points="2261,-192.5 2261,-222.5 2509,-222.5 2509,-192.5 2261,-192.5"/>
<text text-anchor="start" x="2269" y="-210.5" font-family="Helvetica,sans-Serif" font-size="10.00">fiftyone.pipeline.engines.fiftyone.flowelements.</text>
<text text-anchor="middle" x="2385" y="-199.5" font-family="Helvetica,sans-Serif" font-size="10.00">FiftyOneAspectEngine&lt; TData, TProperty &gt;</text>
</a>
</g>
</g>
<!-- Node10&#45;&gt;Node11 -->
<g id="edge15" class="edge">
<title>Node10&#45;&gt;Node11</title>
<path fill="none" stroke="orange" stroke-dasharray="5,2" d="M2064.35,-207.5C2122.41,-207.5 2197.75,-207.5 2260.7,-207.5"/>
<polygon fill="orange" stroke="orange" points="2064.08,-204 2054.08,-207.5 2064.08,-211 2064.08,-204"/>
<text text-anchor="middle" x="2188.5" y="-210.5" font-family="Helvetica,sans-Serif" font-size="10.00"> &lt; TData, TProperty &gt;</text>
</g>
<!-- Node12 -->
<g id="node13" class="node">
<title>Node12</title>
<g id="a_node13"><a xlink:href="classfiftyone_1_1pipeline_1_1engines_1_1fiftyone_1_1flowelements_1_1_fifty_one_on_premise_aspect_engine_base.html" target="_top" xlink:title="51Degrees specific engine base class.">
<polygon fill="none" stroke="black" points="2654,-181.5 2654,-233.5 2902,-233.5 2902,-181.5 2654,-181.5"/>
<text text-anchor="start" x="2662" y="-221.5" font-family="Helvetica,sans-Serif" font-size="10.00">fiftyone.pipeline.engines.fiftyone.flowelements.</text>
<text text-anchor="start" x="2662" y="-210.5" font-family="Helvetica,sans-Serif" font-size="10.00">FiftyOneOnPremiseAspectEngineBase</text>
<text text-anchor="start" x="2662" y="-199.5" font-family="Helvetica,sans-Serif" font-size="10.00">&lt; TData extends AspectData, TProperty</text>
<text text-anchor="middle" x="2778" y="-188.5" font-family="Helvetica,sans-Serif" font-size="10.00"> extends FiftyOneAspectPropertyMetaData &gt;</text>
</a>
</g>
</g>
<!-- Node11&#45;&gt;Node12 -->
<g id="edge16" class="edge">
<title>Node11&#45;&gt;Node12</title>
<path fill="none" stroke="midnightblue" d="M2519.27,-207.5C2562.83,-207.5 2610.98,-207.5 2653.77,-207.5"/>
<polygon fill="midnightblue" stroke="midnightblue" points="2519.18,-204 2509.18,-207.5 2519.18,-211 2519.18,-204"/>
</g>
<!-- Node15 -->
<g id="node16" class="node">
<title>Node15</title>
<g id="a_node16"><a xlink:href="classfiftyone_1_1pipeline_1_1engines_1_1flowelements_1_1_on_premise_aspect_engine_base.html" target="_top" xlink:title="Base class for on&#45;premise aspect engines.">
<polygon fill="none" stroke="black" points="2278.5,-33.5 2278.5,-85.5 2491.5,-85.5 2491.5,-33.5 2278.5,-33.5"/>
<text text-anchor="start" x="2286.5" y="-73.5" font-family="Helvetica,sans-Serif" font-size="10.00">fiftyone.pipeline.engines.flowelements.</text>
<text text-anchor="start" x="2286.5" y="-62.5" font-family="Helvetica,sans-Serif" font-size="10.00">OnPremiseAspectEngineBase&lt; TData</text>
<text text-anchor="start" x="2286.5" y="-51.5" font-family="Helvetica,sans-Serif" font-size="10.00"> extends AspectData, TProperty extends</text>
<text text-anchor="middle" x="2385" y="-40.5" font-family="Helvetica,sans-Serif" font-size="10.00"> AspectPropertyMetaData &gt;</text>
</a>
</g>
</g>
<!-- Node14&#45;&gt;Node15 -->
<g id="edge19" class="edge">
<title>Node14&#45;&gt;Node15</title>
<path fill="none" stroke="midnightblue" d="M2085.04,-59.5C2145.52,-59.5 2219.33,-59.5 2278.48,-59.5"/>
<polygon fill="midnightblue" stroke="midnightblue" points="2084.68,-56 2074.68,-59.5 2084.68,-63 2084.68,-56"/>
</g>
<!-- Node16 -->
<g id="node17" class="node">
<title>Node16</title>
<g id="a_node17"><a xlink:href="classfiftyone_1_1pipeline_1_1engines_1_1fiftyone_1_1flowelements_1_1_fifty_one_on_premise_aspect_engine_base.html" target="_top" xlink:title="51Degrees specific engine base class.">
<polygon fill="none" stroke="black" points="2672,-0.5 2672,-52.5 2884,-52.5 2884,-0.5 2672,-0.5"/>
<text text-anchor="start" x="2680" y="-40.5" font-family="Helvetica,sans-Serif" font-size="10.00">fiftyone::pipeline</text>
<text text-anchor="start" x="2680" y="-29.5" font-family="Helvetica,sans-Serif" font-size="10.00">::engines::fiftyone</text>
<text text-anchor="start" x="2680" y="-18.5" font-family="Helvetica,sans-Serif" font-size="10.00">::flowelements::FiftyOneOnPremise</text>
<text text-anchor="middle" x="2778" y="-7.5" font-family="Helvetica,sans-Serif" font-size="10.00">AspectEngineBase&lt; TData, TProperty &gt;</text>
</a>
</g>
</g>
<!-- Node15&#45;&gt;Node16 -->
<g id="edge20" class="edge">
<title>Node15&#45;&gt;Node16</title>
<path fill="none" stroke="midnightblue" d="M2501.85,-49.72C2555.79,-45.17 2619.48,-39.79 2671.99,-35.36"/>
<polygon fill="midnightblue" stroke="midnightblue" points="2501.22,-46.26 2491.55,-50.59 2501.81,-53.24 2501.22,-46.26"/>
</g>
<!-- Node17 -->
<g id="node18" class="node">
<title>Node17</title>
<g id="a_node18"><a xlink:href="classfiftyone_1_1pipeline_1_1engines_1_1flowelements_1_1_on_premise_aspect_engine_base.html" target="_top" xlink:title=" ">
<polygon fill="none" stroke="black" points="2673.5,-72 2673.5,-113 2882.5,-113 2882.5,-72 2673.5,-72"/>
<text text-anchor="start" x="2681.5" y="-101" font-family="Helvetica,sans-Serif" font-size="10.00">fiftyone.pipeline.engines.flowelements.</text>
<text text-anchor="start" x="2681.5" y="-90" font-family="Helvetica,sans-Serif" font-size="10.00">OnPremiseAspectEngineBase&lt; TData,</text>
<text text-anchor="middle" x="2778" y="-79" font-family="Helvetica,sans-Serif" font-size="10.00"> TProperty &gt;</text>
</a>
</g>
</g>
<!-- Node15&#45;&gt;Node17 -->
<g id="edge21" class="edge">
<title>Node15&#45;&gt;Node17</title>
<path fill="none" stroke="orange" stroke-dasharray="5,2" d="M2501.6,-69.26C2556.05,-73.85 2620.49,-79.29 2673.34,-83.75"/>
<polygon fill="orange" stroke="orange" points="2501.81,-65.76 2491.55,-68.41 2501.22,-72.74 2501.81,-65.76"/>
<text text-anchor="middle" x="2581.5" y="-83.5" font-family="Helvetica,sans-Serif" font-size="10.00"> &lt; TData, TProperty &gt;</text>
</g>
</g>
</svg>
