<?xml version="1.0" encoding="UTF-8" standalone="no"?>
<!DOCTYPE svg PUBLIC "-//W3C//DTD SVG 1.1//EN"
 "http://www.w3.org/Graphics/SVG/1.1/DTD/svg11.dtd">
<!-- Generated by graphviz version 2.43.0 (0)
 -->
<!-- Title: fiftyone.pipeline.web.services.WebRequestEvidenceServiceCore Pages: 1 -->
<svg width="676pt" height="88pt"
 viewBox="0.00 0.00 676.00 88.00" xmlns="http://www.w3.org/2000/svg" xmlns:xlink="http://www.w3.org/1999/xlink">
<g id="graph0" class="graph" transform="scale(1 1) rotate(0) translate(4 84)">
<title>fiftyone.pipeline.web.services.WebRequestEvidenceServiceCore</title>
<!-- Node0 -->
<g id="node1" class="node">
<title>Node0</title>
<g id="a_node1"><a xlink:title="Service used to populate the Evidence from a HttpServletRequest ready for it to be processed by the P...">
<polygon fill="#bfbfbf" stroke="black" points="0,-24.5 0,-54.5 180,-54.5 180,-24.5 0,-24.5"/>
<text text-anchor="start" x="8" y="-42.5" font-family="Helvetica,sans-Serif" font-size="10.00">fiftyone.pipeline.web.services.</text>
<text text-anchor="middle" x="90" y="-31.5" font-family="Helvetica,sans-Serif" font-size="10.00">WebRequestEvidenceServiceCore</text>
</a>
</g>
</g>
<!-- Node1 -->
<g id="node2" class="node">
<title>Node1</title>
<g id="a_node2"><a xlink:href="interfacefiftyone_1_1pipeline_1_1web_1_1mvc_1_1services_1_1_web_request_evidence_service.html" target="_top" xlink:title="Spring framework service for the WebRequestEvidenceServiceCore.">
<polygon fill="none" stroke="black" points="231,-49.5 231,-79.5 420,-79.5 420,-49.5 231,-49.5"/>
<text text-anchor="start" x="239" y="-67.5" font-family="Helvetica,sans-Serif" font-size="10.00">fiftyone.pipeline.web.mvc.services.</text>
<text text-anchor="middle" x="325.5" y="-56.5" font-family="Helvetica,sans-Serif" font-size="10.00">WebRequestEvidenceService</text>
</a>
</g>
</g>
<!-- Node0&#45;&gt;Node1 -->
<g id="edge1" class="edge">
<title>Node0&#45;&gt;Node1</title>
<path fill="none" stroke="midnightblue" d="M190.4,-50.14C203.74,-51.57 217.38,-53.03 230.62,-54.45"/>
<polygon fill="midnightblue" stroke="midnightblue" points="190.59,-46.64 180.28,-49.06 189.85,-53.6 190.59,-46.64"/>
</g>
<!-- Node3 -->
<g id="node4" class="node">
<title>Node3</title>
<g id="a_node4"><a xlink:href="classfiftyone_1_1pipeline_1_1web_1_1services_1_1_web_request_evidence_service_core_1_1_default.html" target="_top" xlink:title="Default implementation of the WebRequestEvidenceServiceCore service.">
<polygon fill="none" stroke="black" points="216,-0.5 216,-30.5 435,-30.5 435,-0.5 216,-0.5"/>
<text text-anchor="start" x="224" y="-18.5" font-family="Helvetica,sans-Serif" font-size="10.00">fiftyone.pipeline.web.services.</text>
<text text-anchor="middle" x="325.5" y="-7.5" font-family="Helvetica,sans-Serif" font-size="10.00">WebRequestEvidenceServiceCore.Default</text>
</a>
</g>
</g>
<!-- Node0&#45;&gt;Node3 -->
<g id="edge3" class="edge">
<title>Node0&#45;&gt;Node3</title>
<path fill="none" stroke="midnightblue" d="M190.41,-29.28C198.77,-28.42 207.26,-27.55 215.69,-26.68"/>
<polygon fill="midnightblue" stroke="midnightblue" points="189.87,-25.82 180.28,-30.32 190.58,-32.78 189.87,-25.82"/>
</g>
<!-- Node2 -->
<g id="node3" class="node">
<title>Node2</title>
<g id="a_node3"><a xlink:href="classfiftyone_1_1pipeline_1_1web_1_1mvc_1_1services_1_1_web_request_evidence_service_1_1_default.html" target="_top" xlink:title=" ">
<polygon fill="none" stroke="black" points="471,-24.5 471,-54.5 668,-54.5 668,-24.5 471,-24.5"/>
<text text-anchor="start" x="479" y="-42.5" font-family="Helvetica,sans-Serif" font-size="10.00">fiftyone.pipeline.web.mvc.services.</text>
<text text-anchor="middle" x="569.5" y="-31.5" font-family="Helvetica,sans-Serif" font-size="10.00">WebRequestEvidenceService.Default</text>
</a>
</g>
</g>
<!-- Node1&#45;&gt;Node2 -->
<g id="edge2" class="edge">
<title>Node1&#45;&gt;Node2</title>
<path fill="none" stroke="midnightblue" d="M430.27,-53.78C443.71,-52.39 457.44,-50.97 470.78,-49.59"/>
<polygon fill="midnightblue" stroke="midnightblue" points="429.65,-50.33 420.06,-54.83 430.37,-57.29 429.65,-50.33"/>
</g>
<!-- Node3&#45;&gt;Node2 -->
<g id="edge4" class="edge">
<title>Node3&#45;&gt;Node2</title>
<path fill="none" stroke="midnightblue" d="M445.21,-27.27C453.83,-28.13 462.46,-28.98 470.94,-29.82"/>
<polygon fill="midnightblue" stroke="midnightblue" points="445.41,-23.78 435.11,-26.27 444.72,-30.74 445.41,-23.78"/>
</g>
</g>
</svg>
