<?xml version="1.0" encoding="UTF-8" standalone="no"?>
<!DOCTYPE svg PUBLIC "-//W3C//DTD SVG 1.1//EN"
 "http://www.w3.org/Graphics/SVG/1.1/DTD/svg11.dtd">
<!-- Generated by graphviz version 2.43.0 (0)
 -->
<!-- Title: fiftyone.pipeline.engines.caching.FlowCache Pages: 1 -->
<svg width="194pt" height="378pt"
 viewBox="0.00 0.00 194.00 378.00" xmlns="http://www.w3.org/2000/svg" xmlns:xlink="http://www.w3.org/1999/xlink">
<g id="graph0" class="graph" transform="scale(1 1) rotate(0) translate(4 374)">
<title>fiftyone.pipeline.engines.caching.FlowCache</title>
<!-- Node7 -->
<g id="node1" class="node">
<title>Node7</title>
<g id="a_node1"><a xlink:title="Used to cache results from individual flow elements in the pipeline.">
<polygon fill="#bfbfbf" stroke="black" points="3,-0.5 3,-30.5 183,-30.5 183,-0.5 3,-0.5"/>
<text text-anchor="start" x="11" y="-18.5" font-family="Helvetica,sans-Serif" font-size="10.00">fiftyone.pipeline.engines.caching.</text>
<text text-anchor="middle" x="93" y="-7.5" font-family="Helvetica,sans-Serif" font-size="10.00">FlowCache</text>
</a>
</g>
</g>
<!-- Node8 -->
<g id="node2" class="node">
<title>Node8</title>
<g id="a_node2"><a xlink:href="interfacefiftyone_1_1pipeline_1_1engines_1_1caching_1_1_data_keyed_cache.html" target="_top" xlink:title=" ">
<polygon fill="none" stroke="black" points="0,-68.5 0,-98.5 186,-98.5 186,-68.5 0,-68.5"/>
<text text-anchor="start" x="8" y="-86.5" font-family="Helvetica,sans-Serif" font-size="10.00">fiftyone.pipeline.engines.caching.</text>
<text text-anchor="middle" x="93" y="-75.5" font-family="Helvetica,sans-Serif" font-size="10.00">DataKeyedCache&lt; ElementData &gt;</text>
</a>
</g>
</g>
<!-- Node8&#45;&gt;Node7 -->
<g id="edge1" class="edge">
<title>Node8&#45;&gt;Node7</title>
<path fill="none" stroke="midnightblue" d="M93,-58.03C93,-48.86 93,-38.74 93,-30.79"/>
<polygon fill="midnightblue" stroke="midnightblue" points="89.5,-58.18 93,-68.18 96.5,-58.18 89.5,-58.18"/>
</g>
<!-- Node9 -->
<g id="node3" class="node">
<title>Node9</title>
<g id="a_node3"><a xlink:href="interfacefiftyone_1_1pipeline_1_1engines_1_1caching_1_1_data_keyed_cache.html" target="_top" xlink:title="Represents a put cache where the key is a FlowData instance.">
<polygon fill="none" stroke="black" points="3,-146.5 3,-176.5 183,-176.5 183,-146.5 3,-146.5"/>
<text text-anchor="start" x="11" y="-164.5" font-family="Helvetica,sans-Serif" font-size="10.00">fiftyone.pipeline.engines.caching.</text>
<text text-anchor="middle" x="93" y="-153.5" font-family="Helvetica,sans-Serif" font-size="10.00">DataKeyedCache&lt; V &gt;</text>
</a>
</g>
</g>
<!-- Node9&#45;&gt;Node8 -->
<g id="edge2" class="edge">
<title>Node9&#45;&gt;Node8</title>
<path fill="none" stroke="orange" stroke-dasharray="5,2" d="M93,-136.09C93,-123.76 93,-109.22 93,-98.73"/>
<polygon fill="orange" stroke="orange" points="89.5,-136.2 93,-146.2 96.5,-136.21 89.5,-136.2"/>
<text text-anchor="middle" x="138" y="-120" font-family="Helvetica,sans-Serif" font-size="10.00"> &lt; ElementData &gt;</text>
</g>
<!-- Node10 -->
<g id="node4" class="node">
<title>Node10</title>
<g id="a_node4"><a xlink:href="interfacefiftyone_1_1caching_1_1_put_cache.html" target="_top" xlink:title="A cache that supports a thread safe put method for inserting to cache.">
<polygon fill="none" stroke="black" points="21,-214.5 21,-244.5 165,-244.5 165,-214.5 21,-214.5"/>
<text text-anchor="start" x="29" y="-232.5" font-family="Helvetica,sans-Serif" font-size="10.00">fiftyone::caching::</text>
<text text-anchor="middle" x="93" y="-221.5" font-family="Helvetica,sans-Serif" font-size="10.00">PutCache&lt; FlowData, V &gt;</text>
</a>
</g>
</g>
<!-- Node10&#45;&gt;Node9 -->
<g id="edge3" class="edge">
<title>Node10&#45;&gt;Node9</title>
<path fill="none" stroke="midnightblue" d="M93,-204.03C93,-194.86 93,-184.74 93,-176.79"/>
<polygon fill="midnightblue" stroke="midnightblue" points="89.5,-204.18 93,-214.18 96.5,-204.18 89.5,-204.18"/>
</g>
<!-- Node11 -->
<g id="node5" class="node">
<title>Node11</title>
<g id="a_node5"><a xlink:href="interfacefiftyone_1_1caching_1_1_cache.html" target="_top" xlink:title="Base cache interface which declares only the get method and the types of key and value stored in the ...">
<polygon fill="none" stroke="black" points="41.5,-282.5 41.5,-312.5 144.5,-312.5 144.5,-282.5 41.5,-282.5"/>
<text text-anchor="start" x="49.5" y="-300.5" font-family="Helvetica,sans-Serif" font-size="10.00">fiftyone::caching::</text>
<text text-anchor="middle" x="93" y="-289.5" font-family="Helvetica,sans-Serif" font-size="10.00">Cache&lt; K, V &gt;</text>
</a>
</g>
</g>
<!-- Node11&#45;&gt;Node10 -->
<g id="edge4" class="edge">
<title>Node11&#45;&gt;Node10</title>
<path fill="none" stroke="midnightblue" d="M93,-272.03C93,-262.86 93,-252.74 93,-244.79"/>
<polygon fill="midnightblue" stroke="midnightblue" points="89.5,-272.18 93,-282.18 96.5,-272.18 89.5,-272.18"/>
</g>
<!-- Node12 -->
<g id="node6" class="node">
<title>Node12</title>
<g id="a_node6"><a xlink:title=" ">
<polygon fill="none" stroke="#bfbfbf" points="60.5,-350.5 60.5,-369.5 125.5,-369.5 125.5,-350.5 60.5,-350.5"/>
<text text-anchor="middle" x="93" y="-357.5" font-family="Helvetica,sans-Serif" font-size="10.00">Closeable</text>
</a>
</g>
</g>
<!-- Node12&#45;&gt;Node11 -->
<g id="edge5" class="edge">
<title>Node12&#45;&gt;Node11</title>
<path fill="none" stroke="midnightblue" d="M93,-340.22C93,-331.36 93,-320.96 93,-312.76"/>
<polygon fill="midnightblue" stroke="midnightblue" points="89.5,-340.33 93,-350.33 96.5,-340.33 89.5,-340.33"/>
</g>
</g>
</svg>
