<?xml version="1.0" encoding="UTF-8" standalone="no"?>
<!DOCTYPE svg PUBLIC "-//W3C//DTD SVG 1.1//EN"
 "http://www.w3.org/Graphics/SVG/1.1/DTD/svg11.dtd">
<!-- Generated by graphviz version 2.43.0 (0)
 -->
<!-- Title: fiftyone.pipeline.core.flowelements.PipelineBuilderFromConfiguration Pages: 1 -->
<svg width="256pt" height="173pt"
 viewBox="0.00 0.00 256.00 173.00" xmlns="http://www.w3.org/2000/svg" xmlns:xlink="http://www.w3.org/1999/xlink">
<g id="graph0" class="graph" transform="scale(1 1) rotate(0) translate(4 169)">
<title>fiftyone.pipeline.core.flowelements.PipelineBuilderFromConfiguration</title>
<!-- Node0 -->
<g id="node1" class="node">
<title>Node0</title>
<g id="a_node1"><a xlink:title="Pipeline builders implementing this interface are capable of building a Pipeline based on a supplied ...">
<polygon fill="#bfbfbf" stroke="black" points="28.5,-134.5 28.5,-164.5 219.5,-164.5 219.5,-134.5 28.5,-134.5"/>
<text text-anchor="start" x="36.5" y="-152.5" font-family="Helvetica,sans-Serif" font-size="10.00">fiftyone.pipeline.core.flowelements.</text>
<text text-anchor="middle" x="124" y="-141.5" font-family="Helvetica,sans-Serif" font-size="10.00">PipelineBuilderFromConfiguration</text>
</a>
</g>
</g>
<!-- Node1 -->
<g id="node2" class="node">
<title>Node1</title>
<g id="a_node2"><a xlink:href="classfiftyone_1_1pipeline_1_1core_1_1flowelements_1_1_pipeline_builder.html" target="_top" xlink:title="The PipelineBuilder follows the fluent builder pattern.">
<polygon fill="none" stroke="black" points="28.5,-67.5 28.5,-97.5 219.5,-97.5 219.5,-67.5 28.5,-67.5"/>
<text text-anchor="start" x="36.5" y="-85.5" font-family="Helvetica,sans-Serif" font-size="10.00">fiftyone.pipeline.core.flowelements.</text>
<text text-anchor="middle" x="124" y="-74.5" font-family="Helvetica,sans-Serif" font-size="10.00">PipelineBuilder</text>
</a>
</g>
</g>
<!-- Node0&#45;&gt;Node1 -->
<g id="edge1" class="edge">
<title>Node0&#45;&gt;Node1</title>
<path fill="none" stroke="midnightblue" d="M124,-124.11C124,-115.15 124,-105.32 124,-97.58"/>
<polygon fill="midnightblue" stroke="midnightblue" points="120.5,-124.4 124,-134.4 127.5,-124.4 120.5,-124.4"/>
</g>
<!-- Node2 -->
<g id="node3" class="node">
<title>Node2</title>
<g id="a_node3"><a xlink:href="classfiftyone_1_1pipeline_1_1engines_1_1fiftyone_1_1flowelements_1_1_fifty_one_pipeline_builder.html" target="_top" xlink:title="Pipeline builder class that allows the 51Degrees share usage element to be enabled/disabled.">
<polygon fill="none" stroke="black" points="0,-0.5 0,-30.5 248,-30.5 248,-0.5 0,-0.5"/>
<text text-anchor="start" x="8" y="-18.5" font-family="Helvetica,sans-Serif" font-size="10.00">fiftyone.pipeline.engines.fiftyone.flowelements.</text>
<text text-anchor="middle" x="124" y="-7.5" font-family="Helvetica,sans-Serif" font-size="10.00">FiftyOnePipelineBuilder</text>
</a>
</g>
</g>
<!-- Node1&#45;&gt;Node2 -->
<g id="edge2" class="edge">
<title>Node1&#45;&gt;Node2</title>
<path fill="none" stroke="midnightblue" d="M124,-57.11C124,-48.15 124,-38.32 124,-30.58"/>
<polygon fill="midnightblue" stroke="midnightblue" points="120.5,-57.4 124,-67.4 127.5,-57.4 120.5,-57.4"/>
</g>
</g>
</svg>
