<?xml version="1.0" encoding="UTF-8" standalone="no"?>
<!DOCTYPE svg PUBLIC "-//W3C//DTD SVG 1.1//EN"
 "http://www.w3.org/Graphics/SVG/1.1/DTD/svg11.dtd">
<!-- Generated by graphviz version 2.43.0 (0)
 -->
<!-- Title: fiftyone.pipeline.web.services.UACHServiceCore Pages: 1 -->
<svg width="623pt" height="88pt"
 viewBox="0.00 0.00 623.00 88.00" xmlns="http://www.w3.org/2000/svg" xmlns:xlink="http://www.w3.org/1999/xlink">
<g id="graph0" class="graph" transform="scale(1 1) rotate(0) translate(4 84)">
<title>fiftyone.pipeline.web.services.UACHServiceCore</title>
<!-- Node0 -->
<g id="node1" class="node">
<title>Node0</title>
<g id="a_node1"><a xlink:title="Service to set HTTP headers in the response.">
<polygon fill="#bfbfbf" stroke="black" points="0,-24.5 0,-54.5 165,-54.5 165,-24.5 0,-24.5"/>
<text text-anchor="start" x="8" y="-42.5" font-family="Helvetica,sans-Serif" font-size="10.00">fiftyone.pipeline.web.services.</text>
<text text-anchor="middle" x="82.5" y="-31.5" font-family="Helvetica,sans-Serif" font-size="10.00">UACHServiceCore</text>
</a>
</g>
</g>
<!-- Node1 -->
<g id="node2" class="node">
<title>Node1</title>
<g id="a_node2"><a xlink:href="interfacefiftyone_1_1pipeline_1_1web_1_1mvc_1_1services_1_1_u_a_c_h_service.html" target="_top" xlink:title="Spring framework service for the UACHServiceCore.">
<polygon fill="none" stroke="black" points="201,-49.5 201,-79.5 390,-79.5 390,-49.5 201,-49.5"/>
<text text-anchor="start" x="209" y="-67.5" font-family="Helvetica,sans-Serif" font-size="10.00">fiftyone.pipeline.web.mvc.services.</text>
<text text-anchor="middle" x="295.5" y="-56.5" font-family="Helvetica,sans-Serif" font-size="10.00">UACHService</text>
</a>
</g>
</g>
<!-- Node0&#45;&gt;Node1 -->
<g id="edge1" class="edge">
<title>Node0&#45;&gt;Node1</title>
<path fill="none" stroke="midnightblue" d="M175.05,-50.35C183.6,-51.36 192.27,-52.39 200.84,-53.4"/>
<polygon fill="midnightblue" stroke="midnightblue" points="175.42,-46.87 165.08,-49.17 174.6,-53.82 175.42,-46.87"/>
</g>
<!-- Node3 -->
<g id="node4" class="node">
<title>Node3</title>
<g id="a_node4"><a xlink:href="classfiftyone_1_1pipeline_1_1web_1_1services_1_1_u_a_c_h_service_core_1_1_default.html" target="_top" xlink:title="Default implementation of the UACHServiceCore service.">
<polygon fill="none" stroke="black" points="213,-0.5 213,-30.5 378,-30.5 378,-0.5 213,-0.5"/>
<text text-anchor="start" x="221" y="-18.5" font-family="Helvetica,sans-Serif" font-size="10.00">fiftyone.pipeline.web.services.</text>
<text text-anchor="middle" x="295.5" y="-7.5" font-family="Helvetica,sans-Serif" font-size="10.00">UACHServiceCore.Default</text>
</a>
</g>
</g>
<!-- Node0&#45;&gt;Node3 -->
<g id="edge3" class="edge">
<title>Node0&#45;&gt;Node3</title>
<path fill="none" stroke="midnightblue" d="M175.07,-29.08C187.62,-27.66 200.43,-26.2 212.79,-24.79"/>
<polygon fill="midnightblue" stroke="midnightblue" points="174.62,-25.61 165.08,-30.22 175.41,-32.57 174.62,-25.61"/>
</g>
<!-- Node2 -->
<g id="node3" class="node">
<title>Node2</title>
<g id="a_node3"><a xlink:href="classfiftyone_1_1pipeline_1_1web_1_1mvc_1_1services_1_1_u_a_c_h_service_1_1_default.html" target="_top" xlink:title=" ">
<polygon fill="none" stroke="black" points="426,-24.5 426,-54.5 615,-54.5 615,-24.5 426,-24.5"/>
<text text-anchor="start" x="434" y="-42.5" font-family="Helvetica,sans-Serif" font-size="10.00">fiftyone.pipeline.web.mvc.services.</text>
<text text-anchor="middle" x="520.5" y="-31.5" font-family="Helvetica,sans-Serif" font-size="10.00">UACHService.Default</text>
</a>
</g>
</g>
<!-- Node1&#45;&gt;Node2 -->
<g id="edge2" class="edge">
<title>Node1&#45;&gt;Node2</title>
<path fill="none" stroke="midnightblue" d="M400.11,-52.88C408.67,-51.92 417.3,-50.96 425.78,-50.01"/>
<polygon fill="midnightblue" stroke="midnightblue" points="399.65,-49.41 390.1,-54.01 400.43,-56.37 399.65,-49.41"/>
</g>
<!-- Node3&#45;&gt;Node2 -->
<g id="edge4" class="edge">
<title>Node3&#45;&gt;Node2</title>
<path fill="none" stroke="midnightblue" d="M388.49,-25.4C400.76,-26.72 413.36,-28.08 425.67,-29.4"/>
<polygon fill="midnightblue" stroke="midnightblue" points="388.59,-21.89 378.27,-24.3 387.84,-28.85 388.59,-21.89"/>
</g>
</g>
</svg>
