<?xml version="1.0" encoding="UTF-8" standalone="no"?>
<!DOCTYPE svg PUBLIC "-//W3C//DTD SVG 1.1//EN"
 "http://www.w3.org/Graphics/SVG/1.1/DTD/svg11.dtd">
<!-- Generated by graphviz version 2.43.0 (0)
 -->
<!-- Title: fiftyone.pipeline.jsonbuilder.flowelements.JsonBuilder Pages: 1 -->
<svg width="889pt" height="127pt"
 viewBox="0.00 0.00 889.00 126.50" xmlns="http://www.w3.org/2000/svg" xmlns:xlink="http://www.w3.org/1999/xlink">
<g id="graph0" class="graph" transform="scale(1 1) rotate(0) translate(4 122.5)">
<title>fiftyone.pipeline.jsonbuilder.flowelements.JsonBuilder</title>
<!-- Node7 -->
<g id="node1" class="node">
<title>Node7</title>
<g id="a_node1"><a xlink:title="The JsonBuilderElement takes accessible properties and adds the property key:values to the Json objec...">
<polygon fill="#bfbfbf" stroke="black" points="657,-49.5 657,-79.5 881,-79.5 881,-49.5 657,-49.5"/>
<text text-anchor="start" x="665" y="-67.5" font-family="Helvetica,sans-Serif" font-size="10.00">fiftyone.pipeline.jsonbuilder.flowelements.</text>
<text text-anchor="middle" x="769" y="-56.5" font-family="Helvetica,sans-Serif" font-size="10.00">JsonBuilder</text>
</a>
</g>
</g>
<!-- Node8 -->
<g id="node2" class="node">
<title>Node8</title>
<g id="a_node2"><a xlink:href="interfacefiftyone_1_1pipeline_1_1core_1_1flowelements_1_1_flow_element.html" target="_top" xlink:title="A component that processes a FlowData (by examining its evidence, or by examining data processed by o...">
<polygon fill="none" stroke="black" points="441,-38.5 441,-90.5 620,-90.5 620,-38.5 441,-38.5"/>
<text text-anchor="start" x="449" y="-78.5" font-family="Helvetica,sans-Serif" font-size="10.00">fiftyone::pipeline</text>
<text text-anchor="start" x="449" y="-67.5" font-family="Helvetica,sans-Serif" font-size="10.00">::core::flowelements</text>
<text text-anchor="start" x="449" y="-56.5" font-family="Helvetica,sans-Serif" font-size="10.00">::FlowElement&lt; JsonBuilderData,</text>
<text text-anchor="middle" x="530.5" y="-45.5" font-family="Helvetica,sans-Serif" font-size="10.00"> ElementPropertyMetaData &gt;</text>
</a>
</g>
</g>
<!-- Node8&#45;&gt;Node7 -->
<g id="edge1" class="edge">
<title>Node8&#45;&gt;Node7</title>
<path fill="none" stroke="midnightblue" d="M630.39,-64.5C639.11,-64.5 647.97,-64.5 656.77,-64.5"/>
<polygon fill="midnightblue" stroke="midnightblue" points="630.24,-61 620.24,-64.5 630.24,-68 630.24,-61"/>
</g>
<!-- Node9 -->
<g id="node3" class="node">
<title>Node9</title>
<g id="a_node3"><a xlink:title=" ">
<polygon fill="none" stroke="#bfbfbf" points="237,-99 237,-118 324,-118 324,-99 237,-99"/>
<text text-anchor="middle" x="280.5" y="-106" font-family="Helvetica,sans-Serif" font-size="10.00">AutoCloseable</text>
</a>
</g>
</g>
<!-- Node9&#45;&gt;Node8 -->
<g id="edge2" class="edge">
<title>Node9&#45;&gt;Node8</title>
<path fill="none" stroke="midnightblue" d="M334.28,-99.14C365.29,-93.63 405.28,-86.54 440.99,-80.2"/>
<polygon fill="midnightblue" stroke="midnightblue" points="333.37,-95.74 324.13,-100.94 334.59,-102.64 333.37,-95.74"/>
</g>
<!-- Node10 -->
<g id="node4" class="node">
<title>Node10</title>
<g id="a_node4"><a xlink:href="interfacefiftyone_1_1pipeline_1_1core_1_1data_1_1_element_data.html" target="_top" xlink:title="Represents property values that have be determined by a specific FlowElement based on the supplied ev...">
<polygon fill="none" stroke="black" points="207,-49.5 207,-79.5 354,-79.5 354,-49.5 207,-49.5"/>
<text text-anchor="start" x="215" y="-67.5" font-family="Helvetica,sans-Serif" font-size="10.00">fiftyone.pipeline.core.data.</text>
<text text-anchor="middle" x="280.5" y="-56.5" font-family="Helvetica,sans-Serif" font-size="10.00">ElementData</text>
</a>
</g>
</g>
<!-- Node10&#45;&gt;Node8 -->
<g id="edge3" class="edge">
<title>Node10&#45;&gt;Node8</title>
<path fill="none" stroke="orange" stroke-dasharray="5,2" d="M364.26,-64.5C388.89,-64.5 415.97,-64.5 440.95,-64.5"/>
<polygon fill="orange" stroke="orange" points="364.23,-61 354.23,-64.5 364.23,-68 364.23,-61"/>
<text text-anchor="middle" x="397.5" y="-67.5" font-family="Helvetica,sans-Serif" font-size="10.00"> TData</text>
</g>
<!-- Node11 -->
<g id="node5" class="node">
<title>Node11</title>
<g id="a_node5"><a xlink:href="interfacefiftyone_1_1pipeline_1_1core_1_1data_1_1_data.html" target="_top" xlink:title="Represents a collection of property values.">
<polygon fill="none" stroke="black" points="0,-55 0,-74 170,-74 170,-55 0,-55"/>
<text text-anchor="middle" x="85" y="-62" font-family="Helvetica,sans-Serif" font-size="10.00">fiftyone.pipeline.core.data.Data</text>
</a>
</g>
</g>
<!-- Node11&#45;&gt;Node10 -->
<g id="edge4" class="edge">
<title>Node11&#45;&gt;Node10</title>
<path fill="none" stroke="midnightblue" d="M180.11,-64.5C189.07,-64.5 198.06,-64.5 206.77,-64.5"/>
<polygon fill="midnightblue" stroke="midnightblue" points="180.03,-61 170.03,-64.5 180.03,-68 180.03,-61"/>
</g>
<!-- Node12 -->
<g id="node6" class="node">
<title>Node12</title>
<g id="a_node6"><a xlink:href="interfacefiftyone_1_1pipeline_1_1core_1_1data_1_1_element_property_meta_data.html" target="_top" xlink:title="Defines details of a property that can be returned by a FlowElement.">
<polygon fill="none" stroke="black" points="207,-0.5 207,-30.5 354,-30.5 354,-0.5 207,-0.5"/>
<text text-anchor="start" x="215" y="-18.5" font-family="Helvetica,sans-Serif" font-size="10.00">fiftyone.pipeline.core.data.</text>
<text text-anchor="middle" x="280.5" y="-7.5" font-family="Helvetica,sans-Serif" font-size="10.00">ElementPropertyMetaData</text>
</a>
</g>
</g>
<!-- Node12&#45;&gt;Node8 -->
<g id="edge5" class="edge">
<title>Node12&#45;&gt;Node8</title>
<path fill="none" stroke="orange" stroke-dasharray="5,2" d="M364.26,-31.85C388.89,-36.72 415.97,-42.07 440.95,-47"/>
<polygon fill="orange" stroke="orange" points="364.72,-28.38 354.23,-29.87 363.36,-35.24 364.72,-28.38"/>
<text text-anchor="middle" x="397.5" y="-46.5" font-family="Helvetica,sans-Serif" font-size="10.00"> TProperty</text>
</g>
</g>
</svg>
