<?xml version="1.0" encoding="UTF-8" standalone="no"?>
<!DOCTYPE svg PUBLIC "-//W3C//DTD SVG 1.1//EN"
 "http://www.w3.org/Graphics/SVG/1.1/DTD/svg11.dtd">
<!-- Generated by graphviz version 2.43.0 (0)
 -->
<!-- Title: fiftyone.pipeline.engines.fiftyone.data.FiftyOneDataFile Pages: 1 -->
<svg width="212pt" height="162pt"
 viewBox="0.00 0.00 212.00 162.00" xmlns="http://www.w3.org/2000/svg" xmlns:xlink="http://www.w3.org/1999/xlink">
<g id="graph0" class="graph" transform="scale(1 1) rotate(0) translate(4 158)">
<title>fiftyone.pipeline.engines.fiftyone.data.FiftyOneDataFile</title>
<!-- Node4 -->
<g id="node1" class="node">
<title>Node4</title>
<g id="a_node1"><a xlink:title="51Degrees specific data file.">
<polygon fill="#bfbfbf" stroke="black" points="0,-0.5 0,-30.5 204,-30.5 204,-0.5 0,-0.5"/>
<text text-anchor="start" x="8" y="-18.5" font-family="Helvetica,sans-Serif" font-size="10.00">fiftyone.pipeline.engines.fiftyone.data.</text>
<text text-anchor="middle" x="102" y="-7.5" font-family="Helvetica,sans-Serif" font-size="10.00">FiftyOneDataFile</text>
</a>
</g>
</g>
<!-- Node5 -->
<g id="node2" class="node">
<title>Node5</title>
<g id="a_node2"><a xlink:href="interfacefiftyone_1_1pipeline_1_1engines_1_1data_1_1_aspect_engine_data_file.html" target="_top" xlink:title="Interface for the details of a data file used by an Aspect engine.">
<polygon fill="none" stroke="black" points="20,-67.5 20,-97.5 184,-97.5 184,-67.5 20,-67.5"/>
<text text-anchor="start" x="28" y="-85.5" font-family="Helvetica,sans-Serif" font-size="10.00">fiftyone.pipeline.engines.data.</text>
<text text-anchor="middle" x="102" y="-74.5" font-family="Helvetica,sans-Serif" font-size="10.00">AspectEngineDataFile</text>
</a>
</g>
</g>
<!-- Node5&#45;&gt;Node4 -->
<g id="edge1" class="edge">
<title>Node5&#45;&gt;Node4</title>
<path fill="none" stroke="midnightblue" d="M102,-57.11C102,-48.15 102,-38.32 102,-30.58"/>
<polygon fill="midnightblue" stroke="midnightblue" points="98.5,-57.4 102,-67.4 105.5,-57.4 98.5,-57.4"/>
</g>
<!-- Node6 -->
<g id="node3" class="node">
<title>Node6</title>
<g id="a_node3"><a xlink:title=" ">
<polygon fill="none" stroke="#bfbfbf" points="69.5,-134.5 69.5,-153.5 134.5,-153.5 134.5,-134.5 69.5,-134.5"/>
<text text-anchor="middle" x="102" y="-141.5" font-family="Helvetica,sans-Serif" font-size="10.00">Closeable</text>
</a>
</g>
</g>
<!-- Node6&#45;&gt;Node5 -->
<g id="edge2" class="edge">
<title>Node6&#45;&gt;Node5</title>
<path fill="none" stroke="midnightblue" d="M102,-124.23C102,-115.59 102,-105.5 102,-97.52"/>
<polygon fill="midnightblue" stroke="midnightblue" points="98.5,-124.48 102,-134.48 105.5,-124.48 98.5,-124.48"/>
</g>
</g>
</svg>
