<?xml version="1.0" encoding="UTF-8" standalone="no"?>
<!DOCTYPE svg PUBLIC "-//W3C//DTD SVG 1.1//EN"
 "http://www.w3.org/Graphics/SVG/1.1/DTD/svg11.dtd">
<!-- Generated by graphviz version 2.43.0 (0)
 -->
<!-- Title: fiftyone.pipeline.core.data.Data Pages: 1 -->
<svg width="1451pt" height="296pt"
 viewBox="0.00 0.00 1451.00 295.50" xmlns="http://www.w3.org/2000/svg" xmlns:xlink="http://www.w3.org/1999/xlink">
<g id="graph0" class="graph" transform="scale(1 1) rotate(0) translate(4 291.5)">
<title>fiftyone.pipeline.core.data.Data</title>
<!-- Node0 -->
<g id="node1" class="node">
<title>Node0</title>
<g id="a_node1"><a xlink:title="Represents a collection of property values.">
<polygon fill="#bfbfbf" stroke="black" points="0,-55 0,-74 170,-74 170,-55 0,-55"/>
<text text-anchor="middle" x="85" y="-62" font-family="Helvetica,sans-Serif" font-size="10.00">fiftyone.pipeline.core.data.Data</text>
</a>
</g>
</g>
<!-- Node1 -->
<g id="node2" class="node">
<title>Node1</title>
<g id="a_node2"><a xlink:href="classfiftyone_1_1pipeline_1_1core_1_1data_1_1_data_base.html" target="_top" xlink:title="This implementation of Data stores data values as key/value pairs in a Map where the key is a string ...">
<polygon fill="none" stroke="black" points="206,-49.5 206,-79.5 353,-79.5 353,-49.5 206,-49.5"/>
<text text-anchor="start" x="214" y="-67.5" font-family="Helvetica,sans-Serif" font-size="10.00">fiftyone.pipeline.core.data.</text>
<text text-anchor="middle" x="279.5" y="-56.5" font-family="Helvetica,sans-Serif" font-size="10.00">DataBase</text>
</a>
</g>
</g>
<!-- Node0&#45;&gt;Node1 -->
<g id="edge1" class="edge">
<title>Node0&#45;&gt;Node1</title>
<path fill="none" stroke="midnightblue" d="M180.27,-64.5C188.91,-64.5 197.57,-64.5 205.97,-64.5"/>
<polygon fill="midnightblue" stroke="midnightblue" points="180.15,-61 170.15,-64.5 180.15,-68 180.15,-61"/>
</g>
<!-- Node10 -->
<g id="node11" class="node">
<title>Node10</title>
<g id="a_node11"><a xlink:href="interfacefiftyone_1_1pipeline_1_1core_1_1data_1_1_element_data.html" target="_top" xlink:title="Represents property values that have be determined by a specific FlowElement based on the supplied ev...">
<polygon fill="none" stroke="black" points="206,-98.5 206,-128.5 353,-128.5 353,-98.5 206,-98.5"/>
<text text-anchor="start" x="214" y="-116.5" font-family="Helvetica,sans-Serif" font-size="10.00">fiftyone.pipeline.core.data.</text>
<text text-anchor="middle" x="279.5" y="-105.5" font-family="Helvetica,sans-Serif" font-size="10.00">ElementData</text>
</a>
</g>
</g>
<!-- Node0&#45;&gt;Node10 -->
<g id="edge10" class="edge">
<title>Node0&#45;&gt;Node10</title>
<path fill="none" stroke="midnightblue" d="M133.54,-76.6C159.5,-83.21 191.86,-91.45 219.43,-98.46"/>
<polygon fill="midnightblue" stroke="midnightblue" points="134.13,-73.14 123.57,-74.06 132.4,-79.92 134.13,-73.14"/>
</g>
<!-- Node15 -->
<g id="node16" class="node">
<title>Node15</title>
<g id="a_node16"><a xlink:href="interfacefiftyone_1_1pipeline_1_1core_1_1data_1_1_evidence.html" target="_top" xlink:title="Evidence used by a FlowElement when processing.">
<polygon fill="none" stroke="black" points="206,-0.5 206,-30.5 353,-30.5 353,-0.5 206,-0.5"/>
<text text-anchor="start" x="214" y="-18.5" font-family="Helvetica,sans-Serif" font-size="10.00">fiftyone.pipeline.core.data.</text>
<text text-anchor="middle" x="279.5" y="-7.5" font-family="Helvetica,sans-Serif" font-size="10.00">Evidence</text>
</a>
</g>
</g>
<!-- Node0&#45;&gt;Node15 -->
<g id="edge19" class="edge">
<title>Node0&#45;&gt;Node15</title>
<path fill="none" stroke="midnightblue" d="M133.54,-52.4C159.5,-45.79 191.86,-37.55 219.43,-30.54"/>
<polygon fill="midnightblue" stroke="midnightblue" points="132.4,-49.08 123.57,-54.94 134.13,-55.86 132.4,-49.08"/>
</g>
<!-- Node2 -->
<g id="node3" class="node">
<title>Node2</title>
<g id="a_node3"><a xlink:href="classfiftyone_1_1pipeline_1_1core_1_1data_1_1_element_data_base.html" target="_top" xlink:title="Base implementation of ElementData.">
<polygon fill="none" stroke="black" points="419,-98.5 419,-128.5 566,-128.5 566,-98.5 419,-98.5"/>
<text text-anchor="start" x="427" y="-116.5" font-family="Helvetica,sans-Serif" font-size="10.00">fiftyone.pipeline.core.data.</text>
<text text-anchor="middle" x="492.5" y="-105.5" font-family="Helvetica,sans-Serif" font-size="10.00">ElementDataBase</text>
</a>
</g>
</g>
<!-- Node1&#45;&gt;Node2 -->
<g id="edge2" class="edge">
<title>Node1&#45;&gt;Node2</title>
<path fill="none" stroke="midnightblue" d="M355.13,-81.83C378.56,-87.27 404.21,-93.23 426.88,-98.49"/>
<polygon fill="midnightblue" stroke="midnightblue" points="355.77,-78.39 345.24,-79.53 354.19,-85.21 355.77,-78.39"/>
</g>
<!-- Node9 -->
<g id="node10" class="node">
<title>Node9</title>
<g id="a_node10"><a xlink:title="Default implementation of the Evidence interface.">
<polygon fill="none" stroke="#bfbfbf" points="397,-0.5 397,-30.5 588,-30.5 588,-0.5 397,-0.5"/>
<text text-anchor="start" x="405" y="-18.5" font-family="Helvetica,sans-Serif" font-size="10.00">fiftyone.pipeline.core.flowelements.</text>
<text text-anchor="middle" x="492.5" y="-7.5" font-family="Helvetica,sans-Serif" font-size="10.00">EvidenceDefault</text>
</a>
</g>
</g>
<!-- Node1&#45;&gt;Node9 -->
<g id="edge9" class="edge">
<title>Node1&#45;&gt;Node9</title>
<path fill="none" stroke="midnightblue" d="M355.13,-47.17C378.56,-41.73 404.21,-35.77 426.88,-30.51"/>
<polygon fill="midnightblue" stroke="midnightblue" points="354.19,-43.79 345.24,-49.47 355.77,-50.61 354.19,-43.79"/>
</g>
<!-- Node3 -->
<g id="node4" class="node">
<title>Node3</title>
<g id="a_node4"><a xlink:href="classfiftyone_1_1pipeline_1_1engines_1_1data_1_1_aspect_data_base.html" target="_top" xlink:title="Abstract base class for AspectData which overrides the.">
<polygon fill="none" stroke="black" points="675.5,-196.5 675.5,-226.5 839.5,-226.5 839.5,-196.5 675.5,-196.5"/>
<text text-anchor="start" x="683.5" y="-214.5" font-family="Helvetica,sans-Serif" font-size="10.00">fiftyone.pipeline.engines.data.</text>
<text text-anchor="middle" x="757.5" y="-203.5" font-family="Helvetica,sans-Serif" font-size="10.00">AspectDataBase</text>
</a>
</g>
</g>
<!-- Node2&#45;&gt;Node3 -->
<g id="edge3" class="edge">
<title>Node2&#45;&gt;Node3</title>
<path fill="none" stroke="midnightblue" d="M575.96,-128.06C583.02,-130.93 589.82,-134.38 596,-138.5 618.48,-153.49 609.16,-173.06 632,-187.5 645.02,-195.73 660.23,-201.26 675.46,-204.94"/>
<polygon fill="midnightblue" stroke="midnightblue" points="576.8,-124.64 566.2,-124.48 574.39,-131.21 576.8,-124.64"/>
</g>
<!-- Node6 -->
<g id="node7" class="node">
<title>Node6</title>
<g id="a_node7"><a xlink:href="classfiftyone_1_1pipeline_1_1engines_1_1fiftyone_1_1data_1_1_set_headers_data.html" target="_top" xlink:title="[class] [constructor]">
<polygon fill="none" stroke="black" points="655.5,-98.5 655.5,-128.5 859.5,-128.5 859.5,-98.5 655.5,-98.5"/>
<text text-anchor="start" x="663.5" y="-116.5" font-family="Helvetica,sans-Serif" font-size="10.00">fiftyone.pipeline.engines.fiftyone.data.</text>
<text text-anchor="middle" x="757.5" y="-105.5" font-family="Helvetica,sans-Serif" font-size="10.00">SetHeadersData</text>
</a>
</g>
</g>
<!-- Node2&#45;&gt;Node6 -->
<g id="edge6" class="edge">
<title>Node2&#45;&gt;Node6</title>
<path fill="none" stroke="midnightblue" d="M576.24,-113.5C601.27,-113.5 629.04,-113.5 655.14,-113.5"/>
<polygon fill="midnightblue" stroke="midnightblue" points="576.06,-110 566.06,-113.5 576.06,-117 576.06,-110"/>
</g>
<!-- Node7 -->
<g id="node8" class="node">
<title>Node7</title>
<g id="a_node8"><a xlink:href="classfiftyone_1_1pipeline_1_1javascriptbuilder_1_1flowelements_1_1_java_script_builder_data_internal.html" target="_top" xlink:title="[class]">
<polygon fill="none" stroke="black" points="632,-147.5 632,-177.5 883,-177.5 883,-147.5 632,-147.5"/>
<text text-anchor="start" x="640" y="-165.5" font-family="Helvetica,sans-Serif" font-size="10.00">fiftyone.pipeline.javascriptbuilder.flowelements.</text>
<text text-anchor="middle" x="757.5" y="-154.5" font-family="Helvetica,sans-Serif" font-size="10.00">JavaScriptBuilderDataInternal</text>
</a>
</g>
</g>
<!-- Node2&#45;&gt;Node7 -->
<g id="edge7" class="edge">
<title>Node2&#45;&gt;Node7</title>
<path fill="none" stroke="midnightblue" d="M576.22,-128.91C608.02,-134.84 644.25,-141.59 675.85,-147.47"/>
<polygon fill="midnightblue" stroke="midnightblue" points="576.53,-125.41 566.06,-127.02 575.25,-132.29 576.53,-125.41"/>
</g>
<!-- Node8 -->
<g id="node9" class="node">
<title>Node8</title>
<g id="a_node9"><a xlink:href="classfiftyone_1_1pipeline_1_1jsonbuilder_1_1flowelements_1_1_json_builder_data_internal.html" target="_top" xlink:title="[class]">
<polygon fill="none" stroke="black" points="645.5,-49.5 645.5,-79.5 869.5,-79.5 869.5,-49.5 645.5,-49.5"/>
<text text-anchor="start" x="653.5" y="-67.5" font-family="Helvetica,sans-Serif" font-size="10.00">fiftyone.pipeline.jsonbuilder.flowelements.</text>
<text text-anchor="middle" x="757.5" y="-56.5" font-family="Helvetica,sans-Serif" font-size="10.00">JsonBuilderDataInternal</text>
</a>
</g>
</g>
<!-- Node2&#45;&gt;Node8 -->
<g id="edge8" class="edge">
<title>Node2&#45;&gt;Node8</title>
<path fill="none" stroke="midnightblue" d="M576.22,-98.09C608.02,-92.16 644.25,-85.41 675.85,-79.53"/>
<polygon fill="midnightblue" stroke="midnightblue" points="575.25,-94.71 566.06,-99.98 576.53,-101.59 575.25,-94.71"/>
</g>
<!-- Node4 -->
<g id="node5" class="node">
<title>Node4</title>
<g id="a_node5"><a xlink:href="classfiftyone_1_1pipeline_1_1cloudrequestengine_1_1flowelements_1_1_cloud_request_data_internal.html" target="_top" xlink:title=" ">
<polygon fill="none" stroke="black" points="919,-196.5 919,-226.5 1185,-226.5 1185,-196.5 919,-196.5"/>
<text text-anchor="start" x="927" y="-214.5" font-family="Helvetica,sans-Serif" font-size="10.00">fiftyone.pipeline.cloudrequestengine.flowelements.</text>
<text text-anchor="middle" x="1052" y="-203.5" font-family="Helvetica,sans-Serif" font-size="10.00">CloudRequestDataInternal</text>
</a>
</g>
</g>
<!-- Node3&#45;&gt;Node4 -->
<g id="edge4" class="edge">
<title>Node3&#45;&gt;Node4</title>
<path fill="none" stroke="midnightblue" d="M849.84,-211.5C871.75,-211.5 895.58,-211.5 918.92,-211.5"/>
<polygon fill="midnightblue" stroke="midnightblue" points="849.59,-208 839.59,-211.5 849.59,-215 849.59,-208"/>
</g>
<!-- Node5 -->
<g id="node6" class="node">
<title>Node5</title>
<g id="a_node6"><a xlink:href="classfiftyone_1_1pipeline_1_1cloudrequestengine_1_1data_1_1_cloud_request_data.html" target="_top" xlink:title=" ">
<polygon fill="none" stroke="black" points="1221,-196.5 1221,-226.5 1443,-226.5 1443,-196.5 1221,-196.5"/>
<text text-anchor="start" x="1229" y="-214.5" font-family="Helvetica,sans-Serif" font-size="10.00">fiftyone.pipeline.cloudrequestengine.data.</text>
<text text-anchor="middle" x="1332" y="-203.5" font-family="Helvetica,sans-Serif" font-size="10.00">CloudRequestData</text>
</a>
</g>
</g>
<!-- Node4&#45;&gt;Node5 -->
<g id="edge5" class="edge">
<title>Node4&#45;&gt;Node5</title>
<path fill="none" stroke="midnightblue" d="M1195.14,-211.5C1203.7,-211.5 1212.25,-211.5 1220.66,-211.5"/>
<polygon fill="midnightblue" stroke="midnightblue" points="1195.08,-208 1185.08,-211.5 1195.08,-215 1195.08,-208"/>
</g>
<!-- Node10&#45;&gt;Node2 -->
<g id="edge11" class="edge">
<title>Node10&#45;&gt;Node2</title>
<path fill="none" stroke="midnightblue" d="M363.19,-113.5C381.53,-113.5 400.84,-113.5 418.75,-113.5"/>
<polygon fill="midnightblue" stroke="midnightblue" points="363.11,-110 353.11,-113.5 363.11,-117 363.11,-110"/>
</g>
<!-- Node11 -->
<g id="node12" class="node">
<title>Node11</title>
<g id="a_node12"><a xlink:href="interfacefiftyone_1_1pipeline_1_1engines_1_1data_1_1_aspect_data.html" target="_top" xlink:title="Represents a specialized ElementData instance that is generated by an AspectEngine.">
<polygon fill="none" stroke="black" points="410.5,-196.5 410.5,-226.5 574.5,-226.5 574.5,-196.5 410.5,-196.5"/>
<text text-anchor="start" x="418.5" y="-214.5" font-family="Helvetica,sans-Serif" font-size="10.00">fiftyone.pipeline.engines.data.</text>
<text text-anchor="middle" x="492.5" y="-203.5" font-family="Helvetica,sans-Serif" font-size="10.00">AspectData</text>
</a>
</g>
</g>
<!-- Node10&#45;&gt;Node11 -->
<g id="edge12" class="edge">
<title>Node10&#45;&gt;Node11</title>
<path fill="none" stroke="midnightblue" d="M305.89,-134.84C326.91,-151.48 358.23,-173.97 389,-187.5 396.78,-190.92 405.11,-193.89 413.55,-196.46"/>
<polygon fill="midnightblue" stroke="midnightblue" points="308.07,-132.1 298.08,-128.56 303.68,-137.55 308.07,-132.1"/>
</g>
<!-- Node13 -->
<g id="node14" class="node">
<title>Node13</title>
<g id="a_node14"><a xlink:href="interfacefiftyone_1_1pipeline_1_1javascriptbuilder_1_1data_1_1_java_script_builder_data.html" target="_top" xlink:title="Data containing the result of a JavaScriptBuilderElements processing.">
<polygon fill="none" stroke="black" points="389,-147.5 389,-177.5 596,-177.5 596,-147.5 389,-147.5"/>
<text text-anchor="start" x="397" y="-165.5" font-family="Helvetica,sans-Serif" font-size="10.00">fiftyone.pipeline.javascriptbuilder.data.</text>
<text text-anchor="middle" x="492.5" y="-154.5" font-family="Helvetica,sans-Serif" font-size="10.00">JavaScriptBuilderData</text>
</a>
</g>
</g>
<!-- Node10&#45;&gt;Node13 -->
<g id="edge15" class="edge">
<title>Node10&#45;&gt;Node13</title>
<path fill="none" stroke="midnightblue" d="M355.13,-130.83C378.56,-136.27 404.21,-142.23 426.88,-147.49"/>
<polygon fill="midnightblue" stroke="midnightblue" points="355.77,-127.39 345.24,-128.53 354.19,-134.21 355.77,-127.39"/>
</g>
<!-- Node14 -->
<g id="node15" class="node">
<title>Node14</title>
<g id="a_node15"><a xlink:href="interfacefiftyone_1_1pipeline_1_1jsonbuilder_1_1data_1_1_json_builder_data.html" target="_top" xlink:title="Data containing the result of a JsonBuilderElements processing.">
<polygon fill="none" stroke="black" points="403,-49.5 403,-79.5 582,-79.5 582,-49.5 403,-49.5"/>
<text text-anchor="start" x="411" y="-67.5" font-family="Helvetica,sans-Serif" font-size="10.00">fiftyone.pipeline.jsonbuilder.data.</text>
<text text-anchor="middle" x="492.5" y="-56.5" font-family="Helvetica,sans-Serif" font-size="10.00">JsonBuilderData</text>
</a>
</g>
</g>
<!-- Node10&#45;&gt;Node14 -->
<g id="edge17" class="edge">
<title>Node10&#45;&gt;Node14</title>
<path fill="none" stroke="midnightblue" d="M355.13,-96.17C378.56,-90.73 404.21,-84.77 426.88,-79.51"/>
<polygon fill="midnightblue" stroke="midnightblue" points="354.19,-92.79 345.24,-98.47 355.77,-99.61 354.19,-92.79"/>
</g>
<!-- Node11&#45;&gt;Node3 -->
<g id="edge13" class="edge">
<title>Node11&#45;&gt;Node3</title>
<path fill="none" stroke="midnightblue" d="M584.82,-211.5C614.24,-211.5 646.62,-211.5 675.26,-211.5"/>
<polygon fill="midnightblue" stroke="midnightblue" points="584.55,-208 574.55,-211.5 584.55,-215 584.55,-208"/>
</g>
<!-- Node12 -->
<g id="node13" class="node">
<title>Node12</title>
<g id="a_node13"><a xlink:href="interfacefiftyone_1_1pipeline_1_1engines_1_1data_1_1_multi_profile_data.html" target="_top" xlink:title="Specialised implementation of AspectData where the instance contains a list of profiles.">
<polygon fill="none" stroke="black" points="675.5,-246 675.5,-287 839.5,-287 839.5,-246 675.5,-246"/>
<text text-anchor="start" x="683.5" y="-275" font-family="Helvetica,sans-Serif" font-size="10.00">fiftyone.pipeline.engines.data.</text>
<text text-anchor="start" x="683.5" y="-264" font-family="Helvetica,sans-Serif" font-size="10.00">MultiProfileData&lt; T extends</text>
<text text-anchor="middle" x="757.5" y="-253" font-family="Helvetica,sans-Serif" font-size="10.00"> AspectData &gt;</text>
</a>
</g>
</g>
<!-- Node11&#45;&gt;Node12 -->
<g id="edge14" class="edge">
<title>Node11&#45;&gt;Node12</title>
<path fill="none" stroke="midnightblue" d="M575.53,-228.65C607.36,-235.31 643.71,-242.91 675.45,-249.55"/>
<polygon fill="midnightblue" stroke="midnightblue" points="575.87,-225.15 565.37,-226.53 574.44,-232 575.87,-225.15"/>
</g>
<!-- Node13&#45;&gt;Node7 -->
<g id="edge16" class="edge">
<title>Node13&#45;&gt;Node7</title>
<path fill="none" stroke="midnightblue" d="M606.5,-162.5C614.91,-162.5 623.41,-162.5 631.88,-162.5"/>
<polygon fill="midnightblue" stroke="midnightblue" points="606.31,-159 596.31,-162.5 606.31,-166 606.31,-159"/>
</g>
<!-- Node14&#45;&gt;Node8 -->
<g id="edge18" class="edge">
<title>Node14&#45;&gt;Node8</title>
<path fill="none" stroke="midnightblue" d="M592.27,-64.5C609.59,-64.5 627.72,-64.5 645.35,-64.5"/>
<polygon fill="midnightblue" stroke="midnightblue" points="592.17,-61 582.17,-64.5 592.17,-68 592.17,-61"/>
</g>
<!-- Node15&#45;&gt;Node9 -->
<g id="edge20" class="edge">
<title>Node15&#45;&gt;Node9</title>
<path fill="none" stroke="midnightblue" d="M363.13,-15.5C374.17,-15.5 385.55,-15.5 396.77,-15.5"/>
<polygon fill="midnightblue" stroke="midnightblue" points="363.11,-12 353.11,-15.5 363.11,-19 363.11,-12"/>
</g>
</g>
</svg>
