<?xml version="1.0" encoding="UTF-8" standalone="no"?>
<!DOCTYPE svg PUBLIC "-//W3C//DTD SVG 1.1//EN"
 "http://www.w3.org/Graphics/SVG/1.1/DTD/svg11.dtd">
<!-- Generated by graphviz version 2.43.0 (0)
 -->
<!-- Title: fiftyone.caching.LoadingCache&lt; K, V &gt; Pages: 1 -->
<svg width="143pt" height="162pt"
 viewBox="0.00 0.00 143.00 162.00" xmlns="http://www.w3.org/2000/svg" xmlns:xlink="http://www.w3.org/1999/xlink">
<g id="graph0" class="graph" transform="scale(1 1) rotate(0) translate(4 158)">
<title>fiftyone.caching.LoadingCache&lt; K, V &gt;</title>
<!-- Node4 -->
<g id="node1" class="node">
<title>Node4</title>
<g id="a_node1"><a xlink:title="Extension of general cache contract to provide for getting a value with a particular value loaded.">
<polygon fill="#bfbfbf" stroke="black" points="0,-0.5 0,-30.5 135,-30.5 135,-0.5 0,-0.5"/>
<text text-anchor="start" x="8" y="-18.5" font-family="Helvetica,sans-Serif" font-size="10.00">fiftyone.caching.Loading</text>
<text text-anchor="middle" x="67.5" y="-7.5" font-family="Helvetica,sans-Serif" font-size="10.00">Cache&lt; K, V &gt;</text>
</a>
</g>
</g>
<!-- Node5 -->
<g id="node2" class="node">
<title>Node5</title>
<g id="a_node2"><a xlink:href="interfacefiftyone_1_1caching_1_1_cache.html" target="_top" xlink:title="Base cache interface which declares only the get method and the types of key and value stored in the ...">
<polygon fill="none" stroke="black" points="16,-67.5 16,-97.5 119,-97.5 119,-67.5 16,-67.5"/>
<text text-anchor="start" x="24" y="-85.5" font-family="Helvetica,sans-Serif" font-size="10.00">fiftyone::caching::</text>
<text text-anchor="middle" x="67.5" y="-74.5" font-family="Helvetica,sans-Serif" font-size="10.00">Cache&lt; K, V &gt;</text>
</a>
</g>
</g>
<!-- Node5&#45;&gt;Node4 -->
<g id="edge1" class="edge">
<title>Node5&#45;&gt;Node4</title>
<path fill="none" stroke="midnightblue" d="M67.5,-57.11C67.5,-48.15 67.5,-38.32 67.5,-30.58"/>
<polygon fill="midnightblue" stroke="midnightblue" points="64,-57.4 67.5,-67.4 71,-57.4 64,-57.4"/>
</g>
<!-- Node6 -->
<g id="node3" class="node">
<title>Node6</title>
<g id="a_node3"><a xlink:title=" ">
<polygon fill="none" stroke="#bfbfbf" points="35,-134.5 35,-153.5 100,-153.5 100,-134.5 35,-134.5"/>
<text text-anchor="middle" x="67.5" y="-141.5" font-family="Helvetica,sans-Serif" font-size="10.00">Closeable</text>
</a>
</g>
</g>
<!-- Node6&#45;&gt;Node5 -->
<g id="edge2" class="edge">
<title>Node6&#45;&gt;Node5</title>
<path fill="none" stroke="midnightblue" d="M67.5,-124.23C67.5,-115.59 67.5,-105.5 67.5,-97.52"/>
<polygon fill="midnightblue" stroke="midnightblue" points="64,-124.48 67.5,-134.48 71,-124.48 64,-124.48"/>
</g>
</g>
</svg>
