<?xml version="1.0" encoding="UTF-8" standalone="no"?>
<!DOCTYPE svg PUBLIC "-//W3C//DTD SVG 1.1//EN"
 "http://www.w3.org/Graphics/SVG/1.1/DTD/svg11.dtd">
<!-- Generated by graphviz version 2.43.0 (0)
 -->
<!-- Title: fiftyone.pipeline.engines.fiftyone.data.CloseableIterable&lt; T &gt; Pages: 1 -->
<svg width="780pt" height="116pt"
 viewBox="0.00 0.00 780.00 115.50" xmlns="http://www.w3.org/2000/svg" xmlns:xlink="http://www.w3.org/1999/xlink">
<g id="graph0" class="graph" transform="scale(1 1) rotate(0) translate(4 111.5)">
<title>fiftyone.pipeline.engines.fiftyone.data.CloseableIterable&lt; T &gt;</title>
<!-- Node0 -->
<g id="node1" class="node">
<title>Node0</title>
<g id="a_node1"><a xlink:title="An iterable class which also implements auto&#45;closable.">
<polygon fill="#bfbfbf" stroke="black" points="123,-41.5 123,-71.5 327,-71.5 327,-41.5 123,-41.5"/>
<text text-anchor="start" x="131" y="-59.5" font-family="Helvetica,sans-Serif" font-size="10.00">fiftyone.pipeline.engines.fiftyone.data.</text>
<text text-anchor="middle" x="225" y="-48.5" font-family="Helvetica,sans-Serif" font-size="10.00">CloseableIterable&lt; T &gt;</text>
</a>
</g>
</g>
<!-- Node3 -->
<g id="node4" class="node">
<title>Node3</title>
<g id="a_node4"><a xlink:href="classfiftyone_1_1pipeline_1_1engines_1_1fiftyone_1_1data_1_1_closeable_iterable_default.html" target="_top" xlink:title="Default implementation of CloseableIterable.">
<polygon fill="none" stroke="black" points="363,-66 363,-107 563,-107 563,-66 363,-66"/>
<text text-anchor="start" x="371" y="-95" font-family="Helvetica,sans-Serif" font-size="10.00">fiftyone::pipeline</text>
<text text-anchor="start" x="371" y="-84" font-family="Helvetica,sans-Serif" font-size="10.00">::engines::fiftyone</text>
<text text-anchor="middle" x="463" y="-73" font-family="Helvetica,sans-Serif" font-size="10.00">::data::CloseableIterableDefault&lt; T &gt;</text>
</a>
</g>
</g>
<!-- Node0&#45;&gt;Node3 -->
<g id="edge3" class="edge">
<title>Node0&#45;&gt;Node3</title>
<path fill="none" stroke="midnightblue" d="M337.18,-70.63C345.79,-71.73 354.45,-72.83 362.97,-73.91"/>
<polygon fill="midnightblue" stroke="midnightblue" points="337.47,-67.14 327.11,-69.35 336.59,-74.09 337.47,-67.14"/>
</g>
<!-- Node4 -->
<g id="node5" class="node">
<title>Node4</title>
<g id="a_node5"><a xlink:href="classfiftyone_1_1pipeline_1_1engines_1_1fiftyone_1_1data_1_1_collection_iterable_base.html" target="_top" xlink:title=" ">
<polygon fill="none" stroke="black" points="368.5,-6 368.5,-47 557.5,-47 557.5,-6 368.5,-6"/>
<text text-anchor="start" x="376.5" y="-35" font-family="Helvetica,sans-Serif" font-size="10.00">fiftyone::pipeline</text>
<text text-anchor="start" x="376.5" y="-24" font-family="Helvetica,sans-Serif" font-size="10.00">::engines::fiftyone</text>
<text text-anchor="middle" x="463" y="-13" font-family="Helvetica,sans-Serif" font-size="10.00">::data::CollectionIterableBase&lt; T &gt;</text>
</a>
</g>
</g>
<!-- Node0&#45;&gt;Node4 -->
<g id="edge4" class="edge">
<title>Node0&#45;&gt;Node4</title>
<path fill="none" stroke="midnightblue" d="M337.06,-42.38C347.48,-41.06 357.96,-39.73 368.19,-38.42"/>
<polygon fill="midnightblue" stroke="midnightblue" points="336.59,-38.91 327.11,-43.65 337.47,-45.86 336.59,-38.91"/>
</g>
<!-- Node1 -->
<g id="node2" class="node">
<title>Node1</title>
<g id="a_node2"><a xlink:title=" ">
<polygon fill="none" stroke="#bfbfbf" points="2,-66 2,-85 85,-85 85,-66 2,-66"/>
<text text-anchor="middle" x="43.5" y="-73" font-family="Helvetica,sans-Serif" font-size="10.00">Iterable&lt; T &gt;</text>
</a>
</g>
</g>
<!-- Node1&#45;&gt;Node0 -->
<g id="edge1" class="edge">
<title>Node1&#45;&gt;Node0</title>
<path fill="none" stroke="midnightblue" d="M95.45,-70.11C104.09,-69.19 113.33,-68.21 122.74,-67.22"/>
<polygon fill="midnightblue" stroke="midnightblue" points="94.81,-66.66 85.23,-71.19 95.54,-73.62 94.81,-66.66"/>
</g>
<!-- Node2 -->
<g id="node3" class="node">
<title>Node2</title>
<g id="a_node3"><a xlink:title=" ">
<polygon fill="none" stroke="#bfbfbf" points="0,-28 0,-47 87,-47 87,-28 0,-28"/>
<text text-anchor="middle" x="43.5" y="-35" font-family="Helvetica,sans-Serif" font-size="10.00">AutoCloseable</text>
</a>
</g>
</g>
<!-- Node2&#45;&gt;Node0 -->
<g id="edge2" class="edge">
<title>Node2&#45;&gt;Node0</title>
<path fill="none" stroke="midnightblue" d="M97.15,-43.07C105.36,-43.94 114.08,-44.87 122.95,-45.8"/>
<polygon fill="midnightblue" stroke="midnightblue" points="97.35,-39.57 87.04,-42 96.61,-46.54 97.35,-39.57"/>
</g>
<!-- Node5 -->
<g id="node6" class="node">
<title>Node5</title>
<g id="a_node6"><a xlink:href="classfiftyone_1_1pipeline_1_1engines_1_1fiftyone_1_1data_1_1_collection_iterable_cached_base.html" target="_top" xlink:title=" ">
<polygon fill="none" stroke="black" points="599,-0.5 599,-52.5 772,-52.5 772,-0.5 599,-0.5"/>
<text text-anchor="start" x="607" y="-40.5" font-family="Helvetica,sans-Serif" font-size="10.00">fiftyone::pipeline</text>
<text text-anchor="start" x="607" y="-29.5" font-family="Helvetica,sans-Serif" font-size="10.00">::engines::fiftyone</text>
<text text-anchor="start" x="607" y="-18.5" font-family="Helvetica,sans-Serif" font-size="10.00">::data::CollectionIterableCached</text>
<text text-anchor="middle" x="685.5" y="-7.5" font-family="Helvetica,sans-Serif" font-size="10.00">Base&lt; T &gt;</text>
</a>
</g>
</g>
<!-- Node4&#45;&gt;Node5 -->
<g id="edge5" class="edge">
<title>Node4&#45;&gt;Node5</title>
<path fill="none" stroke="midnightblue" d="M567.54,-26.5C578.04,-26.5 588.62,-26.5 598.9,-26.5"/>
<polygon fill="midnightblue" stroke="midnightblue" points="567.51,-23 557.51,-26.5 567.51,-30 567.51,-23"/>
</g>
</g>
</svg>
