<?xml version="1.0" encoding="UTF-8" standalone="no"?>
<!DOCTYPE svg PUBLIC "-//W3C//DTD SVG 1.1//EN"
 "http://www.w3.org/Graphics/SVG/1.1/DTD/svg11.dtd">
<!-- Generated by graphviz version 2.43.0 (0)
 -->
<!-- Title: fiftyone.pipeline.engines.data.AspectData Pages: 1 -->
<svg width="1321pt" height="100pt"
 viewBox="0.00 0.00 1321.00 99.50" xmlns="http://www.w3.org/2000/svg" xmlns:xlink="http://www.w3.org/1999/xlink">
<g id="graph0" class="graph" transform="scale(1 1) rotate(0) translate(4 95.5)">
<title>fiftyone.pipeline.engines.data.AspectData</title>
<!-- Node0 -->
<g id="node1" class="node">
<title>Node0</title>
<g id="a_node1"><a xlink:title="Represents a specialized ElementData instance that is generated by an AspectEngine.">
<polygon fill="#bfbfbf" stroke="black" points="389,-33 389,-63 553,-63 553,-33 389,-33"/>
<text text-anchor="start" x="397" y="-51" font-family="Helvetica,sans-Serif" font-size="10.00">fiftyone.pipeline.engines.data.</text>
<text text-anchor="middle" x="471" y="-40" font-family="Helvetica,sans-Serif" font-size="10.00">AspectData</text>
</a>
</g>
</g>
<!-- Node3 -->
<g id="node4" class="node">
<title>Node3</title>
<g id="a_node4"><a xlink:href="classfiftyone_1_1pipeline_1_1engines_1_1data_1_1_aspect_data_base.html" target="_top" xlink:title="Abstract base class for AspectData which overrides the.">
<polygon fill="none" stroke="black" points="589,-61 589,-91 753,-91 753,-61 589,-61"/>
<text text-anchor="start" x="597" y="-79" font-family="Helvetica,sans-Serif" font-size="10.00">fiftyone.pipeline.engines.data.</text>
<text text-anchor="middle" x="671" y="-68" font-family="Helvetica,sans-Serif" font-size="10.00">AspectDataBase</text>
</a>
</g>
</g>
<!-- Node0&#45;&gt;Node3 -->
<g id="edge3" class="edge">
<title>Node0&#45;&gt;Node3</title>
<path fill="none" stroke="midnightblue" d="M563.08,-60.88C571.63,-62.09 580.25,-63.31 588.7,-64.5"/>
<polygon fill="midnightblue" stroke="midnightblue" points="563.5,-57.4 553.11,-59.47 562.52,-64.34 563.5,-57.4"/>
</g>
<!-- Node6 -->
<g id="node7" class="node">
<title>Node6</title>
<g id="a_node7"><a xlink:href="interfacefiftyone_1_1pipeline_1_1engines_1_1data_1_1_multi_profile_data.html" target="_top" xlink:title="Specialised implementation of AspectData where the instance contains a list of profiles.">
<polygon fill="none" stroke="black" points="589,-0.5 589,-41.5 753,-41.5 753,-0.5 589,-0.5"/>
<text text-anchor="start" x="597" y="-29.5" font-family="Helvetica,sans-Serif" font-size="10.00">fiftyone.pipeline.engines.data.</text>
<text text-anchor="start" x="597" y="-18.5" font-family="Helvetica,sans-Serif" font-size="10.00">MultiProfileData&lt; T extends</text>
<text text-anchor="middle" x="671" y="-7.5" font-family="Helvetica,sans-Serif" font-size="10.00"> AspectData &gt;</text>
</a>
</g>
</g>
<!-- Node0&#45;&gt;Node6 -->
<g id="edge6" class="edge">
<title>Node0&#45;&gt;Node6</title>
<path fill="none" stroke="midnightblue" d="M563.08,-35.58C571.63,-34.41 580.25,-33.24 588.7,-32.09"/>
<polygon fill="midnightblue" stroke="midnightblue" points="562.54,-32.12 553.11,-36.94 563.49,-39.06 562.54,-32.12"/>
</g>
<!-- Node1 -->
<g id="node2" class="node">
<title>Node1</title>
<g id="a_node2"><a xlink:href="interfacefiftyone_1_1pipeline_1_1core_1_1data_1_1_element_data.html" target="_top" xlink:title="Represents property values that have be determined by a specific FlowElement based on the supplied ev...">
<polygon fill="none" stroke="black" points="206,-33 206,-63 353,-63 353,-33 206,-33"/>
<text text-anchor="start" x="214" y="-51" font-family="Helvetica,sans-Serif" font-size="10.00">fiftyone.pipeline.core.data.</text>
<text text-anchor="middle" x="279.5" y="-40" font-family="Helvetica,sans-Serif" font-size="10.00">ElementData</text>
</a>
</g>
</g>
<!-- Node1&#45;&gt;Node0 -->
<g id="edge1" class="edge">
<title>Node1&#45;&gt;Node0</title>
<path fill="none" stroke="midnightblue" d="M363.46,-48C371.92,-48 380.51,-48 388.95,-48"/>
<polygon fill="midnightblue" stroke="midnightblue" points="363.22,-44.5 353.22,-48 363.22,-51.5 363.22,-44.5"/>
</g>
<!-- Node2 -->
<g id="node3" class="node">
<title>Node2</title>
<g id="a_node3"><a xlink:href="interfacefiftyone_1_1pipeline_1_1core_1_1data_1_1_data.html" target="_top" xlink:title="Represents a collection of property values.">
<polygon fill="none" stroke="black" points="0,-38.5 0,-57.5 170,-57.5 170,-38.5 0,-38.5"/>
<text text-anchor="middle" x="85" y="-45.5" font-family="Helvetica,sans-Serif" font-size="10.00">fiftyone.pipeline.core.data.Data</text>
</a>
</g>
</g>
<!-- Node2&#45;&gt;Node1 -->
<g id="edge2" class="edge">
<title>Node2&#45;&gt;Node1</title>
<path fill="none" stroke="midnightblue" d="M180.27,-48C188.91,-48 197.57,-48 205.97,-48"/>
<polygon fill="midnightblue" stroke="midnightblue" points="180.15,-44.5 170.15,-48 180.15,-51.5 180.15,-44.5"/>
</g>
<!-- Node4 -->
<g id="node5" class="node">
<title>Node4</title>
<g id="a_node5"><a xlink:href="classfiftyone_1_1pipeline_1_1cloudrequestengine_1_1flowelements_1_1_cloud_request_data_internal.html" target="_top" xlink:title=" ">
<polygon fill="none" stroke="black" points="789,-61 789,-91 1055,-91 1055,-61 789,-61"/>
<text text-anchor="start" x="797" y="-79" font-family="Helvetica,sans-Serif" font-size="10.00">fiftyone.pipeline.cloudrequestengine.flowelements.</text>
<text text-anchor="middle" x="922" y="-68" font-family="Helvetica,sans-Serif" font-size="10.00">CloudRequestDataInternal</text>
</a>
</g>
</g>
<!-- Node3&#45;&gt;Node4 -->
<g id="edge4" class="edge">
<title>Node3&#45;&gt;Node4</title>
<path fill="none" stroke="midnightblue" d="M763.29,-76C771.66,-76 780.25,-76 788.9,-76"/>
<polygon fill="midnightblue" stroke="midnightblue" points="763.19,-72.5 753.19,-76 763.19,-79.5 763.19,-72.5"/>
</g>
<!-- Node5 -->
<g id="node6" class="node">
<title>Node5</title>
<g id="a_node6"><a xlink:href="classfiftyone_1_1pipeline_1_1cloudrequestengine_1_1data_1_1_cloud_request_data.html" target="_top" xlink:title=" ">
<polygon fill="none" stroke="black" points="1091,-61 1091,-91 1313,-91 1313,-61 1091,-61"/>
<text text-anchor="start" x="1099" y="-79" font-family="Helvetica,sans-Serif" font-size="10.00">fiftyone.pipeline.cloudrequestengine.data.</text>
<text text-anchor="middle" x="1202" y="-68" font-family="Helvetica,sans-Serif" font-size="10.00">CloudRequestData</text>
</a>
</g>
</g>
<!-- Node4&#45;&gt;Node5 -->
<g id="edge5" class="edge">
<title>Node4&#45;&gt;Node5</title>
<path fill="none" stroke="midnightblue" d="M1065.14,-76C1073.7,-76 1082.25,-76 1090.66,-76"/>
<polygon fill="midnightblue" stroke="midnightblue" points="1065.08,-72.5 1055.08,-76 1065.08,-79.5 1065.08,-72.5"/>
</g>
</g>
</svg>
