<?xml version="1.0" encoding="UTF-8" standalone="no"?>
<!DOCTYPE svg PUBLIC "-//W3C//DTD SVG 1.1//EN"
 "http://www.w3.org/Graphics/SVG/1.1/DTD/svg11.dtd">
<!-- Generated by graphviz version 2.43.0 (0)
 -->
<!-- Title: fiftyone.caching.PutCache&lt; K, V &gt; Pages: 1 -->
<svg width="1653pt" height="268pt"
 viewBox="0.00 0.00 1653.00 268.00" xmlns="http://www.w3.org/2000/svg" xmlns:xlink="http://www.w3.org/1999/xlink">
<g id="graph0" class="graph" transform="scale(1 1) rotate(0) translate(4 264)">
<title>fiftyone.caching.PutCache&lt; K, V &gt;</title>
<!-- Node0 -->
<g id="node1" class="node">
<title>Node0</title>
<g id="a_node1"><a xlink:title="A cache that supports a thread safe put method for inserting to cache.">
<polygon fill="#bfbfbf" stroke="black" points="242,-85.5 242,-115.5 385,-115.5 385,-85.5 242,-85.5"/>
<text text-anchor="start" x="250" y="-103.5" font-family="Helvetica,sans-Serif" font-size="10.00">fiftyone.caching.PutCache</text>
<text text-anchor="middle" x="313.5" y="-92.5" font-family="Helvetica,sans-Serif" font-size="10.00">&lt; K, V &gt;</text>
</a>
</g>
</g>
<!-- Node3 -->
<g id="node4" class="node">
<title>Node3</title>
<g id="a_node4"><a xlink:href="classfiftyone_1_1caching_1_1_lru_put_cache.html" target="_top" xlink:title="Uses the LruCacheBase to implement the PutCache interface.">
<polygon fill="none" stroke="black" points="579.5,-170.5 579.5,-200.5 698.5,-200.5 698.5,-170.5 579.5,-170.5"/>
<text text-anchor="start" x="587.5" y="-188.5" font-family="Helvetica,sans-Serif" font-size="10.00">fiftyone::caching::</text>
<text text-anchor="middle" x="639" y="-177.5" font-family="Helvetica,sans-Serif" font-size="10.00">LruPutCache&lt; K, V &gt;</text>
</a>
</g>
</g>
<!-- Node0&#45;&gt;Node3 -->
<g id="edge3" class="edge">
<title>Node0&#45;&gt;Node3</title>
<path fill="none" stroke="midnightblue" d="M367.53,-118.67C379.16,-122.43 391.45,-126.24 403,-129.5 462.53,-146.32 531.48,-162.35 579.22,-172.91"/>
<polygon fill="midnightblue" stroke="midnightblue" points="368.54,-115.31 357.94,-115.53 366.36,-121.97 368.54,-115.31"/>
</g>
<!-- Node4 -->
<g id="node5" class="node">
<title>Node4</title>
<g id="a_node5"><a xlink:href="interfacefiftyone_1_1pipeline_1_1engines_1_1caching_1_1_data_keyed_cache.html" target="_top" xlink:title="Represents a put cache where the key is a FlowData instance.">
<polygon fill="none" stroke="black" points="548,-110 548,-151 730,-151 730,-110 548,-110"/>
<text text-anchor="start" x="556" y="-139" font-family="Helvetica,sans-Serif" font-size="10.00">fiftyone::pipeline</text>
<text text-anchor="start" x="556" y="-128" font-family="Helvetica,sans-Serif" font-size="10.00">::engines::caching::</text>
<text text-anchor="middle" x="639" y="-117" font-family="Helvetica,sans-Serif" font-size="10.00">DataKeyedCache&lt; FlowData, V &gt;</text>
</a>
</g>
</g>
<!-- Node0&#45;&gt;Node4 -->
<g id="edge4" class="edge">
<title>Node0&#45;&gt;Node4</title>
<path fill="none" stroke="midnightblue" d="M395.1,-107.97C441.5,-112.28 499.92,-117.7 547.84,-122.14"/>
<polygon fill="midnightblue" stroke="midnightblue" points="395.37,-104.48 385.09,-107.05 394.73,-111.46 395.37,-104.48"/>
</g>
<!-- Node14 -->
<g id="node15" class="node">
<title>Node14</title>
<g id="a_node15"><a xlink:href="interfacefiftyone_1_1caching_1_1_put_cache.html" target="_top" xlink:title=" ">
<polygon fill="none" stroke="black" points="560,-50 560,-91 718,-91 718,-50 560,-50"/>
<text text-anchor="start" x="568" y="-79" font-family="Helvetica,sans-Serif" font-size="10.00">fiftyone.caching.PutCache</text>
<text text-anchor="start" x="568" y="-68" font-family="Helvetica,sans-Serif" font-size="10.00">&lt; fiftyone.pipeline.core.data.</text>
<text text-anchor="middle" x="639" y="-57" font-family="Helvetica,sans-Serif" font-size="10.00">DataKey, V &gt;</text>
</a>
</g>
</g>
<!-- Node0&#45;&gt;Node14 -->
<g id="edge15" class="edge">
<title>Node0&#45;&gt;Node14</title>
<path fill="none" stroke="orange" stroke-dasharray="5,2" d="M395.37,-84.51C397.94,-84.15 400.49,-83.81 403,-83.5 455.11,-77.08 514.12,-73.83 559.97,-72.19"/>
<polygon fill="orange" stroke="orange" points="394.74,-81.06 385.37,-86.02 395.78,-87.99 394.74,-81.06"/>
<text text-anchor="start" x="403" y="-97.5" font-family="Helvetica,sans-Serif" font-size="10.00"> &lt; fiftyone::pipeline</text>
<text text-anchor="middle" x="466.5" y="-86.5" font-family="Helvetica,sans-Serif" font-size="10.00">::core::data::DataKey, V &gt;</text>
</g>
<!-- Node15 -->
<g id="node16" class="node">
<title>Node15</title>
<g id="a_node16"><a xlink:href="interfacefiftyone_1_1caching_1_1_put_cache.html" target="_top" xlink:title=" ">
<polygon fill="none" stroke="black" points="567.5,-0.5 567.5,-30.5 710.5,-30.5 710.5,-0.5 567.5,-0.5"/>
<text text-anchor="start" x="575.5" y="-18.5" font-family="Helvetica,sans-Serif" font-size="10.00">fiftyone.caching.PutCache</text>
<text text-anchor="middle" x="639" y="-7.5" font-family="Helvetica,sans-Serif" font-size="10.00">&lt; FlowData, V &gt;</text>
</a>
</g>
</g>
<!-- Node0&#45;&gt;Node15 -->
<g id="edge16" class="edge">
<title>Node0&#45;&gt;Node15</title>
<path fill="none" stroke="orange" stroke-dasharray="5,2" d="M351.72,-80.75C367.23,-73.18 385.64,-65.05 403,-59.5 456.97,-42.24 520.19,-30.88 567.46,-24.03"/>
<polygon fill="orange" stroke="orange" points="349.86,-77.76 342.47,-85.35 352.99,-84.03 349.86,-77.76"/>
<text text-anchor="middle" x="466.5" y="-62.5" font-family="Helvetica,sans-Serif" font-size="10.00"> &lt; FlowData, V &gt;</text>
</g>
<!-- Node1 -->
<g id="node2" class="node">
<title>Node1</title>
<g id="a_node2"><a xlink:href="interfacefiftyone_1_1caching_1_1_cache.html" target="_top" xlink:title="Base cache interface which declares only the get method and the types of key and value stored in the ...">
<polygon fill="none" stroke="black" points="102,-85.5 102,-115.5 205,-115.5 205,-85.5 102,-85.5"/>
<text text-anchor="start" x="110" y="-103.5" font-family="Helvetica,sans-Serif" font-size="10.00">fiftyone::caching::</text>
<text text-anchor="middle" x="153.5" y="-92.5" font-family="Helvetica,sans-Serif" font-size="10.00">Cache&lt; K, V &gt;</text>
</a>
</g>
</g>
<!-- Node1&#45;&gt;Node0 -->
<g id="edge1" class="edge">
<title>Node1&#45;&gt;Node0</title>
<path fill="none" stroke="midnightblue" d="M215.38,-100.5C224.05,-100.5 233.03,-100.5 241.87,-100.5"/>
<polygon fill="midnightblue" stroke="midnightblue" points="215.36,-97 205.36,-100.5 215.36,-104 215.36,-97"/>
</g>
<!-- Node2 -->
<g id="node3" class="node">
<title>Node2</title>
<g id="a_node3"><a xlink:title=" ">
<polygon fill="none" stroke="#bfbfbf" points="0,-91 0,-110 65,-110 65,-91 0,-91"/>
<text text-anchor="middle" x="32.5" y="-98" font-family="Helvetica,sans-Serif" font-size="10.00">Closeable</text>
</a>
</g>
</g>
<!-- Node2&#45;&gt;Node1 -->
<g id="edge2" class="edge">
<title>Node2&#45;&gt;Node1</title>
<path fill="none" stroke="midnightblue" d="M75.25,-100.5C83.86,-100.5 93.01,-100.5 101.89,-100.5"/>
<polygon fill="midnightblue" stroke="midnightblue" points="75.08,-97 65.08,-100.5 75.08,-104 75.08,-97"/>
</g>
<!-- Node5 -->
<g id="node6" class="node">
<title>Node5</title>
<g id="a_node6"><a xlink:href="classfiftyone_1_1pipeline_1_1engines_1_1caching_1_1_data_keyed_cache_base.html" target="_top" xlink:title="Abstract base class for caches that use FlowData as the key.">
<polygon fill="none" stroke="black" points="872.5,-145 872.5,-186 1025.5,-186 1025.5,-145 872.5,-145"/>
<text text-anchor="start" x="880.5" y="-174" font-family="Helvetica,sans-Serif" font-size="10.00">fiftyone::pipeline</text>
<text text-anchor="start" x="880.5" y="-163" font-family="Helvetica,sans-Serif" font-size="10.00">::engines::caching::</text>
<text text-anchor="middle" x="949" y="-152" font-family="Helvetica,sans-Serif" font-size="10.00">DataKeyedCacheBase&lt; V &gt;</text>
</a>
</g>
</g>
<!-- Node4&#45;&gt;Node5 -->
<g id="edge5" class="edge">
<title>Node4&#45;&gt;Node5</title>
<path fill="none" stroke="midnightblue" d="M740.53,-141.92C783.47,-146.8 832.74,-152.4 872.49,-156.92"/>
<polygon fill="midnightblue" stroke="midnightblue" points="740.66,-138.42 730.33,-140.76 739.87,-145.37 740.66,-138.42"/>
</g>
<!-- Node12 -->
<g id="node13" class="node">
<title>Node12</title>
<g id="a_node13"><a xlink:href="interfacefiftyone_1_1pipeline_1_1engines_1_1caching_1_1_data_keyed_cache.html" target="_top" xlink:title=" ">
<polygon fill="none" stroke="black" points="856,-84.5 856,-114.5 1042,-114.5 1042,-84.5 856,-84.5"/>
<text text-anchor="start" x="864" y="-102.5" font-family="Helvetica,sans-Serif" font-size="10.00">fiftyone.pipeline.engines.caching.</text>
<text text-anchor="middle" x="949" y="-91.5" font-family="Helvetica,sans-Serif" font-size="10.00">DataKeyedCache&lt; ElementData &gt;</text>
</a>
</g>
</g>
<!-- Node4&#45;&gt;Node12 -->
<g id="edge12" class="edge">
<title>Node4&#45;&gt;Node12</title>
<path fill="none" stroke="orange" stroke-dasharray="5,2" d="M740.65,-120.37C777.73,-116.64 819.51,-112.43 855.8,-108.78"/>
<polygon fill="orange" stroke="orange" points="739.93,-116.92 730.33,-121.41 740.63,-123.89 739.93,-116.92"/>
<text text-anchor="middle" x="793" y="-123.5" font-family="Helvetica,sans-Serif" font-size="10.00"> &lt; ElementData &gt;</text>
</g>
<!-- Node6 -->
<g id="node7" class="node">
<title>Node6</title>
<g id="a_node7"><a xlink:href="classfiftyone_1_1pipeline_1_1engines_1_1trackers_1_1_tracker_base.html" target="_top" xlink:title="The abstract base class for trackers.">
<polygon fill="none" stroke="black" points="1218,-206 1218,-247 1328,-247 1328,-206 1218,-206"/>
<text text-anchor="start" x="1226" y="-235" font-family="Helvetica,sans-Serif" font-size="10.00">fiftyone::pipeline</text>
<text text-anchor="start" x="1226" y="-224" font-family="Helvetica,sans-Serif" font-size="10.00">::engines::trackers</text>
<text text-anchor="middle" x="1273" y="-213" font-family="Helvetica,sans-Serif" font-size="10.00">::TrackerBase&lt; T &gt;</text>
</a>
</g>
</g>
<!-- Node5&#45;&gt;Node6 -->
<g id="edge6" class="edge">
<title>Node5&#45;&gt;Node6</title>
<path fill="none" stroke="midnightblue" d="M1035.76,-181.75C1093.54,-192.69 1168.01,-206.8 1217.75,-216.22"/>
<polygon fill="midnightblue" stroke="midnightblue" points="1036.38,-178.3 1025.9,-179.88 1035.08,-185.18 1036.38,-178.3"/>
</g>
<!-- Node9 -->
<g id="node10" class="node">
<title>Node9</title>
<g id="a_node10"><a xlink:href="classfiftyone_1_1pipeline_1_1engines_1_1caching_1_1_data_keyed_cache_base.html" target="_top" xlink:title=" ">
<polygon fill="none" stroke="black" points="1183,-156.5 1183,-186.5 1363,-186.5 1363,-156.5 1183,-156.5"/>
<text text-anchor="start" x="1191" y="-174.5" font-family="Helvetica,sans-Serif" font-size="10.00">fiftyone.pipeline.engines.caching.</text>
<text text-anchor="middle" x="1273" y="-163.5" font-family="Helvetica,sans-Serif" font-size="10.00">DataKeyedCacheBase&lt; T &gt;</text>
</a>
</g>
</g>
<!-- Node5&#45;&gt;Node9 -->
<g id="edge9" class="edge">
<title>Node5&#45;&gt;Node9</title>
<path fill="none" stroke="orange" stroke-dasharray="5,2" d="M1036.02,-167.1C1081.41,-167.95 1137.05,-168.99 1182.9,-169.84"/>
<polygon fill="orange" stroke="orange" points="1035.97,-163.6 1025.9,-166.91 1035.83,-170.6 1035.97,-163.6"/>
<text text-anchor="middle" x="1105" y="-171.5" font-family="Helvetica,sans-Serif" font-size="10.00"> &lt; T &gt;</text>
</g>
<!-- Node10 -->
<g id="node11" class="node">
<title>Node10</title>
<g id="a_node11"><a xlink:href="classfiftyone_1_1pipeline_1_1engines_1_1caching_1_1_data_keyed_cache_base.html" target="_top" xlink:title=" ">
<polygon fill="none" stroke="black" points="1168,-107.5 1168,-137.5 1378,-137.5 1378,-107.5 1168,-107.5"/>
<text text-anchor="start" x="1176" y="-125.5" font-family="Helvetica,sans-Serif" font-size="10.00">fiftyone.pipeline.engines.caching.</text>
<text text-anchor="middle" x="1273" y="-114.5" font-family="Helvetica,sans-Serif" font-size="10.00">DataKeyedCacheBase&lt; ElementData &gt;</text>
</a>
</g>
</g>
<!-- Node5&#45;&gt;Node10 -->
<g id="edge10" class="edge">
<title>Node5&#45;&gt;Node10</title>
<path fill="none" stroke="orange" stroke-dasharray="5,2" d="M1036.03,-154.01C1076.6,-148.59 1125.35,-142.08 1167.97,-136.39"/>
<polygon fill="orange" stroke="orange" points="1035.35,-150.57 1025.9,-155.36 1036.28,-157.51 1035.35,-150.57"/>
<text text-anchor="middle" x="1105" y="-152.5" font-family="Helvetica,sans-Serif" font-size="10.00"> &lt; ElementData &gt;</text>
</g>
<!-- Node7 -->
<g id="node8" class="node">
<title>Node7</title>
<g id="a_node8"><a xlink:href="classfiftyone_1_1pipeline_1_1engines_1_1fiftyone_1_1trackers_1_1_share_usage_tracker.html" target="_top" xlink:title="A tracker used by share usage to attempt to avoid repeatedly sending data relating to the same user s...">
<polygon fill="none" stroke="black" points="1473.5,-207.5 1473.5,-259.5 1634.5,-259.5 1634.5,-207.5 1473.5,-207.5"/>
<text text-anchor="start" x="1481.5" y="-247.5" font-family="Helvetica,sans-Serif" font-size="10.00">fiftyone::pipeline</text>
<text text-anchor="start" x="1481.5" y="-236.5" font-family="Helvetica,sans-Serif" font-size="10.00">::engines::fiftyone</text>
<text text-anchor="start" x="1481.5" y="-225.5" font-family="Helvetica,sans-Serif" font-size="10.00">::trackers::ShareUsageTracker</text>
<text text-anchor="middle" x="1554" y="-214.5" font-family="Helvetica,sans-Serif" font-size="10.00">&lt; Date &gt;</text>
</a>
</g>
</g>
<!-- Node6&#45;&gt;Node7 -->
<g id="edge7" class="edge">
<title>Node6&#45;&gt;Node7</title>
<path fill="none" stroke="midnightblue" d="M1338.34,-228.11C1378.54,-229.12 1430.62,-230.43 1473.41,-231.5"/>
<polygon fill="midnightblue" stroke="midnightblue" points="1338.21,-224.61 1328.12,-227.86 1338.03,-231.61 1338.21,-224.61"/>
</g>
<!-- Node8 -->
<g id="node9" class="node">
<title>Node8</title>
<g id="a_node9"><a xlink:href="classfiftyone_1_1pipeline_1_1engines_1_1trackers_1_1_tracker_base.html" target="_top" xlink:title=" ">
<polygon fill="none" stroke="black" points="1463,-158.5 1463,-188.5 1645,-188.5 1645,-158.5 1463,-158.5"/>
<text text-anchor="start" x="1471" y="-176.5" font-family="Helvetica,sans-Serif" font-size="10.00">fiftyone.pipeline.engines.trackers.</text>
<text text-anchor="middle" x="1554" y="-165.5" font-family="Helvetica,sans-Serif" font-size="10.00">TrackerBase&lt; Date &gt;</text>
</a>
</g>
</g>
<!-- Node6&#45;&gt;Node8 -->
<g id="edge8" class="edge">
<title>Node6&#45;&gt;Node8</title>
<path fill="none" stroke="orange" stroke-dasharray="5,2" d="M1338.12,-214.32C1378.52,-206.64 1430.98,-196.68 1473.94,-188.52"/>
<polygon fill="orange" stroke="orange" points="1337.3,-210.91 1328.12,-216.22 1338.6,-217.79 1337.3,-210.91"/>
<text text-anchor="middle" x="1420.5" y="-205.5" font-family="Helvetica,sans-Serif" font-size="10.00"> &lt; Date &gt;</text>
</g>
<!-- Node11 -->
<g id="node12" class="node">
<title>Node11</title>
<g id="a_node12"><a xlink:href="classfiftyone_1_1pipeline_1_1engines_1_1caching_1_1_flow_cache_default.html" target="_top" xlink:title="Default implementation of FlowCache using the DataKeyedCacheBase.">
<polygon fill="none" stroke="black" points="1464,-98.5 1464,-128.5 1644,-128.5 1644,-98.5 1464,-98.5"/>
<text text-anchor="start" x="1472" y="-116.5" font-family="Helvetica,sans-Serif" font-size="10.00">fiftyone.pipeline.engines.caching.</text>
<text text-anchor="middle" x="1554" y="-105.5" font-family="Helvetica,sans-Serif" font-size="10.00">FlowCacheDefault</text>
</a>
</g>
</g>
<!-- Node10&#45;&gt;Node11 -->
<g id="edge11" class="edge">
<title>Node10&#45;&gt;Node11</title>
<path fill="none" stroke="midnightblue" d="M1388.6,-118.8C1413.73,-117.99 1439.97,-117.15 1463.93,-116.37"/>
<polygon fill="midnightblue" stroke="midnightblue" points="1388.17,-115.32 1378.29,-119.14 1388.39,-122.31 1388.17,-115.32"/>
</g>
<!-- Node13 -->
<g id="node14" class="node">
<title>Node13</title>
<g id="a_node14"><a xlink:href="interfacefiftyone_1_1pipeline_1_1engines_1_1caching_1_1_flow_cache.html" target="_top" xlink:title="Used to cache results from individual flow elements in the pipeline.">
<polygon fill="none" stroke="black" points="1183,-58.5 1183,-88.5 1363,-88.5 1363,-58.5 1183,-58.5"/>
<text text-anchor="start" x="1191" y="-76.5" font-family="Helvetica,sans-Serif" font-size="10.00">fiftyone.pipeline.engines.caching.</text>
<text text-anchor="middle" x="1273" y="-65.5" font-family="Helvetica,sans-Serif" font-size="10.00">FlowCache</text>
</a>
</g>
</g>
<!-- Node12&#45;&gt;Node13 -->
<g id="edge13" class="edge">
<title>Node12&#45;&gt;Node13</title>
<path fill="none" stroke="midnightblue" d="M1052.5,-91.22C1094.37,-87.84 1142.36,-83.97 1182.77,-80.71"/>
<polygon fill="midnightblue" stroke="midnightblue" points="1051.96,-87.76 1042.27,-92.05 1052.52,-94.73 1051.96,-87.76"/>
</g>
<!-- Node13&#45;&gt;Node11 -->
<g id="edge14" class="edge">
<title>Node13&#45;&gt;Node11</title>
<path fill="none" stroke="midnightblue" d="M1372.98,-87.69C1402.6,-91.94 1434.89,-96.57 1463.84,-100.72"/>
<polygon fill="midnightblue" stroke="midnightblue" points="1373.44,-84.22 1363.04,-86.27 1372.45,-91.15 1373.44,-84.22"/>
</g>
</g>
</svg>
