<?xml version="1.0" encoding="UTF-8" standalone="no"?>
<!DOCTYPE svg PUBLIC "-//W3C//DTD SVG 1.1//EN"
 "http://www.w3.org/Graphics/SVG/1.1/DTD/svg11.dtd">
<!-- Generated by graphviz version 2.43.0 (0)
 -->
<!-- Title: fiftyone.pipeline.core.data.factories.ElementDataFactory&lt; T extends ElementData &gt; Pages: 1 -->
<svg width="983pt" height="88pt"
 viewBox="0.00 0.00 983.00 88.00" xmlns="http://www.w3.org/2000/svg" xmlns:xlink="http://www.w3.org/1999/xlink">
<g id="graph0" class="graph" transform="scale(1 1) rotate(0) translate(4 84)">
<title>fiftyone.pipeline.core.data.factories.ElementDataFactory&lt; T extends ElementData &gt;</title>
<!-- Node0 -->
<g id="node1" class="node">
<title>Node0</title>
<g id="a_node1"><a xlink:title="Factory class used to create a new ElementData instance for a FlowElement.">
<polygon fill="#bfbfbf" stroke="black" points="400,-19 400,-60 593,-60 593,-19 400,-19"/>
<text text-anchor="start" x="408" y="-48" font-family="Helvetica,sans-Serif" font-size="10.00">fiftyone.pipeline.core.data.factories.</text>
<text text-anchor="start" x="408" y="-37" font-family="Helvetica,sans-Serif" font-size="10.00">ElementDataFactory&lt; T extends</text>
<text text-anchor="middle" x="496.5" y="-26" font-family="Helvetica,sans-Serif" font-size="10.00"> ElementData &gt;</text>
</a>
</g>
</g>
<!-- Node3 -->
<g id="node4" class="node">
<title>Node3</title>
<g id="a_node4"><a xlink:href="interfacefiftyone_1_1pipeline_1_1core_1_1data_1_1factories_1_1_element_data_factory.html" target="_top" xlink:title=" ">
<polygon fill="none" stroke="black" points="764,-49.5 764,-79.5 957,-79.5 957,-49.5 764,-49.5"/>
<text text-anchor="start" x="772" y="-67.5" font-family="Helvetica,sans-Serif" font-size="10.00">fiftyone.pipeline.core.data.factories.</text>
<text text-anchor="middle" x="860.5" y="-56.5" font-family="Helvetica,sans-Serif" font-size="10.00">ElementDataFactory&lt; T &gt;</text>
</a>
</g>
</g>
<!-- Node0&#45;&gt;Node3 -->
<g id="edge3" class="edge">
<title>Node0&#45;&gt;Node3</title>
<path fill="none" stroke="orange" stroke-dasharray="5,2" d="M603.1,-46.79C653.87,-50.3 714.27,-54.47 763.69,-57.88"/>
<polygon fill="orange" stroke="orange" points="603.3,-43.3 593.08,-46.1 602.82,-50.28 603.3,-43.3"/>
<text text-anchor="middle" x="669.5" y="-57.5" font-family="Helvetica,sans-Serif" font-size="10.00"> &lt; T &gt;</text>
</g>
<!-- Node4 -->
<g id="node5" class="node">
<title>Node4</title>
<g id="a_node5"><a xlink:href="interfacefiftyone_1_1pipeline_1_1core_1_1data_1_1factories_1_1_element_data_factory.html" target="_top" xlink:title=" ">
<polygon fill="none" stroke="black" points="746,-0.5 746,-30.5 975,-30.5 975,-0.5 746,-0.5"/>
<text text-anchor="start" x="754" y="-18.5" font-family="Helvetica,sans-Serif" font-size="10.00">fiftyone.pipeline.core.data.factories.</text>
<text text-anchor="middle" x="860.5" y="-7.5" font-family="Helvetica,sans-Serif" font-size="10.00">ElementDataFactory&lt; CloudRequestData &gt;</text>
</a>
</g>
</g>
<!-- Node0&#45;&gt;Node4 -->
<g id="edge4" class="edge">
<title>Node0&#45;&gt;Node4</title>
<path fill="none" stroke="orange" stroke-dasharray="5,2" d="M603.28,-32.02C605.88,-31.85 608.46,-31.67 611,-31.5 655.1,-28.53 703.62,-25.38 745.99,-22.66"/>
<polygon fill="orange" stroke="orange" points="602.91,-28.54 593.17,-32.71 603.39,-35.52 602.91,-28.54"/>
<text text-anchor="middle" x="669.5" y="-34.5" font-family="Helvetica,sans-Serif" font-size="10.00"> &lt; CloudRequestData &gt;</text>
</g>
<!-- Node1 -->
<g id="node2" class="node">
<title>Node1</title>
<g id="a_node2"><a xlink:href="interfacefiftyone_1_1pipeline_1_1core_1_1data_1_1_element_data.html" target="_top" xlink:title="Represents property values that have be determined by a specific FlowElement based on the supplied ev...">
<polygon fill="none" stroke="black" points="207,-24.5 207,-54.5 354,-54.5 354,-24.5 207,-24.5"/>
<text text-anchor="start" x="215" y="-42.5" font-family="Helvetica,sans-Serif" font-size="10.00">fiftyone.pipeline.core.data.</text>
<text text-anchor="middle" x="280.5" y="-31.5" font-family="Helvetica,sans-Serif" font-size="10.00">ElementData</text>
</a>
</g>
</g>
<!-- Node1&#45;&gt;Node0 -->
<g id="edge1" class="edge">
<title>Node1&#45;&gt;Node0</title>
<path fill="none" stroke="orange" stroke-dasharray="5,2" d="M364.35,-39.5C375.97,-39.5 388,-39.5 399.84,-39.5"/>
<polygon fill="orange" stroke="orange" points="364.25,-36 354.25,-39.5 364.25,-43 364.25,-36"/>
<text text-anchor="middle" x="377" y="-42.5" font-family="Helvetica,sans-Serif" font-size="10.00"> T</text>
</g>
<!-- Node2 -->
<g id="node3" class="node">
<title>Node2</title>
<g id="a_node3"><a xlink:href="interfacefiftyone_1_1pipeline_1_1core_1_1data_1_1_data.html" target="_top" xlink:title="Represents a collection of property values.">
<polygon fill="none" stroke="black" points="0,-30 0,-49 170,-49 170,-30 0,-30"/>
<text text-anchor="middle" x="85" y="-37" font-family="Helvetica,sans-Serif" font-size="10.00">fiftyone.pipeline.core.data.Data</text>
</a>
</g>
</g>
<!-- Node2&#45;&gt;Node1 -->
<g id="edge2" class="edge">
<title>Node2&#45;&gt;Node1</title>
<path fill="none" stroke="midnightblue" d="M180.11,-39.5C189.07,-39.5 198.06,-39.5 206.77,-39.5"/>
<polygon fill="midnightblue" stroke="midnightblue" points="180.03,-36 170.03,-39.5 180.03,-43 180.03,-36"/>
</g>
</g>
</svg>
