<?xml version="1.0" encoding="UTF-8" standalone="no"?>
<!DOCTYPE svg PUBLIC "-//W3C//DTD SVG 1.1//EN"
 "http://www.w3.org/Graphics/SVG/1.1/DTD/svg11.dtd">
<!-- Generated by graphviz version 2.43.0 (0)
 -->
<!-- Title: fiftyone.pipeline.jsonbuilder.data.JsonBuilderData Pages: 1 -->
<svg width="232pt" height="229pt"
 viewBox="0.00 0.00 232.00 229.00" xmlns="http://www.w3.org/2000/svg" xmlns:xlink="http://www.w3.org/1999/xlink">
<g id="graph0" class="graph" transform="scale(1 1) rotate(0) translate(4 225)">
<title>fiftyone.pipeline.jsonbuilder.data.JsonBuilderData</title>
<!-- Node0 -->
<g id="node1" class="node">
<title>Node0</title>
<g id="a_node1"><a xlink:title="Data containing the result of a JsonBuilderElements processing.">
<polygon fill="#bfbfbf" stroke="black" points="22.5,-67.5 22.5,-97.5 201.5,-97.5 201.5,-67.5 22.5,-67.5"/>
<text text-anchor="start" x="30.5" y="-85.5" font-family="Helvetica,sans-Serif" font-size="10.00">fiftyone.pipeline.jsonbuilder.data.</text>
<text text-anchor="middle" x="112" y="-74.5" font-family="Helvetica,sans-Serif" font-size="10.00">JsonBuilderData</text>
</a>
</g>
</g>
<!-- Node3 -->
<g id="node4" class="node">
<title>Node3</title>
<g id="a_node4"><a xlink:href="classfiftyone_1_1pipeline_1_1jsonbuilder_1_1flowelements_1_1_json_builder_data_internal.html" target="_top" xlink:title="[class]">
<polygon fill="none" stroke="black" points="0,-0.5 0,-30.5 224,-30.5 224,-0.5 0,-0.5"/>
<text text-anchor="start" x="8" y="-18.5" font-family="Helvetica,sans-Serif" font-size="10.00">fiftyone.pipeline.jsonbuilder.flowelements.</text>
<text text-anchor="middle" x="112" y="-7.5" font-family="Helvetica,sans-Serif" font-size="10.00">JsonBuilderDataInternal</text>
</a>
</g>
</g>
<!-- Node0&#45;&gt;Node3 -->
<g id="edge3" class="edge">
<title>Node0&#45;&gt;Node3</title>
<path fill="none" stroke="midnightblue" d="M112,-57.11C112,-48.15 112,-38.32 112,-30.58"/>
<polygon fill="midnightblue" stroke="midnightblue" points="108.5,-57.4 112,-67.4 115.5,-57.4 108.5,-57.4"/>
</g>
<!-- Node1 -->
<g id="node2" class="node">
<title>Node1</title>
<g id="a_node2"><a xlink:href="interfacefiftyone_1_1pipeline_1_1core_1_1data_1_1_element_data.html" target="_top" xlink:title="Represents property values that have be determined by a specific FlowElement based on the supplied ev...">
<polygon fill="none" stroke="black" points="38.5,-134.5 38.5,-164.5 185.5,-164.5 185.5,-134.5 38.5,-134.5"/>
<text text-anchor="start" x="46.5" y="-152.5" font-family="Helvetica,sans-Serif" font-size="10.00">fiftyone.pipeline.core.data.</text>
<text text-anchor="middle" x="112" y="-141.5" font-family="Helvetica,sans-Serif" font-size="10.00">ElementData</text>
</a>
</g>
</g>
<!-- Node1&#45;&gt;Node0 -->
<g id="edge1" class="edge">
<title>Node1&#45;&gt;Node0</title>
<path fill="none" stroke="midnightblue" d="M112,-124.11C112,-115.15 112,-105.32 112,-97.58"/>
<polygon fill="midnightblue" stroke="midnightblue" points="108.5,-124.4 112,-134.4 115.5,-124.4 108.5,-124.4"/>
</g>
<!-- Node2 -->
<g id="node3" class="node">
<title>Node2</title>
<g id="a_node3"><a xlink:href="interfacefiftyone_1_1pipeline_1_1core_1_1data_1_1_data.html" target="_top" xlink:title="Represents a collection of property values.">
<polygon fill="none" stroke="black" points="27,-201.5 27,-220.5 197,-220.5 197,-201.5 27,-201.5"/>
<text text-anchor="middle" x="112" y="-208.5" font-family="Helvetica,sans-Serif" font-size="10.00">fiftyone.pipeline.core.data.Data</text>
</a>
</g>
</g>
<!-- Node2&#45;&gt;Node1 -->
<g id="edge2" class="edge">
<title>Node2&#45;&gt;Node1</title>
<path fill="none" stroke="midnightblue" d="M112,-191.23C112,-182.59 112,-172.5 112,-164.52"/>
<polygon fill="midnightblue" stroke="midnightblue" points="108.5,-191.48 112,-201.48 115.5,-191.48 108.5,-191.48"/>
</g>
</g>
</svg>
