<?xml version="1.0" encoding="UTF-8" standalone="no"?>
<!DOCTYPE svg PUBLIC "-//W3C//DTD SVG 1.1//EN"
 "http://www.w3.org/Graphics/SVG/1.1/DTD/svg11.dtd">
<!-- Generated by graphviz version 2.43.0 (0)
 -->
<!-- Title: fiftyone.pipeline.core.data.factories.ElementDataFactory&lt; T extends ElementData &gt; Pages: 1 -->
<svg width="201pt" height="185pt"
 viewBox="0.00 0.00 201.00 185.00" xmlns="http://www.w3.org/2000/svg" xmlns:xlink="http://www.w3.org/1999/xlink">
<g id="graph0" class="graph" transform="scale(1 1) rotate(0) translate(4 181)">
<title>fiftyone.pipeline.core.data.factories.ElementDataFactory&lt; T extends ElementData &gt;</title>
<!-- Node5 -->
<g id="node1" class="node">
<title>Node5</title>
<g id="a_node1"><a xlink:title="Factory class used to create a new ElementData instance for a FlowElement.">
<polygon fill="#bfbfbf" stroke="black" points="0,-0.5 0,-41.5 193,-41.5 193,-0.5 0,-0.5"/>
<text text-anchor="start" x="8" y="-29.5" font-family="Helvetica,sans-Serif" font-size="10.00">fiftyone.pipeline.core.data.factories.</text>
<text text-anchor="start" x="8" y="-18.5" font-family="Helvetica,sans-Serif" font-size="10.00">ElementDataFactory&lt; T extends</text>
<text text-anchor="middle" x="96.5" y="-7.5" font-family="Helvetica,sans-Serif" font-size="10.00"> ElementData &gt;</text>
</a>
</g>
</g>
<!-- Node6 -->
<g id="node2" class="node">
<title>Node6</title>
<g id="a_node2"><a xlink:href="interfacefiftyone_1_1pipeline_1_1core_1_1data_1_1_element_data.html" target="_top" xlink:title="Represents property values that have be determined by a specific FlowElement based on the supplied ev...">
<polygon fill="none" stroke="black" points="23,-89.5 23,-119.5 170,-119.5 170,-89.5 23,-89.5"/>
<text text-anchor="start" x="31" y="-107.5" font-family="Helvetica,sans-Serif" font-size="10.00">fiftyone.pipeline.core.data.</text>
<text text-anchor="middle" x="96.5" y="-96.5" font-family="Helvetica,sans-Serif" font-size="10.00">ElementData</text>
</a>
</g>
</g>
<!-- Node6&#45;&gt;Node5 -->
<g id="edge1" class="edge">
<title>Node6&#45;&gt;Node5</title>
<path fill="none" stroke="orange" stroke-dasharray="5,2" d="M96.5,-79.07C96.5,-67.06 96.5,-52.79 96.5,-41.53"/>
<polygon fill="orange" stroke="orange" points="93,-79.3 96.5,-89.3 100,-79.3 93,-79.3"/>
<text text-anchor="middle" x="101.5" y="-63" font-family="Helvetica,sans-Serif" font-size="10.00"> T</text>
</g>
<!-- Node7 -->
<g id="node3" class="node">
<title>Node7</title>
<g id="a_node3"><a xlink:href="interfacefiftyone_1_1pipeline_1_1core_1_1data_1_1_data.html" target="_top" xlink:title="Represents a collection of property values.">
<polygon fill="none" stroke="black" points="11.5,-157.5 11.5,-176.5 181.5,-176.5 181.5,-157.5 11.5,-157.5"/>
<text text-anchor="middle" x="96.5" y="-164.5" font-family="Helvetica,sans-Serif" font-size="10.00">fiftyone.pipeline.core.data.Data</text>
</a>
</g>
</g>
<!-- Node7&#45;&gt;Node6 -->
<g id="edge2" class="edge">
<title>Node7&#45;&gt;Node6</title>
<path fill="none" stroke="midnightblue" d="M96.5,-147.22C96.5,-138.36 96.5,-127.96 96.5,-119.76"/>
<polygon fill="midnightblue" stroke="midnightblue" points="93,-147.33 96.5,-157.33 100,-147.33 93,-147.33"/>
</g>
</g>
</svg>
