<?xml version="1.0" encoding="UTF-8" standalone="no"?>
<!DOCTYPE svg PUBLIC "-//W3C//DTD SVG 1.1//EN"
 "http://www.w3.org/Graphics/SVG/1.1/DTD/svg11.dtd">
<!-- Generated by graphviz version 2.43.0 (0)
 -->
<!-- Title: fiftyone.pipeline.core.data.ElementPropertyMetaData Pages: 1 -->
<svg width="864pt" height="88pt"
 viewBox="0.00 0.00 864.00 88.00" xmlns="http://www.w3.org/2000/svg" xmlns:xlink="http://www.w3.org/1999/xlink">
<g id="graph0" class="graph" transform="scale(1 1) rotate(0) translate(4 84)">
<title>fiftyone.pipeline.core.data.ElementPropertyMetaData</title>
<!-- Node0 -->
<g id="node1" class="node">
<title>Node0</title>
<g id="a_node1"><a xlink:title="Defines details of a property that can be returned by a FlowElement.">
<polygon fill="#bfbfbf" stroke="black" points="0,-24.5 0,-54.5 147,-54.5 147,-24.5 0,-24.5"/>
<text text-anchor="start" x="8" y="-42.5" font-family="Helvetica,sans-Serif" font-size="10.00">fiftyone.pipeline.core.data.</text>
<text text-anchor="middle" x="73.5" y="-31.5" font-family="Helvetica,sans-Serif" font-size="10.00">ElementPropertyMetaData</text>
</a>
</g>
</g>
<!-- Node1 -->
<g id="node2" class="node">
<title>Node1</title>
<g id="a_node2"><a xlink:href="classfiftyone_1_1pipeline_1_1core_1_1data_1_1_element_property_meta_data_default.html" target="_top" xlink:title="Default implementation of the ElementPropertyMetaData interface.">
<polygon fill="none" stroke="black" points="183,-49.5 183,-79.5 365,-79.5 365,-49.5 183,-49.5"/>
<text text-anchor="start" x="191" y="-67.5" font-family="Helvetica,sans-Serif" font-size="10.00">fiftyone.pipeline.core.data.</text>
<text text-anchor="middle" x="274" y="-56.5" font-family="Helvetica,sans-Serif" font-size="10.00">ElementPropertyMetaDataDefault</text>
</a>
</g>
</g>
<!-- Node0&#45;&gt;Node1 -->
<g id="edge1" class="edge">
<title>Node0&#45;&gt;Node1</title>
<path fill="none" stroke="midnightblue" d="M156.93,-49.88C165.46,-50.96 174.16,-52.05 182.77,-53.14"/>
<polygon fill="midnightblue" stroke="midnightblue" points="157.36,-46.41 147.01,-48.63 156.49,-53.35 157.36,-46.41"/>
</g>
<!-- Node4 -->
<g id="node5" class="node">
<title>Node4</title>
<g id="a_node5"><a xlink:href="interfacefiftyone_1_1pipeline_1_1engines_1_1data_1_1_aspect_property_meta_data.html" target="_top" xlink:title="Holds details about a property that can be returned by an AspectEngine.">
<polygon fill="none" stroke="black" points="192,-0.5 192,-30.5 356,-30.5 356,-0.5 192,-0.5"/>
<text text-anchor="start" x="200" y="-18.5" font-family="Helvetica,sans-Serif" font-size="10.00">fiftyone.pipeline.engines.data.</text>
<text text-anchor="middle" x="274" y="-7.5" font-family="Helvetica,sans-Serif" font-size="10.00">AspectPropertyMetaData</text>
</a>
</g>
</g>
<!-- Node0&#45;&gt;Node4 -->
<g id="edge4" class="edge">
<title>Node0&#45;&gt;Node4</title>
<path fill="none" stroke="midnightblue" d="M157.05,-29.52C168.6,-28.12 180.45,-26.69 191.97,-25.3"/>
<polygon fill="midnightblue" stroke="midnightblue" points="156.51,-26.06 147.01,-30.73 157.35,-33.01 156.51,-26.06"/>
</g>
<!-- Node2 -->
<g id="node3" class="node">
<title>Node2</title>
<g id="a_node3"><a xlink:href="classfiftyone_1_1pipeline_1_1engines_1_1data_1_1_aspect_property_meta_data_default.html" target="_top" xlink:title="Basic implementation of the AspectPropertyMetaData interface.">
<polygon fill="none" stroke="black" points="415.5,-49.5 415.5,-79.5 590.5,-79.5 590.5,-49.5 415.5,-49.5"/>
<text text-anchor="start" x="423.5" y="-67.5" font-family="Helvetica,sans-Serif" font-size="10.00">fiftyone.pipeline.engines.data.</text>
<text text-anchor="middle" x="503" y="-56.5" font-family="Helvetica,sans-Serif" font-size="10.00">AspectPropertyMetaDataDefault</text>
</a>
</g>
</g>
<!-- Node1&#45;&gt;Node2 -->
<g id="edge2" class="edge">
<title>Node1&#45;&gt;Node2</title>
<path fill="none" stroke="midnightblue" d="M375.22,-64.5C388.62,-64.5 402.26,-64.5 415.4,-64.5"/>
<polygon fill="midnightblue" stroke="midnightblue" points="375.04,-61 365.04,-64.5 375.04,-68 375.04,-61"/>
</g>
<!-- Node3 -->
<g id="node4" class="node">
<title>Node3</title>
<g id="a_node4"><a xlink:href="classfiftyone_1_1pipeline_1_1engines_1_1fiftyone_1_1data_1_1_fifty_one_aspect_property_meta_data_default.html" target="_top" xlink:title=" ">
<polygon fill="none" stroke="black" points="641,-24.5 641,-54.5 856,-54.5 856,-24.5 641,-24.5"/>
<text text-anchor="start" x="649" y="-42.5" font-family="Helvetica,sans-Serif" font-size="10.00">fiftyone.pipeline.engines.fiftyone.data.</text>
<text text-anchor="middle" x="748.5" y="-31.5" font-family="Helvetica,sans-Serif" font-size="10.00">FiftyOneAspectPropertyMetaDataDefault</text>
</a>
</g>
</g>
<!-- Node2&#45;&gt;Node3 -->
<g id="edge3" class="edge">
<title>Node2&#45;&gt;Node3</title>
<path fill="none" stroke="midnightblue" d="M600.55,-54.59C613.77,-53.23 627.4,-51.83 640.78,-50.46"/>
<polygon fill="midnightblue" stroke="midnightblue" points="600.12,-51.11 590.53,-55.62 600.84,-58.08 600.12,-51.11"/>
</g>
<!-- Node4&#45;&gt;Node2 -->
<g id="edge5" class="edge">
<title>Node4&#45;&gt;Node2</title>
<path fill="none" stroke="midnightblue" d="M354.61,-32.69C380,-38.16 407.87,-44.18 432.48,-49.49"/>
<polygon fill="midnightblue" stroke="midnightblue" points="355.16,-29.22 344.65,-30.53 353.69,-36.07 355.16,-29.22"/>
</g>
<!-- Node5 -->
<g id="node6" class="node">
<title>Node5</title>
<g id="a_node6"><a xlink:href="interfacefiftyone_1_1pipeline_1_1engines_1_1fiftyone_1_1data_1_1_fifty_one_aspect_property_meta_data.html" target="_top" xlink:title="51Degrees specific meta data.">
<polygon fill="none" stroke="black" points="401,-0.5 401,-30.5 605,-30.5 605,-0.5 401,-0.5"/>
<text text-anchor="start" x="409" y="-18.5" font-family="Helvetica,sans-Serif" font-size="10.00">fiftyone.pipeline.engines.fiftyone.data.</text>
<text text-anchor="middle" x="503" y="-7.5" font-family="Helvetica,sans-Serif" font-size="10.00">FiftyOneAspectPropertyMetaData</text>
</a>
</g>
</g>
<!-- Node4&#45;&gt;Node5 -->
<g id="edge6" class="edge">
<title>Node4&#45;&gt;Node5</title>
<path fill="none" stroke="midnightblue" d="M366.53,-15.5C377.76,-15.5 389.29,-15.5 400.66,-15.5"/>
<polygon fill="midnightblue" stroke="midnightblue" points="366.31,-12 356.31,-15.5 366.31,-19 366.31,-12"/>
</g>
<!-- Node5&#45;&gt;Node3 -->
<g id="edge7" class="edge">
<title>Node5&#45;&gt;Node3</title>
<path fill="none" stroke="midnightblue" d="M615.13,-26.45C623.66,-27.29 632.26,-28.14 640.77,-28.98"/>
<polygon fill="midnightblue" stroke="midnightblue" points="615.45,-22.97 605.15,-25.47 614.76,-29.93 615.45,-22.97"/>
</g>
</g>
</svg>
