<?xml version="1.0" encoding="UTF-8" standalone="no"?>
<!DOCTYPE svg PUBLIC "-//W3C//DTD SVG 1.1//EN"
 "http://www.w3.org/Graphics/SVG/1.1/DTD/svg11.dtd">
<!-- Generated by graphviz version 2.43.0 (0)
 -->
<!-- Title: fiftyone.pipeline.web.mvc.services.WebRequestEvidenceService Pages: 1 -->
<svg width="205pt" height="173pt"
 viewBox="0.00 0.00 205.00 173.00" xmlns="http://www.w3.org/2000/svg" xmlns:xlink="http://www.w3.org/1999/xlink">
<g id="graph0" class="graph" transform="scale(1 1) rotate(0) translate(4 169)">
<title>fiftyone.pipeline.web.mvc.services.WebRequestEvidenceService</title>
<!-- Node0 -->
<g id="node1" class="node">
<title>Node0</title>
<g id="a_node1"><a xlink:title="Spring framework service for the WebRequestEvidenceServiceCore.">
<polygon fill="#bfbfbf" stroke="black" points="4,-67.5 4,-97.5 193,-97.5 193,-67.5 4,-67.5"/>
<text text-anchor="start" x="12" y="-85.5" font-family="Helvetica,sans-Serif" font-size="10.00">fiftyone.pipeline.web.mvc.services.</text>
<text text-anchor="middle" x="98.5" y="-74.5" font-family="Helvetica,sans-Serif" font-size="10.00">WebRequestEvidenceService</text>
</a>
</g>
</g>
<!-- Node2 -->
<g id="node3" class="node">
<title>Node2</title>
<g id="a_node3"><a xlink:href="classfiftyone_1_1pipeline_1_1web_1_1mvc_1_1services_1_1_web_request_evidence_service_1_1_default.html" target="_top" xlink:title=" ">
<polygon fill="none" stroke="black" points="0,-0.5 0,-30.5 197,-30.5 197,-0.5 0,-0.5"/>
<text text-anchor="start" x="8" y="-18.5" font-family="Helvetica,sans-Serif" font-size="10.00">fiftyone.pipeline.web.mvc.services.</text>
<text text-anchor="middle" x="98.5" y="-7.5" font-family="Helvetica,sans-Serif" font-size="10.00">WebRequestEvidenceService.Default</text>
</a>
</g>
</g>
<!-- Node0&#45;&gt;Node2 -->
<g id="edge2" class="edge">
<title>Node0&#45;&gt;Node2</title>
<path fill="none" stroke="midnightblue" d="M98.5,-57.11C98.5,-48.15 98.5,-38.32 98.5,-30.58"/>
<polygon fill="midnightblue" stroke="midnightblue" points="95,-57.4 98.5,-67.4 102,-57.4 95,-57.4"/>
</g>
<!-- Node1 -->
<g id="node2" class="node">
<title>Node1</title>
<g id="a_node2"><a xlink:href="interfacefiftyone_1_1pipeline_1_1web_1_1services_1_1_web_request_evidence_service_core.html" target="_top" xlink:title="Service used to populate the Evidence from a HttpServletRequest ready for it to be processed by the P...">
<polygon fill="none" stroke="black" points="8.5,-134.5 8.5,-164.5 188.5,-164.5 188.5,-134.5 8.5,-134.5"/>
<text text-anchor="start" x="16.5" y="-152.5" font-family="Helvetica,sans-Serif" font-size="10.00">fiftyone.pipeline.web.services.</text>
<text text-anchor="middle" x="98.5" y="-141.5" font-family="Helvetica,sans-Serif" font-size="10.00">WebRequestEvidenceServiceCore</text>
</a>
</g>
</g>
<!-- Node1&#45;&gt;Node0 -->
<g id="edge1" class="edge">
<title>Node1&#45;&gt;Node0</title>
<path fill="none" stroke="midnightblue" d="M98.5,-124.11C98.5,-115.15 98.5,-105.32 98.5,-97.58"/>
<polygon fill="midnightblue" stroke="midnightblue" points="95,-124.4 98.5,-134.4 102,-124.4 95,-124.4"/>
</g>
</g>
</svg>
