<?xml version="1.0" encoding="UTF-8" standalone="no"?>
<!DOCTYPE svg PUBLIC "-//W3C//DTD SVG 1.1//EN"
 "http://www.w3.org/Graphics/SVG/1.1/DTD/svg11.dtd">
<!-- Generated by graphviz version 2.43.0 (0)
 -->
<!-- Title: fiftyone.pipeline.engines.caching.DataKeyedCache&lt; V &gt; Pages: 1 -->
<svg width="1526pt" height="210pt"
 viewBox="0.00 0.00 1526.00 210.00" xmlns="http://www.w3.org/2000/svg" xmlns:xlink="http://www.w3.org/1999/xlink">
<g id="graph0" class="graph" transform="scale(1 1) rotate(0) translate(4 206)">
<title>fiftyone.pipeline.engines.caching.DataKeyedCache&lt; V &gt;</title>
<!-- Node0 -->
<g id="node1" class="node">
<title>Node0</title>
<g id="a_node1"><a xlink:title="Represents a put cache where the key is a FlowData instance.">
<polygon fill="#bfbfbf" stroke="black" points="423,-53.5 423,-83.5 603,-83.5 603,-53.5 423,-53.5"/>
<text text-anchor="start" x="431" y="-71.5" font-family="Helvetica,sans-Serif" font-size="10.00">fiftyone.pipeline.engines.caching.</text>
<text text-anchor="middle" x="513" y="-60.5" font-family="Helvetica,sans-Serif" font-size="10.00">DataKeyedCache&lt; V &gt;</text>
</a>
</g>
</g>
<!-- Node4 -->
<g id="node5" class="node">
<title>Node4</title>
<g id="a_node5"><a xlink:href="classfiftyone_1_1pipeline_1_1engines_1_1caching_1_1_data_keyed_cache_base.html" target="_top" xlink:title="Abstract base class for caches that use FlowData as the key.">
<polygon fill="none" stroke="black" points="745.5,-87 745.5,-128 898.5,-128 898.5,-87 745.5,-87"/>
<text text-anchor="start" x="753.5" y="-116" font-family="Helvetica,sans-Serif" font-size="10.00">fiftyone::pipeline</text>
<text text-anchor="start" x="753.5" y="-105" font-family="Helvetica,sans-Serif" font-size="10.00">::engines::caching::</text>
<text text-anchor="middle" x="822" y="-94" font-family="Helvetica,sans-Serif" font-size="10.00">DataKeyedCacheBase&lt; V &gt;</text>
</a>
</g>
</g>
<!-- Node0&#45;&gt;Node4 -->
<g id="edge4" class="edge">
<title>Node0&#45;&gt;Node4</title>
<path fill="none" stroke="midnightblue" d="M613.38,-81.13C656.23,-86.57 705.53,-92.83 745.34,-97.89"/>
<polygon fill="midnightblue" stroke="midnightblue" points="613.57,-77.62 603.21,-79.83 612.69,-84.57 613.57,-77.62"/>
</g>
<!-- Node11 -->
<g id="node12" class="node">
<title>Node11</title>
<g id="a_node12"><a xlink:href="interfacefiftyone_1_1pipeline_1_1engines_1_1caching_1_1_data_keyed_cache.html" target="_top" xlink:title=" ">
<polygon fill="none" stroke="black" points="729,-26.5 729,-56.5 915,-56.5 915,-26.5 729,-26.5"/>
<text text-anchor="start" x="737" y="-44.5" font-family="Helvetica,sans-Serif" font-size="10.00">fiftyone.pipeline.engines.caching.</text>
<text text-anchor="middle" x="822" y="-33.5" font-family="Helvetica,sans-Serif" font-size="10.00">DataKeyedCache&lt; ElementData &gt;</text>
</a>
</g>
</g>
<!-- Node0&#45;&gt;Node11 -->
<g id="edge11" class="edge">
<title>Node0&#45;&gt;Node11</title>
<path fill="none" stroke="orange" stroke-dasharray="5,2" d="M613.53,-59.75C650.62,-56.48 692.51,-52.8 728.9,-49.6"/>
<polygon fill="orange" stroke="orange" points="612.86,-56.29 603.21,-60.65 613.48,-63.26 612.86,-56.29"/>
<text text-anchor="middle" x="666" y="-62.5" font-family="Helvetica,sans-Serif" font-size="10.00"> &lt; ElementData &gt;</text>
</g>
<!-- Node1 -->
<g id="node2" class="node">
<title>Node1</title>
<g id="a_node2"><a xlink:href="interfacefiftyone_1_1caching_1_1_put_cache.html" target="_top" xlink:title="A cache that supports a thread safe put method for inserting to cache.">
<polygon fill="none" stroke="black" points="242,-53.5 242,-83.5 386,-83.5 386,-53.5 242,-53.5"/>
<text text-anchor="start" x="250" y="-71.5" font-family="Helvetica,sans-Serif" font-size="10.00">fiftyone::caching::</text>
<text text-anchor="middle" x="314" y="-60.5" font-family="Helvetica,sans-Serif" font-size="10.00">PutCache&lt; FlowData, V &gt;</text>
</a>
</g>
</g>
<!-- Node1&#45;&gt;Node0 -->
<g id="edge1" class="edge">
<title>Node1&#45;&gt;Node0</title>
<path fill="none" stroke="midnightblue" d="M396.28,-68.5C405.03,-68.5 413.96,-68.5 422.79,-68.5"/>
<polygon fill="midnightblue" stroke="midnightblue" points="396.12,-65 386.12,-68.5 396.12,-72 396.12,-65"/>
</g>
<!-- Node2 -->
<g id="node3" class="node">
<title>Node2</title>
<g id="a_node3"><a xlink:href="interfacefiftyone_1_1caching_1_1_cache.html" target="_top" xlink:title="Base cache interface which declares only the get method and the types of key and value stored in the ...">
<polygon fill="none" stroke="black" points="102,-53.5 102,-83.5 205,-83.5 205,-53.5 102,-53.5"/>
<text text-anchor="start" x="110" y="-71.5" font-family="Helvetica,sans-Serif" font-size="10.00">fiftyone::caching::</text>
<text text-anchor="middle" x="153.5" y="-60.5" font-family="Helvetica,sans-Serif" font-size="10.00">Cache&lt; K, V &gt;</text>
</a>
</g>
</g>
<!-- Node2&#45;&gt;Node1 -->
<g id="edge2" class="edge">
<title>Node2&#45;&gt;Node1</title>
<path fill="none" stroke="midnightblue" d="M215.15,-68.5C223.87,-68.5 232.9,-68.5 241.8,-68.5"/>
<polygon fill="midnightblue" stroke="midnightblue" points="215.09,-65 205.09,-68.5 215.09,-72 215.09,-65"/>
</g>
<!-- Node3 -->
<g id="node4" class="node">
<title>Node3</title>
<g id="a_node4"><a xlink:title=" ">
<polygon fill="none" stroke="#bfbfbf" points="0,-59 0,-78 65,-78 65,-59 0,-59"/>
<text text-anchor="middle" x="32.5" y="-66" font-family="Helvetica,sans-Serif" font-size="10.00">Closeable</text>
</a>
</g>
</g>
<!-- Node3&#45;&gt;Node2 -->
<g id="edge3" class="edge">
<title>Node3&#45;&gt;Node2</title>
<path fill="none" stroke="midnightblue" d="M75.25,-68.5C83.86,-68.5 93.01,-68.5 101.89,-68.5"/>
<polygon fill="midnightblue" stroke="midnightblue" points="75.08,-65 65.08,-68.5 75.08,-72 75.08,-65"/>
</g>
<!-- Node5 -->
<g id="node6" class="node">
<title>Node5</title>
<g id="a_node6"><a xlink:href="classfiftyone_1_1pipeline_1_1engines_1_1trackers_1_1_tracker_base.html" target="_top" xlink:title="The abstract base class for trackers.">
<polygon fill="none" stroke="black" points="1091,-148 1091,-189 1201,-189 1201,-148 1091,-148"/>
<text text-anchor="start" x="1099" y="-177" font-family="Helvetica,sans-Serif" font-size="10.00">fiftyone::pipeline</text>
<text text-anchor="start" x="1099" y="-166" font-family="Helvetica,sans-Serif" font-size="10.00">::engines::trackers</text>
<text text-anchor="middle" x="1146" y="-155" font-family="Helvetica,sans-Serif" font-size="10.00">::TrackerBase&lt; T &gt;</text>
</a>
</g>
</g>
<!-- Node4&#45;&gt;Node5 -->
<g id="edge5" class="edge">
<title>Node4&#45;&gt;Node5</title>
<path fill="none" stroke="midnightblue" d="M908.76,-123.75C966.54,-134.69 1041.01,-148.8 1090.75,-158.22"/>
<polygon fill="midnightblue" stroke="midnightblue" points="909.38,-120.3 898.9,-121.88 908.08,-127.18 909.38,-120.3"/>
</g>
<!-- Node8 -->
<g id="node9" class="node">
<title>Node8</title>
<g id="a_node9"><a xlink:href="classfiftyone_1_1pipeline_1_1engines_1_1caching_1_1_data_keyed_cache_base.html" target="_top" xlink:title=" ">
<polygon fill="none" stroke="black" points="1056,-98.5 1056,-128.5 1236,-128.5 1236,-98.5 1056,-98.5"/>
<text text-anchor="start" x="1064" y="-116.5" font-family="Helvetica,sans-Serif" font-size="10.00">fiftyone.pipeline.engines.caching.</text>
<text text-anchor="middle" x="1146" y="-105.5" font-family="Helvetica,sans-Serif" font-size="10.00">DataKeyedCacheBase&lt; T &gt;</text>
</a>
</g>
</g>
<!-- Node4&#45;&gt;Node8 -->
<g id="edge8" class="edge">
<title>Node4&#45;&gt;Node8</title>
<path fill="none" stroke="orange" stroke-dasharray="5,2" d="M909.02,-109.1C954.41,-109.95 1010.05,-110.99 1055.9,-111.84"/>
<polygon fill="orange" stroke="orange" points="908.97,-105.6 898.9,-108.91 908.83,-112.6 908.97,-105.6"/>
<text text-anchor="middle" x="978" y="-113.5" font-family="Helvetica,sans-Serif" font-size="10.00"> &lt; T &gt;</text>
</g>
<!-- Node9 -->
<g id="node10" class="node">
<title>Node9</title>
<g id="a_node10"><a xlink:href="classfiftyone_1_1pipeline_1_1engines_1_1caching_1_1_data_keyed_cache_base.html" target="_top" xlink:title=" ">
<polygon fill="none" stroke="black" points="1041,-49.5 1041,-79.5 1251,-79.5 1251,-49.5 1041,-49.5"/>
<text text-anchor="start" x="1049" y="-67.5" font-family="Helvetica,sans-Serif" font-size="10.00">fiftyone.pipeline.engines.caching.</text>
<text text-anchor="middle" x="1146" y="-56.5" font-family="Helvetica,sans-Serif" font-size="10.00">DataKeyedCacheBase&lt; ElementData &gt;</text>
</a>
</g>
</g>
<!-- Node4&#45;&gt;Node9 -->
<g id="edge9" class="edge">
<title>Node4&#45;&gt;Node9</title>
<path fill="none" stroke="orange" stroke-dasharray="5,2" d="M909.03,-96.01C949.6,-90.59 998.35,-84.08 1040.97,-78.39"/>
<polygon fill="orange" stroke="orange" points="908.35,-92.57 898.9,-97.36 909.28,-99.51 908.35,-92.57"/>
<text text-anchor="middle" x="978" y="-95.5" font-family="Helvetica,sans-Serif" font-size="10.00"> &lt; ElementData &gt;</text>
</g>
<!-- Node6 -->
<g id="node7" class="node">
<title>Node6</title>
<g id="a_node7"><a xlink:href="classfiftyone_1_1pipeline_1_1engines_1_1fiftyone_1_1trackers_1_1_share_usage_tracker.html" target="_top" xlink:title="A tracker used by share usage to attempt to avoid repeatedly sending data relating to the same user s...">
<polygon fill="none" stroke="black" points="1346.5,-149.5 1346.5,-201.5 1507.5,-201.5 1507.5,-149.5 1346.5,-149.5"/>
<text text-anchor="start" x="1354.5" y="-189.5" font-family="Helvetica,sans-Serif" font-size="10.00">fiftyone::pipeline</text>
<text text-anchor="start" x="1354.5" y="-178.5" font-family="Helvetica,sans-Serif" font-size="10.00">::engines::fiftyone</text>
<text text-anchor="start" x="1354.5" y="-167.5" font-family="Helvetica,sans-Serif" font-size="10.00">::trackers::ShareUsageTracker</text>
<text text-anchor="middle" x="1427" y="-156.5" font-family="Helvetica,sans-Serif" font-size="10.00">&lt; Date &gt;</text>
</a>
</g>
</g>
<!-- Node5&#45;&gt;Node6 -->
<g id="edge6" class="edge">
<title>Node5&#45;&gt;Node6</title>
<path fill="none" stroke="midnightblue" d="M1211.34,-170.11C1251.54,-171.12 1303.62,-172.43 1346.41,-173.5"/>
<polygon fill="midnightblue" stroke="midnightblue" points="1211.21,-166.61 1201.12,-169.86 1211.03,-173.61 1211.21,-166.61"/>
</g>
<!-- Node7 -->
<g id="node8" class="node">
<title>Node7</title>
<g id="a_node8"><a xlink:href="classfiftyone_1_1pipeline_1_1engines_1_1trackers_1_1_tracker_base.html" target="_top" xlink:title=" ">
<polygon fill="none" stroke="black" points="1336,-100.5 1336,-130.5 1518,-130.5 1518,-100.5 1336,-100.5"/>
<text text-anchor="start" x="1344" y="-118.5" font-family="Helvetica,sans-Serif" font-size="10.00">fiftyone.pipeline.engines.trackers.</text>
<text text-anchor="middle" x="1427" y="-107.5" font-family="Helvetica,sans-Serif" font-size="10.00">TrackerBase&lt; Date &gt;</text>
</a>
</g>
</g>
<!-- Node5&#45;&gt;Node7 -->
<g id="edge7" class="edge">
<title>Node5&#45;&gt;Node7</title>
<path fill="none" stroke="orange" stroke-dasharray="5,2" d="M1211.12,-156.32C1251.52,-148.64 1303.98,-138.68 1346.94,-130.52"/>
<polygon fill="orange" stroke="orange" points="1210.3,-152.91 1201.12,-158.22 1211.6,-159.79 1210.3,-152.91"/>
<text text-anchor="middle" x="1293.5" y="-147.5" font-family="Helvetica,sans-Serif" font-size="10.00"> &lt; Date &gt;</text>
</g>
<!-- Node10 -->
<g id="node11" class="node">
<title>Node10</title>
<g id="a_node11"><a xlink:href="classfiftyone_1_1pipeline_1_1engines_1_1caching_1_1_flow_cache_default.html" target="_top" xlink:title="Default implementation of FlowCache using the DataKeyedCacheBase.">
<polygon fill="none" stroke="black" points="1337,-40.5 1337,-70.5 1517,-70.5 1517,-40.5 1337,-40.5"/>
<text text-anchor="start" x="1345" y="-58.5" font-family="Helvetica,sans-Serif" font-size="10.00">fiftyone.pipeline.engines.caching.</text>
<text text-anchor="middle" x="1427" y="-47.5" font-family="Helvetica,sans-Serif" font-size="10.00">FlowCacheDefault</text>
</a>
</g>
</g>
<!-- Node9&#45;&gt;Node10 -->
<g id="edge10" class="edge">
<title>Node9&#45;&gt;Node10</title>
<path fill="none" stroke="midnightblue" d="M1261.6,-60.8C1286.73,-59.99 1312.97,-59.15 1336.93,-58.37"/>
<polygon fill="midnightblue" stroke="midnightblue" points="1261.17,-57.32 1251.29,-61.14 1261.39,-64.31 1261.17,-57.32"/>
</g>
<!-- Node12 -->
<g id="node13" class="node">
<title>Node12</title>
<g id="a_node13"><a xlink:href="interfacefiftyone_1_1pipeline_1_1engines_1_1caching_1_1_flow_cache.html" target="_top" xlink:title="Used to cache results from individual flow elements in the pipeline.">
<polygon fill="none" stroke="black" points="1056,-0.5 1056,-30.5 1236,-30.5 1236,-0.5 1056,-0.5"/>
<text text-anchor="start" x="1064" y="-18.5" font-family="Helvetica,sans-Serif" font-size="10.00">fiftyone.pipeline.engines.caching.</text>
<text text-anchor="middle" x="1146" y="-7.5" font-family="Helvetica,sans-Serif" font-size="10.00">FlowCache</text>
</a>
</g>
</g>
<!-- Node11&#45;&gt;Node12 -->
<g id="edge12" class="edge">
<title>Node11&#45;&gt;Node12</title>
<path fill="none" stroke="midnightblue" d="M925.5,-33.22C967.37,-29.84 1015.36,-25.97 1055.77,-22.71"/>
<polygon fill="midnightblue" stroke="midnightblue" points="924.96,-29.76 915.27,-34.05 925.52,-36.73 924.96,-29.76"/>
</g>
<!-- Node12&#45;&gt;Node10 -->
<g id="edge13" class="edge">
<title>Node12&#45;&gt;Node10</title>
<path fill="none" stroke="midnightblue" d="M1245.98,-29.69C1275.6,-33.94 1307.89,-38.57 1336.84,-42.72"/>
<polygon fill="midnightblue" stroke="midnightblue" points="1246.44,-26.22 1236.04,-28.27 1245.45,-33.15 1246.44,-26.22"/>
</g>
</g>
</svg>
