<?xml version="1.0" encoding="UTF-8" standalone="no"?>
<!DOCTYPE svg PUBLIC "-//W3C//DTD SVG 1.1//EN"
 "http://www.w3.org/Graphics/SVG/1.1/DTD/svg11.dtd">
<!-- Generated by graphviz version 2.43.0 (0)
 -->
<!-- Title: fiftyone.pipeline.core.flowelements.FlowElement&lt; TData extends ElementData, TProperty extends ElementPropertyMetaData &gt; Pages: 1 -->
<svg width="702pt" height="127pt"
 viewBox="0.00 0.00 702.00 126.50" xmlns="http://www.w3.org/2000/svg" xmlns:xlink="http://www.w3.org/1999/xlink">
<g id="graph0" class="graph" transform="scale(1 1) rotate(0) translate(4 122.5)">
<title>fiftyone.pipeline.core.flowelements.FlowElement&lt; TData extends ElementData, TProperty extends ElementPropertyMetaData &gt;</title>
<!-- Node50 -->
<g id="node1" class="node">
<title>Node50</title>
<g id="a_node1"><a xlink:title="A component that processes a FlowData (by examining its evidence, or by examining data processed by o...">
<polygon fill="#bfbfbf" stroke="black" points="441,-44 441,-85 694,-85 694,-44 441,-44"/>
<text text-anchor="start" x="449" y="-73" font-family="Helvetica,sans-Serif" font-size="10.00">fiftyone.pipeline.core.flowelements.</text>
<text text-anchor="start" x="449" y="-62" font-family="Helvetica,sans-Serif" font-size="10.00">FlowElement&lt; TData extends ElementData,</text>
<text text-anchor="middle" x="567.5" y="-51" font-family="Helvetica,sans-Serif" font-size="10.00"> TProperty extends ElementPropertyMetaData &gt;</text>
</a>
</g>
</g>
<!-- Node51 -->
<g id="node2" class="node">
<title>Node51</title>
<g id="a_node2"><a xlink:title=" ">
<polygon fill="none" stroke="#bfbfbf" points="237,-99 237,-118 324,-118 324,-99 237,-99"/>
<text text-anchor="middle" x="280.5" y="-106" font-family="Helvetica,sans-Serif" font-size="10.00">AutoCloseable</text>
</a>
</g>
</g>
<!-- Node51&#45;&gt;Node50 -->
<g id="edge1" class="edge">
<title>Node51&#45;&gt;Node50</title>
<path fill="none" stroke="midnightblue" d="M334.4,-100.33C364.44,-95.7 403.4,-89.68 440.81,-83.91"/>
<polygon fill="midnightblue" stroke="midnightblue" points="333.52,-96.93 324.17,-101.91 334.58,-103.85 333.52,-96.93"/>
</g>
<!-- Node52 -->
<g id="node3" class="node">
<title>Node52</title>
<g id="a_node3"><a xlink:href="interfacefiftyone_1_1pipeline_1_1core_1_1data_1_1_element_data.html" target="_top" xlink:title="Represents property values that have be determined by a specific FlowElement based on the supplied ev...">
<polygon fill="none" stroke="black" points="207,-49.5 207,-79.5 354,-79.5 354,-49.5 207,-49.5"/>
<text text-anchor="start" x="215" y="-67.5" font-family="Helvetica,sans-Serif" font-size="10.00">fiftyone.pipeline.core.data.</text>
<text text-anchor="middle" x="280.5" y="-56.5" font-family="Helvetica,sans-Serif" font-size="10.00">ElementData</text>
</a>
</g>
</g>
<!-- Node52&#45;&gt;Node50 -->
<g id="edge2" class="edge">
<title>Node52&#45;&gt;Node50</title>
<path fill="none" stroke="orange" stroke-dasharray="5,2" d="M364.24,-64.5C388.18,-64.5 414.88,-64.5 440.82,-64.5"/>
<polygon fill="orange" stroke="orange" points="364.15,-61 354.15,-64.5 364.15,-68 364.15,-61"/>
<text text-anchor="middle" x="397.5" y="-67.5" font-family="Helvetica,sans-Serif" font-size="10.00"> TData</text>
</g>
<!-- Node53 -->
<g id="node4" class="node">
<title>Node53</title>
<g id="a_node4"><a xlink:href="interfacefiftyone_1_1pipeline_1_1core_1_1data_1_1_data.html" target="_top" xlink:title="Represents a collection of property values.">
<polygon fill="none" stroke="black" points="0,-55 0,-74 170,-74 170,-55 0,-55"/>
<text text-anchor="middle" x="85" y="-62" font-family="Helvetica,sans-Serif" font-size="10.00">fiftyone.pipeline.core.data.Data</text>
</a>
</g>
</g>
<!-- Node53&#45;&gt;Node52 -->
<g id="edge3" class="edge">
<title>Node53&#45;&gt;Node52</title>
<path fill="none" stroke="midnightblue" d="M180.11,-64.5C189.07,-64.5 198.06,-64.5 206.77,-64.5"/>
<polygon fill="midnightblue" stroke="midnightblue" points="180.03,-61 170.03,-64.5 180.03,-68 180.03,-61"/>
</g>
<!-- Node54 -->
<g id="node5" class="node">
<title>Node54</title>
<g id="a_node5"><a xlink:href="interfacefiftyone_1_1pipeline_1_1core_1_1data_1_1_element_property_meta_data.html" target="_top" xlink:title="Defines details of a property that can be returned by a FlowElement.">
<polygon fill="none" stroke="black" points="207,-0.5 207,-30.5 354,-30.5 354,-0.5 207,-0.5"/>
<text text-anchor="start" x="215" y="-18.5" font-family="Helvetica,sans-Serif" font-size="10.00">fiftyone.pipeline.core.data.</text>
<text text-anchor="middle" x="280.5" y="-7.5" font-family="Helvetica,sans-Serif" font-size="10.00">ElementPropertyMetaData</text>
</a>
</g>
</g>
<!-- Node54&#45;&gt;Node50 -->
<g id="edge4" class="edge">
<title>Node54&#45;&gt;Node50</title>
<path fill="none" stroke="orange" stroke-dasharray="5,2" d="M364.29,-29.73C390.19,-34.19 419.3,-39.19 447.2,-43.99"/>
<polygon fill="orange" stroke="orange" points="364.6,-26.24 354.15,-27.99 363.42,-33.14 364.6,-26.24"/>
<text text-anchor="middle" x="397.5" y="-42.5" font-family="Helvetica,sans-Serif" font-size="10.00"> TProperty</text>
</g>
</g>
</svg>
