<?xml version="1.0" encoding="UTF-8" standalone="no"?>
<!DOCTYPE svg PUBLIC "-//W3C//DTD SVG 1.1//EN"
 "http://www.w3.org/Graphics/SVG/1.1/DTD/svg11.dtd">
<!-- Generated by graphviz version 2.43.0 (0)
 -->
<!-- Title: fiftyone.caching.Cache&lt; K, V &gt; Pages: 1 -->
<svg width="1734pt" height="317pt"
 viewBox="0.00 0.00 1734.00 317.00" xmlns="http://www.w3.org/2000/svg" xmlns:xlink="http://www.w3.org/1999/xlink">
<g id="graph0" class="graph" transform="scale(1 1) rotate(0) translate(4 313)">
<title>fiftyone.caching.Cache&lt; K, V &gt;</title>
<!-- Node0 -->
<g id="node1" class="node">
<title>Node0</title>
<g id="a_node1"><a xlink:title="Base cache interface which declares only the get method and the types of key and value stored in the ...">
<polygon fill="#bfbfbf" stroke="black" points="102,-183.5 102,-213.5 229,-213.5 229,-183.5 102,-183.5"/>
<text text-anchor="start" x="110" y="-201.5" font-family="Helvetica,sans-Serif" font-size="10.00">fiftyone.caching.Cache</text>
<text text-anchor="middle" x="165.5" y="-190.5" font-family="Helvetica,sans-Serif" font-size="10.00">&lt; K, V &gt;</text>
</a>
</g>
</g>
<!-- Node2 -->
<g id="node3" class="node">
<title>Node2</title>
<g id="a_node3"><a xlink:href="interfacefiftyone_1_1caching_1_1_loading_cache.html" target="_top" xlink:title="Extension of general cache contract to provide for getting a value with a particular value loaded.">
<polygon fill="none" stroke="black" points="338.5,-267.5 338.5,-297.5 465.5,-297.5 465.5,-267.5 338.5,-267.5"/>
<text text-anchor="start" x="346.5" y="-285.5" font-family="Helvetica,sans-Serif" font-size="10.00">fiftyone::caching::</text>
<text text-anchor="middle" x="402" y="-274.5" font-family="Helvetica,sans-Serif" font-size="10.00">LoadingCache&lt; K, V &gt;</text>
</a>
</g>
</g>
<!-- Node0&#45;&gt;Node2 -->
<g id="edge2" class="edge">
<title>Node0&#45;&gt;Node2</title>
<path fill="none" stroke="midnightblue" d="M212.79,-217.38C223.95,-221.8 235.86,-226.41 247,-230.5 282.76,-243.63 323.63,-257.38 354.28,-267.43"/>
<polygon fill="midnightblue" stroke="midnightblue" points="213.8,-214.02 203.21,-213.57 211.21,-220.52 213.8,-214.02"/>
</g>
<!-- Node4 -->
<g id="node5" class="node">
<title>Node4</title>
<g id="a_node5"><a xlink:href="classfiftyone_1_1caching_1_1_lru_cache_base.html" target="_top" xlink:title="This is a Least Recently Used (LRU) cache with multiple linked lists in place of the usual single lin...">
<polygon fill="none" stroke="black" points="338,-218.5 338,-248.5 466,-248.5 466,-218.5 338,-218.5"/>
<text text-anchor="start" x="346" y="-236.5" font-family="Helvetica,sans-Serif" font-size="10.00">fiftyone::caching::</text>
<text text-anchor="middle" x="402" y="-225.5" font-family="Helvetica,sans-Serif" font-size="10.00">LruCacheBase&lt; K, V &gt;</text>
</a>
</g>
</g>
<!-- Node0&#45;&gt;Node4 -->
<g id="edge4" class="edge">
<title>Node0&#45;&gt;Node4</title>
<path fill="none" stroke="midnightblue" d="M239.1,-209.34C270.69,-214.05 307.38,-219.53 337.83,-224.07"/>
<polygon fill="midnightblue" stroke="midnightblue" points="239.44,-205.85 229.03,-207.83 238.41,-212.77 239.44,-205.85"/>
</g>
<!-- Node6 -->
<g id="node7" class="node">
<title>Node6</title>
<g id="a_node7"><a xlink:href="interfacefiftyone_1_1caching_1_1_put_cache.html" target="_top" xlink:title="A cache that supports a thread safe put method for inserting to cache.">
<polygon fill="none" stroke="black" points="350,-164.5 350,-194.5 454,-194.5 454,-164.5 350,-164.5"/>
<text text-anchor="start" x="358" y="-182.5" font-family="Helvetica,sans-Serif" font-size="10.00">fiftyone::caching::</text>
<text text-anchor="middle" x="402" y="-171.5" font-family="Helvetica,sans-Serif" font-size="10.00">PutCache&lt; K, V &gt;</text>
</a>
</g>
</g>
<!-- Node0&#45;&gt;Node6 -->
<g id="edge7" class="edge">
<title>Node0&#45;&gt;Node6</title>
<path fill="none" stroke="midnightblue" d="M239.42,-192.59C275.18,-189.69 317.4,-186.27 349.71,-183.66"/>
<polygon fill="midnightblue" stroke="midnightblue" points="238.72,-189.14 229.03,-193.43 239.28,-196.11 238.72,-189.14"/>
</g>
<!-- Node19 -->
<g id="node20" class="node">
<title>Node19</title>
<g id="a_node20"><a xlink:href="interfacefiftyone_1_1caching_1_1_cache.html" target="_top" xlink:title=" ">
<polygon fill="none" stroke="black" points="338.5,-58.5 338.5,-88.5 465.5,-88.5 465.5,-58.5 338.5,-58.5"/>
<text text-anchor="start" x="346.5" y="-76.5" font-family="Helvetica,sans-Serif" font-size="10.00">fiftyone.caching.Cache</text>
<text text-anchor="middle" x="402" y="-65.5" font-family="Helvetica,sans-Serif" font-size="10.00">&lt; Integer, V &gt;</text>
</a>
</g>
</g>
<!-- Node0&#45;&gt;Node19 -->
<g id="edge22" class="edge">
<title>Node0&#45;&gt;Node19</title>
<path fill="none" stroke="orange" stroke-dasharray="5,2" d="M203.72,-178.66C250.64,-153.65 330.3,-111.19 372.61,-88.63"/>
<polygon fill="orange" stroke="orange" points="201.96,-175.63 194.79,-183.42 205.26,-181.81 201.96,-175.63"/>
<text text-anchor="middle" x="283.5" y="-157.5" font-family="Helvetica,sans-Serif" font-size="10.00"> &lt; Integer, V &gt;</text>
</g>
<!-- Node1 -->
<g id="node2" class="node">
<title>Node1</title>
<g id="a_node2"><a xlink:title=" ">
<polygon fill="none" stroke="#bfbfbf" points="0,-189 0,-208 65,-208 65,-189 0,-189"/>
<text text-anchor="middle" x="32.5" y="-196" font-family="Helvetica,sans-Serif" font-size="10.00">Closeable</text>
</a>
</g>
</g>
<!-- Node1&#45;&gt;Node0 -->
<g id="edge1" class="edge">
<title>Node1&#45;&gt;Node0</title>
<path fill="none" stroke="midnightblue" d="M75.48,-198.5C83.87,-198.5 92.86,-198.5 101.78,-198.5"/>
<polygon fill="midnightblue" stroke="midnightblue" points="75.21,-195 65.21,-198.5 75.21,-202 75.21,-195"/>
</g>
<!-- Node3 -->
<g id="node4" class="node">
<title>Node3</title>
<g id="a_node4"><a xlink:href="classfiftyone_1_1caching_1_1_lru_loading_cache.html" target="_top" xlink:title="Uses the LruCacheBase to implement the LoadingCache interface.">
<polygon fill="none" stroke="black" points="649,-268.5 649,-298.5 791,-298.5 791,-268.5 649,-268.5"/>
<text text-anchor="start" x="657" y="-286.5" font-family="Helvetica,sans-Serif" font-size="10.00">fiftyone::caching::</text>
<text text-anchor="middle" x="720" y="-275.5" font-family="Helvetica,sans-Serif" font-size="10.00">LruLoadingCache&lt; K, V &gt;</text>
</a>
</g>
</g>
<!-- Node2&#45;&gt;Node3 -->
<g id="edge3" class="edge">
<title>Node2&#45;&gt;Node3</title>
<path fill="none" stroke="midnightblue" d="M475.97,-282.73C527.99,-282.9 597.52,-283.12 648.89,-283.28"/>
<polygon fill="midnightblue" stroke="midnightblue" points="475.82,-279.23 465.81,-282.7 475.8,-286.23 475.82,-279.23"/>
</g>
<!-- Node4&#45;&gt;Node3 -->
<g id="edge5" class="edge">
<title>Node4&#45;&gt;Node3</title>
<path fill="none" stroke="midnightblue" d="M476.33,-245.1C528.28,-253.32 597.54,-264.28 648.77,-272.39"/>
<polygon fill="midnightblue" stroke="midnightblue" points="476.61,-241.6 466.19,-243.5 475.52,-248.52 476.61,-241.6"/>
</g>
<!-- Node5 -->
<g id="node6" class="node">
<title>Node5</title>
<g id="a_node6"><a xlink:href="classfiftyone_1_1caching_1_1_lru_put_cache.html" target="_top" xlink:title="Uses the LruCacheBase to implement the PutCache interface.">
<polygon fill="none" stroke="black" points="660.5,-219.5 660.5,-249.5 779.5,-249.5 779.5,-219.5 660.5,-219.5"/>
<text text-anchor="start" x="668.5" y="-237.5" font-family="Helvetica,sans-Serif" font-size="10.00">fiftyone::caching::</text>
<text text-anchor="middle" x="720" y="-226.5" font-family="Helvetica,sans-Serif" font-size="10.00">LruPutCache&lt; K, V &gt;</text>
</a>
</g>
</g>
<!-- Node4&#45;&gt;Node5 -->
<g id="edge6" class="edge">
<title>Node4&#45;&gt;Node5</title>
<path fill="none" stroke="midnightblue" d="M476.4,-233.73C532.4,-233.91 608.51,-234.15 660.45,-234.31"/>
<polygon fill="midnightblue" stroke="midnightblue" points="476.2,-230.23 466.19,-233.7 476.18,-237.23 476.2,-230.23"/>
</g>
<!-- Node6&#45;&gt;Node5 -->
<g id="edge8" class="edge">
<title>Node6&#45;&gt;Node5</title>
<path fill="none" stroke="midnightblue" d="M464.03,-190.12C520.71,-199.99 604.55,-214.58 660.43,-224.31"/>
<polygon fill="midnightblue" stroke="midnightblue" points="464.57,-186.66 454.12,-188.4 463.37,-193.56 464.57,-186.66"/>
</g>
<!-- Node7 -->
<g id="node8" class="node">
<title>Node7</title>
<g id="a_node8"><a xlink:href="interfacefiftyone_1_1pipeline_1_1engines_1_1caching_1_1_data_keyed_cache.html" target="_top" xlink:title="Represents a put cache where the key is a FlowData instance.">
<polygon fill="none" stroke="black" points="629,-159 629,-200 811,-200 811,-159 629,-159"/>
<text text-anchor="start" x="637" y="-188" font-family="Helvetica,sans-Serif" font-size="10.00">fiftyone::pipeline</text>
<text text-anchor="start" x="637" y="-177" font-family="Helvetica,sans-Serif" font-size="10.00">::engines::caching::</text>
<text text-anchor="middle" x="720" y="-166" font-family="Helvetica,sans-Serif" font-size="10.00">DataKeyedCache&lt; FlowData, V &gt;</text>
</a>
</g>
</g>
<!-- Node6&#45;&gt;Node7 -->
<g id="edge9" class="edge">
<title>Node6&#45;&gt;Node7</title>
<path fill="none" stroke="midnightblue" d="M464.39,-179.5C511.1,-179.5 576.08,-179.5 628.71,-179.5"/>
<polygon fill="midnightblue" stroke="midnightblue" points="464.12,-176 454.12,-179.5 464.12,-183 464.12,-176"/>
</g>
<!-- Node17 -->
<g id="node18" class="node">
<title>Node17</title>
<g id="a_node18"><a xlink:href="interfacefiftyone_1_1caching_1_1_put_cache.html" target="_top" xlink:title=" ">
<polygon fill="none" stroke="black" points="641,-99 641,-140 799,-140 799,-99 641,-99"/>
<text text-anchor="start" x="649" y="-128" font-family="Helvetica,sans-Serif" font-size="10.00">fiftyone.caching.PutCache</text>
<text text-anchor="start" x="649" y="-117" font-family="Helvetica,sans-Serif" font-size="10.00">&lt; fiftyone.pipeline.core.data.</text>
<text text-anchor="middle" x="720" y="-106" font-family="Helvetica,sans-Serif" font-size="10.00">DataKey, V &gt;</text>
</a>
</g>
</g>
<!-- Node6&#45;&gt;Node17 -->
<g id="edge20" class="edge">
<title>Node6&#45;&gt;Node17</title>
<path fill="none" stroke="orange" stroke-dasharray="5,2" d="M455.23,-161.33C464.73,-158.43 474.6,-155.67 484,-153.5 535.71,-141.55 594.85,-133.02 640.86,-127.49"/>
<polygon fill="orange" stroke="orange" points="454,-158.05 445.51,-164.39 456.1,-164.73 454,-158.05"/>
<text text-anchor="start" x="484" y="-167.5" font-family="Helvetica,sans-Serif" font-size="10.00"> &lt; fiftyone::pipeline</text>
<text text-anchor="middle" x="547.5" y="-156.5" font-family="Helvetica,sans-Serif" font-size="10.00">::core::data::DataKey, V &gt;</text>
</g>
<!-- Node18 -->
<g id="node19" class="node">
<title>Node18</title>
<g id="a_node19"><a xlink:href="interfacefiftyone_1_1caching_1_1_put_cache.html" target="_top" xlink:title=" ">
<polygon fill="none" stroke="black" points="648.5,-49.5 648.5,-79.5 791.5,-79.5 791.5,-49.5 648.5,-49.5"/>
<text text-anchor="start" x="656.5" y="-67.5" font-family="Helvetica,sans-Serif" font-size="10.00">fiftyone.caching.PutCache</text>
<text text-anchor="middle" x="720" y="-56.5" font-family="Helvetica,sans-Serif" font-size="10.00">&lt; FlowData, V &gt;</text>
</a>
</g>
</g>
<!-- Node6&#45;&gt;Node18 -->
<g id="edge21" class="edge">
<title>Node6&#45;&gt;Node18</title>
<path fill="none" stroke="orange" stroke-dasharray="5,2" d="M425.82,-157.69C441.15,-144.21 462.42,-127.6 484,-117.5 536.18,-93.09 600.25,-79.6 648.3,-72.35"/>
<polygon fill="orange" stroke="orange" points="423.46,-155.11 418.38,-164.41 428.15,-160.31 423.46,-155.11"/>
<text text-anchor="middle" x="547.5" y="-120.5" font-family="Helvetica,sans-Serif" font-size="10.00"> &lt; FlowData, V &gt;</text>
</g>
<!-- Node8 -->
<g id="node9" class="node">
<title>Node8</title>
<g id="a_node9"><a xlink:href="classfiftyone_1_1pipeline_1_1engines_1_1caching_1_1_data_keyed_cache_base.html" target="_top" xlink:title="Abstract base class for caches that use FlowData as the key.">
<polygon fill="none" stroke="black" points="953.5,-194 953.5,-235 1106.5,-235 1106.5,-194 953.5,-194"/>
<text text-anchor="start" x="961.5" y="-223" font-family="Helvetica,sans-Serif" font-size="10.00">fiftyone::pipeline</text>
<text text-anchor="start" x="961.5" y="-212" font-family="Helvetica,sans-Serif" font-size="10.00">::engines::caching::</text>
<text text-anchor="middle" x="1030" y="-201" font-family="Helvetica,sans-Serif" font-size="10.00">DataKeyedCacheBase&lt; V &gt;</text>
</a>
</g>
</g>
<!-- Node7&#45;&gt;Node8 -->
<g id="edge10" class="edge">
<title>Node7&#45;&gt;Node8</title>
<path fill="none" stroke="midnightblue" d="M821.53,-190.92C864.47,-195.8 913.74,-201.4 953.49,-205.92"/>
<polygon fill="midnightblue" stroke="midnightblue" points="821.66,-187.42 811.33,-189.76 820.87,-194.37 821.66,-187.42"/>
</g>
<!-- Node15 -->
<g id="node16" class="node">
<title>Node15</title>
<g id="a_node16"><a xlink:href="interfacefiftyone_1_1pipeline_1_1engines_1_1caching_1_1_data_keyed_cache.html" target="_top" xlink:title=" ">
<polygon fill="none" stroke="black" points="937,-133.5 937,-163.5 1123,-163.5 1123,-133.5 937,-133.5"/>
<text text-anchor="start" x="945" y="-151.5" font-family="Helvetica,sans-Serif" font-size="10.00">fiftyone.pipeline.engines.caching.</text>
<text text-anchor="middle" x="1030" y="-140.5" font-family="Helvetica,sans-Serif" font-size="10.00">DataKeyedCache&lt; ElementData &gt;</text>
</a>
</g>
</g>
<!-- Node7&#45;&gt;Node15 -->
<g id="edge17" class="edge">
<title>Node7&#45;&gt;Node15</title>
<path fill="none" stroke="orange" stroke-dasharray="5,2" d="M821.65,-169.37C858.73,-165.64 900.51,-161.43 936.8,-157.78"/>
<polygon fill="orange" stroke="orange" points="820.93,-165.92 811.33,-170.41 821.63,-172.89 820.93,-165.92"/>
<text text-anchor="middle" x="874" y="-172.5" font-family="Helvetica,sans-Serif" font-size="10.00"> &lt; ElementData &gt;</text>
</g>
<!-- Node9 -->
<g id="node10" class="node">
<title>Node9</title>
<g id="a_node10"><a xlink:href="classfiftyone_1_1pipeline_1_1engines_1_1trackers_1_1_tracker_base.html" target="_top" xlink:title="The abstract base class for trackers.">
<polygon fill="none" stroke="black" points="1299,-255 1299,-296 1409,-296 1409,-255 1299,-255"/>
<text text-anchor="start" x="1307" y="-284" font-family="Helvetica,sans-Serif" font-size="10.00">fiftyone::pipeline</text>
<text text-anchor="start" x="1307" y="-273" font-family="Helvetica,sans-Serif" font-size="10.00">::engines::trackers</text>
<text text-anchor="middle" x="1354" y="-262" font-family="Helvetica,sans-Serif" font-size="10.00">::TrackerBase&lt; T &gt;</text>
</a>
</g>
</g>
<!-- Node8&#45;&gt;Node9 -->
<g id="edge11" class="edge">
<title>Node8&#45;&gt;Node9</title>
<path fill="none" stroke="midnightblue" d="M1116.76,-230.75C1174.54,-241.69 1249.01,-255.8 1298.75,-265.22"/>
<polygon fill="midnightblue" stroke="midnightblue" points="1117.38,-227.3 1106.9,-228.88 1116.08,-234.18 1117.38,-227.3"/>
</g>
<!-- Node12 -->
<g id="node13" class="node">
<title>Node12</title>
<g id="a_node13"><a xlink:href="classfiftyone_1_1pipeline_1_1engines_1_1caching_1_1_data_keyed_cache_base.html" target="_top" xlink:title=" ">
<polygon fill="none" stroke="black" points="1264,-205.5 1264,-235.5 1444,-235.5 1444,-205.5 1264,-205.5"/>
<text text-anchor="start" x="1272" y="-223.5" font-family="Helvetica,sans-Serif" font-size="10.00">fiftyone.pipeline.engines.caching.</text>
<text text-anchor="middle" x="1354" y="-212.5" font-family="Helvetica,sans-Serif" font-size="10.00">DataKeyedCacheBase&lt; T &gt;</text>
</a>
</g>
</g>
<!-- Node8&#45;&gt;Node12 -->
<g id="edge14" class="edge">
<title>Node8&#45;&gt;Node12</title>
<path fill="none" stroke="orange" stroke-dasharray="5,2" d="M1117.02,-216.1C1162.41,-216.95 1218.05,-217.99 1263.9,-218.84"/>
<polygon fill="orange" stroke="orange" points="1116.97,-212.6 1106.9,-215.91 1116.83,-219.6 1116.97,-212.6"/>
<text text-anchor="middle" x="1186" y="-221.5" font-family="Helvetica,sans-Serif" font-size="10.00"> &lt; T &gt;</text>
</g>
<!-- Node13 -->
<g id="node14" class="node">
<title>Node13</title>
<g id="a_node14"><a xlink:href="classfiftyone_1_1pipeline_1_1engines_1_1caching_1_1_data_keyed_cache_base.html" target="_top" xlink:title=" ">
<polygon fill="none" stroke="black" points="1249,-156.5 1249,-186.5 1459,-186.5 1459,-156.5 1249,-156.5"/>
<text text-anchor="start" x="1257" y="-174.5" font-family="Helvetica,sans-Serif" font-size="10.00">fiftyone.pipeline.engines.caching.</text>
<text text-anchor="middle" x="1354" y="-163.5" font-family="Helvetica,sans-Serif" font-size="10.00">DataKeyedCacheBase&lt; ElementData &gt;</text>
</a>
</g>
</g>
<!-- Node8&#45;&gt;Node13 -->
<g id="edge15" class="edge">
<title>Node8&#45;&gt;Node13</title>
<path fill="none" stroke="orange" stroke-dasharray="5,2" d="M1117.03,-203.01C1157.6,-197.59 1206.35,-191.08 1248.97,-185.39"/>
<polygon fill="orange" stroke="orange" points="1116.35,-199.57 1106.9,-204.36 1117.28,-206.51 1116.35,-199.57"/>
<text text-anchor="middle" x="1186" y="-202.5" font-family="Helvetica,sans-Serif" font-size="10.00"> &lt; ElementData &gt;</text>
</g>
<!-- Node10 -->
<g id="node11" class="node">
<title>Node10</title>
<g id="a_node11"><a xlink:href="classfiftyone_1_1pipeline_1_1engines_1_1fiftyone_1_1trackers_1_1_share_usage_tracker.html" target="_top" xlink:title="A tracker used by share usage to attempt to avoid repeatedly sending data relating to the same user s...">
<polygon fill="none" stroke="black" points="1554.5,-256.5 1554.5,-308.5 1715.5,-308.5 1715.5,-256.5 1554.5,-256.5"/>
<text text-anchor="start" x="1562.5" y="-296.5" font-family="Helvetica,sans-Serif" font-size="10.00">fiftyone::pipeline</text>
<text text-anchor="start" x="1562.5" y="-285.5" font-family="Helvetica,sans-Serif" font-size="10.00">::engines::fiftyone</text>
<text text-anchor="start" x="1562.5" y="-274.5" font-family="Helvetica,sans-Serif" font-size="10.00">::trackers::ShareUsageTracker</text>
<text text-anchor="middle" x="1635" y="-263.5" font-family="Helvetica,sans-Serif" font-size="10.00">&lt; Date &gt;</text>
</a>
</g>
</g>
<!-- Node9&#45;&gt;Node10 -->
<g id="edge12" class="edge">
<title>Node9&#45;&gt;Node10</title>
<path fill="none" stroke="midnightblue" d="M1419.34,-277.11C1459.54,-278.12 1511.62,-279.43 1554.41,-280.5"/>
<polygon fill="midnightblue" stroke="midnightblue" points="1419.21,-273.61 1409.12,-276.86 1419.03,-280.61 1419.21,-273.61"/>
</g>
<!-- Node11 -->
<g id="node12" class="node">
<title>Node11</title>
<g id="a_node12"><a xlink:href="classfiftyone_1_1pipeline_1_1engines_1_1trackers_1_1_tracker_base.html" target="_top" xlink:title=" ">
<polygon fill="none" stroke="black" points="1544,-207.5 1544,-237.5 1726,-237.5 1726,-207.5 1544,-207.5"/>
<text text-anchor="start" x="1552" y="-225.5" font-family="Helvetica,sans-Serif" font-size="10.00">fiftyone.pipeline.engines.trackers.</text>
<text text-anchor="middle" x="1635" y="-214.5" font-family="Helvetica,sans-Serif" font-size="10.00">TrackerBase&lt; Date &gt;</text>
</a>
</g>
</g>
<!-- Node9&#45;&gt;Node11 -->
<g id="edge13" class="edge">
<title>Node9&#45;&gt;Node11</title>
<path fill="none" stroke="orange" stroke-dasharray="5,2" d="M1419.12,-263.32C1459.52,-255.64 1511.98,-245.68 1554.94,-237.52"/>
<polygon fill="orange" stroke="orange" points="1418.3,-259.91 1409.12,-265.22 1419.6,-266.79 1418.3,-259.91"/>
<text text-anchor="middle" x="1501.5" y="-254.5" font-family="Helvetica,sans-Serif" font-size="10.00"> &lt; Date &gt;</text>
</g>
<!-- Node14 -->
<g id="node15" class="node">
<title>Node14</title>
<g id="a_node15"><a xlink:href="classfiftyone_1_1pipeline_1_1engines_1_1caching_1_1_flow_cache_default.html" target="_top" xlink:title="Default implementation of FlowCache using the DataKeyedCacheBase.">
<polygon fill="none" stroke="black" points="1545,-147.5 1545,-177.5 1725,-177.5 1725,-147.5 1545,-147.5"/>
<text text-anchor="start" x="1553" y="-165.5" font-family="Helvetica,sans-Serif" font-size="10.00">fiftyone.pipeline.engines.caching.</text>
<text text-anchor="middle" x="1635" y="-154.5" font-family="Helvetica,sans-Serif" font-size="10.00">FlowCacheDefault</text>
</a>
</g>
</g>
<!-- Node13&#45;&gt;Node14 -->
<g id="edge16" class="edge">
<title>Node13&#45;&gt;Node14</title>
<path fill="none" stroke="midnightblue" d="M1469.6,-167.8C1494.73,-166.99 1520.97,-166.15 1544.93,-165.37"/>
<polygon fill="midnightblue" stroke="midnightblue" points="1469.17,-164.32 1459.29,-168.14 1469.39,-171.31 1469.17,-164.32"/>
</g>
<!-- Node16 -->
<g id="node17" class="node">
<title>Node16</title>
<g id="a_node17"><a xlink:href="interfacefiftyone_1_1pipeline_1_1engines_1_1caching_1_1_flow_cache.html" target="_top" xlink:title="Used to cache results from individual flow elements in the pipeline.">
<polygon fill="none" stroke="black" points="1264,-107.5 1264,-137.5 1444,-137.5 1444,-107.5 1264,-107.5"/>
<text text-anchor="start" x="1272" y="-125.5" font-family="Helvetica,sans-Serif" font-size="10.00">fiftyone.pipeline.engines.caching.</text>
<text text-anchor="middle" x="1354" y="-114.5" font-family="Helvetica,sans-Serif" font-size="10.00">FlowCache</text>
</a>
</g>
</g>
<!-- Node15&#45;&gt;Node16 -->
<g id="edge18" class="edge">
<title>Node15&#45;&gt;Node16</title>
<path fill="none" stroke="midnightblue" d="M1133.5,-140.22C1175.37,-136.84 1223.36,-132.97 1263.77,-129.71"/>
<polygon fill="midnightblue" stroke="midnightblue" points="1132.96,-136.76 1123.27,-141.05 1133.52,-143.73 1132.96,-136.76"/>
</g>
<!-- Node16&#45;&gt;Node14 -->
<g id="edge19" class="edge">
<title>Node16&#45;&gt;Node14</title>
<path fill="none" stroke="midnightblue" d="M1453.98,-136.69C1483.6,-140.94 1515.89,-145.57 1544.84,-149.72"/>
<polygon fill="midnightblue" stroke="midnightblue" points="1454.44,-133.22 1444.04,-135.27 1453.45,-140.15 1454.44,-133.22"/>
</g>
<!-- Node20 -->
<g id="node21" class="node">
<title>Node20</title>
<g id="a_node21"><a xlink:href="classfiftyone_1_1caching_1_1_no_cache.html" target="_top" xlink:title=" ">
<polygon fill="none" stroke="black" points="650,-0.5 650,-30.5 790,-30.5 790,-0.5 650,-0.5"/>
<text text-anchor="start" x="658" y="-18.5" font-family="Helvetica,sans-Serif" font-size="10.00">fiftyone.caching.NoCache</text>
<text text-anchor="middle" x="720" y="-7.5" font-family="Helvetica,sans-Serif" font-size="10.00">&lt; V extends Closeable &gt;</text>
</a>
</g>
</g>
<!-- Node19&#45;&gt;Node20 -->
<g id="edge23" class="edge">
<title>Node19&#45;&gt;Node20</title>
<path fill="none" stroke="midnightblue" d="M446.07,-54.72C458.15,-50.09 471.42,-45.58 484,-42.5 538.85,-29.08 602.57,-22.29 649.81,-18.87"/>
<polygon fill="midnightblue" stroke="midnightblue" points="444.69,-51.5 436.68,-58.43 447.27,-58.01 444.69,-51.5"/>
</g>
</g>
</svg>
