<?xml version="1.0" encoding="UTF-8" standalone="no"?>
<!DOCTYPE svg PUBLIC "-//W3C//DTD SVG 1.1//EN"
 "http://www.w3.org/Graphics/SVG/1.1/DTD/svg11.dtd">
<!-- Generated by graphviz version 2.43.0 (0)
 -->
<!-- Title: fiftyone.pipeline.web.services.ClientsidePropertyServiceCore Pages: 1 -->
<svg width="638pt" height="88pt"
 viewBox="0.00 0.00 638.00 88.00" xmlns="http://www.w3.org/2000/svg" xmlns:xlink="http://www.w3.org/1999/xlink">
<g id="graph0" class="graph" transform="scale(1 1) rotate(0) translate(4 84)">
<title>fiftyone.pipeline.web.services.ClientsidePropertyServiceCore</title>
<!-- Node0 -->
<g id="node1" class="node">
<title>Node0</title>
<g id="a_node1"><a xlink:title="Class that provides functionality for the &#39;Client side overrides&#39; feature.">
<polygon fill="#bfbfbf" stroke="black" points="0,-24.5 0,-54.5 165,-54.5 165,-24.5 0,-24.5"/>
<text text-anchor="start" x="8" y="-42.5" font-family="Helvetica,sans-Serif" font-size="10.00">fiftyone.pipeline.web.services.</text>
<text text-anchor="middle" x="82.5" y="-31.5" font-family="Helvetica,sans-Serif" font-size="10.00">ClientsidePropertyServiceCore</text>
</a>
</g>
</g>
<!-- Node1 -->
<g id="node2" class="node">
<title>Node1</title>
<g id="a_node2"><a xlink:href="interfacefiftyone_1_1pipeline_1_1web_1_1mvc_1_1services_1_1_clientside_property_service.html" target="_top" xlink:title="Spring framework service for the ClientsidePropertyServiceCore.">
<polygon fill="none" stroke="black" points="208.5,-49.5 208.5,-79.5 397.5,-79.5 397.5,-49.5 208.5,-49.5"/>
<text text-anchor="start" x="216.5" y="-67.5" font-family="Helvetica,sans-Serif" font-size="10.00">fiftyone.pipeline.web.mvc.services.</text>
<text text-anchor="middle" x="303" y="-56.5" font-family="Helvetica,sans-Serif" font-size="10.00">ClientsidePropertyService</text>
</a>
</g>
</g>
<!-- Node0&#45;&gt;Node1 -->
<g id="edge1" class="edge">
<title>Node0&#45;&gt;Node1</title>
<path fill="none" stroke="midnightblue" d="M175.15,-49.99C186.11,-51.24 197.31,-52.52 208.29,-53.78"/>
<polygon fill="midnightblue" stroke="midnightblue" points="175.51,-46.5 165.17,-48.84 174.71,-53.46 175.51,-46.5"/>
</g>
<!-- Node3 -->
<g id="node4" class="node">
<title>Node3</title>
<g id="a_node4"><a xlink:href="classfiftyone_1_1pipeline_1_1web_1_1services_1_1_clientside_property_service_core_1_1_default.html" target="_top" xlink:title="Default implementation of the ClientsidePropertyServiceCore interface.">
<polygon fill="none" stroke="black" points="201,-0.5 201,-30.5 405,-30.5 405,-0.5 201,-0.5"/>
<text text-anchor="start" x="209" y="-18.5" font-family="Helvetica,sans-Serif" font-size="10.00">fiftyone.pipeline.web.services.</text>
<text text-anchor="middle" x="303" y="-7.5" font-family="Helvetica,sans-Serif" font-size="10.00">ClientsidePropertyServiceCore.Default</text>
</a>
</g>
</g>
<!-- Node0&#45;&gt;Node3 -->
<g id="edge3" class="edge">
<title>Node0&#45;&gt;Node3</title>
<path fill="none" stroke="midnightblue" d="M175.36,-29.41C183.78,-28.48 192.35,-27.54 200.85,-26.61"/>
<polygon fill="midnightblue" stroke="midnightblue" points="174.73,-25.96 165.17,-30.53 175.49,-32.92 174.73,-25.96"/>
</g>
<!-- Node2 -->
<g id="node3" class="node">
<title>Node2</title>
<g id="a_node3"><a xlink:href="classfiftyone_1_1pipeline_1_1web_1_1mvc_1_1services_1_1_clientside_property_service_1_1_default.html" target="_top" xlink:title=" ">
<polygon fill="none" stroke="black" points="441,-24.5 441,-54.5 630,-54.5 630,-24.5 441,-24.5"/>
<text text-anchor="start" x="449" y="-42.5" font-family="Helvetica,sans-Serif" font-size="10.00">fiftyone.pipeline.web.mvc.services.</text>
<text text-anchor="middle" x="535.5" y="-31.5" font-family="Helvetica,sans-Serif" font-size="10.00">ClientsidePropertyService.Default</text>
</a>
</g>
</g>
<!-- Node1&#45;&gt;Node2 -->
<g id="edge2" class="edge">
<title>Node1&#45;&gt;Node2</title>
<path fill="none" stroke="midnightblue" d="M407.81,-53.24C418.81,-52.05 429.95,-50.84 440.83,-49.66"/>
<polygon fill="midnightblue" stroke="midnightblue" points="407.32,-49.77 397.75,-54.33 408.07,-56.73 407.32,-49.77"/>
</g>
<!-- Node3&#45;&gt;Node2 -->
<g id="edge4" class="edge">
<title>Node3&#45;&gt;Node2</title>
<path fill="none" stroke="midnightblue" d="M415.14,-27.07C423.71,-27.96 432.32,-28.86 440.76,-29.74"/>
<polygon fill="midnightblue" stroke="midnightblue" points="415.41,-23.58 405.1,-26.03 414.68,-30.54 415.41,-23.58"/>
</g>
</g>
</svg>
