<?xml version="1.0" encoding="UTF-8" standalone="no"?>
<!DOCTYPE svg PUBLIC "-//W3C//DTD SVG 1.1//EN"
 "http://www.w3.org/Graphics/SVG/1.1/DTD/svg11.dtd">
<!-- Generated by graphviz version 2.43.0 (0)
 -->
<!-- Title: fiftyone.pipeline.engines.trackers.Tracker Pages: 1 -->
<svg width="676pt" height="110pt"
 viewBox="0.00 0.00 676.00 110.00" xmlns="http://www.w3.org/2000/svg" xmlns:xlink="http://www.w3.org/1999/xlink">
<g id="graph0" class="graph" transform="scale(1 1) rotate(0) translate(4 106)">
<title>fiftyone.pipeline.engines.trackers.Tracker</title>
<!-- Node0 -->
<g id="node1" class="node">
<title>Node0</title>
<g id="a_node1"><a xlink:title="Represents a &#39;tracker&#39;.">
<polygon fill="#bfbfbf" stroke="black" points="0,-30.5 0,-60.5 182,-60.5 182,-30.5 0,-30.5"/>
<text text-anchor="start" x="8" y="-48.5" font-family="Helvetica,sans-Serif" font-size="10.00">fiftyone.pipeline.engines.trackers.</text>
<text text-anchor="middle" x="91" y="-37.5" font-family="Helvetica,sans-Serif" font-size="10.00">Tracker</text>
</a>
</g>
</g>
<!-- Node1 -->
<g id="node2" class="node">
<title>Node1</title>
<g id="a_node2"><a xlink:href="classfiftyone_1_1pipeline_1_1engines_1_1trackers_1_1_tracker_base.html" target="_top" xlink:title="The abstract base class for trackers.">
<polygon fill="none" stroke="black" points="219,-30.5 219,-60.5 401,-60.5 401,-30.5 219,-30.5"/>
<text text-anchor="start" x="227" y="-48.5" font-family="Helvetica,sans-Serif" font-size="10.00">fiftyone.pipeline.engines.trackers.</text>
<text text-anchor="middle" x="310" y="-37.5" font-family="Helvetica,sans-Serif" font-size="10.00">TrackerBase&lt; T &gt;</text>
</a>
</g>
</g>
<!-- Node0&#45;&gt;Node1 -->
<g id="edge1" class="edge">
<title>Node0&#45;&gt;Node1</title>
<path fill="none" stroke="midnightblue" d="M192.42,-45.5C201.22,-45.5 210.08,-45.5 218.79,-45.5"/>
<polygon fill="midnightblue" stroke="midnightblue" points="192.14,-42 182.14,-45.5 192.14,-49 192.14,-42"/>
</g>
<!-- Node2 -->
<g id="node3" class="node">
<title>Node2</title>
<g id="a_node3"><a xlink:href="classfiftyone_1_1pipeline_1_1engines_1_1fiftyone_1_1trackers_1_1_share_usage_tracker.html" target="_top" xlink:title="A tracker used by share usage to attempt to avoid repeatedly sending data relating to the same user s...">
<polygon fill="none" stroke="black" points="496.5,-49.5 496.5,-101.5 657.5,-101.5 657.5,-49.5 496.5,-49.5"/>
<text text-anchor="start" x="504.5" y="-89.5" font-family="Helvetica,sans-Serif" font-size="10.00">fiftyone::pipeline</text>
<text text-anchor="start" x="504.5" y="-78.5" font-family="Helvetica,sans-Serif" font-size="10.00">::engines::fiftyone</text>
<text text-anchor="start" x="504.5" y="-67.5" font-family="Helvetica,sans-Serif" font-size="10.00">::trackers::ShareUsageTracker</text>
<text text-anchor="middle" x="577" y="-56.5" font-family="Helvetica,sans-Serif" font-size="10.00">&lt; Date &gt;</text>
</a>
</g>
</g>
<!-- Node1&#45;&gt;Node2 -->
<g id="edge2" class="edge">
<title>Node1&#45;&gt;Node2</title>
<path fill="none" stroke="midnightblue" d="M411.34,-56.86C439.46,-60.04 469.63,-63.46 496.37,-66.49"/>
<polygon fill="midnightblue" stroke="midnightblue" points="411.42,-53.35 401.09,-55.7 410.63,-60.3 411.42,-53.35"/>
</g>
<!-- Node3 -->
<g id="node4" class="node">
<title>Node3</title>
<g id="a_node4"><a xlink:href="classfiftyone_1_1pipeline_1_1engines_1_1trackers_1_1_tracker_base.html" target="_top" xlink:title=" ">
<polygon fill="none" stroke="black" points="486,-0.5 486,-30.5 668,-30.5 668,-0.5 486,-0.5"/>
<text text-anchor="start" x="494" y="-18.5" font-family="Helvetica,sans-Serif" font-size="10.00">fiftyone.pipeline.engines.trackers.</text>
<text text-anchor="middle" x="577" y="-7.5" font-family="Helvetica,sans-Serif" font-size="10.00">TrackerBase&lt; Date &gt;</text>
</a>
</g>
</g>
<!-- Node1&#45;&gt;Node3 -->
<g id="edge3" class="edge">
<title>Node1&#45;&gt;Node3</title>
<path fill="none" stroke="orange" stroke-dasharray="5,2" d="M411.12,-34.17C435.62,-31.39 461.7,-28.44 485.71,-25.72"/>
<polygon fill="orange" stroke="orange" points="410.63,-30.7 401.09,-35.3 411.42,-37.65 410.63,-30.7"/>
<text text-anchor="middle" x="443.5" y="-35.5" font-family="Helvetica,sans-Serif" font-size="10.00"> &lt; Date &gt;</text>
</g>
</g>
</svg>
